<?xml version="1.0" encoding="UTF-8" ?>
<svg xmlns="http://www.w3.org/2000/svg" version="1.1" width="180.00000000000006" height="180.00000000000003">
  <line x1="5.684341886080802e-14" y1="2.842170943040401e-14" x2="180.00000000000006" y2="2.842170943040401e-14" stroke="black" stroke-width="1" />
  <line x1="180.00000000000006" y1="2.842170943040401e-14" x2="180.00000000000003" y2="180.00000000000003" stroke="black" stroke-width="1" />
  <line x1="180.00000000000003" y1="180.00000000000003" x2="2.842170943040401e-14" y2="180.0" stroke="black" stroke-width="1" />
  <line x1="2.842170943040401e-14" y1="180.0" x2="3.9443530622730183e-14" y2="0.0" stroke="black" stroke-width="1" />
  <line x1="3.9443530622730183e-14" y1="0.0" x2="90.00000000000004" y2="0.0" stroke="black" stroke-width="1" />
  <line x1="90.00000000000004" y1="0.0" x2="180.00000000000003" y2="90.00000000000003" stroke="black" stroke-width="1" />
  <line x1="180.00000000000003" y1="90.00000000000003" x2="90.0" y2="180.00000000000003" stroke="black" stroke-width="1" />
  <line x1="90.0" y1="180.00000000000003" x2="0.0" y2="90.00000000000001" stroke="black" stroke-width="1" />
  <line x1="0.0" y1="90.00000000000001" x2="90.00000000000001" y2="1.4210854715202004e-14" stroke="black" stroke-width="1" />
  <line x1="90.00000000000001" y1="1.4210854715202004e-14" x2="135.0" y2="45.00000000000003" stroke="black" stroke-width="1" />
  <line x1="135.0" y1="45.00000000000003" x2="134.99999999999997" y2="135.00000000000003" stroke="black" stroke-width="1" />
  <line x1="134.99999999999997" y1="135.00000000000003" x2="44.99999999999997" y2="135.00000000000003" stroke="black" stroke-width="1" />
  <line x1="44.99999999999997" y1="135.00000000000003" x2="44.99999999999998" y2="45.00000000000003" stroke="black" stroke-width="1" />
  <line x1="44.99999999999998" y1="45.00000000000003" x2="134.99999999999997" y2="45.00000000000003" stroke="black" stroke-width="1" />
  <line x1="134.99999999999997" y1="45.00000000000003" x2="134.99999999999997" y2="90.00000000000003" stroke="black" stroke-width="1" />
  <line x1="134.99999999999997" y1="90.00000000000003" x2="89.99999999999996" y2="135.00000000000003" stroke="black" stroke-width="1" />
  <line x1="89.99999999999996" y1="135.00000000000003" x2="44.99999999999996" y2="90.00000000000003" stroke="black" stroke-width="1" />
  <line x1="44.99999999999996" y1="90.00000000000003" x2="89.99999999999997" y2="45.00000000000003" stroke="black" stroke-width="1" />
  <line x1="89.99999999999997" y1="45.00000000000003" x2="134.99999999999997" y2="90.00000000000004" stroke="black" stroke-width="1" />
  <line x1="134.99999999999997" y1="90.00000000000004" x2="112.49999999999997" y2="112.50000000000004" stroke="black" stroke-width="1" />
  <line x1="112.49999999999997" y1="112.50000000000004" x2="67.49999999999997" y2="112.50000000000004" stroke="black" stroke-width="1" />
  <line x1="67.49999999999997" y1="112.50000000000004" x2="67.49999999999997" y2="67.50000000000004" stroke="black" stroke-width="1" />
  <line x1="67.49999999999997" y1="67.50000000000004" x2="112.49999999999997" y2="67.50000000000004" stroke="black" stroke-width="1" />
  <line x1="112.49999999999997" y1="67.50000000000004" x2="112.49999999999996" y2="112.50000000000004" stroke="black" stroke-width="1" />
  <line x1="112.49999999999996" y1="112.50000000000004" x2="89.99999999999996" y2="112.50000000000004" stroke="black" stroke-width="1" />
  <line x1="89.99999999999996" y1="112.50000000000004" x2="67.49999999999996" y2="90.00000000000004" stroke="black" stroke-width="1" />
  <line x1="67.49999999999996" y1="90.00000000000004" x2="89.99999999999996" y2="67.50000000000004" stroke="black" stroke-width="1" />
  <line x1="89.99999999999996" y1="67.50000000000004" x2="112.49999999999996" y2="90.00000000000006" stroke="black" stroke-width="1" />
  <line x1="112.49999999999996" y1="90.00000000000006" x2="89.99999999999994" y2="112.50000000000006" stroke="black" stroke-width="1" />
  <line x1="89.99999999999994" y1="112.50000000000006" x2="78.74999999999994" y2="101.25000000000006" stroke="black" stroke-width="1" />
  <line x1="78.74999999999994" y1="101.25000000000006" x2="78.74999999999994" y2="78.75000000000006" stroke="black" stroke-width="1" />
  <line x1="78.74999999999994" y1="78.75000000000006" x2="101.24999999999994" y2="78.75000000000006" stroke="black" stroke-width="1" />
  <line x1="101.24999999999994" y1="78.75000000000006" x2="101.24999999999994" y2="101.25000000000006" stroke="black" stroke-width="1" />
  <line x1="101.24999999999994" y1="101.25000000000006" x2="78.74999999999994" y2="101.25000000000006" stroke="black" stroke-width="1" />
  <line x1="78.74999999999994" y1="101.25000000000006" x2="78.74999999999994" y2="90.00000000000006" stroke="black" stroke-width="1" />
  <line x1="78.74999999999994" y1="90.00000000000006" x2="89.99999999999994" y2="78.75000000000006" stroke="black" stroke-width="1" />
  <line x1="89.99999999999994" y1="78.75000000000006" x2="101.24999999999994" y2="90.00000000000006" stroke="black" stroke-width="1" />
  <line x1="101.24999999999994" y1="90.00000000000006" x2="89.99999999999994" y2="101.25000000000006" stroke="black" stroke-width="1" />
  <line x1="89.99999999999994" y1="101.25000000000006" x2="78.74999999999994" y2="90.00000000000006" stroke="black" stroke-width="1" />
  <line x1="78.74999999999994" y1="90.00000000000006" x2="84.37499999999994" y2="84.37500000000006" stroke="black" stroke-width="1" />
  <line x1="84.37499999999994" y1="84.37500000000006" x2="95.62499999999994" y2="84.37500000000006" stroke="black" stroke-width="1" />
  <line x1="95.62499999999994" y1="84.37500000000006" x2="95.62499999999994" y2="95.62500000000006" stroke="black" stroke-width="1" />
  <line x1="95.62499999999994" y1="95.62500000000006" x2="84.37499999999994" y2="95.62500000000006" stroke="black" stroke-width="1" />
  <line x1="84.37499999999994" y1="95.62500000000006" x2="84.37499999999994" y2="84.37500000000006" stroke="black" stroke-width="1" />
  <line x1="84.37499999999994" y1="84.37500000000006" x2="89.99999999999994" y2="84.37500000000006" stroke="black" stroke-width="1" />
  <line x1="89.99999999999994" y1="84.37500000000006" x2="95.62499999999994" y2="90.00000000000006" stroke="black" stroke-width="1" />
  <line x1="95.62499999999994" y1="90.00000000000006" x2="89.99999999999994" y2="95.62500000000006" stroke="black" stroke-width="1" />
  <line x1="89.99999999999994" y1="95.62500000000006" x2="84.37499999999994" y2="90.00000000000006" stroke="black" stroke-width="1" />
  <line x1="84.37499999999994" y1="90.00000000000006" x2="89.99999999999994" y2="84.37500000000006" stroke="black" stroke-width="1" />
</svg>
