<?xml version="1.0" encoding="UTF-8" ?>
<svg xmlns="http://www.w3.org/2000/svg" version="1.1" width="400.0" height="346.4101615137755">
  <line x1="220.0" y1="173.20508075688775" x2="210.0" y2="155.884572681199" stroke="black" stroke-width="1" />
  <line x1="210.0" y1="155.884572681199" x2="190.0" y2="155.884572681199" stroke="black" stroke-width="1" />
  <line x1="190.0" y1="155.884572681199" x2="180.0" y2="173.20508075688775" stroke="black" stroke-width="1" />
  <line x1="180.0" y1="173.20508075688775" x2="190.0" y2="190.52558883257652" stroke="black" stroke-width="1" />
  <line x1="190.0" y1="190.52558883257652" x2="210.0" y2="190.52558883257652" stroke="black" stroke-width="1" />
  <line x1="210.0" y1="190.52558883257652" x2="220.0" y2="173.20508075688775" stroke="black" stroke-width="1" />
  <line x1="240.0" y1="173.20508075688775" x2="220.0" y2="138.56406460551023" stroke="black" stroke-width="1" />
  <line x1="220.0" y1="138.56406460551023" x2="180.0" y2="138.5640646055102" stroke="black" stroke-width="1" />
  <line x1="180.0" y1="138.5640646055102" x2="160.0" y2="173.20508075688775" stroke="black" stroke-width="1" />
  <line x1="160.0" y1="173.20508075688775" x2="179.99999999999997" y2="207.84609690826528" stroke="black" stroke-width="1" />
  <line x1="179.99999999999997" y1="207.84609690826528" x2="220.0" y2="207.84609690826528" stroke="black" stroke-width="1" />
  <line x1="220.0" y1="207.84609690826528" x2="240.0" y2="173.20508075688775" stroke="black" stroke-width="1" />
  <line x1="260.0" y1="173.20508075688775" x2="230.0" y2="121.24355652982143" stroke="black" stroke-width="1" />
  <line x1="230.0" y1="121.24355652982143" x2="170.0" y2="121.24355652982143" stroke="black" stroke-width="1" />
  <line x1="170.0" y1="121.24355652982143" x2="140.0" y2="173.20508075688775" stroke="black" stroke-width="1" />
  <line x1="140.0" y1="173.20508075688775" x2="169.99999999999997" y2="225.16660498395407" stroke="black" stroke-width="1" />
  <line x1="169.99999999999997" y1="225.16660498395407" x2="230.0" y2="225.16660498395407" stroke="black" stroke-width="1" />
  <line x1="230.0" y1="225.16660498395407" x2="260.0" y2="173.20508075688775" stroke="black" stroke-width="1" />
  <line x1="280.0" y1="173.20508075688775" x2="240.0" y2="103.92304845413267" stroke="black" stroke-width="1" />
  <line x1="240.0" y1="103.92304845413267" x2="160.0" y2="103.92304845413265" stroke="black" stroke-width="1" />
  <line x1="160.0" y1="103.92304845413265" x2="120.0" y2="173.20508075688775" stroke="black" stroke-width="1" />
  <line x1="120.0" y1="173.20508075688775" x2="159.99999999999997" y2="242.4871130596428" stroke="black" stroke-width="1" />
  <line x1="159.99999999999997" y1="242.4871130596428" x2="240.0" y2="242.48711305964284" stroke="black" stroke-width="1" />
  <line x1="240.0" y1="242.48711305964284" x2="280.0" y2="173.20508075688775" stroke="black" stroke-width="1" />
  <line x1="300.0" y1="173.20508075688775" x2="250.0" y2="86.60254037844389" stroke="black" stroke-width="1" />
  <line x1="250.0" y1="86.60254037844389" x2="150.00000000000003" y2="86.60254037844388" stroke="black" stroke-width="1" />
  <line x1="150.00000000000003" y1="86.60254037844388" x2="100.0" y2="173.20508075688775" stroke="black" stroke-width="1" />
  <line x1="100.0" y1="173.20508075688775" x2="149.99999999999994" y2="259.8076211353316" stroke="black" stroke-width="1" />
  <line x1="149.99999999999994" y1="259.8076211353316" x2="250.0" y2="259.8076211353316" stroke="black" stroke-width="1" />
  <line x1="250.0" y1="259.8076211353316" x2="300.0" y2="173.20508075688775" stroke="black" stroke-width="1" />
  <line x1="320.0" y1="173.20508075688775" x2="260.0" y2="69.28203230275513" stroke="black" stroke-width="1" />
  <line x1="260.0" y1="69.28203230275513" x2="140.00000000000003" y2="69.28203230275511" stroke="black" stroke-width="1" />
  <line x1="140.00000000000003" y1="69.28203230275511" x2="80.0" y2="173.20508075688772" stroke="black" stroke-width="1" />
  <line x1="80.0" y1="173.20508075688772" x2="139.99999999999994" y2="277.12812921102034" stroke="black" stroke-width="1" />
  <line x1="139.99999999999994" y1="277.12812921102034" x2="260.0" y2="277.1281292110204" stroke="black" stroke-width="1" />
  <line x1="260.0" y1="277.1281292110204" x2="320.0" y2="173.20508075688775" stroke="black" stroke-width="1" />
  <line x1="340.0" y1="173.20508075688775" x2="270.0" y2="51.96152422706635" stroke="black" stroke-width="1" />
  <line x1="270.0" y1="51.96152422706635" x2="130.00000000000003" y2="51.961524227066334" stroke="black" stroke-width="1" />
  <line x1="130.00000000000003" y1="51.961524227066334" x2="60.0" y2="173.20508075688772" stroke="black" stroke-width="1" />
  <line x1="60.0" y1="173.20508075688772" x2="129.99999999999994" y2="294.44863728670913" stroke="black" stroke-width="1" />
  <line x1="129.99999999999994" y1="294.44863728670913" x2="270.0" y2="294.4486372867092" stroke="black" stroke-width="1" />
  <line x1="270.0" y1="294.4486372867092" x2="340.0" y2="173.20508075688775" stroke="black" stroke-width="1" />
  <line x1="360.0" y1="173.20508075688775" x2="280.0" y2="34.641016151377585" stroke="black" stroke-width="1" />
  <line x1="280.0" y1="34.641016151377585" x2="120.00000000000003" y2="34.641016151377556" stroke="black" stroke-width="1" />
  <line x1="120.00000000000003" y1="34.641016151377556" x2="40.0" y2="173.20508075688772" stroke="black" stroke-width="1" />
  <line x1="40.0" y1="173.20508075688772" x2="119.99999999999993" y2="311.7691453623979" stroke="black" stroke-width="1" />
  <line x1="119.99999999999993" y1="311.7691453623979" x2="280.0" y2="311.7691453623979" stroke="black" stroke-width="1" />
  <line x1="280.0" y1="311.7691453623979" x2="360.0" y2="173.20508075688775" stroke="black" stroke-width="1" />
  <line x1="380.0" y1="173.20508075688775" x2="290.0" y2="17.320508075688792" stroke="black" stroke-width="1" />
  <line x1="290.0" y1="17.320508075688792" x2="110.00000000000004" y2="17.320508075688792" stroke="black" stroke-width="1" />
  <line x1="110.00000000000004" y1="17.320508075688792" x2="20.0" y2="173.20508075688772" stroke="black" stroke-width="1" />
  <line x1="20.0" y1="173.20508075688772" x2="109.99999999999991" y2="329.08965343808666" stroke="black" stroke-width="1" />
  <line x1="109.99999999999991" y1="329.08965343808666" x2="290.0" y2="329.0896534380867" stroke="black" stroke-width="1" />
  <line x1="290.0" y1="329.0896534380867" x2="380.0" y2="173.20508075688775" stroke="black" stroke-width="1" />
  <line x1="400.0" y1="173.20508075688775" x2="300.0" y2="2.842170943040401e-14" stroke="black" stroke-width="1" />
  <line x1="300.0" y1="2.842170943040401e-14" x2="100.00000000000004" y2="0.0" stroke="black" stroke-width="1" />
  <line x1="100.00000000000004" y1="0.0" x2="0.0" y2="173.20508075688772" stroke="black" stroke-width="1" />
  <line x1="0.0" y1="173.20508075688772" x2="99.99999999999991" y2="346.4101615137754" stroke="black" stroke-width="1" />
  <line x1="99.99999999999991" y1="346.4101615137754" x2="300.0" y2="346.4101615137755" stroke="black" stroke-width="1" />
  <line x1="300.0" y1="346.4101615137755" x2="400.0" y2="173.20508075688775" stroke="black" stroke-width="1" />
</svg>
