<?xml version="1.0" encoding="UTF-8" ?>
<svg xmlns="http://www.w3.org/2000/svg" version="1.1" width="300.0000000000001" height="346.4101615137754">
  <line x1="120.00000000000009" y1="173.20508075688775" x2="90.00000000000009" y2="155.884572681199" stroke="black" stroke-width="1" />
  <line x1="90.00000000000009" y1="155.884572681199" x2="90.00000000000007" y2="190.52558883257652" stroke="black" stroke-width="1" />
  <line x1="90.00000000000007" y1="190.52558883257652" x2="120.00000000000009" y2="173.20508075688775" stroke="black" stroke-width="1" />
  <line x1="140.00000000000009" y1="173.20508075688775" x2="80.00000000000009" y2="138.5640646055102" stroke="black" stroke-width="1" />
  <line x1="80.00000000000009" y1="138.5640646055102" x2="80.00000000000007" y2="207.84609690826528" stroke="black" stroke-width="1" />
  <line x1="80.00000000000007" y1="207.84609690826528" x2="140.00000000000009" y2="173.20508075688775" stroke="black" stroke-width="1" />
  <line x1="160.00000000000009" y1="173.20508075688775" x2="70.0000000000001" y2="121.24355652982143" stroke="black" stroke-width="1" />
  <line x1="70.0000000000001" y1="121.24355652982143" x2="70.00000000000006" y2="225.16660498395407" stroke="black" stroke-width="1" />
  <line x1="70.00000000000006" y1="225.16660498395407" x2="160.00000000000009" y2="173.20508075688775" stroke="black" stroke-width="1" />
  <line x1="180.00000000000009" y1="173.20508075688775" x2="60.0000000000001" y2="103.92304845413265" stroke="black" stroke-width="1" />
  <line x1="60.0000000000001" y1="103.92304845413265" x2="60.00000000000005" y2="242.4871130596428" stroke="black" stroke-width="1" />
  <line x1="60.00000000000005" y1="242.4871130596428" x2="180.00000000000009" y2="173.20508075688775" stroke="black" stroke-width="1" />
  <line x1="200.00000000000009" y1="173.20508075688775" x2="50.00000000000011" y2="86.60254037844388" stroke="black" stroke-width="1" />
  <line x1="50.00000000000011" y1="86.60254037844388" x2="50.00000000000004" y2="259.8076211353316" stroke="black" stroke-width="1" />
  <line x1="50.00000000000004" y1="259.8076211353316" x2="200.00000000000009" y2="173.20508075688775" stroke="black" stroke-width="1" />
  <line x1="220.00000000000009" y1="173.20508075688775" x2="40.000000000000114" y2="69.28203230275511" stroke="black" stroke-width="1" />
  <line x1="40.000000000000114" y1="69.28203230275511" x2="40.00000000000003" y2="277.12812921102034" stroke="black" stroke-width="1" />
  <line x1="40.00000000000003" y1="277.12812921102034" x2="220.00000000000009" y2="173.20508075688775" stroke="black" stroke-width="1" />
  <line x1="240.00000000000009" y1="173.20508075688775" x2="30.000000000000114" y2="51.961524227066334" stroke="black" stroke-width="1" />
  <line x1="30.000000000000114" y1="51.961524227066334" x2="30.00000000000003" y2="294.44863728670913" stroke="black" stroke-width="1" />
  <line x1="30.00000000000003" y1="294.44863728670913" x2="240.00000000000009" y2="173.20508075688775" stroke="black" stroke-width="1" />
  <line x1="260.0000000000001" y1="173.20508075688775" x2="20.000000000000114" y2="34.641016151377556" stroke="black" stroke-width="1" />
  <line x1="20.000000000000114" y1="34.641016151377556" x2="20.000000000000014" y2="311.7691453623979" stroke="black" stroke-width="1" />
  <line x1="20.000000000000014" y1="311.7691453623979" x2="260.0000000000001" y2="173.20508075688775" stroke="black" stroke-width="1" />
  <line x1="280.0000000000001" y1="173.20508075688775" x2="10.000000000000128" y2="17.320508075688792" stroke="black" stroke-width="1" />
  <line x1="10.000000000000128" y1="17.320508075688792" x2="10.0" y2="329.08965343808666" stroke="black" stroke-width="1" />
  <line x1="10.0" y1="329.08965343808666" x2="280.0000000000001" y2="173.20508075688775" stroke="black" stroke-width="1" />
  <line x1="300.0000000000001" y1="173.20508075688775" x2="1.2789769243681803e-13" y2="0.0" stroke="black" stroke-width="1" />
  <line x1="1.2789769243681803e-13" y1="0.0" x2="0.0" y2="346.4101615137754" stroke="black" stroke-width="1" />
  <line x1="0.0" y1="346.4101615137754" x2="300.0000000000001" y2="173.20508075688775" stroke="black" stroke-width="1" />
</svg>
