<?xml version="1.0" encoding="UTF-8" ?>
<svg xmlns="http://www.w3.org/2000/svg" version="1.1" width="200.00000000000003" height="200.00000000000009">
  <line x1="2.842170943040401e-14" y1="8.526512829121202e-14" x2="200.00000000000003" y2="8.526512829121202e-14" stroke="black" stroke-width="1" />
  <line x1="200.00000000000003" y1="8.526512829121202e-14" x2="200.0" y2="200.00000000000009" stroke="black" stroke-width="1" />
  <line x1="200.0" y1="200.00000000000009" x2="0.0" y2="200.00000000000006" stroke="black" stroke-width="1" />
  <line x1="0.0" y1="200.00000000000006" x2="1.2246467991473534e-14" y2="5.684341886080802e-14" stroke="black" stroke-width="1" />
  <line x1="1.2246467991473534e-14" y1="5.684341886080802e-14" x2="50.000000000000014" y2="5.684341886080802e-14" stroke="black" stroke-width="1" />
  <line x1="50.000000000000014" y1="5.684341886080802e-14" x2="200.00000000000003" y2="50.00000000000009" stroke="black" stroke-width="1" />
  <line x1="200.00000000000003" y1="50.00000000000009" x2="150.0" y2="200.00000000000009" stroke="black" stroke-width="1" />
  <line x1="150.0" y1="200.00000000000009" x2="0.0" y2="150.0" stroke="black" stroke-width="1" />
  <line x1="0.0" y1="150.0" x2="50.00000000000004" y2="0.0" stroke="black" stroke-width="1" />
  <line x1="50.00000000000004" y1="0.0" x2="87.50000000000004" y2="12.500000000000009" stroke="black" stroke-width="1" />
  <line x1="87.50000000000004" y1="12.500000000000009" x2="187.49999999999997" y2="87.50000000000011" stroke="black" stroke-width="1" />
  <line x1="187.49999999999997" y1="87.50000000000011" x2="112.49999999999987" y2="187.50000000000003" stroke="black" stroke-width="1" />
  <line x1="112.49999999999987" y1="187.50000000000003" x2="12.4999999999999" y2="112.49999999999999" stroke="black" stroke-width="1" />
  <line x1="12.4999999999999" y1="112.49999999999999" x2="87.49999999999996" y2="12.500000000000014" stroke="black" stroke-width="1" />
  <line x1="87.49999999999996" y1="12.500000000000014" x2="112.49999999999994" y2="31.25000000000004" stroke="black" stroke-width="1" />
  <line x1="112.49999999999994" y1="31.25000000000004" x2="168.74999999999986" y2="112.5000000000001" stroke="black" stroke-width="1" />
  <line x1="168.74999999999986" y1="112.5000000000001" x2="87.4999999999998" y2="168.75000000000003" stroke="black" stroke-width="1" />
  <line x1="87.4999999999998" y1="168.75000000000003" x2="31.249999999999872" y2="87.49999999999997" stroke="black" stroke-width="1" />
  <line x1="31.249999999999872" y1="87.49999999999997" x2="112.49999999999993" y2="31.25000000000003" stroke="black" stroke-width="1" />
  <line x1="112.49999999999993" y1="31.25000000000003" x2="126.56249999999991" y2="51.56250000000004" stroke="black" stroke-width="1" />
  <line x1="126.56249999999991" y1="51.56250000000004" x2="148.43749999999986" y2="126.56250000000007" stroke="black" stroke-width="1" />
  <line x1="148.43749999999986" y1="126.56250000000007" x2="73.43749999999984" y2="148.4375" stroke="black" stroke-width="1" />
  <line x1="73.43749999999984" y1="148.4375" x2="51.562499999999915" y2="73.43749999999997" stroke="black" stroke-width="1" />
  <line x1="51.562499999999915" y1="73.43749999999997" x2="126.56249999999994" y2="51.56250000000004" stroke="black" stroke-width="1" />
  <line x1="126.56249999999994" y1="51.56250000000004" x2="132.03124999999991" y2="70.31250000000006" stroke="black" stroke-width="1" />
  <line x1="132.03124999999991" y1="70.31250000000006" x2="129.6874999999998" y2="132.03125000000006" stroke="black" stroke-width="1" />
  <line x1="129.6874999999998" y1="132.03125000000006" x2="67.9687499999998" y2="129.68749999999997" stroke="black" stroke-width="1" />
  <line x1="67.9687499999998" y1="129.68749999999997" x2="70.31249999999987" y2="67.96874999999997" stroke="black" stroke-width="1" />
  <line x1="70.31249999999987" y1="67.96874999999997" x2="132.03124999999986" y2="70.31250000000003" stroke="black" stroke-width="1" />
  <line x1="132.03124999999986" y1="70.31250000000003" x2="131.44531249999983" y2="85.74218750000003" stroke="black" stroke-width="1" />
  <line x1="131.44531249999983" y1="85.74218750000003" x2="114.25781249999976" y2="131.4453125" stroke="black" stroke-width="1" />
  <line x1="114.25781249999976" y1="131.4453125" x2="68.55468749999977" y2="114.25781249999993" stroke="black" stroke-width="1" />
  <line x1="68.55468749999977" y1="114.25781249999993" x2="85.74218749999984" y2="68.55468749999994" stroke="black" stroke-width="1" />
  <line x1="85.74218749999984" y1="68.55468749999994" x2="131.4453124999998" y2="85.74218750000003" stroke="black" stroke-width="1" />
  <line x1="131.4453124999998" y1="85.74218750000003" x2="127.14843749999979" y2="97.16796875000003" stroke="black" stroke-width="1" />
  <line x1="127.14843749999979" y1="97.16796875000003" x2="102.83203124999974" y2="127.14843749999999" stroke="black" stroke-width="1" />
  <line x1="102.83203124999974" y1="127.14843749999999" x2="72.85156249999979" y2="102.83203124999994" stroke="black" stroke-width="1" />
  <line x1="72.85156249999979" y1="102.83203124999994" x2="97.16796874999983" y2="72.85156249999999" stroke="black" stroke-width="1" />
  <line x1="97.16796874999983" y1="72.85156249999999" x2="127.14843749999979" y2="97.16796875000003" stroke="black" stroke-width="1" />
  <line x1="127.14843749999979" y1="97.16796875000003" x2="121.06933593749977" y2="104.66308593750001" stroke="black" stroke-width="1" />
  <line x1="121.06933593749977" y1="104.66308593750001" x2="95.33691406249974" y2="121.06933593749996" stroke="black" stroke-width="1" />
  <line x1="95.33691406249974" y1="121.06933593749996" x2="78.9306640624998" y2="95.33691406249993" stroke="black" stroke-width="1" />
  <line x1="78.9306640624998" y1="95.33691406249993" x2="104.66308593749983" y2="78.93066406249997" stroke="black" stroke-width="1" />
  <line x1="104.66308593749983" y1="78.93066406249997" x2="121.06933593749979" y2="104.6630859375" stroke="black" stroke-width="1" />
  <line x1="121.06933593749979" y1="104.6630859375" x2="114.63623046874977" y2="108.76464843749999" stroke="black" stroke-width="1" />
  <line x1="114.63623046874977" y1="108.76464843749999" x2="91.23535156249976" y2="114.63623046874993" stroke="black" stroke-width="1" />
  <line x1="91.23535156249976" y1="114.63623046874993" x2="85.3637695312498" y2="91.23535156249991" stroke="black" stroke-width="1" />
  <line x1="85.3637695312498" y1="91.23535156249991" x2="108.76464843749982" y2="85.36376953124997" stroke="black" stroke-width="1" />
  <line x1="108.76464843749982" y1="85.36376953124997" x2="114.63623046874976" y2="108.76464843749999" stroke="black" stroke-width="1" />
  <line x1="114.63623046874976" y1="108.76464843749999" x2="108.78601074218726" y2="110.23254394531247" stroke="black" stroke-width="1" />
  <line x1="108.78601074218726" y1="110.23254394531247" x2="89.76745605468726" y2="108.78601074218743" stroke="black" stroke-width="1" />
  <line x1="89.76745605468726" y1="108.78601074218743" x2="91.2139892578123" y2="89.76745605468743" stroke="black" stroke-width="1" />
  <line x1="91.2139892578123" y1="89.76745605468743" x2="110.2325439453123" y2="91.21398925781247" stroke="black" stroke-width="1" />
  <line x1="110.2325439453123" y1="91.21398925781247" x2="108.78601074218726" y2="110.23254394531247" stroke="black" stroke-width="1" />
  <line x1="108.78601074218726" y1="110.23254394531247" x2="104.03137207031226" y2="109.87091064453121" stroke="black" stroke-width="1" />
  <line x1="104.03137207031226" y1="109.87091064453121" x2="90.12908935546852" y2="104.03137207031241" stroke="black" stroke-width="1" />
  <line x1="90.12908935546852" y1="104.03137207031241" x2="95.9686279296873" y2="90.12908935546868" stroke="black" stroke-width="1" />
  <line x1="95.9686279296873" y1="90.12908935546868" x2="109.87091064453104" y2="95.96862792968746" stroke="black" stroke-width="1" />
  <line x1="109.87091064453104" y1="95.96862792968746" x2="104.03137207031226" y2="109.8709106445312" stroke="black" stroke-width="1" />
  <line x1="104.03137207031226" y1="109.8709106445312" x2="100.55580139160132" y2="108.41102600097649" stroke="black" stroke-width="1" />
  <line x1="100.55580139160132" y1="108.41102600097649" x2="91.58897399902322" y2="100.55580139160146" stroke="black" stroke-width="1" />
  <line x1="91.58897399902322" y1="100.55580139160146" x2="99.44419860839825" y2="91.58897399902337" stroke="black" stroke-width="1" />
  <line x1="99.44419860839825" y1="91.58897399902337" x2="108.41102600097635" y2="99.4441986083984" stroke="black" stroke-width="1" />
  <line x1="108.41102600097635" y1="99.4441986083984" x2="100.55580139160132" y2="108.41102600097649" stroke="black" stroke-width="1" />
  <line x1="100.55580139160132" y1="108.41102600097649" x2="98.31409454345679" y2="106.44721984863274" stroke="black" stroke-width="1" />
  <line x1="98.31409454345679" y1="106.44721984863274" x2="93.55278015136697" y2="98.31409454345695" stroke="black" stroke-width="1" />
  <line x1="93.55278015136697" y1="98.31409454345695" x2="101.68590545654277" y2="93.55278015136713" stroke="black" stroke-width="1" />
  <line x1="101.68590545654277" y1="93.55278015136713" x2="106.44721984863259" y2="101.68590545654293" stroke="black" stroke-width="1" />
  <line x1="106.44721984863259" y1="101.68590545654293" x2="98.31409454345679" y2="106.44721984863274" stroke="black" stroke-width="1" />
  <line x1="98.31409454345679" y1="106.44721984863274" x2="97.12376594543433" y2="104.4139385223388" stroke="black" stroke-width="1" />
  <line x1="97.12376594543433" y1="104.4139385223388" x2="95.58606147766092" y2="97.1237659454345" stroke="black" stroke-width="1" />
  <line x1="95.58606147766092" y1="97.1237659454345" x2="102.87623405456522" y2="95.58606147766109" stroke="black" stroke-width="1" />
  <line x1="102.87623405456522" y1="95.58606147766109" x2="104.41393852233863" y2="102.87623405456539" stroke="black" stroke-width="1" />
  <line x1="104.41393852233863" y1="102.87623405456539" x2="97.12376594543433" y2="104.4139385223388" stroke="black" stroke-width="1" />
  <line x1="97.12376594543433" y1="104.4139385223388" x2="96.73933982849097" y2="102.59139537811272" stroke="black" stroke-width="1" />
  <line x1="96.73933982849097" y1="102.59139537811272" x2="97.40860462188698" y2="96.73933982849114" stroke="black" stroke-width="1" />
  <line x1="97.40860462188698" y1="96.73933982849114" x2="103.26066017150856" y2="97.40860462188716" stroke="black" stroke-width="1" />
  <line x1="103.26066017150856" y1="97.40860462188716" x2="102.59139537811254" y2="103.26066017150875" stroke="black" stroke-width="1" />
  <line x1="102.59139537811254" y1="103.26066017150875" x2="96.73933982849096" y2="102.59139537811272" stroke="black" stroke-width="1" />
  <line x1="96.73933982849096" y1="102.59139537811272" x2="96.90665602683995" y2="101.12838149070733" stroke="black" stroke-width="1" />
  <line x1="96.90665602683995" y1="101.12838149070733" x2="98.87161850929236" y2="96.90665602684015" stroke="black" stroke-width="1" />
  <line x1="98.87161850929236" y1="96.90665602684015" x2="103.09334397315953" y2="98.87161850929256" stroke="black" stroke-width="1" />
  <line x1="103.09334397315953" y1="98.87161850929256" x2="101.12838149070713" y2="103.09334397315973" stroke="black" stroke-width="1" />
  <line x1="101.12838149070713" y1="103.09334397315973" x2="96.90665602683995" y2="101.12838149070733" stroke="black" stroke-width="1" />
  <line x1="96.90665602683995" y1="101.12838149070733" x2="97.39789664745305" y2="100.07295012474053" stroke="black" stroke-width="1" />
  <line x1="97.39789664745305" y1="100.07295012474053" x2="99.92704987525916" y2="97.39789664745325" stroke="black" stroke-width="1" />
  <line x1="99.92704987525916" y1="97.39789664745325" x2="102.60210335254644" y2="99.92704987525936" stroke="black" stroke-width="1" />
  <line x1="102.60210335254644" y1="99.92704987525936" x2="100.07295012474033" y2="102.60210335254664" stroke="black" stroke-width="1" />
  <line x1="100.07295012474033" y1="102.60210335254664" x2="97.39789664745305" y2="100.07295012474053" stroke="black" stroke-width="1" />
  <line x1="97.39789664745305" y1="100.07295012474053" x2="98.03018495440458" y2="99.4041867554187" stroke="black" stroke-width="1" />
  <line x1="98.03018495440458" y1="99.4041867554187" x2="100.59581324458097" y2="98.03018495440477" stroke="black" stroke-width="1" />
  <line x1="100.59581324458097" y1="98.03018495440477" x2="101.9698150455949" y2="100.59581324458117" stroke="black" stroke-width="1" />
  <line x1="101.9698150455949" y1="100.59581324458117" x2="99.40418675541851" y2="101.9698150455951" stroke="black" stroke-width="1" />
  <line x1="99.40418675541851" y1="101.9698150455951" x2="98.03018495440458" y2="99.4041867554187" stroke="black" stroke-width="1" />
  <line x1="98.03018495440458" y1="99.4041867554187" x2="98.67159202694867" y2="99.06068630516522" stroke="black" stroke-width="1" />
  <line x1="98.67159202694867" y1="99.06068630516522" x2="100.93931369483445" y2="98.67159202694887" stroke="black" stroke-width="1" />
  <line x1="100.93931369483445" y1="98.67159202694887" x2="101.3284079730508" y2="100.93931369483465" stroke="black" stroke-width="1" />
  <line x1="101.3284079730508" y1="100.93931369483465" x2="99.06068630516502" y2="101.328407973051" stroke="black" stroke-width="1" />
  <line x1="99.06068630516502" y1="101.328407973051" x2="98.67159202694867" y2="99.06068630516522" stroke="black" stroke-width="1" />
  <line x1="98.67159202694867" y1="99.06068630516522" x2="99.23852244392012" y2="98.96341273561113" stroke="black" stroke-width="1" />
</svg>
