<?xml version="1.0" encoding="UTF-8" ?>
<svg xmlns="http://www.w3.org/2000/svg" version="1.1" width="200.0" height="200.0">
  <line x1="0.0" y1="99.99999999999999" x2="0.0" y2="100.00000000000001" stroke="black" stroke-width="1" />
  <line x1="100.00000000000001" y1="200.0" x2="99.99999999999999" y2="200.0" stroke="black" stroke-width="1" />
  <line x1="10.0" y1="56.41101056459326" x2="10.0" y2="143.58898943540675" stroke="black" stroke-width="1" />
  <line x1="143.58898943540675" y1="190.0" x2="56.41101056459326" y2="190.0" stroke="black" stroke-width="1" />
  <line x1="20.0" y1="40.0" x2="20.0" y2="160.0" stroke="black" stroke-width="1" />
  <line x1="160.0" y1="180.0" x2="40.0" y2="180.0" stroke="black" stroke-width="1" />
  <line x1="30.0" y1="28.585715714571478" x2="30.0" y2="171.41428428542852" stroke="black" stroke-width="1" />
  <line x1="171.41428428542852" y1="170.0" x2="28.585715714571478" y2="170.0" stroke="black" stroke-width="1" />
  <line x1="40.0" y1="19.999999999999986" x2="40.0" y2="180.0" stroke="black" stroke-width="1" />
  <line x1="180.0" y1="160.0" x2="19.999999999999986" y2="160.0" stroke="black" stroke-width="1" />
  <line x1="50.0" y1="13.397459621556152" x2="50.0" y2="186.60254037844385" stroke="black" stroke-width="1" />
  <line x1="186.60254037844385" y1="150.0" x2="13.397459621556152" y2="150.0" stroke="black" stroke-width="1" />
  <line x1="60.0" y1="8.348486100883207" x2="60.0" y2="191.6515138991168" stroke="black" stroke-width="1" />
  <line x1="191.6515138991168" y1="140.0" x2="8.348486100883207" y2="140.0" stroke="black" stroke-width="1" />
  <line x1="70.0" y1="4.606079858305435" x2="70.0" y2="195.39392014169457" stroke="black" stroke-width="1" />
  <line x1="195.39392014169457" y1="130.0" x2="4.606079858305435" y2="130.0" stroke="black" stroke-width="1" />
  <line x1="80.0" y1="2.0204102886728776" x2="80.0" y2="197.97958971132712" stroke="black" stroke-width="1" />
  <line x1="197.97958971132712" y1="120.0" x2="2.0204102886728776" y2="120.0" stroke="black" stroke-width="1" />
  <line x1="90.0" y1="0.5012562893380021" x2="90.0" y2="199.49874371066198" stroke="black" stroke-width="1" />
  <line x1="199.49874371066198" y1="110.0" x2="0.5012562893380021" y2="110.0" stroke="black" stroke-width="1" />
  <line x1="100.0" y1="0.0" x2="100.0" y2="200.0" stroke="black" stroke-width="1" />
  <line x1="200.0" y1="100.0" x2="0.0" y2="100.0" stroke="black" stroke-width="1" />
  <line x1="110.0" y1="0.5012562893380021" x2="110.0" y2="199.49874371066198" stroke="black" stroke-width="1" />
  <line x1="199.49874371066198" y1="90.0" x2="0.5012562893380021" y2="90.0" stroke="black" stroke-width="1" />
  <line x1="120.0" y1="2.0204102886728634" x2="120.0" y2="197.97958971132715" stroke="black" stroke-width="1" />
  <line x1="197.97958971132715" y1="80.0" x2="2.0204102886728634" y2="80.0" stroke="black" stroke-width="1" />
  <line x1="130.0" y1="4.606079858305435" x2="130.0" y2="195.39392014169457" stroke="black" stroke-width="1" />
  <line x1="195.39392014169457" y1="70.0" x2="4.606079858305435" y2="70.0" stroke="black" stroke-width="1" />
  <line x1="140.0" y1="8.348486100883207" x2="140.0" y2="191.6515138991168" stroke="black" stroke-width="1" />
  <line x1="191.6515138991168" y1="60.0" x2="8.348486100883207" y2="60.0" stroke="black" stroke-width="1" />
  <line x1="150.0" y1="13.397459621556123" x2="150.0" y2="186.60254037844388" stroke="black" stroke-width="1" />
  <line x1="186.60254037844388" y1="50.0" x2="13.397459621556123" y2="50.0" stroke="black" stroke-width="1" />
  <line x1="160.0" y1="20.0" x2="160.0" y2="180.0" stroke="black" stroke-width="1" />
  <line x1="180.0" y1="40.0" x2="20.0" y2="40.0" stroke="black" stroke-width="1" />
  <line x1="170.0" y1="28.585715714571506" x2="170.0" y2="171.4142842854285" stroke="black" stroke-width="1" />
  <line x1="171.4142842854285" y1="30.0" x2="28.585715714571506" y2="30.0" stroke="black" stroke-width="1" />
  <line x1="180.0" y1="40.000000000000014" x2="180.0" y2="160.0" stroke="black" stroke-width="1" />
  <line x1="160.0" y1="20.0" x2="40.000000000000014" y2="20.0" stroke="black" stroke-width="1" />
  <line x1="190.0" y1="56.41101056459327" x2="190.0" y2="143.58898943540675" stroke="black" stroke-width="1" />
  <line x1="143.58898943540675" y1="10.0" x2="56.41101056459327" y2="10.0" stroke="black" stroke-width="1" />
</svg>
