<?xml version="1.0" encoding="UTF-8" ?>
<svg xmlns="http://www.w3.org/2000/svg" version="1.1" width="223.9230484541326" height="223.92304845413258">
  <line x1="111.96152422706635" y1="111.96152422706626" x2="141.96152422706635" y2="111.96152422706626" stroke="black" stroke-width="1" />
  <line x1="141.96152422706635" y1="111.96152422706626" x2="167.9422863405995" y2="126.96152422706628" stroke="black" stroke-width="1" />
  <line x1="167.9422863405995" y1="126.96152422706628" x2="182.9422863405995" y2="152.94228634059942" stroke="black" stroke-width="1" />
  <line x1="182.9422863405995" y1="152.94228634059942" x2="182.9422863405995" y2="182.94228634059942" stroke="black" stroke-width="1" />
  <line x1="182.9422863405995" y1="182.94228634059942" x2="167.94228634059948" y2="208.92304845413258" stroke="black" stroke-width="1" />
  <line x1="167.94228634059948" y1="208.92304845413258" x2="141.96152422706635" y2="223.92304845413258" stroke="black" stroke-width="1" />
  <line x1="141.96152422706635" y1="223.92304845413258" x2="111.96152422706633" y2="223.92304845413258" stroke="black" stroke-width="1" />
  <line x1="111.96152422706633" y1="223.92304845413258" x2="85.98076211353317" y2="208.92304845413258" stroke="black" stroke-width="1" />
  <line x1="85.98076211353317" y1="208.92304845413258" x2="70.98076211353319" y2="182.94228634059942" stroke="black" stroke-width="1" />
  <line x1="70.98076211353319" y1="182.94228634059942" x2="70.98076211353319" y2="152.94228634059942" stroke="black" stroke-width="1" />
  <line x1="70.98076211353319" y1="152.94228634059942" x2="85.98076211353319" y2="126.96152422706626" stroke="black" stroke-width="1" />
  <line x1="85.98076211353319" y1="126.96152422706626" x2="111.96152422706635" y2="111.96152422706626" stroke="black" stroke-width="1" />
  <line x1="111.96152422706635" y1="111.96152422706626" x2="137.9422863405995" y2="126.96152422706628" stroke="black" stroke-width="1" />
  <line x1="137.9422863405995" y1="126.96152422706628" x2="152.9422863405995" y2="152.94228634059942" stroke="black" stroke-width="1" />
  <line x1="152.9422863405995" y1="152.94228634059942" x2="152.9422863405995" y2="182.94228634059942" stroke="black" stroke-width="1" />
  <line x1="152.9422863405995" y1="182.94228634059942" x2="137.94228634059948" y2="208.92304845413258" stroke="black" stroke-width="1" />
  <line x1="137.94228634059948" y1="208.92304845413258" x2="111.96152422706633" y2="223.92304845413258" stroke="black" stroke-width="1" />
  <line x1="111.96152422706633" y1="223.92304845413258" x2="81.96152422706633" y2="223.92304845413258" stroke="black" stroke-width="1" />
  <line x1="81.96152422706633" y1="223.92304845413258" x2="55.980762113533174" y2="208.92304845413258" stroke="black" stroke-width="1" />
  <line x1="55.980762113533174" y1="208.92304845413258" x2="40.98076211353319" y2="182.94228634059942" stroke="black" stroke-width="1" />
  <line x1="40.98076211353319" y1="182.94228634059942" x2="40.98076211353319" y2="152.94228634059942" stroke="black" stroke-width="1" />
  <line x1="40.98076211353319" y1="152.94228634059942" x2="55.98076211353319" y2="126.96152422706626" stroke="black" stroke-width="1" />
  <line x1="55.98076211353319" y1="126.96152422706626" x2="81.96152422706635" y2="111.96152422706626" stroke="black" stroke-width="1" />
  <line x1="81.96152422706635" y1="111.96152422706626" x2="111.96152422706635" y2="111.96152422706626" stroke="black" stroke-width="1" />
  <line x1="111.96152422706635" y1="111.96152422706626" x2="126.96152422706635" y2="137.94228634059942" stroke="black" stroke-width="1" />
  <line x1="126.96152422706635" y1="137.94228634059942" x2="126.96152422706635" y2="167.94228634059942" stroke="black" stroke-width="1" />
  <line x1="126.96152422706635" y1="167.94228634059942" x2="111.96152422706633" y2="193.92304845413258" stroke="black" stroke-width="1" />
  <line x1="111.96152422706633" y1="193.92304845413258" x2="85.98076211353317" y2="208.92304845413258" stroke="black" stroke-width="1" />
  <line x1="85.98076211353317" y1="208.92304845413258" x2="55.980762113533174" y2="208.92304845413258" stroke="black" stroke-width="1" />
  <line x1="55.980762113533174" y1="208.92304845413258" x2="30.000000000000014" y2="193.92304845413258" stroke="black" stroke-width="1" />
  <line x1="30.000000000000014" y1="193.92304845413258" x2="15.000000000000028" y2="167.94228634059942" stroke="black" stroke-width="1" />
  <line x1="15.000000000000028" y1="167.94228634059942" x2="15.000000000000028" y2="137.94228634059942" stroke="black" stroke-width="1" />
  <line x1="15.000000000000028" y1="137.94228634059942" x2="30.00000000000003" y2="111.96152422706626" stroke="black" stroke-width="1" />
  <line x1="30.00000000000003" y1="111.96152422706626" x2="55.98076211353319" y2="96.96152422706626" stroke="black" stroke-width="1" />
  <line x1="55.98076211353319" y1="96.96152422706626" x2="85.98076211353319" y2="96.96152422706626" stroke="black" stroke-width="1" />
  <line x1="85.98076211353319" y1="96.96152422706626" x2="111.96152422706635" y2="111.96152422706628" stroke="black" stroke-width="1" />
  <line x1="111.96152422706635" y1="111.96152422706628" x2="111.96152422706633" y2="141.9615242270663" stroke="black" stroke-width="1" />
  <line x1="111.96152422706633" y1="141.9615242270663" x2="96.96152422706632" y2="167.94228634059942" stroke="black" stroke-width="1" />
  <line x1="96.96152422706632" y1="167.94228634059942" x2="70.98076211353316" y2="182.94228634059942" stroke="black" stroke-width="1" />
  <line x1="70.98076211353316" y1="182.94228634059942" x2="40.98076211353316" y2="182.94228634059942" stroke="black" stroke-width="1" />
  <line x1="40.98076211353316" y1="182.94228634059942" x2="15.0" y2="167.94228634059942" stroke="black" stroke-width="1" />
  <line x1="15.0" y1="167.94228634059942" x2="0.0" y2="141.96152422706626" stroke="black" stroke-width="1" />
  <line x1="0.0" y1="141.96152422706626" x2="0.0" y2="111.96152422706628" stroke="black" stroke-width="1" />
  <line x1="0.0" y1="111.96152422706628" x2="15.0" y2="85.98076211353312" stroke="black" stroke-width="1" />
  <line x1="15.0" y1="85.98076211353312" x2="40.98076211353316" y2="70.98076211353313" stroke="black" stroke-width="1" />
  <line x1="40.98076211353316" y1="70.98076211353313" x2="70.98076211353316" y2="70.98076211353313" stroke="black" stroke-width="1" />
  <line x1="70.98076211353316" y1="70.98076211353313" x2="96.96152422706632" y2="85.98076211353313" stroke="black" stroke-width="1" />
  <line x1="96.96152422706632" y1="85.98076211353313" x2="111.96152422706632" y2="111.96152422706629" stroke="black" stroke-width="1" />
  <line x1="111.96152422706632" y1="111.96152422706629" x2="96.9615242270663" y2="137.94228634059945" stroke="black" stroke-width="1" />
  <line x1="96.9615242270663" y1="137.94228634059945" x2="70.98076211353315" y2="152.94228634059945" stroke="black" stroke-width="1" />
  <line x1="70.98076211353315" y1="152.94228634059945" x2="40.980762113533146" y2="152.94228634059945" stroke="black" stroke-width="1" />
  <line x1="40.980762113533146" y1="152.94228634059945" x2="14.999999999999986" y2="137.94228634059945" stroke="black" stroke-width="1" />
  <line x1="14.999999999999986" y1="137.94228634059945" x2="0.0" y2="111.96152422706629" stroke="black" stroke-width="1" />
  <line x1="0.0" y1="111.96152422706629" x2="0.0" y2="81.96152422706629" stroke="black" stroke-width="1" />
  <line x1="0.0" y1="81.96152422706629" x2="15.0" y2="55.98076211353313" stroke="black" stroke-width="1" />
  <line x1="15.0" y1="55.98076211353313" x2="40.98076211353316" y2="40.98076211353313" stroke="black" stroke-width="1" />
  <line x1="40.98076211353316" y1="40.98076211353313" x2="70.98076211353316" y2="40.98076211353313" stroke="black" stroke-width="1" />
  <line x1="70.98076211353316" y1="40.98076211353313" x2="96.96152422706632" y2="55.980762113533146" stroke="black" stroke-width="1" />
  <line x1="96.96152422706632" y1="55.980762113533146" x2="111.96152422706632" y2="81.9615242270663" stroke="black" stroke-width="1" />
  <line x1="111.96152422706632" y1="81.9615242270663" x2="111.9615242270663" y2="111.9615242270663" stroke="black" stroke-width="1" />
  <line x1="111.9615242270663" y1="111.9615242270663" x2="85.98076211353316" y2="126.9615242270663" stroke="black" stroke-width="1" />
  <line x1="85.98076211353316" y1="126.9615242270663" x2="55.98076211353315" y2="126.9615242270663" stroke="black" stroke-width="1" />
  <line x1="55.98076211353315" y1="126.9615242270663" x2="30.0" y2="111.9615242270663" stroke="black" stroke-width="1" />
  <line x1="30.0" y1="111.9615242270663" x2="15.0" y2="85.98076211353315" stroke="black" stroke-width="1" />
  <line x1="15.0" y1="85.98076211353315" x2="15.0" y2="55.980762113533146" stroke="black" stroke-width="1" />
  <line x1="15.0" y1="55.980762113533146" x2="30.0" y2="29.999999999999986" stroke="black" stroke-width="1" />
  <line x1="30.0" y1="29.999999999999986" x2="55.98076211353316" y2="14.999999999999986" stroke="black" stroke-width="1" />
  <line x1="55.98076211353316" y1="14.999999999999986" x2="85.98076211353316" y2="14.999999999999986" stroke="black" stroke-width="1" />
  <line x1="85.98076211353316" y1="14.999999999999986" x2="111.96152422706632" y2="30.0" stroke="black" stroke-width="1" />
  <line x1="111.96152422706632" y1="30.0" x2="126.96152422706632" y2="55.98076211353316" stroke="black" stroke-width="1" />
  <line x1="126.96152422706632" y1="55.98076211353316" x2="126.9615242270663" y2="85.98076211353316" stroke="black" stroke-width="1" />
  <line x1="126.9615242270663" y1="85.98076211353316" x2="111.96152422706629" y2="111.96152422706632" stroke="black" stroke-width="1" />
  <line x1="111.96152422706629" y1="111.96152422706632" x2="81.96152422706629" y2="111.9615242270663" stroke="black" stroke-width="1" />
  <line x1="81.96152422706629" y1="111.9615242270663" x2="55.98076211353314" y2="96.9615242270663" stroke="black" stroke-width="1" />
  <line x1="55.98076211353314" y1="96.9615242270663" x2="40.980762113533146" y2="70.98076211353316" stroke="black" stroke-width="1" />
  <line x1="40.980762113533146" y1="70.98076211353316" x2="40.980762113533146" y2="40.98076211353316" stroke="black" stroke-width="1" />
  <line x1="40.980762113533146" y1="40.98076211353316" x2="55.980762113533146" y2="15.0" stroke="black" stroke-width="1" />
  <line x1="55.980762113533146" y1="15.0" x2="81.9615242270663" y2="0.0" stroke="black" stroke-width="1" />
  <line x1="81.9615242270663" y1="0.0" x2="111.9615242270663" y2="0.0" stroke="black" stroke-width="1" />
  <line x1="111.9615242270663" y1="0.0" x2="137.94228634059945" y2="15.000000000000014" stroke="black" stroke-width="1" />
  <line x1="137.94228634059945" y1="15.000000000000014" x2="152.94228634059948" y2="40.980762113533174" stroke="black" stroke-width="1" />
  <line x1="152.94228634059948" y1="40.980762113533174" x2="152.94228634059945" y2="70.98076211353317" stroke="black" stroke-width="1" />
  <line x1="152.94228634059945" y1="70.98076211353317" x2="137.94228634059945" y2="96.96152422706632" stroke="black" stroke-width="1" />
  <line x1="137.94228634059945" y1="96.96152422706632" x2="111.96152422706629" y2="111.96152422706633" stroke="black" stroke-width="1" />
  <line x1="111.96152422706629" y1="111.96152422706633" x2="85.98076211353313" y2="96.96152422706633" stroke="black" stroke-width="1" />
  <line x1="85.98076211353313" y1="96.96152422706633" x2="70.98076211353313" y2="70.98076211353317" stroke="black" stroke-width="1" />
  <line x1="70.98076211353313" y1="70.98076211353317" x2="70.98076211353313" y2="40.980762113533174" stroke="black" stroke-width="1" />
  <line x1="70.98076211353313" y1="40.980762113533174" x2="85.98076211353313" y2="15.000000000000014" stroke="black" stroke-width="1" />
  <line x1="85.98076211353313" y1="15.000000000000014" x2="111.96152422706629" y2="1.4210854715202004e-14" stroke="black" stroke-width="1" />
  <line x1="111.96152422706629" y1="1.4210854715202004e-14" x2="141.9615242270663" y2="1.4210854715202004e-14" stroke="black" stroke-width="1" />
  <line x1="141.9615242270663" y1="1.4210854715202004e-14" x2="167.94228634059945" y2="15.000000000000028" stroke="black" stroke-width="1" />
  <line x1="167.94228634059945" y1="15.000000000000028" x2="182.94228634059945" y2="40.98076211353319" stroke="black" stroke-width="1" />
  <line x1="182.94228634059945" y1="40.98076211353319" x2="182.94228634059945" y2="70.98076211353319" stroke="black" stroke-width="1" />
  <line x1="182.94228634059945" y1="70.98076211353319" x2="167.94228634059942" y2="96.96152422706635" stroke="black" stroke-width="1" />
  <line x1="167.94228634059942" y1="96.96152422706635" x2="141.9615242270663" y2="111.96152422706635" stroke="black" stroke-width="1" />
  <line x1="141.9615242270663" y1="111.96152422706635" x2="111.96152422706628" y2="111.96152422706633" stroke="black" stroke-width="1" />
  <line x1="111.96152422706628" y1="111.96152422706633" x2="96.96152422706629" y2="85.98076211353319" stroke="black" stroke-width="1" />
  <line x1="96.96152422706629" y1="85.98076211353319" x2="96.96152422706629" y2="55.98076211353318" stroke="black" stroke-width="1" />
  <line x1="96.96152422706629" y1="55.98076211353318" x2="111.96152422706629" y2="30.00000000000003" stroke="black" stroke-width="1" />
  <line x1="111.96152422706629" y1="30.00000000000003" x2="137.94228634059945" y2="15.000000000000028" stroke="black" stroke-width="1" />
  <line x1="137.94228634059945" y1="15.000000000000028" x2="167.94228634059945" y2="15.000000000000028" stroke="black" stroke-width="1" />
  <line x1="167.94228634059945" y1="15.000000000000028" x2="193.9230484541326" y2="30.000000000000043" stroke="black" stroke-width="1" />
  <line x1="193.9230484541326" y1="30.000000000000043" x2="208.9230484541326" y2="55.9807621135332" stroke="black" stroke-width="1" />
  <line x1="208.9230484541326" y1="55.9807621135332" x2="208.9230484541326" y2="85.9807621135332" stroke="black" stroke-width="1" />
  <line x1="208.9230484541326" y1="85.9807621135332" x2="193.92304845413258" y2="111.96152422706635" stroke="black" stroke-width="1" />
  <line x1="193.92304845413258" y1="111.96152422706635" x2="167.94228634059942" y2="126.96152422706636" stroke="black" stroke-width="1" />
  <line x1="167.94228634059942" y1="126.96152422706636" x2="137.94228634059942" y2="126.96152422706635" stroke="black" stroke-width="1" />
  <line x1="137.94228634059942" y1="126.96152422706635" x2="111.96152422706628" y2="111.96152422706636" stroke="black" stroke-width="1" />
  <line x1="111.96152422706628" y1="111.96152422706636" x2="111.96152422706628" y2="81.96152422706635" stroke="black" stroke-width="1" />
  <line x1="111.96152422706628" y1="81.96152422706635" x2="126.96152422706628" y2="55.9807621135332" stroke="black" stroke-width="1" />
  <line x1="126.96152422706628" y1="55.9807621135332" x2="152.94228634059945" y2="40.9807621135332" stroke="black" stroke-width="1" />
  <line x1="152.94228634059945" y1="40.9807621135332" x2="182.94228634059945" y2="40.9807621135332" stroke="black" stroke-width="1" />
  <line x1="182.94228634059945" y1="40.9807621135332" x2="208.9230484541326" y2="55.98076211353322" stroke="black" stroke-width="1" />
  <line x1="208.9230484541326" y1="55.98076211353322" x2="223.9230484541326" y2="81.96152422706638" stroke="black" stroke-width="1" />
  <line x1="223.9230484541326" y1="81.96152422706638" x2="223.9230484541326" y2="111.96152422706638" stroke="black" stroke-width="1" />
  <line x1="223.9230484541326" y1="111.96152422706638" x2="208.92304845413258" y2="137.94228634059954" stroke="black" stroke-width="1" />
  <line x1="208.92304845413258" y1="137.94228634059954" x2="182.94228634059942" y2="152.94228634059954" stroke="black" stroke-width="1" />
  <line x1="182.94228634059942" y1="152.94228634059954" x2="152.94228634059942" y2="152.94228634059954" stroke="black" stroke-width="1" />
  <line x1="152.94228634059942" y1="152.94228634059954" x2="126.96152422706628" y2="137.94228634059954" stroke="black" stroke-width="1" />
  <line x1="126.96152422706628" y1="137.94228634059954" x2="111.96152422706629" y2="111.96152422706636" stroke="black" stroke-width="1" />
  <line x1="111.96152422706629" y1="111.96152422706636" x2="126.96152422706629" y2="85.9807621135332" stroke="black" stroke-width="1" />
  <line x1="126.96152422706629" y1="85.9807621135332" x2="152.94228634059945" y2="70.98076211353322" stroke="black" stroke-width="1" />
  <line x1="152.94228634059945" y1="70.98076211353322" x2="182.94228634059945" y2="70.98076211353322" stroke="black" stroke-width="1" />
  <line x1="182.94228634059945" y1="70.98076211353322" x2="208.9230484541326" y2="85.98076211353322" stroke="black" stroke-width="1" />
  <line x1="208.9230484541326" y1="85.98076211353322" x2="223.9230484541326" y2="111.96152422706638" stroke="black" stroke-width="1" />
  <line x1="223.9230484541326" y1="111.96152422706638" x2="223.9230484541326" y2="141.96152422706638" stroke="black" stroke-width="1" />
  <line x1="223.9230484541326" y1="141.96152422706638" x2="208.92304845413258" y2="167.94228634059954" stroke="black" stroke-width="1" />
  <line x1="208.92304845413258" y1="167.94228634059954" x2="182.94228634059942" y2="182.94228634059954" stroke="black" stroke-width="1" />
  <line x1="182.94228634059942" y1="182.94228634059954" x2="152.94228634059942" y2="182.94228634059954" stroke="black" stroke-width="1" />
  <line x1="152.94228634059942" y1="182.94228634059954" x2="126.96152422706628" y2="167.94228634059954" stroke="black" stroke-width="1" />
  <line x1="126.96152422706628" y1="167.94228634059954" x2="111.96152422706629" y2="141.96152422706638" stroke="black" stroke-width="1" />
  <line x1="111.96152422706629" y1="141.96152422706638" x2="111.96152422706629" y2="111.96152422706638" stroke="black" stroke-width="1" />
  <line x1="111.96152422706629" y1="111.96152422706638" x2="137.94228634059945" y2="96.96152422706638" stroke="black" stroke-width="1" />
  <line x1="137.94228634059945" y1="96.96152422706638" x2="167.94228634059945" y2="96.96152422706638" stroke="black" stroke-width="1" />
  <line x1="167.94228634059945" y1="96.96152422706638" x2="193.9230484541326" y2="111.96152422706639" stroke="black" stroke-width="1" />
  <line x1="193.9230484541326" y1="111.96152422706639" x2="208.9230484541326" y2="137.94228634059954" stroke="black" stroke-width="1" />
  <line x1="208.9230484541326" y1="137.94228634059954" x2="208.9230484541326" y2="167.94228634059954" stroke="black" stroke-width="1" />
  <line x1="208.9230484541326" y1="167.94228634059954" x2="193.92304845413258" y2="193.9230484541327" stroke="black" stroke-width="1" />
  <line x1="193.92304845413258" y1="193.9230484541327" x2="167.94228634059942" y2="208.9230484541327" stroke="black" stroke-width="1" />
  <line x1="167.94228634059942" y1="208.9230484541327" x2="137.94228634059942" y2="208.9230484541327" stroke="black" stroke-width="1" />
  <line x1="137.94228634059942" y1="208.9230484541327" x2="111.96152422706628" y2="193.9230484541327" stroke="black" stroke-width="1" />
  <line x1="111.96152422706628" y1="193.9230484541327" x2="96.96152422706629" y2="167.94228634059954" stroke="black" stroke-width="1" />
  <line x1="96.96152422706629" y1="167.94228634059954" x2="96.96152422706629" y2="137.94228634059954" stroke="black" stroke-width="1" />
  <line x1="96.96152422706629" y1="137.94228634059954" x2="111.96152422706629" y2="111.96152422706638" stroke="black" stroke-width="1" />
</svg>
