<?xml version="1.0" encoding="UTF-8" ?>
<svg xmlns="http://www.w3.org/2000/svg" version="1.1" width="475.21368845724487" height="437.6068442286225">
  <line x1="237.60684422862246" y1="437.60684422862244" x2="237.60684422862246" y2="237.60684422862244" stroke="black" stroke-width="1" />
  <line x1="237.60684422862246" y1="237.60684422862244" x2="152.7540304862368" y2="152.75403048623673" stroke="black" stroke-width="1" />
  <line x1="152.7540304862368" y1="152.75403048623673" x2="80.75403048623679" y2="152.75403048623673" stroke="black" stroke-width="1" />
  <line x1="80.75403048623679" y1="152.75403048623673" x2="50.20701753897794" y2="183.30104343349558" stroke="black" stroke-width="1" />
  <line x1="50.20701753897794" y1="183.30104343349558" x2="50.20701753897794" y2="209.22104343349557" stroke="black" stroke-width="1" />
  <line x1="50.20701753897794" y1="209.22104343349557" x2="61.20394219999113" y2="220.21796809450876" stroke="black" stroke-width="1" />
  <line x1="61.20394219999113" y1="220.21796809450876" x2="70.53514219999113" y2="220.21796809450876" stroke="black" stroke-width="1" />
  <line x1="70.53514219999113" y1="220.21796809450876" x2="74.49403507795589" y2="216.259075216544" stroke="black" stroke-width="1" />
  <line x1="74.49403507795589" y1="216.259075216544" x2="70.53514219999113" y2="220.21796809450876" stroke="black" stroke-width="1" />
  <line x1="70.53514219999113" y1="220.21796809450876" x2="74.49403507795589" y2="224.17686097247352" stroke="black" stroke-width="1" />
  <line x1="74.49403507795589" y1="224.17686097247352" x2="70.53514219999113" y2="220.21796809450876" stroke="black" stroke-width="1" />
  <line x1="70.53514219999113" y1="220.21796809450876" x2="61.20394219999113" y2="220.21796809450876" stroke="black" stroke-width="1" />
  <line x1="61.20394219999113" y1="220.21796809450876" x2="61.20394219999113" y2="229.54916809450876" stroke="black" stroke-width="1" />
  <line x1="61.20394219999113" y1="229.54916809450876" x2="65.16283507795589" y2="233.50806097247352" stroke="black" stroke-width="1" />
  <line x1="65.16283507795589" y1="233.50806097247352" x2="61.20394219999113" y2="229.54916809450876" stroke="black" stroke-width="1" />
  <line x1="61.20394219999113" y1="229.54916809450876" x2="57.245049322026375" y2="233.50806097247352" stroke="black" stroke-width="1" />
  <line x1="57.245049322026375" y1="233.50806097247352" x2="61.20394219999113" y2="229.54916809450876" stroke="black" stroke-width="1" />
  <line x1="61.20394219999113" y1="229.54916809450876" x2="61.20394219999113" y2="220.21796809450876" stroke="black" stroke-width="1" />
  <line x1="61.20394219999113" y1="220.21796809450876" x2="50.20701753897794" y2="209.22104343349557" stroke="black" stroke-width="1" />
  <line x1="50.20701753897794" y1="209.22104343349557" x2="39.21009287796474" y2="220.21796809450876" stroke="black" stroke-width="1" />
  <line x1="39.21009287796474" y1="220.21796809450876" x2="39.21009287796474" y2="229.54916809450876" stroke="black" stroke-width="1" />
  <line x1="39.21009287796474" y1="229.54916809450876" x2="43.1689857559295" y2="233.50806097247352" stroke="black" stroke-width="1" />
  <line x1="43.1689857559295" y1="233.50806097247352" x2="39.21009287796474" y2="229.54916809450876" stroke="black" stroke-width="1" />
  <line x1="39.21009287796474" y1="229.54916809450876" x2="35.25119999999998" y2="233.50806097247352" stroke="black" stroke-width="1" />
  <line x1="35.25119999999998" y1="233.50806097247352" x2="39.21009287796474" y2="229.54916809450876" stroke="black" stroke-width="1" />
  <line x1="39.21009287796474" y1="229.54916809450876" x2="39.21009287796474" y2="220.21796809450876" stroke="black" stroke-width="1" />
  <line x1="39.21009287796474" y1="220.21796809450876" x2="29.878892877964745" y2="220.21796809450876" stroke="black" stroke-width="1" />
  <line x1="29.878892877964745" y1="220.21796809450876" x2="25.919999999999987" y2="224.17686097247352" stroke="black" stroke-width="1" />
  <line x1="25.919999999999987" y1="224.17686097247352" x2="29.878892877964745" y2="220.21796809450876" stroke="black" stroke-width="1" />
  <line x1="29.878892877964745" y1="220.21796809450876" x2="25.919999999999987" y2="216.259075216544" stroke="black" stroke-width="1" />
  <line x1="25.919999999999987" y1="216.259075216544" x2="29.878892877964745" y2="220.21796809450876" stroke="black" stroke-width="1" />
  <line x1="29.878892877964745" y1="220.21796809450876" x2="39.21009287796474" y2="220.21796809450876" stroke="black" stroke-width="1" />
  <line x1="39.21009287796474" y1="220.21796809450876" x2="50.20701753897794" y2="209.22104343349557" stroke="black" stroke-width="1" />
  <line x1="50.20701753897794" y1="209.22104343349557" x2="50.20701753897794" y2="183.30104343349558" stroke="black" stroke-width="1" />
  <line x1="50.20701753897794" y1="183.30104343349558" x2="24.28701753897795" y2="183.30104343349558" stroke="black" stroke-width="1" />
  <line x1="24.28701753897795" y1="183.30104343349558" x2="13.290092877964753" y2="194.29796809450878" stroke="black" stroke-width="1" />
  <line x1="13.290092877964753" y1="194.29796809450878" x2="13.290092877964753" y2="203.62916809450877" stroke="black" stroke-width="1" />
  <line x1="13.290092877964753" y1="203.62916809450877" x2="17.24898575592951" y2="207.58806097247353" stroke="black" stroke-width="1" />
  <line x1="17.24898575592951" y1="207.58806097247353" x2="13.290092877964753" y2="203.62916809450877" stroke="black" stroke-width="1" />
  <line x1="13.290092877964753" y1="203.62916809450877" x2="9.331199999999995" y2="207.58806097247353" stroke="black" stroke-width="1" />
  <line x1="9.331199999999995" y1="207.58806097247353" x2="13.290092877964753" y2="203.62916809450877" stroke="black" stroke-width="1" />
  <line x1="13.290092877964753" y1="203.62916809450877" x2="13.290092877964753" y2="194.29796809450878" stroke="black" stroke-width="1" />
  <line x1="13.290092877964753" y1="194.29796809450878" x2="3.9588928779647574" y2="194.29796809450878" stroke="black" stroke-width="1" />
  <line x1="3.9588928779647574" y1="194.29796809450878" x2="0.0" y2="198.25686097247353" stroke="black" stroke-width="1" />
  <line x1="0.0" y1="198.25686097247353" x2="3.9588928779647574" y2="194.29796809450878" stroke="black" stroke-width="1" />
  <line x1="3.9588928779647574" y1="194.29796809450878" x2="0.0" y2="190.33907521654402" stroke="black" stroke-width="1" />
  <line x1="0.0" y1="190.33907521654402" x2="3.9588928779647574" y2="194.29796809450878" stroke="black" stroke-width="1" />
  <line x1="3.9588928779647574" y1="194.29796809450878" x2="13.290092877964753" y2="194.29796809450878" stroke="black" stroke-width="1" />
  <line x1="13.290092877964753" y1="194.29796809450878" x2="24.28701753897795" y2="183.30104343349558" stroke="black" stroke-width="1" />
  <line x1="24.28701753897795" y1="183.30104343349558" x2="13.290092877964753" y2="172.3041187724824" stroke="black" stroke-width="1" />
  <line x1="13.290092877964753" y1="172.3041187724824" x2="3.9588928779647574" y2="172.3041187724824" stroke="black" stroke-width="1" />
  <line x1="3.9588928779647574" y1="172.3041187724824" x2="0.0" y2="176.26301165044714" stroke="black" stroke-width="1" />
  <line x1="0.0" y1="176.26301165044714" x2="3.9588928779647574" y2="172.3041187724824" stroke="black" stroke-width="1" />
  <line x1="3.9588928779647574" y1="172.3041187724824" x2="0.0" y2="168.34522589451768" stroke="black" stroke-width="1" />
  <line x1="0.0" y1="168.34522589451768" x2="3.9588928779647574" y2="172.3041187724824" stroke="black" stroke-width="1" />
  <line x1="3.9588928779647574" y1="172.3041187724824" x2="13.290092877964753" y2="172.3041187724824" stroke="black" stroke-width="1" />
  <line x1="13.290092877964753" y1="172.3041187724824" x2="13.290092877964753" y2="162.9729187724824" stroke="black" stroke-width="1" />
  <line x1="13.290092877964753" y1="162.9729187724824" x2="9.331199999999995" y2="159.01402589451766" stroke="black" stroke-width="1" />
  <line x1="9.331199999999995" y1="159.01402589451766" x2="13.290092877964753" y2="162.9729187724824" stroke="black" stroke-width="1" />
  <line x1="13.290092877964753" y1="162.9729187724824" x2="17.24898575592951" y2="159.01402589451766" stroke="black" stroke-width="1" />
  <line x1="17.24898575592951" y1="159.01402589451766" x2="13.290092877964753" y2="162.9729187724824" stroke="black" stroke-width="1" />
  <line x1="13.290092877964753" y1="162.9729187724824" x2="13.290092877964753" y2="172.3041187724824" stroke="black" stroke-width="1" />
  <line x1="13.290092877964753" y1="172.3041187724824" x2="24.28701753897795" y2="183.3010434334956" stroke="black" stroke-width="1" />
  <line x1="24.28701753897795" y1="183.3010434334956" x2="50.20701753897794" y2="183.3010434334956" stroke="black" stroke-width="1" />
  <line x1="50.20701753897794" y1="183.3010434334956" x2="80.75403048623679" y2="152.7540304862368" stroke="black" stroke-width="1" />
  <line x1="80.75403048623679" y1="152.7540304862368" x2="50.20701753897794" y2="122.20701753897794" stroke="black" stroke-width="1" />
  <line x1="50.20701753897794" y1="122.20701753897794" x2="24.28701753897795" y2="122.20701753897794" stroke="black" stroke-width="1" />
  <line x1="24.28701753897795" y1="122.20701753897794" x2="13.290092877964753" y2="133.2039421999911" stroke="black" stroke-width="1" />
  <line x1="13.290092877964753" y1="133.2039421999911" x2="13.290092877964753" y2="142.53514219999113" stroke="black" stroke-width="1" />
  <line x1="13.290092877964753" y1="142.53514219999113" x2="17.24898575592951" y2="146.49403507795586" stroke="black" stroke-width="1" />
  <line x1="17.24898575592951" y1="146.49403507795586" x2="13.290092877964753" y2="142.53514219999113" stroke="black" stroke-width="1" />
  <line x1="13.290092877964753" y1="142.53514219999113" x2="9.331199999999995" y2="146.49403507795586" stroke="black" stroke-width="1" />
  <line x1="9.331199999999995" y1="146.49403507795586" x2="13.290092877964753" y2="142.53514219999113" stroke="black" stroke-width="1" />
  <line x1="13.290092877964753" y1="142.53514219999113" x2="13.290092877964753" y2="133.2039421999911" stroke="black" stroke-width="1" />
  <line x1="13.290092877964753" y1="133.2039421999911" x2="3.9588928779647574" y2="133.2039421999911" stroke="black" stroke-width="1" />
  <line x1="3.9588928779647574" y1="133.2039421999911" x2="0.0" y2="137.16283507795583" stroke="black" stroke-width="1" />
  <line x1="0.0" y1="137.16283507795583" x2="3.9588928779647574" y2="133.2039421999911" stroke="black" stroke-width="1" />
  <line x1="3.9588928779647574" y1="133.2039421999911" x2="0.0" y2="129.24504932202638" stroke="black" stroke-width="1" />
  <line x1="0.0" y1="129.24504932202638" x2="3.9588928779647574" y2="133.2039421999911" stroke="black" stroke-width="1" />
  <line x1="3.9588928779647574" y1="133.2039421999911" x2="13.290092877964753" y2="133.2039421999911" stroke="black" stroke-width="1" />
  <line x1="13.290092877964753" y1="133.2039421999911" x2="24.28701753897795" y2="122.20701753897794" stroke="black" stroke-width="1" />
  <line x1="24.28701753897795" y1="122.20701753897794" x2="13.290092877964753" y2="111.21009287796477" stroke="black" stroke-width="1" />
  <line x1="13.290092877964753" y1="111.21009287796477" x2="3.9588928779647574" y2="111.21009287796477" stroke="black" stroke-width="1" />
  <line x1="3.9588928779647574" y1="111.21009287796477" x2="0.0" y2="115.1689857559295" stroke="black" stroke-width="1" />
  <line x1="0.0" y1="115.1689857559295" x2="3.9588928779647574" y2="111.21009287796477" stroke="black" stroke-width="1" />
  <line x1="3.9588928779647574" y1="111.21009287796477" x2="0.0" y2="107.25120000000004" stroke="black" stroke-width="1" />
  <line x1="0.0" y1="107.25120000000004" x2="3.9588928779647574" y2="111.21009287796477" stroke="black" stroke-width="1" />
  <line x1="3.9588928779647574" y1="111.21009287796477" x2="13.290092877964753" y2="111.21009287796477" stroke="black" stroke-width="1" />
  <line x1="13.290092877964753" y1="111.21009287796477" x2="13.290092877964753" y2="101.87889287796474" stroke="black" stroke-width="1" />
  <line x1="13.290092877964753" y1="101.87889287796474" x2="9.331199999999995" y2="97.92000000000002" stroke="black" stroke-width="1" />
  <line x1="9.331199999999995" y1="97.92000000000002" x2="13.290092877964753" y2="101.87889287796474" stroke="black" stroke-width="1" />
  <line x1="13.290092877964753" y1="101.87889287796474" x2="17.24898575592951" y2="97.92000000000002" stroke="black" stroke-width="1" />
  <line x1="17.24898575592951" y1="97.92000000000002" x2="13.290092877964753" y2="101.87889287796474" stroke="black" stroke-width="1" />
  <line x1="13.290092877964753" y1="101.87889287796474" x2="13.290092877964753" y2="111.21009287796477" stroke="black" stroke-width="1" />
  <line x1="13.290092877964753" y1="111.21009287796477" x2="24.28701753897795" y2="122.20701753897794" stroke="black" stroke-width="1" />
  <line x1="24.28701753897795" y1="122.20701753897794" x2="50.20701753897794" y2="122.20701753897794" stroke="black" stroke-width="1" />
  <line x1="50.20701753897794" y1="122.20701753897794" x2="50.20701753897794" y2="96.28701753897792" stroke="black" stroke-width="1" />
  <line x1="50.20701753897794" y1="96.28701753897792" x2="39.21009287796474" y2="85.29009287796475" stroke="black" stroke-width="1" />
  <line x1="39.21009287796474" y1="85.29009287796475" x2="29.878892877964745" y2="85.29009287796475" stroke="black" stroke-width="1" />
  <line x1="29.878892877964745" y1="85.29009287796475" x2="25.919999999999987" y2="89.24898575592948" stroke="black" stroke-width="1" />
  <line x1="25.919999999999987" y1="89.24898575592948" x2="29.878892877964745" y2="85.29009287796475" stroke="black" stroke-width="1" />
  <line x1="29.878892877964745" y1="85.29009287796475" x2="25.919999999999987" y2="81.33120000000002" stroke="black" stroke-width="1" />
  <line x1="25.919999999999987" y1="81.33120000000002" x2="29.878892877964745" y2="85.29009287796475" stroke="black" stroke-width="1" />
  <line x1="29.878892877964745" y1="85.29009287796475" x2="39.21009287796474" y2="85.29009287796475" stroke="black" stroke-width="1" />
  <line x1="39.21009287796474" y1="85.29009287796475" x2="39.21009287796474" y2="75.95889287796473" stroke="black" stroke-width="1" />
  <line x1="39.21009287796474" y1="75.95889287796473" x2="35.25119999999998" y2="72.0" stroke="black" stroke-width="1" />
  <line x1="35.25119999999998" y1="72.0" x2="39.21009287796474" y2="75.95889287796473" stroke="black" stroke-width="1" />
  <line x1="39.21009287796474" y1="75.95889287796473" x2="43.1689857559295" y2="72.0" stroke="black" stroke-width="1" />
  <line x1="43.1689857559295" y1="72.0" x2="39.21009287796474" y2="75.95889287796473" stroke="black" stroke-width="1" />
  <line x1="39.21009287796474" y1="75.95889287796473" x2="39.21009287796474" y2="85.29009287796475" stroke="black" stroke-width="1" />
  <line x1="39.21009287796474" y1="85.29009287796475" x2="50.20701753897794" y2="96.28701753897792" stroke="black" stroke-width="1" />
  <line x1="50.20701753897794" y1="96.28701753897792" x2="61.20394219999113" y2="85.29009287796475" stroke="black" stroke-width="1" />
  <line x1="61.20394219999113" y1="85.29009287796475" x2="61.20394219999113" y2="75.95889287796473" stroke="black" stroke-width="1" />
  <line x1="61.20394219999113" y1="75.95889287796473" x2="57.245049322026375" y2="72.0" stroke="black" stroke-width="1" />
  <line x1="57.245049322026375" y1="72.0" x2="61.20394219999113" y2="75.95889287796473" stroke="black" stroke-width="1" />
  <line x1="61.20394219999113" y1="75.95889287796473" x2="65.16283507795589" y2="72.0" stroke="black" stroke-width="1" />
  <line x1="65.16283507795589" y1="72.0" x2="61.20394219999113" y2="75.95889287796473" stroke="black" stroke-width="1" />
  <line x1="61.20394219999113" y1="75.95889287796473" x2="61.20394219999113" y2="85.29009287796475" stroke="black" stroke-width="1" />
  <line x1="61.20394219999113" y1="85.29009287796475" x2="70.53514219999113" y2="85.29009287796475" stroke="black" stroke-width="1" />
  <line x1="70.53514219999113" y1="85.29009287796475" x2="74.49403507795589" y2="81.33120000000002" stroke="black" stroke-width="1" />
  <line x1="74.49403507795589" y1="81.33120000000002" x2="70.53514219999113" y2="85.29009287796475" stroke="black" stroke-width="1" />
  <line x1="70.53514219999113" y1="85.29009287796475" x2="74.49403507795589" y2="89.24898575592948" stroke="black" stroke-width="1" />
  <line x1="74.49403507795589" y1="89.24898575592948" x2="70.53514219999113" y2="85.29009287796475" stroke="black" stroke-width="1" />
  <line x1="70.53514219999113" y1="85.29009287796475" x2="61.20394219999113" y2="85.29009287796475" stroke="black" stroke-width="1" />
  <line x1="61.20394219999113" y1="85.29009287796475" x2="50.20701753897794" y2="96.28701753897792" stroke="black" stroke-width="1" />
  <line x1="50.20701753897794" y1="96.28701753897792" x2="50.20701753897794" y2="122.20701753897794" stroke="black" stroke-width="1" />
  <line x1="50.20701753897794" y1="122.20701753897794" x2="80.75403048623679" y2="152.7540304862368" stroke="black" stroke-width="1" />
  <line x1="80.75403048623679" y1="152.7540304862368" x2="152.7540304862368" y2="152.7540304862368" stroke="black" stroke-width="1" />
  <line x1="152.7540304862368" y1="152.7540304862368" x2="152.7540304862368" y2="80.75403048623679" stroke="black" stroke-width="1" />
  <line x1="152.7540304862368" y1="80.75403048623679" x2="122.20701753897794" y2="50.20701753897794" stroke="black" stroke-width="1" />
  <line x1="122.20701753897794" y1="50.20701753897794" x2="96.28701753897795" y2="50.20701753897794" stroke="black" stroke-width="1" />
  <line x1="96.28701753897795" y1="50.20701753897794" x2="85.29009287796475" y2="61.203942199991104" stroke="black" stroke-width="1" />
  <line x1="85.29009287796475" y1="61.203942199991104" x2="85.29009287796475" y2="70.53514219999113" stroke="black" stroke-width="1" />
  <line x1="85.29009287796475" y1="70.53514219999113" x2="89.24898575592951" y2="74.49403507795586" stroke="black" stroke-width="1" />
  <line x1="89.24898575592951" y1="74.49403507795586" x2="85.29009287796475" y2="70.53514219999113" stroke="black" stroke-width="1" />
  <line x1="85.29009287796475" y1="70.53514219999113" x2="81.3312" y2="74.49403507795586" stroke="black" stroke-width="1" />
  <line x1="81.3312" y1="74.49403507795586" x2="85.29009287796475" y2="70.53514219999113" stroke="black" stroke-width="1" />
  <line x1="85.29009287796475" y1="70.53514219999113" x2="85.29009287796475" y2="61.203942199991104" stroke="black" stroke-width="1" />
  <line x1="85.29009287796475" y1="61.203942199991104" x2="75.95889287796476" y2="61.203942199991104" stroke="black" stroke-width="1" />
  <line x1="75.95889287796476" y1="61.203942199991104" x2="72.0" y2="65.16283507795583" stroke="black" stroke-width="1" />
  <line x1="72.0" y1="65.16283507795583" x2="75.95889287796476" y2="61.203942199991104" stroke="black" stroke-width="1" />
  <line x1="75.95889287796476" y1="61.203942199991104" x2="72.0" y2="57.245049322026375" stroke="black" stroke-width="1" />
  <line x1="72.0" y1="57.245049322026375" x2="75.95889287796476" y2="61.203942199991104" stroke="black" stroke-width="1" />
  <line x1="75.95889287796476" y1="61.203942199991104" x2="85.29009287796475" y2="61.203942199991104" stroke="black" stroke-width="1" />
  <line x1="85.29009287796475" y1="61.203942199991104" x2="96.28701753897795" y2="50.20701753897794" stroke="black" stroke-width="1" />
  <line x1="96.28701753897795" y1="50.20701753897794" x2="85.29009287796475" y2="39.21009287796477" stroke="black" stroke-width="1" />
  <line x1="85.29009287796475" y1="39.21009287796477" x2="75.95889287796476" y2="39.21009287796477" stroke="black" stroke-width="1" />
  <line x1="75.95889287796476" y1="39.21009287796477" x2="72.0" y2="43.1689857559295" stroke="black" stroke-width="1" />
  <line x1="72.0" y1="43.1689857559295" x2="75.95889287796476" y2="39.21009287796477" stroke="black" stroke-width="1" />
  <line x1="75.95889287796476" y1="39.21009287796477" x2="72.0" y2="35.25120000000004" stroke="black" stroke-width="1" />
  <line x1="72.0" y1="35.25120000000004" x2="75.95889287796476" y2="39.21009287796477" stroke="black" stroke-width="1" />
  <line x1="75.95889287796476" y1="39.21009287796477" x2="85.29009287796475" y2="39.21009287796477" stroke="black" stroke-width="1" />
  <line x1="85.29009287796475" y1="39.21009287796477" x2="85.29009287796475" y2="29.878892877964745" stroke="black" stroke-width="1" />
  <line x1="85.29009287796475" y1="29.878892877964745" x2="81.3312" y2="25.920000000000016" stroke="black" stroke-width="1" />
  <line x1="81.3312" y1="25.920000000000016" x2="85.29009287796475" y2="29.878892877964745" stroke="black" stroke-width="1" />
  <line x1="85.29009287796475" y1="29.878892877964745" x2="89.24898575592951" y2="25.920000000000016" stroke="black" stroke-width="1" />
  <line x1="89.24898575592951" y1="25.920000000000016" x2="85.29009287796475" y2="29.878892877964745" stroke="black" stroke-width="1" />
  <line x1="85.29009287796475" y1="29.878892877964745" x2="85.29009287796475" y2="39.21009287796477" stroke="black" stroke-width="1" />
  <line x1="85.29009287796475" y1="39.21009287796477" x2="96.28701753897795" y2="50.20701753897794" stroke="black" stroke-width="1" />
  <line x1="96.28701753897795" y1="50.20701753897794" x2="122.20701753897795" y2="50.20701753897794" stroke="black" stroke-width="1" />
  <line x1="122.20701753897795" y1="50.20701753897794" x2="122.20701753897795" y2="24.28701753897792" stroke="black" stroke-width="1" />
  <line x1="122.20701753897795" y1="24.28701753897792" x2="111.21009287796477" y2="13.290092877964753" stroke="black" stroke-width="1" />
  <line x1="111.21009287796477" y1="13.290092877964753" x2="101.87889287796477" y2="13.290092877964753" stroke="black" stroke-width="1" />
  <line x1="101.87889287796477" y1="13.290092877964753" x2="97.92000000000002" y2="17.248985755929482" stroke="black" stroke-width="1" />
  <line x1="97.92000000000002" y1="17.248985755929482" x2="101.87889287796477" y2="13.290092877964753" stroke="black" stroke-width="1" />
  <line x1="101.87889287796477" y1="13.290092877964753" x2="97.92000000000002" y2="9.331200000000024" stroke="black" stroke-width="1" />
  <line x1="97.92000000000002" y1="9.331200000000024" x2="101.87889287796477" y2="13.290092877964753" stroke="black" stroke-width="1" />
  <line x1="101.87889287796477" y1="13.290092877964753" x2="111.21009287796477" y2="13.290092877964753" stroke="black" stroke-width="1" />
  <line x1="111.21009287796477" y1="13.290092877964753" x2="111.21009287796477" y2="3.958892877964729" stroke="black" stroke-width="1" />
  <line x1="111.21009287796477" y1="3.958892877964729" x2="107.25120000000001" y2="0.0" stroke="black" stroke-width="1" />
  <line x1="107.25120000000001" y1="0.0" x2="111.21009287796475" y2="3.958892877964729" stroke="black" stroke-width="1" />
  <line x1="111.21009287796475" y1="3.958892877964729" x2="115.1689857559295" y2="0.0" stroke="black" stroke-width="1" />
  <line x1="115.1689857559295" y1="0.0" x2="111.21009287796475" y2="3.958892877964729" stroke="black" stroke-width="1" />
  <line x1="111.21009287796475" y1="3.958892877964729" x2="111.21009287796475" y2="13.290092877964753" stroke="black" stroke-width="1" />
  <line x1="111.21009287796475" y1="13.290092877964753" x2="122.20701753897794" y2="24.28701753897792" stroke="black" stroke-width="1" />
  <line x1="122.20701753897794" y1="24.28701753897792" x2="133.2039421999911" y2="13.290092877964753" stroke="black" stroke-width="1" />
  <line x1="133.2039421999911" y1="13.290092877964753" x2="133.2039421999911" y2="3.958892877964729" stroke="black" stroke-width="1" />
  <line x1="133.2039421999911" y1="3.958892877964729" x2="129.24504932202638" y2="0.0" stroke="black" stroke-width="1" />
  <line x1="129.24504932202638" y1="0.0" x2="133.2039421999911" y2="3.958892877964729" stroke="black" stroke-width="1" />
  <line x1="133.2039421999911" y1="3.958892877964729" x2="137.16283507795586" y2="0.0" stroke="black" stroke-width="1" />
  <line x1="137.16283507795586" y1="0.0" x2="133.2039421999911" y2="3.958892877964729" stroke="black" stroke-width="1" />
  <line x1="133.2039421999911" y1="3.958892877964729" x2="133.2039421999911" y2="13.290092877964753" stroke="black" stroke-width="1" />
  <line x1="133.2039421999911" y1="13.290092877964753" x2="142.53514219999113" y2="13.290092877964753" stroke="black" stroke-width="1" />
  <line x1="142.53514219999113" y1="13.290092877964753" x2="146.49403507795586" y2="9.331200000000024" stroke="black" stroke-width="1" />
  <line x1="146.49403507795586" y1="9.331200000000024" x2="142.53514219999113" y2="13.290092877964753" stroke="black" stroke-width="1" />
  <line x1="142.53514219999113" y1="13.290092877964753" x2="146.49403507795586" y2="17.248985755929482" stroke="black" stroke-width="1" />
  <line x1="146.49403507795586" y1="17.248985755929482" x2="142.53514219999113" y2="13.290092877964753" stroke="black" stroke-width="1" />
  <line x1="142.53514219999113" y1="13.290092877964753" x2="133.2039421999911" y2="13.290092877964753" stroke="black" stroke-width="1" />
  <line x1="133.2039421999911" y1="13.290092877964753" x2="122.20701753897794" y2="24.28701753897792" stroke="black" stroke-width="1" />
  <line x1="122.20701753897794" y1="24.28701753897792" x2="122.20701753897794" y2="50.20701753897794" stroke="black" stroke-width="1" />
  <line x1="122.20701753897794" y1="50.20701753897794" x2="152.7540304862368" y2="80.75403048623679" stroke="black" stroke-width="1" />
  <line x1="152.7540304862368" y1="80.75403048623679" x2="183.30104343349564" y2="50.20701753897794" stroke="black" stroke-width="1" />
  <line x1="183.30104343349564" y1="50.20701753897794" x2="183.30104343349564" y2="24.28701753897792" stroke="black" stroke-width="1" />
  <line x1="183.30104343349564" y1="24.28701753897792" x2="172.30411877248247" y2="13.290092877964753" stroke="black" stroke-width="1" />
  <line x1="172.30411877248247" y1="13.290092877964753" x2="162.97291877248244" y2="13.290092877964753" stroke="black" stroke-width="1" />
  <line x1="162.97291877248244" y1="13.290092877964753" x2="159.01402589451772" y2="17.248985755929482" stroke="black" stroke-width="1" />
  <line x1="159.01402589451772" y1="17.248985755929482" x2="162.97291877248244" y2="13.290092877964753" stroke="black" stroke-width="1" />
  <line x1="162.97291877248244" y1="13.290092877964753" x2="159.01402589451772" y2="9.331200000000024" stroke="black" stroke-width="1" />
  <line x1="159.01402589451772" y1="9.331200000000024" x2="162.97291877248244" y2="13.290092877964753" stroke="black" stroke-width="1" />
  <line x1="162.97291877248244" y1="13.290092877964753" x2="172.30411877248247" y2="13.290092877964753" stroke="black" stroke-width="1" />
  <line x1="172.30411877248247" y1="13.290092877964753" x2="172.30411877248247" y2="3.958892877964729" stroke="black" stroke-width="1" />
  <line x1="172.30411877248247" y1="3.958892877964729" x2="168.3452258945177" y2="0.0" stroke="black" stroke-width="1" />
  <line x1="168.3452258945177" y1="0.0" x2="172.30411877248247" y2="3.958892877964729" stroke="black" stroke-width="1" />
  <line x1="172.30411877248247" y1="3.958892877964729" x2="176.2630116504472" y2="0.0" stroke="black" stroke-width="1" />
  <line x1="176.2630116504472" y1="0.0" x2="172.30411877248247" y2="3.958892877964729" stroke="black" stroke-width="1" />
  <line x1="172.30411877248247" y1="3.958892877964729" x2="172.30411877248247" y2="13.290092877964753" stroke="black" stroke-width="1" />
  <line x1="172.30411877248247" y1="13.290092877964753" x2="183.30104343349564" y2="24.28701753897792" stroke="black" stroke-width="1" />
  <line x1="183.30104343349564" y1="24.28701753897792" x2="194.2979680945088" y2="13.290092877964753" stroke="black" stroke-width="1" />
  <line x1="194.2979680945088" y1="13.290092877964753" x2="194.2979680945088" y2="3.958892877964729" stroke="black" stroke-width="1" />
  <line x1="194.2979680945088" y1="3.958892877964729" x2="190.33907521654407" y2="0.0" stroke="black" stroke-width="1" />
  <line x1="190.33907521654407" y1="0.0" x2="194.2979680945088" y2="3.958892877964729" stroke="black" stroke-width="1" />
  <line x1="194.2979680945088" y1="3.958892877964729" x2="198.25686097247356" y2="0.0" stroke="black" stroke-width="1" />
  <line x1="198.25686097247356" y1="0.0" x2="194.2979680945088" y2="3.958892877964729" stroke="black" stroke-width="1" />
  <line x1="194.2979680945088" y1="3.958892877964729" x2="194.2979680945088" y2="13.290092877964753" stroke="black" stroke-width="1" />
  <line x1="194.2979680945088" y1="13.290092877964753" x2="203.62916809450883" y2="13.290092877964753" stroke="black" stroke-width="1" />
  <line x1="203.62916809450883" y1="13.290092877964753" x2="207.58806097247356" y2="9.331200000000024" stroke="black" stroke-width="1" />
  <line x1="207.58806097247356" y1="9.331200000000024" x2="203.62916809450883" y2="13.290092877964753" stroke="black" stroke-width="1" />
  <line x1="203.62916809450883" y1="13.290092877964753" x2="207.58806097247356" y2="17.248985755929482" stroke="black" stroke-width="1" />
  <line x1="207.58806097247356" y1="17.248985755929482" x2="203.62916809450883" y2="13.290092877964753" stroke="black" stroke-width="1" />
  <line x1="203.62916809450883" y1="13.290092877964753" x2="194.2979680945088" y2="13.290092877964753" stroke="black" stroke-width="1" />
  <line x1="194.2979680945088" y1="13.290092877964753" x2="183.30104343349564" y2="24.28701753897792" stroke="black" stroke-width="1" />
  <line x1="183.30104343349564" y1="24.28701753897792" x2="183.30104343349564" y2="50.20701753897794" stroke="black" stroke-width="1" />
  <line x1="183.30104343349564" y1="50.20701753897794" x2="209.22104343349562" y2="50.20701753897794" stroke="black" stroke-width="1" />
  <line x1="209.22104343349562" y1="50.20701753897794" x2="220.21796809450882" y2="39.21009287796477" stroke="black" stroke-width="1" />
  <line x1="220.21796809450882" y1="39.21009287796477" x2="220.21796809450882" y2="29.878892877964745" stroke="black" stroke-width="1" />
  <line x1="220.21796809450882" y1="29.878892877964745" x2="216.25907521654406" y2="25.920000000000016" stroke="black" stroke-width="1" />
  <line x1="216.25907521654406" y1="25.920000000000016" x2="220.21796809450882" y2="29.878892877964745" stroke="black" stroke-width="1" />
  <line x1="220.21796809450882" y1="29.878892877964745" x2="224.17686097247355" y2="25.920000000000016" stroke="black" stroke-width="1" />
  <line x1="224.17686097247355" y1="25.920000000000016" x2="220.21796809450882" y2="29.878892877964745" stroke="black" stroke-width="1" />
  <line x1="220.21796809450882" y1="29.878892877964745" x2="220.21796809450882" y2="39.21009287796477" stroke="black" stroke-width="1" />
  <line x1="220.21796809450882" y1="39.21009287796477" x2="229.54916809450881" y2="39.21009287796477" stroke="black" stroke-width="1" />
  <line x1="229.54916809450881" y1="39.21009287796477" x2="233.50806097247354" y2="35.25120000000004" stroke="black" stroke-width="1" />
  <line x1="233.50806097247354" y1="35.25120000000004" x2="229.54916809450881" y2="39.21009287796477" stroke="black" stroke-width="1" />
  <line x1="229.54916809450881" y1="39.21009287796477" x2="233.50806097247354" y2="43.1689857559295" stroke="black" stroke-width="1" />
  <line x1="233.50806097247354" y1="43.1689857559295" x2="229.54916809450881" y2="39.21009287796477" stroke="black" stroke-width="1" />
  <line x1="229.54916809450881" y1="39.21009287796477" x2="220.21796809450882" y2="39.21009287796477" stroke="black" stroke-width="1" />
  <line x1="220.21796809450882" y1="39.21009287796477" x2="209.22104343349562" y2="50.20701753897794" stroke="black" stroke-width="1" />
  <line x1="209.22104343349562" y1="50.20701753897794" x2="220.2179680945088" y2="61.203942199991104" stroke="black" stroke-width="1" />
  <line x1="220.2179680945088" y1="61.203942199991104" x2="229.5491680945088" y2="61.203942199991104" stroke="black" stroke-width="1" />
  <line x1="229.5491680945088" y1="61.203942199991104" x2="233.50806097247354" y2="57.245049322026375" stroke="black" stroke-width="1" />
  <line x1="233.50806097247354" y1="57.245049322026375" x2="229.5491680945088" y2="61.203942199991104" stroke="black" stroke-width="1" />
  <line x1="229.5491680945088" y1="61.203942199991104" x2="233.50806097247354" y2="65.16283507795583" stroke="black" stroke-width="1" />
  <line x1="233.50806097247354" y1="65.16283507795583" x2="229.5491680945088" y2="61.203942199991104" stroke="black" stroke-width="1" />
  <line x1="229.5491680945088" y1="61.203942199991104" x2="220.2179680945088" y2="61.203942199991104" stroke="black" stroke-width="1" />
  <line x1="220.2179680945088" y1="61.203942199991104" x2="220.2179680945088" y2="70.53514219999113" stroke="black" stroke-width="1" />
  <line x1="220.2179680945088" y1="70.53514219999113" x2="224.17686097247355" y2="74.49403507795586" stroke="black" stroke-width="1" />
  <line x1="224.17686097247355" y1="74.49403507795586" x2="220.2179680945088" y2="70.53514219999113" stroke="black" stroke-width="1" />
  <line x1="220.2179680945088" y1="70.53514219999113" x2="216.25907521654406" y2="74.49403507795586" stroke="black" stroke-width="1" />
  <line x1="216.25907521654406" y1="74.49403507795586" x2="220.2179680945088" y2="70.53514219999113" stroke="black" stroke-width="1" />
  <line x1="220.2179680945088" y1="70.53514219999113" x2="220.2179680945088" y2="61.203942199991104" stroke="black" stroke-width="1" />
  <line x1="220.2179680945088" y1="61.203942199991104" x2="209.22104343349562" y2="50.20701753897794" stroke="black" stroke-width="1" />
  <line x1="209.22104343349562" y1="50.20701753897794" x2="183.3010434334956" y2="50.20701753897794" stroke="black" stroke-width="1" />
  <line x1="183.3010434334956" y1="50.20701753897794" x2="152.75403048623676" y2="80.75403048623679" stroke="black" stroke-width="1" />
  <line x1="152.75403048623676" y1="80.75403048623679" x2="152.75403048623673" y2="152.7540304862368" stroke="black" stroke-width="1" />
  <line x1="152.75403048623673" y1="152.7540304862368" x2="237.60684422862244" y2="237.6068442286225" stroke="black" stroke-width="1" />
  <line x1="237.60684422862244" y1="237.6068442286225" x2="322.45965797100814" y2="152.7540304862368" stroke="black" stroke-width="1" />
  <line x1="322.45965797100814" y1="152.7540304862368" x2="322.45965797100814" y2="80.75403048623679" stroke="black" stroke-width="1" />
  <line x1="322.45965797100814" y1="80.75403048623679" x2="291.9126450237493" y2="50.20701753897794" stroke="black" stroke-width="1" />
  <line x1="291.9126450237493" y1="50.20701753897794" x2="265.9926450237493" y2="50.20701753897794" stroke="black" stroke-width="1" />
  <line x1="265.9926450237493" y1="50.20701753897794" x2="254.9957203627361" y2="61.203942199991104" stroke="black" stroke-width="1" />
  <line x1="254.9957203627361" y1="61.203942199991104" x2="254.9957203627361" y2="70.53514219999113" stroke="black" stroke-width="1" />
  <line x1="254.9957203627361" y1="70.53514219999113" x2="258.95461324070084" y2="74.49403507795586" stroke="black" stroke-width="1" />
  <line x1="258.95461324070084" y1="74.49403507795586" x2="254.9957203627361" y2="70.53514219999113" stroke="black" stroke-width="1" />
  <line x1="254.9957203627361" y1="70.53514219999113" x2="251.03682748477135" y2="74.49403507795586" stroke="black" stroke-width="1" />
  <line x1="251.03682748477135" y1="74.49403507795586" x2="254.9957203627361" y2="70.53514219999113" stroke="black" stroke-width="1" />
  <line x1="254.9957203627361" y1="70.53514219999113" x2="254.9957203627361" y2="61.203942199991104" stroke="black" stroke-width="1" />
  <line x1="254.9957203627361" y1="61.203942199991104" x2="245.66452036273608" y2="61.203942199991104" stroke="black" stroke-width="1" />
  <line x1="245.66452036273608" y1="61.203942199991104" x2="241.70562748477136" y2="65.16283507795583" stroke="black" stroke-width="1" />
  <line x1="241.70562748477136" y1="65.16283507795583" x2="245.66452036273608" y2="61.203942199991104" stroke="black" stroke-width="1" />
  <line x1="245.66452036273608" y1="61.203942199991104" x2="241.70562748477136" y2="57.245049322026375" stroke="black" stroke-width="1" />
  <line x1="241.70562748477136" y1="57.245049322026375" x2="245.66452036273608" y2="61.203942199991104" stroke="black" stroke-width="1" />
  <line x1="245.66452036273608" y1="61.203942199991104" x2="254.9957203627361" y2="61.203942199991104" stroke="black" stroke-width="1" />
  <line x1="254.9957203627361" y1="61.203942199991104" x2="265.9926450237493" y2="50.20701753897794" stroke="black" stroke-width="1" />
  <line x1="265.9926450237493" y1="50.20701753897794" x2="254.9957203627361" y2="39.21009287796477" stroke="black" stroke-width="1" />
  <line x1="254.9957203627361" y1="39.21009287796477" x2="245.66452036273608" y2="39.21009287796477" stroke="black" stroke-width="1" />
  <line x1="245.66452036273608" y1="39.21009287796477" x2="241.70562748477136" y2="43.1689857559295" stroke="black" stroke-width="1" />
  <line x1="241.70562748477136" y1="43.1689857559295" x2="245.66452036273608" y2="39.21009287796477" stroke="black" stroke-width="1" />
  <line x1="245.66452036273608" y1="39.21009287796477" x2="241.70562748477136" y2="35.25120000000004" stroke="black" stroke-width="1" />
  <line x1="241.70562748477136" y1="35.25120000000004" x2="245.66452036273608" y2="39.21009287796477" stroke="black" stroke-width="1" />
  <line x1="245.66452036273608" y1="39.21009287796477" x2="254.9957203627361" y2="39.21009287796477" stroke="black" stroke-width="1" />
  <line x1="254.9957203627361" y1="39.21009287796477" x2="254.9957203627361" y2="29.878892877964745" stroke="black" stroke-width="1" />
  <line x1="254.9957203627361" y1="29.878892877964745" x2="251.03682748477135" y2="25.920000000000016" stroke="black" stroke-width="1" />
  <line x1="251.03682748477135" y1="25.920000000000016" x2="254.9957203627361" y2="29.878892877964745" stroke="black" stroke-width="1" />
  <line x1="254.9957203627361" y1="29.878892877964745" x2="258.95461324070084" y2="25.920000000000016" stroke="black" stroke-width="1" />
  <line x1="258.95461324070084" y1="25.920000000000016" x2="254.9957203627361" y2="29.878892877964745" stroke="black" stroke-width="1" />
  <line x1="254.9957203627361" y1="29.878892877964745" x2="254.9957203627361" y2="39.21009287796477" stroke="black" stroke-width="1" />
  <line x1="254.9957203627361" y1="39.21009287796477" x2="265.9926450237493" y2="50.20701753897794" stroke="black" stroke-width="1" />
  <line x1="265.9926450237493" y1="50.20701753897794" x2="291.9126450237493" y2="50.20701753897794" stroke="black" stroke-width="1" />
  <line x1="291.9126450237493" y1="50.20701753897794" x2="291.9126450237493" y2="24.28701753897792" stroke="black" stroke-width="1" />
  <line x1="291.9126450237493" y1="24.28701753897792" x2="280.9157203627361" y2="13.290092877964753" stroke="black" stroke-width="1" />
  <line x1="280.9157203627361" y1="13.290092877964753" x2="271.5845203627361" y2="13.290092877964753" stroke="black" stroke-width="1" />
  <line x1="271.5845203627361" y1="13.290092877964753" x2="267.62562748477137" y2="17.248985755929482" stroke="black" stroke-width="1" />
  <line x1="267.62562748477137" y1="17.248985755929482" x2="271.5845203627361" y2="13.290092877964753" stroke="black" stroke-width="1" />
  <line x1="271.5845203627361" y1="13.290092877964753" x2="267.62562748477137" y2="9.331200000000024" stroke="black" stroke-width="1" />
  <line x1="267.62562748477137" y1="9.331200000000024" x2="271.5845203627361" y2="13.290092877964753" stroke="black" stroke-width="1" />
  <line x1="271.5845203627361" y1="13.290092877964753" x2="280.9157203627361" y2="13.290092877964753" stroke="black" stroke-width="1" />
  <line x1="280.9157203627361" y1="13.290092877964753" x2="280.9157203627361" y2="3.958892877964729" stroke="black" stroke-width="1" />
  <line x1="280.9157203627361" y1="3.958892877964729" x2="276.95682748477134" y2="0.0" stroke="black" stroke-width="1" />
  <line x1="276.95682748477134" y1="0.0" x2="280.9157203627361" y2="3.958892877964729" stroke="black" stroke-width="1" />
  <line x1="280.9157203627361" y1="3.958892877964729" x2="284.87461324070085" y2="0.0" stroke="black" stroke-width="1" />
  <line x1="284.87461324070085" y1="0.0" x2="280.9157203627361" y2="3.958892877964729" stroke="black" stroke-width="1" />
  <line x1="280.9157203627361" y1="3.958892877964729" x2="280.9157203627361" y2="13.290092877964753" stroke="black" stroke-width="1" />
  <line x1="280.9157203627361" y1="13.290092877964753" x2="291.9126450237493" y2="24.28701753897792" stroke="black" stroke-width="1" />
  <line x1="291.9126450237493" y1="24.28701753897792" x2="302.90956968476246" y2="13.290092877964753" stroke="black" stroke-width="1" />
  <line x1="302.90956968476246" y1="13.290092877964753" x2="302.90956968476246" y2="3.958892877964729" stroke="black" stroke-width="1" />
  <line x1="302.90956968476246" y1="3.958892877964729" x2="298.95067680679773" y2="0.0" stroke="black" stroke-width="1" />
  <line x1="298.95067680679773" y1="0.0" x2="302.90956968476246" y2="3.958892877964729" stroke="black" stroke-width="1" />
  <line x1="302.90956968476246" y1="3.958892877964729" x2="306.8684625627272" y2="0.0" stroke="black" stroke-width="1" />
  <line x1="306.8684625627272" y1="0.0" x2="302.90956968476246" y2="3.958892877964729" stroke="black" stroke-width="1" />
  <line x1="302.90956968476246" y1="3.958892877964729" x2="302.90956968476246" y2="13.290092877964753" stroke="black" stroke-width="1" />
  <line x1="302.90956968476246" y1="13.290092877964753" x2="312.2407696847624" y2="13.290092877964753" stroke="black" stroke-width="1" />
  <line x1="312.2407696847624" y1="13.290092877964753" x2="316.1996625627272" y2="9.331200000000024" stroke="black" stroke-width="1" />
  <line x1="316.1996625627272" y1="9.331200000000024" x2="312.2407696847624" y2="13.290092877964753" stroke="black" stroke-width="1" />
  <line x1="312.2407696847624" y1="13.290092877964753" x2="316.1996625627272" y2="17.248985755929482" stroke="black" stroke-width="1" />
  <line x1="316.1996625627272" y1="17.248985755929482" x2="312.2407696847624" y2="13.290092877964753" stroke="black" stroke-width="1" />
  <line x1="312.2407696847624" y1="13.290092877964753" x2="302.90956968476246" y2="13.290092877964753" stroke="black" stroke-width="1" />
  <line x1="302.90956968476246" y1="13.290092877964753" x2="291.9126450237493" y2="24.28701753897792" stroke="black" stroke-width="1" />
  <line x1="291.9126450237493" y1="24.28701753897792" x2="291.9126450237493" y2="50.20701753897794" stroke="black" stroke-width="1" />
  <line x1="291.9126450237493" y1="50.20701753897794" x2="322.45965797100814" y2="80.75403048623679" stroke="black" stroke-width="1" />
  <line x1="322.45965797100814" y1="80.75403048623679" x2="353.006670918267" y2="50.20701753897794" stroke="black" stroke-width="1" />
  <line x1="353.006670918267" y1="50.20701753897794" x2="353.006670918267" y2="24.28701753897792" stroke="black" stroke-width="1" />
  <line x1="353.006670918267" y1="24.28701753897792" x2="342.00974625725377" y2="13.290092877964753" stroke="black" stroke-width="1" />
  <line x1="342.00974625725377" y1="13.290092877964753" x2="332.6785462572538" y2="13.290092877964753" stroke="black" stroke-width="1" />
  <line x1="332.6785462572538" y1="13.290092877964753" x2="328.71965337928907" y2="17.248985755929482" stroke="black" stroke-width="1" />
  <line x1="328.71965337928907" y1="17.248985755929482" x2="332.6785462572538" y2="13.290092877964753" stroke="black" stroke-width="1" />
  <line x1="332.6785462572538" y1="13.290092877964753" x2="328.71965337928907" y2="9.331200000000024" stroke="black" stroke-width="1" />
  <line x1="328.71965337928907" y1="9.331200000000024" x2="332.6785462572538" y2="13.290092877964753" stroke="black" stroke-width="1" />
  <line x1="332.6785462572538" y1="13.290092877964753" x2="342.00974625725377" y2="13.290092877964753" stroke="black" stroke-width="1" />
  <line x1="342.00974625725377" y1="13.290092877964753" x2="342.00974625725377" y2="3.958892877964729" stroke="black" stroke-width="1" />
  <line x1="342.00974625725377" y1="3.958892877964729" x2="338.05085337928904" y2="0.0" stroke="black" stroke-width="1" />
  <line x1="338.05085337928904" y1="0.0" x2="342.00974625725377" y2="3.958892877964729" stroke="black" stroke-width="1" />
  <line x1="342.00974625725377" y1="3.958892877964729" x2="345.9686391352185" y2="0.0" stroke="black" stroke-width="1" />
  <line x1="345.9686391352185" y1="0.0" x2="342.00974625725377" y2="3.958892877964729" stroke="black" stroke-width="1" />
  <line x1="342.00974625725377" y1="3.958892877964729" x2="342.00974625725377" y2="13.290092877964753" stroke="black" stroke-width="1" />
  <line x1="342.00974625725377" y1="13.290092877964753" x2="353.006670918267" y2="24.28701753897792" stroke="black" stroke-width="1" />
  <line x1="353.006670918267" y1="24.28701753897792" x2="364.00359557928016" y2="13.290092877964753" stroke="black" stroke-width="1" />
  <line x1="364.00359557928016" y1="13.290092877964753" x2="364.00359557928016" y2="3.958892877964729" stroke="black" stroke-width="1" />
  <line x1="364.00359557928016" y1="3.958892877964729" x2="360.0447027013154" y2="0.0" stroke="black" stroke-width="1" />
  <line x1="360.0447027013154" y1="0.0" x2="364.00359557928016" y2="3.958892877964729" stroke="black" stroke-width="1" />
  <line x1="364.00359557928016" y1="3.958892877964729" x2="367.9624884572449" y2="0.0" stroke="black" stroke-width="1" />
  <line x1="367.9624884572449" y1="0.0" x2="364.00359557928016" y2="3.958892877964729" stroke="black" stroke-width="1" />
  <line x1="364.00359557928016" y1="3.958892877964729" x2="364.00359557928016" y2="13.290092877964753" stroke="black" stroke-width="1" />
  <line x1="364.00359557928016" y1="13.290092877964753" x2="373.3347955792801" y2="13.290092877964753" stroke="black" stroke-width="1" />
  <line x1="373.3347955792801" y1="13.290092877964753" x2="377.2936884572449" y2="9.331200000000024" stroke="black" stroke-width="1" />
  <line x1="377.2936884572449" y1="9.331200000000024" x2="373.3347955792801" y2="13.290092877964753" stroke="black" stroke-width="1" />
  <line x1="373.3347955792801" y1="13.290092877964753" x2="377.2936884572449" y2="17.248985755929482" stroke="black" stroke-width="1" />
  <line x1="377.2936884572449" y1="17.248985755929482" x2="373.3347955792801" y2="13.290092877964753" stroke="black" stroke-width="1" />
  <line x1="373.3347955792801" y1="13.290092877964753" x2="364.00359557928016" y2="13.290092877964753" stroke="black" stroke-width="1" />
  <line x1="364.00359557928016" y1="13.290092877964753" x2="353.006670918267" y2="24.28701753897792" stroke="black" stroke-width="1" />
  <line x1="353.006670918267" y1="24.28701753897792" x2="353.006670918267" y2="50.20701753897794" stroke="black" stroke-width="1" />
  <line x1="353.006670918267" y1="50.20701753897794" x2="378.92667091826695" y2="50.20701753897794" stroke="black" stroke-width="1" />
  <line x1="378.92667091826695" y1="50.20701753897794" x2="389.9235955792802" y2="39.21009287796477" stroke="black" stroke-width="1" />
  <line x1="389.9235955792802" y1="39.21009287796477" x2="389.9235955792802" y2="29.878892877964745" stroke="black" stroke-width="1" />
  <line x1="389.9235955792802" y1="29.878892877964745" x2="385.96470270131545" y2="25.920000000000016" stroke="black" stroke-width="1" />
  <line x1="385.96470270131545" y1="25.920000000000016" x2="389.9235955792802" y2="29.878892877964745" stroke="black" stroke-width="1" />
  <line x1="389.9235955792802" y1="29.878892877964745" x2="393.8824884572449" y2="25.920000000000016" stroke="black" stroke-width="1" />
  <line x1="393.8824884572449" y1="25.920000000000016" x2="389.9235955792802" y2="29.878892877964745" stroke="black" stroke-width="1" />
  <line x1="389.9235955792802" y1="29.878892877964745" x2="389.9235955792802" y2="39.21009287796477" stroke="black" stroke-width="1" />
  <line x1="389.9235955792802" y1="39.21009287796477" x2="399.2547955792802" y2="39.21009287796477" stroke="black" stroke-width="1" />
  <line x1="399.2547955792802" y1="39.21009287796477" x2="403.2136884572449" y2="35.25120000000004" stroke="black" stroke-width="1" />
  <line x1="403.2136884572449" y1="35.25120000000004" x2="399.2547955792802" y2="39.21009287796477" stroke="black" stroke-width="1" />
  <line x1="399.2547955792802" y1="39.21009287796477" x2="403.2136884572449" y2="43.1689857559295" stroke="black" stroke-width="1" />
  <line x1="403.2136884572449" y1="43.1689857559295" x2="399.2547955792802" y2="39.21009287796477" stroke="black" stroke-width="1" />
  <line x1="399.2547955792802" y1="39.21009287796477" x2="389.9235955792802" y2="39.21009287796477" stroke="black" stroke-width="1" />
  <line x1="389.9235955792802" y1="39.21009287796477" x2="378.92667091826695" y2="50.20701753897794" stroke="black" stroke-width="1" />
  <line x1="378.92667091826695" y1="50.20701753897794" x2="389.9235955792802" y2="61.203942199991104" stroke="black" stroke-width="1" />
  <line x1="389.9235955792802" y1="61.203942199991104" x2="399.2547955792802" y2="61.203942199991104" stroke="black" stroke-width="1" />
  <line x1="399.2547955792802" y1="61.203942199991104" x2="403.2136884572449" y2="57.245049322026375" stroke="black" stroke-width="1" />
  <line x1="403.2136884572449" y1="57.245049322026375" x2="399.2547955792802" y2="61.203942199991104" stroke="black" stroke-width="1" />
  <line x1="399.2547955792802" y1="61.203942199991104" x2="403.2136884572449" y2="65.16283507795583" stroke="black" stroke-width="1" />
  <line x1="403.2136884572449" y1="65.16283507795583" x2="399.2547955792802" y2="61.203942199991104" stroke="black" stroke-width="1" />
  <line x1="399.2547955792802" y1="61.203942199991104" x2="389.9235955792802" y2="61.203942199991104" stroke="black" stroke-width="1" />
  <line x1="389.9235955792802" y1="61.203942199991104" x2="389.9235955792802" y2="70.53514219999113" stroke="black" stroke-width="1" />
  <line x1="389.9235955792802" y1="70.53514219999113" x2="393.8824884572449" y2="74.49403507795586" stroke="black" stroke-width="1" />
  <line x1="393.8824884572449" y1="74.49403507795586" x2="389.9235955792802" y2="70.53514219999113" stroke="black" stroke-width="1" />
  <line x1="389.9235955792802" y1="70.53514219999113" x2="385.96470270131545" y2="74.49403507795586" stroke="black" stroke-width="1" />
  <line x1="385.96470270131545" y1="74.49403507795586" x2="389.9235955792802" y2="70.53514219999113" stroke="black" stroke-width="1" />
  <line x1="389.9235955792802" y1="70.53514219999113" x2="389.9235955792802" y2="61.203942199991104" stroke="black" stroke-width="1" />
  <line x1="389.9235955792802" y1="61.203942199991104" x2="378.92667091826695" y2="50.20701753897794" stroke="black" stroke-width="1" />
  <line x1="378.92667091826695" y1="50.20701753897794" x2="353.006670918267" y2="50.20701753897794" stroke="black" stroke-width="1" />
  <line x1="353.006670918267" y1="50.20701753897794" x2="322.45965797100814" y2="80.75403048623679" stroke="black" stroke-width="1" />
  <line x1="322.45965797100814" y1="80.75403048623679" x2="322.4596579710081" y2="152.7540304862368" stroke="black" stroke-width="1" />
  <line x1="322.4596579710081" y1="152.7540304862368" x2="394.45965797100814" y2="152.7540304862368" stroke="black" stroke-width="1" />
  <line x1="394.45965797100814" y1="152.7540304862368" x2="425.006670918267" y2="122.20701753897794" stroke="black" stroke-width="1" />
  <line x1="425.006670918267" y1="122.20701753897794" x2="425.006670918267" y2="96.28701753897792" stroke="black" stroke-width="1" />
  <line x1="425.006670918267" y1="96.28701753897792" x2="414.00974625725377" y2="85.29009287796475" stroke="black" stroke-width="1" />
  <line x1="414.00974625725377" y1="85.29009287796475" x2="404.67854625725374" y2="85.29009287796475" stroke="black" stroke-width="1" />
  <line x1="404.67854625725374" y1="85.29009287796475" x2="400.719653379289" y2="89.24898575592948" stroke="black" stroke-width="1" />
  <line x1="400.719653379289" y1="89.24898575592948" x2="404.67854625725374" y2="85.29009287796475" stroke="black" stroke-width="1" />
  <line x1="404.67854625725374" y1="85.29009287796475" x2="400.719653379289" y2="81.33120000000002" stroke="black" stroke-width="1" />
  <line x1="400.719653379289" y1="81.33120000000002" x2="404.67854625725374" y2="85.29009287796475" stroke="black" stroke-width="1" />
  <line x1="404.67854625725374" y1="85.29009287796475" x2="414.00974625725377" y2="85.29009287796475" stroke="black" stroke-width="1" />
  <line x1="414.00974625725377" y1="85.29009287796475" x2="414.00974625725377" y2="75.95889287796473" stroke="black" stroke-width="1" />
  <line x1="414.00974625725377" y1="75.95889287796473" x2="410.05085337928904" y2="72.0" stroke="black" stroke-width="1" />
  <line x1="410.05085337928904" y1="72.0" x2="414.00974625725377" y2="75.95889287796473" stroke="black" stroke-width="1" />
  <line x1="414.00974625725377" y1="75.95889287796473" x2="417.9686391352185" y2="72.0" stroke="black" stroke-width="1" />
  <line x1="417.9686391352185" y1="72.0" x2="414.00974625725377" y2="75.95889287796473" stroke="black" stroke-width="1" />
  <line x1="414.00974625725377" y1="75.95889287796473" x2="414.00974625725377" y2="85.29009287796475" stroke="black" stroke-width="1" />
  <line x1="414.00974625725377" y1="85.29009287796475" x2="425.006670918267" y2="96.28701753897792" stroke="black" stroke-width="1" />
  <line x1="425.006670918267" y1="96.28701753897792" x2="436.00359557928016" y2="85.29009287796475" stroke="black" stroke-width="1" />
  <line x1="436.00359557928016" y1="85.29009287796475" x2="436.00359557928016" y2="75.95889287796473" stroke="black" stroke-width="1" />
  <line x1="436.00359557928016" y1="75.95889287796473" x2="432.0447027013154" y2="72.0" stroke="black" stroke-width="1" />
  <line x1="432.0447027013154" y1="72.0" x2="436.00359557928016" y2="75.95889287796473" stroke="black" stroke-width="1" />
  <line x1="436.00359557928016" y1="75.95889287796473" x2="439.96248845724494" y2="72.0" stroke="black" stroke-width="1" />
  <line x1="439.96248845724494" y1="72.0" x2="436.00359557928016" y2="75.95889287796473" stroke="black" stroke-width="1" />
  <line x1="436.00359557928016" y1="75.95889287796473" x2="436.00359557928016" y2="85.29009287796475" stroke="black" stroke-width="1" />
  <line x1="436.00359557928016" y1="85.29009287796475" x2="445.3347955792801" y2="85.29009287796475" stroke="black" stroke-width="1" />
  <line x1="445.3347955792801" y1="85.29009287796475" x2="449.2936884572449" y2="81.33120000000002" stroke="black" stroke-width="1" />
  <line x1="449.2936884572449" y1="81.33120000000002" x2="445.3347955792801" y2="85.29009287796475" stroke="black" stroke-width="1" />
  <line x1="445.3347955792801" y1="85.29009287796475" x2="449.2936884572449" y2="89.24898575592948" stroke="black" stroke-width="1" />
  <line x1="449.2936884572449" y1="89.24898575592948" x2="445.3347955792801" y2="85.29009287796475" stroke="black" stroke-width="1" />
  <line x1="445.3347955792801" y1="85.29009287796475" x2="436.00359557928016" y2="85.29009287796475" stroke="black" stroke-width="1" />
  <line x1="436.00359557928016" y1="85.29009287796475" x2="425.006670918267" y2="96.28701753897792" stroke="black" stroke-width="1" />
  <line x1="425.006670918267" y1="96.28701753897792" x2="425.006670918267" y2="122.20701753897794" stroke="black" stroke-width="1" />
  <line x1="425.006670918267" y1="122.20701753897794" x2="450.92667091826695" y2="122.20701753897794" stroke="black" stroke-width="1" />
  <line x1="450.92667091826695" y1="122.20701753897794" x2="461.9235955792801" y2="111.21009287796477" stroke="black" stroke-width="1" />
  <line x1="461.9235955792801" y1="111.21009287796477" x2="461.9235955792801" y2="101.87889287796474" stroke="black" stroke-width="1" />
  <line x1="461.9235955792801" y1="101.87889287796474" x2="457.9647027013154" y2="97.92000000000002" stroke="black" stroke-width="1" />
  <line x1="457.9647027013154" y1="97.92000000000002" x2="461.9235955792801" y2="101.87889287796474" stroke="black" stroke-width="1" />
  <line x1="461.9235955792801" y1="101.87889287796474" x2="465.8824884572449" y2="97.92000000000002" stroke="black" stroke-width="1" />
  <line x1="465.8824884572449" y1="97.92000000000002" x2="461.9235955792801" y2="101.87889287796474" stroke="black" stroke-width="1" />
  <line x1="461.9235955792801" y1="101.87889287796474" x2="461.9235955792801" y2="111.21009287796477" stroke="black" stroke-width="1" />
  <line x1="461.9235955792801" y1="111.21009287796477" x2="471.25479557928014" y2="111.21009287796477" stroke="black" stroke-width="1" />
  <line x1="471.25479557928014" y1="111.21009287796477" x2="475.21368845724487" y2="107.25120000000004" stroke="black" stroke-width="1" />
  <line x1="475.21368845724487" y1="107.25120000000004" x2="471.25479557928014" y2="111.21009287796477" stroke="black" stroke-width="1" />
  <line x1="471.25479557928014" y1="111.21009287796477" x2="475.21368845724487" y2="115.1689857559295" stroke="black" stroke-width="1" />
  <line x1="475.21368845724487" y1="115.1689857559295" x2="471.25479557928014" y2="111.21009287796477" stroke="black" stroke-width="1" />
  <line x1="471.25479557928014" y1="111.21009287796477" x2="461.9235955792801" y2="111.21009287796477" stroke="black" stroke-width="1" />
  <line x1="461.9235955792801" y1="111.21009287796477" x2="450.92667091826695" y2="122.20701753897794" stroke="black" stroke-width="1" />
  <line x1="450.92667091826695" y1="122.20701753897794" x2="461.9235955792801" y2="133.2039421999911" stroke="black" stroke-width="1" />
  <line x1="461.9235955792801" y1="133.2039421999911" x2="471.25479557928014" y2="133.2039421999911" stroke="black" stroke-width="1" />
  <line x1="471.25479557928014" y1="133.2039421999911" x2="475.21368845724487" y2="129.24504932202638" stroke="black" stroke-width="1" />
  <line x1="475.21368845724487" y1="129.24504932202638" x2="471.25479557928014" y2="133.2039421999911" stroke="black" stroke-width="1" />
  <line x1="471.25479557928014" y1="133.2039421999911" x2="475.21368845724487" y2="137.16283507795583" stroke="black" stroke-width="1" />
  <line x1="475.21368845724487" y1="137.16283507795583" x2="471.25479557928014" y2="133.2039421999911" stroke="black" stroke-width="1" />
  <line x1="471.25479557928014" y1="133.2039421999911" x2="461.9235955792801" y2="133.2039421999911" stroke="black" stroke-width="1" />
  <line x1="461.9235955792801" y1="133.2039421999911" x2="461.9235955792801" y2="142.53514219999113" stroke="black" stroke-width="1" />
  <line x1="461.9235955792801" y1="142.53514219999113" x2="465.8824884572449" y2="146.49403507795586" stroke="black" stroke-width="1" />
  <line x1="465.8824884572449" y1="146.49403507795586" x2="461.9235955792801" y2="142.53514219999113" stroke="black" stroke-width="1" />
  <line x1="461.9235955792801" y1="142.53514219999113" x2="457.9647027013154" y2="146.49403507795586" stroke="black" stroke-width="1" />
  <line x1="457.9647027013154" y1="146.49403507795586" x2="461.9235955792801" y2="142.53514219999113" stroke="black" stroke-width="1" />
  <line x1="461.9235955792801" y1="142.53514219999113" x2="461.9235955792801" y2="133.2039421999911" stroke="black" stroke-width="1" />
  <line x1="461.9235955792801" y1="133.2039421999911" x2="450.92667091826695" y2="122.20701753897794" stroke="black" stroke-width="1" />
  <line x1="450.92667091826695" y1="122.20701753897794" x2="425.006670918267" y2="122.20701753897794" stroke="black" stroke-width="1" />
  <line x1="425.006670918267" y1="122.20701753897794" x2="394.45965797100814" y2="152.7540304862368" stroke="black" stroke-width="1" />
  <line x1="394.45965797100814" y1="152.7540304862368" x2="425.006670918267" y2="183.30104343349564" stroke="black" stroke-width="1" />
  <line x1="425.006670918267" y1="183.30104343349564" x2="450.92667091826695" y2="183.30104343349564" stroke="black" stroke-width="1" />
  <line x1="450.92667091826695" y1="183.30104343349564" x2="461.9235955792801" y2="172.30411877248247" stroke="black" stroke-width="1" />
  <line x1="461.9235955792801" y1="172.30411877248247" x2="461.9235955792801" y2="162.97291877248244" stroke="black" stroke-width="1" />
  <line x1="461.9235955792801" y1="162.97291877248244" x2="457.9647027013154" y2="159.01402589451772" stroke="black" stroke-width="1" />
  <line x1="457.9647027013154" y1="159.01402589451772" x2="461.9235955792801" y2="162.97291877248244" stroke="black" stroke-width="1" />
  <line x1="461.9235955792801" y1="162.97291877248244" x2="465.8824884572449" y2="159.01402589451772" stroke="black" stroke-width="1" />
  <line x1="465.8824884572449" y1="159.01402589451772" x2="461.9235955792801" y2="162.97291877248244" stroke="black" stroke-width="1" />
  <line x1="461.9235955792801" y1="162.97291877248244" x2="461.9235955792801" y2="172.30411877248247" stroke="black" stroke-width="1" />
  <line x1="461.9235955792801" y1="172.30411877248247" x2="471.25479557928014" y2="172.30411877248247" stroke="black" stroke-width="1" />
  <line x1="471.25479557928014" y1="172.30411877248247" x2="475.21368845724487" y2="168.34522589451774" stroke="black" stroke-width="1" />
  <line x1="475.21368845724487" y1="168.34522589451774" x2="471.25479557928014" y2="172.30411877248247" stroke="black" stroke-width="1" />
  <line x1="471.25479557928014" y1="172.30411877248247" x2="475.21368845724487" y2="176.2630116504472" stroke="black" stroke-width="1" />
  <line x1="475.21368845724487" y1="176.2630116504472" x2="471.25479557928014" y2="172.30411877248247" stroke="black" stroke-width="1" />
  <line x1="471.25479557928014" y1="172.30411877248247" x2="461.9235955792801" y2="172.30411877248247" stroke="black" stroke-width="1" />
  <line x1="461.9235955792801" y1="172.30411877248247" x2="450.92667091826695" y2="183.30104343349566" stroke="black" stroke-width="1" />
  <line x1="450.92667091826695" y1="183.30104343349566" x2="461.9235955792801" y2="194.29796809450886" stroke="black" stroke-width="1" />
  <line x1="461.9235955792801" y1="194.29796809450886" x2="471.25479557928014" y2="194.29796809450886" stroke="black" stroke-width="1" />
  <line x1="471.25479557928014" y1="194.29796809450886" x2="475.21368845724487" y2="190.3390752165441" stroke="black" stroke-width="1" />
  <line x1="475.21368845724487" y1="190.3390752165441" x2="471.25479557928014" y2="194.29796809450886" stroke="black" stroke-width="1" />
  <line x1="471.25479557928014" y1="194.29796809450886" x2="475.21368845724487" y2="198.25686097247362" stroke="black" stroke-width="1" />
  <line x1="475.21368845724487" y1="198.25686097247362" x2="471.25479557928014" y2="194.29796809450886" stroke="black" stroke-width="1" />
  <line x1="471.25479557928014" y1="194.29796809450886" x2="461.9235955792801" y2="194.29796809450886" stroke="black" stroke-width="1" />
  <line x1="461.9235955792801" y1="194.29796809450886" x2="461.9235955792801" y2="203.62916809450886" stroke="black" stroke-width="1" />
  <line x1="461.9235955792801" y1="203.62916809450886" x2="465.8824884572449" y2="207.5880609724736" stroke="black" stroke-width="1" />
  <line x1="465.8824884572449" y1="207.5880609724736" x2="461.9235955792801" y2="203.62916809450886" stroke="black" stroke-width="1" />
  <line x1="461.9235955792801" y1="203.62916809450886" x2="457.9647027013154" y2="207.5880609724736" stroke="black" stroke-width="1" />
  <line x1="457.9647027013154" y1="207.5880609724736" x2="461.9235955792801" y2="203.62916809450886" stroke="black" stroke-width="1" />
  <line x1="461.9235955792801" y1="203.62916809450886" x2="461.9235955792801" y2="194.29796809450886" stroke="black" stroke-width="1" />
  <line x1="461.9235955792801" y1="194.29796809450886" x2="450.92667091826695" y2="183.30104343349566" stroke="black" stroke-width="1" />
  <line x1="450.92667091826695" y1="183.30104343349566" x2="425.006670918267" y2="183.30104343349566" stroke="black" stroke-width="1" />
  <line x1="425.006670918267" y1="183.30104343349566" x2="425.006670918267" y2="209.22104343349565" stroke="black" stroke-width="1" />
  <line x1="425.006670918267" y1="209.22104343349565" x2="436.00359557928016" y2="220.21796809450885" stroke="black" stroke-width="1" />
  <line x1="436.00359557928016" y1="220.21796809450885" x2="445.3347955792801" y2="220.21796809450885" stroke="black" stroke-width="1" />
  <line x1="445.3347955792801" y1="220.21796809450885" x2="449.2936884572449" y2="216.2590752165441" stroke="black" stroke-width="1" />
  <line x1="449.2936884572449" y1="216.2590752165441" x2="445.3347955792801" y2="220.21796809450885" stroke="black" stroke-width="1" />
  <line x1="445.3347955792801" y1="220.21796809450885" x2="449.2936884572449" y2="224.1768609724736" stroke="black" stroke-width="1" />
  <line x1="449.2936884572449" y1="224.1768609724736" x2="445.3347955792801" y2="220.21796809450885" stroke="black" stroke-width="1" />
  <line x1="445.3347955792801" y1="220.21796809450885" x2="436.00359557928016" y2="220.21796809450885" stroke="black" stroke-width="1" />
  <line x1="436.00359557928016" y1="220.21796809450885" x2="436.00359557928016" y2="229.54916809450884" stroke="black" stroke-width="1" />
  <line x1="436.00359557928016" y1="229.54916809450884" x2="439.96248845724494" y2="233.5080609724736" stroke="black" stroke-width="1" />
  <line x1="439.96248845724494" y1="233.5080609724736" x2="436.00359557928016" y2="229.54916809450884" stroke="black" stroke-width="1" />
  <line x1="436.00359557928016" y1="229.54916809450884" x2="432.0447027013154" y2="233.5080609724736" stroke="black" stroke-width="1" />
  <line x1="432.0447027013154" y1="233.5080609724736" x2="436.00359557928016" y2="229.54916809450884" stroke="black" stroke-width="1" />
  <line x1="436.00359557928016" y1="229.54916809450884" x2="436.00359557928016" y2="220.21796809450885" stroke="black" stroke-width="1" />
  <line x1="436.00359557928016" y1="220.21796809450885" x2="425.006670918267" y2="209.22104343349565" stroke="black" stroke-width="1" />
  <line x1="425.006670918267" y1="209.22104343349565" x2="414.00974625725377" y2="220.21796809450885" stroke="black" stroke-width="1" />
  <line x1="414.00974625725377" y1="220.21796809450885" x2="414.00974625725377" y2="229.54916809450884" stroke="black" stroke-width="1" />
  <line x1="414.00974625725377" y1="229.54916809450884" x2="417.9686391352185" y2="233.5080609724736" stroke="black" stroke-width="1" />
  <line x1="417.9686391352185" y1="233.5080609724736" x2="414.00974625725377" y2="229.54916809450884" stroke="black" stroke-width="1" />
  <line x1="414.00974625725377" y1="229.54916809450884" x2="410.05085337928904" y2="233.5080609724736" stroke="black" stroke-width="1" />
  <line x1="410.05085337928904" y1="233.5080609724736" x2="414.00974625725377" y2="229.54916809450884" stroke="black" stroke-width="1" />
  <line x1="414.00974625725377" y1="229.54916809450884" x2="414.00974625725377" y2="220.21796809450885" stroke="black" stroke-width="1" />
  <line x1="414.00974625725377" y1="220.21796809450885" x2="404.67854625725374" y2="220.21796809450885" stroke="black" stroke-width="1" />
  <line x1="404.67854625725374" y1="220.21796809450885" x2="400.719653379289" y2="224.1768609724736" stroke="black" stroke-width="1" />
  <line x1="400.719653379289" y1="224.1768609724736" x2="404.67854625725374" y2="220.21796809450885" stroke="black" stroke-width="1" />
  <line x1="404.67854625725374" y1="220.21796809450885" x2="400.719653379289" y2="216.2590752165441" stroke="black" stroke-width="1" />
  <line x1="400.719653379289" y1="216.2590752165441" x2="404.67854625725374" y2="220.21796809450885" stroke="black" stroke-width="1" />
  <line x1="404.67854625725374" y1="220.21796809450885" x2="414.00974625725377" y2="220.21796809450885" stroke="black" stroke-width="1" />
  <line x1="414.00974625725377" y1="220.21796809450885" x2="425.006670918267" y2="209.22104343349565" stroke="black" stroke-width="1" />
  <line x1="425.006670918267" y1="209.22104343349565" x2="425.006670918267" y2="183.30104343349566" stroke="black" stroke-width="1" />
  <line x1="425.006670918267" y1="183.30104343349566" x2="394.45965797100814" y2="152.7540304862368" stroke="black" stroke-width="1" />
  <line x1="394.45965797100814" y1="152.7540304862368" x2="322.45965797100814" y2="152.7540304862368" stroke="black" stroke-width="1" />
  <line x1="322.45965797100814" y1="152.7540304862368" x2="237.60684422862238" y2="237.6068442286225" stroke="black" stroke-width="1" />
  <line x1="237.60684422862238" y1="237.6068442286225" x2="237.60684422862235" y2="437.6068442286225" stroke="black" stroke-width="1" />
</svg>
