<?xml version="1.0" encoding="UTF-8" ?>
<svg xmlns="http://www.w3.org/2000/svg" version="1.1" width="710.1408311032397" height="610.0">
  <line x1="34.64101615137755" y1="610.0" x2="51.96152422706632" y2="600.0" stroke="black" stroke-width="1" />
  <line x1="17.320508075688775" y1="600.0" x2="34.64101615137755" y2="610.0" stroke="black" stroke-width="1" />
  <line x1="17.320508075688775" y1="580.0" x2="17.320508075688775" y2="600.0" stroke="black" stroke-width="1" />
  <line x1="51.96152422706632" y1="600.0" x2="51.96152422706632" y2="580.0" stroke="black" stroke-width="1" />
  <line x1="34.64101615137755" y1="570.0" x2="17.320508075688775" y2="580.0" stroke="black" stroke-width="1" />
  <line x1="17.320508075688775" y1="540.0" x2="0.0" y2="550.0" stroke="black" stroke-width="1" />
  <line x1="0.0" y1="550.0" x2="0.0" y2="570.0" stroke="black" stroke-width="1" />
  <line x1="0.0" y1="570.0" x2="17.320508075688775" y2="580.0" stroke="black" stroke-width="1" />
  <line x1="34.64101615137755" y1="570.0" x2="34.64101615137755" y2="550.0" stroke="black" stroke-width="1" />
  <line x1="17.320508075688775" y1="540.0" x2="0.0" y2="550.0" stroke="black" stroke-width="1" />
  <line x1="17.320508075688775" y1="520.0" x2="17.320508075688775" y2="540.0" stroke="black" stroke-width="1" />
  <line x1="51.96152422706632" y1="540.0" x2="51.96152422706632" y2="520.0" stroke="black" stroke-width="1" />
  <line x1="34.64101615137755" y1="510.0" x2="17.320508075688775" y2="520.0" stroke="black" stroke-width="1" />
  <line x1="17.320508075688775" y1="480.0" x2="0.0" y2="490.0" stroke="black" stroke-width="1" />
  <line x1="0.0" y1="490.0" x2="0.0" y2="510.0" stroke="black" stroke-width="1" />
  <line x1="0.0" y1="510.0" x2="17.320508075688775" y2="520.0" stroke="black" stroke-width="1" />
  <line x1="34.64101615137755" y1="510.0" x2="34.64101615137755" y2="490.0" stroke="black" stroke-width="1" />
  <line x1="17.320508075688775" y1="480.0" x2="0.0" y2="490.0" stroke="black" stroke-width="1" />
  <line x1="17.320508075688775" y1="460.0" x2="17.320508075688775" y2="480.0" stroke="black" stroke-width="1" />
  <line x1="51.96152422706632" y1="480.0" x2="51.96152422706632" y2="460.0" stroke="black" stroke-width="1" />
  <line x1="17.320508075688775" y1="420.0" x2="0.0" y2="430.0" stroke="black" stroke-width="1" />
  <line x1="0.0" y1="430.0" x2="0.0" y2="450.0" stroke="black" stroke-width="1" />
  <line x1="0.0" y1="450.0" x2="17.320508075688775" y2="460.0" stroke="black" stroke-width="1" />
  <line x1="34.64101615137755" y1="450.0" x2="34.64101615137755" y2="430.0" stroke="black" stroke-width="1" />
  <line x1="34.64101615137755" y1="430.0" x2="17.320508075688775" y2="420.0" stroke="black" stroke-width="1" />
  <line x1="17.320508075688775" y1="420.0" x2="0.0" y2="430.0" stroke="black" stroke-width="1" />
  <line x1="17.320508075688775" y1="400.0" x2="17.320508075688775" y2="420.0" stroke="black" stroke-width="1" />
  <line x1="51.96152422706632" y1="400.0" x2="34.64101615137755" y2="390.0" stroke="black" stroke-width="1" />
  <line x1="17.320508075688775" y1="360.0" x2="0.0" y2="370.0" stroke="black" stroke-width="1" />
  <line x1="0.0" y1="370.0" x2="0.0" y2="390.0" stroke="black" stroke-width="1" />
  <line x1="0.0" y1="390.0" x2="17.320508075688775" y2="400.0" stroke="black" stroke-width="1" />
  <line x1="34.64101615137755" y1="370.0" x2="17.320508075688775" y2="360.0" stroke="black" stroke-width="1" />
  <line x1="17.320508075688775" y1="360.0" x2="0.0" y2="370.0" stroke="black" stroke-width="1" />
  <line x1="17.320508075688775" y1="340.0" x2="17.320508075688775" y2="360.0" stroke="black" stroke-width="1" />
  <line x1="51.96152422706632" y1="360.0" x2="51.96152422706632" y2="340.0" stroke="black" stroke-width="1" />
  <line x1="17.320508075688775" y1="300.0" x2="0.0" y2="310.0" stroke="black" stroke-width="1" />
  <line x1="0.0" y1="310.0" x2="0.0" y2="330.0" stroke="black" stroke-width="1" />
  <line x1="0.0" y1="330.0" x2="17.320508075688775" y2="340.0" stroke="black" stroke-width="1" />
  <line x1="34.64101615137755" y1="330.0" x2="34.64101615137755" y2="310.0" stroke="black" stroke-width="1" />
  <line x1="34.64101615137755" y1="310.0" x2="17.320508075688775" y2="300.0" stroke="black" stroke-width="1" />
  <line x1="17.320508075688775" y1="300.0" x2="0.0" y2="310.0" stroke="black" stroke-width="1" />
  <line x1="17.320508075688775" y1="280.0" x2="17.320508075688775" y2="300.0" stroke="black" stroke-width="1" />
  <line x1="51.96152422706632" y1="300.0" x2="51.96152422706632" y2="280.0" stroke="black" stroke-width="1" />
  <line x1="51.96152422706632" y1="280.0" x2="34.64101615137755" y2="270.0" stroke="black" stroke-width="1" />
  <line x1="17.320508075688775" y1="240.0" x2="0.0" y2="250.0" stroke="black" stroke-width="1" />
  <line x1="0.0" y1="250.0" x2="0.0" y2="270.0" stroke="black" stroke-width="1" />
  <line x1="0.0" y1="270.0" x2="17.320508075688775" y2="280.0" stroke="black" stroke-width="1" />
  <line x1="34.64101615137755" y1="270.0" x2="34.64101615137755" y2="250.0" stroke="black" stroke-width="1" />
  <line x1="17.320508075688775" y1="240.0" x2="0.0" y2="250.0" stroke="black" stroke-width="1" />
  <line x1="17.320508075688775" y1="220.0" x2="17.320508075688775" y2="240.0" stroke="black" stroke-width="1" />
  <line x1="51.96152422706632" y1="240.0" x2="51.96152422706632" y2="220.0" stroke="black" stroke-width="1" />
  <line x1="51.96152422706632" y1="220.0" x2="34.64101615137755" y2="210.0" stroke="black" stroke-width="1" />
  <line x1="17.320508075688775" y1="180.0" x2="0.0" y2="190.0" stroke="black" stroke-width="1" />
  <line x1="0.0" y1="190.0" x2="0.0" y2="210.0" stroke="black" stroke-width="1" />
  <line x1="0.0" y1="210.0" x2="17.320508075688775" y2="220.0" stroke="black" stroke-width="1" />
  <line x1="34.64101615137755" y1="210.0" x2="34.64101615137755" y2="190.0" stroke="black" stroke-width="1" />
  <line x1="17.320508075688775" y1="180.0" x2="0.0" y2="190.0" stroke="black" stroke-width="1" />
  <line x1="17.320508075688775" y1="160.0" x2="17.320508075688775" y2="180.0" stroke="black" stroke-width="1" />
  <line x1="51.96152422706632" y1="180.0" x2="51.96152422706632" y2="160.0" stroke="black" stroke-width="1" />
  <line x1="51.96152422706632" y1="160.0" x2="34.64101615137755" y2="150.0" stroke="black" stroke-width="1" />
  <line x1="17.320508075688775" y1="120.0" x2="0.0" y2="130.0" stroke="black" stroke-width="1" />
  <line x1="0.0" y1="130.0" x2="0.0" y2="150.0" stroke="black" stroke-width="1" />
  <line x1="0.0" y1="150.0" x2="17.320508075688775" y2="160.0" stroke="black" stroke-width="1" />
  <line x1="34.64101615137755" y1="130.0" x2="17.320508075688775" y2="120.0" stroke="black" stroke-width="1" />
  <line x1="17.320508075688775" y1="120.0" x2="0.0" y2="130.0" stroke="black" stroke-width="1" />
  <line x1="17.320508075688775" y1="100.0" x2="17.320508075688775" y2="120.0" stroke="black" stroke-width="1" />
  <line x1="51.96152422706632" y1="120.0" x2="51.96152422706632" y2="100.0" stroke="black" stroke-width="1" />
  <line x1="51.96152422706632" y1="100.0" x2="34.64101615137755" y2="90.0" stroke="black" stroke-width="1" />
  <line x1="17.320508075688775" y1="60.0" x2="0.0" y2="70.0" stroke="black" stroke-width="1" />
  <line x1="0.0" y1="70.0" x2="0.0" y2="90.0" stroke="black" stroke-width="1" />
  <line x1="0.0" y1="90.0" x2="17.320508075688775" y2="100.0" stroke="black" stroke-width="1" />
  <line x1="34.64101615137755" y1="90.0" x2="34.64101615137755" y2="70.0" stroke="black" stroke-width="1" />
  <line x1="34.64101615137755" y1="70.0" x2="17.320508075688775" y2="60.0" stroke="black" stroke-width="1" />
  <line x1="17.320508075688775" y1="60.0" x2="0.0" y2="70.0" stroke="black" stroke-width="1" />
  <line x1="17.320508075688775" y1="40.0" x2="17.320508075688775" y2="60.0" stroke="black" stroke-width="1" />
  <line x1="34.64101615137755" y1="10.0" x2="17.320508075688775" y2="0.0" stroke="black" stroke-width="1" />
  <line x1="17.320508075688775" y1="0.0" x2="0.0" y2="10.0" stroke="black" stroke-width="1" />
  <line x1="17.320508075688775" y1="0.0" x2="0.0" y2="10.0" stroke="black" stroke-width="1" />
  <line x1="0.0" y1="10.0" x2="0.0" y2="30.0" stroke="black" stroke-width="1" />
  <line x1="0.0" y1="30.0" x2="17.320508075688775" y2="40.0" stroke="black" stroke-width="1" />
  <line x1="34.64101615137755" y1="30.0" x2="34.64101615137755" y2="10.0" stroke="black" stroke-width="1" />
  <line x1="69.2820323027551" y1="610.0" x2="86.60254037844388" y2="600.0" stroke="black" stroke-width="1" />
  <line x1="51.96152422706632" y1="600.0" x2="69.2820323027551" y2="610.0" stroke="black" stroke-width="1" />
  <line x1="69.2820323027551" y1="570.0" x2="51.96152422706632" y2="580.0" stroke="black" stroke-width="1" />
  <line x1="69.2820323027551" y1="570.0" x2="69.2820323027551" y2="550.0" stroke="black" stroke-width="1" />
  <line x1="69.2820323027551" y1="550.0" x2="51.96152422706632" y2="540.0" stroke="black" stroke-width="1" />
  <line x1="86.60254037844388" y1="540.0" x2="86.60254037844388" y2="520.0" stroke="black" stroke-width="1" />
  <line x1="69.2820323027551" y1="510.0" x2="51.96152422706632" y2="520.0" stroke="black" stroke-width="1" />
  <line x1="86.60254037844388" y1="520.0" x2="69.2820323027551" y2="510.0" stroke="black" stroke-width="1" />
  <line x1="69.2820323027551" y1="490.0" x2="51.96152422706632" y2="480.0" stroke="black" stroke-width="1" />
  <line x1="51.96152422706632" y1="480.0" x2="34.64101615137755" y2="490.0" stroke="black" stroke-width="1" />
  <line x1="69.2820323027551" y1="450.0" x2="51.96152422706632" y2="460.0" stroke="black" stroke-width="1" />
  <line x1="69.2820323027551" y1="450.0" x2="69.2820323027551" y2="430.0" stroke="black" stroke-width="1" />
  <line x1="51.96152422706632" y1="420.0" x2="34.64101615137755" y2="430.0" stroke="black" stroke-width="1" />
  <line x1="86.60254037844388" y1="420.0" x2="86.60254037844388" y2="400.0" stroke="black" stroke-width="1" />
  <line x1="69.2820323027551" y1="390.0" x2="51.96152422706632" y2="400.0" stroke="black" stroke-width="1" />
  <line x1="69.2820323027551" y1="390.0" x2="69.2820323027551" y2="370.0" stroke="black" stroke-width="1" />
  <line x1="69.2820323027551" y1="370.0" x2="51.96152422706632" y2="360.0" stroke="black" stroke-width="1" />
  <line x1="86.60254037844388" y1="360.0" x2="86.60254037844388" y2="340.0" stroke="black" stroke-width="1" />
  <line x1="69.2820323027551" y1="330.0" x2="51.96152422706632" y2="340.0" stroke="black" stroke-width="1" />
  <line x1="69.2820323027551" y1="330.0" x2="69.2820323027551" y2="310.0" stroke="black" stroke-width="1" />
  <line x1="69.2820323027551" y1="310.0" x2="51.96152422706632" y2="300.0" stroke="black" stroke-width="1" />
  <line x1="86.60254037844388" y1="300.0" x2="86.60254037844388" y2="280.0" stroke="black" stroke-width="1" />
  <line x1="69.2820323027551" y1="270.0" x2="51.96152422706632" y2="280.0" stroke="black" stroke-width="1" />
  <line x1="69.2820323027551" y1="270.0" x2="69.2820323027551" y2="250.0" stroke="black" stroke-width="1" />
  <line x1="86.60254037844388" y1="240.0" x2="86.60254037844388" y2="220.0" stroke="black" stroke-width="1" />
  <line x1="86.60254037844388" y1="220.0" x2="69.2820323027551" y2="210.0" stroke="black" stroke-width="1" />
  <line x1="69.2820323027551" y1="210.0" x2="69.2820323027551" y2="190.0" stroke="black" stroke-width="1" />
  <line x1="51.96152422706632" y1="180.0" x2="34.64101615137755" y2="190.0" stroke="black" stroke-width="1" />
  <line x1="86.60254037844388" y1="180.0" x2="86.60254037844388" y2="160.0" stroke="black" stroke-width="1" />
  <line x1="69.2820323027551" y1="150.0" x2="51.96152422706632" y2="160.0" stroke="black" stroke-width="1" />
  <line x1="69.2820323027551" y1="150.0" x2="69.2820323027551" y2="130.0" stroke="black" stroke-width="1" />
  <line x1="69.2820323027551" y1="130.0" x2="51.96152422706632" y2="120.0" stroke="black" stroke-width="1" />
  <line x1="86.60254037844388" y1="120.0" x2="86.60254037844388" y2="100.0" stroke="black" stroke-width="1" />
  <line x1="86.60254037844388" y1="100.0" x2="69.2820323027551" y2="90.0" stroke="black" stroke-width="1" />
  <line x1="69.2820323027551" y1="70.0" x2="51.96152422706632" y2="60.0" stroke="black" stroke-width="1" />
  <line x1="51.96152422706632" y1="60.0" x2="34.64101615137755" y2="70.0" stroke="black" stroke-width="1" />
  <line x1="69.2820323027551" y1="30.0" x2="51.96152422706632" y2="40.0" stroke="black" stroke-width="1" />
  <line x1="86.60254037844388" y1="40.0" x2="69.2820323027551" y2="30.0" stroke="black" stroke-width="1" />
  <line x1="69.2820323027551" y1="10.0" x2="51.96152422706632" y2="0.0" stroke="black" stroke-width="1" />
  <line x1="51.96152422706632" y1="0.0" x2="34.64101615137755" y2="10.0" stroke="black" stroke-width="1" />
  <line x1="103.92304845413264" y1="610.0" x2="121.24355652982143" y2="600.0" stroke="black" stroke-width="1" />
  <line x1="86.60254037844388" y1="600.0" x2="103.92304845413264" y2="610.0" stroke="black" stroke-width="1" />
  <line x1="103.92304845413264" y1="570.0" x2="86.60254037844388" y2="580.0" stroke="black" stroke-width="1" />
  <line x1="121.24355652982143" y1="580.0" x2="103.92304845413264" y2="570.0" stroke="black" stroke-width="1" />
  <line x1="103.92304845413264" y1="550.0" x2="86.60254037844388" y2="540.0" stroke="black" stroke-width="1" />
  <line x1="121.24355652982143" y1="540.0" x2="121.24355652982143" y2="520.0" stroke="black" stroke-width="1" />
  <line x1="121.24355652982143" y1="520.0" x2="103.92304845413264" y2="510.0" stroke="black" stroke-width="1" />
  <line x1="103.92304845413264" y1="510.0" x2="103.92304845413264" y2="490.0" stroke="black" stroke-width="1" />
  <line x1="103.92304845413264" y1="490.0" x2="86.60254037844388" y2="480.0" stroke="black" stroke-width="1" />
  <line x1="86.60254037844388" y1="480.0" x2="69.28203230275508" y2="490.0" stroke="black" stroke-width="1" />
  <line x1="121.24355652982143" y1="480.0" x2="121.24355652982143" y2="460.0" stroke="black" stroke-width="1" />
  <line x1="103.92304845413264" y1="450.0" x2="86.60254037844388" y2="460.0" stroke="black" stroke-width="1" />
  <line x1="121.24355652982143" y1="460.0" x2="103.92304845413264" y2="450.0" stroke="black" stroke-width="1" />
  <line x1="103.92304845413264" y1="450.0" x2="103.92304845413264" y2="430.0" stroke="black" stroke-width="1" />
  <line x1="86.60254037844388" y1="420.0" x2="69.28203230275508" y2="430.0" stroke="black" stroke-width="1" />
  <line x1="121.24355652982143" y1="420.0" x2="121.24355652982143" y2="400.0" stroke="black" stroke-width="1" />
  <line x1="103.92304845413264" y1="390.0" x2="86.60254037844388" y2="400.0" stroke="black" stroke-width="1" />
  <line x1="121.24355652982143" y1="400.0" x2="103.92304845413264" y2="390.0" stroke="black" stroke-width="1" />
  <line x1="103.92304845413264" y1="390.0" x2="103.92304845413264" y2="370.0" stroke="black" stroke-width="1" />
  <line x1="103.92304845413264" y1="370.0" x2="86.60254037844388" y2="360.0" stroke="black" stroke-width="1" />
  <line x1="121.24355652982143" y1="360.0" x2="121.24355652982143" y2="340.0" stroke="black" stroke-width="1" />
  <line x1="103.92304845413264" y1="330.0" x2="86.60254037844388" y2="340.0" stroke="black" stroke-width="1" />
  <line x1="103.92304845413264" y1="330.0" x2="103.92304845413264" y2="310.0" stroke="black" stroke-width="1" />
  <line x1="103.92304845413264" y1="310.0" x2="86.60254037844388" y2="300.0" stroke="black" stroke-width="1" />
  <line x1="103.92304845413264" y1="270.0" x2="86.60254037844388" y2="280.0" stroke="black" stroke-width="1" />
  <line x1="121.24355652982143" y1="280.0" x2="103.92304845413264" y2="270.0" stroke="black" stroke-width="1" />
  <line x1="103.92304845413264" y1="250.0" x2="86.60254037844388" y2="240.0" stroke="black" stroke-width="1" />
  <line x1="86.60254037844388" y1="240.0" x2="69.28203230275508" y2="250.0" stroke="black" stroke-width="1" />
  <line x1="121.24355652982143" y1="240.0" x2="121.24355652982143" y2="220.0" stroke="black" stroke-width="1" />
  <line x1="103.92304845413264" y1="210.0" x2="86.60254037844388" y2="220.0" stroke="black" stroke-width="1" />
  <line x1="103.92304845413264" y1="210.0" x2="103.92304845413264" y2="190.0" stroke="black" stroke-width="1" />
  <line x1="86.60254037844388" y1="180.0" x2="69.28203230275508" y2="190.0" stroke="black" stroke-width="1" />
  <line x1="103.92304845413264" y1="150.0" x2="86.60254037844388" y2="160.0" stroke="black" stroke-width="1" />
  <line x1="103.92304845413264" y1="150.0" x2="103.92304845413264" y2="130.0" stroke="black" stroke-width="1" />
  <line x1="103.92304845413264" y1="130.0" x2="86.60254037844388" y2="120.0" stroke="black" stroke-width="1" />
  <line x1="103.92304845413264" y1="90.0" x2="86.60254037844388" y2="100.0" stroke="black" stroke-width="1" />
  <line x1="121.24355652982143" y1="100.0" x2="103.92304845413264" y2="90.0" stroke="black" stroke-width="1" />
  <line x1="103.92304845413264" y1="70.0" x2="86.60254037844388" y2="60.0" stroke="black" stroke-width="1" />
  <line x1="86.60254037844388" y1="60.0" x2="69.28203230275508" y2="70.0" stroke="black" stroke-width="1" />
  <line x1="121.24355652982143" y1="60.0" x2="121.24355652982143" y2="40.0" stroke="black" stroke-width="1" />
  <line x1="103.92304845413264" y1="30.0" x2="86.60254037844388" y2="40.0" stroke="black" stroke-width="1" />
  <line x1="121.24355652982143" y1="40.0" x2="103.92304845413264" y2="30.0" stroke="black" stroke-width="1" />
  <line x1="103.92304845413264" y1="10.0" x2="86.60254037844388" y2="0.0" stroke="black" stroke-width="1" />
  <line x1="86.60254037844388" y1="0.0" x2="69.28203230275508" y2="10.0" stroke="black" stroke-width="1" />
  <line x1="138.5640646055102" y1="610.0" x2="155.88457268119896" y2="600.0" stroke="black" stroke-width="1" />
  <line x1="121.2435565298214" y1="600.0" x2="138.5640646055102" y2="610.0" stroke="black" stroke-width="1" />
  <line x1="155.88457268119896" y1="600.0" x2="155.88457268119896" y2="580.0" stroke="black" stroke-width="1" />
  <line x1="138.5640646055102" y1="570.0" x2="121.2435565298214" y2="580.0" stroke="black" stroke-width="1" />
  <line x1="138.5640646055102" y1="570.0" x2="138.5640646055102" y2="550.0" stroke="black" stroke-width="1" />
  <line x1="138.5640646055102" y1="550.0" x2="121.2435565298214" y2="540.0" stroke="black" stroke-width="1" />
  <line x1="155.88457268119896" y1="540.0" x2="155.88457268119896" y2="520.0" stroke="black" stroke-width="1" />
  <line x1="155.88457268119896" y1="520.0" x2="138.5640646055102" y2="510.0" stroke="black" stroke-width="1" />
  <line x1="138.5640646055102" y1="510.0" x2="138.5640646055102" y2="490.0" stroke="black" stroke-width="1" />
  <line x1="138.5640646055102" y1="490.0" x2="121.2435565298214" y2="480.0" stroke="black" stroke-width="1" />
  <line x1="155.88457268119896" y1="480.0" x2="155.88457268119896" y2="460.0" stroke="black" stroke-width="1" />
  <line x1="138.5640646055102" y1="450.0" x2="121.2435565298214" y2="460.0" stroke="black" stroke-width="1" />
  <line x1="138.5640646055102" y1="450.0" x2="138.5640646055102" y2="430.0" stroke="black" stroke-width="1" />
  <line x1="155.88457268119896" y1="420.0" x2="155.88457268119896" y2="400.0" stroke="black" stroke-width="1" />
  <line x1="155.88457268119896" y1="400.0" x2="138.5640646055102" y2="390.0" stroke="black" stroke-width="1" />
  <line x1="138.5640646055102" y1="390.0" x2="138.5640646055102" y2="370.0" stroke="black" stroke-width="1" />
  <line x1="138.5640646055102" y1="370.0" x2="121.2435565298214" y2="360.0" stroke="black" stroke-width="1" />
  <line x1="138.5640646055102" y1="330.0" x2="121.2435565298214" y2="340.0" stroke="black" stroke-width="1" />
  <line x1="155.88457268119896" y1="340.0" x2="138.5640646055102" y2="330.0" stroke="black" stroke-width="1" />
  <line x1="138.5640646055102" y1="330.0" x2="138.5640646055102" y2="310.0" stroke="black" stroke-width="1" />
  <line x1="138.5640646055102" y1="310.0" x2="121.2435565298214" y2="300.0" stroke="black" stroke-width="1" />
  <line x1="138.5640646055102" y1="270.0" x2="121.2435565298214" y2="280.0" stroke="black" stroke-width="1" />
  <line x1="155.88457268119896" y1="280.0" x2="138.5640646055102" y2="270.0" stroke="black" stroke-width="1" />
  <line x1="138.5640646055102" y1="270.0" x2="138.5640646055102" y2="250.0" stroke="black" stroke-width="1" />
  <line x1="138.5640646055102" y1="250.0" x2="121.2435565298214" y2="240.0" stroke="black" stroke-width="1" />
  <line x1="138.5640646055102" y1="210.0" x2="121.2435565298214" y2="220.0" stroke="black" stroke-width="1" />
  <line x1="155.88457268119896" y1="220.0" x2="138.5640646055102" y2="210.0" stroke="black" stroke-width="1" />
  <line x1="138.5640646055102" y1="210.0" x2="138.5640646055102" y2="190.0" stroke="black" stroke-width="1" />
  <line x1="121.2435565298214" y1="180.0" x2="103.92304845413264" y2="190.0" stroke="black" stroke-width="1" />
  <line x1="155.88457268119896" y1="180.0" x2="155.88457268119896" y2="160.0" stroke="black" stroke-width="1" />
  <line x1="138.5640646055102" y1="150.0" x2="121.2435565298214" y2="160.0" stroke="black" stroke-width="1" />
  <line x1="155.88457268119896" y1="160.0" x2="138.5640646055102" y2="150.0" stroke="black" stroke-width="1" />
  <line x1="138.5640646055102" y1="150.0" x2="138.5640646055102" y2="130.0" stroke="black" stroke-width="1" />
  <line x1="121.2435565298214" y1="120.0" x2="103.92304845413264" y2="130.0" stroke="black" stroke-width="1" />
  <line x1="155.88457268119896" y1="120.0" x2="155.88457268119896" y2="100.0" stroke="black" stroke-width="1" />
  <line x1="138.5640646055102" y1="90.0" x2="121.2435565298214" y2="100.0" stroke="black" stroke-width="1" />
  <line x1="138.5640646055102" y1="90.0" x2="138.5640646055102" y2="70.0" stroke="black" stroke-width="1" />
  <line x1="138.5640646055102" y1="70.0" x2="121.2435565298214" y2="60.0" stroke="black" stroke-width="1" />
  <line x1="138.5640646055102" y1="30.0" x2="121.2435565298214" y2="40.0" stroke="black" stroke-width="1" />
  <line x1="138.5640646055102" y1="10.0" x2="121.2435565298214" y2="0.0" stroke="black" stroke-width="1" />
  <line x1="121.2435565298214" y1="0.0" x2="103.92304845413264" y2="10.0" stroke="black" stroke-width="1" />
  <line x1="173.20508075688775" y1="610.0" x2="190.52558883257652" y2="600.0" stroke="black" stroke-width="1" />
  <line x1="155.88457268119896" y1="600.0" x2="173.20508075688775" y2="610.0" stroke="black" stroke-width="1" />
  <line x1="173.20508075688775" y1="570.0" x2="155.88457268119896" y2="580.0" stroke="black" stroke-width="1" />
  <line x1="173.20508075688775" y1="570.0" x2="173.20508075688775" y2="550.0" stroke="black" stroke-width="1" />
  <line x1="173.20508075688775" y1="550.0" x2="155.88457268119896" y2="540.0" stroke="black" stroke-width="1" />
  <line x1="190.52558883257652" y1="540.0" x2="190.52558883257652" y2="520.0" stroke="black" stroke-width="1" />
  <line x1="190.52558883257652" y1="520.0" x2="173.20508075688775" y2="510.0" stroke="black" stroke-width="1" />
  <line x1="173.20508075688775" y1="510.0" x2="173.20508075688775" y2="490.0" stroke="black" stroke-width="1" />
  <line x1="173.20508075688775" y1="450.0" x2="155.88457268119896" y2="460.0" stroke="black" stroke-width="1" />
  <line x1="190.52558883257652" y1="460.0" x2="173.20508075688775" y2="450.0" stroke="black" stroke-width="1" />
  <line x1="173.20508075688775" y1="430.0" x2="155.88457268119896" y2="420.0" stroke="black" stroke-width="1" />
  <line x1="155.88457268119896" y1="420.0" x2="138.5640646055102" y2="430.0" stroke="black" stroke-width="1" />
  <line x1="173.20508075688775" y1="390.0" x2="155.88457268119896" y2="400.0" stroke="black" stroke-width="1" />
  <line x1="173.20508075688775" y1="370.0" x2="155.88457268119896" y2="360.0" stroke="black" stroke-width="1" />
  <line x1="190.52558883257652" y1="360.0" x2="190.52558883257652" y2="340.0" stroke="black" stroke-width="1" />
  <line x1="173.20508075688775" y1="330.0" x2="155.88457268119896" y2="340.0" stroke="black" stroke-width="1" />
  <line x1="173.20508075688775" y1="310.0" x2="155.88457268119896" y2="300.0" stroke="black" stroke-width="1" />
  <line x1="155.88457268119896" y1="300.0" x2="138.5640646055102" y2="310.0" stroke="black" stroke-width="1" />
  <line x1="190.52558883257652" y1="300.0" x2="190.52558883257652" y2="280.0" stroke="black" stroke-width="1" />
  <line x1="190.52558883257652" y1="280.0" x2="173.20508075688775" y2="270.0" stroke="black" stroke-width="1" />
  <line x1="173.20508075688775" y1="270.0" x2="173.20508075688775" y2="250.0" stroke="black" stroke-width="1" />
  <line x1="173.20508075688775" y1="250.0" x2="155.88457268119896" y2="240.0" stroke="black" stroke-width="1" />
  <line x1="190.52558883257652" y1="240.0" x2="190.52558883257652" y2="220.0" stroke="black" stroke-width="1" />
  <line x1="173.20508075688775" y1="210.0" x2="155.88457268119896" y2="220.0" stroke="black" stroke-width="1" />
  <line x1="173.20508075688775" y1="210.0" x2="173.20508075688775" y2="190.0" stroke="black" stroke-width="1" />
  <line x1="155.88457268119896" y1="180.0" x2="138.5640646055102" y2="190.0" stroke="black" stroke-width="1" />
  <line x1="190.52558883257652" y1="180.0" x2="190.52558883257652" y2="160.0" stroke="black" stroke-width="1" />
  <line x1="190.52558883257652" y1="160.0" x2="173.20508075688775" y2="150.0" stroke="black" stroke-width="1" />
  <line x1="173.20508075688775" y1="150.0" x2="173.20508075688775" y2="130.0" stroke="black" stroke-width="1" />
  <line x1="173.20508075688775" y1="130.0" x2="155.88457268119896" y2="120.0" stroke="black" stroke-width="1" />
  <line x1="190.52558883257652" y1="120.0" x2="190.52558883257652" y2="100.0" stroke="black" stroke-width="1" />
  <line x1="173.20508075688775" y1="90.0" x2="155.88457268119896" y2="100.0" stroke="black" stroke-width="1" />
  <line x1="173.20508075688775" y1="90.0" x2="173.20508075688775" y2="70.0" stroke="black" stroke-width="1" />
  <line x1="173.20508075688775" y1="70.0" x2="155.88457268119896" y2="60.0" stroke="black" stroke-width="1" />
  <line x1="155.88457268119896" y1="60.0" x2="138.5640646055102" y2="70.0" stroke="black" stroke-width="1" />
  <line x1="190.52558883257652" y1="60.0" x2="190.52558883257652" y2="40.0" stroke="black" stroke-width="1" />
  <line x1="173.20508075688775" y1="30.0" x2="155.88457268119896" y2="40.0" stroke="black" stroke-width="1" />
  <line x1="173.20508075688775" y1="10.0" x2="155.88457268119896" y2="0.0" stroke="black" stroke-width="1" />
  <line x1="155.88457268119896" y1="0.0" x2="138.5640646055102" y2="10.0" stroke="black" stroke-width="1" />
  <line x1="173.20508075688775" y1="30.0" x2="173.20508075688775" y2="10.0" stroke="black" stroke-width="1" />
  <line x1="207.8460969082653" y1="610.0" x2="225.16660498395407" y2="600.0" stroke="black" stroke-width="1" />
  <line x1="190.52558883257655" y1="600.0" x2="207.8460969082653" y2="610.0" stroke="black" stroke-width="1" />
  <line x1="207.8460969082653" y1="570.0" x2="190.52558883257655" y2="580.0" stroke="black" stroke-width="1" />
  <line x1="225.16660498395407" y1="580.0" x2="207.8460969082653" y2="570.0" stroke="black" stroke-width="1" />
  <line x1="207.8460969082653" y1="570.0" x2="207.8460969082653" y2="550.0" stroke="black" stroke-width="1" />
  <line x1="190.52558883257655" y1="540.0" x2="173.20508075688778" y2="550.0" stroke="black" stroke-width="1" />
  <line x1="225.16660498395407" y1="540.0" x2="225.16660498395407" y2="520.0" stroke="black" stroke-width="1" />
  <line x1="225.16660498395407" y1="520.0" x2="207.8460969082653" y2="510.0" stroke="black" stroke-width="1" />
  <line x1="207.8460969082653" y1="490.0" x2="190.52558883257655" y2="480.0" stroke="black" stroke-width="1" />
  <line x1="190.52558883257655" y1="480.0" x2="173.20508075688778" y2="490.0" stroke="black" stroke-width="1" />
  <line x1="225.16660498395407" y1="480.0" x2="225.16660498395407" y2="460.0" stroke="black" stroke-width="1" />
  <line x1="207.8460969082653" y1="450.0" x2="190.52558883257655" y2="460.0" stroke="black" stroke-width="1" />
  <line x1="225.16660498395407" y1="460.0" x2="207.8460969082653" y2="450.0" stroke="black" stroke-width="1" />
  <line x1="207.8460969082653" y1="450.0" x2="207.8460969082653" y2="430.0" stroke="black" stroke-width="1" />
  <line x1="190.52558883257655" y1="420.0" x2="173.20508075688778" y2="430.0" stroke="black" stroke-width="1" />
  <line x1="207.8460969082653" y1="390.0" x2="190.52558883257655" y2="400.0" stroke="black" stroke-width="1" />
  <line x1="225.16660498395407" y1="400.0" x2="207.8460969082653" y2="390.0" stroke="black" stroke-width="1" />
  <line x1="207.8460969082653" y1="390.0" x2="207.8460969082653" y2="370.0" stroke="black" stroke-width="1" />
  <line x1="207.8460969082653" y1="370.0" x2="190.52558883257655" y2="360.0" stroke="black" stroke-width="1" />
  <line x1="190.52558883257655" y1="360.0" x2="173.20508075688778" y2="370.0" stroke="black" stroke-width="1" />
  <line x1="225.16660498395407" y1="360.0" x2="225.16660498395407" y2="340.0" stroke="black" stroke-width="1" />
  <line x1="207.8460969082653" y1="330.0" x2="190.52558883257655" y2="340.0" stroke="black" stroke-width="1" />
  <line x1="207.8460969082653" y1="330.0" x2="207.8460969082653" y2="310.0" stroke="black" stroke-width="1" />
  <line x1="190.52558883257655" y1="300.0" x2="173.20508075688778" y2="310.0" stroke="black" stroke-width="1" />
  <line x1="225.16660498395407" y1="300.0" x2="225.16660498395407" y2="280.0" stroke="black" stroke-width="1" />
  <line x1="207.8460969082653" y1="270.0" x2="190.52558883257655" y2="280.0" stroke="black" stroke-width="1" />
  <line x1="207.8460969082653" y1="270.0" x2="207.8460969082653" y2="250.0" stroke="black" stroke-width="1" />
  <line x1="190.52558883257655" y1="240.0" x2="173.20508075688778" y2="250.0" stroke="black" stroke-width="1" />
  <line x1="207.8460969082653" y1="210.0" x2="190.52558883257655" y2="220.0" stroke="black" stroke-width="1" />
  <line x1="207.8460969082653" y1="210.0" x2="207.8460969082653" y2="190.0" stroke="black" stroke-width="1" />
  <line x1="190.52558883257655" y1="180.0" x2="173.20508075688778" y2="190.0" stroke="black" stroke-width="1" />
  <line x1="225.16660498395407" y1="180.0" x2="225.16660498395407" y2="160.0" stroke="black" stroke-width="1" />
  <line x1="225.16660498395407" y1="160.0" x2="207.8460969082653" y2="150.0" stroke="black" stroke-width="1" />
  <line x1="207.8460969082653" y1="150.0" x2="207.8460969082653" y2="130.0" stroke="black" stroke-width="1" />
  <line x1="207.8460969082653" y1="130.0" x2="190.52558883257655" y2="120.0" stroke="black" stroke-width="1" />
  <line x1="207.8460969082653" y1="90.0" x2="190.52558883257655" y2="100.0" stroke="black" stroke-width="1" />
  <line x1="207.8460969082653" y1="90.0" x2="207.8460969082653" y2="70.0" stroke="black" stroke-width="1" />
  <line x1="190.52558883257655" y1="60.0" x2="173.20508075688778" y2="70.0" stroke="black" stroke-width="1" />
  <line x1="207.8460969082653" y1="30.0" x2="190.52558883257655" y2="40.0" stroke="black" stroke-width="1" />
  <line x1="225.16660498395407" y1="40.0" x2="207.8460969082653" y2="30.0" stroke="black" stroke-width="1" />
  <line x1="207.8460969082653" y1="10.0" x2="190.52558883257655" y2="0.0" stroke="black" stroke-width="1" />
  <line x1="190.52558883257655" y1="0.0" x2="173.20508075688778" y2="10.0" stroke="black" stroke-width="1" />
  <line x1="242.48711305964284" y1="610.0" x2="259.8076211353316" y2="600.0" stroke="black" stroke-width="1" />
  <line x1="225.16660498395407" y1="600.0" x2="242.48711305964284" y2="610.0" stroke="black" stroke-width="1" />
  <line x1="242.48711305964284" y1="570.0" x2="225.16660498395407" y2="580.0" stroke="black" stroke-width="1" />
  <line x1="242.48711305964284" y1="570.0" x2="242.48711305964284" y2="550.0" stroke="black" stroke-width="1" />
  <line x1="242.48711305964284" y1="550.0" x2="225.16660498395407" y2="540.0" stroke="black" stroke-width="1" />
  <line x1="242.48711305964284" y1="510.0" x2="225.16660498395407" y2="520.0" stroke="black" stroke-width="1" />
  <line x1="259.8076211353316" y1="520.0" x2="242.48711305964284" y2="510.0" stroke="black" stroke-width="1" />
  <line x1="242.48711305964284" y1="510.0" x2="242.48711305964284" y2="490.0" stroke="black" stroke-width="1" />
  <line x1="242.48711305964284" y1="490.0" x2="225.16660498395407" y2="480.0" stroke="black" stroke-width="1" />
  <line x1="259.8076211353316" y1="480.0" x2="259.8076211353316" y2="460.0" stroke="black" stroke-width="1" />
  <line x1="259.8076211353316" y1="460.0" x2="242.48711305964284" y2="450.0" stroke="black" stroke-width="1" />
  <line x1="242.48711305964284" y1="430.0" x2="225.16660498395407" y2="420.0" stroke="black" stroke-width="1" />
  <line x1="225.16660498395407" y1="420.0" x2="207.8460969082653" y2="430.0" stroke="black" stroke-width="1" />
  <line x1="259.8076211353316" y1="420.0" x2="259.8076211353316" y2="400.0" stroke="black" stroke-width="1" />
  <line x1="242.48711305964284" y1="390.0" x2="225.16660498395407" y2="400.0" stroke="black" stroke-width="1" />
  <line x1="259.8076211353316" y1="400.0" x2="242.48711305964284" y2="390.0" stroke="black" stroke-width="1" />
  <line x1="225.16660498395407" y1="360.0" x2="207.8460969082653" y2="370.0" stroke="black" stroke-width="1" />
  <line x1="242.48711305964284" y1="330.0" x2="225.16660498395407" y2="340.0" stroke="black" stroke-width="1" />
  <line x1="259.8076211353316" y1="340.0" x2="242.48711305964284" y2="330.0" stroke="black" stroke-width="1" />
  <line x1="242.48711305964284" y1="330.0" x2="242.48711305964284" y2="310.0" stroke="black" stroke-width="1" />
  <line x1="225.16660498395407" y1="300.0" x2="207.8460969082653" y2="310.0" stroke="black" stroke-width="1" />
  <line x1="242.48711305964284" y1="270.0" x2="225.16660498395407" y2="280.0" stroke="black" stroke-width="1" />
  <line x1="242.48711305964284" y1="270.0" x2="242.48711305964284" y2="250.0" stroke="black" stroke-width="1" />
  <line x1="225.16660498395407" y1="240.0" x2="207.8460969082653" y2="250.0" stroke="black" stroke-width="1" />
  <line x1="259.8076211353316" y1="240.0" x2="259.8076211353316" y2="220.0" stroke="black" stroke-width="1" />
  <line x1="242.48711305964284" y1="210.0" x2="225.16660498395407" y2="220.0" stroke="black" stroke-width="1" />
  <line x1="259.8076211353316" y1="220.0" x2="242.48711305964284" y2="210.0" stroke="black" stroke-width="1" />
  <line x1="242.48711305964284" y1="210.0" x2="242.48711305964284" y2="190.0" stroke="black" stroke-width="1" />
  <line x1="225.16660498395407" y1="180.0" x2="207.8460969082653" y2="190.0" stroke="black" stroke-width="1" />
  <line x1="259.8076211353316" y1="180.0" x2="259.8076211353316" y2="160.0" stroke="black" stroke-width="1" />
  <line x1="242.48711305964284" y1="150.0" x2="225.16660498395407" y2="160.0" stroke="black" stroke-width="1" />
  <line x1="242.48711305964284" y1="150.0" x2="242.48711305964284" y2="130.0" stroke="black" stroke-width="1" />
  <line x1="225.16660498395407" y1="120.0" x2="207.8460969082653" y2="130.0" stroke="black" stroke-width="1" />
  <line x1="259.8076211353316" y1="120.0" x2="259.8076211353316" y2="100.0" stroke="black" stroke-width="1" />
  <line x1="242.48711305964284" y1="90.0" x2="225.16660498395407" y2="100.0" stroke="black" stroke-width="1" />
  <line x1="259.8076211353316" y1="100.0" x2="242.48711305964284" y2="90.0" stroke="black" stroke-width="1" />
  <line x1="242.48711305964284" y1="70.0" x2="225.16660498395407" y2="60.0" stroke="black" stroke-width="1" />
  <line x1="225.16660498395407" y1="60.0" x2="207.8460969082653" y2="70.0" stroke="black" stroke-width="1" />
  <line x1="259.8076211353316" y1="60.0" x2="259.8076211353316" y2="40.0" stroke="black" stroke-width="1" />
  <line x1="259.8076211353316" y1="40.0" x2="242.48711305964284" y2="30.0" stroke="black" stroke-width="1" />
  <line x1="242.48711305964284" y1="10.0" x2="225.16660498395407" y2="0.0" stroke="black" stroke-width="1" />
  <line x1="225.16660498395407" y1="0.0" x2="207.8460969082653" y2="10.0" stroke="black" stroke-width="1" />
  <line x1="277.1281292110204" y1="610.0" x2="294.44863728670913" y2="600.0" stroke="black" stroke-width="1" />
  <line x1="259.8076211353316" y1="600.0" x2="277.1281292110204" y2="610.0" stroke="black" stroke-width="1" />
  <line x1="277.1281292110204" y1="570.0" x2="259.8076211353316" y2="580.0" stroke="black" stroke-width="1" />
  <line x1="294.44863728670913" y1="580.0" x2="277.1281292110204" y2="570.0" stroke="black" stroke-width="1" />
  <line x1="277.1281292110204" y1="570.0" x2="277.1281292110204" y2="550.0" stroke="black" stroke-width="1" />
  <line x1="277.1281292110204" y1="550.0" x2="259.8076211353316" y2="540.0" stroke="black" stroke-width="1" />
  <line x1="277.1281292110204" y1="510.0" x2="259.8076211353316" y2="520.0" stroke="black" stroke-width="1" />
  <line x1="294.44863728670913" y1="520.0" x2="277.1281292110204" y2="510.0" stroke="black" stroke-width="1" />
  <line x1="277.1281292110204" y1="490.0" x2="259.8076211353316" y2="480.0" stroke="black" stroke-width="1" />
  <line x1="294.44863728670913" y1="460.0" x2="277.1281292110204" y2="450.0" stroke="black" stroke-width="1" />
  <line x1="277.1281292110204" y1="450.0" x2="277.1281292110204" y2="430.0" stroke="black" stroke-width="1" />
  <line x1="277.1281292110204" y1="430.0" x2="259.8076211353316" y2="420.0" stroke="black" stroke-width="1" />
  <line x1="259.8076211353316" y1="420.0" x2="242.48711305964287" y2="430.0" stroke="black" stroke-width="1" />
  <line x1="294.44863728670913" y1="420.0" x2="294.44863728670913" y2="400.0" stroke="black" stroke-width="1" />
  <line x1="294.44863728670913" y1="400.0" x2="277.1281292110204" y2="390.0" stroke="black" stroke-width="1" />
  <line x1="277.1281292110204" y1="390.0" x2="277.1281292110204" y2="370.0" stroke="black" stroke-width="1" />
  <line x1="277.1281292110204" y1="370.0" x2="259.8076211353316" y2="360.0" stroke="black" stroke-width="1" />
  <line x1="259.8076211353316" y1="360.0" x2="242.48711305964287" y2="370.0" stroke="black" stroke-width="1" />
  <line x1="294.44863728670913" y1="360.0" x2="294.44863728670913" y2="340.0" stroke="black" stroke-width="1" />
  <line x1="277.1281292110204" y1="330.0" x2="259.8076211353316" y2="340.0" stroke="black" stroke-width="1" />
  <line x1="294.44863728670913" y1="340.0" x2="277.1281292110204" y2="330.0" stroke="black" stroke-width="1" />
  <line x1="259.8076211353316" y1="300.0" x2="242.48711305964287" y2="310.0" stroke="black" stroke-width="1" />
  <line x1="294.44863728670913" y1="300.0" x2="294.44863728670913" y2="280.0" stroke="black" stroke-width="1" />
  <line x1="277.1281292110204" y1="270.0" x2="259.8076211353316" y2="280.0" stroke="black" stroke-width="1" />
  <line x1="294.44863728670913" y1="280.0" x2="277.1281292110204" y2="270.0" stroke="black" stroke-width="1" />
  <line x1="277.1281292110204" y1="250.0" x2="259.8076211353316" y2="240.0" stroke="black" stroke-width="1" />
  <line x1="259.8076211353316" y1="240.0" x2="242.48711305964287" y2="250.0" stroke="black" stroke-width="1" />
  <line x1="294.44863728670913" y1="240.0" x2="294.44863728670913" y2="220.0" stroke="black" stroke-width="1" />
  <line x1="294.44863728670913" y1="220.0" x2="277.1281292110204" y2="210.0" stroke="black" stroke-width="1" />
  <line x1="277.1281292110204" y1="190.0" x2="259.8076211353316" y2="180.0" stroke="black" stroke-width="1" />
  <line x1="259.8076211353316" y1="180.0" x2="242.48711305964287" y2="190.0" stroke="black" stroke-width="1" />
  <line x1="277.1281292110204" y1="150.0" x2="259.8076211353316" y2="160.0" stroke="black" stroke-width="1" />
  <line x1="277.1281292110204" y1="150.0" x2="277.1281292110204" y2="130.0" stroke="black" stroke-width="1" />
  <line x1="259.8076211353316" y1="120.0" x2="242.48711305964287" y2="130.0" stroke="black" stroke-width="1" />
  <line x1="294.44863728670913" y1="120.0" x2="294.44863728670913" y2="100.0" stroke="black" stroke-width="1" />
  <line x1="277.1281292110204" y1="90.0" x2="259.8076211353316" y2="100.0" stroke="black" stroke-width="1" />
  <line x1="277.1281292110204" y1="90.0" x2="277.1281292110204" y2="70.0" stroke="black" stroke-width="1" />
  <line x1="259.8076211353316" y1="60.0" x2="242.48711305964287" y2="70.0" stroke="black" stroke-width="1" />
  <line x1="294.44863728670913" y1="60.0" x2="294.44863728670913" y2="40.0" stroke="black" stroke-width="1" />
  <line x1="277.1281292110204" y1="30.0" x2="259.8076211353316" y2="40.0" stroke="black" stroke-width="1" />
  <line x1="294.44863728670913" y1="40.0" x2="277.1281292110204" y2="30.0" stroke="black" stroke-width="1" />
  <line x1="277.1281292110204" y1="10.0" x2="259.8076211353316" y2="0.0" stroke="black" stroke-width="1" />
  <line x1="259.8076211353316" y1="0.0" x2="242.48711305964287" y2="10.0" stroke="black" stroke-width="1" />
  <line x1="311.7691453623979" y1="610.0" x2="329.0896534380867" y2="600.0" stroke="black" stroke-width="1" />
  <line x1="294.44863728670913" y1="600.0" x2="311.7691453623979" y2="610.0" stroke="black" stroke-width="1" />
  <line x1="329.0896534380867" y1="600.0" x2="329.0896534380867" y2="580.0" stroke="black" stroke-width="1" />
  <line x1="329.0896534380867" y1="580.0" x2="311.7691453623979" y2="570.0" stroke="black" stroke-width="1" />
  <line x1="311.7691453623979" y1="570.0" x2="311.7691453623979" y2="550.0" stroke="black" stroke-width="1" />
  <line x1="311.7691453623979" y1="550.0" x2="294.44863728670913" y2="540.0" stroke="black" stroke-width="1" />
  <line x1="294.44863728670913" y1="540.0" x2="277.1281292110204" y2="550.0" stroke="black" stroke-width="1" />
  <line x1="329.0896534380867" y1="540.0" x2="329.0896534380867" y2="520.0" stroke="black" stroke-width="1" />
  <line x1="311.7691453623979" y1="510.0" x2="294.44863728670913" y2="520.0" stroke="black" stroke-width="1" />
  <line x1="329.0896534380867" y1="520.0" x2="311.7691453623979" y2="510.0" stroke="black" stroke-width="1" />
  <line x1="311.7691453623979" y1="490.0" x2="294.44863728670913" y2="480.0" stroke="black" stroke-width="1" />
  <line x1="294.44863728670913" y1="480.0" x2="277.1281292110204" y2="490.0" stroke="black" stroke-width="1" />
  <line x1="329.0896534380867" y1="480.0" x2="329.0896534380867" y2="460.0" stroke="black" stroke-width="1" />
  <line x1="311.7691453623979" y1="450.0" x2="311.7691453623979" y2="430.0" stroke="black" stroke-width="1" />
  <line x1="311.7691453623979" y1="430.0" x2="294.44863728670913" y2="420.0" stroke="black" stroke-width="1" />
  <line x1="329.0896534380867" y1="420.0" x2="329.0896534380867" y2="400.0" stroke="black" stroke-width="1" />
  <line x1="311.7691453623979" y1="390.0" x2="294.44863728670913" y2="400.0" stroke="black" stroke-width="1" />
  <line x1="329.0896534380867" y1="400.0" x2="311.7691453623979" y2="390.0" stroke="black" stroke-width="1" />
  <line x1="311.7691453623979" y1="390.0" x2="311.7691453623979" y2="370.0" stroke="black" stroke-width="1" />
  <line x1="329.0896534380867" y1="360.0" x2="329.0896534380867" y2="340.0" stroke="black" stroke-width="1" />
  <line x1="311.7691453623979" y1="330.0" x2="294.44863728670913" y2="340.0" stroke="black" stroke-width="1" />
  <line x1="311.7691453623979" y1="330.0" x2="311.7691453623979" y2="310.0" stroke="black" stroke-width="1" />
  <line x1="294.44863728670913" y1="300.0" x2="277.1281292110204" y2="310.0" stroke="black" stroke-width="1" />
  <line x1="311.7691453623979" y1="270.0" x2="294.44863728670913" y2="280.0" stroke="black" stroke-width="1" />
  <line x1="311.7691453623979" y1="270.0" x2="311.7691453623979" y2="250.0" stroke="black" stroke-width="1" />
  <line x1="294.44863728670913" y1="240.0" x2="277.1281292110204" y2="250.0" stroke="black" stroke-width="1" />
  <line x1="329.0896534380867" y1="240.0" x2="329.0896534380867" y2="220.0" stroke="black" stroke-width="1" />
  <line x1="329.0896534380867" y1="220.0" x2="311.7691453623979" y2="210.0" stroke="black" stroke-width="1" />
  <line x1="311.7691453623979" y1="210.0" x2="311.7691453623979" y2="190.0" stroke="black" stroke-width="1" />
  <line x1="311.7691453623979" y1="190.0" x2="294.44863728670913" y2="180.0" stroke="black" stroke-width="1" />
  <line x1="294.44863728670913" y1="180.0" x2="277.1281292110204" y2="190.0" stroke="black" stroke-width="1" />
  <line x1="329.0896534380867" y1="180.0" x2="329.0896534380867" y2="160.0" stroke="black" stroke-width="1" />
  <line x1="311.7691453623979" y1="150.0" x2="294.44863728670913" y2="160.0" stroke="black" stroke-width="1" />
  <line x1="329.0896534380867" y1="160.0" x2="311.7691453623979" y2="150.0" stroke="black" stroke-width="1" />
  <line x1="311.7691453623979" y1="150.0" x2="311.7691453623979" y2="130.0" stroke="black" stroke-width="1" />
  <line x1="294.44863728670913" y1="120.0" x2="277.1281292110204" y2="130.0" stroke="black" stroke-width="1" />
  <line x1="329.0896534380867" y1="120.0" x2="329.0896534380867" y2="100.0" stroke="black" stroke-width="1" />
  <line x1="329.0896534380867" y1="100.0" x2="311.7691453623979" y2="90.0" stroke="black" stroke-width="1" />
  <line x1="311.7691453623979" y1="90.0" x2="311.7691453623979" y2="70.0" stroke="black" stroke-width="1" />
  <line x1="311.7691453623979" y1="70.0" x2="294.44863728670913" y2="60.0" stroke="black" stroke-width="1" />
  <line x1="311.7691453623979" y1="30.0" x2="294.44863728670913" y2="40.0" stroke="black" stroke-width="1" />
  <line x1="329.0896534380867" y1="40.0" x2="311.7691453623979" y2="30.0" stroke="black" stroke-width="1" />
  <line x1="311.7691453623979" y1="10.0" x2="294.44863728670913" y2="0.0" stroke="black" stroke-width="1" />
  <line x1="294.44863728670913" y1="0.0" x2="277.1281292110204" y2="10.0" stroke="black" stroke-width="1" />
  <line x1="346.41016151377545" y1="610.0" x2="363.73066958946424" y2="600.0" stroke="black" stroke-width="1" />
  <line x1="329.08965343808666" y1="600.0" x2="346.41016151377545" y2="610.0" stroke="black" stroke-width="1" />
  <line x1="363.73066958946424" y1="600.0" x2="363.73066958946424" y2="580.0" stroke="black" stroke-width="1" />
  <line x1="346.41016151377545" y1="570.0" x2="346.41016151377545" y2="550.0" stroke="black" stroke-width="1" />
  <line x1="346.41016151377545" y1="550.0" x2="329.08965343808666" y2="540.0" stroke="black" stroke-width="1" />
  <line x1="363.73066958946424" y1="540.0" x2="363.73066958946424" y2="520.0" stroke="black" stroke-width="1" />
  <line x1="346.41016151377545" y1="510.0" x2="346.41016151377545" y2="490.0" stroke="black" stroke-width="1" />
  <line x1="346.41016151377545" y1="490.0" x2="329.08965343808666" y2="480.0" stroke="black" stroke-width="1" />
  <line x1="329.08965343808666" y1="480.0" x2="311.76914536239786" y2="490.0" stroke="black" stroke-width="1" />
  <line x1="346.41016151377545" y1="450.0" x2="329.08965343808666" y2="460.0" stroke="black" stroke-width="1" />
  <line x1="346.41016151377545" y1="450.0" x2="346.41016151377545" y2="430.0" stroke="black" stroke-width="1" />
  <line x1="346.41016151377545" y1="430.0" x2="329.08965343808666" y2="420.0" stroke="black" stroke-width="1" />
  <line x1="363.73066958946424" y1="400.0" x2="346.41016151377545" y2="390.0" stroke="black" stroke-width="1" />
  <line x1="346.41016151377545" y1="370.0" x2="329.08965343808666" y2="360.0" stroke="black" stroke-width="1" />
  <line x1="329.08965343808666" y1="360.0" x2="311.76914536239786" y2="370.0" stroke="black" stroke-width="1" />
  <line x1="363.73066958946424" y1="360.0" x2="363.73066958946424" y2="340.0" stroke="black" stroke-width="1" />
  <line x1="363.73066958946424" y1="340.0" x2="346.41016151377545" y2="330.0" stroke="black" stroke-width="1" />
  <line x1="346.41016151377545" y1="330.0" x2="346.41016151377545" y2="310.0" stroke="black" stroke-width="1" />
  <line x1="346.41016151377545" y1="310.0" x2="329.08965343808666" y2="300.0" stroke="black" stroke-width="1" />
  <line x1="329.08965343808666" y1="300.0" x2="311.76914536239786" y2="310.0" stroke="black" stroke-width="1" />
  <line x1="346.41016151377545" y1="270.0" x2="329.08965343808666" y2="280.0" stroke="black" stroke-width="1" />
  <line x1="363.73066958946424" y1="280.0" x2="346.41016151377545" y2="270.0" stroke="black" stroke-width="1" />
  <line x1="346.41016151377545" y1="270.0" x2="346.41016151377545" y2="250.0" stroke="black" stroke-width="1" />
  <line x1="329.08965343808666" y1="240.0" x2="311.76914536239786" y2="250.0" stroke="black" stroke-width="1" />
  <line x1="363.73066958946424" y1="240.0" x2="363.73066958946424" y2="220.0" stroke="black" stroke-width="1" />
  <line x1="363.73066958946424" y1="220.0" x2="346.41016151377545" y2="210.0" stroke="black" stroke-width="1" />
  <line x1="346.41016151377545" y1="210.0" x2="346.41016151377545" y2="190.0" stroke="black" stroke-width="1" />
  <line x1="363.73066958946424" y1="180.0" x2="363.73066958946424" y2="160.0" stroke="black" stroke-width="1" />
  <line x1="363.73066958946424" y1="160.0" x2="346.41016151377545" y2="150.0" stroke="black" stroke-width="1" />
  <line x1="346.41016151377545" y1="150.0" x2="346.41016151377545" y2="130.0" stroke="black" stroke-width="1" />
  <line x1="346.41016151377545" y1="130.0" x2="329.08965343808666" y2="120.0" stroke="black" stroke-width="1" />
  <line x1="329.08965343808666" y1="120.0" x2="311.76914536239786" y2="130.0" stroke="black" stroke-width="1" />
  <line x1="363.73066958946424" y1="120.0" x2="363.73066958946424" y2="100.0" stroke="black" stroke-width="1" />
  <line x1="363.73066958946424" y1="100.0" x2="346.41016151377545" y2="90.0" stroke="black" stroke-width="1" />
  <line x1="346.41016151377545" y1="90.0" x2="346.41016151377545" y2="70.0" stroke="black" stroke-width="1" />
  <line x1="346.41016151377545" y1="70.0" x2="329.08965343808666" y2="60.0" stroke="black" stroke-width="1" />
  <line x1="363.73066958946424" y1="60.0" x2="363.73066958946424" y2="40.0" stroke="black" stroke-width="1" />
  <line x1="363.73066958946424" y1="40.0" x2="346.41016151377545" y2="30.0" stroke="black" stroke-width="1" />
  <line x1="346.41016151377545" y1="10.0" x2="329.08965343808666" y2="0.0" stroke="black" stroke-width="1" />
  <line x1="329.08965343808666" y1="0.0" x2="311.76914536239786" y2="10.0" stroke="black" stroke-width="1" />
  <line x1="346.41016151377545" y1="30.0" x2="346.41016151377545" y2="10.0" stroke="black" stroke-width="1" />
  <line x1="381.05117766515303" y1="610.0" x2="398.3716857408418" y2="600.0" stroke="black" stroke-width="1" />
  <line x1="363.73066958946424" y1="600.0" x2="381.05117766515303" y2="610.0" stroke="black" stroke-width="1" />
  <line x1="381.05117766515303" y1="570.0" x2="381.05117766515303" y2="550.0" stroke="black" stroke-width="1" />
  <line x1="381.05117766515303" y1="550.0" x2="363.73066958946424" y2="540.0" stroke="black" stroke-width="1" />
  <line x1="363.73066958946424" y1="540.0" x2="346.41016151377545" y2="550.0" stroke="black" stroke-width="1" />
  <line x1="398.3716857408418" y1="540.0" x2="398.3716857408418" y2="520.0" stroke="black" stroke-width="1" />
  <line x1="381.05117766515303" y1="510.0" x2="363.73066958946424" y2="520.0" stroke="black" stroke-width="1" />
  <line x1="381.05117766515303" y1="490.0" x2="363.73066958946424" y2="480.0" stroke="black" stroke-width="1" />
  <line x1="363.73066958946424" y1="480.0" x2="346.41016151377545" y2="490.0" stroke="black" stroke-width="1" />
  <line x1="381.05117766515303" y1="450.0" x2="363.73066958946424" y2="460.0" stroke="black" stroke-width="1" />
  <line x1="398.3716857408418" y1="460.0" x2="381.05117766515303" y2="450.0" stroke="black" stroke-width="1" />
  <line x1="381.05117766515303" y1="430.0" x2="363.73066958946424" y2="420.0" stroke="black" stroke-width="1" />
  <line x1="363.73066958946424" y1="420.0" x2="346.41016151377545" y2="430.0" stroke="black" stroke-width="1" />
  <line x1="381.05117766515303" y1="390.0" x2="363.73066958946424" y2="400.0" stroke="black" stroke-width="1" />
  <line x1="398.3716857408418" y1="400.0" x2="381.05117766515303" y2="390.0" stroke="black" stroke-width="1" />
  <line x1="381.05117766515303" y1="390.0" x2="381.05117766515303" y2="370.0" stroke="black" stroke-width="1" />
  <line x1="381.05117766515303" y1="370.0" x2="363.73066958946424" y2="360.0" stroke="black" stroke-width="1" />
  <line x1="398.3716857408418" y1="360.0" x2="398.3716857408418" y2="340.0" stroke="black" stroke-width="1" />
  <line x1="398.3716857408418" y1="340.0" x2="381.05117766515303" y2="330.0" stroke="black" stroke-width="1" />
  <line x1="381.05117766515303" y1="330.0" x2="381.05117766515303" y2="310.0" stroke="black" stroke-width="1" />
  <line x1="363.73066958946424" y1="300.0" x2="346.41016151377545" y2="310.0" stroke="black" stroke-width="1" />
  <line x1="398.3716857408418" y1="300.0" x2="398.3716857408418" y2="280.0" stroke="black" stroke-width="1" />
  <line x1="398.3716857408418" y1="280.0" x2="381.05117766515303" y2="270.0" stroke="black" stroke-width="1" />
  <line x1="381.05117766515303" y1="270.0" x2="381.05117766515303" y2="250.0" stroke="black" stroke-width="1" />
  <line x1="381.05117766515303" y1="250.0" x2="363.73066958946424" y2="240.0" stroke="black" stroke-width="1" />
  <line x1="363.73066958946424" y1="240.0" x2="346.41016151377545" y2="250.0" stroke="black" stroke-width="1" />
  <line x1="381.05117766515303" y1="210.0" x2="363.73066958946424" y2="220.0" stroke="black" stroke-width="1" />
  <line x1="398.3716857408418" y1="220.0" x2="381.05117766515303" y2="210.0" stroke="black" stroke-width="1" />
  <line x1="363.73066958946424" y1="180.0" x2="346.41016151377545" y2="190.0" stroke="black" stroke-width="1" />
  <line x1="398.3716857408418" y1="180.0" x2="398.3716857408418" y2="160.0" stroke="black" stroke-width="1" />
  <line x1="398.3716857408418" y1="160.0" x2="381.05117766515303" y2="150.0" stroke="black" stroke-width="1" />
  <line x1="381.05117766515303" y1="150.0" x2="381.05117766515303" y2="130.0" stroke="black" stroke-width="1" />
  <line x1="381.05117766515303" y1="130.0" x2="363.73066958946424" y2="120.0" stroke="black" stroke-width="1" />
  <line x1="398.3716857408418" y1="120.0" x2="398.3716857408418" y2="100.0" stroke="black" stroke-width="1" />
  <line x1="398.3716857408418" y1="100.0" x2="381.05117766515303" y2="90.0" stroke="black" stroke-width="1" />
  <line x1="381.05117766515303" y1="90.0" x2="381.05117766515303" y2="70.0" stroke="black" stroke-width="1" />
  <line x1="363.73066958946424" y1="60.0" x2="346.41016151377545" y2="70.0" stroke="black" stroke-width="1" />
  <line x1="398.3716857408418" y1="60.0" x2="398.3716857408418" y2="40.0" stroke="black" stroke-width="1" />
  <line x1="381.05117766515303" y1="10.0" x2="363.73066958946424" y2="0.0" stroke="black" stroke-width="1" />
  <line x1="363.73066958946424" y1="0.0" x2="346.41016151377545" y2="10.0" stroke="black" stroke-width="1" />
  <line x1="381.05117766515303" y1="30.0" x2="381.05117766515303" y2="10.0" stroke="black" stroke-width="1" />
  <line x1="415.69219381653056" y1="610.0" x2="433.01270189221935" y2="600.0" stroke="black" stroke-width="1" />
  <line x1="398.37168574084177" y1="600.0" x2="415.69219381653056" y2="610.0" stroke="black" stroke-width="1" />
  <line x1="433.01270189221935" y1="600.0" x2="433.01270189221935" y2="580.0" stroke="black" stroke-width="1" />
  <line x1="415.69219381653056" y1="570.0" x2="398.37168574084177" y2="580.0" stroke="black" stroke-width="1" />
  <line x1="415.69219381653056" y1="570.0" x2="415.69219381653056" y2="550.0" stroke="black" stroke-width="1" />
  <line x1="415.69219381653056" y1="550.0" x2="398.37168574084177" y2="540.0" stroke="black" stroke-width="1" />
  <line x1="415.69219381653056" y1="510.0" x2="398.37168574084177" y2="520.0" stroke="black" stroke-width="1" />
  <line x1="433.01270189221935" y1="520.0" x2="415.69219381653056" y2="510.0" stroke="black" stroke-width="1" />
  <line x1="415.69219381653056" y1="510.0" x2="415.69219381653056" y2="490.0" stroke="black" stroke-width="1" />
  <line x1="415.69219381653056" y1="490.0" x2="398.37168574084177" y2="480.0" stroke="black" stroke-width="1" />
  <line x1="398.37168574084177" y1="480.0" x2="381.051177665153" y2="490.0" stroke="black" stroke-width="1" />
  <line x1="433.01270189221935" y1="480.0" x2="433.01270189221935" y2="460.0" stroke="black" stroke-width="1" />
  <line x1="415.69219381653056" y1="450.0" x2="398.37168574084177" y2="460.0" stroke="black" stroke-width="1" />
  <line x1="433.01270189221935" y1="460.0" x2="415.69219381653056" y2="450.0" stroke="black" stroke-width="1" />
  <line x1="415.69219381653056" y1="450.0" x2="415.69219381653056" y2="430.0" stroke="black" stroke-width="1" />
  <line x1="398.37168574084177" y1="420.0" x2="381.051177665153" y2="430.0" stroke="black" stroke-width="1" />
  <line x1="433.01270189221935" y1="420.0" x2="433.01270189221935" y2="400.0" stroke="black" stroke-width="1" />
  <line x1="415.69219381653056" y1="390.0" x2="398.37168574084177" y2="400.0" stroke="black" stroke-width="1" />
  <line x1="433.01270189221935" y1="400.0" x2="415.69219381653056" y2="390.0" stroke="black" stroke-width="1" />
  <line x1="415.69219381653056" y1="390.0" x2="415.69219381653056" y2="370.0" stroke="black" stroke-width="1" />
  <line x1="415.69219381653056" y1="330.0" x2="398.37168574084177" y2="340.0" stroke="black" stroke-width="1" />
  <line x1="433.01270189221935" y1="340.0" x2="415.69219381653056" y2="330.0" stroke="black" stroke-width="1" />
  <line x1="415.69219381653056" y1="310.0" x2="398.37168574084177" y2="300.0" stroke="black" stroke-width="1" />
  <line x1="398.37168574084177" y1="300.0" x2="381.051177665153" y2="310.0" stroke="black" stroke-width="1" />
  <line x1="415.69219381653056" y1="270.0" x2="398.37168574084177" y2="280.0" stroke="black" stroke-width="1" />
  <line x1="433.01270189221935" y1="280.0" x2="415.69219381653056" y2="270.0" stroke="black" stroke-width="1" />
  <line x1="415.69219381653056" y1="250.0" x2="398.37168574084177" y2="240.0" stroke="black" stroke-width="1" />
  <line x1="433.01270189221935" y1="240.0" x2="433.01270189221935" y2="220.0" stroke="black" stroke-width="1" />
  <line x1="433.01270189221935" y1="220.0" x2="415.69219381653056" y2="210.0" stroke="black" stroke-width="1" />
  <line x1="415.69219381653056" y1="210.0" x2="415.69219381653056" y2="190.0" stroke="black" stroke-width="1" />
  <line x1="415.69219381653056" y1="190.0" x2="398.37168574084177" y2="180.0" stroke="black" stroke-width="1" />
  <line x1="398.37168574084177" y1="180.0" x2="381.051177665153" y2="190.0" stroke="black" stroke-width="1" />
  <line x1="433.01270189221935" y1="180.0" x2="433.01270189221935" y2="160.0" stroke="black" stroke-width="1" />
  <line x1="433.01270189221935" y1="160.0" x2="415.69219381653056" y2="150.0" stroke="black" stroke-width="1" />
  <line x1="415.69219381653056" y1="130.0" x2="398.37168574084177" y2="120.0" stroke="black" stroke-width="1" />
  <line x1="398.37168574084177" y1="120.0" x2="381.051177665153" y2="130.0" stroke="black" stroke-width="1" />
  <line x1="433.01270189221935" y1="100.0" x2="415.69219381653056" y2="90.0" stroke="black" stroke-width="1" />
  <line x1="415.69219381653056" y1="90.0" x2="415.69219381653056" y2="70.0" stroke="black" stroke-width="1" />
  <line x1="398.37168574084177" y1="60.0" x2="381.051177665153" y2="70.0" stroke="black" stroke-width="1" />
  <line x1="433.01270189221935" y1="60.0" x2="433.01270189221935" y2="40.0" stroke="black" stroke-width="1" />
  <line x1="433.01270189221935" y1="40.0" x2="415.69219381653056" y2="30.0" stroke="black" stroke-width="1" />
  <line x1="415.69219381653056" y1="10.0" x2="398.37168574084177" y2="0.0" stroke="black" stroke-width="1" />
  <line x1="398.37168574084177" y1="0.0" x2="381.051177665153" y2="10.0" stroke="black" stroke-width="1" />
  <line x1="450.3332099679081" y1="610.0" x2="467.6537180435969" y2="600.0" stroke="black" stroke-width="1" />
  <line x1="433.0127018922193" y1="600.0" x2="450.3332099679081" y2="610.0" stroke="black" stroke-width="1" />
  <line x1="450.3332099679081" y1="570.0" x2="433.0127018922193" y2="580.0" stroke="black" stroke-width="1" />
  <line x1="450.3332099679081" y1="550.0" x2="433.0127018922193" y2="540.0" stroke="black" stroke-width="1" />
  <line x1="433.0127018922193" y1="540.0" x2="415.6921938165305" y2="550.0" stroke="black" stroke-width="1" />
  <line x1="467.6537180435969" y1="540.0" x2="467.6537180435969" y2="520.0" stroke="black" stroke-width="1" />
  <line x1="450.3332099679081" y1="510.0" x2="433.0127018922193" y2="520.0" stroke="black" stroke-width="1" />
  <line x1="467.6537180435969" y1="520.0" x2="450.3332099679081" y2="510.0" stroke="black" stroke-width="1" />
  <line x1="450.3332099679081" y1="510.0" x2="450.3332099679081" y2="490.0" stroke="black" stroke-width="1" />
  <line x1="467.6537180435969" y1="480.0" x2="467.6537180435969" y2="460.0" stroke="black" stroke-width="1" />
  <line x1="450.3332099679081" y1="450.0" x2="433.0127018922193" y2="460.0" stroke="black" stroke-width="1" />
  <line x1="433.0127018922193" y1="420.0" x2="415.6921938165305" y2="430.0" stroke="black" stroke-width="1" />
  <line x1="467.6537180435969" y1="420.0" x2="467.6537180435969" y2="400.0" stroke="black" stroke-width="1" />
  <line x1="467.6537180435969" y1="400.0" x2="450.3332099679081" y2="390.0" stroke="black" stroke-width="1" />
  <line x1="450.3332099679081" y1="370.0" x2="433.0127018922193" y2="360.0" stroke="black" stroke-width="1" />
  <line x1="433.0127018922193" y1="360.0" x2="415.6921938165305" y2="370.0" stroke="black" stroke-width="1" />
  <line x1="467.6537180435969" y1="360.0" x2="467.6537180435969" y2="340.0" stroke="black" stroke-width="1" />
  <line x1="450.3332099679081" y1="330.0" x2="433.0127018922193" y2="340.0" stroke="black" stroke-width="1" />
  <line x1="450.3332099679081" y1="330.0" x2="450.3332099679081" y2="310.0" stroke="black" stroke-width="1" />
  <line x1="450.3332099679081" y1="310.0" x2="433.0127018922193" y2="300.0" stroke="black" stroke-width="1" />
  <line x1="450.3332099679081" y1="270.0" x2="433.0127018922193" y2="280.0" stroke="black" stroke-width="1" />
  <line x1="450.3332099679081" y1="270.0" x2="450.3332099679081" y2="250.0" stroke="black" stroke-width="1" />
  <line x1="433.0127018922193" y1="240.0" x2="415.6921938165305" y2="250.0" stroke="black" stroke-width="1" />
  <line x1="450.3332099679081" y1="210.0" x2="433.0127018922193" y2="220.0" stroke="black" stroke-width="1" />
  <line x1="467.6537180435969" y1="220.0" x2="450.3332099679081" y2="210.0" stroke="black" stroke-width="1" />
  <line x1="450.3332099679081" y1="190.0" x2="433.0127018922193" y2="180.0" stroke="black" stroke-width="1" />
  <line x1="450.3332099679081" y1="150.0" x2="433.0127018922193" y2="160.0" stroke="black" stroke-width="1" />
  <line x1="467.6537180435969" y1="160.0" x2="450.3332099679081" y2="150.0" stroke="black" stroke-width="1" />
  <line x1="450.3332099679081" y1="130.0" x2="433.0127018922193" y2="120.0" stroke="black" stroke-width="1" />
  <line x1="433.0127018922193" y1="120.0" x2="415.6921938165305" y2="130.0" stroke="black" stroke-width="1" />
  <line x1="450.3332099679081" y1="90.0" x2="433.0127018922193" y2="100.0" stroke="black" stroke-width="1" />
  <line x1="467.6537180435969" y1="100.0" x2="450.3332099679081" y2="90.0" stroke="black" stroke-width="1" />
  <line x1="433.0127018922193" y1="60.0" x2="415.6921938165305" y2="70.0" stroke="black" stroke-width="1" />
  <line x1="467.6537180435969" y1="60.0" x2="467.6537180435969" y2="40.0" stroke="black" stroke-width="1" />
  <line x1="450.3332099679081" y1="30.0" x2="433.0127018922193" y2="40.0" stroke="black" stroke-width="1" />
  <line x1="467.6537180435969" y1="40.0" x2="450.3332099679081" y2="30.0" stroke="black" stroke-width="1" />
  <line x1="450.3332099679081" y1="10.0" x2="433.0127018922193" y2="0.0" stroke="black" stroke-width="1" />
  <line x1="433.0127018922193" y1="0.0" x2="415.6921938165305" y2="10.0" stroke="black" stroke-width="1" />
  <line x1="484.9742261192857" y1="610.0" x2="502.29473419497447" y2="600.0" stroke="black" stroke-width="1" />
  <line x1="467.6537180435969" y1="600.0" x2="484.9742261192857" y2="610.0" stroke="black" stroke-width="1" />
  <line x1="484.9742261192857" y1="570.0" x2="467.6537180435969" y2="580.0" stroke="black" stroke-width="1" />
  <line x1="502.29473419497447" y1="580.0" x2="484.9742261192857" y2="570.0" stroke="black" stroke-width="1" />
  <line x1="484.9742261192857" y1="570.0" x2="484.9742261192857" y2="550.0" stroke="black" stroke-width="1" />
  <line x1="484.9742261192857" y1="550.0" x2="467.6537180435969" y2="540.0" stroke="black" stroke-width="1" />
  <line x1="502.29473419497447" y1="540.0" x2="502.29473419497447" y2="520.0" stroke="black" stroke-width="1" />
  <line x1="502.29473419497447" y1="520.0" x2="484.9742261192857" y2="510.0" stroke="black" stroke-width="1" />
  <line x1="484.9742261192857" y1="490.0" x2="467.6537180435969" y2="480.0" stroke="black" stroke-width="1" />
  <line x1="467.6537180435969" y1="480.0" x2="450.3332099679081" y2="490.0" stroke="black" stroke-width="1" />
  <line x1="484.9742261192857" y1="450.0" x2="467.6537180435969" y2="460.0" stroke="black" stroke-width="1" />
  <line x1="502.29473419497447" y1="460.0" x2="484.9742261192857" y2="450.0" stroke="black" stroke-width="1" />
  <line x1="484.9742261192857" y1="450.0" x2="484.9742261192857" y2="430.0" stroke="black" stroke-width="1" />
  <line x1="484.9742261192857" y1="430.0" x2="467.6537180435969" y2="420.0" stroke="black" stroke-width="1" />
  <line x1="467.6537180435969" y1="420.0" x2="450.3332099679081" y2="430.0" stroke="black" stroke-width="1" />
  <line x1="502.29473419497447" y1="420.0" x2="502.29473419497447" y2="400.0" stroke="black" stroke-width="1" />
  <line x1="484.9742261192857" y1="390.0" x2="484.9742261192857" y2="370.0" stroke="black" stroke-width="1" />
  <line x1="484.9742261192857" y1="370.0" x2="467.6537180435969" y2="360.0" stroke="black" stroke-width="1" />
  <line x1="467.6537180435969" y1="360.0" x2="450.3332099679081" y2="370.0" stroke="black" stroke-width="1" />
  <line x1="484.9742261192857" y1="330.0" x2="467.6537180435969" y2="340.0" stroke="black" stroke-width="1" />
  <line x1="502.29473419497447" y1="340.0" x2="484.9742261192857" y2="330.0" stroke="black" stroke-width="1" />
  <line x1="484.9742261192857" y1="330.0" x2="484.9742261192857" y2="310.0" stroke="black" stroke-width="1" />
  <line x1="467.6537180435969" y1="300.0" x2="450.3332099679081" y2="310.0" stroke="black" stroke-width="1" />
  <line x1="502.29473419497447" y1="300.0" x2="502.29473419497447" y2="280.0" stroke="black" stroke-width="1" />
  <line x1="484.9742261192857" y1="270.0" x2="467.6537180435969" y2="280.0" stroke="black" stroke-width="1" />
  <line x1="502.29473419497447" y1="280.0" x2="484.9742261192857" y2="270.0" stroke="black" stroke-width="1" />
  <line x1="484.9742261192857" y1="250.0" x2="467.6537180435969" y2="240.0" stroke="black" stroke-width="1" />
  <line x1="467.6537180435969" y1="240.0" x2="450.3332099679081" y2="250.0" stroke="black" stroke-width="1" />
  <line x1="502.29473419497447" y1="240.0" x2="502.29473419497447" y2="220.0" stroke="black" stroke-width="1" />
  <line x1="502.29473419497447" y1="220.0" x2="484.9742261192857" y2="210.0" stroke="black" stroke-width="1" />
  <line x1="484.9742261192857" y1="210.0" x2="484.9742261192857" y2="190.0" stroke="black" stroke-width="1" />
  <line x1="484.9742261192857" y1="190.0" x2="467.6537180435969" y2="180.0" stroke="black" stroke-width="1" />
  <line x1="467.6537180435969" y1="180.0" x2="450.3332099679081" y2="190.0" stroke="black" stroke-width="1" />
  <line x1="502.29473419497447" y1="180.0" x2="502.29473419497447" y2="160.0" stroke="black" stroke-width="1" />
  <line x1="502.29473419497447" y1="160.0" x2="484.9742261192857" y2="150.0" stroke="black" stroke-width="1" />
  <line x1="484.9742261192857" y1="150.0" x2="484.9742261192857" y2="130.0" stroke="black" stroke-width="1" />
  <line x1="484.9742261192857" y1="130.0" x2="467.6537180435969" y2="120.0" stroke="black" stroke-width="1" />
  <line x1="467.6537180435969" y1="120.0" x2="450.3332099679081" y2="130.0" stroke="black" stroke-width="1" />
  <line x1="484.9742261192857" y1="90.0" x2="467.6537180435969" y2="100.0" stroke="black" stroke-width="1" />
  <line x1="502.29473419497447" y1="100.0" x2="484.9742261192857" y2="90.0" stroke="black" stroke-width="1" />
  <line x1="467.6537180435969" y1="60.0" x2="450.3332099679081" y2="70.0" stroke="black" stroke-width="1" />
  <line x1="484.9742261192857" y1="30.0" x2="467.6537180435969" y2="40.0" stroke="black" stroke-width="1" />
  <line x1="502.29473419497447" y1="40.0" x2="484.9742261192857" y2="30.0" stroke="black" stroke-width="1" />
  <line x1="484.9742261192857" y1="10.0" x2="467.6537180435969" y2="0.0" stroke="black" stroke-width="1" />
  <line x1="467.6537180435969" y1="0.0" x2="450.3332099679081" y2="10.0" stroke="black" stroke-width="1" />
  <line x1="519.6152422706632" y1="610.0" x2="536.935750346352" y2="600.0" stroke="black" stroke-width="1" />
  <line x1="502.2947341949744" y1="600.0" x2="519.6152422706632" y2="610.0" stroke="black" stroke-width="1" />
  <line x1="519.6152422706632" y1="570.0" x2="502.2947341949744" y2="580.0" stroke="black" stroke-width="1" />
  <line x1="536.935750346352" y1="580.0" x2="519.6152422706632" y2="570.0" stroke="black" stroke-width="1" />
  <line x1="519.6152422706632" y1="570.0" x2="519.6152422706632" y2="550.0" stroke="black" stroke-width="1" />
  <line x1="519.6152422706632" y1="510.0" x2="502.2947341949744" y2="520.0" stroke="black" stroke-width="1" />
  <line x1="536.935750346352" y1="520.0" x2="519.6152422706632" y2="510.0" stroke="black" stroke-width="1" />
  <line x1="519.6152422706632" y1="510.0" x2="519.6152422706632" y2="490.0" stroke="black" stroke-width="1" />
  <line x1="519.6152422706632" y1="490.0" x2="502.2947341949744" y2="480.0" stroke="black" stroke-width="1" />
  <line x1="536.935750346352" y1="480.0" x2="536.935750346352" y2="460.0" stroke="black" stroke-width="1" />
  <line x1="536.935750346352" y1="460.0" x2="519.6152422706632" y2="450.0" stroke="black" stroke-width="1" />
  <line x1="519.6152422706632" y1="450.0" x2="519.6152422706632" y2="430.0" stroke="black" stroke-width="1" />
  <line x1="502.2947341949744" y1="420.0" x2="484.9742261192856" y2="430.0" stroke="black" stroke-width="1" />
  <line x1="536.935750346352" y1="420.0" x2="536.935750346352" y2="400.0" stroke="black" stroke-width="1" />
  <line x1="536.935750346352" y1="400.0" x2="519.6152422706632" y2="390.0" stroke="black" stroke-width="1" />
  <line x1="519.6152422706632" y1="390.0" x2="519.6152422706632" y2="370.0" stroke="black" stroke-width="1" />
  <line x1="519.6152422706632" y1="370.0" x2="502.2947341949744" y2="360.0" stroke="black" stroke-width="1" />
  <line x1="502.2947341949744" y1="360.0" x2="484.9742261192856" y2="370.0" stroke="black" stroke-width="1" />
  <line x1="536.935750346352" y1="340.0" x2="519.6152422706632" y2="330.0" stroke="black" stroke-width="1" />
  <line x1="519.6152422706632" y1="330.0" x2="519.6152422706632" y2="310.0" stroke="black" stroke-width="1" />
  <line x1="502.2947341949744" y1="300.0" x2="484.9742261192856" y2="310.0" stroke="black" stroke-width="1" />
  <line x1="536.935750346352" y1="300.0" x2="536.935750346352" y2="280.0" stroke="black" stroke-width="1" />
  <line x1="536.935750346352" y1="280.0" x2="519.6152422706632" y2="270.0" stroke="black" stroke-width="1" />
  <line x1="519.6152422706632" y1="270.0" x2="519.6152422706632" y2="250.0" stroke="black" stroke-width="1" />
  <line x1="519.6152422706632" y1="250.0" x2="502.2947341949744" y2="240.0" stroke="black" stroke-width="1" />
  <line x1="502.2947341949744" y1="240.0" x2="484.9742261192856" y2="250.0" stroke="black" stroke-width="1" />
  <line x1="519.6152422706632" y1="210.0" x2="502.2947341949744" y2="220.0" stroke="black" stroke-width="1" />
  <line x1="519.6152422706632" y1="190.0" x2="502.2947341949744" y2="180.0" stroke="black" stroke-width="1" />
  <line x1="536.935750346352" y1="180.0" x2="536.935750346352" y2="160.0" stroke="black" stroke-width="1" />
  <line x1="536.935750346352" y1="160.0" x2="519.6152422706632" y2="150.0" stroke="black" stroke-width="1" />
  <line x1="502.2947341949744" y1="120.0" x2="484.9742261192856" y2="130.0" stroke="black" stroke-width="1" />
  <line x1="536.935750346352" y1="120.0" x2="536.935750346352" y2="100.0" stroke="black" stroke-width="1" />
  <line x1="519.6152422706632" y1="90.0" x2="502.2947341949744" y2="100.0" stroke="black" stroke-width="1" />
  <line x1="536.935750346352" y1="100.0" x2="519.6152422706632" y2="90.0" stroke="black" stroke-width="1" />
  <line x1="519.6152422706632" y1="70.0" x2="502.2947341949744" y2="60.0" stroke="black" stroke-width="1" />
  <line x1="502.2947341949744" y1="60.0" x2="484.9742261192856" y2="70.0" stroke="black" stroke-width="1" />
  <line x1="536.935750346352" y1="60.0" x2="536.935750346352" y2="40.0" stroke="black" stroke-width="1" />
  <line x1="536.935750346352" y1="40.0" x2="519.6152422706632" y2="30.0" stroke="black" stroke-width="1" />
  <line x1="519.6152422706632" y1="10.0" x2="502.2947341949744" y2="0.0" stroke="black" stroke-width="1" />
  <line x1="502.2947341949744" y1="0.0" x2="484.9742261192856" y2="10.0" stroke="black" stroke-width="1" />
  <line x1="519.6152422706632" y1="30.0" x2="519.6152422706632" y2="10.0" stroke="black" stroke-width="1" />
  <line x1="554.2562584220408" y1="610.0" x2="571.5767664977295" y2="600.0" stroke="black" stroke-width="1" />
  <line x1="536.9357503463519" y1="600.0" x2="554.2562584220408" y2="610.0" stroke="black" stroke-width="1" />
  <line x1="554.2562584220408" y1="570.0" x2="536.9357503463519" y2="580.0" stroke="black" stroke-width="1" />
  <line x1="571.5767664977295" y1="580.0" x2="554.2562584220408" y2="570.0" stroke="black" stroke-width="1" />
  <line x1="554.2562584220408" y1="550.0" x2="536.9357503463519" y2="540.0" stroke="black" stroke-width="1" />
  <line x1="536.9357503463519" y1="540.0" x2="519.6152422706632" y2="550.0" stroke="black" stroke-width="1" />
  <line x1="554.2562584220408" y1="510.0" x2="536.9357503463519" y2="520.0" stroke="black" stroke-width="1" />
  <line x1="571.5767664977295" y1="520.0" x2="554.2562584220408" y2="510.0" stroke="black" stroke-width="1" />
  <line x1="554.2562584220408" y1="510.0" x2="554.2562584220408" y2="490.0" stroke="black" stroke-width="1" />
  <line x1="554.2562584220408" y1="490.0" x2="536.9357503463519" y2="480.0" stroke="black" stroke-width="1" />
  <line x1="571.5767664977295" y1="460.0" x2="554.2562584220408" y2="450.0" stroke="black" stroke-width="1" />
  <line x1="554.2562584220408" y1="450.0" x2="554.2562584220408" y2="430.0" stroke="black" stroke-width="1" />
  <line x1="536.9357503463519" y1="420.0" x2="519.6152422706632" y2="430.0" stroke="black" stroke-width="1" />
  <line x1="554.2562584220408" y1="390.0" x2="536.9357503463519" y2="400.0" stroke="black" stroke-width="1" />
  <line x1="571.5767664977295" y1="400.0" x2="554.2562584220408" y2="390.0" stroke="black" stroke-width="1" />
  <line x1="554.2562584220408" y1="390.0" x2="554.2562584220408" y2="370.0" stroke="black" stroke-width="1" />
  <line x1="536.9357503463519" y1="360.0" x2="519.6152422706632" y2="370.0" stroke="black" stroke-width="1" />
  <line x1="554.2562584220408" y1="330.0" x2="536.9357503463519" y2="340.0" stroke="black" stroke-width="1" />
  <line x1="571.5767664977295" y1="340.0" x2="554.2562584220408" y2="330.0" stroke="black" stroke-width="1" />
  <line x1="536.9357503463519" y1="300.0" x2="519.6152422706632" y2="310.0" stroke="black" stroke-width="1" />
  <line x1="571.5767664977295" y1="300.0" x2="571.5767664977295" y2="280.0" stroke="black" stroke-width="1" />
  <line x1="571.5767664977295" y1="280.0" x2="554.2562584220408" y2="270.0" stroke="black" stroke-width="1" />
  <line x1="554.2562584220408" y1="270.0" x2="554.2562584220408" y2="250.0" stroke="black" stroke-width="1" />
  <line x1="536.9357503463519" y1="240.0" x2="519.6152422706632" y2="250.0" stroke="black" stroke-width="1" />
  <line x1="571.5767664977295" y1="240.0" x2="571.5767664977295" y2="220.0" stroke="black" stroke-width="1" />
  <line x1="554.2562584220408" y1="210.0" x2="536.9357503463519" y2="220.0" stroke="black" stroke-width="1" />
  <line x1="571.5767664977295" y1="220.0" x2="554.2562584220408" y2="210.0" stroke="black" stroke-width="1" />
  <line x1="554.2562584220408" y1="210.0" x2="554.2562584220408" y2="190.0" stroke="black" stroke-width="1" />
  <line x1="554.2562584220408" y1="190.0" x2="536.9357503463519" y2="180.0" stroke="black" stroke-width="1" />
  <line x1="536.9357503463519" y1="180.0" x2="519.6152422706632" y2="190.0" stroke="black" stroke-width="1" />
  <line x1="554.2562584220408" y1="150.0" x2="554.2562584220408" y2="130.0" stroke="black" stroke-width="1" />
  <line x1="554.2562584220408" y1="130.0" x2="536.9357503463519" y2="120.0" stroke="black" stroke-width="1" />
  <line x1="536.9357503463519" y1="120.0" x2="519.6152422706632" y2="130.0" stroke="black" stroke-width="1" />
  <line x1="554.2562584220408" y1="90.0" x2="536.9357503463519" y2="100.0" stroke="black" stroke-width="1" />
  <line x1="571.5767664977295" y1="100.0" x2="554.2562584220408" y2="90.0" stroke="black" stroke-width="1" />
  <line x1="554.2562584220408" y1="70.0" x2="536.9357503463519" y2="60.0" stroke="black" stroke-width="1" />
  <line x1="536.9357503463519" y1="60.0" x2="519.6152422706632" y2="70.0" stroke="black" stroke-width="1" />
  <line x1="571.5767664977295" y1="60.0" x2="571.5767664977295" y2="40.0" stroke="black" stroke-width="1" />
  <line x1="571.5767664977295" y1="40.0" x2="554.2562584220408" y2="30.0" stroke="black" stroke-width="1" />
  <line x1="554.2562584220408" y1="10.0" x2="536.9357503463519" y2="0.0" stroke="black" stroke-width="1" />
  <line x1="536.9357503463519" y1="0.0" x2="519.6152422706632" y2="10.0" stroke="black" stroke-width="1" />
  <line x1="588.8972745734184" y1="610.0" x2="606.2177826491071" y2="600.0" stroke="black" stroke-width="1" />
  <line x1="571.5767664977296" y1="600.0" x2="588.8972745734184" y2="610.0" stroke="black" stroke-width="1" />
  <line x1="606.2177826491071" y1="600.0" x2="606.2177826491071" y2="580.0" stroke="black" stroke-width="1" />
  <line x1="588.8972745734184" y1="570.0" x2="571.5767664977296" y2="580.0" stroke="black" stroke-width="1" />
  <line x1="588.8972745734184" y1="550.0" x2="571.5767664977296" y2="540.0" stroke="black" stroke-width="1" />
  <line x1="571.5767664977296" y1="540.0" x2="554.2562584220409" y2="550.0" stroke="black" stroke-width="1" />
  <line x1="606.2177826491071" y1="540.0" x2="606.2177826491071" y2="520.0" stroke="black" stroke-width="1" />
  <line x1="606.2177826491071" y1="520.0" x2="588.8972745734184" y2="510.0" stroke="black" stroke-width="1" />
  <line x1="588.8972745734184" y1="490.0" x2="571.5767664977296" y2="480.0" stroke="black" stroke-width="1" />
  <line x1="571.5767664977296" y1="480.0" x2="554.2562584220409" y2="490.0" stroke="black" stroke-width="1" />
  <line x1="606.2177826491071" y1="480.0" x2="606.2177826491071" y2="460.0" stroke="black" stroke-width="1" />
  <line x1="588.8972745734184" y1="450.0" x2="571.5767664977296" y2="460.0" stroke="black" stroke-width="1" />
  <line x1="588.8972745734184" y1="430.0" x2="571.5767664977296" y2="420.0" stroke="black" stroke-width="1" />
  <line x1="571.5767664977296" y1="420.0" x2="554.2562584220409" y2="430.0" stroke="black" stroke-width="1" />
  <line x1="606.2177826491071" y1="420.0" x2="606.2177826491071" y2="400.0" stroke="black" stroke-width="1" />
  <line x1="606.2177826491071" y1="400.0" x2="588.8972745734184" y2="390.0" stroke="black" stroke-width="1" />
  <line x1="588.8972745734184" y1="370.0" x2="571.5767664977296" y2="360.0" stroke="black" stroke-width="1" />
  <line x1="571.5767664977296" y1="360.0" x2="554.2562584220409" y2="370.0" stroke="black" stroke-width="1" />
  <line x1="606.2177826491071" y1="360.0" x2="606.2177826491071" y2="340.0" stroke="black" stroke-width="1" />
  <line x1="588.8972745734184" y1="330.0" x2="571.5767664977296" y2="340.0" stroke="black" stroke-width="1" />
  <line x1="588.8972745734184" y1="330.0" x2="588.8972745734184" y2="310.0" stroke="black" stroke-width="1" />
  <line x1="571.5767664977296" y1="300.0" x2="554.2562584220409" y2="310.0" stroke="black" stroke-width="1" />
  <line x1="606.2177826491071" y1="300.0" x2="606.2177826491071" y2="280.0" stroke="black" stroke-width="1" />
  <line x1="606.2177826491071" y1="280.0" x2="588.8972745734184" y2="270.0" stroke="black" stroke-width="1" />
  <line x1="588.8972745734184" y1="270.0" x2="588.8972745734184" y2="250.0" stroke="black" stroke-width="1" />
  <line x1="571.5767664977296" y1="240.0" x2="554.2562584220409" y2="250.0" stroke="black" stroke-width="1" />
  <line x1="606.2177826491071" y1="240.0" x2="606.2177826491071" y2="220.0" stroke="black" stroke-width="1" />
  <line x1="606.2177826491071" y1="220.0" x2="588.8972745734184" y2="210.0" stroke="black" stroke-width="1" />
  <line x1="588.8972745734184" y1="190.0" x2="571.5767664977296" y2="180.0" stroke="black" stroke-width="1" />
  <line x1="571.5767664977296" y1="180.0" x2="554.2562584220409" y2="190.0" stroke="black" stroke-width="1" />
  <line x1="588.8972745734184" y1="150.0" x2="571.5767664977296" y2="160.0" stroke="black" stroke-width="1" />
  <line x1="606.2177826491071" y1="160.0" x2="588.8972745734184" y2="150.0" stroke="black" stroke-width="1" />
  <line x1="588.8972745734184" y1="150.0" x2="588.8972745734184" y2="130.0" stroke="black" stroke-width="1" />
  <line x1="588.8972745734184" y1="130.0" x2="571.5767664977296" y2="120.0" stroke="black" stroke-width="1" />
  <line x1="606.2177826491071" y1="120.0" x2="606.2177826491071" y2="100.0" stroke="black" stroke-width="1" />
  <line x1="588.8972745734184" y1="90.0" x2="571.5767664977296" y2="100.0" stroke="black" stroke-width="1" />
  <line x1="606.2177826491071" y1="100.0" x2="588.8972745734184" y2="90.0" stroke="black" stroke-width="1" />
  <line x1="588.8972745734184" y1="90.0" x2="588.8972745734184" y2="70.0" stroke="black" stroke-width="1" />
  <line x1="571.5767664977296" y1="60.0" x2="554.2562584220409" y2="70.0" stroke="black" stroke-width="1" />
  <line x1="606.2177826491071" y1="60.0" x2="606.2177826491071" y2="40.0" stroke="black" stroke-width="1" />
  <line x1="588.8972745734184" y1="30.0" x2="571.5767664977296" y2="40.0" stroke="black" stroke-width="1" />
  <line x1="606.2177826491071" y1="40.0" x2="588.8972745734184" y2="30.0" stroke="black" stroke-width="1" />
  <line x1="588.8972745734184" y1="10.0" x2="571.5767664977296" y2="0.0" stroke="black" stroke-width="1" />
  <line x1="571.5767664977296" y1="0.0" x2="554.2562584220409" y2="10.0" stroke="black" stroke-width="1" />
  <line x1="623.538290724796" y1="610.0" x2="640.8587988004847" y2="600.0" stroke="black" stroke-width="1" />
  <line x1="606.2177826491072" y1="600.0" x2="623.538290724796" y2="610.0" stroke="black" stroke-width="1" />
  <line x1="640.8587988004847" y1="600.0" x2="640.8587988004847" y2="580.0" stroke="black" stroke-width="1" />
  <line x1="623.538290724796" y1="570.0" x2="606.2177826491072" y2="580.0" stroke="black" stroke-width="1" />
  <line x1="623.538290724796" y1="570.0" x2="623.538290724796" y2="550.0" stroke="black" stroke-width="1" />
  <line x1="606.2177826491072" y1="540.0" x2="588.8972745734185" y2="550.0" stroke="black" stroke-width="1" />
  <line x1="640.8587988004847" y1="540.0" x2="640.8587988004847" y2="520.0" stroke="black" stroke-width="1" />
  <line x1="623.538290724796" y1="510.0" x2="606.2177826491072" y2="520.0" stroke="black" stroke-width="1" />
  <line x1="623.538290724796" y1="510.0" x2="623.538290724796" y2="490.0" stroke="black" stroke-width="1" />
  <line x1="606.2177826491072" y1="480.0" x2="588.8972745734185" y2="490.0" stroke="black" stroke-width="1" />
  <line x1="640.8587988004847" y1="480.0" x2="640.8587988004847" y2="460.0" stroke="black" stroke-width="1" />
  <line x1="640.8587988004847" y1="460.0" x2="623.538290724796" y2="450.0" stroke="black" stroke-width="1" />
  <line x1="623.538290724796" y1="450.0" x2="623.538290724796" y2="430.0" stroke="black" stroke-width="1" />
  <line x1="623.538290724796" y1="430.0" x2="606.2177826491072" y2="420.0" stroke="black" stroke-width="1" />
  <line x1="606.2177826491072" y1="420.0" x2="588.8972745734185" y2="430.0" stroke="black" stroke-width="1" />
  <line x1="623.538290724796" y1="390.0" x2="606.2177826491072" y2="400.0" stroke="black" stroke-width="1" />
  <line x1="640.8587988004847" y1="400.0" x2="623.538290724796" y2="390.0" stroke="black" stroke-width="1" />
  <line x1="623.538290724796" y1="370.0" x2="606.2177826491072" y2="360.0" stroke="black" stroke-width="1" />
  <line x1="606.2177826491072" y1="360.0" x2="588.8972745734185" y2="370.0" stroke="black" stroke-width="1" />
  <line x1="640.8587988004847" y1="340.0" x2="623.538290724796" y2="330.0" stroke="black" stroke-width="1" />
  <line x1="623.538290724796" y1="330.0" x2="623.538290724796" y2="310.0" stroke="black" stroke-width="1" />
  <line x1="623.538290724796" y1="310.0" x2="606.2177826491072" y2="300.0" stroke="black" stroke-width="1" />
  <line x1="606.2177826491072" y1="300.0" x2="588.8972745734185" y2="310.0" stroke="black" stroke-width="1" />
  <line x1="640.8587988004847" y1="300.0" x2="640.8587988004847" y2="280.0" stroke="black" stroke-width="1" />
  <line x1="640.8587988004847" y1="280.0" x2="623.538290724796" y2="270.0" stroke="black" stroke-width="1" />
  <line x1="623.538290724796" y1="270.0" x2="623.538290724796" y2="250.0" stroke="black" stroke-width="1" />
  <line x1="606.2177826491072" y1="240.0" x2="588.8972745734185" y2="250.0" stroke="black" stroke-width="1" />
  <line x1="623.538290724796" y1="210.0" x2="606.2177826491072" y2="220.0" stroke="black" stroke-width="1" />
  <line x1="640.8587988004847" y1="220.0" x2="623.538290724796" y2="210.0" stroke="black" stroke-width="1" />
  <line x1="623.538290724796" y1="190.0" x2="606.2177826491072" y2="180.0" stroke="black" stroke-width="1" />
  <line x1="606.2177826491072" y1="180.0" x2="588.8972745734185" y2="190.0" stroke="black" stroke-width="1" />
  <line x1="640.8587988004847" y1="180.0" x2="640.8587988004847" y2="160.0" stroke="black" stroke-width="1" />
  <line x1="623.538290724796" y1="150.0" x2="606.2177826491072" y2="160.0" stroke="black" stroke-width="1" />
  <line x1="640.8587988004847" y1="160.0" x2="623.538290724796" y2="150.0" stroke="black" stroke-width="1" />
  <line x1="623.538290724796" y1="130.0" x2="606.2177826491072" y2="120.0" stroke="black" stroke-width="1" />
  <line x1="640.8587988004847" y1="120.0" x2="640.8587988004847" y2="100.0" stroke="black" stroke-width="1" />
  <line x1="623.538290724796" y1="90.0" x2="623.538290724796" y2="70.0" stroke="black" stroke-width="1" />
  <line x1="623.538290724796" y1="70.0" x2="606.2177826491072" y2="60.0" stroke="black" stroke-width="1" />
  <line x1="623.538290724796" y1="30.0" x2="606.2177826491072" y2="40.0" stroke="black" stroke-width="1" />
  <line x1="623.538290724796" y1="10.0" x2="606.2177826491072" y2="0.0" stroke="black" stroke-width="1" />
  <line x1="606.2177826491072" y1="0.0" x2="588.8972745734185" y2="10.0" stroke="black" stroke-width="1" />
  <line x1="658.1793068761734" y1="610.0" x2="675.4998149518622" y2="600.0" stroke="black" stroke-width="1" />
  <line x1="640.8587988004847" y1="600.0" x2="658.1793068761734" y2="610.0" stroke="black" stroke-width="1" />
  <line x1="658.1793068761734" y1="570.0" x2="658.1793068761734" y2="550.0" stroke="black" stroke-width="1" />
  <line x1="658.1793068761734" y1="550.0" x2="640.8587988004847" y2="540.0" stroke="black" stroke-width="1" />
  <line x1="640.8587988004847" y1="540.0" x2="623.538290724796" y2="550.0" stroke="black" stroke-width="1" />
  <line x1="675.4998149518622" y1="540.0" x2="675.4998149518622" y2="520.0" stroke="black" stroke-width="1" />
  <line x1="658.1793068761734" y1="510.0" x2="658.1793068761734" y2="490.0" stroke="black" stroke-width="1" />
  <line x1="658.1793068761734" y1="490.0" x2="640.8587988004847" y2="480.0" stroke="black" stroke-width="1" />
  <line x1="640.8587988004847" y1="480.0" x2="623.538290724796" y2="490.0" stroke="black" stroke-width="1" />
  <line x1="675.4998149518622" y1="460.0" x2="658.1793068761734" y2="450.0" stroke="black" stroke-width="1" />
  <line x1="658.1793068761734" y1="450.0" x2="658.1793068761734" y2="430.0" stroke="black" stroke-width="1" />
  <line x1="658.1793068761734" y1="430.0" x2="640.8587988004847" y2="420.0" stroke="black" stroke-width="1" />
  <line x1="675.4998149518622" y1="420.0" x2="675.4998149518622" y2="400.0" stroke="black" stroke-width="1" />
  <line x1="658.1793068761734" y1="390.0" x2="640.8587988004847" y2="400.0" stroke="black" stroke-width="1" />
  <line x1="675.4998149518622" y1="400.0" x2="658.1793068761734" y2="390.0" stroke="black" stroke-width="1" />
  <line x1="658.1793068761734" y1="370.0" x2="640.8587988004847" y2="360.0" stroke="black" stroke-width="1" />
  <line x1="640.8587988004847" y1="360.0" x2="623.538290724796" y2="370.0" stroke="black" stroke-width="1" />
  <line x1="675.4998149518622" y1="360.0" x2="675.4998149518622" y2="340.0" stroke="black" stroke-width="1" />
  <line x1="658.1793068761734" y1="330.0" x2="640.8587988004847" y2="340.0" stroke="black" stroke-width="1" />
  <line x1="675.4998149518622" y1="340.0" x2="658.1793068761734" y2="330.0" stroke="black" stroke-width="1" />
  <line x1="658.1793068761734" y1="310.0" x2="640.8587988004847" y2="300.0" stroke="black" stroke-width="1" />
  <line x1="675.4998149518622" y1="300.0" x2="675.4998149518622" y2="280.0" stroke="black" stroke-width="1" />
  <line x1="675.4998149518622" y1="280.0" x2="658.1793068761734" y2="270.0" stroke="black" stroke-width="1" />
  <line x1="658.1793068761734" y1="250.0" x2="640.8587988004847" y2="240.0" stroke="black" stroke-width="1" />
  <line x1="640.8587988004847" y1="240.0" x2="623.538290724796" y2="250.0" stroke="black" stroke-width="1" />
  <line x1="675.4998149518622" y1="240.0" x2="675.4998149518622" y2="220.0" stroke="black" stroke-width="1" />
  <line x1="658.1793068761734" y1="210.0" x2="640.8587988004847" y2="220.0" stroke="black" stroke-width="1" />
  <line x1="658.1793068761734" y1="190.0" x2="640.8587988004847" y2="180.0" stroke="black" stroke-width="1" />
  <line x1="640.8587988004847" y1="180.0" x2="623.538290724796" y2="190.0" stroke="black" stroke-width="1" />
  <line x1="658.1793068761734" y1="150.0" x2="640.8587988004847" y2="160.0" stroke="black" stroke-width="1" />
  <line x1="675.4998149518622" y1="160.0" x2="658.1793068761734" y2="150.0" stroke="black" stroke-width="1" />
  <line x1="658.1793068761734" y1="150.0" x2="658.1793068761734" y2="130.0" stroke="black" stroke-width="1" />
  <line x1="640.8587988004847" y1="120.0" x2="623.538290724796" y2="130.0" stroke="black" stroke-width="1" />
  <line x1="675.4998149518622" y1="120.0" x2="675.4998149518622" y2="100.0" stroke="black" stroke-width="1" />
  <line x1="658.1793068761734" y1="90.0" x2="640.8587988004847" y2="100.0" stroke="black" stroke-width="1" />
  <line x1="675.4998149518622" y1="100.0" x2="658.1793068761734" y2="90.0" stroke="black" stroke-width="1" />
  <line x1="658.1793068761734" y1="90.0" x2="658.1793068761734" y2="70.0" stroke="black" stroke-width="1" />
  <line x1="640.8587988004847" y1="60.0" x2="623.538290724796" y2="70.0" stroke="black" stroke-width="1" />
  <line x1="675.4998149518622" y1="60.0" x2="675.4998149518622" y2="40.0" stroke="black" stroke-width="1" />
  <line x1="658.1793068761734" y1="30.0" x2="640.8587988004847" y2="40.0" stroke="black" stroke-width="1" />
  <line x1="675.4998149518622" y1="40.0" x2="658.1793068761734" y2="30.0" stroke="black" stroke-width="1" />
  <line x1="658.1793068761734" y1="10.0" x2="640.8587988004847" y2="0.0" stroke="black" stroke-width="1" />
  <line x1="640.8587988004847" y1="0.0" x2="623.538290724796" y2="10.0" stroke="black" stroke-width="1" />
  <line x1="692.820323027551" y1="610.0" x2="710.1408311032397" y2="600.0" stroke="black" stroke-width="1" />
  <line x1="675.4998149518623" y1="600.0" x2="692.820323027551" y2="610.0" stroke="black" stroke-width="1" />
  <line x1="692.820323027551" y1="610.0" x2="710.1408311032397" y2="600.0" stroke="black" stroke-width="1" />
  <line x1="710.1408311032397" y1="600.0" x2="710.1408311032397" y2="580.0" stroke="black" stroke-width="1" />
  <line x1="710.1408311032397" y1="580.0" x2="692.820323027551" y2="570.0" stroke="black" stroke-width="1" />
  <line x1="692.820323027551" y1="570.0" x2="675.4998149518623" y2="580.0" stroke="black" stroke-width="1" />
  <line x1="692.820323027551" y1="570.0" x2="692.820323027551" y2="550.0" stroke="black" stroke-width="1" />
  <line x1="675.4998149518623" y1="540.0" x2="658.1793068761735" y2="550.0" stroke="black" stroke-width="1" />
  <line x1="692.820323027551" y1="550.0" x2="710.1408311032397" y2="540.0" stroke="black" stroke-width="1" />
  <line x1="710.1408311032397" y1="540.0" x2="710.1408311032397" y2="520.0" stroke="black" stroke-width="1" />
  <line x1="710.1408311032397" y1="520.0" x2="692.820323027551" y2="510.0" stroke="black" stroke-width="1" />
  <line x1="692.820323027551" y1="510.0" x2="692.820323027551" y2="490.0" stroke="black" stroke-width="1" />
  <line x1="675.4998149518623" y1="480.0" x2="658.1793068761735" y2="490.0" stroke="black" stroke-width="1" />
  <line x1="692.820323027551" y1="490.0" x2="710.1408311032397" y2="480.0" stroke="black" stroke-width="1" />
  <line x1="710.1408311032397" y1="480.0" x2="710.1408311032397" y2="460.0" stroke="black" stroke-width="1" />
  <line x1="710.1408311032397" y1="460.0" x2="692.820323027551" y2="450.0" stroke="black" stroke-width="1" />
  <line x1="692.820323027551" y1="450.0" x2="675.4998149518623" y2="460.0" stroke="black" stroke-width="1" />
  <line x1="692.820323027551" y1="450.0" x2="692.820323027551" y2="430.0" stroke="black" stroke-width="1" />
  <line x1="692.820323027551" y1="430.0" x2="710.1408311032397" y2="420.0" stroke="black" stroke-width="1" />
  <line x1="710.1408311032397" y1="420.0" x2="710.1408311032397" y2="400.0" stroke="black" stroke-width="1" />
  <line x1="710.1408311032397" y1="400.0" x2="692.820323027551" y2="390.0" stroke="black" stroke-width="1" />
  <line x1="692.820323027551" y1="390.0" x2="675.4998149518623" y2="400.0" stroke="black" stroke-width="1" />
  <line x1="692.820323027551" y1="390.0" x2="692.820323027551" y2="370.0" stroke="black" stroke-width="1" />
  <line x1="675.4998149518623" y1="360.0" x2="658.1793068761735" y2="370.0" stroke="black" stroke-width="1" />
  <line x1="692.820323027551" y1="370.0" x2="710.1408311032397" y2="360.0" stroke="black" stroke-width="1" />
  <line x1="710.1408311032397" y1="360.0" x2="710.1408311032397" y2="340.0" stroke="black" stroke-width="1" />
  <line x1="710.1408311032397" y1="340.0" x2="692.820323027551" y2="330.0" stroke="black" stroke-width="1" />
  <line x1="692.820323027551" y1="330.0" x2="692.820323027551" y2="310.0" stroke="black" stroke-width="1" />
  <line x1="692.820323027551" y1="310.0" x2="675.4998149518623" y2="300.0" stroke="black" stroke-width="1" />
  <line x1="692.820323027551" y1="310.0" x2="710.1408311032397" y2="300.0" stroke="black" stroke-width="1" />
  <line x1="710.1408311032397" y1="300.0" x2="710.1408311032397" y2="280.0" stroke="black" stroke-width="1" />
  <line x1="710.1408311032397" y1="280.0" x2="692.820323027551" y2="270.0" stroke="black" stroke-width="1" />
  <line x1="692.820323027551" y1="270.0" x2="692.820323027551" y2="250.0" stroke="black" stroke-width="1" />
  <line x1="675.4998149518623" y1="240.0" x2="658.1793068761735" y2="250.0" stroke="black" stroke-width="1" />
  <line x1="692.820323027551" y1="250.0" x2="710.1408311032397" y2="240.0" stroke="black" stroke-width="1" />
  <line x1="710.1408311032397" y1="240.0" x2="710.1408311032397" y2="220.0" stroke="black" stroke-width="1" />
  <line x1="710.1408311032397" y1="220.0" x2="692.820323027551" y2="210.0" stroke="black" stroke-width="1" />
  <line x1="692.820323027551" y1="210.0" x2="675.4998149518623" y2="220.0" stroke="black" stroke-width="1" />
  <line x1="692.820323027551" y1="210.0" x2="692.820323027551" y2="190.0" stroke="black" stroke-width="1" />
  <line x1="692.820323027551" y1="190.0" x2="675.4998149518623" y2="180.0" stroke="black" stroke-width="1" />
  <line x1="692.820323027551" y1="190.0" x2="710.1408311032397" y2="180.0" stroke="black" stroke-width="1" />
  <line x1="710.1408311032397" y1="180.0" x2="710.1408311032397" y2="160.0" stroke="black" stroke-width="1" />
  <line x1="710.1408311032397" y1="160.0" x2="692.820323027551" y2="150.0" stroke="black" stroke-width="1" />
  <line x1="692.820323027551" y1="150.0" x2="692.820323027551" y2="130.0" stroke="black" stroke-width="1" />
  <line x1="692.820323027551" y1="130.0" x2="675.4998149518623" y2="120.0" stroke="black" stroke-width="1" />
  <line x1="692.820323027551" y1="130.0" x2="710.1408311032397" y2="120.0" stroke="black" stroke-width="1" />
  <line x1="710.1408311032397" y1="120.0" x2="710.1408311032397" y2="100.0" stroke="black" stroke-width="1" />
  <line x1="710.1408311032397" y1="100.0" x2="692.820323027551" y2="90.0" stroke="black" stroke-width="1" />
  <line x1="692.820323027551" y1="90.0" x2="692.820323027551" y2="70.0" stroke="black" stroke-width="1" />
  <line x1="675.4998149518623" y1="60.0" x2="658.1793068761735" y2="70.0" stroke="black" stroke-width="1" />
  <line x1="692.820323027551" y1="70.0" x2="710.1408311032397" y2="60.0" stroke="black" stroke-width="1" />
  <line x1="710.1408311032397" y1="60.0" x2="710.1408311032397" y2="40.0" stroke="black" stroke-width="1" />
  <line x1="710.1408311032397" y1="40.0" x2="692.820323027551" y2="30.0" stroke="black" stroke-width="1" />
  <line x1="692.820323027551" y1="10.0" x2="675.4998149518623" y2="0.0" stroke="black" stroke-width="1" />
  <line x1="675.4998149518623" y1="0.0" x2="658.1793068761735" y2="10.0" stroke="black" stroke-width="1" />
  <line x1="692.820323027551" y1="30.0" x2="692.820323027551" y2="10.0" stroke="black" stroke-width="1" />
</svg>
