<?xml version="1.0" encoding="UTF-8" ?>
<svg xmlns="http://www.w3.org/2000/svg" version="1.1" width="492.735454356513" height="496.35443704902707">
  <line x1="242.735454356513" y1="248.1772185245135" x2="492.735454356513" y2="248.1772185245135" stroke="rgb(0, 0, 0)" stroke-width="1" />
  <line x1="248.26955451684557" y1="245.27269869923995" x2="486.485454356513" y2="248.1772185245135" stroke="rgb(0, 0, 0)" stroke-width="1" />
  <line x1="253.80365467717812" y1="242.3681788739664" x2="480.235454356513" y2="248.1772185245135" stroke="rgb(0, 0, 0)" stroke-width="1" />
  <line x1="259.3377548375107" y1="239.46365904869285" x2="473.985454356513" y2="248.1772185245135" stroke="rgb(0, 0, 0)" stroke-width="1" />
  <line x1="264.87185499784323" y1="236.5591392234193" x2="467.735454356513" y2="248.1772185245135" stroke="rgb(0, 0, 0)" stroke-width="1" />
  <line x1="270.4059551581758" y1="233.65461939814574" x2="461.485454356513" y2="248.1772185245135" stroke="rgb(0, 0, 0)" stroke-width="1" />
  <line x1="275.94005531850837" y1="230.7500995728722" x2="455.235454356513" y2="248.1772185245135" stroke="rgb(0, 0, 0)" stroke-width="1" />
  <line x1="281.47415547884094" y1="227.84557974759863" x2="448.985454356513" y2="248.1772185245135" stroke="rgb(0, 0, 0)" stroke-width="1" />
  <line x1="287.0082556391735" y1="224.94105992232508" x2="442.735454356513" y2="248.1772185245135" stroke="rgb(0, 0, 0)" stroke-width="1" />
  <line x1="292.5423557995061" y1="222.03654009705153" x2="436.485454356513" y2="248.1772185245135" stroke="rgb(0, 0, 0)" stroke-width="1" />
  <line x1="298.07645595983865" y1="219.13202027177798" x2="430.235454356513" y2="248.1772185245135" stroke="rgb(0, 0, 0)" stroke-width="1" />
  <line x1="303.61055612017117" y1="216.22750044650442" x2="423.985454356513" y2="248.1772185245135" stroke="rgb(0, 0, 0)" stroke-width="1" />
  <line x1="309.14465628050374" y1="213.32298062123087" x2="417.735454356513" y2="248.1772185245135" stroke="rgb(0, 0, 0)" stroke-width="1" />
  <line x1="314.6787564408363" y1="210.41846079595732" x2="411.485454356513" y2="248.1772185245135" stroke="rgb(0, 0, 0)" stroke-width="1" />
  <line x1="320.2128566011689" y1="207.51394097068376" x2="405.235454356513" y2="248.1772185245135" stroke="rgb(0, 0, 0)" stroke-width="1" />
  <line x1="325.74695676150145" y1="204.6094211454102" x2="398.985454356513" y2="248.1772185245135" stroke="rgb(0, 0, 0)" stroke-width="1" />
  <line x1="331.28105692183397" y1="201.70490132013666" x2="392.735454356513" y2="248.1772185245135" stroke="rgb(0, 0, 0)" stroke-width="1" />
  <line x1="336.81515708216654" y1="198.8003814948631" x2="386.485454356513" y2="248.1772185245135" stroke="rgb(0, 0, 0)" stroke-width="1" />
  <line x1="342.3492572424991" y1="195.89586166958955" x2="380.235454356513" y2="248.1772185245135" stroke="rgb(0, 0, 0)" stroke-width="1" />
  <line x1="347.8833574028316" y1="192.991341844316" x2="373.985454356513" y2="248.1772185245135" stroke="rgb(0, 0, 0)" stroke-width="1" />
  <line x1="353.4174575631642" y1="190.08682201904244" x2="367.735454356513" y2="248.1772185245135" stroke="rgb(0, 0, 0)" stroke-width="1" />
  <line x1="358.95155772349676" y1="187.1823021937689" x2="361.485454356513" y2="248.1772185245135" stroke="rgb(0, 0, 0)" stroke-width="1" />
  <line x1="364.48565788382933" y1="184.27778236849534" x2="355.235454356513" y2="248.1772185245135" stroke="rgb(0, 0, 0)" stroke-width="1" />
  <line x1="370.0197580441619" y1="181.37326254322176" x2="348.985454356513" y2="248.1772185245135" stroke="rgb(0, 0, 0)" stroke-width="1" />
  <line x1="375.5538582044944" y1="178.4687427179482" x2="342.735454356513" y2="248.1772185245135" stroke="rgb(0, 0, 0)" stroke-width="1" />
  <line x1="381.08795836482705" y1="175.56422289267465" x2="336.485454356513" y2="248.1772185245135" stroke="rgb(0, 0, 0)" stroke-width="1" />
  <line x1="386.62205852515956" y1="172.6597030674011" x2="330.235454356513" y2="248.1772185245135" stroke="rgb(0, 0, 0)" stroke-width="1" />
  <line x1="392.1561586854922" y1="169.75518324212754" x2="323.985454356513" y2="248.1772185245135" stroke="rgb(0, 0, 0)" stroke-width="1" />
  <line x1="397.6902588458247" y1="166.850663416854" x2="317.735454356513" y2="248.1772185245135" stroke="rgb(0, 0, 0)" stroke-width="1" />
  <line x1="403.22435900615733" y1="163.94614359158044" x2="311.485454356513" y2="248.1772185245135" stroke="rgb(0, 0, 0)" stroke-width="1" />
  <line x1="408.75845916648984" y1="161.04162376630688" x2="305.235454356513" y2="248.1772185245135" stroke="rgb(0, 0, 0)" stroke-width="1" />
  <line x1="414.29255932682247" y1="158.13710394103333" x2="298.985454356513" y2="248.1772185245135" stroke="rgb(0, 0, 0)" stroke-width="1" />
  <line x1="419.826659487155" y1="155.23258411575978" x2="292.735454356513" y2="248.1772185245135" stroke="rgb(0, 0, 0)" stroke-width="1" />
  <line x1="425.3607596474876" y1="152.32806429048622" x2="286.485454356513" y2="248.1772185245135" stroke="rgb(0, 0, 0)" stroke-width="1" />
  <line x1="430.8948598078201" y1="149.42354446521267" x2="280.235454356513" y2="248.1772185245135" stroke="rgb(0, 0, 0)" stroke-width="1" />
  <line x1="436.42895996815275" y1="146.51902463993912" x2="273.985454356513" y2="248.1772185245135" stroke="rgb(0, 0, 0)" stroke-width="1" />
  <line x1="441.96306012848527" y1="143.61450481466557" x2="267.735454356513" y2="248.1772185245135" stroke="rgb(0, 0, 0)" stroke-width="1" />
  <line x1="447.4971602888179" y1="140.709984989392" x2="261.485454356513" y2="248.1772185245135" stroke="rgb(0, 0, 0)" stroke-width="1" />
  <line x1="453.0312604491504" y1="137.80546516411846" x2="255.235454356513" y2="248.1772185245135" stroke="rgb(0, 0, 0)" stroke-width="1" />
  <line x1="458.56536060948304" y1="134.9009453388449" x2="248.985454356513" y2="248.1772185245135" stroke="rgb(0, 0, 0)" stroke-width="1" />
  <line x1="242.735454356513" y1="248.1772185245135" x2="464.0994607698155" y2="131.99642551357135" stroke="rgb(0, 0, 0)" stroke-width="1" />
  <line x1="246.28585902358273" y1="243.03356936267815" x2="458.5653606094829" y2="134.9009453388449" stroke="rgb(0, 0, 0)" stroke-width="1" />
  <line x1="249.83626369065246" y1="237.8899202008428" x2="453.03126044915035" y2="137.80546516411846" stroke="rgb(0, 0, 0)" stroke-width="1" />
  <line x1="253.38666835772216" y1="232.74627103900744" x2="447.4971602888178" y2="140.709984989392" stroke="rgb(0, 0, 0)" stroke-width="1" />
  <line x1="256.9370730247919" y1="227.60262187717208" x2="441.9630601284852" y2="143.61450481466557" stroke="rgb(0, 0, 0)" stroke-width="1" />
  <line x1="260.4874776918616" y1="222.45897271533676" x2="436.42895996815264" y2="146.51902463993912" stroke="rgb(0, 0, 0)" stroke-width="1" />
  <line x1="264.03788235893137" y1="217.3153235535014" x2="430.89485980782007" y2="149.42354446521267" stroke="rgb(0, 0, 0)" stroke-width="1" />
  <line x1="267.58828702600107" y1="212.17167439166604" x2="425.3607596474875" y2="152.32806429048622" stroke="rgb(0, 0, 0)" stroke-width="1" />
  <line x1="271.13869169307077" y1="207.0280252298307" x2="419.8266594871549" y2="155.23258411575978" stroke="rgb(0, 0, 0)" stroke-width="1" />
  <line x1="274.6890963601405" y1="201.88437606799533" x2="414.29255932682236" y2="158.13710394103333" stroke="rgb(0, 0, 0)" stroke-width="1" />
  <line x1="278.2395010272102" y1="196.74072690615998" x2="408.7584591664898" y2="161.04162376630688" stroke="rgb(0, 0, 0)" stroke-width="1" />
  <line x1="281.78990569428" y1="191.59707774432462" x2="403.2243590061572" y2="163.94614359158044" stroke="rgb(0, 0, 0)" stroke-width="1" />
  <line x1="285.3403103613497" y1="186.45342858248927" x2="397.69025884582464" y2="166.850663416854" stroke="rgb(0, 0, 0)" stroke-width="1" />
  <line x1="288.8907150284194" y1="181.3097794206539" x2="392.1561586854921" y2="169.75518324212754" stroke="rgb(0, 0, 0)" stroke-width="1" />
  <line x1="292.44111969548914" y1="176.16613025881855" x2="386.6220585251595" y2="172.6597030674011" stroke="rgb(0, 0, 0)" stroke-width="1" />
  <line x1="295.99152436255883" y1="171.0224810969832" x2="381.08795836482693" y2="175.56422289267465" stroke="rgb(0, 0, 0)" stroke-width="1" />
  <line x1="299.5419290296286" y1="165.87883193514784" x2="375.55385820449436" y2="178.4687427179482" stroke="rgb(0, 0, 0)" stroke-width="1" />
  <line x1="303.0923336966983" y1="160.7351827733125" x2="370.0197580441618" y2="181.37326254322176" stroke="rgb(0, 0, 0)" stroke-width="1" />
  <line x1="306.642738363768" y1="155.59153361147713" x2="364.4856578838293" y2="184.2777823684953" stroke="rgb(0, 0, 0)" stroke-width="1" />
  <line x1="310.19314303083775" y1="150.44788444964178" x2="358.9515577234967" y2="187.18230219376886" stroke="rgb(0, 0, 0)" stroke-width="1" />
  <line x1="313.74354769790745" y1="145.30423528780642" x2="353.41745756316413" y2="190.08682201904242" stroke="rgb(0, 0, 0)" stroke-width="1" />
  <line x1="317.2939523649772" y1="140.16058612597107" x2="347.88335740283156" y2="192.99134184431597" stroke="rgb(0, 0, 0)" stroke-width="1" />
  <line x1="320.8443570320469" y1="135.0169369641357" x2="342.349257242499" y2="195.89586166958952" stroke="rgb(0, 0, 0)" stroke-width="1" />
  <line x1="324.39476169911666" y1="129.87328780230035" x2="336.8151570821665" y2="198.80038149486307" stroke="rgb(0, 0, 0)" stroke-width="1" />
  <line x1="327.94516636618636" y1="124.729638640465" x2="331.2810569218339" y2="201.70490132013663" stroke="rgb(0, 0, 0)" stroke-width="1" />
  <line x1="331.4955710332561" y1="119.58598947862964" x2="325.74695676150134" y2="204.60942114541018" stroke="rgb(0, 0, 0)" stroke-width="1" />
  <line x1="335.0459757003258" y1="114.44234031679429" x2="320.2128566011688" y2="207.51394097068373" stroke="rgb(0, 0, 0)" stroke-width="1" />
  <line x1="338.59638036739557" y1="109.29869115495893" x2="314.67875644083625" y2="210.4184607959573" stroke="rgb(0, 0, 0)" stroke-width="1" />
  <line x1="342.14678503446527" y1="104.15504199312358" x2="309.1446562805037" y2="213.32298062123084" stroke="rgb(0, 0, 0)" stroke-width="1" />
  <line x1="345.697189701535" y1="99.01139283128822" x2="303.6105561201711" y2="216.2275004465044" stroke="rgb(0, 0, 0)" stroke-width="1" />
  <line x1="349.2475943686047" y1="93.86774366945286" x2="298.07645595983854" y2="219.13202027177795" stroke="rgb(0, 0, 0)" stroke-width="1" />
  <line x1="352.7979990356745" y1="88.72409450761751" x2="292.54235579950597" y2="222.0365400970515" stroke="rgb(0, 0, 0)" stroke-width="1" />
  <line x1="356.3484037027442" y1="83.58044534578215" x2="287.0082556391734" y2="224.94105992232505" stroke="rgb(0, 0, 0)" stroke-width="1" />
  <line x1="359.89880836981393" y1="78.4367961839468" x2="281.4741554788409" y2="227.8455797475986" stroke="rgb(0, 0, 0)" stroke-width="1" />
  <line x1="363.44921303688363" y1="73.29314702211144" x2="275.9400553185083" y2="230.75009957287216" stroke="rgb(0, 0, 0)" stroke-width="1" />
  <line x1="366.9996177039534" y1="68.14949786027609" x2="270.40595515817574" y2="233.6546193981457" stroke="rgb(0, 0, 0)" stroke-width="1" />
  <line x1="370.5500223710231" y1="63.00584869844073" x2="264.8718549978432" y2="236.55913922341927" stroke="rgb(0, 0, 0)" stroke-width="1" />
  <line x1="374.1004270380928" y1="57.862199536605374" x2="259.3377548375106" y2="239.46365904869282" stroke="rgb(0, 0, 0)" stroke-width="1" />
  <line x1="377.65083170516255" y1="52.71855037477002" x2="253.80365467717806" y2="242.36817887396637" stroke="rgb(0, 0, 0)" stroke-width="1" />
  <line x1="381.2012363722323" y1="47.57490121293466" x2="248.2695545168455" y2="245.27269869923995" stroke="rgb(0, 0, 0)" stroke-width="1" />
  <line x1="242.735454356513" y1="248.1772185245135" x2="384.75164103930194" y2="42.43125205109939" stroke="rgb(0, 0, 0)" stroke-width="1" />
  <line x1="243.48880860810877" y1="241.97278806140068" x2="381.2012363722322" y2="47.57490121293475" stroke="rgb(0, 0, 0)" stroke-width="1" />
  <line x1="244.24216285970454" y1="235.76835759828782" x2="377.6508317051625" y2="52.7185503747701" stroke="rgb(0, 0, 0)" stroke-width="1" />
  <line x1="244.9955171113003" y1="229.563927135175" x2="374.1004270380928" y2="57.86219953660546" stroke="rgb(0, 0, 0)" stroke-width="1" />
  <line x1="245.74887136289607" y1="223.35949667206216" x2="370.55002237102303" y2="63.005848698440815" stroke="rgb(0, 0, 0)" stroke-width="1" />
  <line x1="246.50222561449183" y1="217.15506620894934" x2="366.9996177039533" y2="68.14949786027617" stroke="rgb(0, 0, 0)" stroke-width="1" />
  <line x1="247.25557986608763" y1="210.95063574583648" x2="363.4492130368836" y2="73.29314702211153" stroke="rgb(0, 0, 0)" stroke-width="1" />
  <line x1="248.0089341176834" y1="204.74620528272365" x2="359.8988083698139" y2="78.43679618394688" stroke="rgb(0, 0, 0)" stroke-width="1" />
  <line x1="248.76228836927916" y1="198.54177481961082" x2="356.3484037027441" y2="83.58044534578224" stroke="rgb(0, 0, 0)" stroke-width="1" />
  <line x1="249.51564262087493" y1="192.33734435649797" x2="352.79799903567437" y2="88.7240945076176" stroke="rgb(0, 0, 0)" stroke-width="1" />
  <line x1="250.2689968724707" y1="186.13291389338514" x2="349.24759436860467" y2="93.86774366945295" stroke="rgb(0, 0, 0)" stroke-width="1" />
  <line x1="251.02235112406646" y1="179.9284834302723" x2="345.69718970153497" y2="99.0113928312883" stroke="rgb(0, 0, 0)" stroke-width="1" />
  <line x1="251.77570537566223" y1="173.72405296715948" x2="342.1467850344652" y2="104.15504199312366" stroke="rgb(0, 0, 0)" stroke-width="1" />
  <line x1="252.529059627258" y1="167.51962250404662" x2="338.59638036739545" y2="109.29869115495902" stroke="rgb(0, 0, 0)" stroke-width="1" />
  <line x1="253.28241387885376" y1="161.31519204093377" x2="335.04597570032576" y2="114.44234031679437" stroke="rgb(0, 0, 0)" stroke-width="1" />
  <line x1="254.03576813044953" y1="155.11076157782094" x2="331.49557103325606" y2="119.58598947862973" stroke="rgb(0, 0, 0)" stroke-width="1" />
  <line x1="254.7891223820453" y1="148.9063311147081" x2="327.9451663661863" y2="124.72963864046508" stroke="rgb(0, 0, 0)" stroke-width="1" />
  <line x1="255.54247663364106" y1="142.70190065159525" x2="324.39476169911654" y2="129.87328780230044" stroke="rgb(0, 0, 0)" stroke-width="1" />
  <line x1="256.29583088523685" y1="136.4974701884824" x2="320.84435703204684" y2="135.0169369641358" stroke="rgb(0, 0, 0)" stroke-width="1" />
  <line x1="257.0491851368326" y1="130.29303972536957" x2="317.29395236497714" y2="140.16058612597115" stroke="rgb(0, 0, 0)" stroke-width="1" />
  <line x1="257.8025393884284" y1="124.08860926225672" x2="313.7435476979074" y2="145.3042352878065" stroke="rgb(0, 0, 0)" stroke-width="1" />
  <line x1="258.5558936400241" y1="117.88417879914388" x2="310.19314303083763" y2="150.44788444964186" stroke="rgb(0, 0, 0)" stroke-width="1" />
  <line x1="259.3092478916199" y1="111.67974833603105" x2="306.64273836376793" y2="155.59153361147722" stroke="rgb(0, 0, 0)" stroke-width="1" />
  <line x1="260.06260214321566" y1="105.47531787291823" x2="303.09233369669823" y2="160.73518277331257" stroke="rgb(0, 0, 0)" stroke-width="1" />
  <line x1="260.81595639481145" y1="99.2708874098054" x2="299.5419290296285" y2="165.87883193514793" stroke="rgb(0, 0, 0)" stroke-width="1" />
  <line x1="261.56931064640725" y1="93.06645694669257" x2="295.9915243625588" y2="171.02248109698328" stroke="rgb(0, 0, 0)" stroke-width="1" />
  <line x1="262.322664898003" y1="86.86202648357974" x2="292.4411196954891" y2="176.16613025881864" stroke="rgb(0, 0, 0)" stroke-width="1" />
  <line x1="263.0760191495988" y1="80.65759602046691" x2="288.8907150284193" y2="181.309779420654" stroke="rgb(0, 0, 0)" stroke-width="1" />
  <line x1="263.8293734011945" y1="74.45316555735408" x2="285.3403103613496" y2="186.45342858248935" stroke="rgb(0, 0, 0)" stroke-width="1" />
  <line x1="264.5827276527903" y1="68.24873509424125" x2="281.7899056942799" y2="191.5970777443247" stroke="rgb(0, 0, 0)" stroke-width="1" />
  <line x1="265.33608190438605" y1="62.044304631128426" x2="278.23950102721017" y2="196.74072690616006" stroke="rgb(0, 0, 0)" stroke-width="1" />
  <line x1="266.08943615598184" y1="55.8398741680156" x2="274.68909636014047" y2="201.88437606799542" stroke="rgb(0, 0, 0)" stroke-width="1" />
  <line x1="266.8427904075776" y1="49.63544370490277" x2="271.1386916930707" y2="207.02802522983077" stroke="rgb(0, 0, 0)" stroke-width="1" />
  <line x1="267.5961446591734" y1="43.43101324178994" x2="267.588287026001" y2="212.17167439166613" stroke="rgb(0, 0, 0)" stroke-width="1" />
  <line x1="268.34949891076917" y1="37.22658277867711" x2="264.03788235893126" y2="217.31532355350149" stroke="rgb(0, 0, 0)" stroke-width="1" />
  <line x1="269.1028531623649" y1="31.022152315564284" x2="260.48747769186156" y2="222.45897271533684" stroke="rgb(0, 0, 0)" stroke-width="1" />
  <line x1="269.8562074139607" y1="24.817721852451456" x2="256.93707302479186" y2="227.6026218771722" stroke="rgb(0, 0, 0)" stroke-width="1" />
  <line x1="270.60956166555644" y1="18.613291389338627" x2="253.3866683577221" y2="232.74627103900752" stroke="rgb(0, 0, 0)" stroke-width="1" />
  <line x1="271.36291591715224" y1="12.408860926225799" x2="249.83626369065237" y2="237.88992020084288" stroke="rgb(0, 0, 0)" stroke-width="1" />
  <line x1="272.116270168748" y1="6.2044304631129705" x2="246.28585902358265" y2="243.03356936267824" stroke="rgb(0, 0, 0)" stroke-width="1" />
  <line x1="242.735454356513" y1="248.1772185245135" x2="272.86962442034377" y2="0.0" stroke="rgb(0, 0, 0)" stroke-width="1" />
  <line x1="240.51917381249714" y1="242.33336700772966" x2="272.116270168748" y2="6.204430463112828" stroke="rgb(0, 0, 0)" stroke-width="1" />
  <line x1="238.3028932684813" y1="236.48951549094582" x2="271.36291591715224" y2="12.408860926225657" stroke="rgb(0, 0, 0)" stroke-width="1" />
  <line x1="236.08661272446545" y1="230.64566397416198" x2="270.60956166555644" y2="18.613291389338485" stroke="rgb(0, 0, 0)" stroke-width="1" />
  <line x1="233.87033218044962" y1="224.80181245737813" x2="269.85620741396065" y2="24.817721852451314" stroke="rgb(0, 0, 0)" stroke-width="1" />
  <line x1="231.65405163643376" y1="218.9579609405943" x2="269.1028531623649" y2="31.022152315564142" stroke="rgb(0, 0, 0)" stroke-width="1" />
  <line x1="229.4377710924179" y1="213.11410942381045" x2="268.3494989107691" y2="37.22658277867697" stroke="rgb(0, 0, 0)" stroke-width="1" />
  <line x1="227.22149054840207" y1="207.2702579070266" x2="267.5961446591734" y2="43.4310132417898" stroke="rgb(0, 0, 0)" stroke-width="1" />
  <line x1="225.0052100043862" y1="201.42640639024276" x2="266.8427904075776" y2="49.63544370490263" stroke="rgb(0, 0, 0)" stroke-width="1" />
  <line x1="222.78892946037035" y1="195.58255487345892" x2="266.08943615598184" y2="55.839874168015456" stroke="rgb(0, 0, 0)" stroke-width="1" />
  <line x1="220.57264891635452" y1="189.73870335667507" x2="265.33608190438605" y2="62.044304631128284" stroke="rgb(0, 0, 0)" stroke-width="1" />
  <line x1="218.35636837233866" y1="183.89485183989126" x2="264.5827276527903" y2="68.24873509424111" stroke="rgb(0, 0, 0)" stroke-width="1" />
  <line x1="216.14008782832283" y1="178.05100032310742" x2="263.8293734011945" y2="74.45316555735394" stroke="rgb(0, 0, 0)" stroke-width="1" />
  <line x1="213.92380728430697" y1="172.20714880632357" x2="263.0760191495987" y2="80.65759602046677" stroke="rgb(0, 0, 0)" stroke-width="1" />
  <line x1="211.70752674029112" y1="166.36329728953973" x2="262.322664898003" y2="86.8620264835796" stroke="rgb(0, 0, 0)" stroke-width="1" />
  <line x1="209.49124619627528" y1="160.5194457727559" x2="261.5693106464072" y2="93.06645694669243" stroke="rgb(0, 0, 0)" stroke-width="1" />
  <line x1="207.27496565225943" y1="154.67559425597204" x2="260.81595639481145" y2="99.27088740980525" stroke="rgb(0, 0, 0)" stroke-width="1" />
  <line x1="205.0586851082436" y1="148.8317427391882" x2="260.06260214321566" y2="105.47531787291808" stroke="rgb(0, 0, 0)" stroke-width="1" />
  <line x1="202.84240456422773" y1="142.98789122240436" x2="259.3092478916199" y2="111.67974833603091" stroke="rgb(0, 0, 0)" stroke-width="1" />
  <line x1="200.6261240202119" y1="137.14403970562051" x2="258.5558936400241" y2="117.88417879914374" stroke="rgb(0, 0, 0)" stroke-width="1" />
  <line x1="198.40984347619604" y1="131.30018818883667" x2="257.8025393884284" y2="124.08860926225658" stroke="rgb(0, 0, 0)" stroke-width="1" />
  <line x1="196.1935629321802" y1="125.45633667205281" x2="257.0491851368326" y2="130.29303972536943" stroke="rgb(0, 0, 0)" stroke-width="1" />
  <line x1="193.97728238816435" y1="119.61248515526898" x2="256.2958308852368" y2="136.49747018848228" stroke="rgb(0, 0, 0)" stroke-width="1" />
  <line x1="191.76100184414852" y1="113.76863363848514" x2="255.54247663364106" y2="142.7019006515951" stroke="rgb(0, 0, 0)" stroke-width="1" />
  <line x1="189.54472130013266" y1="107.9247821217013" x2="254.7891223820453" y2="148.90633111470794" stroke="rgb(0, 0, 0)" stroke-width="1" />
  <line x1="187.32844075611683" y1="102.08093060491746" x2="254.03576813044953" y2="155.1107615778208" stroke="rgb(0, 0, 0)" stroke-width="1" />
  <line x1="185.11216021210097" y1="96.23707908813361" x2="253.28241387885376" y2="161.31519204093365" stroke="rgb(0, 0, 0)" stroke-width="1" />
  <line x1="182.89587966808514" y1="90.39322757134977" x2="252.529059627258" y2="167.51962250404648" stroke="rgb(0, 0, 0)" stroke-width="1" />
  <line x1="180.67959912406928" y1="84.54937605456593" x2="251.77570537566223" y2="173.7240529671593" stroke="rgb(0, 0, 0)" stroke-width="1" />
  <line x1="178.46331858005345" y1="78.70552453778208" x2="251.02235112406646" y2="179.92848343027217" stroke="rgb(0, 0, 0)" stroke-width="1" />
  <line x1="176.2470380360376" y1="72.86167302099824" x2="250.26899687247067" y2="186.132913893385" stroke="rgb(0, 0, 0)" stroke-width="1" />
  <line x1="174.03075749202173" y1="67.0178215042144" x2="249.5156426208749" y2="192.33734435649785" stroke="rgb(0, 0, 0)" stroke-width="1" />
  <line x1="171.8144769480059" y1="61.17396998743055" x2="248.76228836927913" y2="198.54177481961068" stroke="rgb(0, 0, 0)" stroke-width="1" />
  <line x1="169.59819640399007" y1="55.33011847064671" x2="248.00893411768337" y2="204.7462052827235" stroke="rgb(0, 0, 0)" stroke-width="1" />
  <line x1="167.3819158599742" y1="49.48626695386287" x2="247.2555798660876" y2="210.95063574583634" stroke="rgb(0, 0, 0)" stroke-width="1" />
  <line x1="165.16563531595835" y1="43.64241543707902" x2="246.50222561449183" y2="217.15506620894917" stroke="rgb(0, 0, 0)" stroke-width="1" />
  <line x1="162.94935477194252" y1="37.79856392029518" x2="245.74887136289607" y2="223.35949667206202" stroke="rgb(0, 0, 0)" stroke-width="1" />
  <line x1="160.7330742279267" y1="31.954712403511337" x2="244.9955171113003" y2="229.56392713517485" stroke="rgb(0, 0, 0)" stroke-width="1" />
  <line x1="158.51679368391083" y1="26.110860886727494" x2="244.24216285970454" y2="235.76835759828768" stroke="rgb(0, 0, 0)" stroke-width="1" />
  <line x1="156.30051313989497" y1="20.26700936994365" x2="243.48880860810877" y2="241.97278806140054" stroke="rgb(0, 0, 0)" stroke-width="1" />
  <line x1="242.735454356513" y1="248.1772185245135" x2="154.0842325958791" y2="14.423157853159807" stroke="rgb(0, 0, 0)" stroke-width="1" />
  <line x1="238.05726218044362" y1="244.03270191050854" x2="156.30051313989492" y2="20.26700936994365" stroke="rgb(0, 0, 0)" stroke-width="1" />
  <line x1="233.37907000437423" y1="239.88818529650356" x2="158.51679368391078" y2="26.110860886727494" stroke="rgb(0, 0, 0)" stroke-width="1" />
  <line x1="228.70087782830487" y1="235.7436686824986" x2="160.73307422792664" y2="31.954712403511337" stroke="rgb(0, 0, 0)" stroke-width="1" />
  <line x1="224.02268565223548" y1="231.59915206849362" x2="162.94935477194247" y2="37.79856392029518" stroke="rgb(0, 0, 0)" stroke-width="1" />
  <line x1="219.3444934761661" y1="227.45463545448865" x2="165.1656353159583" y2="43.64241543707902" stroke="rgb(0, 0, 0)" stroke-width="1" />
  <line x1="214.66630130009673" y1="223.31011884048368" x2="167.38191585997416" y2="49.48626695386287" stroke="rgb(0, 0, 0)" stroke-width="1" />
  <line x1="209.98810912402735" y1="219.1656022264787" x2="169.59819640399002" y2="55.33011847064671" stroke="rgb(0, 0, 0)" stroke-width="1" />
  <line x1="205.30991694795796" y1="215.02108561247374" x2="171.81447694800585" y2="61.17396998743055" stroke="rgb(0, 0, 0)" stroke-width="1" />
  <line x1="200.63172477188857" y1="210.87656899846877" x2="174.03075749202168" y2="67.0178215042144" stroke="rgb(0, 0, 0)" stroke-width="1" />
  <line x1="195.95353259581918" y1="206.7320523844638" x2="176.24703803603754" y2="72.86167302099824" stroke="rgb(0, 0, 0)" stroke-width="1" />
  <line x1="191.27534041974982" y1="202.58753577045883" x2="178.4633185800534" y2="78.70552453778208" stroke="rgb(0, 0, 0)" stroke-width="1" />
  <line x1="186.59714824368044" y1="198.44301915645386" x2="180.67959912406923" y2="84.54937605456593" stroke="rgb(0, 0, 0)" stroke-width="1" />
  <line x1="181.91895606761105" y1="194.2985025424489" x2="182.89587966808506" y2="90.39322757134977" stroke="rgb(0, 0, 0)" stroke-width="1" />
  <line x1="177.2407638915417" y1="190.15398592844392" x2="185.11216021210092" y2="96.23707908813361" stroke="rgb(0, 0, 0)" stroke-width="1" />
  <line x1="172.5625717154723" y1="186.00946931443895" x2="187.32844075611678" y2="102.08093060491746" stroke="rgb(0, 0, 0)" stroke-width="1" />
  <line x1="167.88437953940291" y1="181.86495270043395" x2="189.5447213001326" y2="107.9247821217013" stroke="rgb(0, 0, 0)" stroke-width="1" />
  <line x1="163.20618736333353" y1="177.720436086429" x2="191.76100184414844" y2="113.76863363848514" stroke="rgb(0, 0, 0)" stroke-width="1" />
  <line x1="158.52799518726414" y1="173.575919472424" x2="193.9772823881643" y2="119.61248515526898" stroke="rgb(0, 0, 0)" stroke-width="1" />
  <line x1="153.84980301119475" y1="169.43140285841906" x2="196.19356293218016" y2="125.45633667205283" stroke="rgb(0, 0, 0)" stroke-width="1" />
  <line x1="149.17161083512536" y1="165.28688624441406" x2="198.409843476196" y2="131.30018818883667" stroke="rgb(0, 0, 0)" stroke-width="1" />
  <line x1="144.49341865905598" y1="161.14236963040912" x2="200.62612402021182" y2="137.14403970562051" stroke="rgb(0, 0, 0)" stroke-width="1" />
  <line x1="139.8152264829866" y1="156.99785301640412" x2="202.84240456422768" y2="142.98789122240436" stroke="rgb(0, 0, 0)" stroke-width="1" />
  <line x1="135.1370343069172" y1="152.85333640239918" x2="205.05868510824354" y2="148.8317427391882" stroke="rgb(0, 0, 0)" stroke-width="1" />
  <line x1="130.4588421308478" y1="148.70881978839418" x2="207.27496565225937" y2="154.67559425597204" stroke="rgb(0, 0, 0)" stroke-width="1" />
  <line x1="125.78064995477843" y1="144.56430317438924" x2="209.4912461962752" y2="160.5194457727559" stroke="rgb(0, 0, 0)" stroke-width="1" />
  <line x1="121.10245777870904" y1="140.41978656038424" x2="211.70752674029106" y2="166.36329728953973" stroke="rgb(0, 0, 0)" stroke-width="1" />
  <line x1="116.42426560263965" y1="136.2752699463793" x2="213.92380728430692" y2="172.20714880632357" stroke="rgb(0, 0, 0)" stroke-width="1" />
  <line x1="111.74607342657026" y1="132.1307533323743" x2="216.14008782832275" y2="178.05100032310742" stroke="rgb(0, 0, 0)" stroke-width="1" />
  <line x1="107.06788125050088" y1="127.98623671836934" x2="218.3563683723386" y2="183.89485183989126" stroke="rgb(0, 0, 0)" stroke-width="1" />
  <line x1="102.38968907443149" y1="123.84172010436437" x2="220.57264891635447" y2="189.7387033566751" stroke="rgb(0, 0, 0)" stroke-width="1" />
  <line x1="97.7114968983621" y1="119.69720349035939" x2="222.7889294603703" y2="195.58255487345895" stroke="rgb(0, 0, 0)" stroke-width="1" />
  <line x1="93.03330472229271" y1="115.55268687635441" x2="225.00521000438616" y2="201.4264063902428" stroke="rgb(0, 0, 0)" stroke-width="1" />
  <line x1="88.35511254622332" y1="111.40817026234944" x2="227.22149054840202" y2="207.27025790702663" stroke="rgb(0, 0, 0)" stroke-width="1" />
  <line x1="83.67692037015394" y1="107.26365364834447" x2="229.43777109241785" y2="213.11410942381048" stroke="rgb(0, 0, 0)" stroke-width="1" />
  <line x1="78.99872819408455" y1="103.1191370343395" x2="231.6540516364337" y2="218.95796094059432" stroke="rgb(0, 0, 0)" stroke-width="1" />
  <line x1="74.32053601801516" y1="98.97462042033453" x2="233.87033218044954" y2="224.80181245737816" stroke="rgb(0, 0, 0)" stroke-width="1" />
  <line x1="69.64234384194577" y1="94.83010380632956" x2="236.0866127244654" y2="230.645663974162" stroke="rgb(0, 0, 0)" stroke-width="1" />
  <line x1="64.96415166587639" y1="90.68558719232459" x2="238.30289326848126" y2="236.48951549094585" stroke="rgb(0, 0, 0)" stroke-width="1" />
  <line x1="60.285959489807" y1="86.54107057831962" x2="240.5191738124971" y2="242.3333670077297" stroke="rgb(0, 0, 0)" stroke-width="1" />
  <line x1="242.735454356513" y1="248.1772185245135" x2="55.60776731373778" y2="82.39655396431462" stroke="rgb(0, 0, 0)" stroke-width="1" />
  <line x1="236.66706799760018" y1="246.68149562271628" x2="60.28595948980717" y2="86.54107057831959" stroke="rgb(0, 0, 0)" stroke-width="1" />
  <line x1="230.59868163868737" y1="245.18577272091903" x2="64.96415166587656" y2="90.68558719232456" stroke="rgb(0, 0, 0)" stroke-width="1" />
  <line x1="224.53029527977452" y1="243.6900498191218" x2="69.64234384194594" y2="94.83010380632953" stroke="rgb(0, 0, 0)" stroke-width="1" />
  <line x1="218.4619089208617" y1="242.19432691732456" x2="74.32053601801533" y2="98.9746204203345" stroke="rgb(0, 0, 0)" stroke-width="1" />
  <line x1="212.39352256194888" y1="240.69860401552734" x2="78.99872819408472" y2="103.11913703433947" stroke="rgb(0, 0, 0)" stroke-width="1" />
  <line x1="206.32513620303604" y1="239.2028811137301" x2="83.67692037015411" y2="107.26365364834444" stroke="rgb(0, 0, 0)" stroke-width="1" />
  <line x1="200.25674984412322" y1="237.70715821193286" x2="88.3551125462235" y2="111.40817026234942" stroke="rgb(0, 0, 0)" stroke-width="1" />
  <line x1="194.1883634852104" y1="236.2114353101356" x2="93.03330472229288" y2="115.55268687635439" stroke="rgb(0, 0, 0)" stroke-width="1" />
  <line x1="188.11997712629758" y1="234.7157124083384" x2="97.71149689836227" y2="119.69720349035936" stroke="rgb(0, 0, 0)" stroke-width="1" />
  <line x1="182.05159076738477" y1="233.21998950654114" x2="102.38968907443166" y2="123.84172010436433" stroke="rgb(0, 0, 0)" stroke-width="1" />
  <line x1="175.98320440847192" y1="231.72426660474392" x2="107.06788125050105" y2="127.9862367183693" stroke="rgb(0, 0, 0)" stroke-width="1" />
  <line x1="169.9148180495591" y1="230.2285437029467" x2="111.74607342657043" y2="132.13075333237427" stroke="rgb(0, 0, 0)" stroke-width="1" />
  <line x1="163.84643169064628" y1="228.73282080114944" x2="116.42426560263982" y2="136.27526994637924" stroke="rgb(0, 0, 0)" stroke-width="1" />
  <line x1="157.77804533173347" y1="227.2370978993522" x2="121.10245777870921" y2="140.4197865603842" stroke="rgb(0, 0, 0)" stroke-width="1" />
  <line x1="151.70965897282065" y1="225.74137499755497" x2="125.7806499547786" y2="144.56430317438918" stroke="rgb(0, 0, 0)" stroke-width="1" />
  <line x1="145.64127261390783" y1="224.24565209575775" x2="130.45884213084798" y2="148.70881978839415" stroke="rgb(0, 0, 0)" stroke-width="1" />
  <line x1="139.572886254995" y1="222.7499291939605" x2="135.13703430691737" y2="152.85333640239912" stroke="rgb(0, 0, 0)" stroke-width="1" />
  <line x1="133.5044998960822" y1="221.25420629216325" x2="139.81522648298676" y2="156.9978530164041" stroke="rgb(0, 0, 0)" stroke-width="1" />
  <line x1="127.43611353716938" y1="219.75848339036602" x2="144.49341865905615" y2="161.14236963040906" stroke="rgb(0, 0, 0)" stroke-width="1" />
  <line x1="121.36772717825656" y1="218.2627604885688" x2="149.17161083512553" y2="165.28688624441403" stroke="rgb(0, 0, 0)" stroke-width="1" />
  <line x1="115.29934081934374" y1="216.76703758677155" x2="153.84980301119492" y2="169.431402858419" stroke="rgb(0, 0, 0)" stroke-width="1" />
  <line x1="109.23095446043092" y1="215.2713146849743" x2="158.5279951872643" y2="173.57591947242398" stroke="rgb(0, 0, 0)" stroke-width="1" />
  <line x1="103.1625681015181" y1="213.77559178317708" x2="163.2061873633337" y2="177.72043608642895" stroke="rgb(0, 0, 0)" stroke-width="1" />
  <line x1="97.09418174260529" y1="212.27986888137985" x2="167.88437953940308" y2="181.86495270043392" stroke="rgb(0, 0, 0)" stroke-width="1" />
  <line x1="91.02579538369247" y1="210.7841459795826" x2="172.56257171547247" y2="186.0094693144389" stroke="rgb(0, 0, 0)" stroke-width="1" />
  <line x1="84.95740902477965" y1="209.28842307778535" x2="177.24076389154186" y2="190.15398592844386" stroke="rgb(0, 0, 0)" stroke-width="1" />
  <line x1="78.88902266586683" y1="207.79270017598813" x2="181.91895606761125" y2="194.29850254244883" stroke="rgb(0, 0, 0)" stroke-width="1" />
  <line x1="72.82063630695401" y1="206.2969772741909" x2="186.59714824368064" y2="198.4430191564538" stroke="rgb(0, 0, 0)" stroke-width="1" />
  <line x1="66.7522499480412" y1="204.80125437239366" x2="191.27534041975" y2="202.58753577045877" stroke="rgb(0, 0, 0)" stroke-width="1" />
  <line x1="60.68386358912838" y1="203.3055314705964" x2="195.95353259581938" y2="206.73205238446374" stroke="rgb(0, 0, 0)" stroke-width="1" />
  <line x1="54.61547723021556" y1="201.80980856879918" x2="200.63172477188877" y2="210.8765689984687" stroke="rgb(0, 0, 0)" stroke-width="1" />
  <line x1="48.54709087130274" y1="200.31408566700196" x2="205.30991694795813" y2="215.02108561247368" stroke="rgb(0, 0, 0)" stroke-width="1" />
  <line x1="42.478704512389925" y1="198.8183627652047" x2="209.98810912402752" y2="219.16560222647865" stroke="rgb(0, 0, 0)" stroke-width="1" />
  <line x1="36.41031815347711" y1="197.32263986340746" x2="214.6663013000969" y2="223.31011884048363" stroke="rgb(0, 0, 0)" stroke-width="1" />
  <line x1="30.34193179456429" y1="195.82691696161024" x2="219.3444934761663" y2="227.4546354544886" stroke="rgb(0, 0, 0)" stroke-width="1" />
  <line x1="24.27354543565147" y1="194.33119405981301" x2="224.02268565223568" y2="231.59915206849357" stroke="rgb(0, 0, 0)" stroke-width="1" />
  <line x1="18.205159076738653" y1="192.83547115801576" x2="228.70087782830504" y2="235.74366868249854" stroke="rgb(0, 0, 0)" stroke-width="1" />
  <line x1="12.136772717825835" y1="191.3397482562185" x2="233.37907000437443" y2="239.8881852965035" stroke="rgb(0, 0, 0)" stroke-width="1" />
  <line x1="6.068386358913017" y1="189.8440253544213" x2="238.05726218044381" y2="244.03270191050848" stroke="rgb(0, 0, 0)" stroke-width="1" />
  <line x1="242.735454356513" y1="248.1772185245135" x2="0.0" y2="188.34830245262407" stroke="rgb(0, 0, 0)" stroke-width="1" />
  <line x1="236.66706799760018" y1="249.67294142631073" x2="6.068386358912818" y2="189.84402535442132" stroke="rgb(0, 0, 0)" stroke-width="1" />
  <line x1="230.59868163868737" y1="251.16866432810798" x2="12.136772717825636" y2="191.33974825621857" stroke="rgb(0, 0, 0)" stroke-width="1" />
  <line x1="224.53029527977452" y1="252.66438722990523" x2="18.205159076738454" y2="192.8354711580158" stroke="rgb(0, 0, 0)" stroke-width="1" />
  <line x1="218.4619089208617" y1="254.16011013170245" x2="24.273545435651272" y2="194.33119405981301" stroke="rgb(0, 0, 0)" stroke-width="1" />
  <line x1="212.39352256194888" y1="255.65583303349968" x2="30.34193179456409" y2="195.82691696161027" stroke="rgb(0, 0, 0)" stroke-width="1" />
  <line x1="206.32513620303604" y1="257.1515559352969" x2="36.41031815347691" y2="197.32263986340752" stroke="rgb(0, 0, 0)" stroke-width="1" />
  <line x1="200.25674984412322" y1="258.6472788370942" x2="42.478704512389726" y2="198.81836276520474" stroke="rgb(0, 0, 0)" stroke-width="1" />
  <line x1="194.1883634852104" y1="260.14300173889137" x2="48.547090871302544" y2="200.31408566700196" stroke="rgb(0, 0, 0)" stroke-width="1" />
  <line x1="188.11997712629758" y1="261.6387246406886" x2="54.61547723021536" y2="201.8098085687992" stroke="rgb(0, 0, 0)" stroke-width="1" />
  <line x1="182.05159076738477" y1="263.1344475424859" x2="60.68386358912818" y2="203.30553147059646" stroke="rgb(0, 0, 0)" stroke-width="1" />
  <line x1="175.98320440847192" y1="264.6301704442831" x2="66.752249948041" y2="204.8012543723937" stroke="rgb(0, 0, 0)" stroke-width="1" />
  <line x1="169.9148180495591" y1="266.1258933460804" x2="72.82063630695382" y2="206.2969772741909" stroke="rgb(0, 0, 0)" stroke-width="1" />
  <line x1="163.84643169064628" y1="267.62161624787757" x2="78.88902266586663" y2="207.79270017598816" stroke="rgb(0, 0, 0)" stroke-width="1" />
  <line x1="157.77804533173347" y1="269.1173391496748" x2="84.95740902477945" y2="209.2884230777854" stroke="rgb(0, 0, 0)" stroke-width="1" />
  <line x1="151.70965897282065" y1="270.61306205147207" x2="91.02579538369227" y2="210.78414597958263" stroke="rgb(0, 0, 0)" stroke-width="1" />
  <line x1="145.64127261390783" y1="272.10878495326926" x2="97.09418174260509" y2="212.27986888137985" stroke="rgb(0, 0, 0)" stroke-width="1" />
  <line x1="139.572886254995" y1="273.6045078550665" x2="103.1625681015179" y2="213.7755917831771" stroke="rgb(0, 0, 0)" stroke-width="1" />
  <line x1="133.5044998960822" y1="275.10023075686377" x2="109.23095446043072" y2="215.27131468497436" stroke="rgb(0, 0, 0)" stroke-width="1" />
  <line x1="127.43611353716938" y1="276.595953658661" x2="115.29934081934354" y2="216.76703758677158" stroke="rgb(0, 0, 0)" stroke-width="1" />
  <line x1="121.36772717825656" y1="278.09167656045827" x2="121.36772717825636" y2="218.2627604885688" stroke="rgb(0, 0, 0)" stroke-width="1" />
  <line x1="115.29934081934374" y1="279.58739946225546" x2="127.43611353716918" y2="219.75848339036605" stroke="rgb(0, 0, 0)" stroke-width="1" />
  <line x1="109.23095446043092" y1="281.0831223640527" x2="133.504499896082" y2="221.2542062921633" stroke="rgb(0, 0, 0)" stroke-width="1" />
  <line x1="103.1625681015181" y1="282.57884526584996" x2="139.5728862549948" y2="222.74992919396053" stroke="rgb(0, 0, 0)" stroke-width="1" />
  <line x1="97.09418174260529" y1="284.07456816764716" x2="145.64127261390763" y2="224.24565209575775" stroke="rgb(0, 0, 0)" stroke-width="1" />
  <line x1="91.02579538369247" y1="285.5702910694444" x2="151.70965897282045" y2="225.741374997555" stroke="rgb(0, 0, 0)" stroke-width="1" />
  <line x1="84.95740902477965" y1="287.06601397124166" x2="157.77804533173327" y2="227.23709789935225" stroke="rgb(0, 0, 0)" stroke-width="1" />
  <line x1="78.88902266586683" y1="288.5617368730389" x2="163.84643169064609" y2="228.73282080114947" stroke="rgb(0, 0, 0)" stroke-width="1" />
  <line x1="72.82063630695401" y1="290.05745977483616" x2="169.9148180495589" y2="230.2285437029467" stroke="rgb(0, 0, 0)" stroke-width="1" />
  <line x1="66.7522499480412" y1="291.55318267663336" x2="175.98320440847172" y2="231.72426660474395" stroke="rgb(0, 0, 0)" stroke-width="1" />
  <line x1="60.68386358912838" y1="293.0489055784306" x2="182.05159076738454" y2="233.21998950654117" stroke="rgb(0, 0, 0)" stroke-width="1" />
  <line x1="54.61547723021556" y1="294.54462848022786" x2="188.11997712629739" y2="234.71571240833842" stroke="rgb(0, 0, 0)" stroke-width="1" />
  <line x1="48.54709087130274" y1="296.04035138202505" x2="194.1883634852102" y2="236.21143531013564" stroke="rgb(0, 0, 0)" stroke-width="1" />
  <line x1="42.478704512389925" y1="297.5360742838223" x2="200.25674984412302" y2="237.7071582119329" stroke="rgb(0, 0, 0)" stroke-width="1" />
  <line x1="36.41031815347711" y1="299.03179718561955" x2="206.32513620303584" y2="239.20288111373011" stroke="rgb(0, 0, 0)" stroke-width="1" />
  <line x1="30.34193179456429" y1="300.5275200874168" x2="212.39352256194866" y2="240.69860401552737" stroke="rgb(0, 0, 0)" stroke-width="1" />
  <line x1="24.27354543565147" y1="302.02324298921405" x2="218.4619089208615" y2="242.1943269173246" stroke="rgb(0, 0, 0)" stroke-width="1" />
  <line x1="18.205159076738653" y1="303.51896589101125" x2="224.53029527977432" y2="243.69004981912184" stroke="rgb(0, 0, 0)" stroke-width="1" />
  <line x1="12.136772717825835" y1="305.0146887928085" x2="230.59868163868714" y2="245.18577272091906" stroke="rgb(0, 0, 0)" stroke-width="1" />
  <line x1="6.068386358913017" y1="306.51041169460575" x2="236.6670679976" y2="246.6814956227163" stroke="rgb(0, 0, 0)" stroke-width="1" />
  <line x1="242.735454356513" y1="248.1772185245135" x2="0.0" y2="308.00613459640294" stroke="rgb(0, 0, 0)" stroke-width="1" />
  <line x1="238.05726218044362" y1="252.32173513851848" x2="6.068386358912818" y2="306.51041169460575" stroke="rgb(0, 0, 0)" stroke-width="1" />
  <line x1="233.37907000437423" y1="256.4662517525235" x2="12.136772717825636" y2="305.0146887928085" stroke="rgb(0, 0, 0)" stroke-width="1" />
  <line x1="228.70087782830487" y1="260.6107683665284" x2="18.205159076738454" y2="303.51896589101125" stroke="rgb(0, 0, 0)" stroke-width="1" />
  <line x1="224.02268565223548" y1="264.75528498053336" x2="24.273545435651272" y2="302.02324298921405" stroke="rgb(0, 0, 0)" stroke-width="1" />
  <line x1="219.3444934761661" y1="268.89980159453836" x2="30.34193179456409" y2="300.5275200874168" stroke="rgb(0, 0, 0)" stroke-width="1" />
  <line x1="214.6663013000967" y1="273.04431820854336" x2="36.41031815347691" y2="299.03179718561955" stroke="rgb(0, 0, 0)" stroke-width="1" />
  <line x1="209.98810912402735" y1="277.1888348225483" x2="42.478704512389726" y2="297.5360742838223" stroke="rgb(0, 0, 0)" stroke-width="1" />
  <line x1="205.30991694795796" y1="281.33335143655324" x2="48.547090871302544" y2="296.04035138202505" stroke="rgb(0, 0, 0)" stroke-width="1" />
  <line x1="200.63172477188857" y1="285.47786805055824" x2="54.61547723021536" y2="294.54462848022786" stroke="rgb(0, 0, 0)" stroke-width="1" />
  <line x1="195.95353259581918" y1="289.62238466456324" x2="60.68386358912818" y2="293.0489055784306" stroke="rgb(0, 0, 0)" stroke-width="1" />
  <line x1="191.2753404197498" y1="293.7669012785682" x2="66.752249948041" y2="291.55318267663336" stroke="rgb(0, 0, 0)" stroke-width="1" />
  <line x1="186.59714824368044" y1="297.9114178925731" x2="72.82063630695382" y2="290.05745977483616" stroke="rgb(0, 0, 0)" stroke-width="1" />
  <line x1="181.91895606761105" y1="302.0559345065781" x2="78.88902266586663" y2="288.5617368730389" stroke="rgb(0, 0, 0)" stroke-width="1" />
  <line x1="177.24076389154166" y1="306.2004511205831" x2="84.95740902477945" y2="287.06601397124166" stroke="rgb(0, 0, 0)" stroke-width="1" />
  <line x1="172.56257171547227" y1="310.34496773458807" x2="91.02579538369227" y2="285.5702910694444" stroke="rgb(0, 0, 0)" stroke-width="1" />
  <line x1="167.8843795394029" y1="314.489484348593" x2="97.09418174260509" y2="284.07456816764716" stroke="rgb(0, 0, 0)" stroke-width="1" />
  <line x1="163.2061873633335" y1="318.634000962598" x2="103.1625681015179" y2="282.57884526584996" stroke="rgb(0, 0, 0)" stroke-width="1" />
  <line x1="158.5279951872641" y1="322.778517576603" x2="109.23095446043072" y2="281.0831223640527" stroke="rgb(0, 0, 0)" stroke-width="1" />
  <line x1="153.84980301119472" y1="326.92303419060795" x2="115.29934081934354" y2="279.58739946225546" stroke="rgb(0, 0, 0)" stroke-width="1" />
  <line x1="149.17161083512534" y1="331.0675508046129" x2="121.36772717825636" y2="278.09167656045827" stroke="rgb(0, 0, 0)" stroke-width="1" />
  <line x1="144.49341865905595" y1="335.2120674186179" x2="127.43611353716918" y2="276.595953658661" stroke="rgb(0, 0, 0)" stroke-width="1" />
  <line x1="139.81522648298656" y1="339.3565840326229" x2="133.504499896082" y2="275.10023075686377" stroke="rgb(0, 0, 0)" stroke-width="1" />
  <line x1="135.13703430691717" y1="343.50110064662783" x2="139.5728862549948" y2="273.6045078550665" stroke="rgb(0, 0, 0)" stroke-width="1" />
  <line x1="130.45884213084778" y1="347.6456172606328" x2="145.64127261390763" y2="272.10878495326926" stroke="rgb(0, 0, 0)" stroke-width="1" />
  <line x1="125.7806499547784" y1="351.7901338746378" x2="151.70965897282045" y2="270.61306205147207" stroke="rgb(0, 0, 0)" stroke-width="1" />
  <line x1="121.10245777870901" y1="355.9346504886428" x2="157.77804533173327" y2="269.1173391496748" stroke="rgb(0, 0, 0)" stroke-width="1" />
  <line x1="116.42426560263962" y1="360.0791671026477" x2="163.84643169064609" y2="267.62161624787757" stroke="rgb(0, 0, 0)" stroke-width="1" />
  <line x1="111.74607342657023" y1="364.22368371665266" x2="169.9148180495589" y2="266.1258933460804" stroke="rgb(0, 0, 0)" stroke-width="1" />
  <line x1="107.06788125050085" y1="368.36820033065766" x2="175.98320440847172" y2="264.6301704442831" stroke="rgb(0, 0, 0)" stroke-width="1" />
  <line x1="102.38968907443146" y1="372.51271694466266" x2="182.05159076738454" y2="263.1344475424859" stroke="rgb(0, 0, 0)" stroke-width="1" />
  <line x1="97.71149689836207" y1="376.6572335586676" x2="188.11997712629739" y2="261.6387246406886" stroke="rgb(0, 0, 0)" stroke-width="1" />
  <line x1="93.03330472229268" y1="380.80175017267254" x2="194.1883634852102" y2="260.14300173889137" stroke="rgb(0, 0, 0)" stroke-width="1" />
  <line x1="88.3551125462233" y1="384.94626678667754" x2="200.25674984412302" y2="258.6472788370942" stroke="rgb(0, 0, 0)" stroke-width="1" />
  <line x1="83.67692037015391" y1="389.09078340068254" x2="206.32513620303584" y2="257.1515559352969" stroke="rgb(0, 0, 0)" stroke-width="1" />
  <line x1="78.99872819408452" y1="393.2353000146875" x2="212.39352256194866" y2="255.65583303349968" stroke="rgb(0, 0, 0)" stroke-width="1" />
  <line x1="74.32053601801513" y1="397.3798166286924" x2="218.4619089208615" y2="254.16011013170245" stroke="rgb(0, 0, 0)" stroke-width="1" />
  <line x1="69.64234384194575" y1="401.5243332426974" x2="224.53029527977432" y2="252.66438722990523" stroke="rgb(0, 0, 0)" stroke-width="1" />
  <line x1="64.96415166587636" y1="405.6688498567024" x2="230.59868163868714" y2="251.16866432810798" stroke="rgb(0, 0, 0)" stroke-width="1" />
  <line x1="60.28595948980697" y1="409.81336647070736" x2="236.6670679976" y2="249.67294142631073" stroke="rgb(0, 0, 0)" stroke-width="1" />
  <line x1="242.735454356513" y1="248.1772185245135" x2="55.60776731373775" y2="413.9578830847123" stroke="rgb(0, 0, 0)" stroke-width="1" />
  <line x1="240.51917381249714" y1="254.02107004129735" x2="60.28595948980714" y2="409.81336647070736" stroke="rgb(0, 0, 0)" stroke-width="1" />
  <line x1="238.3028932684813" y1="259.86492155808116" x2="64.96415166587653" y2="405.6688498567024" stroke="rgb(0, 0, 0)" stroke-width="1" />
  <line x1="236.08661272446545" y1="265.708773074865" x2="69.64234384194592" y2="401.5243332426974" stroke="rgb(0, 0, 0)" stroke-width="1" />
  <line x1="233.8703321804496" y1="271.55262459164885" x2="74.3205360180153" y2="397.3798166286924" stroke="rgb(0, 0, 0)" stroke-width="1" />
  <line x1="231.65405163643376" y1="277.3964761084327" x2="78.99872819408469" y2="393.2353000146875" stroke="rgb(0, 0, 0)" stroke-width="1" />
  <line x1="229.4377710924179" y1="283.24032762521654" x2="83.67692037015408" y2="389.09078340068254" stroke="rgb(0, 0, 0)" stroke-width="1" />
  <line x1="227.22149054840207" y1="289.0841791420004" x2="88.35511254622347" y2="384.94626678667754" stroke="rgb(0, 0, 0)" stroke-width="1" />
  <line x1="225.0052100043862" y1="294.9280306587842" x2="93.03330472229285" y2="380.80175017267254" stroke="rgb(0, 0, 0)" stroke-width="1" />
  <line x1="222.78892946037035" y1="300.77188217556807" x2="97.71149689836224" y2="376.6572335586676" stroke="rgb(0, 0, 0)" stroke-width="1" />
  <line x1="220.57264891635452" y1="306.6157336923519" x2="102.38968907443163" y2="372.51271694466266" stroke="rgb(0, 0, 0)" stroke-width="1" />
  <line x1="218.35636837233866" y1="312.45958520913575" x2="107.06788125050102" y2="368.36820033065766" stroke="rgb(0, 0, 0)" stroke-width="1" />
  <line x1="216.1400878283228" y1="318.3034367259196" x2="111.7460734265704" y2="364.22368371665266" stroke="rgb(0, 0, 0)" stroke-width="1" />
  <line x1="213.92380728430697" y1="324.14728824270344" x2="116.42426560263979" y2="360.0791671026477" stroke="rgb(0, 0, 0)" stroke-width="1" />
  <line x1="211.70752674029112" y1="329.9911397594873" x2="121.10245777870918" y2="355.9346504886428" stroke="rgb(0, 0, 0)" stroke-width="1" />
  <line x1="209.49124619627526" y1="335.8349912762711" x2="125.78064995477857" y2="351.7901338746378" stroke="rgb(0, 0, 0)" stroke-width="1" />
  <line x1="207.27496565225943" y1="341.67884279305497" x2="130.45884213084796" y2="347.6456172606328" stroke="rgb(0, 0, 0)" stroke-width="1" />
  <line x1="205.05868510824357" y1="347.5226943098388" x2="135.13703430691734" y2="343.50110064662783" stroke="rgb(0, 0, 0)" stroke-width="1" />
  <line x1="202.8424045642277" y1="353.36654582662266" x2="139.81522648298673" y2="339.3565840326229" stroke="rgb(0, 0, 0)" stroke-width="1" />
  <line x1="200.62612402021188" y1="359.2103973434065" x2="144.49341865905612" y2="335.2120674186179" stroke="rgb(0, 0, 0)" stroke-width="1" />
  <line x1="198.40984347619602" y1="365.05424886019034" x2="149.1716108351255" y2="331.0675508046129" stroke="rgb(0, 0, 0)" stroke-width="1" />
  <line x1="196.19356293218016" y1="370.8981003769742" x2="153.8498030111949" y2="326.92303419060795" stroke="rgb(0, 0, 0)" stroke-width="1" />
  <line x1="193.9772823881643" y1="376.741951893758" x2="158.52799518726428" y2="322.778517576603" stroke="rgb(0, 0, 0)" stroke-width="1" />
  <line x1="191.76100184414844" y1="382.58580341054187" x2="163.20618736333367" y2="318.634000962598" stroke="rgb(0, 0, 0)" stroke-width="1" />
  <line x1="189.5447213001326" y1="388.4296549273257" x2="167.88437953940306" y2="314.489484348593" stroke="rgb(0, 0, 0)" stroke-width="1" />
  <line x1="187.32844075611675" y1="394.27350644410956" x2="172.56257171547244" y2="310.34496773458807" stroke="rgb(0, 0, 0)" stroke-width="1" />
  <line x1="185.1121602121009" y1="400.1173579608934" x2="177.24076389154183" y2="306.2004511205831" stroke="rgb(0, 0, 0)" stroke-width="1" />
  <line x1="182.89587966808506" y1="405.96120947767724" x2="181.91895606761122" y2="302.0559345065781" stroke="rgb(0, 0, 0)" stroke-width="1" />
  <line x1="180.6795991240692" y1="411.8050609944611" x2="186.59714824368058" y2="297.9114178925731" stroke="rgb(0, 0, 0)" stroke-width="1" />
  <line x1="178.46331858005334" y1="417.64891251124493" x2="191.27534041974997" y2="293.7669012785682" stroke="rgb(0, 0, 0)" stroke-width="1" />
  <line x1="176.2470380360375" y1="423.4927640280288" x2="195.95353259581935" y2="289.62238466456324" stroke="rgb(0, 0, 0)" stroke-width="1" />
  <line x1="174.03075749202165" y1="429.3366155448126" x2="200.63172477188874" y2="285.47786805055824" stroke="rgb(0, 0, 0)" stroke-width="1" />
  <line x1="171.8144769480058" y1="435.18046706159646" x2="205.30991694795813" y2="281.33335143655324" stroke="rgb(0, 0, 0)" stroke-width="1" />
  <line x1="169.59819640398996" y1="441.0243185783803" x2="209.9881091240275" y2="277.1888348225483" stroke="rgb(0, 0, 0)" stroke-width="1" />
  <line x1="167.38191585997413" y1="446.86817009516415" x2="214.66630130009688" y2="273.04431820854336" stroke="rgb(0, 0, 0)" stroke-width="1" />
  <line x1="165.16563531595827" y1="452.712021611948" x2="219.34449347616626" y2="268.89980159453836" stroke="rgb(0, 0, 0)" stroke-width="1" />
  <line x1="162.9493547719424" y1="458.55587312873183" x2="224.02268565223562" y2="264.75528498053336" stroke="rgb(0, 0, 0)" stroke-width="1" />
  <line x1="160.73307422792658" y1="464.3997246455157" x2="228.700877828305" y2="260.6107683665284" stroke="rgb(0, 0, 0)" stroke-width="1" />
  <line x1="158.51679368391075" y1="470.2435761622995" x2="233.3790700043744" y2="256.4662517525235" stroke="rgb(0, 0, 0)" stroke-width="1" />
  <line x1="156.3005131398949" y1="476.08742767908336" x2="238.0572621804438" y2="252.32173513851848" stroke="rgb(0, 0, 0)" stroke-width="1" />
  <line x1="242.735454356513" y1="248.1772185245135" x2="154.08423259587903" y2="481.9312791958672" stroke="rgb(0, 0, 0)" stroke-width="1" />
  <line x1="243.48880860810877" y1="254.38164898762633" x2="156.30051313989486" y2="476.08742767908336" stroke="rgb(0, 0, 0)" stroke-width="1" />
  <line x1="244.24216285970454" y1="260.5860794507392" x2="158.51679368391072" y2="470.2435761622995" stroke="rgb(0, 0, 0)" stroke-width="1" />
  <line x1="244.9955171113003" y1="266.790509913852" x2="160.73307422792658" y2="464.3997246455157" stroke="rgb(0, 0, 0)" stroke-width="1" />
  <line x1="245.74887136289607" y1="272.99494037696485" x2="162.9493547719424" y2="458.55587312873183" stroke="rgb(0, 0, 0)" stroke-width="1" />
  <line x1="246.50222561449183" y1="279.1993708400777" x2="165.16563531595824" y2="452.712021611948" stroke="rgb(0, 0, 0)" stroke-width="1" />
  <line x1="247.2555798660876" y1="285.40380130319056" x2="167.3819158599741" y2="446.86817009516415" stroke="rgb(0, 0, 0)" stroke-width="1" />
  <line x1="248.00893411768337" y1="291.6082317663034" x2="169.59819640398996" y2="441.0243185783803" stroke="rgb(0, 0, 0)" stroke-width="1" />
  <line x1="248.76228836927913" y1="297.8126622294162" x2="171.8144769480058" y2="435.18046706159646" stroke="rgb(0, 0, 0)" stroke-width="1" />
  <line x1="249.51564262087487" y1="304.01709269252905" x2="174.03075749202162" y2="429.3366155448126" stroke="rgb(0, 0, 0)" stroke-width="1" />
  <line x1="250.26899687247064" y1="310.2215231556419" x2="176.24703803603748" y2="423.4927640280288" stroke="rgb(0, 0, 0)" stroke-width="1" />
  <line x1="251.0223511240664" y1="316.4259536187547" x2="178.46331858005334" y2="417.64891251124493" stroke="rgb(0, 0, 0)" stroke-width="1" />
  <line x1="251.77570537566217" y1="322.63038408186753" x2="180.67959912406917" y2="411.8050609944611" stroke="rgb(0, 0, 0)" stroke-width="1" />
  <line x1="252.52905962725794" y1="328.8348145449804" x2="182.89587966808503" y2="405.96120947767724" stroke="rgb(0, 0, 0)" stroke-width="1" />
  <line x1="253.2824138788537" y1="335.03924500809325" x2="185.1121602121009" y2="400.1173579608934" stroke="rgb(0, 0, 0)" stroke-width="1" />
  <line x1="254.03576813044947" y1="341.2436754712061" x2="187.32844075611672" y2="394.27350644410956" stroke="rgb(0, 0, 0)" stroke-width="1" />
  <line x1="254.78912238204524" y1="347.44810593431896" x2="189.54472130013258" y2="388.4296549273257" stroke="rgb(0, 0, 0)" stroke-width="1" />
  <line x1="255.542476633641" y1="353.6525363974318" x2="191.76100184414844" y2="382.58580341054187" stroke="rgb(0, 0, 0)" stroke-width="1" />
  <line x1="256.29583088523674" y1="359.8569668605446" x2="193.9772823881643" y2="376.741951893758" stroke="rgb(0, 0, 0)" stroke-width="1" />
  <line x1="257.04918513683253" y1="366.06139732365745" x2="196.19356293218016" y2="370.8981003769742" stroke="rgb(0, 0, 0)" stroke-width="1" />
  <line x1="257.8025393884283" y1="372.2658277867703" x2="198.409843476196" y2="365.05424886019034" stroke="rgb(0, 0, 0)" stroke-width="1" />
  <line x1="258.55589364002407" y1="378.47025824988316" x2="200.62612402021185" y2="359.2103973434065" stroke="rgb(0, 0, 0)" stroke-width="1" />
  <line x1="259.3092478916198" y1="384.67468871299593" x2="202.8424045642277" y2="353.36654582662266" stroke="rgb(0, 0, 0)" stroke-width="1" />
  <line x1="260.0626021432156" y1="390.8791191761088" x2="205.05868510824354" y2="347.5226943098388" stroke="rgb(0, 0, 0)" stroke-width="1" />
  <line x1="260.81595639481134" y1="397.0835496392216" x2="207.2749656522594" y2="341.67884279305497" stroke="rgb(0, 0, 0)" stroke-width="1" />
  <line x1="261.56931064640713" y1="403.2879801023345" x2="209.49124619627526" y2="335.8349912762711" stroke="rgb(0, 0, 0)" stroke-width="1" />
  <line x1="262.32266489800287" y1="409.49241056544724" x2="211.70752674029112" y2="329.9911397594873" stroke="rgb(0, 0, 0)" stroke-width="1" />
  <line x1="263.07601914959866" y1="415.69684102856013" x2="213.92380728430695" y2="324.14728824270344" stroke="rgb(0, 0, 0)" stroke-width="1" />
  <line x1="263.8293734011944" y1="421.9012714916729" x2="216.1400878283228" y2="318.3034367259196" stroke="rgb(0, 0, 0)" stroke-width="1" />
  <line x1="264.5827276527902" y1="428.1057019547858" x2="218.35636837233864" y2="312.45958520913575" stroke="rgb(0, 0, 0)" stroke-width="1" />
  <line x1="265.33608190438594" y1="434.31013241789856" x2="220.5726489163545" y2="306.6157336923519" stroke="rgb(0, 0, 0)" stroke-width="1" />
  <line x1="266.08943615598173" y1="440.51456288101144" x2="222.78892946037035" y2="300.77188217556807" stroke="rgb(0, 0, 0)" stroke-width="1" />
  <line x1="266.84279040757747" y1="446.7189933441242" x2="225.00521000438619" y2="294.9280306587842" stroke="rgb(0, 0, 0)" stroke-width="1" />
  <line x1="267.59614465917326" y1="452.9234238072371" x2="227.22149054840204" y2="289.0841791420004" stroke="rgb(0, 0, 0)" stroke-width="1" />
  <line x1="268.349498910769" y1="459.12785427034987" x2="229.4377710924179" y2="283.24032762521654" stroke="rgb(0, 0, 0)" stroke-width="1" />
  <line x1="269.1028531623648" y1="465.33228473346276" x2="231.65405163643373" y2="277.3964761084327" stroke="rgb(0, 0, 0)" stroke-width="1" />
  <line x1="269.85620741396053" y1="471.5367151965755" x2="233.8703321804496" y2="271.55262459164885" stroke="rgb(0, 0, 0)" stroke-width="1" />
  <line x1="270.6095616655563" y1="477.7411456596884" x2="236.08661272446545" y2="265.708773074865" stroke="rgb(0, 0, 0)" stroke-width="1" />
  <line x1="271.36291591715207" y1="483.9455761228012" x2="238.30289326848128" y2="259.86492155808116" stroke="rgb(0, 0, 0)" stroke-width="1" />
  <line x1="272.11627016874786" y1="490.15000658591407" x2="240.51917381249714" y2="254.0210700412973" stroke="rgb(0, 0, 0)" stroke-width="1" />
  <line x1="242.735454356513" y1="248.1772185245135" x2="272.8696244203436" y2="496.35443704902707" stroke="rgb(0, 0, 0)" stroke-width="1" />
  <line x1="246.28585902358273" y1="253.32086768634886" x2="272.1162701687478" y2="490.1500065859142" stroke="rgb(0, 0, 0)" stroke-width="1" />
  <line x1="249.83626369065246" y1="258.4645168481842" x2="271.36291591715207" y2="483.9455761228014" stroke="rgb(0, 0, 0)" stroke-width="1" />
  <line x1="253.3866683577222" y1="263.60816601001954" x2="270.60956166555627" y2="477.7411456596885" stroke="rgb(0, 0, 0)" stroke-width="1" />
  <line x1="256.9370730247919" y1="268.7518151718549" x2="269.85620741396053" y2="471.53671519657576" stroke="rgb(0, 0, 0)" stroke-width="1" />
  <line x1="260.4874776918616" y1="273.89546433369026" x2="269.10285316236474" y2="465.33228473346287" stroke="rgb(0, 0, 0)" stroke-width="1" />
  <line x1="264.03788235893137" y1="279.0391134955256" x2="268.349498910769" y2="459.1278542703501" stroke="rgb(0, 0, 0)" stroke-width="1" />
  <line x1="267.58828702600107" y1="284.18276265736097" x2="267.5961446591732" y2="452.9234238072372" stroke="rgb(0, 0, 0)" stroke-width="1" />
  <line x1="271.1386916930708" y1="289.3264118191963" x2="266.84279040757747" y2="446.71899334412444" stroke="rgb(0, 0, 0)" stroke-width="1" />
  <line x1="274.6890963601405" y1="294.4700609810317" x2="266.0894361559817" y2="440.51456288101156" stroke="rgb(0, 0, 0)" stroke-width="1" />
  <line x1="278.2395010272103" y1="299.613710142867" x2="265.33608190438594" y2="434.3101324178988" stroke="rgb(0, 0, 0)" stroke-width="1" />
  <line x1="281.78990569428" y1="304.75735930470233" x2="264.58272765279014" y2="428.1057019547859" stroke="rgb(0, 0, 0)" stroke-width="1" />
  <line x1="285.34031036134974" y1="309.9010084665377" x2="263.8293734011944" y2="421.9012714916731" stroke="rgb(0, 0, 0)" stroke-width="1" />
  <line x1="288.89071502841944" y1="315.04465762837305" x2="263.0760191495986" y2="415.69684102856024" stroke="rgb(0, 0, 0)" stroke-width="1" />
  <line x1="292.4411196954892" y1="320.1883067902084" x2="262.32266489800287" y2="409.49241056544747" stroke="rgb(0, 0, 0)" stroke-width="1" />
  <line x1="295.9915243625589" y1="325.33195595204376" x2="261.5693106464071" y2="403.2879801023346" stroke="rgb(0, 0, 0)" stroke-width="1" />
  <line x1="299.54192902962865" y1="330.4756051138791" x2="260.81595639481134" y2="397.0835496392218" stroke="rgb(0, 0, 0)" stroke-width="1" />
  <line x1="303.09233369669835" y1="335.61925427571447" x2="260.06260214321554" y2="390.87911917610893" stroke="rgb(0, 0, 0)" stroke-width="1" />
  <line x1="306.6427383637681" y1="340.7629034375498" x2="259.3092478916198" y2="384.67468871299616" stroke="rgb(0, 0, 0)" stroke-width="1" />
  <line x1="310.1931430308378" y1="345.9065525993852" x2="258.555893640024" y2="378.4702582498833" stroke="rgb(0, 0, 0)" stroke-width="1" />
  <line x1="313.74354769790756" y1="351.05020176122053" x2="257.8025393884283" y2="372.26582778677044" stroke="rgb(0, 0, 0)" stroke-width="1" />
  <line x1="317.29395236497726" y1="356.1938509230559" x2="257.0491851368325" y2="366.0613973236576" stroke="rgb(0, 0, 0)" stroke-width="1" />
  <line x1="320.844357032047" y1="361.33750008489125" x2="256.29583088523674" y2="359.8569668605448" stroke="rgb(0, 0, 0)" stroke-width="1" />
  <line x1="324.3947616991167" y1="366.4811492467266" x2="255.54247663364097" y2="353.65253639743196" stroke="rgb(0, 0, 0)" stroke-width="1" />
  <line x1="327.94516636618647" y1="371.62479840856196" x2="254.7891223820452" y2="347.4481059343191" stroke="rgb(0, 0, 0)" stroke-width="1" />
  <line x1="331.49557103325617" y1="376.7684475703973" x2="254.03576813044944" y2="341.24367547120625" stroke="rgb(0, 0, 0)" stroke-width="1" />
  <line x1="335.0459757003259" y1="381.91209673223267" x2="253.28241387885367" y2="335.0392450080934" stroke="rgb(0, 0, 0)" stroke-width="1" />
  <line x1="338.5963803673956" y1="387.055745894068" x2="252.5290596272579" y2="328.83481454498053" stroke="rgb(0, 0, 0)" stroke-width="1" />
  <line x1="342.1467850344654" y1="392.1993950559034" x2="251.77570537566214" y2="322.6303840818677" stroke="rgb(0, 0, 0)" stroke-width="1" />
  <line x1="345.6971897015351" y1="397.34304421773874" x2="251.02235112406638" y2="316.4259536187549" stroke="rgb(0, 0, 0)" stroke-width="1" />
  <line x1="349.24759436860484" y1="402.4866933795741" x2="250.2689968724706" y2="310.22152315564205" stroke="rgb(0, 0, 0)" stroke-width="1" />
  <line x1="352.79799903567454" y1="407.63034254140945" x2="249.51564262087484" y2="304.0170926925292" stroke="rgb(0, 0, 0)" stroke-width="1" />
  <line x1="356.3484037027443" y1="412.7739917032448" x2="248.76228836927908" y2="297.8126622294164" stroke="rgb(0, 0, 0)" stroke-width="1" />
  <line x1="359.898808369814" y1="417.91764086508016" x2="248.0089341176833" y2="291.60823176630356" stroke="rgb(0, 0, 0)" stroke-width="1" />
  <line x1="363.44921303688375" y1="423.0612900269155" x2="247.25557986608754" y2="285.4038013031907" stroke="rgb(0, 0, 0)" stroke-width="1" />
  <line x1="366.99961770395345" y1="428.20493918875087" x2="246.5022256144918" y2="279.19937084007785" stroke="rgb(0, 0, 0)" stroke-width="1" />
  <line x1="370.5500223710232" y1="433.3485883505862" x2="245.74887136289604" y2="272.994940376965" stroke="rgb(0, 0, 0)" stroke-width="1" />
  <line x1="374.1004270380929" y1="438.4922375124216" x2="244.99551711130027" y2="266.7905099138522" stroke="rgb(0, 0, 0)" stroke-width="1" />
  <line x1="377.65083170516266" y1="443.63588667425694" x2="244.2421628597045" y2="260.58607945073936" stroke="rgb(0, 0, 0)" stroke-width="1" />
  <line x1="381.20123637223236" y1="448.7795358360923" x2="243.48880860810874" y2="254.3816489876265" stroke="rgb(0, 0, 0)" stroke-width="1" />
  <line x1="242.735454356513" y1="248.1772185245135" x2="384.75164103930206" y2="453.9231849979275" stroke="rgb(0, 0, 0)" stroke-width="1" />
  <line x1="248.26955451684557" y1="251.08173834978706" x2="381.2012363722323" y2="448.7795358360921" stroke="rgb(0, 0, 0)" stroke-width="1" />
  <line x1="253.80365467717812" y1="253.9862581750606" x2="377.6508317051626" y2="443.63588667425677" stroke="rgb(0, 0, 0)" stroke-width="1" />
  <line x1="259.3377548375107" y1="256.89077800033414" x2="374.1004270380929" y2="438.4922375124214" stroke="rgb(0, 0, 0)" stroke-width="1" />
  <line x1="264.87185499784323" y1="259.7952978256077" x2="370.55002237102315" y2="433.34858835058606" stroke="rgb(0, 0, 0)" stroke-width="1" />
  <line x1="270.4059551581758" y1="262.69981765088124" x2="366.9996177039534" y2="428.2049391887507" stroke="rgb(0, 0, 0)" stroke-width="1" />
  <line x1="275.94005531850837" y1="265.6043374761548" x2="363.4492130368837" y2="423.06129002691534" stroke="rgb(0, 0, 0)" stroke-width="1" />
  <line x1="281.47415547884094" y1="268.50885730142835" x2="359.898808369814" y2="417.91764086508" stroke="rgb(0, 0, 0)" stroke-width="1" />
  <line x1="287.0082556391735" y1="271.4133771267019" x2="356.34840370274424" y2="412.77399170324463" stroke="rgb(0, 0, 0)" stroke-width="1" />
  <line x1="292.5423557995061" y1="274.31789695197546" x2="352.7979990356745" y2="407.6303425414093" stroke="rgb(0, 0, 0)" stroke-width="1" />
  <line x1="298.07645595983865" y1="277.222416777249" x2="349.2475943686048" y2="402.4866933795739" stroke="rgb(0, 0, 0)" stroke-width="1" />
  <line x1="303.61055612017117" y1="280.12693660252256" x2="345.6971897015351" y2="397.34304421773857" stroke="rgb(0, 0, 0)" stroke-width="1" />
  <line x1="309.14465628050374" y1="283.0314564277961" x2="342.1467850344653" y2="392.1993950559032" stroke="rgb(0, 0, 0)" stroke-width="1" />
  <line x1="314.6787564408363" y1="285.93597625306967" x2="338.59638036739557" y2="387.05574589406785" stroke="rgb(0, 0, 0)" stroke-width="1" />
  <line x1="320.2128566011689" y1="288.8404960783432" x2="335.04597570032587" y2="381.9120967322325" stroke="rgb(0, 0, 0)" stroke-width="1" />
  <line x1="325.74695676150145" y1="291.7450159036168" x2="331.49557103325617" y2="376.76844757039714" stroke="rgb(0, 0, 0)" stroke-width="1" />
  <line x1="331.28105692183397" y1="294.6495357288903" x2="327.9451663661864" y2="371.6247984085618" stroke="rgb(0, 0, 0)" stroke-width="1" />
  <line x1="336.81515708216654" y1="297.5540555541639" x2="324.39476169911666" y2="366.48114924672643" stroke="rgb(0, 0, 0)" stroke-width="1" />
  <line x1="342.3492572424991" y1="300.45857537943743" x2="320.84435703204696" y2="361.3375000848911" stroke="rgb(0, 0, 0)" stroke-width="1" />
  <line x1="347.8833574028316" y1="303.363095204711" x2="317.29395236497726" y2="356.1938509230557" stroke="rgb(0, 0, 0)" stroke-width="1" />
  <line x1="353.4174575631642" y1="306.26761502998454" x2="313.7435476979075" y2="351.05020176122036" stroke="rgb(0, 0, 0)" stroke-width="1" />
  <line x1="358.95155772349676" y1="309.1721348552581" x2="310.19314303083775" y2="345.906552599385" stroke="rgb(0, 0, 0)" stroke-width="1" />
  <line x1="364.48565788382933" y1="312.07665468053165" x2="306.64273836376805" y2="340.76290343754965" stroke="rgb(0, 0, 0)" stroke-width="1" />
  <line x1="370.0197580441619" y1="314.9811745058052" x2="303.09233369669835" y2="335.6192542757143" stroke="rgb(0, 0, 0)" stroke-width="1" />
  <line x1="375.5538582044944" y1="317.88569433107875" x2="299.5419290296286" y2="330.47560511387894" stroke="rgb(0, 0, 0)" stroke-width="1" />
  <line x1="381.08795836482705" y1="320.7902141563523" x2="295.99152436255883" y2="325.3319559520436" stroke="rgb(0, 0, 0)" stroke-width="1" />
  <line x1="386.62205852515956" y1="323.69473398162586" x2="292.44111969548914" y2="320.18830679020823" stroke="rgb(0, 0, 0)" stroke-width="1" />
  <line x1="392.1561586854922" y1="326.5992538068994" x2="288.89071502841944" y2="315.0446576283729" stroke="rgb(0, 0, 0)" stroke-width="1" />
  <line x1="397.6902588458247" y1="329.50377363217297" x2="285.3403103613497" y2="309.9010084665376" stroke="rgb(0, 0, 0)" stroke-width="1" />
  <line x1="403.22435900615733" y1="332.4082934574465" x2="281.7899056942799" y2="304.7573593047022" stroke="rgb(0, 0, 0)" stroke-width="1" />
  <line x1="408.75845916648984" y1="335.3128132827201" x2="278.2395010272102" y2="299.61371014286686" stroke="rgb(0, 0, 0)" stroke-width="1" />
  <line x1="414.29255932682247" y1="338.2173331079936" x2="274.6890963601405" y2="294.4700609810315" stroke="rgb(0, 0, 0)" stroke-width="1" />
  <line x1="419.826659487155" y1="341.1218529332672" x2="271.13869169307077" y2="289.32641181919615" stroke="rgb(0, 0, 0)" stroke-width="1" />
  <line x1="425.3607596474876" y1="344.02637275854073" x2="267.588287026001" y2="284.1827626573608" stroke="rgb(0, 0, 0)" stroke-width="1" />
  <line x1="430.8948598078201" y1="346.9308925838143" x2="264.0378823589313" y2="279.03911349552544" stroke="rgb(0, 0, 0)" stroke-width="1" />
  <line x1="436.42895996815275" y1="349.83541240908784" x2="260.4874776918616" y2="273.89546433369014" stroke="rgb(0, 0, 0)" stroke-width="1" />
  <line x1="441.96306012848527" y1="352.7399322343614" x2="256.93707302479186" y2="268.7518151718548" stroke="rgb(0, 0, 0)" stroke-width="1" />
  <line x1="447.4971602888179" y1="355.64445205963494" x2="253.38666835772213" y2="263.60816601001943" stroke="rgb(0, 0, 0)" stroke-width="1" />
  <line x1="453.0312604491504" y1="358.5489718849085" x2="249.8362636906524" y2="258.4645168481841" stroke="rgb(0, 0, 0)" stroke-width="1" />
  <line x1="458.56536060948304" y1="361.45349171018205" x2="246.28585902358267" y2="253.32086768634872" stroke="rgb(0, 0, 0)" stroke-width="1" />
  <line x1="242.735454356513" y1="248.1772185245135" x2="464.09946076981555" y2="364.3580115354556" stroke="rgb(0, 0, 0)" stroke-width="1" />
  <line x1="248.985454356513" y1="248.1772185245135" x2="458.5653606094829" y2="361.45349171018205" stroke="rgb(0, 0, 0)" stroke-width="1" />
  <line x1="255.235454356513" y1="248.1772185245135" x2="453.0312604491504" y2="358.5489718849085" stroke="rgb(0, 0, 0)" stroke-width="1" />
  <line x1="261.485454356513" y1="248.1772185245135" x2="447.4971602888178" y2="355.64445205963494" stroke="rgb(0, 0, 0)" stroke-width="1" />
  <line x1="267.735454356513" y1="248.1772185245135" x2="441.96306012848527" y2="352.7399322343614" stroke="rgb(0, 0, 0)" stroke-width="1" />
  <line x1="273.985454356513" y1="248.1772185245135" x2="436.42895996815264" y2="349.83541240908784" stroke="rgb(0, 0, 0)" stroke-width="1" />
  <line x1="280.235454356513" y1="248.1772185245135" x2="430.8948598078201" y2="346.9308925838143" stroke="rgb(0, 0, 0)" stroke-width="1" />
  <line x1="286.485454356513" y1="248.1772185245135" x2="425.3607596474875" y2="344.02637275854073" stroke="rgb(0, 0, 0)" stroke-width="1" />
  <line x1="292.735454356513" y1="248.1772185245135" x2="419.826659487155" y2="341.1218529332672" stroke="rgb(0, 0, 0)" stroke-width="1" />
  <line x1="298.985454356513" y1="248.1772185245135" x2="414.29255932682236" y2="338.2173331079936" stroke="rgb(0, 0, 0)" stroke-width="1" />
  <line x1="305.235454356513" y1="248.17721852451353" x2="408.75845916648984" y2="335.3128132827201" stroke="rgb(0, 0, 0)" stroke-width="1" />
  <line x1="311.485454356513" y1="248.17721852451353" x2="403.2243590061572" y2="332.4082934574465" stroke="rgb(0, 0, 0)" stroke-width="1" />
  <line x1="317.735454356513" y1="248.17721852451353" x2="397.6902588458247" y2="329.50377363217297" stroke="rgb(0, 0, 0)" stroke-width="1" />
  <line x1="323.985454356513" y1="248.17721852451353" x2="392.1561586854921" y2="326.5992538068994" stroke="rgb(0, 0, 0)" stroke-width="1" />
  <line x1="330.235454356513" y1="248.17721852451353" x2="386.62205852515956" y2="323.69473398162586" stroke="rgb(0, 0, 0)" stroke-width="1" />
  <line x1="336.485454356513" y1="248.17721852451353" x2="381.08795836482693" y2="320.7902141563523" stroke="rgb(0, 0, 0)" stroke-width="1" />
  <line x1="342.735454356513" y1="248.17721852451353" x2="375.5538582044944" y2="317.88569433107875" stroke="rgb(0, 0, 0)" stroke-width="1" />
  <line x1="348.985454356513" y1="248.17721852451353" x2="370.01975804416185" y2="314.9811745058052" stroke="rgb(0, 0, 0)" stroke-width="1" />
  <line x1="355.235454356513" y1="248.17721852451353" x2="364.4856578838293" y2="312.07665468053165" stroke="rgb(0, 0, 0)" stroke-width="1" />
  <line x1="361.485454356513" y1="248.17721852451353" x2="358.9515577234967" y2="309.1721348552581" stroke="rgb(0, 0, 0)" stroke-width="1" />
  <line x1="367.735454356513" y1="248.17721852451353" x2="353.41745756316413" y2="306.26761502998454" stroke="rgb(0, 0, 0)" stroke-width="1" />
  <line x1="373.985454356513" y1="248.17721852451353" x2="347.8833574028316" y2="303.363095204711" stroke="rgb(0, 0, 0)" stroke-width="1" />
  <line x1="380.235454356513" y1="248.17721852451353" x2="342.34925724249905" y2="300.45857537943743" stroke="rgb(0, 0, 0)" stroke-width="1" />
  <line x1="386.485454356513" y1="248.17721852451353" x2="336.8151570821665" y2="297.5540555541639" stroke="rgb(0, 0, 0)" stroke-width="1" />
  <line x1="392.735454356513" y1="248.17721852451353" x2="331.28105692183397" y2="294.6495357288903" stroke="rgb(0, 0, 0)" stroke-width="1" />
  <line x1="398.985454356513" y1="248.17721852451353" x2="325.7469567615014" y2="291.7450159036168" stroke="rgb(0, 0, 0)" stroke-width="1" />
  <line x1="405.235454356513" y1="248.17721852451353" x2="320.2128566011688" y2="288.8404960783432" stroke="rgb(0, 0, 0)" stroke-width="1" />
  <line x1="411.485454356513" y1="248.17721852451353" x2="314.67875644083625" y2="285.93597625306967" stroke="rgb(0, 0, 0)" stroke-width="1" />
  <line x1="417.735454356513" y1="248.17721852451356" x2="309.1446562805037" y2="283.0314564277961" stroke="rgb(0, 0, 0)" stroke-width="1" />
  <line x1="423.985454356513" y1="248.17721852451356" x2="303.61055612017117" y2="280.12693660252256" stroke="rgb(0, 0, 0)" stroke-width="1" />
  <line x1="430.235454356513" y1="248.17721852451356" x2="298.0764559598386" y2="277.222416777249" stroke="rgb(0, 0, 0)" stroke-width="1" />
  <line x1="436.485454356513" y1="248.17721852451356" x2="292.542355799506" y2="274.31789695197546" stroke="rgb(0, 0, 0)" stroke-width="1" />
  <line x1="442.735454356513" y1="248.17721852451356" x2="287.00825563917346" y2="271.4133771267019" stroke="rgb(0, 0, 0)" stroke-width="1" />
  <line x1="448.985454356513" y1="248.17721852451356" x2="281.4741554788409" y2="268.50885730142835" stroke="rgb(0, 0, 0)" stroke-width="1" />
  <line x1="455.235454356513" y1="248.17721852451356" x2="275.9400553185083" y2="265.6043374761548" stroke="rgb(0, 0, 0)" stroke-width="1" />
  <line x1="461.485454356513" y1="248.17721852451356" x2="270.40595515817574" y2="262.69981765088124" stroke="rgb(0, 0, 0)" stroke-width="1" />
  <line x1="467.735454356513" y1="248.17721852451356" x2="264.87185499784323" y2="259.7952978256077" stroke="rgb(0, 0, 0)" stroke-width="1" />
  <line x1="473.985454356513" y1="248.17721852451356" x2="259.33775483751066" y2="256.89077800033414" stroke="rgb(0, 0, 0)" stroke-width="1" />
  <line x1="480.235454356513" y1="248.17721852451356" x2="253.8036546771781" y2="253.98625817506058" stroke="rgb(0, 0, 0)" stroke-width="1" />
  <line x1="486.485454356513" y1="248.17721852451356" x2="248.26955451684552" y2="251.08173834978703" stroke="rgb(0, 0, 0)" stroke-width="1" />
</svg>
