<?xml version="1.0" encoding="UTF-8" ?>
<svg xmlns="http://www.w3.org/2000/svg" version="1.1" width="300.0" height="300">
  <rect x="145.0" y="0" width="10" height="10" stroke="black" stroke-width="1" fill="blue" />
  <rect x="140.0" y="10" width="10" height="10" stroke="black" stroke-width="1" fill="blue" />
  <rect x="150.0" y="10" width="10" height="10" stroke="black" stroke-width="1" fill="blue" />
  <rect x="135.0" y="20" width="10" height="10" stroke="black" stroke-width="1" fill="blue" />
  <rect x="145.0" y="20" width="10" height="10" stroke="black" stroke-width="1" fill="green" />
  <rect x="155.0" y="20" width="10" height="10" stroke="black" stroke-width="1" fill="blue" />
  <rect x="130.0" y="30" width="10" height="10" stroke="black" stroke-width="1" fill="blue" />
  <rect x="140.0" y="30" width="10" height="10" stroke="black" stroke-width="1" fill="yellow" />
  <rect x="150.0" y="30" width="10" height="10" stroke="black" stroke-width="1" fill="yellow" />
  <rect x="160.0" y="30" width="10" height="10" stroke="black" stroke-width="1" fill="blue" />
  <rect x="125.0" y="40" width="10" height="10" stroke="black" stroke-width="1" fill="blue" />
  <rect x="135.0" y="40" width="10" height="10" stroke="black" stroke-width="1" fill="cyan" />
  <rect x="145.0" y="40" width="10" height="10" stroke="black" stroke-width="1" fill="blue" />
  <rect x="155.0" y="40" width="10" height="10" stroke="black" stroke-width="1" fill="cyan" />
  <rect x="165.0" y="40" width="10" height="10" stroke="black" stroke-width="1" fill="blue" />
  <rect x="120.0" y="50" width="10" height="10" stroke="black" stroke-width="1" fill="blue" />
  <rect x="130.0" y="50" width="10" height="10" stroke="black" stroke-width="1" fill="red" />
  <rect x="140.0" y="50" width="10" height="10" stroke="black" stroke-width="1" fill="red" />
  <rect x="150.0" y="50" width="10" height="10" stroke="black" stroke-width="1" fill="red" />
  <rect x="160.0" y="50" width="10" height="10" stroke="black" stroke-width="1" fill="red" />
  <rect x="170.0" y="50" width="10" height="10" stroke="black" stroke-width="1" fill="blue" />
  <rect x="115.0" y="60" width="10" height="10" stroke="black" stroke-width="1" fill="blue" />
  <rect x="125.0" y="60" width="10" height="10" stroke="black" stroke-width="1" fill="blue" />
  <rect x="135.0" y="60" width="10" height="10" stroke="black" stroke-width="1" fill="red" />
  <rect x="145.0" y="60" width="10" height="10" stroke="black" stroke-width="1" fill="red" />
  <rect x="155.0" y="60" width="10" height="10" stroke="black" stroke-width="1" fill="red" />
  <rect x="165.0" y="60" width="10" height="10" stroke="black" stroke-width="1" fill="blue" />
  <rect x="175.0" y="60" width="10" height="10" stroke="black" stroke-width="1" fill="blue" />
  <rect x="110.0" y="70" width="10" height="10" stroke="black" stroke-width="1" fill="blue" />
  <rect x="120.0" y="70" width="10" height="10" stroke="black" stroke-width="1" fill="green" />
  <rect x="130.0" y="70" width="10" height="10" stroke="black" stroke-width="1" fill="blue" />
  <rect x="140.0" y="70" width="10" height="10" stroke="black" stroke-width="1" fill="red" />
  <rect x="150.0" y="70" width="10" height="10" stroke="black" stroke-width="1" fill="red" />
  <rect x="160.0" y="70" width="10" height="10" stroke="black" stroke-width="1" fill="blue" />
  <rect x="170.0" y="70" width="10" height="10" stroke="black" stroke-width="1" fill="green" />
  <rect x="180.0" y="70" width="10" height="10" stroke="black" stroke-width="1" fill="blue" />
  <rect x="105.0" y="80" width="10" height="10" stroke="black" stroke-width="1" fill="blue" />
  <rect x="115.0" y="80" width="10" height="10" stroke="black" stroke-width="1" fill="yellow" />
  <rect x="125.0" y="80" width="10" height="10" stroke="black" stroke-width="1" fill="yellow" />
  <rect x="135.0" y="80" width="10" height="10" stroke="black" stroke-width="1" fill="blue" />
  <rect x="145.0" y="80" width="10" height="10" stroke="black" stroke-width="1" fill="red" />
  <rect x="155.0" y="80" width="10" height="10" stroke="black" stroke-width="1" fill="blue" />
  <rect x="165.0" y="80" width="10" height="10" stroke="black" stroke-width="1" fill="yellow" />
  <rect x="175.0" y="80" width="10" height="10" stroke="black" stroke-width="1" fill="yellow" />
  <rect x="185.0" y="80" width="10" height="10" stroke="black" stroke-width="1" fill="blue" />
  <rect x="100.0" y="90" width="10" height="10" stroke="black" stroke-width="1" fill="blue" />
  <rect x="110.0" y="90" width="10" height="10" stroke="black" stroke-width="1" fill="cyan" />
  <rect x="120.0" y="90" width="10" height="10" stroke="black" stroke-width="1" fill="blue" />
  <rect x="130.0" y="90" width="10" height="10" stroke="black" stroke-width="1" fill="cyan" />
  <rect x="140.0" y="90" width="10" height="10" stroke="black" stroke-width="1" fill="blue" />
  <rect x="150.0" y="90" width="10" height="10" stroke="black" stroke-width="1" fill="blue" />
  <rect x="160.0" y="90" width="10" height="10" stroke="black" stroke-width="1" fill="cyan" />
  <rect x="170.0" y="90" width="10" height="10" stroke="black" stroke-width="1" fill="blue" />
  <rect x="180.0" y="90" width="10" height="10" stroke="black" stroke-width="1" fill="cyan" />
  <rect x="190.0" y="90" width="10" height="10" stroke="black" stroke-width="1" fill="blue" />
  <rect x="95.0" y="100" width="10" height="10" stroke="black" stroke-width="1" fill="blue" />
  <rect x="105.0" y="100" width="10" height="10" stroke="black" stroke-width="1" fill="red" />
  <rect x="115.0" y="100" width="10" height="10" stroke="black" stroke-width="1" fill="red" />
  <rect x="125.0" y="100" width="10" height="10" stroke="black" stroke-width="1" fill="red" />
  <rect x="135.0" y="100" width="10" height="10" stroke="black" stroke-width="1" fill="red" />
  <rect x="145.0" y="100" width="10" height="10" stroke="black" stroke-width="1" fill="green" />
  <rect x="155.0" y="100" width="10" height="10" stroke="black" stroke-width="1" fill="red" />
  <rect x="165.0" y="100" width="10" height="10" stroke="black" stroke-width="1" fill="red" />
  <rect x="175.0" y="100" width="10" height="10" stroke="black" stroke-width="1" fill="red" />
  <rect x="185.0" y="100" width="10" height="10" stroke="black" stroke-width="1" fill="red" />
  <rect x="195.0" y="100" width="10" height="10" stroke="black" stroke-width="1" fill="blue" />
  <rect x="90.0" y="110" width="10" height="10" stroke="black" stroke-width="1" fill="blue" />
  <rect x="100.0" y="110" width="10" height="10" stroke="black" stroke-width="1" fill="blue" />
  <rect x="110.0" y="110" width="10" height="10" stroke="black" stroke-width="1" fill="red" />
  <rect x="120.0" y="110" width="10" height="10" stroke="black" stroke-width="1" fill="red" />
  <rect x="130.0" y="110" width="10" height="10" stroke="black" stroke-width="1" fill="red" />
  <rect x="140.0" y="110" width="10" height="10" stroke="black" stroke-width="1" fill="green" />
  <rect x="150.0" y="110" width="10" height="10" stroke="black" stroke-width="1" fill="green" />
  <rect x="160.0" y="110" width="10" height="10" stroke="black" stroke-width="1" fill="red" />
  <rect x="170.0" y="110" width="10" height="10" stroke="black" stroke-width="1" fill="red" />
  <rect x="180.0" y="110" width="10" height="10" stroke="black" stroke-width="1" fill="red" />
  <rect x="190.0" y="110" width="10" height="10" stroke="black" stroke-width="1" fill="blue" />
  <rect x="200.0" y="110" width="10" height="10" stroke="black" stroke-width="1" fill="blue" />
  <rect x="85.0" y="120" width="10" height="10" stroke="black" stroke-width="1" fill="blue" />
  <rect x="95.0" y="120" width="10" height="10" stroke="black" stroke-width="1" fill="green" />
  <rect x="105.0" y="120" width="10" height="10" stroke="black" stroke-width="1" fill="blue" />
  <rect x="115.0" y="120" width="10" height="10" stroke="black" stroke-width="1" fill="red" />
  <rect x="125.0" y="120" width="10" height="10" stroke="black" stroke-width="1" fill="red" />
  <rect x="135.0" y="120" width="10" height="10" stroke="black" stroke-width="1" fill="green" />
  <rect x="145.0" y="120" width="10" height="10" stroke="black" stroke-width="1" fill="cyan" />
  <rect x="155.0" y="120" width="10" height="10" stroke="black" stroke-width="1" fill="green" />
  <rect x="165.0" y="120" width="10" height="10" stroke="black" stroke-width="1" fill="red" />
  <rect x="175.0" y="120" width="10" height="10" stroke="black" stroke-width="1" fill="red" />
  <rect x="185.0" y="120" width="10" height="10" stroke="black" stroke-width="1" fill="blue" />
  <rect x="195.0" y="120" width="10" height="10" stroke="black" stroke-width="1" fill="green" />
  <rect x="205.0" y="120" width="10" height="10" stroke="black" stroke-width="1" fill="blue" />
  <rect x="80.0" y="130" width="10" height="10" stroke="black" stroke-width="1" fill="blue" />
  <rect x="90.0" y="130" width="10" height="10" stroke="black" stroke-width="1" fill="yellow" />
  <rect x="100.0" y="130" width="10" height="10" stroke="black" stroke-width="1" fill="yellow" />
  <rect x="110.0" y="130" width="10" height="10" stroke="black" stroke-width="1" fill="blue" />
  <rect x="120.0" y="130" width="10" height="10" stroke="black" stroke-width="1" fill="red" />
  <rect x="130.0" y="130" width="10" height="10" stroke="black" stroke-width="1" fill="green" />
  <rect x="140.0" y="130" width="10" height="10" stroke="black" stroke-width="1" fill="blue" />
  <rect x="150.0" y="130" width="10" height="10" stroke="black" stroke-width="1" fill="blue" />
  <rect x="160.0" y="130" width="10" height="10" stroke="black" stroke-width="1" fill="green" />
  <rect x="170.0" y="130" width="10" height="10" stroke="black" stroke-width="1" fill="red" />
  <rect x="180.0" y="130" width="10" height="10" stroke="black" stroke-width="1" fill="blue" />
  <rect x="190.0" y="130" width="10" height="10" stroke="black" stroke-width="1" fill="yellow" />
  <rect x="200.0" y="130" width="10" height="10" stroke="black" stroke-width="1" fill="yellow" />
  <rect x="210.0" y="130" width="10" height="10" stroke="black" stroke-width="1" fill="blue" />
  <rect x="75.0" y="140" width="10" height="10" stroke="black" stroke-width="1" fill="blue" />
  <rect x="85.0" y="140" width="10" height="10" stroke="black" stroke-width="1" fill="cyan" />
  <rect x="95.0" y="140" width="10" height="10" stroke="black" stroke-width="1" fill="blue" />
  <rect x="105.0" y="140" width="10" height="10" stroke="black" stroke-width="1" fill="cyan" />
  <rect x="115.0" y="140" width="10" height="10" stroke="black" stroke-width="1" fill="blue" />
  <rect x="125.0" y="140" width="10" height="10" stroke="black" stroke-width="1" fill="green" />
  <rect x="135.0" y="140" width="10" height="10" stroke="black" stroke-width="1" fill="yellow" />
  <rect x="145.0" y="140" width="10" height="10" stroke="black" stroke-width="1" fill="green" />
  <rect x="155.0" y="140" width="10" height="10" stroke="black" stroke-width="1" fill="yellow" />
  <rect x="165.0" y="140" width="10" height="10" stroke="black" stroke-width="1" fill="green" />
  <rect x="175.0" y="140" width="10" height="10" stroke="black" stroke-width="1" fill="blue" />
  <rect x="185.0" y="140" width="10" height="10" stroke="black" stroke-width="1" fill="cyan" />
  <rect x="195.0" y="140" width="10" height="10" stroke="black" stroke-width="1" fill="blue" />
  <rect x="205.0" y="140" width="10" height="10" stroke="black" stroke-width="1" fill="cyan" />
  <rect x="215.0" y="140" width="10" height="10" stroke="black" stroke-width="1" fill="blue" />
  <rect x="70.0" y="150" width="10" height="10" stroke="black" stroke-width="1" fill="blue" />
  <rect x="80.0" y="150" width="10" height="10" stroke="black" stroke-width="1" fill="red" />
  <rect x="90.0" y="150" width="10" height="10" stroke="black" stroke-width="1" fill="red" />
  <rect x="100.0" y="150" width="10" height="10" stroke="black" stroke-width="1" fill="red" />
  <rect x="110.0" y="150" width="10" height="10" stroke="black" stroke-width="1" fill="red" />
  <rect x="120.0" y="150" width="10" height="10" stroke="black" stroke-width="1" fill="yellow" />
  <rect x="130.0" y="150" width="10" height="10" stroke="black" stroke-width="1" fill="red" />
  <rect x="140.0" y="150" width="10" height="10" stroke="black" stroke-width="1" fill="red" />
  <rect x="150.0" y="150" width="10" height="10" stroke="black" stroke-width="1" fill="red" />
  <rect x="160.0" y="150" width="10" height="10" stroke="black" stroke-width="1" fill="red" />
  <rect x="170.0" y="150" width="10" height="10" stroke="black" stroke-width="1" fill="yellow" />
  <rect x="180.0" y="150" width="10" height="10" stroke="black" stroke-width="1" fill="red" />
  <rect x="190.0" y="150" width="10" height="10" stroke="black" stroke-width="1" fill="red" />
  <rect x="200.0" y="150" width="10" height="10" stroke="black" stroke-width="1" fill="red" />
  <rect x="210.0" y="150" width="10" height="10" stroke="black" stroke-width="1" fill="red" />
  <rect x="220.0" y="150" width="10" height="10" stroke="black" stroke-width="1" fill="blue" />
  <rect x="65.0" y="160" width="10" height="10" stroke="black" stroke-width="1" fill="blue" />
  <rect x="75.0" y="160" width="10" height="10" stroke="black" stroke-width="1" fill="blue" />
  <rect x="85.0" y="160" width="10" height="10" stroke="black" stroke-width="1" fill="red" />
  <rect x="95.0" y="160" width="10" height="10" stroke="black" stroke-width="1" fill="red" />
  <rect x="105.0" y="160" width="10" height="10" stroke="black" stroke-width="1" fill="red" />
  <rect x="115.0" y="160" width="10" height="10" stroke="black" stroke-width="1" fill="yellow" />
  <rect x="125.0" y="160" width="10" height="10" stroke="black" stroke-width="1" fill="yellow" />
  <rect x="135.0" y="160" width="10" height="10" stroke="black" stroke-width="1" fill="red" />
  <rect x="145.0" y="160" width="10" height="10" stroke="black" stroke-width="1" fill="red" />
  <rect x="155.0" y="160" width="10" height="10" stroke="black" stroke-width="1" fill="red" />
  <rect x="165.0" y="160" width="10" height="10" stroke="black" stroke-width="1" fill="yellow" />
  <rect x="175.0" y="160" width="10" height="10" stroke="black" stroke-width="1" fill="yellow" />
  <rect x="185.0" y="160" width="10" height="10" stroke="black" stroke-width="1" fill="red" />
  <rect x="195.0" y="160" width="10" height="10" stroke="black" stroke-width="1" fill="red" />
  <rect x="205.0" y="160" width="10" height="10" stroke="black" stroke-width="1" fill="red" />
  <rect x="215.0" y="160" width="10" height="10" stroke="black" stroke-width="1" fill="blue" />
  <rect x="225.0" y="160" width="10" height="10" stroke="black" stroke-width="1" fill="blue" />
  <rect x="60.0" y="170" width="10" height="10" stroke="black" stroke-width="1" fill="blue" />
  <rect x="70.0" y="170" width="10" height="10" stroke="black" stroke-width="1" fill="green" />
  <rect x="80.0" y="170" width="10" height="10" stroke="black" stroke-width="1" fill="blue" />
  <rect x="90.0" y="170" width="10" height="10" stroke="black" stroke-width="1" fill="red" />
  <rect x="100.0" y="170" width="10" height="10" stroke="black" stroke-width="1" fill="red" />
  <rect x="110.0" y="170" width="10" height="10" stroke="black" stroke-width="1" fill="yellow" />
  <rect x="120.0" y="170" width="10" height="10" stroke="black" stroke-width="1" fill="blue" />
  <rect x="130.0" y="170" width="10" height="10" stroke="black" stroke-width="1" fill="yellow" />
  <rect x="140.0" y="170" width="10" height="10" stroke="black" stroke-width="1" fill="red" />
  <rect x="150.0" y="170" width="10" height="10" stroke="black" stroke-width="1" fill="red" />
  <rect x="160.0" y="170" width="10" height="10" stroke="black" stroke-width="1" fill="yellow" />
  <rect x="170.0" y="170" width="10" height="10" stroke="black" stroke-width="1" fill="blue" />
  <rect x="180.0" y="170" width="10" height="10" stroke="black" stroke-width="1" fill="yellow" />
  <rect x="190.0" y="170" width="10" height="10" stroke="black" stroke-width="1" fill="red" />
  <rect x="200.0" y="170" width="10" height="10" stroke="black" stroke-width="1" fill="red" />
  <rect x="210.0" y="170" width="10" height="10" stroke="black" stroke-width="1" fill="blue" />
  <rect x="220.0" y="170" width="10" height="10" stroke="black" stroke-width="1" fill="green" />
  <rect x="230.0" y="170" width="10" height="10" stroke="black" stroke-width="1" fill="blue" />
  <rect x="55.0" y="180" width="10" height="10" stroke="black" stroke-width="1" fill="blue" />
  <rect x="65.0" y="180" width="10" height="10" stroke="black" stroke-width="1" fill="yellow" />
  <rect x="75.0" y="180" width="10" height="10" stroke="black" stroke-width="1" fill="yellow" />
  <rect x="85.0" y="180" width="10" height="10" stroke="black" stroke-width="1" fill="blue" />
  <rect x="95.0" y="180" width="10" height="10" stroke="black" stroke-width="1" fill="red" />
  <rect x="105.0" y="180" width="10" height="10" stroke="black" stroke-width="1" fill="yellow" />
  <rect x="115.0" y="180" width="10" height="10" stroke="black" stroke-width="1" fill="cyan" />
  <rect x="125.0" y="180" width="10" height="10" stroke="black" stroke-width="1" fill="cyan" />
  <rect x="135.0" y="180" width="10" height="10" stroke="black" stroke-width="1" fill="yellow" />
  <rect x="145.0" y="180" width="10" height="10" stroke="black" stroke-width="1" fill="red" />
  <rect x="155.0" y="180" width="10" height="10" stroke="black" stroke-width="1" fill="yellow" />
  <rect x="165.0" y="180" width="10" height="10" stroke="black" stroke-width="1" fill="cyan" />
  <rect x="175.0" y="180" width="10" height="10" stroke="black" stroke-width="1" fill="cyan" />
  <rect x="185.0" y="180" width="10" height="10" stroke="black" stroke-width="1" fill="yellow" />
  <rect x="195.0" y="180" width="10" height="10" stroke="black" stroke-width="1" fill="red" />
  <rect x="205.0" y="180" width="10" height="10" stroke="black" stroke-width="1" fill="blue" />
  <rect x="215.0" y="180" width="10" height="10" stroke="black" stroke-width="1" fill="yellow" />
  <rect x="225.0" y="180" width="10" height="10" stroke="black" stroke-width="1" fill="yellow" />
  <rect x="235.0" y="180" width="10" height="10" stroke="black" stroke-width="1" fill="blue" />
  <rect x="50.0" y="190" width="10" height="10" stroke="black" stroke-width="1" fill="blue" />
  <rect x="60.0" y="190" width="10" height="10" stroke="black" stroke-width="1" fill="cyan" />
  <rect x="70.0" y="190" width="10" height="10" stroke="black" stroke-width="1" fill="blue" />
  <rect x="80.0" y="190" width="10" height="10" stroke="black" stroke-width="1" fill="cyan" />
  <rect x="90.0" y="190" width="10" height="10" stroke="black" stroke-width="1" fill="blue" />
  <rect x="100.0" y="190" width="10" height="10" stroke="black" stroke-width="1" fill="yellow" />
  <rect x="110.0" y="190" width="10" height="10" stroke="black" stroke-width="1" fill="green" />
  <rect x="120.0" y="190" width="10" height="10" stroke="black" stroke-width="1" fill="yellow" />
  <rect x="130.0" y="190" width="10" height="10" stroke="black" stroke-width="1" fill="green" />
  <rect x="140.0" y="190" width="10" height="10" stroke="black" stroke-width="1" fill="yellow" />
  <rect x="150.0" y="190" width="10" height="10" stroke="black" stroke-width="1" fill="yellow" />
  <rect x="160.0" y="190" width="10" height="10" stroke="black" stroke-width="1" fill="green" />
  <rect x="170.0" y="190" width="10" height="10" stroke="black" stroke-width="1" fill="yellow" />
  <rect x="180.0" y="190" width="10" height="10" stroke="black" stroke-width="1" fill="green" />
  <rect x="190.0" y="190" width="10" height="10" stroke="black" stroke-width="1" fill="yellow" />
  <rect x="200.0" y="190" width="10" height="10" stroke="black" stroke-width="1" fill="blue" />
  <rect x="210.0" y="190" width="10" height="10" stroke="black" stroke-width="1" fill="cyan" />
  <rect x="220.0" y="190" width="10" height="10" stroke="black" stroke-width="1" fill="blue" />
  <rect x="230.0" y="190" width="10" height="10" stroke="black" stroke-width="1" fill="cyan" />
  <rect x="240.0" y="190" width="10" height="10" stroke="black" stroke-width="1" fill="blue" />
  <rect x="45.0" y="200" width="10" height="10" stroke="black" stroke-width="1" fill="blue" />
  <rect x="55.0" y="200" width="10" height="10" stroke="black" stroke-width="1" fill="red" />
  <rect x="65.0" y="200" width="10" height="10" stroke="black" stroke-width="1" fill="red" />
  <rect x="75.0" y="200" width="10" height="10" stroke="black" stroke-width="1" fill="red" />
  <rect x="85.0" y="200" width="10" height="10" stroke="black" stroke-width="1" fill="red" />
  <rect x="95.0" y="200" width="10" height="10" stroke="black" stroke-width="1" fill="cyan" />
  <rect x="105.0" y="200" width="10" height="10" stroke="black" stroke-width="1" fill="red" />
  <rect x="115.0" y="200" width="10" height="10" stroke="black" stroke-width="1" fill="red" />
  <rect x="125.0" y="200" width="10" height="10" stroke="black" stroke-width="1" fill="red" />
  <rect x="135.0" y="200" width="10" height="10" stroke="black" stroke-width="1" fill="red" />
  <rect x="145.0" y="200" width="10" height="10" stroke="black" stroke-width="1" fill="blue" />
  <rect x="155.0" y="200" width="10" height="10" stroke="black" stroke-width="1" fill="red" />
  <rect x="165.0" y="200" width="10" height="10" stroke="black" stroke-width="1" fill="red" />
  <rect x="175.0" y="200" width="10" height="10" stroke="black" stroke-width="1" fill="red" />
  <rect x="185.0" y="200" width="10" height="10" stroke="black" stroke-width="1" fill="red" />
  <rect x="195.0" y="200" width="10" height="10" stroke="black" stroke-width="1" fill="cyan" />
  <rect x="205.0" y="200" width="10" height="10" stroke="black" stroke-width="1" fill="red" />
  <rect x="215.0" y="200" width="10" height="10" stroke="black" stroke-width="1" fill="red" />
  <rect x="225.0" y="200" width="10" height="10" stroke="black" stroke-width="1" fill="red" />
  <rect x="235.0" y="200" width="10" height="10" stroke="black" stroke-width="1" fill="red" />
  <rect x="245.0" y="200" width="10" height="10" stroke="black" stroke-width="1" fill="blue" />
  <rect x="40.0" y="210" width="10" height="10" stroke="black" stroke-width="1" fill="blue" />
  <rect x="50.0" y="210" width="10" height="10" stroke="black" stroke-width="1" fill="blue" />
  <rect x="60.0" y="210" width="10" height="10" stroke="black" stroke-width="1" fill="red" />
  <rect x="70.0" y="210" width="10" height="10" stroke="black" stroke-width="1" fill="red" />
  <rect x="80.0" y="210" width="10" height="10" stroke="black" stroke-width="1" fill="red" />
  <rect x="90.0" y="210" width="10" height="10" stroke="black" stroke-width="1" fill="cyan" />
  <rect x="100.0" y="210" width="10" height="10" stroke="black" stroke-width="1" fill="cyan" />
  <rect x="110.0" y="210" width="10" height="10" stroke="black" stroke-width="1" fill="red" />
  <rect x="120.0" y="210" width="10" height="10" stroke="black" stroke-width="1" fill="red" />
  <rect x="130.0" y="210" width="10" height="10" stroke="black" stroke-width="1" fill="red" />
  <rect x="140.0" y="210" width="10" height="10" stroke="black" stroke-width="1" fill="blue" />
  <rect x="150.0" y="210" width="10" height="10" stroke="black" stroke-width="1" fill="blue" />
  <rect x="160.0" y="210" width="10" height="10" stroke="black" stroke-width="1" fill="red" />
  <rect x="170.0" y="210" width="10" height="10" stroke="black" stroke-width="1" fill="red" />
  <rect x="180.0" y="210" width="10" height="10" stroke="black" stroke-width="1" fill="red" />
  <rect x="190.0" y="210" width="10" height="10" stroke="black" stroke-width="1" fill="cyan" />
  <rect x="200.0" y="210" width="10" height="10" stroke="black" stroke-width="1" fill="cyan" />
  <rect x="210.0" y="210" width="10" height="10" stroke="black" stroke-width="1" fill="red" />
  <rect x="220.0" y="210" width="10" height="10" stroke="black" stroke-width="1" fill="red" />
  <rect x="230.0" y="210" width="10" height="10" stroke="black" stroke-width="1" fill="red" />
  <rect x="240.0" y="210" width="10" height="10" stroke="black" stroke-width="1" fill="blue" />
  <rect x="250.0" y="210" width="10" height="10" stroke="black" stroke-width="1" fill="blue" />
  <rect x="35.0" y="220" width="10" height="10" stroke="black" stroke-width="1" fill="blue" />
  <rect x="45.0" y="220" width="10" height="10" stroke="black" stroke-width="1" fill="green" />
  <rect x="55.0" y="220" width="10" height="10" stroke="black" stroke-width="1" fill="blue" />
  <rect x="65.0" y="220" width="10" height="10" stroke="black" stroke-width="1" fill="red" />
  <rect x="75.0" y="220" width="10" height="10" stroke="black" stroke-width="1" fill="red" />
  <rect x="85.0" y="220" width="10" height="10" stroke="black" stroke-width="1" fill="cyan" />
  <rect x="95.0" y="220" width="10" height="10" stroke="black" stroke-width="1" fill="yellow" />
  <rect x="105.0" y="220" width="10" height="10" stroke="black" stroke-width="1" fill="cyan" />
  <rect x="115.0" y="220" width="10" height="10" stroke="black" stroke-width="1" fill="red" />
  <rect x="125.0" y="220" width="10" height="10" stroke="black" stroke-width="1" fill="red" />
  <rect x="135.0" y="220" width="10" height="10" stroke="black" stroke-width="1" fill="blue" />
  <rect x="145.0" y="220" width="10" height="10" stroke="black" stroke-width="1" fill="green" />
  <rect x="155.0" y="220" width="10" height="10" stroke="black" stroke-width="1" fill="blue" />
  <rect x="165.0" y="220" width="10" height="10" stroke="black" stroke-width="1" fill="red" />
  <rect x="175.0" y="220" width="10" height="10" stroke="black" stroke-width="1" fill="red" />
  <rect x="185.0" y="220" width="10" height="10" stroke="black" stroke-width="1" fill="cyan" />
  <rect x="195.0" y="220" width="10" height="10" stroke="black" stroke-width="1" fill="yellow" />
  <rect x="205.0" y="220" width="10" height="10" stroke="black" stroke-width="1" fill="cyan" />
  <rect x="215.0" y="220" width="10" height="10" stroke="black" stroke-width="1" fill="red" />
  <rect x="225.0" y="220" width="10" height="10" stroke="black" stroke-width="1" fill="red" />
  <rect x="235.0" y="220" width="10" height="10" stroke="black" stroke-width="1" fill="blue" />
  <rect x="245.0" y="220" width="10" height="10" stroke="black" stroke-width="1" fill="green" />
  <rect x="255.0" y="220" width="10" height="10" stroke="black" stroke-width="1" fill="blue" />
  <rect x="30.0" y="230" width="10" height="10" stroke="black" stroke-width="1" fill="blue" />
  <rect x="40.0" y="230" width="10" height="10" stroke="black" stroke-width="1" fill="yellow" />
  <rect x="50.0" y="230" width="10" height="10" stroke="black" stroke-width="1" fill="yellow" />
  <rect x="60.0" y="230" width="10" height="10" stroke="black" stroke-width="1" fill="blue" />
  <rect x="70.0" y="230" width="10" height="10" stroke="black" stroke-width="1" fill="red" />
  <rect x="80.0" y="230" width="10" height="10" stroke="black" stroke-width="1" fill="cyan" />
  <rect x="90.0" y="230" width="10" height="10" stroke="black" stroke-width="1" fill="green" />
  <rect x="100.0" y="230" width="10" height="10" stroke="black" stroke-width="1" fill="green" />
  <rect x="110.0" y="230" width="10" height="10" stroke="black" stroke-width="1" fill="cyan" />
  <rect x="120.0" y="230" width="10" height="10" stroke="black" stroke-width="1" fill="red" />
  <rect x="130.0" y="230" width="10" height="10" stroke="black" stroke-width="1" fill="blue" />
  <rect x="140.0" y="230" width="10" height="10" stroke="black" stroke-width="1" fill="yellow" />
  <rect x="150.0" y="230" width="10" height="10" stroke="black" stroke-width="1" fill="yellow" />
  <rect x="160.0" y="230" width="10" height="10" stroke="black" stroke-width="1" fill="blue" />
  <rect x="170.0" y="230" width="10" height="10" stroke="black" stroke-width="1" fill="red" />
  <rect x="180.0" y="230" width="10" height="10" stroke="black" stroke-width="1" fill="cyan" />
  <rect x="190.0" y="230" width="10" height="10" stroke="black" stroke-width="1" fill="green" />
  <rect x="200.0" y="230" width="10" height="10" stroke="black" stroke-width="1" fill="green" />
  <rect x="210.0" y="230" width="10" height="10" stroke="black" stroke-width="1" fill="cyan" />
  <rect x="220.0" y="230" width="10" height="10" stroke="black" stroke-width="1" fill="red" />
  <rect x="230.0" y="230" width="10" height="10" stroke="black" stroke-width="1" fill="blue" />
  <rect x="240.0" y="230" width="10" height="10" stroke="black" stroke-width="1" fill="yellow" />
  <rect x="250.0" y="230" width="10" height="10" stroke="black" stroke-width="1" fill="yellow" />
  <rect x="260.0" y="230" width="10" height="10" stroke="black" stroke-width="1" fill="blue" />
  <rect x="25.0" y="240" width="10" height="10" stroke="black" stroke-width="1" fill="blue" />
  <rect x="35.0" y="240" width="10" height="10" stroke="black" stroke-width="1" fill="cyan" />
  <rect x="45.0" y="240" width="10" height="10" stroke="black" stroke-width="1" fill="blue" />
  <rect x="55.0" y="240" width="10" height="10" stroke="black" stroke-width="1" fill="cyan" />
  <rect x="65.0" y="240" width="10" height="10" stroke="black" stroke-width="1" fill="blue" />
  <rect x="75.0" y="240" width="10" height="10" stroke="black" stroke-width="1" fill="cyan" />
  <rect x="85.0" y="240" width="10" height="10" stroke="black" stroke-width="1" fill="blue" />
  <rect x="95.0" y="240" width="10" height="10" stroke="black" stroke-width="1" fill="cyan" />
  <rect x="105.0" y="240" width="10" height="10" stroke="black" stroke-width="1" fill="blue" />
  <rect x="115.0" y="240" width="10" height="10" stroke="black" stroke-width="1" fill="cyan" />
  <rect x="125.0" y="240" width="10" height="10" stroke="black" stroke-width="1" fill="blue" />
  <rect x="135.0" y="240" width="10" height="10" stroke="black" stroke-width="1" fill="cyan" />
  <rect x="145.0" y="240" width="10" height="10" stroke="black" stroke-width="1" fill="blue" />
  <rect x="155.0" y="240" width="10" height="10" stroke="black" stroke-width="1" fill="cyan" />
  <rect x="165.0" y="240" width="10" height="10" stroke="black" stroke-width="1" fill="blue" />
  <rect x="175.0" y="240" width="10" height="10" stroke="black" stroke-width="1" fill="cyan" />
  <rect x="185.0" y="240" width="10" height="10" stroke="black" stroke-width="1" fill="blue" />
  <rect x="195.0" y="240" width="10" height="10" stroke="black" stroke-width="1" fill="cyan" />
  <rect x="205.0" y="240" width="10" height="10" stroke="black" stroke-width="1" fill="blue" />
  <rect x="215.0" y="240" width="10" height="10" stroke="black" stroke-width="1" fill="cyan" />
  <rect x="225.0" y="240" width="10" height="10" stroke="black" stroke-width="1" fill="blue" />
  <rect x="235.0" y="240" width="10" height="10" stroke="black" stroke-width="1" fill="cyan" />
  <rect x="245.0" y="240" width="10" height="10" stroke="black" stroke-width="1" fill="blue" />
  <rect x="255.0" y="240" width="10" height="10" stroke="black" stroke-width="1" fill="cyan" />
  <rect x="265.0" y="240" width="10" height="10" stroke="black" stroke-width="1" fill="blue" />
  <rect x="20.0" y="250" width="10" height="10" stroke="black" stroke-width="1" fill="blue" />
  <rect x="30.0" y="250" width="10" height="10" stroke="black" stroke-width="1" fill="red" />
  <rect x="40.0" y="250" width="10" height="10" stroke="black" stroke-width="1" fill="red" />
  <rect x="50.0" y="250" width="10" height="10" stroke="black" stroke-width="1" fill="red" />
  <rect x="60.0" y="250" width="10" height="10" stroke="black" stroke-width="1" fill="red" />
  <rect x="70.0" y="250" width="10" height="10" stroke="black" stroke-width="1" fill="red" />
  <rect x="80.0" y="250" width="10" height="10" stroke="black" stroke-width="1" fill="red" />
  <rect x="90.0" y="250" width="10" height="10" stroke="black" stroke-width="1" fill="red" />
  <rect x="100.0" y="250" width="10" height="10" stroke="black" stroke-width="1" fill="red" />
  <rect x="110.0" y="250" width="10" height="10" stroke="black" stroke-width="1" fill="red" />
  <rect x="120.0" y="250" width="10" height="10" stroke="black" stroke-width="1" fill="red" />
  <rect x="130.0" y="250" width="10" height="10" stroke="black" stroke-width="1" fill="red" />
  <rect x="140.0" y="250" width="10" height="10" stroke="black" stroke-width="1" fill="red" />
  <rect x="150.0" y="250" width="10" height="10" stroke="black" stroke-width="1" fill="red" />
  <rect x="160.0" y="250" width="10" height="10" stroke="black" stroke-width="1" fill="red" />
  <rect x="170.0" y="250" width="10" height="10" stroke="black" stroke-width="1" fill="red" />
  <rect x="180.0" y="250" width="10" height="10" stroke="black" stroke-width="1" fill="red" />
  <rect x="190.0" y="250" width="10" height="10" stroke="black" stroke-width="1" fill="red" />
  <rect x="200.0" y="250" width="10" height="10" stroke="black" stroke-width="1" fill="red" />
  <rect x="210.0" y="250" width="10" height="10" stroke="black" stroke-width="1" fill="red" />
  <rect x="220.0" y="250" width="10" height="10" stroke="black" stroke-width="1" fill="red" />
  <rect x="230.0" y="250" width="10" height="10" stroke="black" stroke-width="1" fill="red" />
  <rect x="240.0" y="250" width="10" height="10" stroke="black" stroke-width="1" fill="red" />
  <rect x="250.0" y="250" width="10" height="10" stroke="black" stroke-width="1" fill="red" />
  <rect x="260.0" y="250" width="10" height="10" stroke="black" stroke-width="1" fill="red" />
  <rect x="270.0" y="250" width="10" height="10" stroke="black" stroke-width="1" fill="blue" />
  <rect x="15.0" y="260" width="10" height="10" stroke="black" stroke-width="1" fill="blue" />
  <rect x="25.0" y="260" width="10" height="10" stroke="black" stroke-width="1" fill="blue" />
  <rect x="35.0" y="260" width="10" height="10" stroke="black" stroke-width="1" fill="red" />
  <rect x="45.0" y="260" width="10" height="10" stroke="black" stroke-width="1" fill="red" />
  <rect x="55.0" y="260" width="10" height="10" stroke="black" stroke-width="1" fill="red" />
  <rect x="65.0" y="260" width="10" height="10" stroke="black" stroke-width="1" fill="red" />
  <rect x="75.0" y="260" width="10" height="10" stroke="black" stroke-width="1" fill="red" />
  <rect x="85.0" y="260" width="10" height="10" stroke="black" stroke-width="1" fill="red" />
  <rect x="95.0" y="260" width="10" height="10" stroke="black" stroke-width="1" fill="red" />
  <rect x="105.0" y="260" width="10" height="10" stroke="black" stroke-width="1" fill="red" />
  <rect x="115.0" y="260" width="10" height="10" stroke="black" stroke-width="1" fill="red" />
  <rect x="125.0" y="260" width="10" height="10" stroke="black" stroke-width="1" fill="red" />
  <rect x="135.0" y="260" width="10" height="10" stroke="black" stroke-width="1" fill="red" />
  <rect x="145.0" y="260" width="10" height="10" stroke="black" stroke-width="1" fill="red" />
  <rect x="155.0" y="260" width="10" height="10" stroke="black" stroke-width="1" fill="red" />
  <rect x="165.0" y="260" width="10" height="10" stroke="black" stroke-width="1" fill="red" />
  <rect x="175.0" y="260" width="10" height="10" stroke="black" stroke-width="1" fill="red" />
  <rect x="185.0" y="260" width="10" height="10" stroke="black" stroke-width="1" fill="red" />
  <rect x="195.0" y="260" width="10" height="10" stroke="black" stroke-width="1" fill="red" />
  <rect x="205.0" y="260" width="10" height="10" stroke="black" stroke-width="1" fill="red" />
  <rect x="215.0" y="260" width="10" height="10" stroke="black" stroke-width="1" fill="red" />
  <rect x="225.0" y="260" width="10" height="10" stroke="black" stroke-width="1" fill="red" />
  <rect x="235.0" y="260" width="10" height="10" stroke="black" stroke-width="1" fill="red" />
  <rect x="245.0" y="260" width="10" height="10" stroke="black" stroke-width="1" fill="red" />
  <rect x="255.0" y="260" width="10" height="10" stroke="black" stroke-width="1" fill="red" />
  <rect x="265.0" y="260" width="10" height="10" stroke="black" stroke-width="1" fill="blue" />
  <rect x="275.0" y="260" width="10" height="10" stroke="black" stroke-width="1" fill="blue" />
  <rect x="10.0" y="270" width="10" height="10" stroke="black" stroke-width="1" fill="blue" />
  <rect x="20.0" y="270" width="10" height="10" stroke="black" stroke-width="1" fill="green" />
  <rect x="30.0" y="270" width="10" height="10" stroke="black" stroke-width="1" fill="blue" />
  <rect x="40.0" y="270" width="10" height="10" stroke="black" stroke-width="1" fill="red" />
  <rect x="50.0" y="270" width="10" height="10" stroke="black" stroke-width="1" fill="red" />
  <rect x="60.0" y="270" width="10" height="10" stroke="black" stroke-width="1" fill="red" />
  <rect x="70.0" y="270" width="10" height="10" stroke="black" stroke-width="1" fill="red" />
  <rect x="80.0" y="270" width="10" height="10" stroke="black" stroke-width="1" fill="red" />
  <rect x="90.0" y="270" width="10" height="10" stroke="black" stroke-width="1" fill="red" />
  <rect x="100.0" y="270" width="10" height="10" stroke="black" stroke-width="1" fill="red" />
  <rect x="110.0" y="270" width="10" height="10" stroke="black" stroke-width="1" fill="red" />
  <rect x="120.0" y="270" width="10" height="10" stroke="black" stroke-width="1" fill="red" />
  <rect x="130.0" y="270" width="10" height="10" stroke="black" stroke-width="1" fill="red" />
  <rect x="140.0" y="270" width="10" height="10" stroke="black" stroke-width="1" fill="red" />
  <rect x="150.0" y="270" width="10" height="10" stroke="black" stroke-width="1" fill="red" />
  <rect x="160.0" y="270" width="10" height="10" stroke="black" stroke-width="1" fill="red" />
  <rect x="170.0" y="270" width="10" height="10" stroke="black" stroke-width="1" fill="red" />
  <rect x="180.0" y="270" width="10" height="10" stroke="black" stroke-width="1" fill="red" />
  <rect x="190.0" y="270" width="10" height="10" stroke="black" stroke-width="1" fill="red" />
  <rect x="200.0" y="270" width="10" height="10" stroke="black" stroke-width="1" fill="red" />
  <rect x="210.0" y="270" width="10" height="10" stroke="black" stroke-width="1" fill="red" />
  <rect x="220.0" y="270" width="10" height="10" stroke="black" stroke-width="1" fill="red" />
  <rect x="230.0" y="270" width="10" height="10" stroke="black" stroke-width="1" fill="red" />
  <rect x="240.0" y="270" width="10" height="10" stroke="black" stroke-width="1" fill="red" />
  <rect x="250.0" y="270" width="10" height="10" stroke="black" stroke-width="1" fill="red" />
  <rect x="260.0" y="270" width="10" height="10" stroke="black" stroke-width="1" fill="blue" />
  <rect x="270.0" y="270" width="10" height="10" stroke="black" stroke-width="1" fill="green" />
  <rect x="280.0" y="270" width="10" height="10" stroke="black" stroke-width="1" fill="blue" />
  <rect x="5.0" y="280" width="10" height="10" stroke="black" stroke-width="1" fill="blue" />
  <rect x="15.0" y="280" width="10" height="10" stroke="black" stroke-width="1" fill="yellow" />
  <rect x="25.0" y="280" width="10" height="10" stroke="black" stroke-width="1" fill="yellow" />
  <rect x="35.0" y="280" width="10" height="10" stroke="black" stroke-width="1" fill="blue" />
  <rect x="45.0" y="280" width="10" height="10" stroke="black" stroke-width="1" fill="red" />
  <rect x="55.0" y="280" width="10" height="10" stroke="black" stroke-width="1" fill="red" />
  <rect x="65.0" y="280" width="10" height="10" stroke="black" stroke-width="1" fill="red" />
  <rect x="75.0" y="280" width="10" height="10" stroke="black" stroke-width="1" fill="red" />
  <rect x="85.0" y="280" width="10" height="10" stroke="black" stroke-width="1" fill="red" />
  <rect x="95.0" y="280" width="10" height="10" stroke="black" stroke-width="1" fill="red" />
  <rect x="105.0" y="280" width="10" height="10" stroke="black" stroke-width="1" fill="red" />
  <rect x="115.0" y="280" width="10" height="10" stroke="black" stroke-width="1" fill="red" />
  <rect x="125.0" y="280" width="10" height="10" stroke="black" stroke-width="1" fill="red" />
  <rect x="135.0" y="280" width="10" height="10" stroke="black" stroke-width="1" fill="red" />
  <rect x="145.0" y="280" width="10" height="10" stroke="black" stroke-width="1" fill="red" />
  <rect x="155.0" y="280" width="10" height="10" stroke="black" stroke-width="1" fill="red" />
  <rect x="165.0" y="280" width="10" height="10" stroke="black" stroke-width="1" fill="red" />
  <rect x="175.0" y="280" width="10" height="10" stroke="black" stroke-width="1" fill="red" />
  <rect x="185.0" y="280" width="10" height="10" stroke="black" stroke-width="1" fill="red" />
  <rect x="195.0" y="280" width="10" height="10" stroke="black" stroke-width="1" fill="red" />
  <rect x="205.0" y="280" width="10" height="10" stroke="black" stroke-width="1" fill="red" />
  <rect x="215.0" y="280" width="10" height="10" stroke="black" stroke-width="1" fill="red" />
  <rect x="225.0" y="280" width="10" height="10" stroke="black" stroke-width="1" fill="red" />
  <rect x="235.0" y="280" width="10" height="10" stroke="black" stroke-width="1" fill="red" />
  <rect x="245.0" y="280" width="10" height="10" stroke="black" stroke-width="1" fill="red" />
  <rect x="255.0" y="280" width="10" height="10" stroke="black" stroke-width="1" fill="blue" />
  <rect x="265.0" y="280" width="10" height="10" stroke="black" stroke-width="1" fill="yellow" />
  <rect x="275.0" y="280" width="10" height="10" stroke="black" stroke-width="1" fill="yellow" />
  <rect x="285.0" y="280" width="10" height="10" stroke="black" stroke-width="1" fill="blue" />
  <rect x="0.0" y="290" width="10" height="10" stroke="black" stroke-width="1" fill="blue" />
  <rect x="10.0" y="290" width="10" height="10" stroke="black" stroke-width="1" fill="cyan" />
  <rect x="20.0" y="290" width="10" height="10" stroke="black" stroke-width="1" fill="blue" />
  <rect x="30.0" y="290" width="10" height="10" stroke="black" stroke-width="1" fill="cyan" />
  <rect x="40.0" y="290" width="10" height="10" stroke="black" stroke-width="1" fill="blue" />
  <rect x="50.0" y="290" width="10" height="10" stroke="black" stroke-width="1" fill="red" />
  <rect x="60.0" y="290" width="10" height="10" stroke="black" stroke-width="1" fill="red" />
  <rect x="70.0" y="290" width="10" height="10" stroke="black" stroke-width="1" fill="red" />
  <rect x="80.0" y="290" width="10" height="10" stroke="black" stroke-width="1" fill="red" />
  <rect x="90.0" y="290" width="10" height="10" stroke="black" stroke-width="1" fill="red" />
  <rect x="100.0" y="290" width="10" height="10" stroke="black" stroke-width="1" fill="red" />
  <rect x="110.0" y="290" width="10" height="10" stroke="black" stroke-width="1" fill="red" />
  <rect x="120.0" y="290" width="10" height="10" stroke="black" stroke-width="1" fill="red" />
  <rect x="130.0" y="290" width="10" height="10" stroke="black" stroke-width="1" fill="red" />
  <rect x="140.0" y="290" width="10" height="10" stroke="black" stroke-width="1" fill="red" />
  <rect x="150.0" y="290" width="10" height="10" stroke="black" stroke-width="1" fill="red" />
  <rect x="160.0" y="290" width="10" height="10" stroke="black" stroke-width="1" fill="red" />
  <rect x="170.0" y="290" width="10" height="10" stroke="black" stroke-width="1" fill="red" />
  <rect x="180.0" y="290" width="10" height="10" stroke="black" stroke-width="1" fill="red" />
  <rect x="190.0" y="290" width="10" height="10" stroke="black" stroke-width="1" fill="red" />
  <rect x="200.0" y="290" width="10" height="10" stroke="black" stroke-width="1" fill="red" />
  <rect x="210.0" y="290" width="10" height="10" stroke="black" stroke-width="1" fill="red" />
  <rect x="220.0" y="290" width="10" height="10" stroke="black" stroke-width="1" fill="red" />
  <rect x="230.0" y="290" width="10" height="10" stroke="black" stroke-width="1" fill="red" />
  <rect x="240.0" y="290" width="10" height="10" stroke="black" stroke-width="1" fill="red" />
  <rect x="250.0" y="290" width="10" height="10" stroke="black" stroke-width="1" fill="blue" />
  <rect x="260.0" y="290" width="10" height="10" stroke="black" stroke-width="1" fill="cyan" />
  <rect x="270.0" y="290" width="10" height="10" stroke="black" stroke-width="1" fill="blue" />
  <rect x="280.0" y="290" width="10" height="10" stroke="black" stroke-width="1" fill="cyan" />
  <rect x="290.0" y="290" width="10" height="10" stroke="black" stroke-width="1" fill="blue" />
</svg>
