<?xml version="1.0" encoding="UTF-8" ?>
<svg xmlns="http://www.w3.org/2000/svg" version="1.1" width="241.48692994076038" height="262.4419445503167">
  <line x1="93.42708184329183" y1="64.80119684905199" x2="143.42708184329183" y2="64.80119684905199" stroke="black" stroke-width="1" />
  <line x1="143.42708184329183" y1="64.80119684905199" x2="143.42708184329183" y2="14.80119684905199" stroke="black" stroke-width="1" />
  <line x1="143.42708184329183" y1="14.80119684905199" x2="93.42708184329183" y2="14.80119684905199" stroke="black" stroke-width="1" />
  <line x1="93.42708184329183" y1="14.80119684905199" x2="93.42708184329183" y2="64.80119684905199" stroke="black" stroke-width="1" />
  <line x1="98.42708184329183" y1="54.80119684905199" x2="150.1101759865168" y2="73.61230473196377" stroke="black" stroke-width="1" />
  <line x1="150.1101759865168" y1="73.61230473196377" x2="168.92128386942858" y2="21.929210588738798" stroke="black" stroke-width="1" />
  <line x1="168.92128386942858" y1="21.929210588738798" x2="117.23818972620361" y2="3.1181027058270203" stroke="black" stroke-width="1" />
  <line x1="117.23818972620361" y1="3.1181027058270203" x2="98.42708184329183" y2="54.80119684905199" stroke="black" stroke-width="1" />
  <line x1="107.35761283419669" y1="46.34568880869817" x2="153.70330164289487" y2="85.2343391947338" stroke="black" stroke-width="1" />
  <line x1="153.70330164289487" y1="85.2343391947338" x2="192.5919520289305" y2="38.88865038603562" stroke="black" stroke-width="1" />
  <line x1="192.5919520289305" y1="38.88865038603562" x2="146.24626322023232" y2="0.0" stroke="black" stroke-width="1" />
  <line x1="146.24626322023232" y1="0.0" x2="107.35761283419669" y2="46.34568880869817" stroke="black" stroke-width="1" />
  <line x1="119.76991179227363" y1="40.9654160855621" x2="153.04491179227364" y2="98.5994067074165" stroke="black" stroke-width="1" />
  <line x1="153.04491179227364" y1="98.5994067074165" x2="210.67890241412806" y2="65.32440670741649" stroke="black" stroke-width="1" />
  <line x1="210.67890241412806" y1="65.32440670741649" x2="177.40390241412803" y2="7.6904160855620916" stroke="black" stroke-width="1" />
  <line x1="177.40390241412803" y1="7.6904160855620916" x2="119.76991179227363" y2="40.9654160855621" stroke="black" stroke-width="1" />
  <line x1="134.6242099166445" y1="40.07381514774754" x2="147.33612476275218" y2="112.16666670700626" stroke="black" stroke-width="1" />
  <line x1="147.33612476275218" y1="112.16666670700626" x2="219.4289763220109" y2="99.4547518608986" stroke="black" stroke-width="1" />
  <line x1="219.4289763220109" y1="99.4547518608986" x2="206.71706147590322" y2="27.361900301639892" stroke="black" stroke-width="1" />
  <line x1="206.71706147590322" y1="27.361900301639892" x2="134.6242099166445" y2="40.07381514774754" stroke="black" stroke-width="1" />
  <line x1="150.313971713107" y1="44.74071733445188" x2="136.33086538238865" y2="124.04285404963649" stroke="black" stroke-width="1" />
  <line x1="136.33086538238865" y1="124.04285404963649" x2="215.63300209757324" y2="138.02596038035486" stroke="black" stroke-width="1" />
  <line x1="215.63300209757324" y1="138.02596038035486" x2="229.61610842829162" y2="58.72382366517027" stroke="black" stroke-width="1" />
  <line x1="229.61610842829162" y1="58.72382366517027" x2="150.313971713107" y2="44.74071733445188" stroke="black" stroke-width="1" />
  <line x1="164.7760884230721" y1="55.46755227211402" x2="120.4870634230721" y2="132.17839378980227" stroke="black" stroke-width="1" />
  <line x1="120.4870634230721" y1="132.17839378980227" x2="197.1979049407604" y2="176.46741878980225" stroke="black" stroke-width="1" />
  <line x1="197.1979049407604" y1="176.46741878980225" x2="241.48692994076038" y2="99.75657727211403" stroke="black" stroke-width="1" />
  <line x1="241.48692994076038" y1="99.75657727211403" x2="164.7760884230721" y2="55.46755227211402" stroke="black" stroke-width="1" />
  <line x1="175.68935422660974" y1="71.99644142388284" x2="101.04915894331323" y2="134.62700175709716" stroke="black" stroke-width="1" />
  <line x1="101.04915894331323" y1="134.62700175709716" x2="163.67971927652758" y2="209.26719704039365" stroke="black" stroke-width="1" />
  <line x1="163.67971927652758" y1="209.26719704039365" x2="238.3199145598241" y2="146.63663670717938" stroke="black" stroke-width="1" />
  <line x1="238.3199145598241" y1="146.63663670717938" x2="175.68935422660974" y2="71.99644142388284" stroke="black" stroke-width="1" />
  <line x1="180.75144676492295" y1="93.18753651386356" x2="80.03571742711055" y2="129.84506411523864" stroke="black" stroke-width="1" />
  <line x1="80.03571742711055" y1="129.84506411523864" x2="116.69324502848565" y2="230.56079345305102" stroke="black" stroke-width="1" />
  <line x1="116.69324502848565" y1="230.56079345305102" x2="217.40897436629805" y2="193.903265851676" stroke="black" stroke-width="1" />
  <line x1="217.40897436629805" y1="193.903265851676" x2="180.75144676492295" y2="93.18753651386356" stroke="black" stroke-width="1" />
  <line x1="178.01137935141674" y1="116.99643514156355" x2="60.11399480141661" y2="116.99643514156364" stroke="black" stroke-width="1" />
  <line x1="60.11399480141661" y1="116.99643514156364" x2="60.113994801416716" y2="234.89381969156372" stroke="black" stroke-width="1" />
  <line x1="60.113994801416716" y1="234.89381969156372" x2="178.0113793514168" y2="234.8938196915637" stroke="black" stroke-width="1" />
  <line x1="178.0113793514168" y1="234.8938196915637" x2="178.01137935141674" y2="116.99643514156355" stroke="black" stroke-width="1" />
  <line x1="166.22164089641672" y1="140.57591205156356" x2="44.35560839766364" y2="96.22030365389988" stroke="black" stroke-width="1" />
  <line x1="44.35560839766364" y1="96.22030365389988" x2="0.0" y2="218.08633615265296" stroke="black" stroke-width="1" />
  <line x1="0.0" y1="218.08633615265296" x2="121.86603249875301" y2="262.4419445503167" stroke="black" stroke-width="1" />
  <line x1="121.86603249875301" y1="262.4419445503167" x2="166.22164089641672" y2="140.57591205156356" stroke="black" stroke-width="1" />
</svg>
