<?xml version="1.0" encoding="UTF-8" ?>
<svg xmlns="http://www.w3.org/2000/svg" version="1.1" width="616.5628271452078" height="168.74993435909357">
  <line x1="9.741770431775393" y1="151.71836615173953" x2="109.7417704317754" y2="151.71836615173953" stroke="black" stroke-width="1" />
  <line x1="109.7417704317754" y1="151.71836615173953" x2="109.7417704317754" y2="51.718366151739545" stroke="black" stroke-width="1" />
  <line x1="109.7417704317754" y1="51.718366151739545" x2="9.741770431775393" y2="51.718366151739545" stroke="black" stroke-width="1" />
  <line x1="9.741770431775393" y1="51.718366151739545" x2="9.741770431775393" y2="151.71836615173953" stroke="black" stroke-width="1" />
  <line x1="0.0" y1="78.06212864876161" x2="88.63269777109872" y2="93.69046463878536" stroke="black" stroke-width="1" />
  <line x1="88.63269777109872" y1="93.69046463878536" x2="219.4835408635508" y2="25.374603654717475" stroke="black" stroke-width="1" />
  <line x1="219.4835408635508" y1="25.374603654717475" x2="130.85084309245207" y2="9.746267664693747" stroke="black" stroke-width="1" />
  <line x1="130.85084309245207" y1="9.746267664693747" x2="0.0" y2="78.06212864876161" stroke="black" stroke-width="1" />
  <line x1="87.74541381847574" y1="26.220759215677703" x2="145.85315555603785" y2="50.74920730943495" stroke="black" stroke-width="1" />
  <line x1="145.85315555603785" y1="50.74920730943495" x2="351.2216679086258" y2="24.528448093757234" stroke="black" stroke-width="1" />
  <line x1="351.2216679086258" y1="24.528448093757234" x2="293.1139261710637" y2="0.0" stroke="black" stroke-width="1" />
  <line x1="293.1139261710637" y1="0.0" x2="87.74541381847574" y2="26.220759215677703" stroke="black" stroke-width="1" />
  <line x1="233.3514102300683" y1="4.518029428923143" x2="252.75818821775644" y2="30.35612304516505" stroke="black" stroke-width="1" />
  <line x1="252.75818821775644" y1="30.35612304516505" x2="469.09192558718337" y2="44.538866758591325" stroke="black" stroke-width="1" />
  <line x1="469.09192558718337" y1="44.538866758591325" x2="449.6851475994953" y2="18.700773142349433" stroke="black" stroke-width="1" />
  <line x1="449.6851475994953" y1="18.700773142349433" x2="233.3514102300683" y2="4.518029428923143" stroke="black" stroke-width="1" />
  <line x1="390.80413786619704" y1="12.447417058881598" x2="374.19552541126313" y2="33.13188964344059" stroke="black" stroke-width="1" />
  <line x1="374.19552541126313" y1="33.13188964344059" x2="547.3797133081698" y2="76.63031645830108" stroke="black" stroke-width="1" />
  <line x1="547.3797133081698" y1="76.63031645830108" x2="563.9883257631036" y2="55.94584387374208" stroke="black" stroke-width="1" />
  <line x1="563.9883257631036" y1="55.94584387374208" x2="390.80413786619704" y2="12.447417058881598" stroke="black" stroke-width="1" />
  <line x1="519.9830675184089" y1="42.47168778948302" x2="478.1965994711319" y2="54.00681356789998" stroke="black" stroke-width="1" />
  <line x1="478.1965994711319" y1="54.00681356789998" x2="574.7763590979308" y2="110.78894512711918" stroke="black" stroke-width="1" />
  <line x1="574.7763590979308" y1="110.78894512711918" x2="616.5628271452078" y2="99.2538193487022" stroke="black" stroke-width="1" />
  <line x1="616.5628271452078" y1="99.2538193487022" x2="519.9830675184089" y2="42.47168778948302" stroke="black" stroke-width="1" />
  <line x1="595.1908264376419" y1="83.17154399764495" x2="543.0605431712488" y2="84.5213348639733" stroke="black" stroke-width="1" />
  <line x1="543.0605431712488" y1="84.5213348639733" x2="554.3618917582194" y2="138.40634625659342" stroke="black" stroke-width="1" />
  <line x1="554.3618917582194" y1="138.40634625659342" x2="606.4921750246127" y2="137.0565553902651" stroke="black" stroke-width="1" />
  <line x1="606.4921750246127" y1="137.0565553902651" x2="595.1908264376419" y2="83.17154399764495" stroke="black" stroke-width="1" />
  <line x1="608.5933871151467" y1="122.72972243999314" x2="560.6226979718513" y2="115.50474787038661" stroke="black" stroke-width="1" />
  <line x1="560.6226979718513" y1="115.50474787038661" x2="500.13039640129193" y2="154.08297007319368" stroke="black" stroke-width="1" />
  <line x1="500.13039640129193" y1="154.08297007319368" x2="548.1010855445875" y2="161.30794464280024" stroke="black" stroke-width="1" />
  <line x1="548.1010855445875" y1="161.30794464280024" x2="608.5933871151467" y2="122.72972243999314" stroke="black" stroke-width="1" />
  <line x1="568.7102282101984" y1="151.8488298464445" x2="535.6464524206534" y2="139.41600578729378" stroke="black" stroke-width="1" />
  <line x1="535.6464524206534" y1="139.41600578729378" x2="431.5505645923854" y2="156.31711029994284" stroke="black" stroke-width="1" />
  <line x1="431.5505645923854" y1="156.31711029994284" x2="464.61434038193033" y2="168.74993435909357" stroke="black" stroke-width="1" />
  <line x1="464.61434038193033" y1="168.74993435909357" x2="568.7102282101984" y2="151.8488298464445" stroke="black" stroke-width="1" />
  <line x1="495.2581109740702" y1="165.5087247049368" x2="482.22124960840915" y2="151.84781593291547" stroke="black" stroke-width="1" />
  <line x1="482.22124960840915" y1="151.84781593291547" x2="367.8430182107006" y2="147.12549589494887" stroke="black" stroke-width="1" />
  <line x1="367.8430182107006" y1="147.12549589494887" x2="380.87987957636165" y2="160.7864046669702" stroke="black" stroke-width="1" />
  <line x1="380.87987957636165" y1="160.7864046669702" x2="495.2581109740702" y2="165.5087247049368" stroke="black" stroke-width="1" />
  <line x1="412.28143030981994" y1="163.36125581358598" x2="418.6019226790371" y2="151.99124387095247" stroke="black" stroke-width="1" />
  <line x1="418.6019226790371" y1="151.99124387095247" x2="323.4046061115812" y2="130.88973597631173" stroke="black" stroke-width="1" />
  <line x1="323.4046061115812" y1="130.88973597631173" x2="317.08411374236414" y2="142.25974791894527" stroke="black" stroke-width="1" />
  <line x1="317.08411374236414" y1="142.25974791894527" x2="412.28143030981994" y2="163.36125581358598" stroke="black" stroke-width="1" />
  <line x1="341.546940865666" y1="148.9263195035166" x2="362.026720251568" y2="142.14658573460022" stroke="black" stroke-width="1" />
  <line x1="362.026720251568" y1="142.14658573460022" x2="305.2622713574965" y2="112.85315244910682" stroke="black" stroke-width="1" />
  <line x1="305.2622713574965" y1="112.85315244910682" x2="284.7824919715945" y2="119.6328862180232" stroke="black" stroke-width="1" />
  <line x1="284.7824919715945" y1="119.6328862180232" x2="341.546940865666" y2="148.9263195035166" stroke="black" stroke-width="1" />
  <line x1="297.74129047828353" y1="128.01034480963057" x2="324.76441024162864" y2="126.57936004541216" stroke="black" stroke-width="1" />
  <line x1="324.76441024162864" y1="126.57936004541216" x2="312.78325223670953" y2="97.69596008858304" stroke="black" stroke-width="1" />
  <line x1="312.78325223670953" y1="97.69596008858304" x2="285.7601324733644" y2="99.12694485280146" stroke="black" stroke-width="1" />
  <line x1="285.7601324733644" y1="99.12694485280146" x2="297.74129047828353" y2="128.01034480963057" stroke="black" stroke-width="1" />
  <line x1="286.28388999172444" y1="106.87532238913735" x2="312.10766568839654" y2="110.12099677851278" stroke="black" stroke-width="1" />
  <line x1="312.10766568839654" y1="110.12099677851278" x2="339.28261448169474" y2="88.51659778802869" stroke="black" stroke-width="1" />
  <line x1="339.28261448169474" y1="88.51659778802869" x2="313.4588387850226" y2="85.27092339865328" stroke="black" stroke-width="1" />
  <line x1="313.4588387850226" y1="85.27092339865328" x2="286.28388999172444" y2="106.87532238913735" stroke="black" stroke-width="1" />
  <line x1="303.78424187104235" y1="90.64614880963956" x2="322.42555863482664" y2="96.89928564466676" stroke="black" stroke-width="1" />
  <line x1="322.42555863482664" y1="96.89928564466676" x2="374.7809870923471" y2="86.38704676641784" stroke="black" stroke-width="1" />
  <line x1="374.7809870923471" y1="86.38704676641784" x2="356.1396703285627" y2="80.13390993139062" stroke="black" stroke-width="1" />
  <line x1="356.1396703285627" y1="80.13390993139062" x2="303.78424187104235" y2="90.64614880963956" stroke="black" stroke-width="1" />
  <line x1="340.5312863168273" y1="82.294062939343" x2="348.87130599626767" y2="89.47927482351255" stroke="black" stroke-width="1" />
  <line x1="348.87130599626767" y1="89.47927482351255" x2="409.03068786786673" y2="90.48003059349269" stroke="black" stroke-width="1" />
  <line x1="409.03068786786673" y1="90.48003059349269" x2="400.69066818842646" y2="83.29481870932312" stroke="black" stroke-width="1" />
  <line x1="400.69066818842646" y1="83.29481870932312" x2="340.5312863168273" y2="82.294062939343" stroke="black" stroke-width="1" />
</svg>
