<?xml version="1.0" encoding="UTF-8" ?>
<svg xmlns="http://www.w3.org/2000/svg" version="1.1" width="214.4832489192252" height="125.12660125797623">
  <line x1="57.241624459612595" y1="112.56330062898812" x2="157.24162445961258" y2="112.56330062898812" stroke="black" stroke-width="1" />
  <line x1="157.24162445961258" y1="112.56330062898812" x2="157.24162445961258" y2="12.563300628988117" stroke="black" stroke-width="1" />
  <line x1="157.24162445961258" y1="12.563300628988117" x2="57.241624459612595" y2="12.563300628988117" stroke="black" stroke-width="1" />
  <line x1="57.241624459612595" y1="12.563300628988117" x2="57.241624459612595" y2="112.56330062898812" stroke="black" stroke-width="1" />
  <line x1="43.52654827225998" y1="95.00968364279922" x2="151.85540110360287" y2="108.90153785615365" stroke="black" stroke-width="1" />
  <line x1="151.85540110360287" y1="108.90153785615365" x2="170.9567006469652" y2="30.11691761517701" stroke="black" stroke-width="1" />
  <line x1="170.9567006469652" y1="30.11691761517701" x2="62.62784781562232" y2="16.22506340182258" stroke="black" stroke-width="1" />
  <line x1="62.62784781562232" y1="16.22506340182258" x2="43.52654827225998" y2="95.00968364279922" stroke="black" stroke-width="1" />
  <line x1="32.022132534782685" y1="79.27485477247723" x2="146.72001140691012" y2="105.26838566522804" stroke="black" stroke-width="1" />
  <line x1="146.72001140691012" y1="105.26838566522804" x2="182.4611163844425" y2="45.85174648549901" stroke="black" stroke-width="1" />
  <line x1="182.4611163844425" y1="45.85174648549901" x2="67.76323751231507" y2="19.858215592748188" stroke="black" stroke-width="1" />
  <line x1="67.76323751231507" y1="19.858215592748188" x2="32.022132534782685" y2="79.27485477247723" stroke="black" stroke-width="1" />
  <line x1="22.565087736580722" y1="65.28005293907793" x2="141.85088194291882" y2="101.69261965887841" stroke="black" stroke-width="1" />
  <line x1="141.85088194291882" y1="101.69261965887841" x2="191.91816118264447" y2="59.84654831889831" stroke="black" stroke-width="1" />
  <line x1="191.91816118264447" y1="59.84654831889831" x2="72.63236697630637" y2="23.433981599097827" stroke="black" stroke-width="1" />
  <line x1="72.63236697630637" y1="23.433981599097827" x2="22.565087736580722" y2="65.28005293907793" stroke="black" stroke-width="1" />
  <line x1="14.993568613639908" y1="52.94054258489922" x2="137.2592276275467" y2="98.19905362347275" stroke="black" stroke-width="1" />
  <line x1="137.2592276275467" y1="98.19905362347275" x2="199.4896803055853" y2="72.18605867307701" stroke="black" stroke-width="1" />
  <line x1="199.4896803055853" y1="72.18605867307701" x2="77.2240212916785" y2="26.927547634503483" stroke="black" stroke-width="1" />
  <line x1="77.2240212916785" y1="26.927547634503483" x2="14.993568613639908" y2="52.94054258489922" stroke="black" stroke-width="1" />
  <line x1="9.14843564078825" y1="42.16708181446835" x2="132.95245769489122" y2="94.80879496613795" stroke="black" stroke-width="1" />
  <line x1="132.95245769489122" y1="94.80879496613795" x2="205.33481327843694" y2="82.95951944350789" stroke="black" stroke-width="1" />
  <line x1="205.33481327843694" y1="82.95951944350789" x2="81.53079122433397" y2="30.317806291838274" stroke="black" stroke-width="1" />
  <line x1="81.53079122433397" y1="30.317806291838274" x2="9.14843564078825" y2="42.16708181446835" stroke="black" stroke-width="1" />
  <line x1="4.874341157778119" y1="32.86725430850852" x2="128.93456669419265" y2="91.53950235742083" stroke="black" stroke-width="1" />
  <line x1="128.93456669419265" y1="91.53950235742083" x2="209.60890776144709" y2="92.25934694946771" stroke="black" stroke-width="1" />
  <line x1="209.60890776144709" y1="92.25934694946771" x2="85.54868222503255" y2="33.587098900555404" stroke="black" stroke-width="1" />
  <line x1="85.54868222503255" y1="33.587098900555404" x2="4.874341157778119" y2="32.86725430850852" stroke="black" stroke-width="1" />
  <line x1="2.0206515443349105" y1="24.946669550351388" x2="125.20650883926217" y2="88.40564303080819" stroke="black" stroke-width="1" />
  <line x1="125.20650883926217" y1="88.40564303080819" x2="212.46259737489027" y2="100.17993170762485" stroke="black" stroke-width="1" />
  <line x1="212.46259737489027" y1="100.17993170762485" x2="89.27674007996302" y2="36.72095822716804" stroke="black" stroke-width="1" />
  <line x1="89.27674007996302" y1="36.72095822716804" x2="2.0206515443349105" y2="24.946669550351388" stroke="black" stroke-width="1" />
  <line x1="0.44221694296619773" y1="18.31003652697145" x2="121.7665543893711" y2="85.41874749925354" stroke="black" stroke-width="1" />
  <line x1="121.7665543893711" y1="85.41874749925354" x2="214.04103197625898" y2="106.81656473100477" stroke="black" stroke-width="1" />
  <line x1="214.04103197625898" y1="106.81656473100477" x2="92.7166945298541" y2="39.70785375872269" stroke="black" stroke-width="1" />
  <line x1="92.7166945298541" y1="39.70785375872269" x2="0.44221694296619773" y2="18.31003652697145" stroke="black" stroke-width="1" />
  <line x1="0.0" y1="12.862116569039038" x2="118.61062705841293" y2="82.58765974053885" stroke="black" stroke-width="1" />
  <line x1="118.61062705841293" y1="82.58765974053885" x2="214.4832489192252" y2="112.26448468893719" stroke="black" stroke-width="1" />
  <line x1="214.4832489192252" y1="112.26448468893719" x2="95.87262186081226" y2="42.53894151743738" stroke="black" stroke-width="1" />
  <line x1="95.87262186081226" y1="42.53894151743738" x2="0.0" y2="12.862116569039038" stroke="black" stroke-width="1" />
  <line x1="0.561574968706168" y1="8.508561386125997" x2="115.73262173772268" y2="79.9187811772506" stroke="black" stroke-width="1" />
  <line x1="115.73262173772268" y1="79.9187811772506" x2="213.92167395051902" y2="116.61803987185024" stroke="black" stroke-width="1" />
  <line x1="213.92167395051902" y1="116.61803987185024" x2="98.75062718150251" y2="45.20782008072565" stroke="black" stroke-width="1" />
  <line x1="98.75062718150251" y1="45.20782008072565" x2="0.561574968706168" y2="8.508561386125997" stroke="black" stroke-width="1" />
  <line x1="2.0015083063673416" y1="5.156642644237948" x2="113.1247020782162" y2="77.41630703306822" stroke="black" stroke-width="1" />
  <line x1="113.1247020782162" y1="77.41630703306822" x2="212.48174061285783" y2="119.96995861373829" stroke="black" stroke-width="1" />
  <line x1="212.48174061285783" y1="119.96995861373829" x2="101.35854684100899" y2="47.71029422490801" stroke="black" stroke-width="1" />
  <line x1="101.35854684100899" y1="47.71029422490801" x2="2.0015083063673416" y2="5.156642644237948" stroke="black" stroke-width="1" />
  <line x1="4.2016316119298835" y1="2.7158796326927046" x2="110.77757771058523" y2="75.08245388484546" stroke="black" stroke-width="1" />
  <line x1="110.77757771058523" y1="75.08245388484546" x2="210.2816173072953" y2="122.41072162528353" stroke="black" stroke-width="1" />
  <line x1="210.2816173072953" y1="122.41072162528353" x2="103.70567120863996" y2="50.04414737313077" stroke="black" stroke-width="1" />
  <line x1="103.70567120863996" y1="50.04414737313077" x2="4.2016316119298835" y2="2.7158796326927046" stroke="black" stroke-width="1" />
  <line x1="7.051217403699667" y1="1.0985716851873377" x2="108.68076108934993" y2="72.91767744967868" stroke="black" stroke-width="1" />
  <line x1="108.68076108934993" y1="72.91767744967868" x2="207.43203151552552" y2="124.0280295727889" stroke="black" stroke-width="1" />
  <line x1="207.43203151552552" y1="124.0280295727889" x2="105.80248782987526" y2="52.208923808297556" stroke="black" stroke-width="1" />
  <line x1="105.80248782987526" y1="52.208923808297556" x2="7.051217403699667" y2="1.0985716851873377" stroke="black" stroke-width="1" />
  <line x1="10.447067837960404" y1="0.2202420644952241" x2="106.82280412891411" y2="70.92087984802298" stroke="black" stroke-width="1" />
  <line x1="106.82280412891411" y1="70.92087984802298" x2="204.03618108126477" y2="124.90635919348101" stroke="black" stroke-width="1" />
  <line x1="204.03618108126477" y1="124.90635919348101" x2="107.66044479031108" y2="54.205721409953256" stroke="black" stroke-width="1" />
  <line x1="107.66044479031108" y1="54.205721409953256" x2="10.447067837960404" y2="0.2202420644952241" stroke="black" stroke-width="1" />
  <line x1="14.293526029089733" y1="0.0" x2="105.19151495874084" y2="69.08960576828699" stroke="black" stroke-width="1" />
  <line x1="105.19151495874084" y1="69.08960576828699" x2="200.18972289013544" y2="125.12660125797623" stroke="black" stroke-width="1" />
  <line x1="200.18972289013544" y1="125.12660125797623" x2="109.29173396048435" y2="56.03699548968924" stroke="black" stroke-width="1" />
  <line x1="109.29173396048435" y1="56.03699548968924" x2="14.293526029089733" y2="0.0" stroke="black" stroke-width="1" />
</svg>
