<?xml version="1.0" encoding="UTF-8" ?>
<svg xmlns="http://www.w3.org/2000/svg" version="1.1" width="200.0" height="200.0">
  <line x1="100.0" y1="100.0" x2="200.0" y2="100.0" stroke="rgb(0, 0, 0)" stroke-width="1" />
  <line x1="100.0" y1="90.0" x2="190.0" y2="100.0" stroke="rgb(0, 0, 0)" stroke-width="1" />
  <line x1="100.0" y1="80.0" x2="180.0" y2="100.0" stroke="rgb(0, 0, 0)" stroke-width="1" />
  <line x1="100.0" y1="70.0" x2="170.0" y2="100.0" stroke="rgb(0, 0, 0)" stroke-width="1" />
  <line x1="100.0" y1="60.0" x2="160.0" y2="100.0" stroke="rgb(0, 0, 0)" stroke-width="1" />
  <line x1="100.0" y1="50.0" x2="150.0" y2="100.0" stroke="rgb(0, 0, 0)" stroke-width="1" />
  <line x1="100.0" y1="40.0" x2="140.0" y2="100.0" stroke="rgb(0, 0, 0)" stroke-width="1" />
  <line x1="100.0" y1="30.0" x2="130.0" y2="100.0" stroke="rgb(0, 0, 0)" stroke-width="1" />
  <line x1="100.0" y1="20.0" x2="120.0" y2="100.0" stroke="rgb(0, 0, 0)" stroke-width="1" />
  <line x1="100.0" y1="10.0" x2="110.0" y2="100.0" stroke="rgb(0, 0, 0)" stroke-width="1" />
  <line x1="100.0" y1="100.0" x2="100.0" y2="0.0" stroke="rgb(0, 0, 0)" stroke-width="1" />
  <line x1="90.0" y1="100.0" x2="100.0" y2="10.0" stroke="rgb(0, 0, 0)" stroke-width="1" />
  <line x1="80.0" y1="100.0" x2="100.0" y2="20.0" stroke="rgb(0, 0, 0)" stroke-width="1" />
  <line x1="70.0" y1="100.0" x2="100.0" y2="30.0" stroke="rgb(0, 0, 0)" stroke-width="1" />
  <line x1="60.0" y1="100.0" x2="100.0" y2="40.0" stroke="rgb(0, 0, 0)" stroke-width="1" />
  <line x1="50.0" y1="100.0" x2="100.0" y2="50.0" stroke="rgb(0, 0, 0)" stroke-width="1" />
  <line x1="40.0" y1="99.99999999999999" x2="100.0" y2="60.0" stroke="rgb(0, 0, 0)" stroke-width="1" />
  <line x1="30.0" y1="99.99999999999999" x2="100.0" y2="70.0" stroke="rgb(0, 0, 0)" stroke-width="1" />
  <line x1="20.0" y1="99.99999999999999" x2="100.0" y2="80.0" stroke="rgb(0, 0, 0)" stroke-width="1" />
  <line x1="10.0" y1="99.99999999999999" x2="100.0" y2="90.0" stroke="rgb(0, 0, 0)" stroke-width="1" />
  <line x1="100.0" y1="100.0" x2="0.0" y2="99.99999999999999" stroke="rgb(0, 0, 0)" stroke-width="1" />
  <line x1="100.0" y1="110.0" x2="10.0" y2="99.99999999999999" stroke="rgb(0, 0, 0)" stroke-width="1" />
  <line x1="100.0" y1="120.0" x2="20.0" y2="99.99999999999999" stroke="rgb(0, 0, 0)" stroke-width="1" />
  <line x1="100.0" y1="130.0" x2="30.0" y2="99.99999999999999" stroke="rgb(0, 0, 0)" stroke-width="1" />
  <line x1="99.99999999999999" y1="140.0" x2="40.0" y2="99.99999999999999" stroke="rgb(0, 0, 0)" stroke-width="1" />
  <line x1="99.99999999999999" y1="150.0" x2="50.0" y2="100.0" stroke="rgb(0, 0, 0)" stroke-width="1" />
  <line x1="99.99999999999999" y1="160.0" x2="60.0" y2="100.0" stroke="rgb(0, 0, 0)" stroke-width="1" />
  <line x1="99.99999999999999" y1="170.0" x2="70.0" y2="100.0" stroke="rgb(0, 0, 0)" stroke-width="1" />
  <line x1="99.99999999999999" y1="180.0" x2="80.0" y2="100.0" stroke="rgb(0, 0, 0)" stroke-width="1" />
  <line x1="99.99999999999999" y1="190.0" x2="90.0" y2="100.0" stroke="rgb(0, 0, 0)" stroke-width="1" />
  <line x1="100.0" y1="100.0" x2="99.99999999999999" y2="200.0" stroke="rgb(0, 0, 0)" stroke-width="1" />
  <line x1="110.0" y1="100.0" x2="99.99999999999999" y2="190.0" stroke="rgb(0, 0, 0)" stroke-width="1" />
  <line x1="120.0" y1="100.0" x2="99.99999999999999" y2="180.0" stroke="rgb(0, 0, 0)" stroke-width="1" />
  <line x1="130.0" y1="100.00000000000001" x2="99.99999999999999" y2="170.0" stroke="rgb(0, 0, 0)" stroke-width="1" />
  <line x1="140.0" y1="100.00000000000001" x2="99.99999999999999" y2="160.0" stroke="rgb(0, 0, 0)" stroke-width="1" />
  <line x1="150.0" y1="100.00000000000001" x2="99.99999999999999" y2="150.0" stroke="rgb(0, 0, 0)" stroke-width="1" />
  <line x1="160.0" y1="100.00000000000001" x2="99.99999999999999" y2="140.0" stroke="rgb(0, 0, 0)" stroke-width="1" />
  <line x1="170.0" y1="100.00000000000001" x2="100.0" y2="130.0" stroke="rgb(0, 0, 0)" stroke-width="1" />
  <line x1="180.0" y1="100.00000000000001" x2="100.0" y2="120.0" stroke="rgb(0, 0, 0)" stroke-width="1" />
  <line x1="190.0" y1="100.00000000000003" x2="100.0" y2="110.0" stroke="rgb(0, 0, 0)" stroke-width="1" />
</svg>
