<?xml version="1.0" encoding="UTF-8" ?>
<svg xmlns="http://www.w3.org/2000/svg" version="1.1" width="200.0" height="200.0">
  <line x1="100.0" y1="100.0" x2="200.0" y2="100.0" stroke="rgb(200, 200, 200)" stroke-width="1" />
  <line x1="100.0" y1="93.33333333333333" x2="193.33333333333331" y2="100.0" stroke="rgb(158, 158, 158)" stroke-width="1" />
  <line x1="100.0" y1="86.66666666666667" x2="186.66666666666666" y2="100.0" stroke="rgb(119, 119, 119)" stroke-width="1" />
  <line x1="100.0" y1="80.0" x2="180.0" y2="100.0" stroke="rgb(82, 82, 82)" stroke-width="1" />
  <line x1="100.0" y1="73.33333333333333" x2="173.33333333333331" y2="100.0" stroke="rgb(51, 51, 51)" stroke-width="1" />
  <line x1="100.0" y1="66.66666666666666" x2="166.66666666666663" y2="100.0" stroke="rgb(27, 27, 27)" stroke-width="1" />
  <line x1="100.0" y1="60.0" x2="159.99999999999997" y2="100.0" stroke="rgb(10, 10, 10)" stroke-width="1" />
  <line x1="100.0" y1="53.333333333333336" x2="153.33333333333331" y2="100.0" stroke="rgb(1, 1, 1)" stroke-width="1" />
  <line x1="100.0" y1="46.66666666666667" x2="146.66666666666666" y2="100.0" stroke="rgb(1, 1, 1)" stroke-width="1" />
  <line x1="100.0" y1="40.00000000000001" x2="140.0" y2="100.0" stroke="rgb(10, 10, 10)" stroke-width="1" />
  <line x1="100.0" y1="33.33333333333334" x2="133.33333333333331" y2="100.0" stroke="rgb(27, 27, 27)" stroke-width="1" />
  <line x1="100.0" y1="26.66666666666667" x2="126.66666666666666" y2="100.0" stroke="rgb(51, 51, 51)" stroke-width="1" />
  <line x1="100.0" y1="20.0" x2="119.99999999999999" y2="100.0" stroke="rgb(82, 82, 82)" stroke-width="1" />
  <line x1="100.0" y1="13.333333333333329" x2="113.33333333333331" y2="100.0" stroke="rgb(119, 119, 119)" stroke-width="1" />
  <line x1="100.0" y1="6.666666666666657" x2="106.66666666666666" y2="100.0" stroke="rgb(158, 158, 158)" stroke-width="1" />
  <line x1="100.0" y1="100.0" x2="100.0" y2="0.0" stroke="rgb(200, 200, 200)" stroke-width="1" />
  <line x1="93.33333333333333" y1="100.0" x2="100.0" y2="6.666666666666671" stroke="rgb(158, 158, 158)" stroke-width="1" />
  <line x1="86.66666666666667" y1="100.0" x2="100.0" y2="13.333333333333343" stroke="rgb(119, 119, 119)" stroke-width="1" />
  <line x1="80.0" y1="100.0" x2="100.0" y2="20.000000000000014" stroke="rgb(82, 82, 82)" stroke-width="1" />
  <line x1="73.33333333333333" y1="100.0" x2="100.0" y2="26.666666666666686" stroke="rgb(51, 51, 51)" stroke-width="1" />
  <line x1="66.66666666666666" y1="100.0" x2="100.0" y2="33.33333333333336" stroke="rgb(27, 27, 27)" stroke-width="1" />
  <line x1="60.0" y1="100.0" x2="100.0" y2="40.00000000000002" stroke="rgb(10, 10, 10)" stroke-width="1" />
  <line x1="53.333333333333336" y1="100.0" x2="100.0" y2="46.666666666666686" stroke="rgb(1, 1, 1)" stroke-width="1" />
  <line x1="46.66666666666667" y1="100.0" x2="100.0" y2="53.33333333333335" stroke="rgb(1, 1, 1)" stroke-width="1" />
  <line x1="40.00000000000001" y1="99.99999999999999" x2="100.0" y2="60.000000000000014" stroke="rgb(10, 10, 10)" stroke-width="1" />
  <line x1="33.33333333333334" y1="99.99999999999999" x2="100.0" y2="66.66666666666669" stroke="rgb(27, 27, 27)" stroke-width="1" />
  <line x1="26.66666666666667" y1="99.99999999999999" x2="100.0" y2="73.33333333333334" stroke="rgb(51, 51, 51)" stroke-width="1" />
  <line x1="20.0" y1="99.99999999999999" x2="100.0" y2="80.00000000000001" stroke="rgb(82, 82, 82)" stroke-width="1" />
  <line x1="13.333333333333329" y1="99.99999999999999" x2="100.0" y2="86.66666666666669" stroke="rgb(119, 119, 119)" stroke-width="1" />
  <line x1="6.666666666666657" y1="99.99999999999999" x2="100.0" y2="93.33333333333334" stroke="rgb(158, 158, 158)" stroke-width="1" />
  <line x1="100.0" y1="100.0" x2="0.0" y2="99.99999999999999" stroke="rgb(200, 200, 200)" stroke-width="1" />
  <line x1="100.0" y1="106.66666666666667" x2="6.666666666666671" y2="99.99999999999999" stroke="rgb(158, 158, 158)" stroke-width="1" />
  <line x1="100.0" y1="113.33333333333333" x2="13.333333333333343" y2="99.99999999999999" stroke="rgb(119, 119, 119)" stroke-width="1" />
  <line x1="100.0" y1="120.0" x2="20.000000000000014" y2="99.99999999999999" stroke="rgb(82, 82, 82)" stroke-width="1" />
  <line x1="100.0" y1="126.66666666666667" x2="26.666666666666686" y2="99.99999999999999" stroke="rgb(51, 51, 51)" stroke-width="1" />
  <line x1="100.0" y1="133.33333333333334" x2="33.33333333333336" y2="99.99999999999999" stroke="rgb(27, 27, 27)" stroke-width="1" />
  <line x1="99.99999999999999" y1="140.0" x2="40.00000000000002" y2="99.99999999999999" stroke="rgb(10, 10, 10)" stroke-width="1" />
  <line x1="99.99999999999999" y1="146.66666666666666" x2="46.666666666666686" y2="100.0" stroke="rgb(1, 1, 1)" stroke-width="1" />
  <line x1="99.99999999999999" y1="153.33333333333331" x2="53.33333333333335" y2="100.0" stroke="rgb(1, 1, 1)" stroke-width="1" />
  <line x1="99.99999999999999" y1="160.0" x2="60.000000000000014" y2="100.0" stroke="rgb(10, 10, 10)" stroke-width="1" />
  <line x1="99.99999999999999" y1="166.66666666666666" x2="66.66666666666669" y2="100.0" stroke="rgb(27, 27, 27)" stroke-width="1" />
  <line x1="99.99999999999999" y1="173.33333333333331" x2="73.33333333333334" y2="100.0" stroke="rgb(51, 51, 51)" stroke-width="1" />
  <line x1="99.99999999999999" y1="180.0" x2="80.00000000000001" y2="100.0" stroke="rgb(82, 82, 82)" stroke-width="1" />
  <line x1="99.99999999999999" y1="186.66666666666669" x2="86.66666666666669" y2="100.0" stroke="rgb(119, 119, 119)" stroke-width="1" />
  <line x1="99.99999999999999" y1="193.33333333333334" x2="93.33333333333334" y2="100.0" stroke="rgb(158, 158, 158)" stroke-width="1" />
  <line x1="100.0" y1="100.0" x2="99.99999999999999" y2="200.0" stroke="rgb(200, 200, 200)" stroke-width="1" />
  <line x1="106.66666666666667" y1="100.0" x2="99.99999999999999" y2="193.33333333333331" stroke="rgb(158, 158, 158)" stroke-width="1" />
  <line x1="113.33333333333333" y1="100.0" x2="99.99999999999999" y2="186.66666666666666" stroke="rgb(119, 119, 119)" stroke-width="1" />
  <line x1="120.0" y1="100.0" x2="99.99999999999999" y2="180.0" stroke="rgb(82, 82, 82)" stroke-width="1" />
  <line x1="126.66666666666667" y1="100.0" x2="99.99999999999999" y2="173.33333333333331" stroke="rgb(51, 51, 51)" stroke-width="1" />
  <line x1="133.33333333333334" y1="100.00000000000001" x2="99.99999999999999" y2="166.66666666666663" stroke="rgb(27, 27, 27)" stroke-width="1" />
  <line x1="140.0" y1="100.00000000000001" x2="99.99999999999999" y2="159.99999999999997" stroke="rgb(10, 10, 10)" stroke-width="1" />
  <line x1="146.66666666666666" y1="100.00000000000001" x2="99.99999999999999" y2="153.33333333333331" stroke="rgb(1, 1, 1)" stroke-width="1" />
  <line x1="153.33333333333331" y1="100.00000000000001" x2="99.99999999999999" y2="146.66666666666666" stroke="rgb(1, 1, 1)" stroke-width="1" />
  <line x1="160.0" y1="100.00000000000001" x2="99.99999999999999" y2="140.0" stroke="rgb(10, 10, 10)" stroke-width="1" />
  <line x1="166.66666666666666" y1="100.00000000000001" x2="100.0" y2="133.33333333333331" stroke="rgb(27, 27, 27)" stroke-width="1" />
  <line x1="173.33333333333331" y1="100.00000000000001" x2="100.0" y2="126.66666666666666" stroke="rgb(51, 51, 51)" stroke-width="1" />
  <line x1="180.0" y1="100.00000000000001" x2="100.0" y2="119.99999999999999" stroke="rgb(82, 82, 82)" stroke-width="1" />
  <line x1="186.66666666666669" y1="100.00000000000001" x2="100.0" y2="113.33333333333331" stroke="rgb(119, 119, 119)" stroke-width="1" />
  <line x1="193.33333333333334" y1="100.00000000000003" x2="100.0" y2="106.66666666666666" stroke="rgb(158, 158, 158)" stroke-width="1" />
</svg>
