<?xml version="1.0" encoding="UTF-8" ?>
<svg xmlns="http://www.w3.org/2000/svg" version="1.1" width="380.1937735804838" height="389.97116487272945">
  <line x1="180.19377358048382" y1="194.98558243636472" x2="380.1937735804838" y2="194.98558243636472" stroke="rgb(0, 255, 127)" stroke-width="1" />
  <line x1="186.42867159907115" y1="187.16726761168442" x2="370.1937735804838" y2="194.98558243636472" stroke="rgb(12, 242, 127)" stroke-width="1" />
  <line x1="192.66356961765848" y1="179.34895278700412" x2="360.1937735804838" y2="194.98558243636472" stroke="rgb(25, 229, 127)" stroke-width="1" />
  <line x1="198.8984676362458" y1="171.53063796232382" x2="350.1937735804838" y2="194.98558243636472" stroke="rgb(38, 216, 127)" stroke-width="1" />
  <line x1="205.13336565483317" y1="163.71232313764352" x2="340.1937735804838" y2="194.98558243636472" stroke="rgb(51, 204, 127)" stroke-width="1" />
  <line x1="211.3682636734205" y1="155.89400831296322" x2="330.1937735804838" y2="194.98558243636472" stroke="rgb(63, 191, 127)" stroke-width="1" />
  <line x1="217.60316169200783" y1="148.07569348828292" x2="320.1937735804838" y2="194.98558243636472" stroke="rgb(76, 178, 127)" stroke-width="1" />
  <line x1="223.8380597105952" y1="140.25737866360262" x2="310.1937735804838" y2="194.98558243636472" stroke="rgb(89, 165, 127)" stroke-width="1" />
  <line x1="230.07295772918252" y1="132.43906383892232" x2="300.1937735804838" y2="194.98558243636472" stroke="rgb(102, 153, 127)" stroke-width="1" />
  <line x1="236.30785574776985" y1="124.62074901424204" x2="290.1937735804838" y2="194.98558243636472" stroke="rgb(114, 140, 127)" stroke-width="1" />
  <line x1="242.54275376635718" y1="116.80243418956174" x2="280.1937735804838" y2="194.98558243636472" stroke="rgb(127, 127, 127)" stroke-width="1" />
  <line x1="248.7776517849445" y1="108.98411936488144" x2="270.1937735804838" y2="194.98558243636472" stroke="rgb(140, 114, 127)" stroke-width="1" />
  <line x1="255.01254980353184" y1="101.16580454020114" x2="260.1937735804838" y2="194.98558243636472" stroke="rgb(153, 102, 127)" stroke-width="1" />
  <line x1="261.24744782211917" y1="93.34748971552084" x2="250.19377358048382" y2="194.98558243636472" stroke="rgb(165, 89, 127)" stroke-width="1" />
  <line x1="267.4823458407065" y1="85.52917489084054" x2="240.19377358048382" y2="194.98558243636472" stroke="rgb(178, 76, 127)" stroke-width="1" />
  <line x1="273.71724385929383" y1="77.71086006616024" x2="230.19377358048382" y2="194.98558243636472" stroke="rgb(191, 63, 127)" stroke-width="1" />
  <line x1="279.95214187788116" y1="69.89254524147994" x2="220.19377358048382" y2="194.98558243636472" stroke="rgb(204, 51, 127)" stroke-width="1" />
  <line x1="286.1870398964685" y1="62.07423041679965" x2="210.19377358048382" y2="194.98558243636472" stroke="rgb(216, 38, 127)" stroke-width="1" />
  <line x1="292.4219379150558" y1="54.25591559211935" x2="200.19377358048382" y2="194.98558243636472" stroke="rgb(229, 25, 127)" stroke-width="1" />
  <line x1="298.65683593364315" y1="46.43760076743905" x2="190.19377358048382" y2="194.98558243636472" stroke="rgb(242, 12, 127)" stroke-width="1" />
  <line x1="180.19377358048382" y1="194.98558243636472" x2="304.89173395223054" y2="38.61928594275875" stroke="rgb(0, 255, 127)" stroke-width="1" />
  <line x1="177.96856424092067" y1="185.2363033145465" x2="298.6568359336432" y2="46.43760076743905" stroke="rgb(12, 242, 127)" stroke-width="1" />
  <line x1="175.74335490135752" y1="175.48702419272826" x2="292.4219379150559" y2="54.25591559211935" stroke="rgb(25, 229, 127)" stroke-width="1" />
  <line x1="173.5181455617944" y1="165.73774507091002" x2="286.18703989646855" y2="62.07423041679965" stroke="rgb(38, 216, 127)" stroke-width="1" />
  <line x1="171.29293622223125" y1="155.9884659490918" x2="279.9521418778812" y2="69.89254524147995" stroke="rgb(51, 204, 127)" stroke-width="1" />
  <line x1="169.0677268826681" y1="146.23918682727356" x2="273.7172438592939" y2="77.71086006616025" stroke="rgb(63, 191, 127)" stroke-width="1" />
  <line x1="166.84251754310498" y1="136.48990770545532" x2="267.48234584070656" y2="85.52917489084055" stroke="rgb(76, 178, 127)" stroke-width="1" />
  <line x1="164.61730820354182" y1="126.74062858363708" x2="261.2474478221192" y2="93.34748971552085" stroke="rgb(89, 165, 127)" stroke-width="1" />
  <line x1="162.39209886397867" y1="116.99134946181884" x2="255.0125498035319" y2="101.16580454020115" stroke="rgb(102, 153, 127)" stroke-width="1" />
  <line x1="160.16688952441552" y1="107.24207034000061" x2="248.77765178494457" y2="108.98411936488145" stroke="rgb(114, 140, 127)" stroke-width="1" />
  <line x1="157.94168018485237" y1="97.49279121818238" x2="242.54275376635724" y2="116.80243418956175" stroke="rgb(127, 127, 127)" stroke-width="1" />
  <line x1="155.71647084528925" y1="87.74351209636414" x2="236.3078557477699" y2="124.62074901424205" stroke="rgb(140, 114, 127)" stroke-width="1" />
  <line x1="153.4912615057261" y1="77.99423297454591" x2="230.07295772918255" y2="132.43906383892235" stroke="rgb(153, 102, 127)" stroke-width="1" />
  <line x1="151.26605216616295" y1="68.24495385272768" x2="223.83805971059522" y2="140.25737866360265" stroke="rgb(165, 89, 127)" stroke-width="1" />
  <line x1="149.04084282659983" y1="58.49567473090943" x2="217.6031616920079" y2="148.07569348828295" stroke="rgb(178, 76, 127)" stroke-width="1" />
  <line x1="146.81563348703668" y1="48.746395609091195" x2="211.36826367342053" y2="155.89400831296325" stroke="rgb(191, 63, 127)" stroke-width="1" />
  <line x1="144.59042414747353" y1="38.99711648727296" x2="205.1333656548332" y2="163.71232313764355" stroke="rgb(204, 51, 127)" stroke-width="1" />
  <line x1="142.36521480791038" y1="29.24783736545473" x2="198.89846763624587" y2="171.53063796232385" stroke="rgb(216, 38, 127)" stroke-width="1" />
  <line x1="140.14000546834723" y1="19.498558243636495" x2="192.66356961765854" y2="179.34895278700415" stroke="rgb(229, 25, 127)" stroke-width="1" />
  <line x1="137.9147961287841" y1="9.749279121818262" x2="186.4286715990712" y2="187.16726761168445" stroke="rgb(242, 12, 127)" stroke-width="1" />
  <line x1="180.19377358048382" y1="194.98558243636472" x2="135.68958678922095" y2="0.0" stroke="rgb(0, 255, 127)" stroke-width="1" />
  <line x1="171.18408490145964" y1="190.64674504518914" x2="137.9147961287841" y2="9.749279121818233" stroke="rgb(12, 242, 127)" stroke-width="1" />
  <line x1="162.17439622243543" y1="186.30790765401355" x2="140.14000546834723" y2="19.498558243636467" stroke="rgb(25, 229, 127)" stroke-width="1" />
  <line x1="153.16470754341125" y1="181.969070262838" x2="142.36521480791038" y2="29.2478373654547" stroke="rgb(38, 216, 127)" stroke-width="1" />
  <line x1="144.15501886438705" y1="177.6302328716624" x2="144.59042414747353" y2="38.99711648727293" stroke="rgb(51, 204, 127)" stroke-width="1" />
  <line x1="135.14533018536287" y1="173.2913954804868" x2="146.81563348703668" y2="48.74639560909117" stroke="rgb(63, 191, 127)" stroke-width="1" />
  <line x1="126.13564150633867" y1="168.95255808931122" x2="149.04084282659983" y2="58.4956747309094" stroke="rgb(76, 178, 127)" stroke-width="1" />
  <line x1="117.12595282731448" y1="164.61372069813564" x2="151.26605216616295" y2="68.24495385272763" stroke="rgb(89, 165, 127)" stroke-width="1" />
  <line x1="108.11626414829028" y1="160.27488330696008" x2="153.4912615057261" y2="77.99423297454587" stroke="rgb(102, 153, 127)" stroke-width="1" />
  <line x1="99.10657546926609" y1="155.9360459157845" x2="155.71647084528925" y2="87.7435120963641" stroke="rgb(114, 140, 127)" stroke-width="1" />
  <line x1="90.0968867902419" y1="151.5972085246089" x2="157.94168018485237" y2="97.49279121818233" stroke="rgb(127, 127, 127)" stroke-width="1" />
  <line x1="81.0871981112177" y1="147.25837113343334" x2="160.16688952441552" y2="107.24207034000057" stroke="rgb(140, 114, 127)" stroke-width="1" />
  <line x1="72.07750943219351" y1="142.91953374225776" x2="162.39209886397867" y2="116.9913494618188" stroke="rgb(153, 102, 127)" stroke-width="1" />
  <line x1="63.067820753169315" y1="138.58069635108217" x2="164.61730820354182" y2="126.74062858363703" stroke="rgb(165, 89, 127)" stroke-width="1" />
  <line x1="54.05813207414512" y1="134.24185895990658" x2="166.84251754310498" y2="136.48990770545527" stroke="rgb(178, 76, 127)" stroke-width="1" />
  <line x1="45.04844339512093" y1="129.903021568731" x2="169.0677268826681" y2="146.2391868272735" stroke="rgb(191, 63, 127)" stroke-width="1" />
  <line x1="36.03875471609675" y1="125.56418417755542" x2="171.29293622223125" y2="155.98846594909173" stroke="rgb(204, 51, 127)" stroke-width="1" />
  <line x1="27.029066037072567" y1="121.22534678637983" x2="173.5181455617944" y2="165.73774507090997" stroke="rgb(216, 38, 127)" stroke-width="1" />
  <line x1="18.019377358048388" y1="116.88650939520424" x2="175.74335490135752" y2="175.4870241927282" stroke="rgb(229, 25, 127)" stroke-width="1" />
  <line x1="9.009688679024208" y1="112.54767200402866" x2="177.96856424092067" y2="185.23630331454643" stroke="rgb(242, 12, 127)" stroke-width="1" />
  <line x1="180.19377358048382" y1="194.98558243636472" x2="0.0" y2="108.20883461285308" stroke="rgb(0, 255, 127)" stroke-width="1" />
  <line x1="171.18408490145964" y1="199.3244198275403" x2="9.00968867902418" y2="112.54767200402867" stroke="rgb(12, 242, 127)" stroke-width="1" />
  <line x1="162.17439622243543" y1="203.66325721871587" x2="18.01937735804836" y2="116.88650939520426" stroke="rgb(25, 229, 127)" stroke-width="1" />
  <line x1="153.16470754341125" y1="208.00209460989146" x2="27.02906603707254" y2="121.22534678637984" stroke="rgb(38, 216, 127)" stroke-width="1" />
  <line x1="144.15501886438705" y1="212.34093200106705" x2="36.03875471609672" y2="125.56418417755543" stroke="rgb(51, 204, 127)" stroke-width="1" />
  <line x1="135.14533018536287" y1="216.67976939224263" x2="45.0484433951209" y2="129.90302156873102" stroke="rgb(63, 191, 127)" stroke-width="1" />
  <line x1="126.13564150633867" y1="221.0186067834182" x2="54.05813207414509" y2="134.2418589599066" stroke="rgb(76, 178, 127)" stroke-width="1" />
  <line x1="117.12595282731448" y1="225.35744417459378" x2="63.067820753169286" y2="138.58069635108217" stroke="rgb(89, 165, 127)" stroke-width="1" />
  <line x1="108.11626414829028" y1="229.69628156576937" x2="72.07750943219348" y2="142.91953374225776" stroke="rgb(102, 153, 127)" stroke-width="1" />
  <line x1="99.10657546926609" y1="234.03511895694493" x2="81.08719811121767" y2="147.25837113343334" stroke="rgb(114, 140, 127)" stroke-width="1" />
  <line x1="90.0968867902419" y1="238.37395634812052" x2="90.09688679024187" y2="151.59720852460893" stroke="rgb(127, 127, 127)" stroke-width="1" />
  <line x1="81.0871981112177" y1="242.7127937392961" x2="99.10657546926606" y2="155.93604591578452" stroke="rgb(140, 114, 127)" stroke-width="1" />
  <line x1="72.07750943219351" y1="247.0516311304717" x2="108.11626414829026" y2="160.27488330696008" stroke="rgb(153, 102, 127)" stroke-width="1" />
  <line x1="63.067820753169315" y1="251.39046852164728" x2="117.12595282731445" y2="164.61372069813567" stroke="rgb(165, 89, 127)" stroke-width="1" />
  <line x1="54.05813207414512" y1="255.72930591282284" x2="126.13564150633864" y2="168.95255808931125" stroke="rgb(178, 76, 127)" stroke-width="1" />
  <line x1="45.04844339512093" y1="260.06814330399845" x2="135.14533018536284" y2="173.2913954804868" stroke="rgb(191, 63, 127)" stroke-width="1" />
  <line x1="36.03875471609675" y1="264.406980695174" x2="144.15501886438705" y2="177.6302328716624" stroke="rgb(204, 51, 127)" stroke-width="1" />
  <line x1="27.029066037072567" y1="268.7458180863496" x2="153.16470754341123" y2="181.969070262838" stroke="rgb(216, 38, 127)" stroke-width="1" />
  <line x1="18.019377358048388" y1="273.08465547752513" x2="162.1743962224354" y2="186.30790765401358" stroke="rgb(229, 25, 127)" stroke-width="1" />
  <line x1="9.009688679024208" y1="277.4234928687007" x2="171.1840849014596" y2="190.64674504518916" stroke="rgb(242, 12, 127)" stroke-width="1" />
  <line x1="180.19377358048382" y1="194.98558243636472" x2="0.0" y2="281.7623302598763" stroke="rgb(0, 255, 127)" stroke-width="1" />
  <line x1="177.96856424092067" y1="204.73486155818296" x2="9.00968867902418" y2="277.42349286870075" stroke="rgb(12, 242, 127)" stroke-width="1" />
  <line x1="175.74335490135755" y1="214.4841406800012" x2="18.01937735804836" y2="273.0846554775252" stroke="rgb(25, 229, 127)" stroke-width="1" />
  <line x1="173.5181455617944" y1="224.23341980181942" x2="27.02906603707254" y2="268.7458180863496" stroke="rgb(38, 216, 127)" stroke-width="1" />
  <line x1="171.29293622223128" y1="233.98269892363766" x2="36.03875471609672" y2="264.406980695174" stroke="rgb(51, 204, 127)" stroke-width="1" />
  <line x1="169.06772688266813" y1="243.7319780454559" x2="45.0484433951209" y2="260.06814330399845" stroke="rgb(63, 191, 127)" stroke-width="1" />
  <line x1="166.842517543105" y1="253.48125716727412" x2="54.05813207414509" y2="255.72930591282287" stroke="rgb(76, 178, 127)" stroke-width="1" />
  <line x1="164.61730820354185" y1="263.23053628909236" x2="63.067820753169286" y2="251.39046852164728" stroke="rgb(89, 165, 127)" stroke-width="1" />
  <line x1="162.39209886397873" y1="272.9798154109106" x2="72.07750943219348" y2="247.05163113047172" stroke="rgb(102, 153, 127)" stroke-width="1" />
  <line x1="160.16688952441558" y1="282.7290945327288" x2="81.08719811121767" y2="242.71279373929613" stroke="rgb(114, 140, 127)" stroke-width="1" />
  <line x1="157.94168018485246" y1="292.47837365454706" x2="90.09688679024187" y2="238.37395634812054" stroke="rgb(127, 127, 127)" stroke-width="1" />
  <line x1="155.7164708452893" y1="302.2276527763653" x2="99.10657546926606" y2="234.03511895694498" stroke="rgb(140, 114, 127)" stroke-width="1" />
  <line x1="153.4912615057262" y1="311.9769318981835" x2="108.11626414829026" y2="229.6962815657694" stroke="rgb(153, 102, 127)" stroke-width="1" />
  <line x1="151.26605216616304" y1="321.72621102000176" x2="117.12595282731445" y2="225.3574441745938" stroke="rgb(165, 89, 127)" stroke-width="1" />
  <line x1="149.0408428265999" y1="331.47549014182005" x2="126.13564150633864" y2="221.01860678341822" stroke="rgb(178, 76, 127)" stroke-width="1" />
  <line x1="146.81563348703676" y1="341.2247692636382" x2="135.14533018536284" y2="216.67976939224263" stroke="rgb(191, 63, 127)" stroke-width="1" />
  <line x1="144.59042414747364" y1="350.9740483854565" x2="144.15501886438705" y2="212.34093200106707" stroke="rgb(204, 51, 127)" stroke-width="1" />
  <line x1="142.3652148079105" y1="360.7233275072747" x2="153.16470754341123" y2="208.0020946098915" stroke="rgb(216, 38, 127)" stroke-width="1" />
  <line x1="140.14000546834737" y1="370.472606629093" x2="162.1743962224354" y2="203.6632572187159" stroke="rgb(229, 25, 127)" stroke-width="1" />
  <line x1="137.91479612878422" y1="380.22188575091116" x2="171.1840849014596" y2="199.32441982754034" stroke="rgb(242, 12, 127)" stroke-width="1" />
  <line x1="180.19377358048382" y1="194.98558243636472" x2="135.6895867892211" y2="389.97116487272945" stroke="rgb(0, 255, 127)" stroke-width="1" />
  <line x1="186.42867159907115" y1="202.80389726104502" x2="137.91479612878422" y2="380.22188575091127" stroke="rgb(12, 242, 127)" stroke-width="1" />
  <line x1="192.66356961765848" y1="210.62221208572532" x2="140.14000546834734" y2="370.472606629093" stroke="rgb(25, 229, 127)" stroke-width="1" />
  <line x1="198.8984676362458" y1="218.44052691040562" x2="142.3652148079105" y2="360.7233275072748" stroke="rgb(38, 216, 127)" stroke-width="1" />
  <line x1="205.13336565483314" y1="226.25884173508592" x2="144.59042414747364" y2="350.9740483854565" stroke="rgb(51, 204, 127)" stroke-width="1" />
  <line x1="211.3682636734205" y1="234.07715655976622" x2="146.81563348703676" y2="341.22476926363834" stroke="rgb(63, 191, 127)" stroke-width="1" />
  <line x1="217.60316169200783" y1="241.89547138444652" x2="149.04084282659989" y2="331.47549014182005" stroke="rgb(76, 178, 127)" stroke-width="1" />
  <line x1="223.83805971059516" y1="249.71378620912682" x2="151.26605216616304" y2="321.72621102000187" stroke="rgb(89, 165, 127)" stroke-width="1" />
  <line x1="230.0729577291825" y1="257.5321010338071" x2="153.4912615057262" y2="311.9769318981836" stroke="rgb(102, 153, 127)" stroke-width="1" />
  <line x1="236.30785574776982" y1="265.3504158584874" x2="155.7164708452893" y2="302.2276527763654" stroke="rgb(114, 140, 127)" stroke-width="1" />
  <line x1="242.54275376635715" y1="273.1687306831677" x2="157.94168018485243" y2="292.4783736545471" stroke="rgb(127, 127, 127)" stroke-width="1" />
  <line x1="248.77765178494448" y1="280.987045507848" x2="160.16688952441558" y2="282.72909453272894" stroke="rgb(140, 114, 127)" stroke-width="1" />
  <line x1="255.0125498035318" y1="288.8053603325283" x2="162.39209886397873" y2="272.97981541091065" stroke="rgb(153, 102, 127)" stroke-width="1" />
  <line x1="261.24744782211917" y1="296.6236751572086" x2="164.61730820354185" y2="263.23053628909247" stroke="rgb(165, 89, 127)" stroke-width="1" />
  <line x1="267.48234584070644" y1="304.4419899818889" x2="166.84251754310498" y2="253.4812571672742" stroke="rgb(178, 76, 127)" stroke-width="1" />
  <line x1="273.71724385929383" y1="312.2603048065692" x2="169.06772688266813" y2="243.73197804545597" stroke="rgb(191, 63, 127)" stroke-width="1" />
  <line x1="279.9521418778811" y1="320.0786196312495" x2="171.29293622223128" y2="233.98269892363774" stroke="rgb(204, 51, 127)" stroke-width="1" />
  <line x1="286.1870398964685" y1="327.8969344559298" x2="173.5181455617944" y2="224.2334198018195" stroke="rgb(216, 38, 127)" stroke-width="1" />
  <line x1="292.42193791505576" y1="335.7152492806101" x2="175.74335490135755" y2="214.48414068000127" stroke="rgb(229, 25, 127)" stroke-width="1" />
  <line x1="298.65683593364315" y1="343.5335641052904" x2="177.96856424092067" y2="204.73486155818304" stroke="rgb(242, 12, 127)" stroke-width="1" />
  <line x1="180.19377358048382" y1="194.98558243636472" x2="304.8917339522305" y2="351.35187892997067" stroke="rgb(0, 255, 127)" stroke-width="1" />
  <line x1="190.19377358048382" y1="194.98558243636472" x2="298.65683593364315" y2="343.5335641052904" stroke="rgb(12, 242, 127)" stroke-width="1" />
  <line x1="200.19377358048382" y1="194.98558243636472" x2="292.4219379150558" y2="335.7152492806101" stroke="rgb(25, 229, 127)" stroke-width="1" />
  <line x1="210.19377358048382" y1="194.98558243636472" x2="286.1870398964685" y2="327.8969344559298" stroke="rgb(38, 216, 127)" stroke-width="1" />
  <line x1="220.19377358048382" y1="194.98558243636472" x2="279.95214187788116" y2="320.07861963124947" stroke="rgb(51, 204, 127)" stroke-width="1" />
  <line x1="230.19377358048382" y1="194.98558243636472" x2="273.71724385929383" y2="312.2603048065692" stroke="rgb(63, 191, 127)" stroke-width="1" />
  <line x1="240.19377358048382" y1="194.98558243636475" x2="267.4823458407065" y2="304.4419899818889" stroke="rgb(76, 178, 127)" stroke-width="1" />
  <line x1="250.19377358048382" y1="194.98558243636475" x2="261.24744782211917" y2="296.6236751572086" stroke="rgb(89, 165, 127)" stroke-width="1" />
  <line x1="260.1937735804838" y1="194.98558243636475" x2="255.01254980353184" y2="288.80536033252827" stroke="rgb(102, 153, 127)" stroke-width="1" />
  <line x1="270.1937735804838" y1="194.98558243636475" x2="248.7776517849445" y2="280.987045507848" stroke="rgb(114, 140, 127)" stroke-width="1" />
  <line x1="280.1937735804838" y1="194.98558243636475" x2="242.54275376635718" y2="273.1687306831677" stroke="rgb(127, 127, 127)" stroke-width="1" />
  <line x1="290.1937735804838" y1="194.98558243636475" x2="236.30785574776985" y2="265.3504158584874" stroke="rgb(140, 114, 127)" stroke-width="1" />
  <line x1="300.1937735804838" y1="194.98558243636475" x2="230.07295772918252" y2="257.53210103380707" stroke="rgb(153, 102, 127)" stroke-width="1" />
  <line x1="310.1937735804838" y1="194.98558243636475" x2="223.8380597105952" y2="249.7137862091268" stroke="rgb(165, 89, 127)" stroke-width="1" />
  <line x1="320.1937735804838" y1="194.98558243636475" x2="217.60316169200786" y2="241.8954713844465" stroke="rgb(178, 76, 127)" stroke-width="1" />
  <line x1="330.1937735804838" y1="194.98558243636475" x2="211.36826367342053" y2="234.0771565597662" stroke="rgb(191, 63, 127)" stroke-width="1" />
  <line x1="340.1937735804838" y1="194.98558243636475" x2="205.1333656548332" y2="226.2588417350859" stroke="rgb(204, 51, 127)" stroke-width="1" />
  <line x1="350.1937735804838" y1="194.98558243636475" x2="198.89846763624587" y2="218.4405269104056" stroke="rgb(216, 38, 127)" stroke-width="1" />
  <line x1="360.1937735804838" y1="194.98558243636478" x2="192.66356961765854" y2="210.6222120857253" stroke="rgb(229, 25, 127)" stroke-width="1" />
  <line x1="370.1937735804838" y1="194.98558243636478" x2="186.4286715990712" y2="202.803897261045" stroke="rgb(242, 12, 127)" stroke-width="1" />
</svg>
