<?xml version="1.0" encoding="UTF-8" ?>
<svg xmlns="http://www.w3.org/2000/svg" version="1.1" width="300.0000000000001" height="346.4101615137754">
  <line x1="100.00000000000009" y1="173.20508075688775" x2="300.0000000000001" y2="173.20508075688775" stroke="rgb(0, 0, 0)" stroke-width="1" />
  <line x1="96.66666666666676" y1="167.4315780649915" x2="293.3333333333334" y2="173.20508075688775" stroke="rgb(0, 0, 0)" stroke-width="1" />
  <line x1="93.33333333333343" y1="161.65807537309524" x2="286.66666666666674" y2="173.20508075688775" stroke="rgb(0, 0, 0)" stroke-width="1" />
  <line x1="90.00000000000009" y1="155.884572681199" x2="280.0000000000001" y2="173.20508075688775" stroke="rgb(0, 0, 0)" stroke-width="1" />
  <line x1="86.66666666666676" y1="150.11106998930273" x2="273.3333333333335" y2="173.20508075688775" stroke="rgb(0, 0, 0)" stroke-width="1" />
  <line x1="83.33333333333343" y1="144.33756729740645" x2="266.6666666666668" y2="173.20508075688775" stroke="rgb(0, 0, 0)" stroke-width="1" />
  <line x1="80.0000000000001" y1="138.5640646055102" x2="260.0000000000001" y2="173.20508075688775" stroke="rgb(0, 0, 0)" stroke-width="1" />
  <line x1="76.66666666666677" y1="132.79056191361394" x2="253.33333333333348" y2="173.20508075688775" stroke="rgb(0, 0, 0)" stroke-width="1" />
  <line x1="73.33333333333343" y1="127.01705922171769" x2="246.66666666666683" y2="173.20508075688775" stroke="rgb(0, 0, 0)" stroke-width="1" />
  <line x1="70.0000000000001" y1="121.24355652982143" x2="240.00000000000017" y2="173.20508075688775" stroke="rgb(0, 0, 0)" stroke-width="1" />
  <line x1="66.66666666666677" y1="115.47005383792518" x2="233.3333333333335" y2="173.20508075688775" stroke="rgb(0, 0, 0)" stroke-width="1" />
  <line x1="63.33333333333344" y1="109.69655114602892" x2="226.66666666666686" y2="173.20508075688775" stroke="rgb(0, 0, 0)" stroke-width="1" />
  <line x1="60.000000000000114" y1="103.92304845413267" x2="220.00000000000017" y2="173.20508075688775" stroke="rgb(0, 0, 0)" stroke-width="1" />
  <line x1="56.666666666666785" y1="98.14954576223641" x2="213.33333333333348" y2="173.20508075688775" stroke="rgb(0, 0, 0)" stroke-width="1" />
  <line x1="53.33333333333346" y1="92.37604307034016" x2="206.66666666666683" y2="173.20508075688775" stroke="rgb(0, 0, 0)" stroke-width="1" />
  <line x1="50.00000000000013" y1="86.6025403784439" x2="200.00000000000017" y2="173.20508075688775" stroke="rgb(0, 0, 0)" stroke-width="1" />
  <line x1="46.6666666666668" y1="80.82903768654765" x2="193.33333333333348" y2="173.20508075688775" stroke="rgb(0, 0, 0)" stroke-width="1" />
  <line x1="43.33333333333347" y1="75.0555349946514" x2="186.6666666666668" y2="173.20508075688775" stroke="rgb(0, 0, 0)" stroke-width="1" />
  <line x1="40.00000000000014" y1="69.28203230275514" x2="180.00000000000014" y2="173.20508075688775" stroke="rgb(0, 0, 0)" stroke-width="1" />
  <line x1="36.66666666666681" y1="63.508529610858886" x2="173.33333333333348" y2="173.20508075688775" stroke="rgb(0, 0, 0)" stroke-width="1" />
  <line x1="33.333333333333485" y1="57.73502691896263" x2="166.6666666666668" y2="173.20508075688775" stroke="rgb(0, 0, 0)" stroke-width="1" />
  <line x1="30.000000000000156" y1="51.96152422706638" x2="160.00000000000014" y2="173.20508075688775" stroke="rgb(0, 0, 0)" stroke-width="1" />
  <line x1="26.666666666666828" y1="46.18802153517012" x2="153.33333333333348" y2="173.20508075688775" stroke="rgb(0, 0, 0)" stroke-width="1" />
  <line x1="23.3333333333335" y1="40.41451884327387" x2="146.6666666666668" y2="173.20508075688775" stroke="rgb(0, 0, 0)" stroke-width="1" />
  <line x1="20.00000000000017" y1="34.64101615137761" x2="140.00000000000014" y2="173.20508075688775" stroke="rgb(0, 0, 0)" stroke-width="1" />
  <line x1="16.666666666666842" y1="28.86751345948136" x2="133.33333333333348" y2="173.20508075688775" stroke="rgb(0, 0, 0)" stroke-width="1" />
  <line x1="13.333333333333513" y1="23.094010767585104" x2="126.66666666666681" y2="173.20508075688775" stroke="rgb(0, 0, 0)" stroke-width="1" />
  <line x1="10.000000000000185" y1="17.32050807568885" x2="120.00000000000014" y2="173.20508075688775" stroke="rgb(0, 0, 0)" stroke-width="1" />
  <line x1="6.666666666666856" y1="11.547005383792595" x2="113.33333333333347" y2="173.20508075688775" stroke="rgb(0, 0, 0)" stroke-width="1" />
  <line x1="3.3333333333335275" y1="5.77350269189634" x2="106.66666666666681" y2="173.20508075688775" stroke="rgb(0, 0, 0)" stroke-width="1" />
  <line x1="100.00000000000009" y1="173.20508075688775" x2="1.2789769243681803e-13" y2="0.0" stroke="rgb(0, 0, 0)" stroke-width="1" />
  <line x1="96.66666666666674" y1="178.978583448784" x2="3.3333333333334565" y2="5.773502691896255" stroke="rgb(0, 0, 0)" stroke-width="1" />
  <line x1="93.33333333333341" y1="184.75208614068026" x2="6.666666666666785" y2="11.54700538379251" stroke="rgb(0, 0, 0)" stroke-width="1" />
  <line x1="90.00000000000007" y1="190.52558883257652" x2="10.000000000000114" y2="17.320508075688764" stroke="rgb(0, 0, 0)" stroke-width="1" />
  <line x1="86.66666666666674" y1="196.29909152447277" x2="13.333333333333442" y2="23.09401076758502" stroke="rgb(0, 0, 0)" stroke-width="1" />
  <line x1="83.3333333333334" y1="202.07259421636903" x2="16.66666666666677" y2="28.867513459481273" stroke="rgb(0, 0, 0)" stroke-width="1" />
  <line x1="80.00000000000007" y1="207.84609690826528" x2="20.0000000000001" y2="34.64101615137753" stroke="rgb(0, 0, 0)" stroke-width="1" />
  <line x1="76.66666666666673" y1="213.61959960016154" x2="23.333333333333428" y2="40.41451884327378" stroke="rgb(0, 0, 0)" stroke-width="1" />
  <line x1="73.3333333333334" y1="219.3931022920578" x2="26.666666666666757" y2="46.18802153517004" stroke="rgb(0, 0, 0)" stroke-width="1" />
  <line x1="70.00000000000006" y1="225.16660498395404" x2="30.000000000000085" y2="51.96152422706629" stroke="rgb(0, 0, 0)" stroke-width="1" />
  <line x1="66.66666666666671" y1="230.9401076758503" x2="33.333333333333414" y2="57.73502691896255" stroke="rgb(0, 0, 0)" stroke-width="1" />
  <line x1="63.333333333333385" y1="236.71361036774655" x2="36.66666666666674" y2="63.5085296108588" stroke="rgb(0, 0, 0)" stroke-width="1" />
  <line x1="60.00000000000005" y1="242.4871130596428" x2="40.00000000000007" y2="69.28203230275506" stroke="rgb(0, 0, 0)" stroke-width="1" />
  <line x1="56.666666666666714" y1="248.2606157515391" x2="43.3333333333334" y2="75.05553499465131" stroke="rgb(0, 0, 0)" stroke-width="1" />
  <line x1="53.33333333333338" y1="254.03411844343532" x2="46.66666666666673" y2="80.82903768654757" stroke="rgb(0, 0, 0)" stroke-width="1" />
  <line x1="50.00000000000004" y1="259.8076211353316" x2="50.00000000000006" y2="86.60254037844382" stroke="rgb(0, 0, 0)" stroke-width="1" />
  <line x1="46.66666666666671" y1="265.5811238272278" x2="53.333333333333385" y2="92.37604307034007" stroke="rgb(0, 0, 0)" stroke-width="1" />
  <line x1="43.33333333333337" y1="271.3546265191241" x2="56.666666666666714" y2="98.14954576223633" stroke="rgb(0, 0, 0)" stroke-width="1" />
  <line x1="40.000000000000036" y1="277.12812921102034" x2="60.00000000000004" y2="103.92304845413258" stroke="rgb(0, 0, 0)" stroke-width="1" />
  <line x1="36.6666666666667" y1="282.9016319029166" x2="63.33333333333337" y2="109.69655114602884" stroke="rgb(0, 0, 0)" stroke-width="1" />
  <line x1="33.33333333333336" y1="288.67513459481285" x2="66.6666666666667" y2="115.4700538379251" stroke="rgb(0, 0, 0)" stroke-width="1" />
  <line x1="30.000000000000014" y1="294.44863728670913" x2="70.00000000000003" y2="121.24355652982135" stroke="rgb(0, 0, 0)" stroke-width="1" />
  <line x1="26.66666666666667" y1="300.22213997860536" x2="73.33333333333337" y2="127.0170592217176" stroke="rgb(0, 0, 0)" stroke-width="1" />
  <line x1="23.33333333333333" y1="305.99564267050164" x2="76.6666666666667" y2="132.79056191361386" stroke="rgb(0, 0, 0)" stroke-width="1" />
  <line x1="19.999999999999986" y1="311.7691453623979" x2="80.00000000000003" y2="138.5640646055101" stroke="rgb(0, 0, 0)" stroke-width="1" />
  <line x1="16.666666666666643" y1="317.54264805429415" x2="83.33333333333336" y2="144.33756729740637" stroke="rgb(0, 0, 0)" stroke-width="1" />
  <line x1="13.3333333333333" y1="323.3161507461904" x2="86.66666666666669" y2="150.11106998930262" stroke="rgb(0, 0, 0)" stroke-width="1" />
  <line x1="9.999999999999957" y1="329.08965343808666" x2="90.00000000000003" y2="155.88457268119888" stroke="rgb(0, 0, 0)" stroke-width="1" />
  <line x1="6.666666666666615" y1="334.86315612998294" x2="93.33333333333336" y2="161.65807537309513" stroke="rgb(0, 0, 0)" stroke-width="1" />
  <line x1="3.3333333333332718" y1="340.63665882187917" x2="96.66666666666669" y2="167.4315780649914" stroke="rgb(0, 0, 0)" stroke-width="1" />
  <line x1="100.00000000000009" y1="173.20508075688775" x2="0.0" y2="346.4101615137754" stroke="rgb(0, 0, 0)" stroke-width="1" />
  <line x1="106.66666666666676" y1="173.20508075688775" x2="3.333333333333343" y2="340.63665882187917" stroke="rgb(0, 0, 0)" stroke-width="1" />
  <line x1="113.33333333333341" y1="173.20508075688775" x2="6.666666666666686" y2="334.86315612998294" stroke="rgb(0, 0, 0)" stroke-width="1" />
  <line x1="120.00000000000009" y1="173.20508075688775" x2="10.000000000000028" y2="329.08965343808666" stroke="rgb(0, 0, 0)" stroke-width="1" />
  <line x1="126.66666666666676" y1="173.20508075688775" x2="13.333333333333371" y2="323.3161507461904" stroke="rgb(0, 0, 0)" stroke-width="1" />
  <line x1="133.33333333333343" y1="173.20508075688775" x2="16.666666666666714" y2="317.54264805429415" stroke="rgb(0, 0, 0)" stroke-width="1" />
  <line x1="140.00000000000009" y1="173.20508075688775" x2="20.000000000000057" y2="311.7691453623979" stroke="rgb(0, 0, 0)" stroke-width="1" />
  <line x1="146.66666666666674" y1="173.20508075688775" x2="23.3333333333334" y2="305.99564267050164" stroke="rgb(0, 0, 0)" stroke-width="1" />
  <line x1="153.33333333333343" y1="173.20508075688775" x2="26.666666666666742" y2="300.22213997860536" stroke="rgb(0, 0, 0)" stroke-width="1" />
  <line x1="160.00000000000009" y1="173.20508075688778" x2="30.000000000000085" y2="294.44863728670913" stroke="rgb(0, 0, 0)" stroke-width="1" />
  <line x1="166.66666666666674" y1="173.20508075688778" x2="33.33333333333343" y2="288.6751345948129" stroke="rgb(0, 0, 0)" stroke-width="1" />
  <line x1="173.33333333333343" y1="173.20508075688778" x2="36.666666666666764" y2="282.9016319029166" stroke="rgb(0, 0, 0)" stroke-width="1" />
  <line x1="180.00000000000009" y1="173.20508075688778" x2="40.0000000000001" y2="277.12812921102034" stroke="rgb(0, 0, 0)" stroke-width="1" />
  <line x1="186.66666666666674" y1="173.20508075688778" x2="43.333333333333435" y2="271.3546265191241" stroke="rgb(0, 0, 0)" stroke-width="1" />
  <line x1="193.33333333333343" y1="173.20508075688778" x2="46.66666666666677" y2="265.5811238272279" stroke="rgb(0, 0, 0)" stroke-width="1" />
  <line x1="200.0000000000001" y1="173.20508075688778" x2="50.00000000000011" y2="259.8076211353316" stroke="rgb(0, 0, 0)" stroke-width="1" />
  <line x1="206.66666666666677" y1="173.20508075688778" x2="53.33333333333344" y2="254.03411844343535" stroke="rgb(0, 0, 0)" stroke-width="1" />
  <line x1="213.33333333333343" y1="173.20508075688778" x2="56.66666666666678" y2="248.2606157515391" stroke="rgb(0, 0, 0)" stroke-width="1" />
  <line x1="220.0000000000001" y1="173.20508075688778" x2="60.000000000000114" y2="242.48711305964284" stroke="rgb(0, 0, 0)" stroke-width="1" />
  <line x1="226.6666666666668" y1="173.20508075688778" x2="63.33333333333345" y2="236.71361036774658" stroke="rgb(0, 0, 0)" stroke-width="1" />
  <line x1="233.33333333333346" y1="173.20508075688778" x2="66.66666666666679" y2="230.94010767585033" stroke="rgb(0, 0, 0)" stroke-width="1" />
  <line x1="240.0000000000001" y1="173.20508075688778" x2="70.00000000000011" y2="225.16660498395407" stroke="rgb(0, 0, 0)" stroke-width="1" />
  <line x1="246.66666666666677" y1="173.20508075688778" x2="73.33333333333346" y2="219.39310229205782" stroke="rgb(0, 0, 0)" stroke-width="1" />
  <line x1="253.33333333333343" y1="173.20508075688778" x2="76.6666666666668" y2="213.61959960016156" stroke="rgb(0, 0, 0)" stroke-width="1" />
  <line x1="260.0000000000001" y1="173.20508075688778" x2="80.00000000000013" y2="207.8460969082653" stroke="rgb(0, 0, 0)" stroke-width="1" />
  <line x1="266.66666666666674" y1="173.20508075688778" x2="83.33333333333346" y2="202.07259421636905" stroke="rgb(0, 0, 0)" stroke-width="1" />
  <line x1="273.33333333333337" y1="173.20508075688778" x2="86.6666666666668" y2="196.2990915244728" stroke="rgb(0, 0, 0)" stroke-width="1" />
  <line x1="280.00000000000006" y1="173.2050807568878" x2="90.00000000000014" y2="190.52558883257655" stroke="rgb(0, 0, 0)" stroke-width="1" />
  <line x1="286.66666666666674" y1="173.2050807568878" x2="93.33333333333347" y2="184.7520861406803" stroke="rgb(0, 0, 0)" stroke-width="1" />
  <line x1="293.33333333333337" y1="173.2050807568878" x2="96.66666666666681" y2="178.97858344878404" stroke="rgb(0, 0, 0)" stroke-width="1" />
</svg>
