<?xml version="1.0" encoding="UTF-8" ?>
<svg xmlns="http://www.w3.org/2000/svg" version="1.1" width="467.6537180435971" height="405.00000000000006">
  <line x1="350.74028853269783" y1="405.0" x2="350.74028853269783" y2="400.0" stroke="black" stroke-width="1" />
  <line x1="350.74028853269783" y1="400.0" x2="355.07041555162004" y2="397.5" stroke="black" stroke-width="1" />
  <line x1="355.07041555162004" y1="397.5" x2="350.74028853269783" y2="395.0" stroke="black" stroke-width="1" />
  <line x1="350.74028853269783" y1="395.0" x2="350.74028853269783" y2="390.0" stroke="black" stroke-width="1" />
  <line x1="350.74028853269783" y1="390.0" x2="355.07041555162004" y2="387.5" stroke="black" stroke-width="1" />
  <line x1="355.07041555162004" y1="387.5" x2="359.4005425705422" y2="390.0" stroke="black" stroke-width="1" />
  <line x1="359.4005425705422" y1="390.0" x2="359.4005425705422" y2="385.0" stroke="black" stroke-width="1" />
  <line x1="359.4005425705422" y1="385.0" x2="363.7306695894644" y2="382.5" stroke="black" stroke-width="1" />
  <line x1="363.7306695894644" y1="382.5" x2="359.4005425705422" y2="380.0" stroke="black" stroke-width="1" />
  <line x1="359.4005425705422" y1="380.0" x2="359.4005425705422" y2="375.0" stroke="black" stroke-width="1" />
  <line x1="359.4005425705422" y1="375.0" x2="355.07041555162004" y2="377.5" stroke="black" stroke-width="1" />
  <line x1="355.07041555162004" y1="377.5" x2="350.74028853269783" y2="375.0" stroke="black" stroke-width="1" />
  <line x1="350.74028853269783" y1="375.0" x2="350.74028853269783" y2="370.0" stroke="black" stroke-width="1" />
  <line x1="350.74028853269783" y1="370.0" x2="355.07041555162004" y2="367.5" stroke="black" stroke-width="1" />
  <line x1="355.07041555162004" y1="367.5" x2="350.74028853269783" y2="365.0" stroke="black" stroke-width="1" />
  <line x1="350.74028853269783" y1="365.0" x2="350.74028853269783" y2="360.0" stroke="black" stroke-width="1" />
  <line x1="350.74028853269783" y1="360.0" x2="355.07041555162004" y2="357.5" stroke="black" stroke-width="1" />
  <line x1="355.07041555162004" y1="357.5" x2="359.4005425705422" y2="360.0" stroke="black" stroke-width="1" />
  <line x1="359.4005425705422" y1="360.0" x2="359.4005425705422" y2="355.0" stroke="black" stroke-width="1" />
  <line x1="359.4005425705422" y1="355.0" x2="363.7306695894644" y2="352.5" stroke="black" stroke-width="1" />
  <line x1="363.7306695894644" y1="352.5" x2="368.0607966083866" y2="355.0" stroke="black" stroke-width="1" />
  <line x1="368.0607966083866" y1="355.0" x2="368.0607966083866" y2="360.0" stroke="black" stroke-width="1" />
  <line x1="368.0607966083866" y1="360.0" x2="372.3909236273088" y2="357.5" stroke="black" stroke-width="1" />
  <line x1="372.3909236273088" y1="357.5" x2="376.721050646231" y2="360.0" stroke="black" stroke-width="1" />
  <line x1="376.721050646231" y1="360.0" x2="376.721050646231" y2="355.0" stroke="black" stroke-width="1" />
  <line x1="376.721050646231" y1="355.0" x2="381.0511776651532" y2="352.5" stroke="black" stroke-width="1" />
  <line x1="381.0511776651532" y1="352.5" x2="376.721050646231" y2="350.0" stroke="black" stroke-width="1" />
  <line x1="376.721050646231" y1="350.0" x2="376.721050646231" y2="345.0" stroke="black" stroke-width="1" />
  <line x1="376.721050646231" y1="345.0" x2="381.0511776651532" y2="342.5" stroke="black" stroke-width="1" />
  <line x1="381.0511776651532" y1="342.5" x2="385.38130468407536" y2="345.0" stroke="black" stroke-width="1" />
  <line x1="385.38130468407536" y1="345.0" x2="385.38130468407536" y2="340.0" stroke="black" stroke-width="1" />
  <line x1="385.38130468407536" y1="340.0" x2="389.7114317029976" y2="337.5" stroke="black" stroke-width="1" />
  <line x1="389.7114317029976" y1="337.5" x2="385.38130468407536" y2="335.0" stroke="black" stroke-width="1" />
  <line x1="385.38130468407536" y1="335.0" x2="385.38130468407536" y2="330.0" stroke="black" stroke-width="1" />
  <line x1="385.38130468407536" y1="330.0" x2="381.0511776651532" y2="332.5" stroke="black" stroke-width="1" />
  <line x1="381.0511776651532" y1="332.5" x2="376.721050646231" y2="330.0" stroke="black" stroke-width="1" />
  <line x1="376.721050646231" y1="330.0" x2="376.721050646231" y2="325.0" stroke="black" stroke-width="1" />
  <line x1="376.721050646231" y1="325.0" x2="381.0511776651532" y2="322.5" stroke="black" stroke-width="1" />
  <line x1="381.0511776651532" y1="322.5" x2="376.721050646231" y2="320.0" stroke="black" stroke-width="1" />
  <line x1="376.721050646231" y1="320.0" x2="376.721050646231" y2="315.0" stroke="black" stroke-width="1" />
  <line x1="376.721050646231" y1="315.0" x2="372.3909236273088" y2="317.5" stroke="black" stroke-width="1" />
  <line x1="372.3909236273088" y1="317.5" x2="368.0607966083866" y2="315.0" stroke="black" stroke-width="1" />
  <line x1="368.0607966083866" y1="315.0" x2="368.0607966083866" y2="320.0" stroke="black" stroke-width="1" />
  <line x1="368.0607966083866" y1="320.0" x2="363.7306695894644" y2="322.5" stroke="black" stroke-width="1" />
  <line x1="363.7306695894644" y1="322.5" x2="359.4005425705422" y2="320.0" stroke="black" stroke-width="1" />
  <line x1="359.4005425705422" y1="320.0" x2="359.4005425705422" y2="315.0" stroke="black" stroke-width="1" />
  <line x1="359.4005425705422" y1="315.0" x2="355.07041555162004" y2="317.5" stroke="black" stroke-width="1" />
  <line x1="355.07041555162004" y1="317.5" x2="350.74028853269783" y2="315.0" stroke="black" stroke-width="1" />
  <line x1="350.74028853269783" y1="315.0" x2="350.74028853269783" y2="310.0" stroke="black" stroke-width="1" />
  <line x1="350.74028853269783" y1="310.0" x2="355.07041555162004" y2="307.5" stroke="black" stroke-width="1" />
  <line x1="355.07041555162004" y1="307.5" x2="350.74028853269783" y2="305.0" stroke="black" stroke-width="1" />
  <line x1="350.74028853269783" y1="305.0" x2="350.74028853269783" y2="300.0" stroke="black" stroke-width="1" />
  <line x1="350.74028853269783" y1="300.0" x2="355.07041555162004" y2="297.5" stroke="black" stroke-width="1" />
  <line x1="355.07041555162004" y1="297.5" x2="359.4005425705422" y2="300.0" stroke="black" stroke-width="1" />
  <line x1="359.4005425705422" y1="300.0" x2="359.4005425705422" y2="295.0" stroke="black" stroke-width="1" />
  <line x1="359.4005425705422" y1="295.0" x2="363.7306695894644" y2="292.5" stroke="black" stroke-width="1" />
  <line x1="363.7306695894644" y1="292.5" x2="359.4005425705422" y2="290.0" stroke="black" stroke-width="1" />
  <line x1="359.4005425705422" y1="290.0" x2="359.4005425705422" y2="285.0" stroke="black" stroke-width="1" />
  <line x1="359.4005425705422" y1="285.0" x2="355.07041555162004" y2="287.5" stroke="black" stroke-width="1" />
  <line x1="355.07041555162004" y1="287.5" x2="350.74028853269783" y2="285.0" stroke="black" stroke-width="1" />
  <line x1="350.74028853269783" y1="285.0" x2="350.74028853269783" y2="280.0" stroke="black" stroke-width="1" />
  <line x1="350.74028853269783" y1="280.0" x2="355.07041555162004" y2="277.5" stroke="black" stroke-width="1" />
  <line x1="355.07041555162004" y1="277.5" x2="350.74028853269783" y2="275.0" stroke="black" stroke-width="1" />
  <line x1="350.74028853269783" y1="275.0" x2="350.74028853269783" y2="270.0" stroke="black" stroke-width="1" />
  <line x1="350.74028853269783" y1="270.0" x2="355.07041555162004" y2="267.5" stroke="black" stroke-width="1" />
  <line x1="355.07041555162004" y1="267.5" x2="359.4005425705422" y2="270.0" stroke="black" stroke-width="1" />
  <line x1="359.4005425705422" y1="270.0" x2="359.4005425705422" y2="265.0" stroke="black" stroke-width="1" />
  <line x1="359.4005425705422" y1="265.0" x2="363.7306695894644" y2="262.5" stroke="black" stroke-width="1" />
  <line x1="363.7306695894644" y1="262.5" x2="368.0607966083866" y2="265.0" stroke="black" stroke-width="1" />
  <line x1="368.0607966083866" y1="265.0" x2="368.0607966083866" y2="270.0" stroke="black" stroke-width="1" />
  <line x1="368.0607966083866" y1="270.0" x2="372.3909236273088" y2="267.5" stroke="black" stroke-width="1" />
  <line x1="372.3909236273088" y1="267.5" x2="376.721050646231" y2="270.0" stroke="black" stroke-width="1" />
  <line x1="376.721050646231" y1="270.0" x2="376.721050646231" y2="265.0" stroke="black" stroke-width="1" />
  <line x1="376.721050646231" y1="265.0" x2="381.0511776651532" y2="262.5" stroke="black" stroke-width="1" />
  <line x1="381.0511776651532" y1="262.5" x2="376.721050646231" y2="260.0" stroke="black" stroke-width="1" />
  <line x1="376.721050646231" y1="260.0" x2="376.721050646231" y2="255.0" stroke="black" stroke-width="1" />
  <line x1="376.721050646231" y1="255.0" x2="381.0511776651532" y2="252.5" stroke="black" stroke-width="1" />
  <line x1="381.0511776651532" y1="252.5" x2="385.38130468407536" y2="255.0" stroke="black" stroke-width="1" />
  <line x1="385.38130468407536" y1="255.0" x2="385.38130468407536" y2="250.0" stroke="black" stroke-width="1" />
  <line x1="385.38130468407536" y1="250.0" x2="389.7114317029976" y2="247.5" stroke="black" stroke-width="1" />
  <line x1="389.7114317029976" y1="247.5" x2="394.0415587219197" y2="250.0" stroke="black" stroke-width="1" />
  <line x1="394.0415587219197" y1="250.0" x2="394.0415587219197" y2="255.0" stroke="black" stroke-width="1" />
  <line x1="394.0415587219197" y1="255.0" x2="398.37168574084194" y2="252.5" stroke="black" stroke-width="1" />
  <line x1="398.37168574084194" y1="252.5" x2="402.70181275976415" y2="255.0" stroke="black" stroke-width="1" />
  <line x1="402.70181275976415" y1="255.0" x2="402.70181275976415" y2="260.0" stroke="black" stroke-width="1" />
  <line x1="402.70181275976415" y1="260.0" x2="398.37168574084194" y2="262.5" stroke="black" stroke-width="1" />
  <line x1="398.37168574084194" y1="262.5" x2="402.70181275976415" y2="265.0" stroke="black" stroke-width="1" />
  <line x1="402.70181275976415" y1="265.0" x2="402.70181275976415" y2="270.0" stroke="black" stroke-width="1" />
  <line x1="402.70181275976415" y1="270.0" x2="407.0319397786863" y2="267.5" stroke="black" stroke-width="1" />
  <line x1="407.0319397786863" y1="267.5" x2="411.3620667976085" y2="270.0" stroke="black" stroke-width="1" />
  <line x1="411.3620667976085" y1="270.0" x2="411.3620667976085" y2="265.0" stroke="black" stroke-width="1" />
  <line x1="411.3620667976085" y1="265.0" x2="415.69219381653073" y2="262.5" stroke="black" stroke-width="1" />
  <line x1="415.69219381653073" y1="262.5" x2="420.0223208354529" y2="265.0" stroke="black" stroke-width="1" />
  <line x1="420.0223208354529" y1="265.0" x2="420.0223208354529" y2="270.0" stroke="black" stroke-width="1" />
  <line x1="420.0223208354529" y1="270.0" x2="424.3524478543751" y2="267.5" stroke="black" stroke-width="1" />
  <line x1="424.3524478543751" y1="267.5" x2="428.6825748732973" y2="270.0" stroke="black" stroke-width="1" />
  <line x1="428.6825748732973" y1="270.0" x2="428.6825748732973" y2="265.0" stroke="black" stroke-width="1" />
  <line x1="428.6825748732973" y1="265.0" x2="433.0127018922195" y2="262.5" stroke="black" stroke-width="1" />
  <line x1="433.0127018922195" y1="262.5" x2="428.6825748732973" y2="260.0" stroke="black" stroke-width="1" />
  <line x1="428.6825748732973" y1="260.0" x2="428.6825748732973" y2="255.0" stroke="black" stroke-width="1" />
  <line x1="428.6825748732973" y1="255.0" x2="433.0127018922195" y2="252.5" stroke="black" stroke-width="1" />
  <line x1="433.0127018922195" y1="252.5" x2="437.34282891114174" y2="255.0" stroke="black" stroke-width="1" />
  <line x1="437.34282891114174" y1="255.0" x2="437.34282891114174" y2="250.0" stroke="black" stroke-width="1" />
  <line x1="437.34282891114174" y1="250.0" x2="441.6729559300639" y2="247.5" stroke="black" stroke-width="1" />
  <line x1="441.6729559300639" y1="247.5" x2="437.34282891114174" y2="245.0" stroke="black" stroke-width="1" />
  <line x1="437.34282891114174" y1="245.0" x2="437.34282891114174" y2="240.0" stroke="black" stroke-width="1" />
  <line x1="437.34282891114174" y1="240.0" x2="433.0127018922195" y2="242.5" stroke="black" stroke-width="1" />
  <line x1="433.0127018922195" y1="242.5" x2="428.6825748732973" y2="240.0" stroke="black" stroke-width="1" />
  <line x1="428.6825748732973" y1="240.0" x2="428.6825748732973" y2="235.0" stroke="black" stroke-width="1" />
  <line x1="428.6825748732973" y1="235.0" x2="433.0127018922195" y2="232.5" stroke="black" stroke-width="1" />
  <line x1="433.0127018922195" y1="232.5" x2="428.6825748732973" y2="230.0" stroke="black" stroke-width="1" />
  <line x1="428.6825748732973" y1="230.0" x2="428.6825748732973" y2="225.0" stroke="black" stroke-width="1" />
  <line x1="428.6825748732973" y1="225.0" x2="433.0127018922195" y2="222.5" stroke="black" stroke-width="1" />
  <line x1="433.0127018922195" y1="222.5" x2="437.34282891114174" y2="225.0" stroke="black" stroke-width="1" />
  <line x1="437.34282891114174" y1="225.0" x2="437.34282891114174" y2="220.0" stroke="black" stroke-width="1" />
  <line x1="437.34282891114174" y1="220.0" x2="441.6729559300639" y2="217.5" stroke="black" stroke-width="1" />
  <line x1="441.6729559300639" y1="217.5" x2="446.0030829489861" y2="220.0" stroke="black" stroke-width="1" />
  <line x1="446.0030829489861" y1="220.0" x2="446.0030829489861" y2="225.0" stroke="black" stroke-width="1" />
  <line x1="446.0030829489861" y1="225.0" x2="450.3332099679083" y2="222.5" stroke="black" stroke-width="1" />
  <line x1="450.3332099679083" y1="222.5" x2="454.6633369868305" y2="225.0" stroke="black" stroke-width="1" />
  <line x1="454.6633369868305" y1="225.0" x2="454.6633369868305" y2="220.0" stroke="black" stroke-width="1" />
  <line x1="454.6633369868305" y1="220.0" x2="458.9934640057527" y2="217.5" stroke="black" stroke-width="1" />
  <line x1="458.9934640057527" y1="217.5" x2="454.6633369868305" y2="215.0" stroke="black" stroke-width="1" />
  <line x1="454.6633369868305" y1="215.0" x2="454.6633369868305" y2="210.0" stroke="black" stroke-width="1" />
  <line x1="454.6633369868305" y1="210.0" x2="458.9934640057527" y2="207.5" stroke="black" stroke-width="1" />
  <line x1="458.9934640057527" y1="207.5" x2="463.3235910246749" y2="210.0" stroke="black" stroke-width="1" />
  <line x1="463.3235910246749" y1="210.0" x2="463.3235910246749" y2="205.0" stroke="black" stroke-width="1" />
  <line x1="463.3235910246749" y1="205.0" x2="467.6537180435971" y2="202.5" stroke="black" stroke-width="1" />
  <line x1="467.6537180435971" y1="202.5" x2="463.3235910246749" y2="200.0" stroke="black" stroke-width="1" />
  <line x1="463.3235910246749" y1="200.0" x2="463.3235910246749" y2="195.0" stroke="black" stroke-width="1" />
  <line x1="463.3235910246749" y1="195.0" x2="458.9934640057527" y2="197.5" stroke="black" stroke-width="1" />
  <line x1="458.9934640057527" y1="197.5" x2="454.6633369868305" y2="195.0" stroke="black" stroke-width="1" />
  <line x1="454.6633369868305" y1="195.0" x2="454.6633369868305" y2="190.0" stroke="black" stroke-width="1" />
  <line x1="454.6633369868305" y1="190.0" x2="458.9934640057527" y2="187.5" stroke="black" stroke-width="1" />
  <line x1="458.9934640057527" y1="187.5" x2="454.6633369868305" y2="185.0" stroke="black" stroke-width="1" />
  <line x1="454.6633369868305" y1="185.0" x2="454.6633369868305" y2="180.0" stroke="black" stroke-width="1" />
  <line x1="454.6633369868305" y1="180.0" x2="450.3332099679083" y2="182.5" stroke="black" stroke-width="1" />
  <line x1="450.3332099679083" y1="182.5" x2="446.0030829489861" y2="180.0" stroke="black" stroke-width="1" />
  <line x1="446.0030829489861" y1="180.0" x2="446.0030829489861" y2="185.0" stroke="black" stroke-width="1" />
  <line x1="446.0030829489861" y1="185.0" x2="441.6729559300639" y2="187.5" stroke="black" stroke-width="1" />
  <line x1="441.6729559300639" y1="187.5" x2="437.34282891114174" y2="185.0" stroke="black" stroke-width="1" />
  <line x1="437.34282891114174" y1="185.0" x2="437.34282891114174" y2="180.0" stroke="black" stroke-width="1" />
  <line x1="437.34282891114174" y1="180.0" x2="433.0127018922195" y2="182.5" stroke="black" stroke-width="1" />
  <line x1="433.0127018922195" y1="182.5" x2="428.6825748732973" y2="180.0" stroke="black" stroke-width="1" />
  <line x1="428.6825748732973" y1="180.0" x2="428.6825748732973" y2="175.0" stroke="black" stroke-width="1" />
  <line x1="428.6825748732973" y1="175.0" x2="433.0127018922195" y2="172.5" stroke="black" stroke-width="1" />
  <line x1="433.0127018922195" y1="172.5" x2="428.6825748732973" y2="170.0" stroke="black" stroke-width="1" />
  <line x1="428.6825748732973" y1="170.0" x2="428.6825748732973" y2="165.0" stroke="black" stroke-width="1" />
  <line x1="428.6825748732973" y1="165.0" x2="433.0127018922195" y2="162.5" stroke="black" stroke-width="1" />
  <line x1="433.0127018922195" y1="162.5" x2="437.34282891114174" y2="165.0" stroke="black" stroke-width="1" />
  <line x1="437.34282891114174" y1="165.0" x2="437.34282891114174" y2="160.0" stroke="black" stroke-width="1" />
  <line x1="437.34282891114174" y1="160.0" x2="441.6729559300639" y2="157.5" stroke="black" stroke-width="1" />
  <line x1="441.6729559300639" y1="157.5" x2="437.34282891114174" y2="155.0" stroke="black" stroke-width="1" />
  <line x1="437.34282891114174" y1="155.0" x2="437.34282891114174" y2="150.0" stroke="black" stroke-width="1" />
  <line x1="437.34282891114174" y1="150.0" x2="433.0127018922195" y2="152.5" stroke="black" stroke-width="1" />
  <line x1="433.0127018922195" y1="152.5" x2="428.6825748732973" y2="150.0" stroke="black" stroke-width="1" />
  <line x1="428.6825748732973" y1="150.0" x2="428.6825748732973" y2="145.0" stroke="black" stroke-width="1" />
  <line x1="428.6825748732973" y1="145.0" x2="433.0127018922195" y2="142.5" stroke="black" stroke-width="1" />
  <line x1="433.0127018922195" y1="142.5" x2="428.6825748732973" y2="140.0" stroke="black" stroke-width="1" />
  <line x1="428.6825748732973" y1="140.0" x2="428.6825748732973" y2="135.0" stroke="black" stroke-width="1" />
  <line x1="428.6825748732973" y1="135.0" x2="424.3524478543751" y2="137.5" stroke="black" stroke-width="1" />
  <line x1="424.3524478543751" y1="137.5" x2="420.0223208354529" y2="135.0" stroke="black" stroke-width="1" />
  <line x1="420.0223208354529" y1="135.0" x2="420.0223208354529" y2="140.0" stroke="black" stroke-width="1" />
  <line x1="420.0223208354529" y1="140.0" x2="415.69219381653073" y2="142.5" stroke="black" stroke-width="1" />
  <line x1="415.69219381653073" y1="142.5" x2="411.3620667976085" y2="140.0" stroke="black" stroke-width="1" />
  <line x1="411.3620667976085" y1="140.0" x2="411.3620667976085" y2="135.0" stroke="black" stroke-width="1" />
  <line x1="411.3620667976085" y1="135.0" x2="407.03193977868636" y2="137.5" stroke="black" stroke-width="1" />
  <line x1="407.03193977868636" y1="137.5" x2="402.70181275976415" y2="135.0" stroke="black" stroke-width="1" />
  <line x1="402.70181275976415" y1="135.0" x2="402.70181275976415" y2="140.0" stroke="black" stroke-width="1" />
  <line x1="402.70181275976415" y1="140.0" x2="398.37168574084194" y2="142.5" stroke="black" stroke-width="1" />
  <line x1="398.37168574084194" y1="142.5" x2="402.70181275976415" y2="145.0" stroke="black" stroke-width="1" />
  <line x1="402.70181275976415" y1="145.0" x2="402.70181275976415" y2="150.0" stroke="black" stroke-width="1" />
  <line x1="402.70181275976415" y1="150.0" x2="398.37168574084194" y2="152.5" stroke="black" stroke-width="1" />
  <line x1="398.37168574084194" y1="152.5" x2="394.0415587219198" y2="150.0" stroke="black" stroke-width="1" />
  <line x1="394.0415587219198" y1="150.0" x2="394.0415587219198" y2="155.0" stroke="black" stroke-width="1" />
  <line x1="394.0415587219198" y1="155.0" x2="389.7114317029976" y2="157.5" stroke="black" stroke-width="1" />
  <line x1="389.7114317029976" y1="157.5" x2="385.38130468407536" y2="155.0" stroke="black" stroke-width="1" />
  <line x1="385.38130468407536" y1="155.0" x2="385.38130468407536" y2="150.0" stroke="black" stroke-width="1" />
  <line x1="385.38130468407536" y1="150.0" x2="381.0511776651532" y2="152.5" stroke="black" stroke-width="1" />
  <line x1="381.0511776651532" y1="152.5" x2="376.721050646231" y2="150.0" stroke="black" stroke-width="1" />
  <line x1="376.721050646231" y1="150.0" x2="376.721050646231" y2="145.0" stroke="black" stroke-width="1" />
  <line x1="376.721050646231" y1="145.0" x2="381.0511776651532" y2="142.5" stroke="black" stroke-width="1" />
  <line x1="381.0511776651532" y1="142.5" x2="376.721050646231" y2="140.0" stroke="black" stroke-width="1" />
  <line x1="376.721050646231" y1="140.0" x2="376.721050646231" y2="135.0" stroke="black" stroke-width="1" />
  <line x1="376.721050646231" y1="135.0" x2="372.3909236273088" y2="137.5" stroke="black" stroke-width="1" />
  <line x1="372.3909236273088" y1="137.5" x2="368.0607966083866" y2="135.0" stroke="black" stroke-width="1" />
  <line x1="368.0607966083866" y1="135.0" x2="368.0607966083866" y2="140.0" stroke="black" stroke-width="1" />
  <line x1="368.0607966083866" y1="140.0" x2="363.7306695894644" y2="142.5" stroke="black" stroke-width="1" />
  <line x1="363.7306695894644" y1="142.5" x2="359.4005425705422" y2="140.0" stroke="black" stroke-width="1" />
  <line x1="359.4005425705422" y1="140.0" x2="359.4005425705422" y2="135.0" stroke="black" stroke-width="1" />
  <line x1="359.4005425705422" y1="135.0" x2="355.07041555162004" y2="137.5" stroke="black" stroke-width="1" />
  <line x1="355.07041555162004" y1="137.5" x2="350.74028853269783" y2="135.0" stroke="black" stroke-width="1" />
  <line x1="350.74028853269783" y1="135.0" x2="350.74028853269783" y2="130.0" stroke="black" stroke-width="1" />
  <line x1="350.74028853269783" y1="130.0" x2="355.07041555162004" y2="127.5" stroke="black" stroke-width="1" />
  <line x1="355.07041555162004" y1="127.5" x2="350.74028853269783" y2="125.0" stroke="black" stroke-width="1" />
  <line x1="350.74028853269783" y1="125.0" x2="350.74028853269783" y2="120.0" stroke="black" stroke-width="1" />
  <line x1="350.74028853269783" y1="120.0" x2="355.07041555162004" y2="117.5" stroke="black" stroke-width="1" />
  <line x1="355.07041555162004" y1="117.5" x2="359.4005425705422" y2="120.0" stroke="black" stroke-width="1" />
  <line x1="359.4005425705422" y1="120.0" x2="359.4005425705422" y2="115.0" stroke="black" stroke-width="1" />
  <line x1="359.4005425705422" y1="115.0" x2="363.7306695894644" y2="112.5" stroke="black" stroke-width="1" />
  <line x1="363.7306695894644" y1="112.5" x2="359.4005425705422" y2="110.0" stroke="black" stroke-width="1" />
  <line x1="359.4005425705422" y1="110.0" x2="359.4005425705422" y2="105.0" stroke="black" stroke-width="1" />
  <line x1="359.4005425705422" y1="105.0" x2="355.07041555162004" y2="107.5" stroke="black" stroke-width="1" />
  <line x1="355.07041555162004" y1="107.5" x2="350.74028853269783" y2="105.0" stroke="black" stroke-width="1" />
  <line x1="350.74028853269783" y1="105.0" x2="350.74028853269783" y2="100.0" stroke="black" stroke-width="1" />
  <line x1="350.74028853269783" y1="100.0" x2="355.07041555162004" y2="97.5" stroke="black" stroke-width="1" />
  <line x1="355.07041555162004" y1="97.5" x2="350.74028853269783" y2="95.0" stroke="black" stroke-width="1" />
  <line x1="350.74028853269783" y1="95.0" x2="350.74028853269783" y2="90.0" stroke="black" stroke-width="1" />
  <line x1="350.74028853269783" y1="90.0" x2="355.07041555162004" y2="87.5" stroke="black" stroke-width="1" />
  <line x1="355.07041555162004" y1="87.5" x2="359.4005425705422" y2="90.0" stroke="black" stroke-width="1" />
  <line x1="359.4005425705422" y1="90.0" x2="359.4005425705422" y2="85.0" stroke="black" stroke-width="1" />
  <line x1="359.4005425705422" y1="85.0" x2="363.7306695894644" y2="82.5" stroke="black" stroke-width="1" />
  <line x1="363.7306695894644" y1="82.5" x2="368.0607966083866" y2="85.0" stroke="black" stroke-width="1" />
  <line x1="368.0607966083866" y1="85.0" x2="368.0607966083866" y2="90.0" stroke="black" stroke-width="1" />
  <line x1="368.0607966083866" y1="90.0" x2="372.3909236273088" y2="87.5" stroke="black" stroke-width="1" />
  <line x1="372.3909236273088" y1="87.5" x2="376.721050646231" y2="90.0" stroke="black" stroke-width="1" />
  <line x1="376.721050646231" y1="90.0" x2="376.721050646231" y2="85.0" stroke="black" stroke-width="1" />
  <line x1="376.721050646231" y1="85.0" x2="381.0511776651532" y2="82.5" stroke="black" stroke-width="1" />
  <line x1="381.0511776651532" y1="82.5" x2="376.721050646231" y2="80.0" stroke="black" stroke-width="1" />
  <line x1="376.721050646231" y1="80.0" x2="376.721050646231" y2="75.0" stroke="black" stroke-width="1" />
  <line x1="376.721050646231" y1="75.0" x2="381.0511776651532" y2="72.5" stroke="black" stroke-width="1" />
  <line x1="381.0511776651532" y1="72.5" x2="385.38130468407536" y2="75.0" stroke="black" stroke-width="1" />
  <line x1="385.38130468407536" y1="75.0" x2="385.38130468407536" y2="70.0" stroke="black" stroke-width="1" />
  <line x1="385.38130468407536" y1="70.0" x2="389.7114317029976" y2="67.5" stroke="black" stroke-width="1" />
  <line x1="389.7114317029976" y1="67.5" x2="385.38130468407536" y2="65.0" stroke="black" stroke-width="1" />
  <line x1="385.38130468407536" y1="65.0" x2="385.38130468407536" y2="60.0" stroke="black" stroke-width="1" />
  <line x1="385.38130468407536" y1="60.0" x2="381.0511776651532" y2="62.5" stroke="black" stroke-width="1" />
  <line x1="381.0511776651532" y1="62.5" x2="376.721050646231" y2="60.0" stroke="black" stroke-width="1" />
  <line x1="376.721050646231" y1="60.0" x2="376.721050646231" y2="55.0" stroke="black" stroke-width="1" />
  <line x1="376.721050646231" y1="55.0" x2="381.0511776651532" y2="52.5" stroke="black" stroke-width="1" />
  <line x1="381.0511776651532" y1="52.5" x2="376.721050646231" y2="50.0" stroke="black" stroke-width="1" />
  <line x1="376.721050646231" y1="50.0" x2="376.721050646231" y2="45.0" stroke="black" stroke-width="1" />
  <line x1="376.721050646231" y1="45.0" x2="372.3909236273088" y2="47.5" stroke="black" stroke-width="1" />
  <line x1="372.3909236273088" y1="47.5" x2="368.0607966083866" y2="45.0" stroke="black" stroke-width="1" />
  <line x1="368.0607966083866" y1="45.0" x2="368.0607966083866" y2="50.0" stroke="black" stroke-width="1" />
  <line x1="368.0607966083866" y1="50.0" x2="363.7306695894644" y2="52.5" stroke="black" stroke-width="1" />
  <line x1="363.7306695894644" y1="52.5" x2="359.4005425705422" y2="50.0" stroke="black" stroke-width="1" />
  <line x1="359.4005425705422" y1="50.0" x2="359.4005425705422" y2="45.0" stroke="black" stroke-width="1" />
  <line x1="359.4005425705422" y1="45.0" x2="355.07041555162004" y2="47.5" stroke="black" stroke-width="1" />
  <line x1="355.07041555162004" y1="47.5" x2="350.74028853269783" y2="45.0" stroke="black" stroke-width="1" />
  <line x1="350.74028853269783" y1="45.0" x2="350.74028853269783" y2="40.0" stroke="black" stroke-width="1" />
  <line x1="350.74028853269783" y1="40.0" x2="355.07041555162004" y2="37.5" stroke="black" stroke-width="1" />
  <line x1="355.07041555162004" y1="37.5" x2="350.74028853269783" y2="35.0" stroke="black" stroke-width="1" />
  <line x1="350.74028853269783" y1="35.0" x2="350.74028853269783" y2="30.0" stroke="black" stroke-width="1" />
  <line x1="350.74028853269783" y1="30.0" x2="355.07041555162004" y2="27.5" stroke="black" stroke-width="1" />
  <line x1="355.07041555162004" y1="27.5" x2="359.4005425705422" y2="30.0" stroke="black" stroke-width="1" />
  <line x1="359.4005425705422" y1="30.0" x2="359.4005425705422" y2="25.0" stroke="black" stroke-width="1" />
  <line x1="359.4005425705422" y1="25.0" x2="363.7306695894644" y2="22.5" stroke="black" stroke-width="1" />
  <line x1="363.7306695894644" y1="22.5" x2="359.4005425705422" y2="20.0" stroke="black" stroke-width="1" />
  <line x1="359.4005425705422" y1="20.0" x2="359.4005425705422" y2="15.0" stroke="black" stroke-width="1" />
  <line x1="359.4005425705422" y1="15.0" x2="355.07041555162004" y2="17.5" stroke="black" stroke-width="1" />
  <line x1="355.07041555162004" y1="17.5" x2="350.74028853269783" y2="15.0" stroke="black" stroke-width="1" />
  <line x1="350.74028853269783" y1="15.0" x2="350.74028853269783" y2="10.0" stroke="black" stroke-width="1" />
  <line x1="350.74028853269783" y1="10.0" x2="355.07041555162004" y2="7.5" stroke="black" stroke-width="1" />
  <line x1="355.07041555162004" y1="7.5" x2="350.74028853269783" y2="5.0" stroke="black" stroke-width="1" />
  <line x1="350.74028853269783" y1="5.0" x2="350.74028853269783" y2="0.0" stroke="black" stroke-width="1" />
  <line x1="350.74028853269783" y1="0.0" x2="346.4101615137756" y2="2.5" stroke="black" stroke-width="1" />
  <line x1="346.4101615137756" y1="2.5" x2="342.08003449485346" y2="0.0" stroke="black" stroke-width="1" />
  <line x1="342.08003449485346" y1="0.0" x2="342.08003449485346" y2="5.0" stroke="black" stroke-width="1" />
  <line x1="342.08003449485346" y1="5.0" x2="337.74990747593125" y2="7.5" stroke="black" stroke-width="1" />
  <line x1="337.74990747593125" y1="7.5" x2="333.41978045700904" y2="5.0" stroke="black" stroke-width="1" />
  <line x1="333.41978045700904" y1="5.0" x2="333.41978045700904" y2="0.0" stroke="black" stroke-width="1" />
  <line x1="333.41978045700904" y1="0.0" x2="329.0896534380869" y2="2.5" stroke="black" stroke-width="1" />
  <line x1="329.0896534380869" y1="2.5" x2="324.7595264191647" y2="0.0" stroke="black" stroke-width="1" />
  <line x1="324.7595264191647" y1="0.0" x2="324.7595264191647" y2="5.0" stroke="black" stroke-width="1" />
  <line x1="324.7595264191647" y1="5.0" x2="320.42939940024246" y2="7.5" stroke="black" stroke-width="1" />
  <line x1="320.42939940024246" y1="7.5" x2="324.7595264191647" y2="10.0" stroke="black" stroke-width="1" />
  <line x1="324.7595264191647" y1="10.0" x2="324.7595264191647" y2="15.0" stroke="black" stroke-width="1" />
  <line x1="324.7595264191647" y1="15.0" x2="320.42939940024246" y2="17.5" stroke="black" stroke-width="1" />
  <line x1="320.42939940024246" y1="17.5" x2="316.0992723813203" y2="15.0" stroke="black" stroke-width="1" />
  <line x1="316.0992723813203" y1="15.0" x2="316.0992723813203" y2="20.0" stroke="black" stroke-width="1" />
  <line x1="316.0992723813203" y1="20.0" x2="311.7691453623981" y2="22.5" stroke="black" stroke-width="1" />
  <line x1="311.7691453623981" y1="22.5" x2="307.43901834347594" y2="20.0" stroke="black" stroke-width="1" />
  <line x1="307.43901834347594" y1="20.0" x2="307.43901834347594" y2="15.0" stroke="black" stroke-width="1" />
  <line x1="307.43901834347594" y1="15.0" x2="303.1088913245537" y2="17.5" stroke="black" stroke-width="1" />
  <line x1="303.1088913245537" y1="17.5" x2="298.7787643056315" y2="15.0" stroke="black" stroke-width="1" />
  <line x1="298.7787643056315" y1="15.0" x2="298.7787643056315" y2="10.0" stroke="black" stroke-width="1" />
  <line x1="298.7787643056315" y1="10.0" x2="303.1088913245537" y2="7.5" stroke="black" stroke-width="1" />
  <line x1="303.1088913245537" y1="7.5" x2="298.7787643056315" y2="5.0" stroke="black" stroke-width="1" />
  <line x1="298.7787643056315" y1="5.0" x2="298.7787643056315" y2="0.0" stroke="black" stroke-width="1" />
  <line x1="298.7787643056315" y1="0.0" x2="294.44863728670936" y2="2.5" stroke="black" stroke-width="1" />
  <line x1="294.44863728670936" y1="2.5" x2="290.11851026778714" y2="0.0" stroke="black" stroke-width="1" />
  <line x1="290.11851026778714" y1="0.0" x2="290.11851026778714" y2="5.0" stroke="black" stroke-width="1" />
  <line x1="290.11851026778714" y1="5.0" x2="285.78838324886493" y2="7.5" stroke="black" stroke-width="1" />
  <line x1="285.78838324886493" y1="7.5" x2="281.4582562299428" y2="5.0" stroke="black" stroke-width="1" />
  <line x1="281.4582562299428" y1="5.0" x2="281.4582562299428" y2="0.0" stroke="black" stroke-width="1" />
  <line x1="281.4582562299428" y1="0.0" x2="277.12812921102056" y2="2.5" stroke="black" stroke-width="1" />
  <line x1="277.12812921102056" y1="2.5" x2="272.79800219209835" y2="0.0" stroke="black" stroke-width="1" />
  <line x1="272.79800219209835" y1="0.0" x2="272.79800219209835" y2="5.0" stroke="black" stroke-width="1" />
  <line x1="272.79800219209835" y1="5.0" x2="268.46787517317614" y2="7.5" stroke="black" stroke-width="1" />
  <line x1="268.46787517317614" y1="7.5" x2="272.79800219209835" y2="10.0" stroke="black" stroke-width="1" />
  <line x1="272.79800219209835" y1="10.0" x2="272.79800219209835" y2="15.0" stroke="black" stroke-width="1" />
  <line x1="272.79800219209835" y1="15.0" x2="268.46787517317614" y2="17.5" stroke="black" stroke-width="1" />
  <line x1="268.46787517317614" y1="17.5" x2="264.1377481542539" y2="15.0" stroke="black" stroke-width="1" />
  <line x1="264.1377481542539" y1="15.0" x2="264.1377481542539" y2="20.0" stroke="black" stroke-width="1" />
  <line x1="264.1377481542539" y1="20.0" x2="259.8076211353318" y2="22.5" stroke="black" stroke-width="1" />
  <line x1="259.8076211353318" y1="22.5" x2="264.1377481542539" y2="25.0" stroke="black" stroke-width="1" />
  <line x1="264.1377481542539" y1="25.0" x2="264.1377481542539" y2="30.0" stroke="black" stroke-width="1" />
  <line x1="264.1377481542539" y1="30.0" x2="268.46787517317614" y2="27.5" stroke="black" stroke-width="1" />
  <line x1="268.46787517317614" y1="27.5" x2="272.79800219209835" y2="30.0" stroke="black" stroke-width="1" />
  <line x1="272.79800219209835" y1="30.0" x2="272.79800219209835" y2="35.0" stroke="black" stroke-width="1" />
  <line x1="272.79800219209835" y1="35.0" x2="268.46787517317614" y2="37.5" stroke="black" stroke-width="1" />
  <line x1="268.46787517317614" y1="37.5" x2="272.79800219209835" y2="40.0" stroke="black" stroke-width="1" />
  <line x1="272.79800219209835" y1="40.0" x2="272.79800219209835" y2="45.0" stroke="black" stroke-width="1" />
  <line x1="272.79800219209835" y1="45.0" x2="268.46787517317614" y2="47.5" stroke="black" stroke-width="1" />
  <line x1="268.46787517317614" y1="47.5" x2="264.1377481542539" y2="45.0" stroke="black" stroke-width="1" />
  <line x1="264.1377481542539" y1="45.0" x2="264.1377481542539" y2="50.0" stroke="black" stroke-width="1" />
  <line x1="264.1377481542539" y1="50.0" x2="259.8076211353318" y2="52.5" stroke="black" stroke-width="1" />
  <line x1="259.8076211353318" y1="52.5" x2="255.47749411640956" y2="50.0" stroke="black" stroke-width="1" />
  <line x1="255.47749411640956" y1="50.0" x2="255.47749411640956" y2="45.0" stroke="black" stroke-width="1" />
  <line x1="255.47749411640956" y1="45.0" x2="251.14736709748735" y2="47.5" stroke="black" stroke-width="1" />
  <line x1="251.14736709748735" y1="47.5" x2="246.81724007856516" y2="45.0" stroke="black" stroke-width="1" />
  <line x1="246.81724007856516" y1="45.0" x2="246.81724007856516" y2="50.0" stroke="black" stroke-width="1" />
  <line x1="246.81724007856516" y1="50.0" x2="242.48711305964298" y2="52.5" stroke="black" stroke-width="1" />
  <line x1="242.48711305964298" y1="52.5" x2="246.81724007856516" y2="55.0" stroke="black" stroke-width="1" />
  <line x1="246.81724007856516" y1="55.0" x2="246.81724007856516" y2="60.0" stroke="black" stroke-width="1" />
  <line x1="246.81724007856516" y1="60.0" x2="242.48711305964298" y2="62.5" stroke="black" stroke-width="1" />
  <line x1="242.48711305964298" y1="62.5" x2="238.15698604072077" y2="60.0" stroke="black" stroke-width="1" />
  <line x1="238.15698604072077" y1="60.0" x2="238.15698604072077" y2="65.0" stroke="black" stroke-width="1" />
  <line x1="238.15698604072077" y1="65.0" x2="233.82685902179855" y2="67.5" stroke="black" stroke-width="1" />
  <line x1="233.82685902179855" y1="67.5" x2="229.49673200287637" y2="65.0" stroke="black" stroke-width="1" />
  <line x1="229.49673200287637" y1="65.0" x2="229.49673200287637" y2="60.0" stroke="black" stroke-width="1" />
  <line x1="229.49673200287637" y1="60.0" x2="225.1666049839542" y2="62.5" stroke="black" stroke-width="1" />
  <line x1="225.1666049839542" y1="62.5" x2="220.83647796503197" y2="60.0" stroke="black" stroke-width="1" />
  <line x1="220.83647796503197" y1="60.0" x2="220.83647796503197" y2="55.0" stroke="black" stroke-width="1" />
  <line x1="220.83647796503197" y1="55.0" x2="225.1666049839542" y2="52.5" stroke="black" stroke-width="1" />
  <line x1="225.1666049839542" y1="52.5" x2="220.83647796503197" y2="50.0" stroke="black" stroke-width="1" />
  <line x1="220.83647796503197" y1="50.0" x2="220.83647796503197" y2="45.0" stroke="black" stroke-width="1" />
  <line x1="220.83647796503197" y1="45.0" x2="216.5063509461098" y2="47.5" stroke="black" stroke-width="1" />
  <line x1="216.5063509461098" y1="47.5" x2="212.1762239271876" y2="45.0" stroke="black" stroke-width="1" />
  <line x1="212.1762239271876" y1="45.0" x2="212.1762239271876" y2="50.0" stroke="black" stroke-width="1" />
  <line x1="212.1762239271876" y1="50.0" x2="207.84609690826542" y2="52.5" stroke="black" stroke-width="1" />
  <line x1="207.84609690826542" y1="52.5" x2="203.51596988934324" y2="50.0" stroke="black" stroke-width="1" />
  <line x1="203.51596988934324" y1="50.0" x2="203.51596988934324" y2="45.0" stroke="black" stroke-width="1" />
  <line x1="203.51596988934324" y1="45.0" x2="199.18584287042106" y2="47.5" stroke="black" stroke-width="1" />
  <line x1="199.18584287042106" y1="47.5" x2="194.85571585149887" y2="45.0" stroke="black" stroke-width="1" />
  <line x1="194.85571585149887" y1="45.0" x2="194.85571585149887" y2="40.0" stroke="black" stroke-width="1" />
  <line x1="194.85571585149887" y1="40.0" x2="199.18584287042106" y2="37.5" stroke="black" stroke-width="1" />
  <line x1="199.18584287042106" y1="37.5" x2="194.85571585149887" y2="35.0" stroke="black" stroke-width="1" />
  <line x1="194.85571585149887" y1="35.0" x2="194.85571585149887" y2="30.0" stroke="black" stroke-width="1" />
  <line x1="194.85571585149887" y1="30.0" x2="199.18584287042106" y2="27.5" stroke="black" stroke-width="1" />
  <line x1="199.18584287042106" y1="27.5" x2="203.51596988934324" y2="30.0" stroke="black" stroke-width="1" />
  <line x1="203.51596988934324" y1="30.0" x2="203.51596988934324" y2="25.0" stroke="black" stroke-width="1" />
  <line x1="203.51596988934324" y1="25.0" x2="207.84609690826542" y2="22.5" stroke="black" stroke-width="1" />
  <line x1="207.84609690826542" y1="22.5" x2="203.51596988934324" y2="20.0" stroke="black" stroke-width="1" />
  <line x1="203.51596988934324" y1="20.0" x2="203.51596988934324" y2="15.0" stroke="black" stroke-width="1" />
  <line x1="203.51596988934324" y1="15.0" x2="199.18584287042106" y2="17.5" stroke="black" stroke-width="1" />
  <line x1="199.18584287042106" y1="17.5" x2="194.85571585149887" y2="15.0" stroke="black" stroke-width="1" />
  <line x1="194.85571585149887" y1="15.0" x2="194.85571585149887" y2="10.0" stroke="black" stroke-width="1" />
  <line x1="194.85571585149887" y1="10.0" x2="199.18584287042106" y2="7.5" stroke="black" stroke-width="1" />
  <line x1="199.18584287042106" y1="7.5" x2="194.85571585149887" y2="5.0" stroke="black" stroke-width="1" />
  <line x1="194.85571585149887" y1="5.0" x2="194.85571585149887" y2="0.0" stroke="black" stroke-width="1" />
  <line x1="194.85571585149887" y1="0.0" x2="190.5255888325767" y2="2.5" stroke="black" stroke-width="1" />
  <line x1="190.5255888325767" y1="2.5" x2="186.1954618136545" y2="0.0" stroke="black" stroke-width="1" />
  <line x1="186.1954618136545" y1="0.0" x2="186.1954618136545" y2="5.0" stroke="black" stroke-width="1" />
  <line x1="186.1954618136545" y1="5.0" x2="181.86533479473232" y2="7.5" stroke="black" stroke-width="1" />
  <line x1="181.86533479473232" y1="7.5" x2="177.53520777581014" y2="5.0" stroke="black" stroke-width="1" />
  <line x1="177.53520777581014" y1="5.0" x2="177.53520777581014" y2="0.0" stroke="black" stroke-width="1" />
  <line x1="177.53520777581014" y1="0.0" x2="173.20508075688795" y2="2.5" stroke="black" stroke-width="1" />
  <line x1="173.20508075688795" y1="2.5" x2="168.87495373796577" y2="0.0" stroke="black" stroke-width="1" />
  <line x1="168.87495373796577" y1="0.0" x2="168.87495373796577" y2="5.0" stroke="black" stroke-width="1" />
  <line x1="168.87495373796577" y1="5.0" x2="164.54482671904358" y2="7.5" stroke="black" stroke-width="1" />
  <line x1="164.54482671904358" y1="7.5" x2="168.87495373796577" y2="10.0" stroke="black" stroke-width="1" />
  <line x1="168.87495373796577" y1="10.0" x2="168.87495373796577" y2="15.0" stroke="black" stroke-width="1" />
  <line x1="168.87495373796577" y1="15.0" x2="164.54482671904358" y2="17.5" stroke="black" stroke-width="1" />
  <line x1="164.54482671904358" y1="17.5" x2="160.2146997001214" y2="15.0" stroke="black" stroke-width="1" />
  <line x1="160.2146997001214" y1="15.0" x2="160.2146997001214" y2="20.0" stroke="black" stroke-width="1" />
  <line x1="160.2146997001214" y1="20.0" x2="155.88457268119922" y2="22.5" stroke="black" stroke-width="1" />
  <line x1="155.88457268119922" y1="22.5" x2="151.55444566227703" y2="20.0" stroke="black" stroke-width="1" />
  <line x1="151.55444566227703" y1="20.0" x2="151.55444566227703" y2="15.0" stroke="black" stroke-width="1" />
  <line x1="151.55444566227703" y1="15.0" x2="147.22431864335485" y2="17.5" stroke="black" stroke-width="1" />
  <line x1="147.22431864335485" y1="17.5" x2="142.89419162443266" y2="15.0" stroke="black" stroke-width="1" />
  <line x1="142.89419162443266" y1="15.0" x2="142.89419162443266" y2="10.0" stroke="black" stroke-width="1" />
  <line x1="142.89419162443266" y1="10.0" x2="147.22431864335485" y2="7.5" stroke="black" stroke-width="1" />
  <line x1="147.22431864335485" y1="7.5" x2="142.89419162443266" y2="5.0" stroke="black" stroke-width="1" />
  <line x1="142.89419162443266" y1="5.0" x2="142.89419162443266" y2="0.0" stroke="black" stroke-width="1" />
  <line x1="142.89419162443266" y1="0.0" x2="138.56406460551048" y2="2.5" stroke="black" stroke-width="1" />
  <line x1="138.56406460551048" y1="2.5" x2="134.2339375865883" y2="0.0" stroke="black" stroke-width="1" />
  <line x1="134.2339375865883" y1="0.0" x2="134.2339375865883" y2="5.0" stroke="black" stroke-width="1" />
  <line x1="134.2339375865883" y1="5.0" x2="129.9038105676661" y2="7.5" stroke="black" stroke-width="1" />
  <line x1="129.9038105676661" y1="7.5" x2="125.57368354874393" y2="5.0" stroke="black" stroke-width="1" />
  <line x1="125.57368354874393" y1="5.0" x2="125.57368354874393" y2="0.0" stroke="black" stroke-width="1" />
  <line x1="125.57368354874393" y1="0.0" x2="121.24355652982175" y2="2.5" stroke="black" stroke-width="1" />
  <line x1="121.24355652982175" y1="2.5" x2="116.91342951089956" y2="0.0" stroke="black" stroke-width="1" />
  <line x1="116.91342951089956" y1="0.0" x2="116.91342951089956" y2="5.0" stroke="black" stroke-width="1" />
  <line x1="116.91342951089956" y1="5.0" x2="112.58330249197738" y2="7.5" stroke="black" stroke-width="1" />
  <line x1="112.58330249197738" y1="7.5" x2="116.91342951089956" y2="10.0" stroke="black" stroke-width="1" />
  <line x1="116.91342951089956" y1="10.0" x2="116.91342951089956" y2="15.0" stroke="black" stroke-width="1" />
  <line x1="116.91342951089956" y1="15.0" x2="112.58330249197738" y2="17.5" stroke="black" stroke-width="1" />
  <line x1="112.58330249197738" y1="17.5" x2="108.2531754730552" y2="15.0" stroke="black" stroke-width="1" />
  <line x1="108.2531754730552" y1="15.0" x2="108.2531754730552" y2="20.0" stroke="black" stroke-width="1" />
  <line x1="108.2531754730552" y1="20.0" x2="103.92304845413301" y2="22.5" stroke="black" stroke-width="1" />
  <line x1="103.92304845413301" y1="22.5" x2="108.2531754730552" y2="25.0" stroke="black" stroke-width="1" />
  <line x1="108.2531754730552" y1="25.0" x2="108.2531754730552" y2="30.0" stroke="black" stroke-width="1" />
  <line x1="108.2531754730552" y1="30.0" x2="112.58330249197738" y2="27.5" stroke="black" stroke-width="1" />
  <line x1="112.58330249197738" y1="27.5" x2="116.91342951089956" y2="30.0" stroke="black" stroke-width="1" />
  <line x1="116.91342951089956" y1="30.0" x2="116.91342951089956" y2="35.0" stroke="black" stroke-width="1" />
  <line x1="116.91342951089956" y1="35.0" x2="112.58330249197738" y2="37.5" stroke="black" stroke-width="1" />
  <line x1="112.58330249197738" y1="37.5" x2="116.91342951089956" y2="40.0" stroke="black" stroke-width="1" />
  <line x1="116.91342951089956" y1="40.0" x2="116.91342951089956" y2="45.0" stroke="black" stroke-width="1" />
  <line x1="116.91342951089956" y1="45.0" x2="112.58330249197738" y2="47.5" stroke="black" stroke-width="1" />
  <line x1="112.58330249197738" y1="47.5" x2="108.2531754730552" y2="45.0" stroke="black" stroke-width="1" />
  <line x1="108.2531754730552" y1="45.0" x2="108.2531754730552" y2="50.0" stroke="black" stroke-width="1" />
  <line x1="108.2531754730552" y1="50.0" x2="103.92304845413301" y2="52.5" stroke="black" stroke-width="1" />
  <line x1="103.92304845413301" y1="52.5" x2="99.59292143521083" y2="50.0" stroke="black" stroke-width="1" />
  <line x1="99.59292143521083" y1="50.0" x2="99.59292143521083" y2="45.0" stroke="black" stroke-width="1" />
  <line x1="99.59292143521083" y1="45.0" x2="95.26279441628864" y2="47.5" stroke="black" stroke-width="1" />
  <line x1="95.26279441628864" y1="47.5" x2="90.93266739736646" y2="45.0" stroke="black" stroke-width="1" />
  <line x1="90.93266739736646" y1="45.0" x2="90.93266739736646" y2="50.0" stroke="black" stroke-width="1" />
  <line x1="90.93266739736646" y1="50.0" x2="86.60254037844425" y2="52.5" stroke="black" stroke-width="1" />
  <line x1="86.60254037844425" y1="52.5" x2="90.93266739736646" y2="55.0" stroke="black" stroke-width="1" />
  <line x1="90.93266739736646" y1="55.0" x2="90.93266739736646" y2="60.0" stroke="black" stroke-width="1" />
  <line x1="90.93266739736646" y1="60.0" x2="86.60254037844425" y2="62.5" stroke="black" stroke-width="1" />
  <line x1="86.60254037844425" y1="62.5" x2="82.27241335952203" y2="60.0" stroke="black" stroke-width="1" />
  <line x1="82.27241335952203" y1="60.0" x2="82.27241335952203" y2="65.0" stroke="black" stroke-width="1" />
  <line x1="82.27241335952203" y1="65.0" x2="77.94228634059982" y2="67.5" stroke="black" stroke-width="1" />
  <line x1="77.94228634059982" y1="67.5" x2="82.27241335952203" y2="70.0" stroke="black" stroke-width="1" />
  <line x1="82.27241335952203" y1="70.0" x2="82.27241335952203" y2="75.0" stroke="black" stroke-width="1" />
  <line x1="82.27241335952203" y1="75.0" x2="86.60254037844425" y2="72.5" stroke="black" stroke-width="1" />
  <line x1="86.60254037844425" y1="72.5" x2="90.93266739736646" y2="75.0" stroke="black" stroke-width="1" />
  <line x1="90.93266739736646" y1="75.0" x2="90.93266739736646" y2="80.0" stroke="black" stroke-width="1" />
  <line x1="90.93266739736646" y1="80.0" x2="86.60254037844425" y2="82.5" stroke="black" stroke-width="1" />
  <line x1="86.60254037844425" y1="82.5" x2="90.93266739736646" y2="85.0" stroke="black" stroke-width="1" />
  <line x1="90.93266739736646" y1="85.0" x2="90.93266739736646" y2="90.0" stroke="black" stroke-width="1" />
  <line x1="90.93266739736646" y1="90.0" x2="95.26279441628864" y2="87.5" stroke="black" stroke-width="1" />
  <line x1="95.26279441628864" y1="87.5" x2="99.59292143521083" y2="90.0" stroke="black" stroke-width="1" />
  <line x1="99.59292143521083" y1="90.0" x2="99.59292143521083" y2="85.0" stroke="black" stroke-width="1" />
  <line x1="99.59292143521083" y1="85.0" x2="103.92304845413301" y2="82.5" stroke="black" stroke-width="1" />
  <line x1="103.92304845413301" y1="82.5" x2="108.2531754730552" y2="85.0" stroke="black" stroke-width="1" />
  <line x1="108.2531754730552" y1="85.0" x2="108.2531754730552" y2="90.0" stroke="black" stroke-width="1" />
  <line x1="108.2531754730552" y1="90.0" x2="112.58330249197738" y2="87.5" stroke="black" stroke-width="1" />
  <line x1="112.58330249197738" y1="87.5" x2="116.91342951089956" y2="90.0" stroke="black" stroke-width="1" />
  <line x1="116.91342951089956" y1="90.0" x2="116.91342951089956" y2="95.0" stroke="black" stroke-width="1" />
  <line x1="116.91342951089956" y1="95.0" x2="112.58330249197738" y2="97.5" stroke="black" stroke-width="1" />
  <line x1="112.58330249197738" y1="97.5" x2="116.91342951089956" y2="100.0" stroke="black" stroke-width="1" />
  <line x1="116.91342951089956" y1="100.0" x2="116.91342951089956" y2="105.0" stroke="black" stroke-width="1" />
  <line x1="116.91342951089956" y1="105.0" x2="112.58330249197738" y2="107.5" stroke="black" stroke-width="1" />
  <line x1="112.58330249197738" y1="107.5" x2="108.2531754730552" y2="105.0" stroke="black" stroke-width="1" />
  <line x1="108.2531754730552" y1="105.0" x2="108.2531754730552" y2="110.0" stroke="black" stroke-width="1" />
  <line x1="108.2531754730552" y1="110.0" x2="103.92304845413301" y2="112.5" stroke="black" stroke-width="1" />
  <line x1="103.92304845413301" y1="112.5" x2="108.2531754730552" y2="115.0" stroke="black" stroke-width="1" />
  <line x1="108.2531754730552" y1="115.0" x2="108.2531754730552" y2="120.0" stroke="black" stroke-width="1" />
  <line x1="108.2531754730552" y1="120.0" x2="112.58330249197738" y2="117.5" stroke="black" stroke-width="1" />
  <line x1="112.58330249197738" y1="117.5" x2="116.91342951089956" y2="120.0" stroke="black" stroke-width="1" />
  <line x1="116.91342951089956" y1="120.0" x2="116.91342951089956" y2="125.0" stroke="black" stroke-width="1" />
  <line x1="116.91342951089956" y1="125.0" x2="112.58330249197738" y2="127.5" stroke="black" stroke-width="1" />
  <line x1="112.58330249197738" y1="127.5" x2="116.91342951089956" y2="130.0" stroke="black" stroke-width="1" />
  <line x1="116.91342951089956" y1="130.0" x2="116.91342951089956" y2="135.0" stroke="black" stroke-width="1" />
  <line x1="116.91342951089956" y1="135.0" x2="112.58330249197738" y2="137.5" stroke="black" stroke-width="1" />
  <line x1="112.58330249197738" y1="137.5" x2="108.2531754730552" y2="135.0" stroke="black" stroke-width="1" />
  <line x1="108.2531754730552" y1="135.0" x2="108.2531754730552" y2="140.0" stroke="black" stroke-width="1" />
  <line x1="108.2531754730552" y1="140.0" x2="103.92304845413301" y2="142.5" stroke="black" stroke-width="1" />
  <line x1="103.92304845413301" y1="142.5" x2="99.59292143521083" y2="140.0" stroke="black" stroke-width="1" />
  <line x1="99.59292143521083" y1="140.0" x2="99.59292143521083" y2="135.0" stroke="black" stroke-width="1" />
  <line x1="99.59292143521083" y1="135.0" x2="95.26279441628864" y2="137.5" stroke="black" stroke-width="1" />
  <line x1="95.26279441628864" y1="137.5" x2="90.93266739736646" y2="135.0" stroke="black" stroke-width="1" />
  <line x1="90.93266739736646" y1="135.0" x2="90.93266739736646" y2="140.0" stroke="black" stroke-width="1" />
  <line x1="90.93266739736646" y1="140.0" x2="86.60254037844425" y2="142.5" stroke="black" stroke-width="1" />
  <line x1="86.60254037844425" y1="142.5" x2="90.93266739736646" y2="145.0" stroke="black" stroke-width="1" />
  <line x1="90.93266739736646" y1="145.0" x2="90.93266739736646" y2="150.0" stroke="black" stroke-width="1" />
  <line x1="90.93266739736646" y1="150.0" x2="86.60254037844425" y2="152.5" stroke="black" stroke-width="1" />
  <line x1="86.60254037844425" y1="152.5" x2="82.27241335952203" y2="150.0" stroke="black" stroke-width="1" />
  <line x1="82.27241335952203" y1="150.0" x2="82.27241335952203" y2="155.0" stroke="black" stroke-width="1" />
  <line x1="82.27241335952203" y1="155.0" x2="77.94228634059982" y2="157.5" stroke="black" stroke-width="1" />
  <line x1="77.94228634059982" y1="157.5" x2="73.61215932167761" y2="155.0" stroke="black" stroke-width="1" />
  <line x1="73.61215932167761" y1="155.0" x2="73.61215932167761" y2="150.0" stroke="black" stroke-width="1" />
  <line x1="73.61215932167761" y1="150.0" x2="69.2820323027554" y2="152.5" stroke="black" stroke-width="1" />
  <line x1="69.2820323027554" y1="152.5" x2="64.95190528383318" y2="150.0" stroke="black" stroke-width="1" />
  <line x1="64.95190528383318" y1="150.0" x2="64.95190528383318" y2="145.0" stroke="black" stroke-width="1" />
  <line x1="64.95190528383318" y1="145.0" x2="69.2820323027554" y2="142.5" stroke="black" stroke-width="1" />
  <line x1="69.2820323027554" y1="142.5" x2="64.95190528383318" y2="140.0" stroke="black" stroke-width="1" />
  <line x1="64.95190528383318" y1="140.0" x2="64.95190528383318" y2="135.0" stroke="black" stroke-width="1" />
  <line x1="64.95190528383318" y1="135.0" x2="60.62177826491097" y2="137.5" stroke="black" stroke-width="1" />
  <line x1="60.62177826491097" y1="137.5" x2="56.29165124598876" y2="135.0" stroke="black" stroke-width="1" />
  <line x1="56.29165124598876" y1="135.0" x2="56.29165124598876" y2="140.0" stroke="black" stroke-width="1" />
  <line x1="56.29165124598876" y1="140.0" x2="51.96152422706655" y2="142.5" stroke="black" stroke-width="1" />
  <line x1="51.96152422706655" y1="142.5" x2="47.631397208144335" y2="140.0" stroke="black" stroke-width="1" />
  <line x1="47.631397208144335" y1="140.0" x2="47.631397208144335" y2="135.0" stroke="black" stroke-width="1" />
  <line x1="47.631397208144335" y1="135.0" x2="43.30127018922212" y2="137.5" stroke="black" stroke-width="1" />
  <line x1="43.30127018922212" y1="137.5" x2="38.97114317029991" y2="135.0" stroke="black" stroke-width="1" />
  <line x1="38.97114317029991" y1="135.0" x2="38.97114317029991" y2="140.0" stroke="black" stroke-width="1" />
  <line x1="38.97114317029991" y1="140.0" x2="34.6410161513777" y2="142.5" stroke="black" stroke-width="1" />
  <line x1="34.6410161513777" y1="142.5" x2="38.97114317029991" y2="145.0" stroke="black" stroke-width="1" />
  <line x1="38.97114317029991" y1="145.0" x2="38.97114317029991" y2="150.0" stroke="black" stroke-width="1" />
  <line x1="38.97114317029991" y1="150.0" x2="34.6410161513777" y2="152.5" stroke="black" stroke-width="1" />
  <line x1="34.6410161513777" y1="152.5" x2="30.310889132455486" y2="150.0" stroke="black" stroke-width="1" />
  <line x1="30.310889132455486" y1="150.0" x2="30.310889132455486" y2="155.0" stroke="black" stroke-width="1" />
  <line x1="30.310889132455486" y1="155.0" x2="25.980762113533274" y2="157.5" stroke="black" stroke-width="1" />
  <line x1="25.980762113533274" y1="157.5" x2="30.310889132455486" y2="160.0" stroke="black" stroke-width="1" />
  <line x1="30.310889132455486" y1="160.0" x2="30.310889132455486" y2="165.0" stroke="black" stroke-width="1" />
  <line x1="30.310889132455486" y1="165.0" x2="34.6410161513777" y2="162.5" stroke="black" stroke-width="1" />
  <line x1="34.6410161513777" y1="162.5" x2="38.97114317029991" y2="165.0" stroke="black" stroke-width="1" />
  <line x1="38.97114317029991" y1="165.0" x2="38.97114317029991" y2="170.0" stroke="black" stroke-width="1" />
  <line x1="38.97114317029991" y1="170.0" x2="34.6410161513777" y2="172.5" stroke="black" stroke-width="1" />
  <line x1="34.6410161513777" y1="172.5" x2="38.97114317029991" y2="175.0" stroke="black" stroke-width="1" />
  <line x1="38.97114317029991" y1="175.0" x2="38.97114317029991" y2="180.0" stroke="black" stroke-width="1" />
  <line x1="38.97114317029991" y1="180.0" x2="34.6410161513777" y2="182.5" stroke="black" stroke-width="1" />
  <line x1="34.6410161513777" y1="182.5" x2="30.310889132455486" y2="180.0" stroke="black" stroke-width="1" />
  <line x1="30.310889132455486" y1="180.0" x2="30.310889132455486" y2="185.0" stroke="black" stroke-width="1" />
  <line x1="30.310889132455486" y1="185.0" x2="25.980762113533274" y2="187.5" stroke="black" stroke-width="1" />
  <line x1="25.980762113533274" y1="187.5" x2="21.65063509461106" y2="185.0" stroke="black" stroke-width="1" />
  <line x1="21.65063509461106" y1="185.0" x2="21.65063509461106" y2="180.0" stroke="black" stroke-width="1" />
  <line x1="21.65063509461106" y1="180.0" x2="17.32050807568885" y2="182.5" stroke="black" stroke-width="1" />
  <line x1="17.32050807568885" y1="182.5" x2="12.990381056766637" y2="180.0" stroke="black" stroke-width="1" />
  <line x1="12.990381056766637" y1="180.0" x2="12.990381056766637" y2="185.0" stroke="black" stroke-width="1" />
  <line x1="12.990381056766637" y1="185.0" x2="8.660254037844425" y2="187.5" stroke="black" stroke-width="1" />
  <line x1="8.660254037844425" y1="187.5" x2="12.990381056766637" y2="190.0" stroke="black" stroke-width="1" />
  <line x1="12.990381056766637" y1="190.0" x2="12.990381056766637" y2="195.0" stroke="black" stroke-width="1" />
  <line x1="12.990381056766637" y1="195.0" x2="8.660254037844425" y2="197.5" stroke="black" stroke-width="1" />
  <line x1="8.660254037844425" y1="197.5" x2="4.330127018922212" y2="195.0" stroke="black" stroke-width="1" />
  <line x1="4.330127018922212" y1="195.0" x2="4.330127018922212" y2="200.0" stroke="black" stroke-width="1" />
  <line x1="4.330127018922212" y1="200.0" x2="0.0" y2="202.5" stroke="black" stroke-width="1" />
  <line x1="0.0" y1="202.5" x2="4.330127018922212" y2="205.0" stroke="black" stroke-width="1" />
  <line x1="4.330127018922212" y1="205.0" x2="4.330127018922212" y2="210.0" stroke="black" stroke-width="1" />
  <line x1="4.330127018922212" y1="210.0" x2="8.660254037844425" y2="207.5" stroke="black" stroke-width="1" />
  <line x1="8.660254037844425" y1="207.5" x2="12.990381056766637" y2="210.0" stroke="black" stroke-width="1" />
  <line x1="12.990381056766637" y1="210.0" x2="12.990381056766637" y2="215.0" stroke="black" stroke-width="1" />
  <line x1="12.990381056766637" y1="215.0" x2="8.660254037844425" y2="217.5" stroke="black" stroke-width="1" />
  <line x1="8.660254037844425" y1="217.5" x2="12.990381056766637" y2="220.0" stroke="black" stroke-width="1" />
  <line x1="12.990381056766637" y1="220.0" x2="12.990381056766637" y2="225.0" stroke="black" stroke-width="1" />
  <line x1="12.990381056766637" y1="225.0" x2="17.32050807568885" y2="222.5" stroke="black" stroke-width="1" />
  <line x1="17.32050807568885" y1="222.5" x2="21.65063509461106" y2="225.0" stroke="black" stroke-width="1" />
  <line x1="21.65063509461106" y1="225.0" x2="21.65063509461106" y2="220.0" stroke="black" stroke-width="1" />
  <line x1="21.65063509461106" y1="220.0" x2="25.980762113533274" y2="217.5" stroke="black" stroke-width="1" />
  <line x1="25.980762113533274" y1="217.5" x2="30.310889132455486" y2="220.0" stroke="black" stroke-width="1" />
  <line x1="30.310889132455486" y1="220.0" x2="30.310889132455486" y2="225.0" stroke="black" stroke-width="1" />
  <line x1="30.310889132455486" y1="225.0" x2="34.6410161513777" y2="222.5" stroke="black" stroke-width="1" />
  <line x1="34.6410161513777" y1="222.5" x2="38.97114317029991" y2="225.0" stroke="black" stroke-width="1" />
  <line x1="38.97114317029991" y1="225.0" x2="38.97114317029991" y2="230.0" stroke="black" stroke-width="1" />
  <line x1="38.97114317029991" y1="230.0" x2="34.6410161513777" y2="232.5" stroke="black" stroke-width="1" />
  <line x1="34.6410161513777" y1="232.5" x2="38.97114317029991" y2="235.0" stroke="black" stroke-width="1" />
  <line x1="38.97114317029991" y1="235.0" x2="38.97114317029991" y2="240.0" stroke="black" stroke-width="1" />
  <line x1="38.97114317029991" y1="240.0" x2="34.6410161513777" y2="242.5" stroke="black" stroke-width="1" />
  <line x1="34.6410161513777" y1="242.5" x2="30.310889132455486" y2="240.0" stroke="black" stroke-width="1" />
  <line x1="30.310889132455486" y1="240.0" x2="30.310889132455486" y2="245.0" stroke="black" stroke-width="1" />
  <line x1="30.310889132455486" y1="245.0" x2="25.980762113533274" y2="247.5" stroke="black" stroke-width="1" />
  <line x1="25.980762113533274" y1="247.5" x2="30.310889132455486" y2="250.0" stroke="black" stroke-width="1" />
  <line x1="30.310889132455486" y1="250.0" x2="30.310889132455486" y2="255.0" stroke="black" stroke-width="1" />
  <line x1="30.310889132455486" y1="255.0" x2="34.6410161513777" y2="252.5" stroke="black" stroke-width="1" />
  <line x1="34.6410161513777" y1="252.5" x2="38.97114317029991" y2="255.0" stroke="black" stroke-width="1" />
  <line x1="38.97114317029991" y1="255.0" x2="38.97114317029991" y2="260.0" stroke="black" stroke-width="1" />
  <line x1="38.97114317029991" y1="260.0" x2="34.6410161513777" y2="262.5" stroke="black" stroke-width="1" />
  <line x1="34.6410161513777" y1="262.5" x2="38.97114317029991" y2="265.0" stroke="black" stroke-width="1" />
  <line x1="38.97114317029991" y1="265.0" x2="38.97114317029991" y2="270.0" stroke="black" stroke-width="1" />
  <line x1="38.97114317029991" y1="270.0" x2="43.30127018922212" y2="267.5" stroke="black" stroke-width="1" />
  <line x1="43.30127018922212" y1="267.5" x2="47.631397208144335" y2="270.0" stroke="black" stroke-width="1" />
  <line x1="47.631397208144335" y1="270.0" x2="47.631397208144335" y2="265.0" stroke="black" stroke-width="1" />
  <line x1="47.631397208144335" y1="265.0" x2="51.96152422706655" y2="262.5" stroke="black" stroke-width="1" />
  <line x1="51.96152422706655" y1="262.5" x2="56.29165124598876" y2="265.0" stroke="black" stroke-width="1" />
  <line x1="56.29165124598876" y1="265.0" x2="56.29165124598876" y2="270.0" stroke="black" stroke-width="1" />
  <line x1="56.29165124598876" y1="270.0" x2="60.62177826491097" y2="267.5" stroke="black" stroke-width="1" />
  <line x1="60.62177826491097" y1="267.5" x2="64.95190528383318" y2="270.0" stroke="black" stroke-width="1" />
  <line x1="64.95190528383318" y1="270.0" x2="64.95190528383318" y2="265.0" stroke="black" stroke-width="1" />
  <line x1="64.95190528383318" y1="265.0" x2="69.2820323027554" y2="262.5" stroke="black" stroke-width="1" />
  <line x1="69.2820323027554" y1="262.5" x2="64.95190528383318" y2="260.0" stroke="black" stroke-width="1" />
  <line x1="64.95190528383318" y1="260.0" x2="64.95190528383318" y2="255.0" stroke="black" stroke-width="1" />
  <line x1="64.95190528383318" y1="255.0" x2="69.2820323027554" y2="252.5" stroke="black" stroke-width="1" />
  <line x1="69.2820323027554" y1="252.5" x2="73.61215932167761" y2="255.0" stroke="black" stroke-width="1" />
  <line x1="73.61215932167761" y1="255.0" x2="73.61215932167761" y2="250.0" stroke="black" stroke-width="1" />
  <line x1="73.61215932167761" y1="250.0" x2="77.94228634059982" y2="247.5" stroke="black" stroke-width="1" />
  <line x1="77.94228634059982" y1="247.5" x2="82.27241335952203" y2="250.0" stroke="black" stroke-width="1" />
  <line x1="82.27241335952203" y1="250.0" x2="82.27241335952203" y2="255.0" stroke="black" stroke-width="1" />
  <line x1="82.27241335952203" y1="255.0" x2="86.60254037844425" y2="252.5" stroke="black" stroke-width="1" />
  <line x1="86.60254037844425" y1="252.5" x2="90.93266739736646" y2="255.0" stroke="black" stroke-width="1" />
  <line x1="90.93266739736646" y1="255.0" x2="90.93266739736646" y2="260.0" stroke="black" stroke-width="1" />
  <line x1="90.93266739736646" y1="260.0" x2="86.60254037844425" y2="262.5" stroke="black" stroke-width="1" />
  <line x1="86.60254037844425" y1="262.5" x2="90.93266739736646" y2="265.0" stroke="black" stroke-width="1" />
  <line x1="90.93266739736646" y1="265.0" x2="90.93266739736646" y2="270.0" stroke="black" stroke-width="1" />
  <line x1="90.93266739736646" y1="270.0" x2="95.26279441628864" y2="267.5" stroke="black" stroke-width="1" />
  <line x1="95.26279441628864" y1="267.5" x2="99.59292143521083" y2="270.0" stroke="black" stroke-width="1" />
  <line x1="99.59292143521083" y1="270.0" x2="99.59292143521083" y2="265.0" stroke="black" stroke-width="1" />
  <line x1="99.59292143521083" y1="265.0" x2="103.92304845413301" y2="262.5" stroke="black" stroke-width="1" />
  <line x1="103.92304845413301" y1="262.5" x2="108.2531754730552" y2="265.0" stroke="black" stroke-width="1" />
  <line x1="108.2531754730552" y1="265.0" x2="108.2531754730552" y2="270.0" stroke="black" stroke-width="1" />
  <line x1="108.2531754730552" y1="270.0" x2="112.58330249197738" y2="267.5" stroke="black" stroke-width="1" />
  <line x1="112.58330249197738" y1="267.5" x2="116.91342951089956" y2="270.0" stroke="black" stroke-width="1" />
  <line x1="116.91342951089956" y1="270.0" x2="116.91342951089956" y2="275.0" stroke="black" stroke-width="1" />
  <line x1="116.91342951089956" y1="275.0" x2="112.58330249197738" y2="277.5" stroke="black" stroke-width="1" />
  <line x1="112.58330249197738" y1="277.5" x2="116.91342951089956" y2="280.0" stroke="black" stroke-width="1" />
  <line x1="116.91342951089956" y1="280.0" x2="116.91342951089956" y2="285.0" stroke="black" stroke-width="1" />
  <line x1="116.91342951089956" y1="285.0" x2="112.58330249197738" y2="287.5" stroke="black" stroke-width="1" />
  <line x1="112.58330249197738" y1="287.5" x2="108.2531754730552" y2="285.0" stroke="black" stroke-width="1" />
  <line x1="108.2531754730552" y1="285.0" x2="108.2531754730552" y2="290.0" stroke="black" stroke-width="1" />
  <line x1="108.2531754730552" y1="290.0" x2="103.92304845413301" y2="292.5" stroke="black" stroke-width="1" />
  <line x1="103.92304845413301" y1="292.5" x2="108.2531754730552" y2="295.0" stroke="black" stroke-width="1" />
  <line x1="108.2531754730552" y1="295.0" x2="108.2531754730552" y2="300.0" stroke="black" stroke-width="1" />
  <line x1="108.2531754730552" y1="300.0" x2="112.58330249197738" y2="297.5" stroke="black" stroke-width="1" />
  <line x1="112.58330249197738" y1="297.5" x2="116.91342951089956" y2="300.0" stroke="black" stroke-width="1" />
  <line x1="116.91342951089956" y1="300.0" x2="116.91342951089956" y2="305.0" stroke="black" stroke-width="1" />
  <line x1="116.91342951089956" y1="305.0" x2="112.58330249197738" y2="307.5" stroke="black" stroke-width="1" />
  <line x1="112.58330249197738" y1="307.5" x2="116.91342951089956" y2="310.0" stroke="black" stroke-width="1" />
  <line x1="116.91342951089956" y1="310.0" x2="116.91342951089956" y2="315.0" stroke="black" stroke-width="1" />
  <line x1="116.91342951089956" y1="315.0" x2="112.58330249197738" y2="317.5" stroke="black" stroke-width="1" />
  <line x1="112.58330249197738" y1="317.5" x2="108.2531754730552" y2="315.0" stroke="black" stroke-width="1" />
  <line x1="108.2531754730552" y1="315.0" x2="108.2531754730552" y2="320.0" stroke="black" stroke-width="1" />
  <line x1="108.2531754730552" y1="320.0" x2="103.92304845413301" y2="322.5" stroke="black" stroke-width="1" />
  <line x1="103.92304845413301" y1="322.5" x2="99.59292143521083" y2="320.0" stroke="black" stroke-width="1" />
  <line x1="99.59292143521083" y1="320.0" x2="99.59292143521083" y2="315.0" stroke="black" stroke-width="1" />
  <line x1="99.59292143521083" y1="315.0" x2="95.26279441628864" y2="317.5" stroke="black" stroke-width="1" />
  <line x1="95.26279441628864" y1="317.5" x2="90.93266739736646" y2="315.0" stroke="black" stroke-width="1" />
  <line x1="90.93266739736646" y1="315.0" x2="90.93266739736646" y2="320.0" stroke="black" stroke-width="1" />
  <line x1="90.93266739736646" y1="320.0" x2="86.60254037844425" y2="322.5" stroke="black" stroke-width="1" />
  <line x1="86.60254037844425" y1="322.5" x2="90.93266739736646" y2="325.0" stroke="black" stroke-width="1" />
  <line x1="90.93266739736646" y1="325.0" x2="90.93266739736646" y2="330.0" stroke="black" stroke-width="1" />
  <line x1="90.93266739736646" y1="330.0" x2="86.60254037844425" y2="332.5" stroke="black" stroke-width="1" />
  <line x1="86.60254037844425" y1="332.5" x2="82.27241335952203" y2="330.0" stroke="black" stroke-width="1" />
  <line x1="82.27241335952203" y1="330.0" x2="82.27241335952203" y2="335.0" stroke="black" stroke-width="1" />
  <line x1="82.27241335952203" y1="335.0" x2="77.94228634059982" y2="337.5" stroke="black" stroke-width="1" />
  <line x1="77.94228634059982" y1="337.5" x2="82.27241335952203" y2="340.0" stroke="black" stroke-width="1" />
  <line x1="82.27241335952203" y1="340.0" x2="82.27241335952203" y2="345.0" stroke="black" stroke-width="1" />
  <line x1="82.27241335952203" y1="345.0" x2="86.60254037844425" y2="342.5" stroke="black" stroke-width="1" />
  <line x1="86.60254037844425" y1="342.5" x2="90.93266739736646" y2="345.0" stroke="black" stroke-width="1" />
  <line x1="90.93266739736646" y1="345.0" x2="90.93266739736646" y2="350.0" stroke="black" stroke-width="1" />
  <line x1="90.93266739736646" y1="350.0" x2="86.60254037844425" y2="352.5" stroke="black" stroke-width="1" />
  <line x1="86.60254037844425" y1="352.5" x2="90.93266739736646" y2="355.0" stroke="black" stroke-width="1" />
  <line x1="90.93266739736646" y1="355.0" x2="90.93266739736646" y2="360.0" stroke="black" stroke-width="1" />
  <line x1="90.93266739736646" y1="360.0" x2="95.26279441628864" y2="357.5" stroke="black" stroke-width="1" />
  <line x1="95.26279441628864" y1="357.5" x2="99.59292143521083" y2="360.0" stroke="black" stroke-width="1" />
  <line x1="99.59292143521083" y1="360.0" x2="99.59292143521083" y2="355.0" stroke="black" stroke-width="1" />
  <line x1="99.59292143521083" y1="355.0" x2="103.92304845413301" y2="352.5" stroke="black" stroke-width="1" />
  <line x1="103.92304845413301" y1="352.5" x2="108.2531754730552" y2="355.0" stroke="black" stroke-width="1" />
  <line x1="108.2531754730552" y1="355.0" x2="108.2531754730552" y2="360.0" stroke="black" stroke-width="1" />
  <line x1="108.2531754730552" y1="360.0" x2="112.58330249197738" y2="357.5" stroke="black" stroke-width="1" />
  <line x1="112.58330249197738" y1="357.5" x2="116.91342951089956" y2="360.0" stroke="black" stroke-width="1" />
  <line x1="116.91342951089956" y1="360.0" x2="116.91342951089956" y2="365.0" stroke="black" stroke-width="1" />
  <line x1="116.91342951089956" y1="365.0" x2="112.58330249197738" y2="367.5" stroke="black" stroke-width="1" />
  <line x1="112.58330249197738" y1="367.5" x2="116.91342951089956" y2="370.0" stroke="black" stroke-width="1" />
  <line x1="116.91342951089956" y1="370.0" x2="116.91342951089956" y2="375.0" stroke="black" stroke-width="1" />
  <line x1="116.91342951089956" y1="375.0" x2="112.58330249197738" y2="377.5" stroke="black" stroke-width="1" />
  <line x1="112.58330249197738" y1="377.5" x2="108.2531754730552" y2="375.0" stroke="black" stroke-width="1" />
  <line x1="108.2531754730552" y1="375.0" x2="108.2531754730552" y2="380.0" stroke="black" stroke-width="1" />
  <line x1="108.2531754730552" y1="380.0" x2="103.92304845413301" y2="382.5" stroke="black" stroke-width="1" />
  <line x1="103.92304845413301" y1="382.5" x2="108.2531754730552" y2="385.0" stroke="black" stroke-width="1" />
  <line x1="108.2531754730552" y1="385.0" x2="108.2531754730552" y2="390.0" stroke="black" stroke-width="1" />
  <line x1="108.2531754730552" y1="390.0" x2="112.58330249197738" y2="387.5" stroke="black" stroke-width="1" />
  <line x1="112.58330249197738" y1="387.5" x2="116.91342951089956" y2="390.0" stroke="black" stroke-width="1" />
  <line x1="116.91342951089956" y1="390.0" x2="116.91342951089956" y2="395.0" stroke="black" stroke-width="1" />
  <line x1="116.91342951089956" y1="395.0" x2="112.58330249197738" y2="397.5" stroke="black" stroke-width="1" />
  <line x1="112.58330249197738" y1="397.5" x2="116.91342951089956" y2="400.0" stroke="black" stroke-width="1" />
  <line x1="116.91342951089956" y1="400.0" x2="116.91342951089956" y2="405.0" stroke="black" stroke-width="1" />
  <line x1="116.91342951089956" y1="405.0" x2="121.24355652982175" y2="402.5" stroke="black" stroke-width="1" />
  <line x1="121.24355652982175" y1="402.5" x2="125.57368354874393" y2="405.0" stroke="black" stroke-width="1" />
  <line x1="125.57368354874393" y1="405.0" x2="125.57368354874393" y2="400.0" stroke="black" stroke-width="1" />
  <line x1="125.57368354874393" y1="400.0" x2="129.9038105676661" y2="397.5" stroke="black" stroke-width="1" />
  <line x1="129.9038105676661" y1="397.5" x2="134.2339375865883" y2="400.0" stroke="black" stroke-width="1" />
  <line x1="134.2339375865883" y1="400.0" x2="134.2339375865883" y2="405.0" stroke="black" stroke-width="1" />
  <line x1="134.2339375865883" y1="405.0" x2="138.56406460551048" y2="402.5" stroke="black" stroke-width="1" />
  <line x1="138.56406460551048" y1="402.5" x2="142.89419162443266" y2="405.0" stroke="black" stroke-width="1" />
  <line x1="142.89419162443266" y1="405.0" x2="142.89419162443266" y2="400.0" stroke="black" stroke-width="1" />
  <line x1="142.89419162443266" y1="400.0" x2="147.22431864335485" y2="397.5" stroke="black" stroke-width="1" />
  <line x1="147.22431864335485" y1="397.5" x2="142.89419162443266" y2="395.0" stroke="black" stroke-width="1" />
  <line x1="142.89419162443266" y1="395.0" x2="142.89419162443266" y2="390.0" stroke="black" stroke-width="1" />
  <line x1="142.89419162443266" y1="390.0" x2="147.22431864335485" y2="387.5" stroke="black" stroke-width="1" />
  <line x1="147.22431864335485" y1="387.5" x2="151.55444566227703" y2="390.0" stroke="black" stroke-width="1" />
  <line x1="151.55444566227703" y1="390.0" x2="151.55444566227703" y2="385.0" stroke="black" stroke-width="1" />
  <line x1="151.55444566227703" y1="385.0" x2="155.88457268119922" y2="382.5" stroke="black" stroke-width="1" />
  <line x1="155.88457268119922" y1="382.5" x2="160.2146997001214" y2="385.0" stroke="black" stroke-width="1" />
  <line x1="160.2146997001214" y1="385.0" x2="160.2146997001214" y2="390.0" stroke="black" stroke-width="1" />
  <line x1="160.2146997001214" y1="390.0" x2="164.54482671904358" y2="387.5" stroke="black" stroke-width="1" />
  <line x1="164.54482671904358" y1="387.5" x2="168.87495373796577" y2="390.0" stroke="black" stroke-width="1" />
  <line x1="168.87495373796577" y1="390.0" x2="168.87495373796577" y2="395.0" stroke="black" stroke-width="1" />
  <line x1="168.87495373796577" y1="395.0" x2="164.54482671904358" y2="397.5" stroke="black" stroke-width="1" />
  <line x1="164.54482671904358" y1="397.5" x2="168.87495373796577" y2="400.0" stroke="black" stroke-width="1" />
  <line x1="168.87495373796577" y1="400.0" x2="168.87495373796577" y2="405.0" stroke="black" stroke-width="1" />
  <line x1="168.87495373796577" y1="405.0" x2="173.20508075688795" y2="402.50000000000006" stroke="black" stroke-width="1" />
  <line x1="173.20508075688795" y1="402.50000000000006" x2="177.53520777581014" y2="405.00000000000006" stroke="black" stroke-width="1" />
  <line x1="177.53520777581014" y1="405.00000000000006" x2="177.53520777581014" y2="400.00000000000006" stroke="black" stroke-width="1" />
  <line x1="177.53520777581014" y1="400.00000000000006" x2="181.86533479473232" y2="397.50000000000006" stroke="black" stroke-width="1" />
  <line x1="181.86533479473232" y1="397.50000000000006" x2="186.1954618136545" y2="400.00000000000006" stroke="black" stroke-width="1" />
  <line x1="186.1954618136545" y1="400.00000000000006" x2="186.1954618136545" y2="405.00000000000006" stroke="black" stroke-width="1" />
  <line x1="186.1954618136545" y1="405.00000000000006" x2="190.5255888325767" y2="402.50000000000006" stroke="black" stroke-width="1" />
  <line x1="190.5255888325767" y1="402.50000000000006" x2="194.85571585149887" y2="405.00000000000006" stroke="black" stroke-width="1" />
  <line x1="194.85571585149887" y1="405.00000000000006" x2="194.85571585149887" y2="400.00000000000006" stroke="black" stroke-width="1" />
  <line x1="194.85571585149887" y1="400.00000000000006" x2="199.18584287042106" y2="397.50000000000006" stroke="black" stroke-width="1" />
  <line x1="199.18584287042106" y1="397.50000000000006" x2="194.85571585149887" y2="395.00000000000006" stroke="black" stroke-width="1" />
  <line x1="194.85571585149887" y1="395.00000000000006" x2="194.85571585149887" y2="390.00000000000006" stroke="black" stroke-width="1" />
  <line x1="194.85571585149887" y1="390.00000000000006" x2="199.18584287042106" y2="387.50000000000006" stroke="black" stroke-width="1" />
  <line x1="199.18584287042106" y1="387.50000000000006" x2="203.51596988934324" y2="390.00000000000006" stroke="black" stroke-width="1" />
  <line x1="203.51596988934324" y1="390.00000000000006" x2="203.51596988934324" y2="385.00000000000006" stroke="black" stroke-width="1" />
  <line x1="203.51596988934324" y1="385.00000000000006" x2="207.84609690826542" y2="382.50000000000006" stroke="black" stroke-width="1" />
  <line x1="207.84609690826542" y1="382.50000000000006" x2="203.51596988934324" y2="380.00000000000006" stroke="black" stroke-width="1" />
  <line x1="203.51596988934324" y1="380.00000000000006" x2="203.51596988934324" y2="375.00000000000006" stroke="black" stroke-width="1" />
  <line x1="203.51596988934324" y1="375.00000000000006" x2="199.18584287042106" y2="377.50000000000006" stroke="black" stroke-width="1" />
  <line x1="199.18584287042106" y1="377.50000000000006" x2="194.85571585149887" y2="375.00000000000006" stroke="black" stroke-width="1" />
  <line x1="194.85571585149887" y1="375.00000000000006" x2="194.85571585149887" y2="370.00000000000006" stroke="black" stroke-width="1" />
  <line x1="194.85571585149887" y1="370.00000000000006" x2="199.18584287042106" y2="367.50000000000006" stroke="black" stroke-width="1" />
  <line x1="199.18584287042106" y1="367.50000000000006" x2="194.85571585149887" y2="365.00000000000006" stroke="black" stroke-width="1" />
  <line x1="194.85571585149887" y1="365.00000000000006" x2="194.85571585149887" y2="360.00000000000006" stroke="black" stroke-width="1" />
  <line x1="194.85571585149887" y1="360.00000000000006" x2="199.18584287042106" y2="357.50000000000006" stroke="black" stroke-width="1" />
  <line x1="199.18584287042106" y1="357.50000000000006" x2="203.51596988934324" y2="360.00000000000006" stroke="black" stroke-width="1" />
  <line x1="203.51596988934324" y1="360.00000000000006" x2="203.51596988934324" y2="355.00000000000006" stroke="black" stroke-width="1" />
  <line x1="203.51596988934324" y1="355.00000000000006" x2="207.84609690826542" y2="352.50000000000006" stroke="black" stroke-width="1" />
  <line x1="207.84609690826542" y1="352.50000000000006" x2="212.1762239271876" y2="355.00000000000006" stroke="black" stroke-width="1" />
  <line x1="212.1762239271876" y1="355.00000000000006" x2="212.1762239271876" y2="360.00000000000006" stroke="black" stroke-width="1" />
  <line x1="212.1762239271876" y1="360.00000000000006" x2="216.5063509461098" y2="357.50000000000006" stroke="black" stroke-width="1" />
  <line x1="216.5063509461098" y1="357.50000000000006" x2="220.83647796503197" y2="360.00000000000006" stroke="black" stroke-width="1" />
  <line x1="220.83647796503197" y1="360.00000000000006" x2="220.83647796503197" y2="355.00000000000006" stroke="black" stroke-width="1" />
  <line x1="220.83647796503197" y1="355.00000000000006" x2="225.1666049839542" y2="352.50000000000006" stroke="black" stroke-width="1" />
  <line x1="225.1666049839542" y1="352.50000000000006" x2="220.83647796503197" y2="350.00000000000006" stroke="black" stroke-width="1" />
  <line x1="220.83647796503197" y1="350.00000000000006" x2="220.83647796503197" y2="345.00000000000006" stroke="black" stroke-width="1" />
  <line x1="220.83647796503197" y1="345.00000000000006" x2="225.1666049839542" y2="342.50000000000006" stroke="black" stroke-width="1" />
  <line x1="225.1666049839542" y1="342.50000000000006" x2="229.49673200287637" y2="345.00000000000006" stroke="black" stroke-width="1" />
  <line x1="229.49673200287637" y1="345.00000000000006" x2="229.49673200287637" y2="340.00000000000006" stroke="black" stroke-width="1" />
  <line x1="229.49673200287637" y1="340.00000000000006" x2="233.82685902179855" y2="337.50000000000006" stroke="black" stroke-width="1" />
  <line x1="233.82685902179855" y1="337.50000000000006" x2="238.15698604072077" y2="340.00000000000006" stroke="black" stroke-width="1" />
  <line x1="238.15698604072077" y1="340.00000000000006" x2="238.15698604072077" y2="345.00000000000006" stroke="black" stroke-width="1" />
  <line x1="238.15698604072077" y1="345.00000000000006" x2="242.48711305964298" y2="342.50000000000006" stroke="black" stroke-width="1" />
  <line x1="242.48711305964298" y1="342.50000000000006" x2="246.81724007856516" y2="345.00000000000006" stroke="black" stroke-width="1" />
  <line x1="246.81724007856516" y1="345.00000000000006" x2="246.81724007856516" y2="350.00000000000006" stroke="black" stroke-width="1" />
  <line x1="246.81724007856516" y1="350.00000000000006" x2="242.48711305964298" y2="352.50000000000006" stroke="black" stroke-width="1" />
  <line x1="242.48711305964298" y1="352.50000000000006" x2="246.81724007856516" y2="355.00000000000006" stroke="black" stroke-width="1" />
  <line x1="246.81724007856516" y1="355.00000000000006" x2="246.81724007856516" y2="360.00000000000006" stroke="black" stroke-width="1" />
  <line x1="246.81724007856516" y1="360.00000000000006" x2="251.14736709748735" y2="357.50000000000006" stroke="black" stroke-width="1" />
  <line x1="251.14736709748735" y1="357.50000000000006" x2="255.47749411640956" y2="360.00000000000006" stroke="black" stroke-width="1" />
  <line x1="255.47749411640956" y1="360.00000000000006" x2="255.47749411640956" y2="355.00000000000006" stroke="black" stroke-width="1" />
  <line x1="255.47749411640956" y1="355.00000000000006" x2="259.8076211353318" y2="352.50000000000006" stroke="black" stroke-width="1" />
  <line x1="259.8076211353318" y1="352.50000000000006" x2="264.1377481542539" y2="355.00000000000006" stroke="black" stroke-width="1" />
  <line x1="264.1377481542539" y1="355.00000000000006" x2="264.1377481542539" y2="360.00000000000006" stroke="black" stroke-width="1" />
  <line x1="264.1377481542539" y1="360.00000000000006" x2="268.46787517317614" y2="357.50000000000006" stroke="black" stroke-width="1" />
  <line x1="268.46787517317614" y1="357.50000000000006" x2="272.79800219209835" y2="360.00000000000006" stroke="black" stroke-width="1" />
  <line x1="272.79800219209835" y1="360.00000000000006" x2="272.79800219209835" y2="365.00000000000006" stroke="black" stroke-width="1" />
  <line x1="272.79800219209835" y1="365.00000000000006" x2="268.46787517317614" y2="367.50000000000006" stroke="black" stroke-width="1" />
  <line x1="268.46787517317614" y1="367.50000000000006" x2="272.79800219209835" y2="370.00000000000006" stroke="black" stroke-width="1" />
  <line x1="272.79800219209835" y1="370.00000000000006" x2="272.79800219209835" y2="375.00000000000006" stroke="black" stroke-width="1" />
  <line x1="272.79800219209835" y1="375.00000000000006" x2="268.46787517317614" y2="377.50000000000006" stroke="black" stroke-width="1" />
  <line x1="268.46787517317614" y1="377.50000000000006" x2="264.1377481542539" y2="375.00000000000006" stroke="black" stroke-width="1" />
  <line x1="264.1377481542539" y1="375.00000000000006" x2="264.1377481542539" y2="380.00000000000006" stroke="black" stroke-width="1" />
  <line x1="264.1377481542539" y1="380.00000000000006" x2="259.8076211353318" y2="382.50000000000006" stroke="black" stroke-width="1" />
  <line x1="259.8076211353318" y1="382.50000000000006" x2="264.1377481542539" y2="385.00000000000006" stroke="black" stroke-width="1" />
  <line x1="264.1377481542539" y1="385.00000000000006" x2="264.1377481542539" y2="390.00000000000006" stroke="black" stroke-width="1" />
  <line x1="264.1377481542539" y1="390.00000000000006" x2="268.46787517317614" y2="387.50000000000006" stroke="black" stroke-width="1" />
  <line x1="268.46787517317614" y1="387.50000000000006" x2="272.79800219209835" y2="390.00000000000006" stroke="black" stroke-width="1" />
  <line x1="272.79800219209835" y1="390.00000000000006" x2="272.79800219209835" y2="395.00000000000006" stroke="black" stroke-width="1" />
  <line x1="272.79800219209835" y1="395.00000000000006" x2="268.46787517317614" y2="397.50000000000006" stroke="black" stroke-width="1" />
  <line x1="268.46787517317614" y1="397.50000000000006" x2="272.79800219209835" y2="400.00000000000006" stroke="black" stroke-width="1" />
  <line x1="272.79800219209835" y1="400.00000000000006" x2="272.79800219209835" y2="405.00000000000006" stroke="black" stroke-width="1" />
  <line x1="272.79800219209835" y1="405.00000000000006" x2="277.12812921102056" y2="402.50000000000006" stroke="black" stroke-width="1" />
  <line x1="277.12812921102056" y1="402.50000000000006" x2="281.4582562299428" y2="405.00000000000006" stroke="black" stroke-width="1" />
  <line x1="281.4582562299428" y1="405.00000000000006" x2="281.4582562299428" y2="400.00000000000006" stroke="black" stroke-width="1" />
  <line x1="281.4582562299428" y1="400.00000000000006" x2="285.78838324886493" y2="397.50000000000006" stroke="black" stroke-width="1" />
  <line x1="285.78838324886493" y1="397.50000000000006" x2="290.11851026778714" y2="400.00000000000006" stroke="black" stroke-width="1" />
  <line x1="290.11851026778714" y1="400.00000000000006" x2="290.11851026778714" y2="405.00000000000006" stroke="black" stroke-width="1" />
  <line x1="290.11851026778714" y1="405.00000000000006" x2="294.4486372867093" y2="402.50000000000006" stroke="black" stroke-width="1" />
  <line x1="294.4486372867093" y1="402.50000000000006" x2="298.7787643056315" y2="405.00000000000006" stroke="black" stroke-width="1" />
  <line x1="298.7787643056315" y1="405.00000000000006" x2="298.7787643056315" y2="400.00000000000006" stroke="black" stroke-width="1" />
  <line x1="298.7787643056315" y1="400.00000000000006" x2="303.1088913245537" y2="397.50000000000006" stroke="black" stroke-width="1" />
  <line x1="303.1088913245537" y1="397.50000000000006" x2="298.7787643056315" y2="395.00000000000006" stroke="black" stroke-width="1" />
  <line x1="298.7787643056315" y1="395.00000000000006" x2="298.7787643056315" y2="390.00000000000006" stroke="black" stroke-width="1" />
  <line x1="298.7787643056315" y1="390.00000000000006" x2="303.1088913245537" y2="387.50000000000006" stroke="black" stroke-width="1" />
  <line x1="303.1088913245537" y1="387.50000000000006" x2="307.4390183434759" y2="390.00000000000006" stroke="black" stroke-width="1" />
  <line x1="307.4390183434759" y1="390.00000000000006" x2="307.4390183434759" y2="385.00000000000006" stroke="black" stroke-width="1" />
  <line x1="307.4390183434759" y1="385.00000000000006" x2="311.7691453623981" y2="382.50000000000006" stroke="black" stroke-width="1" />
  <line x1="311.7691453623981" y1="382.50000000000006" x2="316.0992723813203" y2="385.00000000000006" stroke="black" stroke-width="1" />
  <line x1="316.0992723813203" y1="385.00000000000006" x2="316.0992723813203" y2="390.00000000000006" stroke="black" stroke-width="1" />
  <line x1="316.0992723813203" y1="390.00000000000006" x2="320.42939940024246" y2="387.50000000000006" stroke="black" stroke-width="1" />
  <line x1="320.42939940024246" y1="387.50000000000006" x2="324.7595264191647" y2="390.00000000000006" stroke="black" stroke-width="1" />
  <line x1="324.7595264191647" y1="390.00000000000006" x2="324.7595264191647" y2="395.00000000000006" stroke="black" stroke-width="1" />
  <line x1="324.7595264191647" y1="395.00000000000006" x2="320.42939940024246" y2="397.50000000000006" stroke="black" stroke-width="1" />
  <line x1="320.42939940024246" y1="397.50000000000006" x2="324.7595264191647" y2="400.00000000000006" stroke="black" stroke-width="1" />
  <line x1="324.7595264191647" y1="400.00000000000006" x2="324.7595264191647" y2="405.00000000000006" stroke="black" stroke-width="1" />
  <line x1="324.7595264191647" y1="405.00000000000006" x2="329.0896534380869" y2="402.50000000000006" stroke="black" stroke-width="1" />
  <line x1="329.0896534380869" y1="402.50000000000006" x2="333.41978045700904" y2="405.00000000000006" stroke="black" stroke-width="1" />
  <line x1="333.41978045700904" y1="405.00000000000006" x2="333.41978045700904" y2="400.00000000000006" stroke="black" stroke-width="1" />
  <line x1="333.41978045700904" y1="400.00000000000006" x2="337.74990747593125" y2="397.50000000000006" stroke="black" stroke-width="1" />
  <line x1="337.74990747593125" y1="397.50000000000006" x2="342.0800344948534" y2="400.00000000000006" stroke="black" stroke-width="1" />
  <line x1="342.0800344948534" y1="400.00000000000006" x2="342.0800344948534" y2="405.00000000000006" stroke="black" stroke-width="1" />
  <line x1="342.0800344948534" y1="405.00000000000006" x2="346.4101615137756" y2="402.50000000000006" stroke="black" stroke-width="1" />
  <line x1="346.4101615137756" y1="402.50000000000006" x2="350.74028853269783" y2="405.00000000000006" stroke="black" stroke-width="1" />
</svg>
