<?xml version="1.0" encoding="UTF-8" ?>
<svg xmlns="http://www.w3.org/2000/svg" version="1.1" width="272.798002192098" height="320.0">
  <line x1="8.881784197001252e-16" y1="320.0" x2="1.1943401194869635e-15" y2="315.0" stroke="black" stroke-width="1" />
  <line x1="1.1943401194869635e-15" y1="315.0" x2="4.3301270189221945" y2="312.5" stroke="black" stroke-width="1" />
  <line x1="4.3301270189221945" y1="312.5" x2="8.660254037844386" y2="315.0" stroke="black" stroke-width="1" />
  <line x1="8.660254037844386" y1="315.0" x2="12.99038105676658" y2="312.5" stroke="black" stroke-width="1" />
  <line x1="12.99038105676658" y1="312.5" x2="12.99038105676658" y2="307.5" stroke="black" stroke-width="1" />
  <line x1="12.99038105676658" y1="307.5" x2="8.660254037844386" y2="305.0" stroke="black" stroke-width="1" />
  <line x1="8.660254037844386" y1="305.0" x2="4.330127018922194" y2="307.5" stroke="black" stroke-width="1" />
  <line x1="4.330127018922194" y1="307.5" x2="0.0" y2="305.0" stroke="black" stroke-width="1" />
  <line x1="0.0" y1="305.0" x2="3.0616169978683826e-16" y2="300.0" stroke="black" stroke-width="1" />
  <line x1="3.0616169978683826e-16" y1="300.0" x2="4.330127018922194" y2="297.5" stroke="black" stroke-width="1" />
  <line x1="4.330127018922194" y1="297.5" x2="4.330127018922194" y2="292.5" stroke="black" stroke-width="1" />
  <line x1="4.330127018922194" y1="292.5" x2="0.0" y2="290.0" stroke="black" stroke-width="1" />
  <line x1="0.0" y1="290.0" x2="3.0616169978683826e-16" y2="285.0" stroke="black" stroke-width="1" />
  <line x1="3.0616169978683826e-16" y1="285.0" x2="4.330127018922194" y2="282.5" stroke="black" stroke-width="1" />
  <line x1="4.330127018922194" y1="282.5" x2="8.660254037844386" y2="285.0" stroke="black" stroke-width="1" />
  <line x1="8.660254037844386" y1="285.0" x2="8.660254037844386" y2="290.0" stroke="black" stroke-width="1" />
  <line x1="8.660254037844386" y1="290.0" x2="12.990381056766577" y2="292.5" stroke="black" stroke-width="1" />
  <line x1="12.990381056766577" y1="292.5" x2="17.32050807568877" y2="290.0" stroke="black" stroke-width="1" />
  <line x1="17.32050807568877" y1="290.0" x2="21.650635094610962" y2="292.5" stroke="black" stroke-width="1" />
  <line x1="21.650635094610962" y1="292.5" x2="21.650635094610962" y2="297.5" stroke="black" stroke-width="1" />
  <line x1="21.650635094610962" y1="297.5" x2="17.32050807568877" y2="300.0" stroke="black" stroke-width="1" />
  <line x1="17.32050807568877" y1="300.0" x2="17.32050807568877" y2="305.0" stroke="black" stroke-width="1" />
  <line x1="17.32050807568877" y1="305.0" x2="21.650635094610962" y2="307.5" stroke="black" stroke-width="1" />
  <line x1="21.650635094610962" y1="307.5" x2="25.980762113533157" y2="305.0" stroke="black" stroke-width="1" />
  <line x1="25.980762113533157" y1="305.0" x2="25.980762113533157" y2="300.0" stroke="black" stroke-width="1" />
  <line x1="25.980762113533157" y1="300.0" x2="30.31088913245535" y2="297.5" stroke="black" stroke-width="1" />
  <line x1="30.31088913245535" y1="297.5" x2="34.64101615137754" y2="300.0" stroke="black" stroke-width="1" />
  <line x1="34.64101615137754" y1="300.0" x2="38.97114317029973" y2="297.5" stroke="black" stroke-width="1" />
  <line x1="38.97114317029973" y1="297.5" x2="38.97114317029973" y2="292.5" stroke="black" stroke-width="1" />
  <line x1="38.97114317029973" y1="292.5" x2="34.64101615137754" y2="290.0" stroke="black" stroke-width="1" />
  <line x1="34.64101615137754" y1="290.0" x2="34.64101615137754" y2="285.0" stroke="black" stroke-width="1" />
  <line x1="34.64101615137754" y1="285.0" x2="38.97114317029973" y2="282.5" stroke="black" stroke-width="1" />
  <line x1="38.97114317029973" y1="282.5" x2="43.301270189221924" y2="285.0" stroke="black" stroke-width="1" />
  <line x1="43.301270189221924" y1="285.0" x2="43.301270189221924" y2="290.0" stroke="black" stroke-width="1" />
  <line x1="43.301270189221924" y1="290.0" x2="47.631397208144115" y2="292.5" stroke="black" stroke-width="1" />
  <line x1="47.631397208144115" y1="292.5" x2="51.961524227066306" y2="290.0" stroke="black" stroke-width="1" />
  <line x1="51.961524227066306" y1="290.0" x2="51.961524227066306" y2="285.0" stroke="black" stroke-width="1" />
  <line x1="51.961524227066306" y1="285.0" x2="56.2916512459885" y2="282.5" stroke="black" stroke-width="1" />
  <line x1="56.2916512459885" y1="282.5" x2="60.62177826491069" y2="285.0" stroke="black" stroke-width="1" />
  <line x1="60.62177826491069" y1="285.0" x2="64.95190528383289" y2="282.5" stroke="black" stroke-width="1" />
  <line x1="64.95190528383289" y1="282.5" x2="64.95190528383289" y2="277.5" stroke="black" stroke-width="1" />
  <line x1="64.95190528383289" y1="277.5" x2="60.621778264910695" y2="275.0" stroke="black" stroke-width="1" />
  <line x1="60.621778264910695" y1="275.0" x2="56.291651245988504" y2="277.5" stroke="black" stroke-width="1" />
  <line x1="56.291651245988504" y1="277.5" x2="51.96152422706631" y2="275.0" stroke="black" stroke-width="1" />
  <line x1="51.96152422706631" y1="275.0" x2="51.96152422706631" y2="270.0" stroke="black" stroke-width="1" />
  <line x1="51.96152422706631" y1="270.0" x2="47.63139720814412" y2="267.5" stroke="black" stroke-width="1" />
  <line x1="47.63139720814412" y1="267.5" x2="43.30127018922193" y2="270.0" stroke="black" stroke-width="1" />
  <line x1="43.30127018922193" y1="270.0" x2="43.30127018922193" y2="275.0" stroke="black" stroke-width="1" />
  <line x1="43.30127018922193" y1="275.0" x2="38.97114317029974" y2="277.5" stroke="black" stroke-width="1" />
  <line x1="38.97114317029974" y1="277.5" x2="34.64101615137755" y2="275.0" stroke="black" stroke-width="1" />
  <line x1="34.64101615137755" y1="275.0" x2="34.64101615137755" y2="270.0" stroke="black" stroke-width="1" />
  <line x1="34.64101615137755" y1="270.0" x2="38.97114317029974" y2="267.5" stroke="black" stroke-width="1" />
  <line x1="38.97114317029974" y1="267.5" x2="38.97114317029974" y2="262.5" stroke="black" stroke-width="1" />
  <line x1="38.97114317029974" y1="262.5" x2="34.64101615137755" y2="260.0" stroke="black" stroke-width="1" />
  <line x1="34.64101615137755" y1="260.0" x2="30.310889132455358" y2="262.5" stroke="black" stroke-width="1" />
  <line x1="30.310889132455358" y1="262.5" x2="25.980762113533164" y2="260.0" stroke="black" stroke-width="1" />
  <line x1="25.980762113533164" y1="260.0" x2="25.980762113533164" y2="255.0" stroke="black" stroke-width="1" />
  <line x1="25.980762113533164" y1="255.0" x2="21.65063509461097" y2="252.5" stroke="black" stroke-width="1" />
  <line x1="21.65063509461097" y1="252.5" x2="17.320508075688778" y2="255.0" stroke="black" stroke-width="1" />
  <line x1="17.320508075688778" y1="255.0" x2="17.320508075688778" y2="260.0" stroke="black" stroke-width="1" />
  <line x1="17.320508075688778" y1="260.0" x2="21.65063509461097" y2="262.5" stroke="black" stroke-width="1" />
  <line x1="21.65063509461097" y1="262.5" x2="21.65063509461097" y2="267.5" stroke="black" stroke-width="1" />
  <line x1="21.65063509461097" y1="267.5" x2="17.320508075688778" y2="270.0" stroke="black" stroke-width="1" />
  <line x1="17.320508075688778" y1="270.0" x2="12.990381056766584" y2="267.5" stroke="black" stroke-width="1" />
  <line x1="12.990381056766584" y1="267.5" x2="8.660254037844393" y2="270.0" stroke="black" stroke-width="1" />
  <line x1="8.660254037844393" y1="270.0" x2="8.660254037844389" y2="275.0" stroke="black" stroke-width="1" />
  <line x1="8.660254037844389" y1="275.0" x2="4.330127018922197" y2="277.5" stroke="black" stroke-width="1" />
  <line x1="4.330127018922197" y1="277.5" x2="3.552713678800501e-15" y2="275.0" stroke="black" stroke-width="1" />
  <line x1="3.552713678800501e-15" y1="275.0" x2="3.858875378587339e-15" y2="270.0" stroke="black" stroke-width="1" />
  <line x1="3.858875378587339e-15" y1="270.0" x2="4.330127018922197" y2="267.5" stroke="black" stroke-width="1" />
  <line x1="4.330127018922197" y1="267.5" x2="4.330127018922197" y2="262.5" stroke="black" stroke-width="1" />
  <line x1="4.330127018922197" y1="262.5" x2="3.552713678800501e-15" y2="260.0" stroke="black" stroke-width="1" />
  <line x1="3.552713678800501e-15" y1="260.0" x2="3.858875378587339e-15" y2="255.0" stroke="black" stroke-width="1" />
  <line x1="3.858875378587339e-15" y1="255.0" x2="4.330127018922197" y2="252.5" stroke="black" stroke-width="1" />
  <line x1="4.330127018922197" y1="252.5" x2="8.660254037844389" y2="255.0" stroke="black" stroke-width="1" />
  <line x1="8.660254037844389" y1="255.0" x2="12.990381056766584" y2="252.5" stroke="black" stroke-width="1" />
  <line x1="12.990381056766584" y1="252.5" x2="12.990381056766584" y2="247.5" stroke="black" stroke-width="1" />
  <line x1="12.990381056766584" y1="247.5" x2="8.660254037844389" y2="245.0" stroke="black" stroke-width="1" />
  <line x1="8.660254037844389" y1="245.0" x2="4.330127018922197" y2="247.5" stroke="black" stroke-width="1" />
  <line x1="4.330127018922197" y1="247.5" x2="3.552713678800501e-15" y2="245.0" stroke="black" stroke-width="1" />
  <line x1="3.552713678800501e-15" y1="245.0" x2="3.858875378587339e-15" y2="240.0" stroke="black" stroke-width="1" />
  <line x1="3.858875378587339e-15" y1="240.0" x2="4.330127018922197" y2="237.5" stroke="black" stroke-width="1" />
  <line x1="4.330127018922197" y1="237.5" x2="4.330127018922197" y2="232.5" stroke="black" stroke-width="1" />
  <line x1="4.330127018922197" y1="232.5" x2="3.552713678800501e-15" y2="230.0" stroke="black" stroke-width="1" />
  <line x1="3.552713678800501e-15" y1="230.0" x2="3.858875378587339e-15" y2="225.0" stroke="black" stroke-width="1" />
  <line x1="3.858875378587339e-15" y1="225.0" x2="4.330127018922197" y2="222.5" stroke="black" stroke-width="1" />
  <line x1="4.330127018922197" y1="222.5" x2="8.660254037844389" y2="225.0" stroke="black" stroke-width="1" />
  <line x1="8.660254037844389" y1="225.0" x2="8.660254037844389" y2="230.0" stroke="black" stroke-width="1" />
  <line x1="8.660254037844389" y1="230.0" x2="12.99038105676658" y2="232.5" stroke="black" stroke-width="1" />
  <line x1="12.99038105676658" y1="232.5" x2="17.320508075688775" y2="230.0" stroke="black" stroke-width="1" />
  <line x1="17.320508075688775" y1="230.0" x2="17.320508075688775" y2="225.0" stroke="black" stroke-width="1" />
  <line x1="17.320508075688775" y1="225.0" x2="21.65063509461097" y2="222.5" stroke="black" stroke-width="1" />
  <line x1="21.65063509461097" y1="222.5" x2="25.98076211353316" y2="225.0" stroke="black" stroke-width="1" />
  <line x1="25.98076211353316" y1="225.0" x2="30.310889132455355" y2="222.5" stroke="black" stroke-width="1" />
  <line x1="30.310889132455355" y1="222.5" x2="30.310889132455355" y2="217.5" stroke="black" stroke-width="1" />
  <line x1="30.310889132455355" y1="217.5" x2="25.98076211353316" y2="215.0" stroke="black" stroke-width="1" />
  <line x1="25.98076211353316" y1="215.0" x2="21.65063509461097" y2="217.5" stroke="black" stroke-width="1" />
  <line x1="21.65063509461097" y1="217.5" x2="17.320508075688775" y2="215.0" stroke="black" stroke-width="1" />
  <line x1="17.320508075688775" y1="215.0" x2="17.320508075688775" y2="210.0" stroke="black" stroke-width="1" />
  <line x1="17.320508075688775" y1="210.0" x2="12.99038105676658" y2="207.5" stroke="black" stroke-width="1" />
  <line x1="12.99038105676658" y1="207.5" x2="8.660254037844389" y2="210.0" stroke="black" stroke-width="1" />
  <line x1="8.660254037844389" y1="210.0" x2="8.660254037844386" y2="215.0" stroke="black" stroke-width="1" />
  <line x1="8.660254037844386" y1="215.0" x2="4.330127018922194" y2="217.5" stroke="black" stroke-width="1" />
  <line x1="4.330127018922194" y1="217.5" x2="0.0" y2="215.0" stroke="black" stroke-width="1" />
  <line x1="0.0" y1="215.0" x2="3.0616169978683826e-16" y2="210.0" stroke="black" stroke-width="1" />
  <line x1="3.0616169978683826e-16" y1="210.0" x2="4.330127018922194" y2="207.5" stroke="black" stroke-width="1" />
  <line x1="4.330127018922194" y1="207.5" x2="4.330127018922194" y2="202.5" stroke="black" stroke-width="1" />
  <line x1="4.330127018922194" y1="202.5" x2="0.0" y2="200.0" stroke="black" stroke-width="1" />
  <line x1="0.0" y1="200.0" x2="3.0616169978683826e-16" y2="195.0" stroke="black" stroke-width="1" />
  <line x1="3.0616169978683826e-16" y1="195.0" x2="4.330127018922194" y2="192.5" stroke="black" stroke-width="1" />
  <line x1="4.330127018922194" y1="192.5" x2="8.660254037844386" y2="195.0" stroke="black" stroke-width="1" />
  <line x1="8.660254037844386" y1="195.0" x2="12.99038105676658" y2="192.5" stroke="black" stroke-width="1" />
  <line x1="12.99038105676658" y1="192.5" x2="12.99038105676658" y2="187.5" stroke="black" stroke-width="1" />
  <line x1="12.99038105676658" y1="187.5" x2="8.660254037844386" y2="185.0" stroke="black" stroke-width="1" />
  <line x1="8.660254037844386" y1="185.0" x2="4.330127018922194" y2="187.5" stroke="black" stroke-width="1" />
  <line x1="4.330127018922194" y1="187.5" x2="0.0" y2="185.0" stroke="black" stroke-width="1" />
  <line x1="0.0" y1="185.0" x2="3.0616169978683826e-16" y2="180.0" stroke="black" stroke-width="1" />
  <line x1="3.0616169978683826e-16" y1="180.0" x2="4.330127018922194" y2="177.5" stroke="black" stroke-width="1" />
  <line x1="4.330127018922194" y1="177.5" x2="4.330127018922194" y2="172.5" stroke="black" stroke-width="1" />
  <line x1="4.330127018922194" y1="172.5" x2="0.0" y2="170.0" stroke="black" stroke-width="1" />
  <line x1="0.0" y1="170.0" x2="3.0616169978683826e-16" y2="165.0" stroke="black" stroke-width="1" />
  <line x1="3.0616169978683826e-16" y1="165.0" x2="4.330127018922194" y2="162.5" stroke="black" stroke-width="1" />
  <line x1="4.330127018922194" y1="162.5" x2="8.660254037844386" y2="165.0" stroke="black" stroke-width="1" />
  <line x1="8.660254037844386" y1="165.0" x2="8.660254037844386" y2="170.0" stroke="black" stroke-width="1" />
  <line x1="8.660254037844386" y1="170.0" x2="12.990381056766577" y2="172.5" stroke="black" stroke-width="1" />
  <line x1="12.990381056766577" y1="172.5" x2="17.32050807568877" y2="170.0" stroke="black" stroke-width="1" />
  <line x1="17.32050807568877" y1="170.0" x2="21.650635094610962" y2="172.5" stroke="black" stroke-width="1" />
  <line x1="21.650635094610962" y1="172.5" x2="21.650635094610962" y2="177.5" stroke="black" stroke-width="1" />
  <line x1="21.650635094610962" y1="177.5" x2="17.32050807568877" y2="180.0" stroke="black" stroke-width="1" />
  <line x1="17.32050807568877" y1="180.0" x2="17.32050807568877" y2="185.0" stroke="black" stroke-width="1" />
  <line x1="17.32050807568877" y1="185.0" x2="21.650635094610962" y2="187.5" stroke="black" stroke-width="1" />
  <line x1="21.650635094610962" y1="187.5" x2="25.980762113533157" y2="185.0" stroke="black" stroke-width="1" />
  <line x1="25.980762113533157" y1="185.0" x2="25.980762113533157" y2="180.0" stroke="black" stroke-width="1" />
  <line x1="25.980762113533157" y1="180.0" x2="30.31088913245535" y2="177.5" stroke="black" stroke-width="1" />
  <line x1="30.31088913245535" y1="177.5" x2="34.64101615137754" y2="180.0" stroke="black" stroke-width="1" />
  <line x1="34.64101615137754" y1="180.0" x2="34.64101615137754" y2="185.0" stroke="black" stroke-width="1" />
  <line x1="34.64101615137754" y1="185.0" x2="38.97114317029973" y2="187.5" stroke="black" stroke-width="1" />
  <line x1="38.97114317029973" y1="187.5" x2="43.301270189221924" y2="185.0" stroke="black" stroke-width="1" />
  <line x1="43.301270189221924" y1="185.0" x2="47.631397208144115" y2="187.5" stroke="black" stroke-width="1" />
  <line x1="47.631397208144115" y1="187.5" x2="47.631397208144115" y2="192.5" stroke="black" stroke-width="1" />
  <line x1="47.631397208144115" y1="192.5" x2="43.301270189221924" y2="195.0" stroke="black" stroke-width="1" />
  <line x1="43.301270189221924" y1="195.0" x2="38.97114317029973" y2="192.5" stroke="black" stroke-width="1" />
  <line x1="38.97114317029973" y1="192.5" x2="34.64101615137754" y2="195.0" stroke="black" stroke-width="1" />
  <line x1="34.64101615137754" y1="195.0" x2="34.64101615137754" y2="200.0" stroke="black" stroke-width="1" />
  <line x1="34.64101615137754" y1="200.0" x2="38.97114317029973" y2="202.5" stroke="black" stroke-width="1" />
  <line x1="38.97114317029973" y1="202.5" x2="38.97114317029973" y2="207.5" stroke="black" stroke-width="1" />
  <line x1="38.97114317029973" y1="207.5" x2="34.64101615137754" y2="210.0" stroke="black" stroke-width="1" />
  <line x1="34.64101615137754" y1="210.0" x2="34.64101615137754" y2="215.0" stroke="black" stroke-width="1" />
  <line x1="34.64101615137754" y1="215.0" x2="38.97114317029973" y2="217.5" stroke="black" stroke-width="1" />
  <line x1="38.97114317029973" y1="217.5" x2="43.301270189221924" y2="215.0" stroke="black" stroke-width="1" />
  <line x1="43.301270189221924" y1="215.0" x2="43.301270189221924" y2="210.0" stroke="black" stroke-width="1" />
  <line x1="43.301270189221924" y1="210.0" x2="47.631397208144115" y2="207.5" stroke="black" stroke-width="1" />
  <line x1="47.631397208144115" y1="207.5" x2="51.961524227066306" y2="210.0" stroke="black" stroke-width="1" />
  <line x1="51.961524227066306" y1="210.0" x2="56.2916512459885" y2="207.5" stroke="black" stroke-width="1" />
  <line x1="56.2916512459885" y1="207.5" x2="56.2916512459885" y2="202.5" stroke="black" stroke-width="1" />
  <line x1="56.2916512459885" y1="202.5" x2="51.961524227066306" y2="200.0" stroke="black" stroke-width="1" />
  <line x1="51.961524227066306" y1="200.0" x2="51.961524227066306" y2="195.0" stroke="black" stroke-width="1" />
  <line x1="51.961524227066306" y1="195.0" x2="56.2916512459885" y2="192.5" stroke="black" stroke-width="1" />
  <line x1="56.2916512459885" y1="192.5" x2="60.62177826491069" y2="195.0" stroke="black" stroke-width="1" />
  <line x1="60.62177826491069" y1="195.0" x2="60.62177826491069" y2="200.0" stroke="black" stroke-width="1" />
  <line x1="60.62177826491069" y1="200.0" x2="64.95190528383289" y2="202.5" stroke="black" stroke-width="1" />
  <line x1="64.95190528383289" y1="202.5" x2="69.28203230275508" y2="200.0" stroke="black" stroke-width="1" />
  <line x1="69.28203230275508" y1="200.0" x2="73.61215932167728" y2="202.5" stroke="black" stroke-width="1" />
  <line x1="73.61215932167728" y1="202.5" x2="73.61215932167728" y2="207.5" stroke="black" stroke-width="1" />
  <line x1="73.61215932167728" y1="207.5" x2="69.28203230275508" y2="210.0" stroke="black" stroke-width="1" />
  <line x1="69.28203230275508" y1="210.0" x2="69.28203230275508" y2="215.0" stroke="black" stroke-width="1" />
  <line x1="69.28203230275508" y1="215.0" x2="73.61215932167728" y2="217.5" stroke="black" stroke-width="1" />
  <line x1="73.61215932167728" y1="217.5" x2="77.94228634059948" y2="215.0" stroke="black" stroke-width="1" />
  <line x1="77.94228634059948" y1="215.0" x2="77.94228634059948" y2="210.0" stroke="black" stroke-width="1" />
  <line x1="77.94228634059948" y1="210.0" x2="82.27241335952168" y2="207.5" stroke="black" stroke-width="1" />
  <line x1="82.27241335952168" y1="207.5" x2="86.60254037844388" y2="210.0" stroke="black" stroke-width="1" />
  <line x1="86.60254037844388" y1="210.0" x2="86.60254037844388" y2="215.0" stroke="black" stroke-width="1" />
  <line x1="86.60254037844388" y1="215.0" x2="90.93266739736607" y2="217.5" stroke="black" stroke-width="1" />
  <line x1="90.93266739736607" y1="217.5" x2="95.26279441628827" y2="215.0" stroke="black" stroke-width="1" />
  <line x1="95.26279441628827" y1="215.0" x2="99.59292143521047" y2="217.5" stroke="black" stroke-width="1" />
  <line x1="99.59292143521047" y1="217.5" x2="99.59292143521047" y2="222.5" stroke="black" stroke-width="1" />
  <line x1="99.59292143521047" y1="222.5" x2="95.26279441628827" y2="225.0" stroke="black" stroke-width="1" />
  <line x1="95.26279441628827" y1="225.0" x2="90.93266739736607" y2="222.5" stroke="black" stroke-width="1" />
  <line x1="90.93266739736607" y1="222.5" x2="86.60254037844388" y2="225.0" stroke="black" stroke-width="1" />
  <line x1="86.60254037844388" y1="225.0" x2="86.60254037844388" y2="230.0" stroke="black" stroke-width="1" />
  <line x1="86.60254037844388" y1="230.0" x2="82.27241335952168" y2="232.5" stroke="black" stroke-width="1" />
  <line x1="82.27241335952168" y1="232.5" x2="77.94228634059948" y2="230.0" stroke="black" stroke-width="1" />
  <line x1="77.94228634059948" y1="230.0" x2="77.94228634059948" y2="225.0" stroke="black" stroke-width="1" />
  <line x1="77.94228634059948" y1="225.0" x2="73.61215932167728" y2="222.5" stroke="black" stroke-width="1" />
  <line x1="73.61215932167728" y1="222.5" x2="69.28203230275508" y2="225.0" stroke="black" stroke-width="1" />
  <line x1="69.28203230275508" y1="225.0" x2="69.28203230275508" y2="230.0" stroke="black" stroke-width="1" />
  <line x1="69.28203230275508" y1="230.0" x2="73.61215932167728" y2="232.5" stroke="black" stroke-width="1" />
  <line x1="73.61215932167728" y1="232.5" x2="73.61215932167728" y2="237.5" stroke="black" stroke-width="1" />
  <line x1="73.61215932167728" y1="237.5" x2="69.28203230275508" y2="240.0" stroke="black" stroke-width="1" />
  <line x1="69.28203230275508" y1="240.0" x2="69.28203230275508" y2="245.0" stroke="black" stroke-width="1" />
  <line x1="69.28203230275508" y1="245.0" x2="73.61215932167728" y2="247.5" stroke="black" stroke-width="1" />
  <line x1="73.61215932167728" y1="247.5" x2="77.94228634059948" y2="245.0" stroke="black" stroke-width="1" />
  <line x1="77.94228634059948" y1="245.0" x2="82.27241335952168" y2="247.5" stroke="black" stroke-width="1" />
  <line x1="82.27241335952168" y1="247.5" x2="82.27241335952168" y2="252.5" stroke="black" stroke-width="1" />
  <line x1="82.27241335952168" y1="252.5" x2="77.94228634059948" y2="255.0" stroke="black" stroke-width="1" />
  <line x1="77.94228634059948" y1="255.0" x2="73.61215932167728" y2="252.5" stroke="black" stroke-width="1" />
  <line x1="73.61215932167728" y1="252.5" x2="69.28203230275508" y2="255.0" stroke="black" stroke-width="1" />
  <line x1="69.28203230275508" y1="255.0" x2="69.28203230275508" y2="260.0" stroke="black" stroke-width="1" />
  <line x1="69.28203230275508" y1="260.0" x2="73.61215932167728" y2="262.5" stroke="black" stroke-width="1" />
  <line x1="73.61215932167728" y1="262.5" x2="73.61215932167728" y2="267.5" stroke="black" stroke-width="1" />
  <line x1="73.61215932167728" y1="267.5" x2="69.28203230275508" y2="270.0" stroke="black" stroke-width="1" />
  <line x1="69.28203230275508" y1="270.0" x2="69.28203230275508" y2="275.0" stroke="black" stroke-width="1" />
  <line x1="69.28203230275508" y1="275.0" x2="73.61215932167728" y2="277.5" stroke="black" stroke-width="1" />
  <line x1="73.61215932167728" y1="277.5" x2="77.94228634059948" y2="275.0" stroke="black" stroke-width="1" />
  <line x1="77.94228634059948" y1="275.0" x2="77.94228634059948" y2="270.0" stroke="black" stroke-width="1" />
  <line x1="77.94228634059948" y1="270.0" x2="82.27241335952168" y2="267.5" stroke="black" stroke-width="1" />
  <line x1="82.27241335952168" y1="267.5" x2="86.60254037844388" y2="270.0" stroke="black" stroke-width="1" />
  <line x1="86.60254037844388" y1="270.0" x2="90.93266739736607" y2="267.5" stroke="black" stroke-width="1" />
  <line x1="90.93266739736607" y1="267.5" x2="90.93266739736607" y2="262.5" stroke="black" stroke-width="1" />
  <line x1="90.93266739736607" y1="262.5" x2="86.60254037844388" y2="260.0" stroke="black" stroke-width="1" />
  <line x1="86.60254037844388" y1="260.0" x2="86.60254037844388" y2="255.0" stroke="black" stroke-width="1" />
  <line x1="86.60254037844388" y1="255.0" x2="90.93266739736607" y2="252.5" stroke="black" stroke-width="1" />
  <line x1="90.93266739736607" y1="252.5" x2="95.26279441628827" y2="255.0" stroke="black" stroke-width="1" />
  <line x1="95.26279441628827" y1="255.0" x2="95.26279441628827" y2="260.0" stroke="black" stroke-width="1" />
  <line x1="95.26279441628827" y1="260.0" x2="99.59292143521047" y2="262.5" stroke="black" stroke-width="1" />
  <line x1="99.59292143521047" y1="262.5" x2="103.92304845413267" y2="260.0" stroke="black" stroke-width="1" />
  <line x1="103.92304845413267" y1="260.0" x2="103.92304845413267" y2="255.0" stroke="black" stroke-width="1" />
  <line x1="103.92304845413267" y1="255.0" x2="108.25317547305487" y2="252.5" stroke="black" stroke-width="1" />
  <line x1="108.25317547305487" y1="252.5" x2="112.58330249197707" y2="255.0" stroke="black" stroke-width="1" />
  <line x1="112.58330249197707" y1="255.0" x2="116.91342951089926" y2="252.5" stroke="black" stroke-width="1" />
  <line x1="116.91342951089926" y1="252.5" x2="116.91342951089926" y2="247.5" stroke="black" stroke-width="1" />
  <line x1="116.91342951089926" y1="247.5" x2="112.58330249197707" y2="245.0" stroke="black" stroke-width="1" />
  <line x1="112.58330249197707" y1="245.0" x2="108.25317547305487" y2="247.5" stroke="black" stroke-width="1" />
  <line x1="108.25317547305487" y1="247.5" x2="103.92304845413267" y2="245.0" stroke="black" stroke-width="1" />
  <line x1="103.92304845413267" y1="245.0" x2="103.92304845413267" y2="240.0" stroke="black" stroke-width="1" />
  <line x1="103.92304845413267" y1="240.0" x2="108.25317547305487" y2="237.5" stroke="black" stroke-width="1" />
  <line x1="108.25317547305487" y1="237.5" x2="108.25317547305487" y2="232.5" stroke="black" stroke-width="1" />
  <line x1="108.25317547305487" y1="232.5" x2="103.92304845413267" y2="230.0" stroke="black" stroke-width="1" />
  <line x1="103.92304845413267" y1="230.0" x2="103.92304845413267" y2="225.0" stroke="black" stroke-width="1" />
  <line x1="103.92304845413267" y1="225.0" x2="108.25317547305487" y2="222.5" stroke="black" stroke-width="1" />
  <line x1="108.25317547305487" y1="222.5" x2="112.58330249197707" y2="225.0" stroke="black" stroke-width="1" />
  <line x1="112.58330249197707" y1="225.0" x2="112.58330249197707" y2="230.0" stroke="black" stroke-width="1" />
  <line x1="112.58330249197707" y1="230.0" x2="116.91342951089926" y2="232.5" stroke="black" stroke-width="1" />
  <line x1="116.91342951089926" y1="232.5" x2="121.24355652982146" y2="230.0" stroke="black" stroke-width="1" />
  <line x1="121.24355652982146" y1="230.0" x2="125.57368354874366" y2="232.5" stroke="black" stroke-width="1" />
  <line x1="125.57368354874366" y1="232.5" x2="125.57368354874366" y2="237.5" stroke="black" stroke-width="1" />
  <line x1="125.57368354874366" y1="237.5" x2="121.24355652982146" y2="240.0" stroke="black" stroke-width="1" />
  <line x1="121.24355652982146" y1="240.0" x2="121.24355652982146" y2="245.0" stroke="black" stroke-width="1" />
  <line x1="121.24355652982146" y1="245.0" x2="125.57368354874366" y2="247.5" stroke="black" stroke-width="1" />
  <line x1="125.57368354874366" y1="247.5" x2="129.90381056766586" y2="245.0" stroke="black" stroke-width="1" />
  <line x1="129.90381056766586" y1="245.0" x2="129.90381056766586" y2="240.0" stroke="black" stroke-width="1" />
  <line x1="129.90381056766586" y1="240.0" x2="134.23393758658804" y2="237.5" stroke="black" stroke-width="1" />
  <line x1="134.23393758658804" y1="237.5" x2="138.56406460551023" y2="240.0" stroke="black" stroke-width="1" />
  <line x1="138.56406460551023" y1="240.0" x2="142.8941916244324" y2="237.5" stroke="black" stroke-width="1" />
  <line x1="142.8941916244324" y1="237.5" x2="142.8941916244324" y2="232.5" stroke="black" stroke-width="1" />
  <line x1="142.8941916244324" y1="232.5" x2="138.56406460551023" y2="230.0" stroke="black" stroke-width="1" />
  <line x1="138.56406460551023" y1="230.0" x2="138.56406460551023" y2="225.0" stroke="black" stroke-width="1" />
  <line x1="138.56406460551023" y1="225.0" x2="142.8941916244324" y2="222.5" stroke="black" stroke-width="1" />
  <line x1="142.8941916244324" y1="222.5" x2="147.2243186433546" y2="225.0" stroke="black" stroke-width="1" />
  <line x1="147.2243186433546" y1="225.0" x2="147.2243186433546" y2="230.0" stroke="black" stroke-width="1" />
  <line x1="147.2243186433546" y1="230.0" x2="151.55444566227678" y2="232.5" stroke="black" stroke-width="1" />
  <line x1="151.55444566227678" y1="232.5" x2="155.88457268119896" y2="230.0" stroke="black" stroke-width="1" />
  <line x1="155.88457268119896" y1="230.0" x2="155.88457268119896" y2="225.0" stroke="black" stroke-width="1" />
  <line x1="155.88457268119896" y1="225.0" x2="160.21469970012114" y2="222.5" stroke="black" stroke-width="1" />
  <line x1="160.21469970012114" y1="222.5" x2="164.54482671904333" y2="225.0" stroke="black" stroke-width="1" />
  <line x1="164.54482671904333" y1="225.0" x2="168.8749537379655" y2="222.5" stroke="black" stroke-width="1" />
  <line x1="168.8749537379655" y1="222.5" x2="168.8749537379655" y2="217.5" stroke="black" stroke-width="1" />
  <line x1="168.8749537379655" y1="217.5" x2="164.54482671904333" y2="215.0" stroke="black" stroke-width="1" />
  <line x1="164.54482671904333" y1="215.0" x2="160.21469970012114" y2="217.5" stroke="black" stroke-width="1" />
  <line x1="160.21469970012114" y1="217.5" x2="155.88457268119896" y2="215.0" stroke="black" stroke-width="1" />
  <line x1="155.88457268119896" y1="215.0" x2="155.88457268119896" y2="210.0" stroke="black" stroke-width="1" />
  <line x1="155.88457268119896" y1="210.0" x2="151.55444566227678" y2="207.5" stroke="black" stroke-width="1" />
  <line x1="151.55444566227678" y1="207.5" x2="147.2243186433546" y2="210.0" stroke="black" stroke-width="1" />
  <line x1="147.2243186433546" y1="210.0" x2="147.2243186433546" y2="215.0" stroke="black" stroke-width="1" />
  <line x1="147.2243186433546" y1="215.0" x2="142.8941916244324" y2="217.5" stroke="black" stroke-width="1" />
  <line x1="142.8941916244324" y1="217.5" x2="138.56406460551023" y2="215.0" stroke="black" stroke-width="1" />
  <line x1="138.56406460551023" y1="215.0" x2="138.56406460551023" y2="210.0" stroke="black" stroke-width="1" />
  <line x1="138.56406460551023" y1="210.0" x2="142.8941916244324" y2="207.5" stroke="black" stroke-width="1" />
  <line x1="142.8941916244324" y1="207.5" x2="142.8941916244324" y2="202.5" stroke="black" stroke-width="1" />
  <line x1="142.8941916244324" y1="202.5" x2="138.56406460551023" y2="200.0" stroke="black" stroke-width="1" />
  <line x1="138.56406460551023" y1="200.0" x2="138.56406460551023" y2="195.0" stroke="black" stroke-width="1" />
  <line x1="138.56406460551023" y1="195.0" x2="142.8941916244324" y2="192.5" stroke="black" stroke-width="1" />
  <line x1="142.8941916244324" y1="192.5" x2="147.2243186433546" y2="195.0" stroke="black" stroke-width="1" />
  <line x1="147.2243186433546" y1="195.0" x2="151.55444566227678" y2="192.5" stroke="black" stroke-width="1" />
  <line x1="151.55444566227678" y1="192.5" x2="151.55444566227678" y2="187.5" stroke="black" stroke-width="1" />
  <line x1="151.55444566227678" y1="187.5" x2="147.2243186433546" y2="185.0" stroke="black" stroke-width="1" />
  <line x1="147.2243186433546" y1="185.0" x2="142.8941916244324" y2="187.5" stroke="black" stroke-width="1" />
  <line x1="142.8941916244324" y1="187.5" x2="138.56406460551023" y2="185.0" stroke="black" stroke-width="1" />
  <line x1="138.56406460551023" y1="185.0" x2="138.56406460551023" y2="180.0" stroke="black" stroke-width="1" />
  <line x1="138.56406460551023" y1="180.0" x2="142.8941916244324" y2="177.5" stroke="black" stroke-width="1" />
  <line x1="142.8941916244324" y1="177.5" x2="142.8941916244324" y2="172.5" stroke="black" stroke-width="1" />
  <line x1="142.8941916244324" y1="172.5" x2="138.56406460551023" y2="170.0" stroke="black" stroke-width="1" />
  <line x1="138.56406460551023" y1="170.0" x2="138.56406460551023" y2="165.0" stroke="black" stroke-width="1" />
  <line x1="138.56406460551023" y1="165.0" x2="142.8941916244324" y2="162.5" stroke="black" stroke-width="1" />
  <line x1="142.8941916244324" y1="162.5" x2="147.2243186433546" y2="165.0" stroke="black" stroke-width="1" />
  <line x1="147.2243186433546" y1="165.0" x2="147.2243186433546" y2="170.0" stroke="black" stroke-width="1" />
  <line x1="147.2243186433546" y1="170.0" x2="151.55444566227678" y2="172.5" stroke="black" stroke-width="1" />
  <line x1="151.55444566227678" y1="172.5" x2="155.88457268119896" y2="170.0" stroke="black" stroke-width="1" />
  <line x1="155.88457268119896" y1="170.0" x2="160.21469970012114" y2="172.5" stroke="black" stroke-width="1" />
  <line x1="160.21469970012114" y1="172.5" x2="160.21469970012114" y2="177.5" stroke="black" stroke-width="1" />
  <line x1="160.21469970012114" y1="177.5" x2="155.88457268119896" y2="180.0" stroke="black" stroke-width="1" />
  <line x1="155.88457268119896" y1="180.0" x2="155.88457268119896" y2="185.0" stroke="black" stroke-width="1" />
  <line x1="155.88457268119896" y1="185.0" x2="160.21469970012114" y2="187.5" stroke="black" stroke-width="1" />
  <line x1="160.21469970012114" y1="187.5" x2="164.54482671904333" y2="185.0" stroke="black" stroke-width="1" />
  <line x1="164.54482671904333" y1="185.0" x2="164.54482671904333" y2="180.0" stroke="black" stroke-width="1" />
  <line x1="164.54482671904333" y1="180.0" x2="168.8749537379655" y2="177.5" stroke="black" stroke-width="1" />
  <line x1="168.8749537379655" y1="177.5" x2="173.2050807568877" y2="180.0" stroke="black" stroke-width="1" />
  <line x1="173.2050807568877" y1="180.0" x2="173.2050807568877" y2="185.0" stroke="black" stroke-width="1" />
  <line x1="173.2050807568877" y1="185.0" x2="177.53520777580988" y2="187.5" stroke="black" stroke-width="1" />
  <line x1="177.53520777580988" y1="187.5" x2="181.86533479473206" y2="185.0" stroke="black" stroke-width="1" />
  <line x1="181.86533479473206" y1="185.0" x2="186.19546181365425" y2="187.5" stroke="black" stroke-width="1" />
  <line x1="186.19546181365425" y1="187.5" x2="186.19546181365425" y2="192.5" stroke="black" stroke-width="1" />
  <line x1="186.19546181365425" y1="192.5" x2="181.86533479473206" y2="195.0" stroke="black" stroke-width="1" />
  <line x1="181.86533479473206" y1="195.0" x2="177.53520777580988" y2="192.5" stroke="black" stroke-width="1" />
  <line x1="177.53520777580988" y1="192.5" x2="173.2050807568877" y2="195.0" stroke="black" stroke-width="1" />
  <line x1="173.2050807568877" y1="195.0" x2="173.2050807568877" y2="200.0" stroke="black" stroke-width="1" />
  <line x1="173.2050807568877" y1="200.0" x2="177.53520777580988" y2="202.5" stroke="black" stroke-width="1" />
  <line x1="177.53520777580988" y1="202.5" x2="177.53520777580988" y2="207.5" stroke="black" stroke-width="1" />
  <line x1="177.53520777580988" y1="207.5" x2="173.2050807568877" y2="210.0" stroke="black" stroke-width="1" />
  <line x1="173.2050807568877" y1="210.0" x2="173.2050807568877" y2="215.0" stroke="black" stroke-width="1" />
  <line x1="173.2050807568877" y1="215.0" x2="177.53520777580988" y2="217.5" stroke="black" stroke-width="1" />
  <line x1="177.53520777580988" y1="217.5" x2="181.86533479473206" y2="215.0" stroke="black" stroke-width="1" />
  <line x1="181.86533479473206" y1="215.0" x2="181.86533479473206" y2="210.0" stroke="black" stroke-width="1" />
  <line x1="181.86533479473206" y1="210.0" x2="186.19546181365425" y2="207.5" stroke="black" stroke-width="1" />
  <line x1="186.19546181365425" y1="207.5" x2="190.52558883257643" y2="210.0" stroke="black" stroke-width="1" />
  <line x1="190.52558883257643" y1="210.0" x2="194.85571585149862" y2="207.5" stroke="black" stroke-width="1" />
  <line x1="194.85571585149862" y1="207.5" x2="194.85571585149862" y2="202.5" stroke="black" stroke-width="1" />
  <line x1="194.85571585149862" y1="202.5" x2="190.52558883257643" y2="200.0" stroke="black" stroke-width="1" />
  <line x1="190.52558883257643" y1="200.0" x2="190.52558883257643" y2="195.0" stroke="black" stroke-width="1" />
  <line x1="190.52558883257643" y1="195.0" x2="194.85571585149862" y2="192.5" stroke="black" stroke-width="1" />
  <line x1="194.85571585149862" y1="192.5" x2="199.1858428704208" y2="195.0" stroke="black" stroke-width="1" />
  <line x1="199.1858428704208" y1="195.0" x2="199.1858428704208" y2="200.0" stroke="black" stroke-width="1" />
  <line x1="199.1858428704208" y1="200.0" x2="203.51596988934298" y2="202.5" stroke="black" stroke-width="1" />
  <line x1="203.51596988934298" y1="202.5" x2="207.84609690826517" y2="200.0" stroke="black" stroke-width="1" />
  <line x1="207.84609690826517" y1="200.0" x2="207.84609690826517" y2="195.0" stroke="black" stroke-width="1" />
  <line x1="207.84609690826517" y1="195.0" x2="212.17622392718735" y2="192.5" stroke="black" stroke-width="1" />
  <line x1="212.17622392718735" y1="192.5" x2="216.50635094610954" y2="195.0" stroke="black" stroke-width="1" />
  <line x1="216.50635094610954" y1="195.0" x2="220.83647796503172" y2="192.5" stroke="black" stroke-width="1" />
  <line x1="220.83647796503172" y1="192.5" x2="220.83647796503172" y2="187.5" stroke="black" stroke-width="1" />
  <line x1="220.83647796503172" y1="187.5" x2="216.50635094610954" y2="185.0" stroke="black" stroke-width="1" />
  <line x1="216.50635094610954" y1="185.0" x2="212.17622392718735" y2="187.5" stroke="black" stroke-width="1" />
  <line x1="212.17622392718735" y1="187.5" x2="207.84609690826517" y2="185.0" stroke="black" stroke-width="1" />
  <line x1="207.84609690826517" y1="185.0" x2="207.84609690826517" y2="180.0" stroke="black" stroke-width="1" />
  <line x1="207.84609690826517" y1="180.0" x2="212.17622392718735" y2="177.5" stroke="black" stroke-width="1" />
  <line x1="212.17622392718735" y1="177.5" x2="212.17622392718735" y2="172.5" stroke="black" stroke-width="1" />
  <line x1="212.17622392718735" y1="172.5" x2="207.84609690826517" y2="170.0" stroke="black" stroke-width="1" />
  <line x1="207.84609690826517" y1="170.0" x2="207.84609690826517" y2="165.0" stroke="black" stroke-width="1" />
  <line x1="207.84609690826517" y1="165.0" x2="212.17622392718735" y2="162.5" stroke="black" stroke-width="1" />
  <line x1="212.17622392718735" y1="162.5" x2="216.50635094610954" y2="165.0" stroke="black" stroke-width="1" />
  <line x1="216.50635094610954" y1="165.0" x2="216.50635094610954" y2="170.0" stroke="black" stroke-width="1" />
  <line x1="216.50635094610954" y1="170.0" x2="220.83647796503172" y2="172.5" stroke="black" stroke-width="1" />
  <line x1="220.83647796503172" y1="172.5" x2="225.1666049839539" y2="170.0" stroke="black" stroke-width="1" />
  <line x1="225.1666049839539" y1="170.0" x2="229.4967320028761" y2="172.5" stroke="black" stroke-width="1" />
  <line x1="229.4967320028761" y1="172.5" x2="229.4967320028761" y2="177.5" stroke="black" stroke-width="1" />
  <line x1="229.4967320028761" y1="177.5" x2="225.1666049839539" y2="180.0" stroke="black" stroke-width="1" />
  <line x1="225.1666049839539" y1="180.0" x2="225.1666049839539" y2="185.0" stroke="black" stroke-width="1" />
  <line x1="225.1666049839539" y1="185.0" x2="229.4967320028761" y2="187.5" stroke="black" stroke-width="1" />
  <line x1="229.4967320028761" y1="187.5" x2="233.82685902179827" y2="185.0" stroke="black" stroke-width="1" />
  <line x1="233.82685902179827" y1="185.0" x2="233.82685902179827" y2="180.0" stroke="black" stroke-width="1" />
  <line x1="233.82685902179827" y1="180.0" x2="238.15698604072045" y2="177.5" stroke="black" stroke-width="1" />
  <line x1="238.15698604072045" y1="177.5" x2="242.48711305964264" y2="180.0" stroke="black" stroke-width="1" />
  <line x1="242.48711305964264" y1="180.0" x2="246.81724007856482" y2="177.5" stroke="black" stroke-width="1" />
  <line x1="246.81724007856482" y1="177.5" x2="246.81724007856482" y2="172.5" stroke="black" stroke-width="1" />
  <line x1="246.81724007856482" y1="172.5" x2="242.48711305964264" y2="170.0" stroke="black" stroke-width="1" />
  <line x1="242.48711305964264" y1="170.0" x2="242.48711305964264" y2="165.0" stroke="black" stroke-width="1" />
  <line x1="242.48711305964264" y1="165.0" x2="246.81724007856482" y2="162.5" stroke="black" stroke-width="1" />
  <line x1="246.81724007856482" y1="162.5" x2="251.147367097487" y2="165.0" stroke="black" stroke-width="1" />
  <line x1="251.147367097487" y1="165.0" x2="251.147367097487" y2="170.0" stroke="black" stroke-width="1" />
  <line x1="251.147367097487" y1="170.0" x2="255.4774941164092" y2="172.5" stroke="black" stroke-width="1" />
  <line x1="255.4774941164092" y1="172.5" x2="259.8076211353314" y2="170.0" stroke="black" stroke-width="1" />
  <line x1="259.8076211353314" y1="170.0" x2="259.8076211353314" y2="165.0" stroke="black" stroke-width="1" />
  <line x1="259.8076211353314" y1="165.0" x2="264.1377481542536" y2="162.5" stroke="black" stroke-width="1" />
  <line x1="264.1377481542536" y1="162.5" x2="268.4678751731758" y2="165.0" stroke="black" stroke-width="1" />
  <line x1="268.4678751731758" y1="165.0" x2="272.798002192098" y2="162.5" stroke="black" stroke-width="1" />
  <line x1="272.798002192098" y1="162.5" x2="272.798002192098" y2="157.5" stroke="black" stroke-width="1" />
  <line x1="272.798002192098" y1="157.5" x2="268.4678751731758" y2="155.0" stroke="black" stroke-width="1" />
  <line x1="268.4678751731758" y1="155.0" x2="264.1377481542536" y2="157.5" stroke="black" stroke-width="1" />
  <line x1="264.1377481542536" y1="157.5" x2="259.8076211353314" y2="155.0" stroke="black" stroke-width="1" />
  <line x1="259.8076211353314" y1="155.0" x2="259.8076211353314" y2="150.0" stroke="black" stroke-width="1" />
  <line x1="259.8076211353314" y1="150.0" x2="255.4774941164092" y2="147.5" stroke="black" stroke-width="1" />
  <line x1="255.4774941164092" y1="147.5" x2="251.147367097487" y2="150.0" stroke="black" stroke-width="1" />
  <line x1="251.147367097487" y1="150.0" x2="251.147367097487" y2="155.0" stroke="black" stroke-width="1" />
  <line x1="251.147367097487" y1="155.0" x2="246.81724007856482" y2="157.5" stroke="black" stroke-width="1" />
  <line x1="246.81724007856482" y1="157.5" x2="242.48711305964264" y2="155.0" stroke="black" stroke-width="1" />
  <line x1="242.48711305964264" y1="155.0" x2="242.48711305964264" y2="150.0" stroke="black" stroke-width="1" />
  <line x1="242.48711305964264" y1="150.0" x2="246.81724007856482" y2="147.5" stroke="black" stroke-width="1" />
  <line x1="246.81724007856482" y1="147.5" x2="246.81724007856482" y2="142.5" stroke="black" stroke-width="1" />
  <line x1="246.81724007856482" y1="142.5" x2="242.48711305964264" y2="140.0" stroke="black" stroke-width="1" />
  <line x1="242.48711305964264" y1="140.0" x2="238.15698604072045" y2="142.5" stroke="black" stroke-width="1" />
  <line x1="238.15698604072045" y1="142.5" x2="233.82685902179827" y2="140.0" stroke="black" stroke-width="1" />
  <line x1="233.82685902179827" y1="140.0" x2="233.82685902179827" y2="135.0" stroke="black" stroke-width="1" />
  <line x1="233.82685902179827" y1="135.0" x2="229.4967320028761" y2="132.5" stroke="black" stroke-width="1" />
  <line x1="229.4967320028761" y1="132.5" x2="225.1666049839539" y2="135.0" stroke="black" stroke-width="1" />
  <line x1="225.1666049839539" y1="135.0" x2="225.1666049839539" y2="140.0" stroke="black" stroke-width="1" />
  <line x1="225.1666049839539" y1="140.0" x2="229.4967320028761" y2="142.5" stroke="black" stroke-width="1" />
  <line x1="229.4967320028761" y1="142.5" x2="229.4967320028761" y2="147.5" stroke="black" stroke-width="1" />
  <line x1="229.4967320028761" y1="147.5" x2="225.1666049839539" y2="150.0" stroke="black" stroke-width="1" />
  <line x1="225.1666049839539" y1="150.0" x2="220.83647796503172" y2="147.5" stroke="black" stroke-width="1" />
  <line x1="220.83647796503172" y1="147.5" x2="216.50635094610954" y2="150.0" stroke="black" stroke-width="1" />
  <line x1="216.50635094610954" y1="150.0" x2="216.50635094610954" y2="155.0" stroke="black" stroke-width="1" />
  <line x1="216.50635094610954" y1="155.0" x2="212.17622392718735" y2="157.5" stroke="black" stroke-width="1" />
  <line x1="212.17622392718735" y1="157.5" x2="207.84609690826517" y2="155.0" stroke="black" stroke-width="1" />
  <line x1="207.84609690826517" y1="155.0" x2="207.84609690826517" y2="150.0" stroke="black" stroke-width="1" />
  <line x1="207.84609690826517" y1="150.0" x2="212.17622392718735" y2="147.5" stroke="black" stroke-width="1" />
  <line x1="212.17622392718735" y1="147.5" x2="212.17622392718735" y2="142.5" stroke="black" stroke-width="1" />
  <line x1="212.17622392718735" y1="142.5" x2="207.84609690826517" y2="140.0" stroke="black" stroke-width="1" />
  <line x1="207.84609690826517" y1="140.0" x2="207.84609690826517" y2="135.0" stroke="black" stroke-width="1" />
  <line x1="207.84609690826517" y1="135.0" x2="212.17622392718735" y2="132.5" stroke="black" stroke-width="1" />
  <line x1="212.17622392718735" y1="132.5" x2="216.50635094610954" y2="135.0" stroke="black" stroke-width="1" />
  <line x1="216.50635094610954" y1="135.0" x2="220.83647796503172" y2="132.5" stroke="black" stroke-width="1" />
  <line x1="220.83647796503172" y1="132.5" x2="220.83647796503172" y2="127.5" stroke="black" stroke-width="1" />
  <line x1="220.83647796503172" y1="127.5" x2="216.50635094610954" y2="125.0" stroke="black" stroke-width="1" />
  <line x1="216.50635094610954" y1="125.0" x2="212.17622392718735" y2="127.5" stroke="black" stroke-width="1" />
  <line x1="212.17622392718735" y1="127.5" x2="207.84609690826517" y2="125.0" stroke="black" stroke-width="1" />
  <line x1="207.84609690826517" y1="125.0" x2="207.84609690826517" y2="120.0" stroke="black" stroke-width="1" />
  <line x1="207.84609690826517" y1="120.0" x2="203.51596988934298" y2="117.5" stroke="black" stroke-width="1" />
  <line x1="203.51596988934298" y1="117.5" x2="199.1858428704208" y2="120.0" stroke="black" stroke-width="1" />
  <line x1="199.1858428704208" y1="120.0" x2="199.1858428704208" y2="125.0" stroke="black" stroke-width="1" />
  <line x1="199.1858428704208" y1="125.0" x2="194.85571585149862" y2="127.5" stroke="black" stroke-width="1" />
  <line x1="194.85571585149862" y1="127.5" x2="190.52558883257643" y2="125.0" stroke="black" stroke-width="1" />
  <line x1="190.52558883257643" y1="125.0" x2="190.52558883257643" y2="120.0" stroke="black" stroke-width="1" />
  <line x1="190.52558883257643" y1="120.0" x2="194.85571585149862" y2="117.5" stroke="black" stroke-width="1" />
  <line x1="194.85571585149862" y1="117.5" x2="194.85571585149862" y2="112.5" stroke="black" stroke-width="1" />
  <line x1="194.85571585149862" y1="112.5" x2="190.52558883257643" y2="110.0" stroke="black" stroke-width="1" />
  <line x1="190.52558883257643" y1="110.0" x2="186.19546181365425" y2="112.5" stroke="black" stroke-width="1" />
  <line x1="186.19546181365425" y1="112.5" x2="181.86533479473206" y2="110.0" stroke="black" stroke-width="1" />
  <line x1="181.86533479473206" y1="110.0" x2="181.86533479473206" y2="105.0" stroke="black" stroke-width="1" />
  <line x1="181.86533479473206" y1="105.0" x2="177.53520777580988" y2="102.5" stroke="black" stroke-width="1" />
  <line x1="177.53520777580988" y1="102.5" x2="173.2050807568877" y2="105.0" stroke="black" stroke-width="1" />
  <line x1="173.2050807568877" y1="105.0" x2="173.2050807568877" y2="110.0" stroke="black" stroke-width="1" />
  <line x1="173.2050807568877" y1="110.0" x2="177.53520777580988" y2="112.5" stroke="black" stroke-width="1" />
  <line x1="177.53520777580988" y1="112.5" x2="177.53520777580988" y2="117.5" stroke="black" stroke-width="1" />
  <line x1="177.53520777580988" y1="117.5" x2="173.2050807568877" y2="120.0" stroke="black" stroke-width="1" />
  <line x1="173.2050807568877" y1="120.0" x2="173.2050807568877" y2="125.0" stroke="black" stroke-width="1" />
  <line x1="173.2050807568877" y1="125.0" x2="177.53520777580988" y2="127.5" stroke="black" stroke-width="1" />
  <line x1="177.53520777580988" y1="127.5" x2="181.86533479473206" y2="125.0" stroke="black" stroke-width="1" />
  <line x1="181.86533479473206" y1="125.0" x2="186.19546181365425" y2="127.5" stroke="black" stroke-width="1" />
  <line x1="186.19546181365425" y1="127.5" x2="186.19546181365425" y2="132.5" stroke="black" stroke-width="1" />
  <line x1="186.19546181365425" y1="132.5" x2="181.86533479473206" y2="135.0" stroke="black" stroke-width="1" />
  <line x1="181.86533479473206" y1="135.0" x2="177.53520777580988" y2="132.5" stroke="black" stroke-width="1" />
  <line x1="177.53520777580988" y1="132.5" x2="173.2050807568877" y2="135.0" stroke="black" stroke-width="1" />
  <line x1="173.2050807568877" y1="135.0" x2="173.2050807568877" y2="140.0" stroke="black" stroke-width="1" />
  <line x1="173.2050807568877" y1="140.0" x2="168.8749537379655" y2="142.5" stroke="black" stroke-width="1" />
  <line x1="168.8749537379655" y1="142.5" x2="164.54482671904333" y2="140.0" stroke="black" stroke-width="1" />
  <line x1="164.54482671904333" y1="140.0" x2="164.54482671904333" y2="135.0" stroke="black" stroke-width="1" />
  <line x1="164.54482671904333" y1="135.0" x2="160.21469970012114" y2="132.5" stroke="black" stroke-width="1" />
  <line x1="160.21469970012114" y1="132.5" x2="155.88457268119896" y2="135.0" stroke="black" stroke-width="1" />
  <line x1="155.88457268119896" y1="135.0" x2="155.88457268119896" y2="140.0" stroke="black" stroke-width="1" />
  <line x1="155.88457268119896" y1="140.0" x2="160.21469970012114" y2="142.5" stroke="black" stroke-width="1" />
  <line x1="160.21469970012114" y1="142.5" x2="160.21469970012114" y2="147.5" stroke="black" stroke-width="1" />
  <line x1="160.21469970012114" y1="147.5" x2="155.88457268119896" y2="150.0" stroke="black" stroke-width="1" />
  <line x1="155.88457268119896" y1="150.0" x2="151.55444566227678" y2="147.5" stroke="black" stroke-width="1" />
  <line x1="151.55444566227678" y1="147.5" x2="147.2243186433546" y2="150.0" stroke="black" stroke-width="1" />
  <line x1="147.2243186433546" y1="150.0" x2="147.2243186433546" y2="155.0" stroke="black" stroke-width="1" />
  <line x1="147.2243186433546" y1="155.0" x2="142.8941916244324" y2="157.5" stroke="black" stroke-width="1" />
  <line x1="142.8941916244324" y1="157.5" x2="138.56406460551023" y2="155.0" stroke="black" stroke-width="1" />
  <line x1="138.56406460551023" y1="155.0" x2="138.56406460551023" y2="150.0" stroke="black" stroke-width="1" />
  <line x1="138.56406460551023" y1="150.0" x2="142.8941916244324" y2="147.5" stroke="black" stroke-width="1" />
  <line x1="142.8941916244324" y1="147.5" x2="142.8941916244324" y2="142.5" stroke="black" stroke-width="1" />
  <line x1="142.8941916244324" y1="142.5" x2="138.56406460551023" y2="140.0" stroke="black" stroke-width="1" />
  <line x1="138.56406460551023" y1="140.0" x2="138.56406460551023" y2="135.0" stroke="black" stroke-width="1" />
  <line x1="138.56406460551023" y1="135.0" x2="142.8941916244324" y2="132.5" stroke="black" stroke-width="1" />
  <line x1="142.8941916244324" y1="132.5" x2="147.2243186433546" y2="135.0" stroke="black" stroke-width="1" />
  <line x1="147.2243186433546" y1="135.0" x2="151.55444566227678" y2="132.5" stroke="black" stroke-width="1" />
  <line x1="151.55444566227678" y1="132.5" x2="151.55444566227678" y2="127.5" stroke="black" stroke-width="1" />
  <line x1="151.55444566227678" y1="127.5" x2="147.2243186433546" y2="125.0" stroke="black" stroke-width="1" />
  <line x1="147.2243186433546" y1="125.0" x2="142.8941916244324" y2="127.5" stroke="black" stroke-width="1" />
  <line x1="142.8941916244324" y1="127.5" x2="138.56406460551023" y2="125.0" stroke="black" stroke-width="1" />
  <line x1="138.56406460551023" y1="125.0" x2="138.56406460551023" y2="120.0" stroke="black" stroke-width="1" />
  <line x1="138.56406460551023" y1="120.0" x2="142.8941916244324" y2="117.5" stroke="black" stroke-width="1" />
  <line x1="142.8941916244324" y1="117.5" x2="142.8941916244324" y2="112.5" stroke="black" stroke-width="1" />
  <line x1="142.8941916244324" y1="112.5" x2="138.56406460551023" y2="110.0" stroke="black" stroke-width="1" />
  <line x1="138.56406460551023" y1="110.0" x2="138.56406460551023" y2="105.0" stroke="black" stroke-width="1" />
  <line x1="138.56406460551023" y1="105.0" x2="142.8941916244324" y2="102.5" stroke="black" stroke-width="1" />
  <line x1="142.8941916244324" y1="102.5" x2="147.2243186433546" y2="105.0" stroke="black" stroke-width="1" />
  <line x1="147.2243186433546" y1="105.0" x2="147.2243186433546" y2="110.0" stroke="black" stroke-width="1" />
  <line x1="147.2243186433546" y1="110.0" x2="151.55444566227678" y2="112.5" stroke="black" stroke-width="1" />
  <line x1="151.55444566227678" y1="112.5" x2="155.88457268119896" y2="110.0" stroke="black" stroke-width="1" />
  <line x1="155.88457268119896" y1="110.0" x2="155.88457268119896" y2="105.0" stroke="black" stroke-width="1" />
  <line x1="155.88457268119896" y1="105.0" x2="160.21469970012114" y2="102.5" stroke="black" stroke-width="1" />
  <line x1="160.21469970012114" y1="102.5" x2="164.54482671904333" y2="105.0" stroke="black" stroke-width="1" />
  <line x1="164.54482671904333" y1="105.0" x2="168.8749537379655" y2="102.5" stroke="black" stroke-width="1" />
  <line x1="168.8749537379655" y1="102.5" x2="168.8749537379655" y2="97.5" stroke="black" stroke-width="1" />
  <line x1="168.8749537379655" y1="97.5" x2="164.54482671904333" y2="95.0" stroke="black" stroke-width="1" />
  <line x1="164.54482671904333" y1="95.0" x2="160.21469970012114" y2="97.5" stroke="black" stroke-width="1" />
  <line x1="160.21469970012114" y1="97.5" x2="155.88457268119896" y2="95.0" stroke="black" stroke-width="1" />
  <line x1="155.88457268119896" y1="95.0" x2="155.88457268119896" y2="90.0" stroke="black" stroke-width="1" />
  <line x1="155.88457268119896" y1="90.0" x2="151.55444566227678" y2="87.5" stroke="black" stroke-width="1" />
  <line x1="151.55444566227678" y1="87.5" x2="147.2243186433546" y2="90.0" stroke="black" stroke-width="1" />
  <line x1="147.2243186433546" y1="90.0" x2="147.2243186433546" y2="95.0" stroke="black" stroke-width="1" />
  <line x1="147.2243186433546" y1="95.0" x2="142.8941916244324" y2="97.5" stroke="black" stroke-width="1" />
  <line x1="142.8941916244324" y1="97.5" x2="138.56406460551023" y2="95.0" stroke="black" stroke-width="1" />
  <line x1="138.56406460551023" y1="95.0" x2="138.56406460551023" y2="90.0" stroke="black" stroke-width="1" />
  <line x1="138.56406460551023" y1="90.0" x2="142.8941916244324" y2="87.5" stroke="black" stroke-width="1" />
  <line x1="142.8941916244324" y1="87.5" x2="142.8941916244324" y2="82.5" stroke="black" stroke-width="1" />
  <line x1="142.8941916244324" y1="82.5" x2="138.56406460551023" y2="80.0" stroke="black" stroke-width="1" />
  <line x1="138.56406460551023" y1="80.0" x2="134.23393758658804" y2="82.5" stroke="black" stroke-width="1" />
  <line x1="134.23393758658804" y1="82.5" x2="129.90381056766586" y2="80.0" stroke="black" stroke-width="1" />
  <line x1="129.90381056766586" y1="80.0" x2="129.90381056766586" y2="75.0" stroke="black" stroke-width="1" />
  <line x1="129.90381056766586" y1="75.0" x2="125.57368354874366" y2="72.5" stroke="black" stroke-width="1" />
  <line x1="125.57368354874366" y1="72.5" x2="121.24355652982146" y2="75.0" stroke="black" stroke-width="1" />
  <line x1="121.24355652982146" y1="75.0" x2="121.24355652982146" y2="80.0" stroke="black" stroke-width="1" />
  <line x1="121.24355652982146" y1="80.0" x2="125.57368354874366" y2="82.5" stroke="black" stroke-width="1" />
  <line x1="125.57368354874366" y1="82.5" x2="125.57368354874366" y2="87.5" stroke="black" stroke-width="1" />
  <line x1="125.57368354874366" y1="87.5" x2="121.24355652982146" y2="90.0" stroke="black" stroke-width="1" />
  <line x1="121.24355652982146" y1="90.0" x2="116.91342951089926" y2="87.5" stroke="black" stroke-width="1" />
  <line x1="116.91342951089926" y1="87.5" x2="112.58330249197707" y2="90.0" stroke="black" stroke-width="1" />
  <line x1="112.58330249197707" y1="90.0" x2="112.58330249197707" y2="95.0" stroke="black" stroke-width="1" />
  <line x1="112.58330249197707" y1="95.0" x2="108.25317547305487" y2="97.5" stroke="black" stroke-width="1" />
  <line x1="108.25317547305487" y1="97.5" x2="103.92304845413267" y2="95.0" stroke="black" stroke-width="1" />
  <line x1="103.92304845413267" y1="95.0" x2="103.92304845413267" y2="90.0" stroke="black" stroke-width="1" />
  <line x1="103.92304845413267" y1="90.0" x2="108.25317547305487" y2="87.5" stroke="black" stroke-width="1" />
  <line x1="108.25317547305487" y1="87.5" x2="108.25317547305487" y2="82.5" stroke="black" stroke-width="1" />
  <line x1="108.25317547305487" y1="82.5" x2="103.92304845413267" y2="80.0" stroke="black" stroke-width="1" />
  <line x1="103.92304845413267" y1="80.0" x2="103.92304845413267" y2="75.0" stroke="black" stroke-width="1" />
  <line x1="103.92304845413267" y1="75.0" x2="108.25317547305487" y2="72.5" stroke="black" stroke-width="1" />
  <line x1="108.25317547305487" y1="72.5" x2="112.58330249197707" y2="75.0" stroke="black" stroke-width="1" />
  <line x1="112.58330249197707" y1="75.0" x2="116.91342951089926" y2="72.5" stroke="black" stroke-width="1" />
  <line x1="116.91342951089926" y1="72.5" x2="116.91342951089926" y2="67.5" stroke="black" stroke-width="1" />
  <line x1="116.91342951089926" y1="67.5" x2="112.58330249197707" y2="65.0" stroke="black" stroke-width="1" />
  <line x1="112.58330249197707" y1="65.0" x2="108.25317547305487" y2="67.5" stroke="black" stroke-width="1" />
  <line x1="108.25317547305487" y1="67.5" x2="103.92304845413267" y2="65.0" stroke="black" stroke-width="1" />
  <line x1="103.92304845413267" y1="65.0" x2="103.92304845413267" y2="60.0" stroke="black" stroke-width="1" />
  <line x1="103.92304845413267" y1="60.0" x2="99.59292143521047" y2="57.5" stroke="black" stroke-width="1" />
  <line x1="99.59292143521047" y1="57.5" x2="95.26279441628827" y2="60.0" stroke="black" stroke-width="1" />
  <line x1="95.26279441628827" y1="60.0" x2="95.26279441628827" y2="65.0" stroke="black" stroke-width="1" />
  <line x1="95.26279441628827" y1="65.0" x2="90.93266739736607" y2="67.5" stroke="black" stroke-width="1" />
  <line x1="90.93266739736607" y1="67.5" x2="86.60254037844388" y2="65.0" stroke="black" stroke-width="1" />
  <line x1="86.60254037844388" y1="65.0" x2="86.60254037844388" y2="60.0" stroke="black" stroke-width="1" />
  <line x1="86.60254037844388" y1="60.0" x2="90.93266739736607" y2="57.5" stroke="black" stroke-width="1" />
  <line x1="90.93266739736607" y1="57.5" x2="90.93266739736607" y2="52.5" stroke="black" stroke-width="1" />
  <line x1="90.93266739736607" y1="52.5" x2="86.60254037844388" y2="50.0" stroke="black" stroke-width="1" />
  <line x1="86.60254037844388" y1="50.0" x2="82.27241335952168" y2="52.5" stroke="black" stroke-width="1" />
  <line x1="82.27241335952168" y1="52.5" x2="77.94228634059948" y2="50.0" stroke="black" stroke-width="1" />
  <line x1="77.94228634059948" y1="50.0" x2="77.94228634059948" y2="45.0" stroke="black" stroke-width="1" />
  <line x1="77.94228634059948" y1="45.0" x2="73.61215932167728" y2="42.5" stroke="black" stroke-width="1" />
  <line x1="73.61215932167728" y1="42.5" x2="69.28203230275508" y2="45.0" stroke="black" stroke-width="1" />
  <line x1="69.28203230275508" y1="45.0" x2="69.28203230275508" y2="50.0" stroke="black" stroke-width="1" />
  <line x1="69.28203230275508" y1="50.0" x2="73.61215932167728" y2="52.5" stroke="black" stroke-width="1" />
  <line x1="73.61215932167728" y1="52.5" x2="73.61215932167728" y2="57.5" stroke="black" stroke-width="1" />
  <line x1="73.61215932167728" y1="57.5" x2="69.28203230275508" y2="60.0" stroke="black" stroke-width="1" />
  <line x1="69.28203230275508" y1="60.0" x2="69.28203230275508" y2="65.0" stroke="black" stroke-width="1" />
  <line x1="69.28203230275508" y1="65.0" x2="73.61215932167728" y2="67.5" stroke="black" stroke-width="1" />
  <line x1="73.61215932167728" y1="67.5" x2="77.94228634059948" y2="65.0" stroke="black" stroke-width="1" />
  <line x1="77.94228634059948" y1="65.0" x2="82.27241335952168" y2="67.5" stroke="black" stroke-width="1" />
  <line x1="82.27241335952168" y1="67.5" x2="82.27241335952168" y2="72.5" stroke="black" stroke-width="1" />
  <line x1="82.27241335952168" y1="72.5" x2="77.94228634059948" y2="75.0" stroke="black" stroke-width="1" />
  <line x1="77.94228634059948" y1="75.0" x2="73.61215932167728" y2="72.5" stroke="black" stroke-width="1" />
  <line x1="73.61215932167728" y1="72.5" x2="69.28203230275508" y2="75.0" stroke="black" stroke-width="1" />
  <line x1="69.28203230275508" y1="75.0" x2="69.28203230275508" y2="80.0" stroke="black" stroke-width="1" />
  <line x1="69.28203230275508" y1="80.0" x2="73.61215932167728" y2="82.5" stroke="black" stroke-width="1" />
  <line x1="73.61215932167728" y1="82.5" x2="73.61215932167728" y2="87.5" stroke="black" stroke-width="1" />
  <line x1="73.61215932167728" y1="87.5" x2="69.28203230275508" y2="90.0" stroke="black" stroke-width="1" />
  <line x1="69.28203230275508" y1="90.0" x2="69.28203230275508" y2="95.0" stroke="black" stroke-width="1" />
  <line x1="69.28203230275508" y1="95.0" x2="73.61215932167728" y2="97.5" stroke="black" stroke-width="1" />
  <line x1="73.61215932167728" y1="97.5" x2="77.94228634059948" y2="95.0" stroke="black" stroke-width="1" />
  <line x1="77.94228634059948" y1="95.0" x2="77.94228634059948" y2="90.0" stroke="black" stroke-width="1" />
  <line x1="77.94228634059948" y1="90.0" x2="82.27241335952168" y2="87.5" stroke="black" stroke-width="1" />
  <line x1="82.27241335952168" y1="87.5" x2="86.60254037844388" y2="90.0" stroke="black" stroke-width="1" />
  <line x1="86.60254037844388" y1="90.0" x2="86.60254037844388" y2="95.0" stroke="black" stroke-width="1" />
  <line x1="86.60254037844388" y1="95.0" x2="90.93266739736607" y2="97.5" stroke="black" stroke-width="1" />
  <line x1="90.93266739736607" y1="97.5" x2="95.26279441628827" y2="95.0" stroke="black" stroke-width="1" />
  <line x1="95.26279441628827" y1="95.0" x2="99.59292143521047" y2="97.5" stroke="black" stroke-width="1" />
  <line x1="99.59292143521047" y1="97.5" x2="99.59292143521047" y2="102.5" stroke="black" stroke-width="1" />
  <line x1="99.59292143521047" y1="102.5" x2="95.26279441628827" y2="105.0" stroke="black" stroke-width="1" />
  <line x1="95.26279441628827" y1="105.0" x2="90.93266739736607" y2="102.5" stroke="black" stroke-width="1" />
  <line x1="90.93266739736607" y1="102.5" x2="86.60254037844388" y2="105.0" stroke="black" stroke-width="1" />
  <line x1="86.60254037844388" y1="105.0" x2="86.60254037844388" y2="110.0" stroke="black" stroke-width="1" />
  <line x1="86.60254037844388" y1="110.0" x2="82.27241335952168" y2="112.5" stroke="black" stroke-width="1" />
  <line x1="82.27241335952168" y1="112.5" x2="77.94228634059948" y2="110.0" stroke="black" stroke-width="1" />
  <line x1="77.94228634059948" y1="110.0" x2="77.94228634059948" y2="105.0" stroke="black" stroke-width="1" />
  <line x1="77.94228634059948" y1="105.0" x2="73.61215932167728" y2="102.5" stroke="black" stroke-width="1" />
  <line x1="73.61215932167728" y1="102.5" x2="69.28203230275508" y2="105.0" stroke="black" stroke-width="1" />
  <line x1="69.28203230275508" y1="105.0" x2="69.28203230275508" y2="110.0" stroke="black" stroke-width="1" />
  <line x1="69.28203230275508" y1="110.0" x2="73.61215932167728" y2="112.5" stroke="black" stroke-width="1" />
  <line x1="73.61215932167728" y1="112.5" x2="73.61215932167728" y2="117.5" stroke="black" stroke-width="1" />
  <line x1="73.61215932167728" y1="117.5" x2="69.28203230275508" y2="120.0" stroke="black" stroke-width="1" />
  <line x1="69.28203230275508" y1="120.0" x2="64.95190528383289" y2="117.5" stroke="black" stroke-width="1" />
  <line x1="64.95190528383289" y1="117.5" x2="60.621778264910695" y2="120.0" stroke="black" stroke-width="1" />
  <line x1="60.621778264910695" y1="120.0" x2="60.621778264910695" y2="125.0" stroke="black" stroke-width="1" />
  <line x1="60.621778264910695" y1="125.0" x2="56.291651245988504" y2="127.5" stroke="black" stroke-width="1" />
  <line x1="56.291651245988504" y1="127.5" x2="51.96152422706631" y2="125.0" stroke="black" stroke-width="1" />
  <line x1="51.96152422706631" y1="125.0" x2="51.96152422706631" y2="120.0" stroke="black" stroke-width="1" />
  <line x1="51.96152422706631" y1="120.0" x2="56.291651245988504" y2="117.5" stroke="black" stroke-width="1" />
  <line x1="56.291651245988504" y1="117.5" x2="56.291651245988504" y2="112.5" stroke="black" stroke-width="1" />
  <line x1="56.291651245988504" y1="112.5" x2="51.96152422706631" y2="110.0" stroke="black" stroke-width="1" />
  <line x1="51.96152422706631" y1="110.0" x2="47.63139720814412" y2="112.5" stroke="black" stroke-width="1" />
  <line x1="47.63139720814412" y1="112.5" x2="43.30127018922193" y2="110.0" stroke="black" stroke-width="1" />
  <line x1="43.30127018922193" y1="110.0" x2="43.30127018922193" y2="105.0" stroke="black" stroke-width="1" />
  <line x1="43.30127018922193" y1="105.0" x2="38.97114317029974" y2="102.5" stroke="black" stroke-width="1" />
  <line x1="38.97114317029974" y1="102.5" x2="34.64101615137755" y2="105.0" stroke="black" stroke-width="1" />
  <line x1="34.64101615137755" y1="105.0" x2="34.64101615137755" y2="110.0" stroke="black" stroke-width="1" />
  <line x1="34.64101615137755" y1="110.0" x2="38.97114317029974" y2="112.5" stroke="black" stroke-width="1" />
  <line x1="38.97114317029974" y1="112.5" x2="38.97114317029974" y2="117.5" stroke="black" stroke-width="1" />
  <line x1="38.97114317029974" y1="117.5" x2="34.64101615137755" y2="120.0" stroke="black" stroke-width="1" />
  <line x1="34.64101615137755" y1="120.0" x2="34.64101615137755" y2="125.0" stroke="black" stroke-width="1" />
  <line x1="34.64101615137755" y1="125.0" x2="38.97114317029974" y2="127.5" stroke="black" stroke-width="1" />
  <line x1="38.97114317029974" y1="127.5" x2="43.30127018922193" y2="125.0" stroke="black" stroke-width="1" />
  <line x1="43.30127018922193" y1="125.0" x2="47.63139720814412" y2="127.5" stroke="black" stroke-width="1" />
  <line x1="47.63139720814412" y1="127.5" x2="47.63139720814412" y2="132.5" stroke="black" stroke-width="1" />
  <line x1="47.63139720814412" y1="132.5" x2="43.30127018922193" y2="135.0" stroke="black" stroke-width="1" />
  <line x1="43.30127018922193" y1="135.0" x2="38.97114317029974" y2="132.5" stroke="black" stroke-width="1" />
  <line x1="38.97114317029974" y1="132.5" x2="34.64101615137755" y2="135.0" stroke="black" stroke-width="1" />
  <line x1="34.64101615137755" y1="135.0" x2="34.64101615137755" y2="140.0" stroke="black" stroke-width="1" />
  <line x1="34.64101615137755" y1="140.0" x2="30.310889132455358" y2="142.5" stroke="black" stroke-width="1" />
  <line x1="30.310889132455358" y1="142.5" x2="25.980762113533164" y2="140.0" stroke="black" stroke-width="1" />
  <line x1="25.980762113533164" y1="140.0" x2="25.980762113533164" y2="135.0" stroke="black" stroke-width="1" />
  <line x1="25.980762113533164" y1="135.0" x2="21.65063509461097" y2="132.5" stroke="black" stroke-width="1" />
  <line x1="21.65063509461097" y1="132.5" x2="17.320508075688778" y2="135.0" stroke="black" stroke-width="1" />
  <line x1="17.320508075688778" y1="135.0" x2="17.320508075688778" y2="140.0" stroke="black" stroke-width="1" />
  <line x1="17.320508075688778" y1="140.0" x2="21.65063509461097" y2="142.5" stroke="black" stroke-width="1" />
  <line x1="21.65063509461097" y1="142.5" x2="21.65063509461097" y2="147.5" stroke="black" stroke-width="1" />
  <line x1="21.65063509461097" y1="147.5" x2="17.320508075688778" y2="150.0" stroke="black" stroke-width="1" />
  <line x1="17.320508075688778" y1="150.0" x2="12.990381056766584" y2="147.5" stroke="black" stroke-width="1" />
  <line x1="12.990381056766584" y1="147.5" x2="8.660254037844393" y2="150.0" stroke="black" stroke-width="1" />
  <line x1="8.660254037844393" y1="150.0" x2="8.660254037844389" y2="155.0" stroke="black" stroke-width="1" />
  <line x1="8.660254037844389" y1="155.0" x2="4.330127018922197" y2="157.5" stroke="black" stroke-width="1" />
  <line x1="4.330127018922197" y1="157.5" x2="3.552713678800501e-15" y2="155.0" stroke="black" stroke-width="1" />
  <line x1="3.552713678800501e-15" y1="155.0" x2="3.858875378587339e-15" y2="150.0" stroke="black" stroke-width="1" />
  <line x1="3.858875378587339e-15" y1="150.0" x2="4.330127018922197" y2="147.5" stroke="black" stroke-width="1" />
  <line x1="4.330127018922197" y1="147.5" x2="4.330127018922197" y2="142.5" stroke="black" stroke-width="1" />
  <line x1="4.330127018922197" y1="142.5" x2="3.552713678800501e-15" y2="140.0" stroke="black" stroke-width="1" />
  <line x1="3.552713678800501e-15" y1="140.0" x2="3.858875378587339e-15" y2="135.0" stroke="black" stroke-width="1" />
  <line x1="3.858875378587339e-15" y1="135.0" x2="4.330127018922197" y2="132.5" stroke="black" stroke-width="1" />
  <line x1="4.330127018922197" y1="132.5" x2="8.660254037844389" y2="135.0" stroke="black" stroke-width="1" />
  <line x1="8.660254037844389" y1="135.0" x2="12.990381056766584" y2="132.5" stroke="black" stroke-width="1" />
  <line x1="12.990381056766584" y1="132.5" x2="12.990381056766584" y2="127.5" stroke="black" stroke-width="1" />
  <line x1="12.990381056766584" y1="127.5" x2="8.660254037844389" y2="125.0" stroke="black" stroke-width="1" />
  <line x1="8.660254037844389" y1="125.0" x2="4.330127018922197" y2="127.5" stroke="black" stroke-width="1" />
  <line x1="4.330127018922197" y1="127.5" x2="3.552713678800501e-15" y2="125.0" stroke="black" stroke-width="1" />
  <line x1="3.552713678800501e-15" y1="125.0" x2="3.858875378587339e-15" y2="120.0" stroke="black" stroke-width="1" />
  <line x1="3.858875378587339e-15" y1="120.0" x2="4.330127018922197" y2="117.5" stroke="black" stroke-width="1" />
  <line x1="4.330127018922197" y1="117.5" x2="4.330127018922197" y2="112.5" stroke="black" stroke-width="1" />
  <line x1="4.330127018922197" y1="112.5" x2="3.552713678800501e-15" y2="110.0" stroke="black" stroke-width="1" />
  <line x1="3.552713678800501e-15" y1="110.0" x2="3.858875378587339e-15" y2="105.0" stroke="black" stroke-width="1" />
  <line x1="3.858875378587339e-15" y1="105.0" x2="4.330127018922197" y2="102.5" stroke="black" stroke-width="1" />
  <line x1="4.330127018922197" y1="102.5" x2="8.660254037844389" y2="105.0" stroke="black" stroke-width="1" />
  <line x1="8.660254037844389" y1="105.0" x2="8.660254037844389" y2="110.0" stroke="black" stroke-width="1" />
  <line x1="8.660254037844389" y1="110.0" x2="12.99038105676658" y2="112.5" stroke="black" stroke-width="1" />
  <line x1="12.99038105676658" y1="112.5" x2="17.320508075688775" y2="110.0" stroke="black" stroke-width="1" />
  <line x1="17.320508075688775" y1="110.0" x2="17.320508075688775" y2="105.0" stroke="black" stroke-width="1" />
  <line x1="17.320508075688775" y1="105.0" x2="21.65063509461097" y2="102.5" stroke="black" stroke-width="1" />
  <line x1="21.65063509461097" y1="102.5" x2="25.98076211353316" y2="105.0" stroke="black" stroke-width="1" />
  <line x1="25.98076211353316" y1="105.0" x2="30.310889132455355" y2="102.5" stroke="black" stroke-width="1" />
  <line x1="30.310889132455355" y1="102.5" x2="30.310889132455355" y2="97.5" stroke="black" stroke-width="1" />
  <line x1="30.310889132455355" y1="97.5" x2="25.98076211353316" y2="95.0" stroke="black" stroke-width="1" />
  <line x1="25.98076211353316" y1="95.0" x2="21.65063509461097" y2="97.5" stroke="black" stroke-width="1" />
  <line x1="21.65063509461097" y1="97.5" x2="17.320508075688775" y2="95.0" stroke="black" stroke-width="1" />
  <line x1="17.320508075688775" y1="95.0" x2="17.320508075688775" y2="90.0" stroke="black" stroke-width="1" />
  <line x1="17.320508075688775" y1="90.0" x2="12.99038105676658" y2="87.5" stroke="black" stroke-width="1" />
  <line x1="12.99038105676658" y1="87.5" x2="8.660254037844389" y2="90.0" stroke="black" stroke-width="1" />
  <line x1="8.660254037844389" y1="90.0" x2="8.660254037844386" y2="95.0" stroke="black" stroke-width="1" />
  <line x1="8.660254037844386" y1="95.0" x2="4.330127018922194" y2="97.5" stroke="black" stroke-width="1" />
  <line x1="4.330127018922194" y1="97.5" x2="0.0" y2="95.0" stroke="black" stroke-width="1" />
  <line x1="0.0" y1="95.0" x2="3.0616169978683826e-16" y2="90.0" stroke="black" stroke-width="1" />
  <line x1="3.0616169978683826e-16" y1="90.0" x2="4.330127018922194" y2="87.5" stroke="black" stroke-width="1" />
  <line x1="4.330127018922194" y1="87.5" x2="4.330127018922194" y2="82.5" stroke="black" stroke-width="1" />
  <line x1="4.330127018922194" y1="82.5" x2="0.0" y2="80.0" stroke="black" stroke-width="1" />
  <line x1="0.0" y1="80.0" x2="3.0616169978683826e-16" y2="75.0" stroke="black" stroke-width="1" />
  <line x1="3.0616169978683826e-16" y1="75.0" x2="4.330127018922194" y2="72.5" stroke="black" stroke-width="1" />
  <line x1="4.330127018922194" y1="72.5" x2="8.660254037844386" y2="75.0" stroke="black" stroke-width="1" />
  <line x1="8.660254037844386" y1="75.0" x2="12.99038105676658" y2="72.5" stroke="black" stroke-width="1" />
  <line x1="12.99038105676658" y1="72.5" x2="12.99038105676658" y2="67.5" stroke="black" stroke-width="1" />
  <line x1="12.99038105676658" y1="67.5" x2="8.660254037844386" y2="65.0" stroke="black" stroke-width="1" />
  <line x1="8.660254037844386" y1="65.0" x2="4.330127018922194" y2="67.5" stroke="black" stroke-width="1" />
  <line x1="4.330127018922194" y1="67.5" x2="0.0" y2="65.0" stroke="black" stroke-width="1" />
  <line x1="0.0" y1="65.0" x2="3.0616169978683826e-16" y2="60.0" stroke="black" stroke-width="1" />
  <line x1="3.0616169978683826e-16" y1="60.0" x2="4.330127018922194" y2="57.5" stroke="black" stroke-width="1" />
  <line x1="4.330127018922194" y1="57.5" x2="4.330127018922194" y2="52.5" stroke="black" stroke-width="1" />
  <line x1="4.330127018922194" y1="52.5" x2="0.0" y2="50.0" stroke="black" stroke-width="1" />
  <line x1="0.0" y1="50.0" x2="3.0616169978683826e-16" y2="45.0" stroke="black" stroke-width="1" />
  <line x1="3.0616169978683826e-16" y1="45.0" x2="4.330127018922194" y2="42.5" stroke="black" stroke-width="1" />
  <line x1="4.330127018922194" y1="42.5" x2="8.660254037844386" y2="45.0" stroke="black" stroke-width="1" />
  <line x1="8.660254037844386" y1="45.0" x2="8.660254037844386" y2="50.0" stroke="black" stroke-width="1" />
  <line x1="8.660254037844386" y1="50.0" x2="12.990381056766577" y2="52.5" stroke="black" stroke-width="1" />
  <line x1="12.990381056766577" y1="52.5" x2="17.32050807568877" y2="50.0" stroke="black" stroke-width="1" />
  <line x1="17.32050807568877" y1="50.0" x2="21.650635094610962" y2="52.5" stroke="black" stroke-width="1" />
  <line x1="21.650635094610962" y1="52.5" x2="21.650635094610962" y2="57.5" stroke="black" stroke-width="1" />
  <line x1="21.650635094610962" y1="57.5" x2="17.32050807568877" y2="60.0" stroke="black" stroke-width="1" />
  <line x1="17.32050807568877" y1="60.0" x2="17.32050807568877" y2="65.0" stroke="black" stroke-width="1" />
  <line x1="17.32050807568877" y1="65.0" x2="21.650635094610962" y2="67.5" stroke="black" stroke-width="1" />
  <line x1="21.650635094610962" y1="67.5" x2="25.980762113533157" y2="65.0" stroke="black" stroke-width="1" />
  <line x1="25.980762113533157" y1="65.0" x2="25.980762113533157" y2="60.0" stroke="black" stroke-width="1" />
  <line x1="25.980762113533157" y1="60.0" x2="30.31088913245535" y2="57.5" stroke="black" stroke-width="1" />
  <line x1="30.31088913245535" y1="57.5" x2="34.64101615137754" y2="60.0" stroke="black" stroke-width="1" />
  <line x1="34.64101615137754" y1="60.0" x2="38.97114317029973" y2="57.5" stroke="black" stroke-width="1" />
  <line x1="38.97114317029973" y1="57.5" x2="38.97114317029973" y2="52.5" stroke="black" stroke-width="1" />
  <line x1="38.97114317029973" y1="52.5" x2="34.64101615137754" y2="50.0" stroke="black" stroke-width="1" />
  <line x1="34.64101615137754" y1="50.0" x2="34.64101615137754" y2="45.0" stroke="black" stroke-width="1" />
  <line x1="34.64101615137754" y1="45.0" x2="38.97114317029973" y2="42.5" stroke="black" stroke-width="1" />
  <line x1="38.97114317029973" y1="42.5" x2="43.301270189221924" y2="45.0" stroke="black" stroke-width="1" />
  <line x1="43.301270189221924" y1="45.0" x2="43.301270189221924" y2="50.0" stroke="black" stroke-width="1" />
  <line x1="43.301270189221924" y1="50.0" x2="47.631397208144115" y2="52.5" stroke="black" stroke-width="1" />
  <line x1="47.631397208144115" y1="52.5" x2="51.961524227066306" y2="50.0" stroke="black" stroke-width="1" />
  <line x1="51.961524227066306" y1="50.0" x2="51.961524227066306" y2="45.0" stroke="black" stroke-width="1" />
  <line x1="51.961524227066306" y1="45.0" x2="56.2916512459885" y2="42.5" stroke="black" stroke-width="1" />
  <line x1="56.2916512459885" y1="42.5" x2="60.62177826491069" y2="45.0" stroke="black" stroke-width="1" />
  <line x1="60.62177826491069" y1="45.0" x2="64.95190528383289" y2="42.5" stroke="black" stroke-width="1" />
  <line x1="64.95190528383289" y1="42.5" x2="64.95190528383289" y2="37.5" stroke="black" stroke-width="1" />
  <line x1="64.95190528383289" y1="37.5" x2="60.621778264910695" y2="35.0" stroke="black" stroke-width="1" />
  <line x1="60.621778264910695" y1="35.0" x2="56.291651245988504" y2="37.5" stroke="black" stroke-width="1" />
  <line x1="56.291651245988504" y1="37.5" x2="51.96152422706631" y2="35.0" stroke="black" stroke-width="1" />
  <line x1="51.96152422706631" y1="35.0" x2="51.96152422706631" y2="30.0" stroke="black" stroke-width="1" />
  <line x1="51.96152422706631" y1="30.0" x2="47.63139720814412" y2="27.5" stroke="black" stroke-width="1" />
  <line x1="47.63139720814412" y1="27.5" x2="43.30127018922193" y2="30.0" stroke="black" stroke-width="1" />
  <line x1="43.30127018922193" y1="30.0" x2="43.30127018922193" y2="35.0" stroke="black" stroke-width="1" />
  <line x1="43.30127018922193" y1="35.0" x2="38.97114317029974" y2="37.5" stroke="black" stroke-width="1" />
  <line x1="38.97114317029974" y1="37.5" x2="34.64101615137755" y2="35.0" stroke="black" stroke-width="1" />
  <line x1="34.64101615137755" y1="35.0" x2="34.64101615137755" y2="30.0" stroke="black" stroke-width="1" />
  <line x1="34.64101615137755" y1="30.0" x2="38.97114317029974" y2="27.5" stroke="black" stroke-width="1" />
  <line x1="38.97114317029974" y1="27.5" x2="38.97114317029974" y2="22.5" stroke="black" stroke-width="1" />
  <line x1="38.97114317029974" y1="22.5" x2="34.64101615137755" y2="20.0" stroke="black" stroke-width="1" />
  <line x1="34.64101615137755" y1="20.0" x2="30.310889132455358" y2="22.5" stroke="black" stroke-width="1" />
  <line x1="30.310889132455358" y1="22.5" x2="25.980762113533164" y2="20.0" stroke="black" stroke-width="1" />
  <line x1="25.980762113533164" y1="20.0" x2="25.980762113533164" y2="15.0" stroke="black" stroke-width="1" />
  <line x1="25.980762113533164" y1="15.0" x2="21.65063509461097" y2="12.5" stroke="black" stroke-width="1" />
  <line x1="21.65063509461097" y1="12.5" x2="17.320508075688778" y2="15.0" stroke="black" stroke-width="1" />
  <line x1="17.320508075688778" y1="15.0" x2="17.320508075688778" y2="20.0" stroke="black" stroke-width="1" />
  <line x1="17.320508075688778" y1="20.0" x2="21.65063509461097" y2="22.5" stroke="black" stroke-width="1" />
  <line x1="21.65063509461097" y1="22.5" x2="21.65063509461097" y2="27.5" stroke="black" stroke-width="1" />
  <line x1="21.65063509461097" y1="27.5" x2="17.320508075688778" y2="30.0" stroke="black" stroke-width="1" />
  <line x1="17.320508075688778" y1="30.0" x2="12.990381056766584" y2="27.5" stroke="black" stroke-width="1" />
  <line x1="12.990381056766584" y1="27.5" x2="8.660254037844393" y2="30.0" stroke="black" stroke-width="1" />
  <line x1="8.660254037844393" y1="30.0" x2="8.660254037844389" y2="35.0" stroke="black" stroke-width="1" />
  <line x1="8.660254037844389" y1="35.0" x2="4.330127018922197" y2="37.5" stroke="black" stroke-width="1" />
  <line x1="4.330127018922197" y1="37.5" x2="3.552713678800501e-15" y2="35.0" stroke="black" stroke-width="1" />
  <line x1="3.552713678800501e-15" y1="35.0" x2="3.858875378587339e-15" y2="30.0" stroke="black" stroke-width="1" />
  <line x1="3.858875378587339e-15" y1="30.0" x2="4.330127018922197" y2="27.5" stroke="black" stroke-width="1" />
  <line x1="4.330127018922197" y1="27.5" x2="4.330127018922197" y2="22.5" stroke="black" stroke-width="1" />
  <line x1="4.330127018922197" y1="22.5" x2="3.552713678800501e-15" y2="20.0" stroke="black" stroke-width="1" />
  <line x1="3.552713678800501e-15" y1="20.0" x2="3.858875378587339e-15" y2="15.0" stroke="black" stroke-width="1" />
  <line x1="3.858875378587339e-15" y1="15.0" x2="4.330127018922197" y2="12.5" stroke="black" stroke-width="1" />
  <line x1="4.330127018922197" y1="12.5" x2="8.660254037844389" y2="15.0" stroke="black" stroke-width="1" />
  <line x1="8.660254037844389" y1="15.0" x2="12.990381056766584" y2="12.5" stroke="black" stroke-width="1" />
  <line x1="12.990381056766584" y1="12.5" x2="12.990381056766584" y2="7.5" stroke="black" stroke-width="1" />
  <line x1="12.990381056766584" y1="7.5" x2="8.660254037844389" y2="5.0" stroke="black" stroke-width="1" />
  <line x1="8.660254037844389" y1="5.0" x2="4.330127018922197" y2="7.5" stroke="black" stroke-width="1" />
  <line x1="4.330127018922197" y1="7.5" x2="3.552713678800501e-15" y2="5.0" stroke="black" stroke-width="1" />
  <line x1="3.552713678800501e-15" y1="5.0" x2="3.858875378587339e-15" y2="0.0" stroke="black" stroke-width="1" />
</svg>
