<?xml version="1.0" encoding="UTF-8" ?>
<svg xmlns="http://www.w3.org/2000/svg" version="1.1" width="125.31088913245534" height="227.99038105676655">
  <line x1="91.65063509461095" y1="227.99038105676655" x2="91.65063509461095" y2="222.99038105676655" stroke="rgb(64,0,0)" stroke-width="2.0" />
  <line x1="91.65063509461095" y1="222.99038105676655" x2="94.15063509461095" y2="218.66025403784437" stroke="rgb(64,48,0)" stroke-width="1.75" />
  <line x1="91.65063509461095" y1="222.99038105676655" x2="91.65063509461095" y2="217.99038105676655" stroke="rgb(64,0,0)" stroke-width="2.0" />
  <line x1="91.65063509461095" y1="217.99038105676655" x2="94.15063509461095" y2="213.66025403784437" stroke="rgb(64,48,0)" stroke-width="1.75" />
  <line x1="94.15063509461095" y1="213.66025403784437" x2="98.48076211353315" y2="211.16025403784437" stroke="rgb(64,96,0)" stroke-width="1.5" />
  <line x1="94.15063509461095" y1="213.66025403784437" x2="96.65063509461095" y2="209.33012701892216" stroke="rgb(64,48,0)" stroke-width="1.75" />
  <line x1="96.65063509461095" y1="209.33012701892216" x2="96.65063509461095" y2="204.33012701892216" stroke="rgb(64,192,0)" stroke-width="1.5" />
  <line x1="96.65063509461095" y1="209.33012701892216" x2="99.15063509461095" y2="204.99999999999997" stroke="rgb(64,48,0)" stroke-width="1.75" />
  <line x1="91.65063509461095" y1="217.99038105676655" x2="91.65063509461095" y2="212.99038105676655" stroke="rgb(64,0,0)" stroke-width="2.0" />
  <line x1="91.65063509461095" y1="212.99038105676655" x2="89.15063509461095" y2="208.66025403784437" stroke="rgb(64,48,0)" stroke-width="1.75" />
  <line x1="91.65063509461095" y1="212.99038105676655" x2="91.65063509461095" y2="207.99038105676655" stroke="rgb(64,0,0)" stroke-width="2.0" />
  <line x1="91.65063509461095" y1="207.99038105676655" x2="89.15063509461095" y2="203.66025403784437" stroke="rgb(64,48,0)" stroke-width="1.75" />
  <line x1="89.15063509461095" y1="203.66025403784437" x2="89.15063509461095" y2="198.66025403784437" stroke="rgb(64,255,0)" stroke-width="1.5" />
  <line x1="89.15063509461095" y1="203.66025403784437" x2="86.65063509461095" y2="199.33012701892216" stroke="rgb(64,48,0)" stroke-width="1.75" />
  <line x1="91.65063509461095" y1="207.99038105676655" x2="91.65063509461095" y2="202.99038105676655" stroke="rgb(64,0,0)" stroke-width="2.0" />
  <line x1="91.65063509461095" y1="202.99038105676655" x2="94.15063509461095" y2="198.66025403784437" stroke="rgb(64,48,0)" stroke-width="1.75" />
  <line x1="91.65063509461095" y1="202.99038105676655" x2="91.65063509461095" y2="197.99038105676655" stroke="rgb(64,0,0)" stroke-width="2.0" />
  <line x1="91.65063509461095" y1="197.99038105676655" x2="89.15063509461095" y2="193.66025403784437" stroke="rgb(64,48,0)" stroke-width="1.75" />
  <line x1="89.15063509461095" y1="193.66025403784437" x2="84.82050807568876" y2="191.16025403784437" stroke="rgb(64,96,0)" stroke-width="1.5" />
  <line x1="89.15063509461095" y1="193.66025403784437" x2="86.65063509461095" y2="189.33012701892216" stroke="rgb(64,48,0)" stroke-width="1.75" />
  <line x1="86.65063509461095" y1="189.33012701892216" x2="86.65063509461095" y2="184.33012701892216" stroke="rgb(64,192,0)" stroke-width="1.5" />
  <line x1="86.65063509461095" y1="184.33012701892216" x2="84.15063509461095" y2="179.99999999999997" stroke="rgb(64,144,0)" stroke-width="1.25" />
  <line x1="86.65063509461095" y1="184.33012701892216" x2="86.65063509461095" y2="179.33012701892216" stroke="rgb(64,96,0)" stroke-width="1.5" />
  <line x1="86.65063509461095" y1="189.33012701892216" x2="84.15063509461095" y2="184.99999999999997" stroke="rgb(64,48,0)" stroke-width="1.75" />
  <line x1="84.15063509461095" y1="184.99999999999997" x2="84.15063509461095" y2="179.99999999999997" stroke="rgb(64,96,0)" stroke-width="1.5" />
  <line x1="84.15063509461095" y1="184.99999999999997" x2="81.65063509461095" y2="180.6698729810778" stroke="rgb(64,48,0)" stroke-width="1.75" />
  <line x1="81.65063509461095" y1="180.6698729810778" x2="77.32050807568876" y2="178.1698729810778" stroke="rgb(64,96,0)" stroke-width="1.5" />
  <line x1="77.32050807568876" y1="178.1698729810778" x2="72.32050807568876" y2="178.1698729810778" stroke="rgb(64,255,0)" stroke-width="1.25" />
  <line x1="77.32050807568876" y1="178.1698729810778" x2="72.99038105676657" y2="175.6698729810778" stroke="rgb(64,96,0)" stroke-width="1.5" />
  <line x1="81.65063509461095" y1="180.6698729810778" x2="79.15063509461095" y2="176.3397459621556" stroke="rgb(64,48,0)" stroke-width="1.75" />
  <line x1="79.15063509461095" y1="176.3397459621556" x2="79.15063509461095" y2="171.3397459621556" stroke="rgb(64,96,0)" stroke-width="1.5" />
  <line x1="79.15063509461095" y1="176.3397459621556" x2="76.65063509461095" y2="172.00961894323342" stroke="rgb(64,48,0)" stroke-width="1.75" />
  <line x1="91.65063509461095" y1="197.99038105676655" x2="91.65063509461095" y2="192.99038105676655" stroke="rgb(64,0,0)" stroke-width="2.0" />
  <line x1="91.65063509461095" y1="192.99038105676655" x2="94.15063509461095" y2="188.66025403784437" stroke="rgb(64,48,0)" stroke-width="1.75" />
  <line x1="91.65063509461095" y1="192.99038105676655" x2="91.65063509461095" y2="187.99038105676655" stroke="rgb(64,0,0)" stroke-width="2.0" />
  <line x1="91.65063509461095" y1="187.99038105676655" x2="89.15063509461095" y2="183.66025403784437" stroke="rgb(64,48,0)" stroke-width="1.75" />
  <line x1="89.15063509461095" y1="183.66025403784437" x2="84.82050807568876" y2="181.16025403784437" stroke="rgb(64,96,0)" stroke-width="1.5" />
  <line x1="89.15063509461095" y1="183.66025403784437" x2="86.65063509461095" y2="179.33012701892216" stroke="rgb(64,48,0)" stroke-width="1.75" />
  <line x1="91.65063509461095" y1="187.99038105676655" x2="91.65063509461095" y2="182.99038105676655" stroke="rgb(64,0,0)" stroke-width="2.0" />
  <line x1="91.65063509461095" y1="182.99038105676655" x2="89.15063509461095" y2="178.66025403784437" stroke="rgb(64,48,0)" stroke-width="1.75" />
  <line x1="91.65063509461095" y1="182.99038105676655" x2="91.65063509461095" y2="177.99038105676655" stroke="rgb(64,0,0)" stroke-width="2.0" />
  <line x1="91.65063509461095" y1="177.99038105676655" x2="94.15063509461095" y2="173.66025403784437" stroke="rgb(64,48,0)" stroke-width="1.75" />
  <line x1="94.15063509461095" y1="173.66025403784437" x2="98.48076211353315" y2="171.16025403784437" stroke="rgb(64,96,0)" stroke-width="1.5" />
  <line x1="94.15063509461095" y1="173.66025403784437" x2="96.65063509461095" y2="169.33012701892216" stroke="rgb(64,48,0)" stroke-width="1.75" />
  <line x1="96.65063509461095" y1="169.33012701892216" x2="96.65063509461095" y2="164.33012701892216" stroke="rgb(64,96,0)" stroke-width="1.5" />
  <line x1="96.65063509461095" y1="169.33012701892216" x2="99.15063509461095" y2="164.99999999999997" stroke="rgb(64,48,0)" stroke-width="1.75" />
  <line x1="99.15063509461095" y1="164.99999999999997" x2="103.48076211353315" y2="162.5" stroke="rgb(64,128,0)" stroke-width="1.5" />
  <line x1="103.48076211353315" y1="162.5" x2="105.98076211353315" y2="158.1698729810778" stroke="rgb(64,255,0)" stroke-width="1.25" />
  <line x1="103.48076211353315" y1="162.5" x2="107.81088913245534" y2="160.0" stroke="rgb(64,96,0)" stroke-width="1.5" />
  <line x1="99.15063509461095" y1="164.99999999999997" x2="101.65063509461095" y2="160.6698729810778" stroke="rgb(64,48,0)" stroke-width="1.75" />
  <line x1="101.65063509461095" y1="160.6698729810778" x2="101.65063509461095" y2="155.6698729810778" stroke="rgb(64,128,0)" stroke-width="1.5" />
  <line x1="101.65063509461095" y1="160.6698729810778" x2="104.15063509461095" y2="156.33974596215558" stroke="rgb(64,48,0)" stroke-width="1.75" />
  <line x1="104.15063509461095" y1="156.33974596215558" x2="104.15063509461095" y2="151.33974596215558" stroke="rgb(64,96,0)" stroke-width="1.5" />
  <line x1="104.15063509461095" y1="151.33974596215558" x2="106.65063509461095" y2="147.0096189432334" stroke="rgb(64,144,0)" stroke-width="1.25" />
  <line x1="104.15063509461095" y1="151.33974596215558" x2="104.15063509461095" y2="146.33974596215558" stroke="rgb(64,96,0)" stroke-width="1.5" />
  <line x1="104.15063509461095" y1="156.33974596215558" x2="106.65063509461095" y2="152.0096189432334" stroke="rgb(64,48,0)" stroke-width="1.75" />
  <line x1="106.65063509461095" y1="152.0096189432334" x2="110.98076211353315" y2="149.5096189432334" stroke="rgb(64,96,0)" stroke-width="1.5" />
  <line x1="106.65063509461095" y1="152.0096189432334" x2="109.15063509461095" y2="147.6794919243112" stroke="rgb(64,48,0)" stroke-width="1.75" />
  <line x1="109.15063509461095" y1="147.6794919243112" x2="109.15063509461095" y2="142.6794919243112" stroke="rgb(64,128,0)" stroke-width="1.5" />
  <line x1="109.15063509461095" y1="142.6794919243112" x2="111.65063509461095" y2="138.349364905389" stroke="rgb(64,192,0)" stroke-width="1.25" />
  <line x1="109.15063509461095" y1="142.6794919243112" x2="109.15063509461095" y2="137.6794919243112" stroke="rgb(64,96,0)" stroke-width="1.5" />
  <line x1="109.15063509461095" y1="137.6794919243112" x2="106.65063509461095" y2="133.349364905389" stroke="rgb(64,144,0)" stroke-width="1.25" />
  <line x1="109.15063509461095" y1="137.6794919243112" x2="109.15063509461095" y2="132.6794919243112" stroke="rgb(64,96,0)" stroke-width="1.5" />
  <line x1="109.15063509461095" y1="132.6794919243112" x2="106.65063509461095" y2="128.349364905389" stroke="rgb(64,128,0)" stroke-width="1.25" />
  <line x1="106.65063509461095" y1="128.349364905389" x2="106.65063509461095" y2="123.349364905389" stroke="rgb(64,192,0)" stroke-width="1.0" />
  <line x1="106.65063509461095" y1="128.349364905389" x2="104.15063509461095" y2="124.0192378864668" stroke="rgb(64,144,0)" stroke-width="1.25" />
  <line x1="104.15063509461095" y1="124.0192378864668" x2="99.82050807568876" y2="121.5192378864668" stroke="rgb(64,255,0)" stroke-width="1.0" />
  <line x1="104.15063509461095" y1="124.0192378864668" x2="101.65063509461095" y2="119.6891108675446" stroke="rgb(64,144,0)" stroke-width="1.25" />
  <line x1="109.15063509461095" y1="132.6794919243112" x2="109.15063509461095" y2="127.6794919243112" stroke="rgb(64,96,0)" stroke-width="1.5" />
  <line x1="109.15063509461095" y1="127.6794919243112" x2="111.65063509461095" y2="123.349364905389" stroke="rgb(64,144,0)" stroke-width="1.25" />
  <line x1="109.15063509461095" y1="127.6794919243112" x2="109.15063509461095" y2="122.6794919243112" stroke="rgb(64,96,0)" stroke-width="1.5" />
  <line x1="109.15063509461095" y1="122.6794919243112" x2="106.65063509461095" y2="118.349364905389" stroke="rgb(64,128,0)" stroke-width="1.25" />
  <line x1="109.15063509461095" y1="122.6794919243112" x2="109.15063509461095" y2="117.6794919243112" stroke="rgb(64,96,0)" stroke-width="1.5" />
  <line x1="109.15063509461095" y1="147.6794919243112" x2="111.65063509461095" y2="143.349364905389" stroke="rgb(64,48,0)" stroke-width="1.75" />
  <line x1="111.65063509461095" y1="143.349364905389" x2="111.65063509461095" y2="138.349364905389" stroke="rgb(64,96,0)" stroke-width="1.5" />
  <line x1="111.65063509461095" y1="143.349364905389" x2="114.15063509461095" y2="139.01923788646678" stroke="rgb(64,48,0)" stroke-width="1.75" />
  <line x1="114.15063509461095" y1="139.01923788646678" x2="118.48076211353315" y2="136.51923788646678" stroke="rgb(64,96,0)" stroke-width="1.5" />
  <line x1="118.48076211353315" y1="136.51923788646678" x2="123.48076211353315" y2="136.51923788646678" stroke="rgb(64,144,0)" stroke-width="1.25" />
  <line x1="118.48076211353315" y1="136.51923788646678" x2="122.81088913245534" y2="134.01923788646678" stroke="rgb(64,96,0)" stroke-width="1.5" />
  <line x1="114.15063509461095" y1="139.01923788646678" x2="116.65063509461095" y2="134.6891108675446" stroke="rgb(64,48,0)" stroke-width="1.75" />
  <line x1="116.65063509461095" y1="134.6891108675446" x2="116.65063509461095" y2="129.6891108675446" stroke="rgb(64,255,0)" stroke-width="1.5" />
  <line x1="116.65063509461095" y1="134.6891108675446" x2="119.15063509461095" y2="130.35898384862242" stroke="rgb(64,48,0)" stroke-width="1.75" />
  <line x1="119.15063509461095" y1="130.35898384862242" x2="119.15063509461095" y2="125.3589838486224" stroke="rgb(64,96,0)" stroke-width="1.5" />
  <line x1="119.15063509461095" y1="125.3589838486224" x2="116.65063509461095" y2="121.0288568297002" stroke="rgb(64,144,0)" stroke-width="1.25" />
  <line x1="119.15063509461095" y1="125.3589838486224" x2="119.15063509461095" y2="120.3589838486224" stroke="rgb(64,96,0)" stroke-width="1.5" />
  <line x1="119.15063509461095" y1="130.35898384862242" x2="121.65063509461095" y2="126.0288568297002" stroke="rgb(64,48,0)" stroke-width="1.75" />
  <line x1="121.65063509461095" y1="126.0288568297002" x2="121.65063509461095" y2="121.0288568297002" stroke="rgb(64,192,0)" stroke-width="1.5" />
  <line x1="121.65063509461095" y1="126.0288568297002" x2="124.15063509461095" y2="121.698729810778" stroke="rgb(64,48,0)" stroke-width="1.75" />
  <line x1="91.65063509461095" y1="177.99038105676655" x2="91.65063509461095" y2="172.99038105676655" stroke="rgb(64,0,0)" stroke-width="2.0" />
  <line x1="91.65063509461095" y1="172.99038105676655" x2="94.15063509461095" y2="168.66025403784437" stroke="rgb(64,48,0)" stroke-width="1.75" />
  <line x1="91.65063509461095" y1="172.99038105676655" x2="91.65063509461095" y2="167.99038105676655" stroke="rgb(64,0,0)" stroke-width="2.0" />
  <line x1="91.65063509461095" y1="167.99038105676655" x2="94.15063509461095" y2="163.66025403784437" stroke="rgb(64,48,0)" stroke-width="1.75" />
  <line x1="94.15063509461095" y1="163.66025403784437" x2="98.48076211353315" y2="161.16025403784437" stroke="rgb(64,96,0)" stroke-width="1.5" />
  <line x1="94.15063509461095" y1="163.66025403784437" x2="96.65063509461095" y2="159.33012701892216" stroke="rgb(64,48,0)" stroke-width="1.75" />
  <line x1="96.65063509461095" y1="159.33012701892216" x2="96.65063509461095" y2="154.33012701892216" stroke="rgb(64,96,0)" stroke-width="1.5" />
  <line x1="96.65063509461095" y1="159.33012701892216" x2="99.15063509461095" y2="154.99999999999994" stroke="rgb(64,48,0)" stroke-width="1.75" />
  <line x1="91.65063509461095" y1="167.99038105676655" x2="91.65063509461095" y2="162.99038105676655" stroke="rgb(64,0,0)" stroke-width="2.0" />
  <line x1="91.65063509461095" y1="162.99038105676655" x2="89.15063509461095" y2="158.66025403784437" stroke="rgb(64,48,0)" stroke-width="1.75" />
  <line x1="91.65063509461095" y1="162.99038105676655" x2="91.65063509461095" y2="157.99038105676655" stroke="rgb(64,0,0)" stroke-width="2.0" />
  <line x1="91.65063509461095" y1="157.99038105676655" x2="94.15063509461095" y2="153.66025403784437" stroke="rgb(64,48,0)" stroke-width="1.75" />
  <line x1="94.15063509461095" y1="153.66025403784437" x2="98.48076211353315" y2="151.16025403784437" stroke="rgb(64,96,0)" stroke-width="1.5" />
  <line x1="94.15063509461095" y1="153.66025403784437" x2="96.65063509461095" y2="149.33012701892216" stroke="rgb(64,48,0)" stroke-width="1.75" />
  <line x1="96.65063509461095" y1="149.33012701892216" x2="100.98076211353315" y2="146.83012701892216" stroke="rgb(64,255,0)" stroke-width="1.5" />
  <line x1="100.98076211353315" y1="146.83012701892216" x2="105.98076211353315" y2="146.83012701892216" stroke="rgb(64,144,0)" stroke-width="1.25" />
  <line x1="100.98076211353315" y1="146.83012701892216" x2="105.31088913245534" y2="144.33012701892216" stroke="rgb(64,96,0)" stroke-width="1.5" />
  <line x1="96.65063509461095" y1="149.33012701892216" x2="99.15063509461095" y2="144.99999999999994" stroke="rgb(64,48,0)" stroke-width="1.75" />
  <line x1="99.15063509461095" y1="144.99999999999994" x2="103.48076211353315" y2="142.49999999999994" stroke="rgb(64,96,0)" stroke-width="1.5" />
  <line x1="99.15063509461095" y1="144.99999999999994" x2="101.65063509461095" y2="140.66987298107776" stroke="rgb(64,48,0)" stroke-width="1.75" />
  <line x1="101.65063509461095" y1="140.66987298107776" x2="101.65063509461095" y2="135.66987298107776" stroke="rgb(64,96,0)" stroke-width="1.5" />
  <line x1="101.65063509461095" y1="140.66987298107776" x2="104.15063509461095" y2="136.33974596215558" stroke="rgb(64,48,0)" stroke-width="1.75" />
  <line x1="91.65063509461095" y1="157.99038105676655" x2="91.65063509461095" y2="152.99038105676655" stroke="rgb(64,0,0)" stroke-width="2.0" />
  <line x1="91.65063509461095" y1="152.99038105676655" x2="94.15063509461095" y2="148.66025403784437" stroke="rgb(64,48,0)" stroke-width="1.75" />
  <line x1="91.65063509461095" y1="152.99038105676655" x2="91.65063509461095" y2="147.99038105676655" stroke="rgb(64,0,0)" stroke-width="2.0" />
  <line x1="91.65063509461095" y1="147.99038105676655" x2="89.15063509461095" y2="143.66025403784437" stroke="rgb(64,48,0)" stroke-width="1.75" />
  <line x1="89.15063509461095" y1="143.66025403784437" x2="89.15063509461095" y2="138.66025403784437" stroke="rgb(64,96,0)" stroke-width="1.5" />
  <line x1="89.15063509461095" y1="143.66025403784437" x2="86.65063509461095" y2="139.33012701892216" stroke="rgb(64,48,0)" stroke-width="1.75" />
  <line x1="91.65063509461095" y1="147.99038105676655" x2="91.65063509461095" y2="142.99038105676655" stroke="rgb(64,0,0)" stroke-width="2.0" />
  <line x1="91.65063509461095" y1="142.99038105676655" x2="94.15063509461095" y2="138.66025403784437" stroke="rgb(64,48,0)" stroke-width="1.75" />
  <line x1="91.65063509461095" y1="142.99038105676655" x2="91.65063509461095" y2="137.99038105676655" stroke="rgb(64,0,0)" stroke-width="2.0" />
  <line x1="91.65063509461095" y1="137.99038105676655" x2="89.15063509461095" y2="133.66025403784437" stroke="rgb(64,48,0)" stroke-width="1.75" />
  <line x1="91.65063509461095" y1="137.99038105676655" x2="91.65063509461095" y2="132.99038105676655" stroke="rgb(64,0,0)" stroke-width="2.0" />
  <line x1="91.65063509461095" y1="132.99038105676655" x2="89.15063509461095" y2="128.66025403784437" stroke="rgb(64,48,0)" stroke-width="1.75" />
  <line x1="89.15063509461095" y1="128.66025403784437" x2="89.15063509461095" y2="123.66025403784435" stroke="rgb(64,96,0)" stroke-width="1.5" />
  <line x1="89.15063509461095" y1="128.66025403784437" x2="86.65063509461095" y2="124.33012701892216" stroke="rgb(64,48,0)" stroke-width="1.75" />
  <line x1="86.65063509461095" y1="124.33012701892216" x2="86.65063509461095" y2="119.33012701892216" stroke="rgb(64,96,0)" stroke-width="1.5" />
  <line x1="86.65063509461095" y1="119.33012701892216" x2="84.15063509461096" y2="114.99999999999996" stroke="rgb(64,255,0)" stroke-width="1.25" />
  <line x1="86.65063509461095" y1="119.33012701892216" x2="86.65063509461095" y2="114.33012701892216" stroke="rgb(64,128,0)" stroke-width="1.5" />
  <line x1="86.65063509461095" y1="124.33012701892216" x2="84.15063509461096" y2="119.99999999999996" stroke="rgb(64,48,0)" stroke-width="1.75" />
  <line x1="84.15063509461096" y1="119.99999999999996" x2="79.82050807568876" y2="117.49999999999996" stroke="rgb(64,255,0)" stroke-width="1.5" />
  <line x1="84.15063509461096" y1="119.99999999999996" x2="81.65063509461096" y2="115.66987298107776" stroke="rgb(64,48,0)" stroke-width="1.75" />
  <line x1="81.65063509461096" y1="115.66987298107776" x2="77.32050807568876" y2="113.16987298107776" stroke="rgb(64,128,0)" stroke-width="1.5" />
  <line x1="77.32050807568876" y1="113.16987298107776" x2="72.32050807568876" y2="113.16987298107776" stroke="rgb(64,144,0)" stroke-width="1.25" />
  <line x1="77.32050807568876" y1="113.16987298107776" x2="72.99038105676657" y2="110.66987298107776" stroke="rgb(64,96,0)" stroke-width="1.5" />
  <line x1="81.65063509461096" y1="115.66987298107776" x2="79.15063509461096" y2="111.33974596215556" stroke="rgb(64,48,0)" stroke-width="1.75" />
  <line x1="79.15063509461096" y1="111.33974596215556" x2="74.82050807568876" y2="108.83974596215556" stroke="rgb(64,128,0)" stroke-width="1.5" />
  <line x1="79.15063509461096" y1="111.33974596215556" x2="76.65063509461096" y2="107.00961894323336" stroke="rgb(64,48,0)" stroke-width="1.75" />
  <line x1="76.65063509461096" y1="107.00961894323336" x2="72.32050807568876" y2="104.50961894323336" stroke="rgb(64,128,0)" stroke-width="1.5" />
  <line x1="72.32050807568876" y1="104.50961894323336" x2="67.32050807568876" y2="104.50961894323336" stroke="rgb(64,144,0)" stroke-width="1.25" />
  <line x1="72.32050807568876" y1="104.50961894323336" x2="67.99038105676657" y2="102.00961894323336" stroke="rgb(64,96,0)" stroke-width="1.5" />
  <line x1="67.99038105676657" y1="102.00961894323336" x2="65.49038105676657" y2="97.67949192431118" stroke="rgb(64,144,0)" stroke-width="1.25" />
  <line x1="65.49038105676657" y1="97.67949192431118" x2="61.160254037844375" y2="95.17949192431118" stroke="rgb(64,128,0)" stroke-width="1.0" />
  <line x1="65.49038105676657" y1="97.67949192431118" x2="62.990381056766566" y2="93.349364905389" stroke="rgb(64,144,0)" stroke-width="1.25" />
  <line x1="67.99038105676657" y1="102.00961894323336" x2="63.660254037844375" y2="99.50961894323336" stroke="rgb(64,192,0)" stroke-width="1.5" />
  <line x1="63.660254037844375" y1="99.50961894323336" x2="58.660254037844375" y2="99.50961894323336" stroke="rgb(64,255,0)" stroke-width="1.25" />
  <line x1="63.660254037844375" y1="99.50961894323336" x2="59.330127018922184" y2="97.00961894323336" stroke="rgb(64,96,0)" stroke-width="1.5" />
  <line x1="59.330127018922184" y1="97.00961894323336" x2="54.330127018922184" y2="97.00961894323336" stroke="rgb(64,192,0)" stroke-width="1.25" />
  <line x1="54.330127018922184" y1="97.00961894323336" x2="49.99999999999999" y2="94.50961894323336" stroke="rgb(64,255,0)" stroke-width="1.0" />
  <line x1="54.330127018922184" y1="97.00961894323336" x2="49.330127018922184" y2="97.00961894323336" stroke="rgb(64,192,0)" stroke-width="1.25" />
  <line x1="59.330127018922184" y1="97.00961894323336" x2="54.99999999999999" y2="94.50961894323336" stroke="rgb(64,96,0)" stroke-width="1.5" />
  <line x1="54.99999999999999" y1="94.50961894323336" x2="52.49999999999999" y2="90.17949192431118" stroke="rgb(64,128,0)" stroke-width="1.25" />
  <line x1="54.99999999999999" y1="94.50961894323336" x2="50.6698729810778" y2="92.00961894323336" stroke="rgb(64,96,0)" stroke-width="1.5" />
  <line x1="76.65063509461096" y1="107.00961894323336" x2="74.15063509461096" y2="102.67949192431117" stroke="rgb(64,48,0)" stroke-width="1.75" />
  <line x1="74.15063509461096" y1="102.67949192431117" x2="74.15063509461096" y2="97.67949192431118" stroke="rgb(64,96,0)" stroke-width="1.5" />
  <line x1="74.15063509461096" y1="102.67949192431117" x2="71.65063509461096" y2="98.34936490538897" stroke="rgb(64,48,0)" stroke-width="1.75" />
  <line x1="71.65063509461096" y1="98.34936490538897" x2="67.32050807568876" y2="95.84936490538897" stroke="rgb(64,255,0)" stroke-width="1.5" />
  <line x1="67.32050807568876" y1="95.84936490538897" x2="64.82050807568876" y2="91.51923788646678" stroke="rgb(64,144,0)" stroke-width="1.25" />
  <line x1="67.32050807568876" y1="95.84936490538897" x2="62.990381056766566" y2="93.34936490538897" stroke="rgb(64,255,0)" stroke-width="1.5" />
  <line x1="71.65063509461096" y1="98.34936490538897" x2="69.15063509461096" y2="94.01923788646678" stroke="rgb(64,48,0)" stroke-width="1.75" />
  <line x1="69.15063509461096" y1="94.01923788646678" x2="69.15063509461096" y2="89.01923788646678" stroke="rgb(64,96,0)" stroke-width="1.5" />
  <line x1="69.15063509461096" y1="94.01923788646678" x2="66.65063509461096" y2="89.6891108675446" stroke="rgb(64,48,0)" stroke-width="1.75" />
  <line x1="66.65063509461096" y1="89.6891108675446" x2="62.320508075688764" y2="87.1891108675446" stroke="rgb(64,96,0)" stroke-width="1.5" />
  <line x1="62.320508075688764" y1="87.1891108675446" x2="57.320508075688764" y2="87.1891108675446" stroke="rgb(64,144,0)" stroke-width="1.25" />
  <line x1="62.320508075688764" y1="87.1891108675446" x2="57.99038105676657" y2="84.6891108675446" stroke="rgb(64,96,0)" stroke-width="1.5" />
  <line x1="57.99038105676657" y1="84.6891108675446" x2="52.99038105676657" y2="84.6891108675446" stroke="rgb(64,144,0)" stroke-width="1.25" />
  <line x1="52.99038105676657" y1="84.6891108675446" x2="48.66025403784438" y2="82.1891108675446" stroke="rgb(64,255,0)" stroke-width="1.0" />
  <line x1="52.99038105676657" y1="84.6891108675446" x2="47.99038105676657" y2="84.6891108675446" stroke="rgb(64,144,0)" stroke-width="1.25" />
  <line x1="47.99038105676657" y1="84.6891108675446" x2="43.66025403784438" y2="87.1891108675446" stroke="rgb(64,192,0)" stroke-width="1.0" />
  <line x1="47.99038105676657" y1="84.6891108675446" x2="42.99038105676657" y2="84.6891108675446" stroke="rgb(64,255,0)" stroke-width="1.25" />
  <line x1="57.99038105676657" y1="84.6891108675446" x2="53.66025403784438" y2="82.1891108675446" stroke="rgb(64,96,0)" stroke-width="1.5" />
  <line x1="53.66025403784438" y1="82.1891108675446" x2="51.16025403784438" y2="77.85898384862242" stroke="rgb(64,255,0)" stroke-width="1.25" />
  <line x1="53.66025403784438" y1="82.1891108675446" x2="49.33012701892219" y2="79.6891108675446" stroke="rgb(64,96,0)" stroke-width="1.5" />
  <line x1="49.33012701892219" y1="79.6891108675446" x2="44.33012701892219" y2="79.6891108675446" stroke="rgb(64,144,0)" stroke-width="1.25" />
  <line x1="49.33012701892219" y1="79.6891108675446" x2="45.0" y2="77.1891108675446" stroke="rgb(64,96,0)" stroke-width="1.5" />
  <line x1="45.0" y1="77.1891108675446" x2="40.0" y2="77.1891108675446" stroke="rgb(64,144,0)" stroke-width="1.25" />
  <line x1="40.0" y1="77.1891108675446" x2="35.66987298107781" y2="74.6891108675446" stroke="rgb(64,192,0)" stroke-width="1.0" />
  <line x1="40.0" y1="77.1891108675446" x2="35.0" y2="77.1891108675446" stroke="rgb(64,128,0)" stroke-width="1.25" />
  <line x1="35.0" y1="77.1891108675446" x2="30.66987298107781" y2="79.6891108675446" stroke="rgb(64,192,0)" stroke-width="1.0" />
  <line x1="35.0" y1="77.1891108675446" x2="30.0" y2="77.1891108675446" stroke="rgb(64,144,0)" stroke-width="1.25" />
  <line x1="30.0" y1="77.1891108675446" x2="25.669872981077802" y2="74.6891108675446" stroke="rgb(64,192,0)" stroke-width="1.0" />
  <line x1="25.669872981077802" y1="74.6891108675446" x2="23.169872981077802" y2="70.35898384862242" stroke="rgb(64,240,0)" stroke-width="0.75" />
  <line x1="25.669872981077802" y1="74.6891108675446" x2="21.339745962155604" y2="72.1891108675446" stroke="rgb(64,192,0)" stroke-width="1.0" />
  <line x1="30.0" y1="77.1891108675446" x2="25.0" y2="77.1891108675446" stroke="rgb(64,144,0)" stroke-width="1.25" />
  <line x1="25.0" y1="77.1891108675446" x2="20.669872981077802" y2="74.6891108675446" stroke="rgb(64,192,0)" stroke-width="1.0" />
  <line x1="25.0" y1="77.1891108675446" x2="20.0" y2="77.1891108675446" stroke="rgb(64,144,0)" stroke-width="1.25" />
  <line x1="20.0" y1="77.1891108675446" x2="15.669872981077802" y2="79.6891108675446" stroke="rgb(64,255,0)" stroke-width="1.0" />
  <line x1="20.0" y1="77.1891108675446" x2="15.0" y2="77.1891108675446" stroke="rgb(64,144,0)" stroke-width="1.25" />
  <line x1="15.0" y1="77.1891108675446" x2="10.669872981077802" y2="79.6891108675446" stroke="rgb(64,192,0)" stroke-width="1.0" />
  <line x1="10.669872981077802" y1="79.6891108675446" x2="5.669872981077802" y2="79.6891108675446" stroke="rgb(64,240,0)" stroke-width="0.75" />
  <line x1="10.669872981077802" y1="79.6891108675446" x2="6.339745962155604" y2="82.1891108675446" stroke="rgb(64,255,0)" stroke-width="1.0" />
  <line x1="6.339745962155604" y1="82.1891108675446" x2="3.839745962155604" y2="86.51923788646678" stroke="rgb(64,255,0)" stroke-width="0.75" />
  <line x1="6.339745962155604" y1="82.1891108675446" x2="2.0096189432334057" y2="84.6891108675446" stroke="rgb(64,192,0)" stroke-width="1.0" />
  <line x1="15.0" y1="77.1891108675446" x2="10.0" y2="77.1891108675446" stroke="rgb(64,144,0)" stroke-width="1.25" />
  <line x1="10.0" y1="77.1891108675446" x2="5.669872981077802" y2="74.6891108675446" stroke="rgb(64,255,0)" stroke-width="1.0" />
  <line x1="10.0" y1="77.1891108675446" x2="5.0" y2="77.1891108675446" stroke="rgb(64,144,0)" stroke-width="1.25" />
  <line x1="5.0" y1="77.1891108675446" x2="0.6698729810778019" y2="79.6891108675446" stroke="rgb(64,255,0)" stroke-width="1.0" />
  <line x1="5.0" y1="77.1891108675446" x2="0.0" y2="77.1891108675446" stroke="rgb(64,144,0)" stroke-width="1.25" />
  <line x1="45.0" y1="77.1891108675446" x2="40.66987298107781" y2="74.6891108675446" stroke="rgb(64,96,0)" stroke-width="1.5" />
  <line x1="40.66987298107781" y1="74.6891108675446" x2="35.66987298107781" y2="74.6891108675446" stroke="rgb(64,144,0)" stroke-width="1.25" />
  <line x1="40.66987298107781" y1="74.6891108675446" x2="36.33974596215562" y2="72.1891108675446" stroke="rgb(64,96,0)" stroke-width="1.5" />
  <line x1="36.33974596215562" y1="72.1891108675446" x2="33.83974596215562" y2="67.85898384862242" stroke="rgb(64,144,0)" stroke-width="1.25" />
  <line x1="33.83974596215562" y1="67.85898384862242" x2="33.83974596215562" y2="62.858983848622415" stroke="rgb(64,192,0)" stroke-width="1.0" />
  <line x1="33.83974596215562" y1="67.85898384862242" x2="31.339745962155618" y2="63.52885682970023" stroke="rgb(64,144,0)" stroke-width="1.25" />
  <line x1="31.339745962155618" y1="63.52885682970023" x2="27.00961894323342" y2="61.02885682970023" stroke="rgb(64,192,0)" stroke-width="1.0" />
  <line x1="31.339745962155618" y1="63.52885682970023" x2="28.839745962155618" y2="59.19872981077805" stroke="rgb(64,144,0)" stroke-width="1.25" />
  <line x1="36.33974596215562" y1="72.1891108675446" x2="32.00961894323343" y2="69.6891108675446" stroke="rgb(64,96,0)" stroke-width="1.5" />
  <line x1="32.00961894323343" y1="69.6891108675446" x2="29.509618943233427" y2="65.35898384862242" stroke="rgb(64,255,0)" stroke-width="1.25" />
  <line x1="32.00961894323343" y1="69.6891108675446" x2="27.679491924311236" y2="67.1891108675446" stroke="rgb(64,96,0)" stroke-width="1.5" />
  <line x1="27.679491924311236" y1="67.1891108675446" x2="22.679491924311236" y2="67.1891108675446" stroke="rgb(64,192,0)" stroke-width="1.25" />
  <line x1="27.679491924311236" y1="67.1891108675446" x2="23.349364905389038" y2="64.6891108675446" stroke="rgb(64,96,0)" stroke-width="1.5" />
  <line x1="66.65063509461096" y1="89.6891108675446" x2="64.15063509461096" y2="85.35898384862242" stroke="rgb(64,48,0)" stroke-width="1.75" />
  <line x1="64.15063509461096" y1="85.35898384862242" x2="59.820508075688764" y2="82.85898384862242" stroke="rgb(64,96,0)" stroke-width="1.5" />
  <line x1="64.15063509461096" y1="85.35898384862242" x2="61.65063509461096" y2="81.02885682970023" stroke="rgb(64,48,0)" stroke-width="1.75" />
  <line x1="61.65063509461096" y1="81.02885682970023" x2="61.65063509461096" y2="76.02885682970023" stroke="rgb(64,96,0)" stroke-width="1.5" />
  <line x1="61.65063509461096" y1="76.02885682970023" x2="64.15063509461096" y2="71.69872981077805" stroke="rgb(64,128,0)" stroke-width="1.25" />
  <line x1="61.65063509461096" y1="76.02885682970023" x2="61.65063509461096" y2="71.02885682970023" stroke="rgb(64,96,0)" stroke-width="1.5" />
  <line x1="61.65063509461096" y1="71.02885682970023" x2="59.15063509461096" y2="66.69872981077805" stroke="rgb(64,144,0)" stroke-width="1.25" />
  <line x1="61.65063509461096" y1="71.02885682970023" x2="61.65063509461096" y2="66.02885682970023" stroke="rgb(64,255,0)" stroke-width="1.5" />
  <line x1="61.65063509461096" y1="81.02885682970023" x2="59.15063509461096" y2="76.69872981077805" stroke="rgb(64,48,0)" stroke-width="1.75" />
  <line x1="59.15063509461096" y1="76.69872981077805" x2="59.15063509461096" y2="71.69872981077805" stroke="rgb(64,255,0)" stroke-width="1.5" />
  <line x1="59.15063509461096" y1="76.69872981077805" x2="56.65063509461096" y2="72.36860279185586" stroke="rgb(64,48,0)" stroke-width="1.75" />
  <line x1="56.65063509461096" y1="72.36860279185586" x2="52.32050807568877" y2="69.86860279185586" stroke="rgb(64,96,0)" stroke-width="1.5" />
  <line x1="56.65063509461096" y1="72.36860279185586" x2="54.15063509461096" y2="68.03847577293368" stroke="rgb(64,48,0)" stroke-width="1.75" />
  <line x1="54.15063509461096" y1="68.03847577293368" x2="54.15063509461096" y2="63.03847577293368" stroke="rgb(64,128,0)" stroke-width="1.5" />
  <line x1="54.15063509461096" y1="63.03847577293368" x2="51.65063509461096" y2="58.708348754011496" stroke="rgb(64,192,0)" stroke-width="1.25" />
  <line x1="54.15063509461096" y1="63.03847577293368" x2="54.15063509461096" y2="58.03847577293368" stroke="rgb(64,128,0)" stroke-width="1.5" />
  <line x1="54.15063509461096" y1="58.03847577293368" x2="56.65063509461096" y2="53.708348754011496" stroke="rgb(64,144,0)" stroke-width="1.25" />
  <line x1="56.65063509461096" y1="53.708348754011496" x2="56.65063509461096" y2="48.708348754011496" stroke="rgb(64,255,0)" stroke-width="1.0" />
  <line x1="56.65063509461096" y1="53.708348754011496" x2="59.15063509461096" y2="49.37822173508931" stroke="rgb(64,144,0)" stroke-width="1.25" />
  <line x1="54.15063509461096" y1="58.03847577293368" x2="54.15063509461096" y2="53.03847577293368" stroke="rgb(64,128,0)" stroke-width="1.5" />
  <line x1="54.15063509461096" y1="53.03847577293368" x2="51.65063509461096" y2="48.708348754011496" stroke="rgb(64,144,0)" stroke-width="1.25" />
  <line x1="54.15063509461096" y1="53.03847577293368" x2="54.15063509461096" y2="48.03847577293368" stroke="rgb(64,128,0)" stroke-width="1.5" />
  <line x1="54.15063509461096" y1="48.03847577293368" x2="51.65063509461096" y2="43.708348754011496" stroke="rgb(64,192,0)" stroke-width="1.25" />
  <line x1="51.65063509461096" y1="43.708348754011496" x2="51.65063509461096" y2="38.708348754011496" stroke="rgb(64,192,0)" stroke-width="1.0" />
  <line x1="51.65063509461096" y1="43.708348754011496" x2="49.15063509461096" y2="39.37822173508931" stroke="rgb(64,144,0)" stroke-width="1.25" />
  <line x1="54.15063509461096" y1="48.03847577293368" x2="54.15063509461096" y2="43.03847577293368" stroke="rgb(64,192,0)" stroke-width="1.5" />
  <line x1="54.15063509461096" y1="43.03847577293368" x2="51.65063509461096" y2="38.708348754011496" stroke="rgb(64,255,0)" stroke-width="1.25" />
  <line x1="54.15063509461096" y1="43.03847577293368" x2="54.15063509461096" y2="38.03847577293368" stroke="rgb(64,96,0)" stroke-width="1.5" />
  <line x1="54.15063509461096" y1="68.03847577293368" x2="51.65063509461096" y2="63.708348754011496" stroke="rgb(64,48,0)" stroke-width="1.75" />
  <line x1="51.65063509461096" y1="63.708348754011496" x2="51.65063509461096" y2="58.708348754011496" stroke="rgb(64,96,0)" stroke-width="1.5" />
  <line x1="51.65063509461096" y1="63.708348754011496" x2="49.15063509461096" y2="59.37822173508931" stroke="rgb(64,48,0)" stroke-width="1.75" />
  <line x1="49.15063509461096" y1="59.37822173508931" x2="49.15063509461096" y2="54.37822173508931" stroke="rgb(64,96,0)" stroke-width="1.5" />
  <line x1="49.15063509461096" y1="54.37822173508931" x2="46.65063509461096" y2="50.04809471616713" stroke="rgb(64,144,0)" stroke-width="1.25" />
  <line x1="49.15063509461096" y1="54.37822173508931" x2="49.15063509461096" y2="49.37822173508931" stroke="rgb(64,96,0)" stroke-width="1.5" />
  <line x1="49.15063509461096" y1="59.37822173508931" x2="46.65063509461096" y2="55.04809471616713" stroke="rgb(64,48,0)" stroke-width="1.75" />
  <line x1="46.65063509461096" y1="55.04809471616713" x2="46.65063509461096" y2="50.04809471616713" stroke="rgb(64,192,0)" stroke-width="1.5" />
  <line x1="46.65063509461096" y1="55.04809471616713" x2="44.15063509461096" y2="50.717967697244944" stroke="rgb(64,48,0)" stroke-width="1.75" />
  <line x1="44.15063509461096" y1="50.717967697244944" x2="39.82050807568877" y2="48.217967697244944" stroke="rgb(64,96,0)" stroke-width="1.5" />
  <line x1="44.15063509461096" y1="50.717967697244944" x2="41.65063509461096" y2="46.38784067832276" stroke="rgb(64,48,0)" stroke-width="1.75" />
  <line x1="41.65063509461096" y1="46.38784067832276" x2="37.32050807568877" y2="43.88784067832276" stroke="rgb(64,96,0)" stroke-width="1.5" />
  <line x1="37.32050807568877" y1="43.88784067832276" x2="34.82050807568877" y2="39.55771365940058" stroke="rgb(64,144,0)" stroke-width="1.25" />
  <line x1="37.32050807568877" y1="43.88784067832276" x2="32.99038105676658" y2="41.38784067832276" stroke="rgb(64,128,0)" stroke-width="1.5" />
  <line x1="41.65063509461096" y1="46.38784067832276" x2="39.15063509461096" y2="42.05771365940058" stroke="rgb(64,48,0)" stroke-width="1.75" />
  <line x1="39.15063509461096" y1="42.05771365940058" x2="34.82050807568877" y2="39.55771365940058" stroke="rgb(64,96,0)" stroke-width="1.5" />
  <line x1="39.15063509461096" y1="42.05771365940058" x2="36.65063509461096" y2="37.72758664047839" stroke="rgb(64,48,0)" stroke-width="1.75" />
  <line x1="91.65063509461095" y1="132.99038105676655" x2="91.65063509461095" y2="127.99038105676655" stroke="rgb(64,0,0)" stroke-width="2.0" />
  <line x1="91.65063509461095" y1="127.99038105676655" x2="94.15063509461095" y2="123.66025403784435" stroke="rgb(64,48,0)" stroke-width="1.75" />
  <line x1="91.65063509461095" y1="127.99038105676655" x2="91.65063509461095" y2="122.99038105676655" stroke="rgb(64,0,0)" stroke-width="2.0" />
  <line x1="91.65063509461095" y1="122.99038105676655" x2="89.15063509461095" y2="118.66025403784435" stroke="rgb(64,48,0)" stroke-width="1.75" />
  <line x1="91.65063509461095" y1="122.99038105676655" x2="91.65063509461095" y2="117.99038105676655" stroke="rgb(64,0,0)" stroke-width="2.0" />
  <line x1="91.65063509461095" y1="117.99038105676655" x2="94.15063509461095" y2="113.66025403784435" stroke="rgb(64,48,0)" stroke-width="1.75" />
  <line x1="94.15063509461095" y1="113.66025403784435" x2="94.15063509461096" y2="108.66025403784435" stroke="rgb(64,192,0)" stroke-width="1.5" />
  <line x1="94.15063509461095" y1="113.66025403784435" x2="96.65063509461095" y2="109.33012701892216" stroke="rgb(64,48,0)" stroke-width="1.75" />
  <line x1="91.65063509461095" y1="117.99038105676655" x2="91.65063509461095" y2="112.99038105676655" stroke="rgb(64,0,0)" stroke-width="2.0" />
  <line x1="91.65063509461095" y1="112.99038105676655" x2="94.15063509461096" y2="108.66025403784435" stroke="rgb(64,48,0)" stroke-width="1.75" />
  <line x1="91.65063509461095" y1="112.99038105676655" x2="91.65063509461096" y2="107.99038105676655" stroke="rgb(64,0,0)" stroke-width="2.0" />
  <line x1="91.65063509461096" y1="107.99038105676655" x2="89.15063509461096" y2="103.66025403784435" stroke="rgb(64,48,0)" stroke-width="1.75" />
  <line x1="91.65063509461096" y1="107.99038105676655" x2="91.65063509461096" y2="102.99038105676655" stroke="rgb(64,0,0)" stroke-width="2.0" />
  <line x1="91.65063509461096" y1="102.99038105676655" x2="94.15063509461096" y2="98.66025403784437" stroke="rgb(64,48,0)" stroke-width="1.75" />
  <line x1="94.15063509461096" y1="98.66025403784437" x2="98.48076211353315" y2="96.16025403784437" stroke="rgb(64,96,0)" stroke-width="1.5" />
  <line x1="94.15063509461096" y1="98.66025403784437" x2="96.65063509461096" y2="94.33012701892218" stroke="rgb(64,48,0)" stroke-width="1.75" />
  <line x1="96.65063509461096" y1="94.33012701892218" x2="100.98076211353315" y2="91.83012701892218" stroke="rgb(64,255,0)" stroke-width="1.5" />
  <line x1="100.98076211353315" y1="91.83012701892218" x2="105.98076211353315" y2="91.83012701892218" stroke="rgb(64,255,0)" stroke-width="1.25" />
  <line x1="100.98076211353315" y1="91.83012701892218" x2="105.31088913245534" y2="89.33012701892218" stroke="rgb(64,255,0)" stroke-width="1.5" />
  <line x1="105.31088913245534" y1="89.33012701892218" x2="107.81088913245534" y2="85.0" stroke="rgb(64,144,0)" stroke-width="1.25" />
  <line x1="105.31088913245534" y1="89.33012701892218" x2="109.64101615137754" y2="86.83012701892218" stroke="rgb(64,96,0)" stroke-width="1.5" />
  <line x1="96.65063509461096" y1="94.33012701892218" x2="99.15063509461096" y2="90.0" stroke="rgb(64,48,0)" stroke-width="1.75" />
  <line x1="99.15063509461096" y1="90.0" x2="103.48076211353315" y2="87.5" stroke="rgb(64,192,0)" stroke-width="1.5" />
  <line x1="99.15063509461096" y1="90.0" x2="101.65063509461096" y2="85.66987298107782" stroke="rgb(64,48,0)" stroke-width="1.75" />
  <line x1="91.65063509461096" y1="102.99038105676655" x2="91.65063509461096" y2="97.99038105676655" stroke="rgb(64,0,0)" stroke-width="2.0" />
  <line x1="91.65063509461096" y1="97.99038105676655" x2="89.15063509461096" y2="93.66025403784437" stroke="rgb(64,48,0)" stroke-width="1.75" />
  <line x1="91.65063509461096" y1="97.99038105676655" x2="91.65063509461096" y2="92.99038105676655" stroke="rgb(64,0,0)" stroke-width="2.0" />
  <line x1="91.65063509461096" y1="92.99038105676655" x2="89.15063509461096" y2="88.66025403784437" stroke="rgb(64,48,0)" stroke-width="1.75" />
  <line x1="89.15063509461096" y1="88.66025403784437" x2="89.15063509461096" y2="83.66025403784437" stroke="rgb(64,96,0)" stroke-width="1.5" />
  <line x1="89.15063509461096" y1="88.66025403784437" x2="86.65063509461096" y2="84.33012701892218" stroke="rgb(64,48,0)" stroke-width="1.75" />
  <line x1="86.65063509461096" y1="84.33012701892218" x2="82.32050807568876" y2="81.83012701892218" stroke="rgb(64,96,0)" stroke-width="1.5" />
  <line x1="86.65063509461096" y1="84.33012701892218" x2="84.15063509461096" y2="80.0" stroke="rgb(64,48,0)" stroke-width="1.75" />
  <line x1="91.65063509461096" y1="92.99038105676655" x2="91.65063509461096" y2="87.99038105676655" stroke="rgb(64,0,0)" stroke-width="2.0" />
  <line x1="91.65063509461096" y1="87.99038105676655" x2="94.15063509461096" y2="83.66025403784437" stroke="rgb(64,48,0)" stroke-width="1.75" />
  <line x1="91.65063509461096" y1="87.99038105676655" x2="91.65063509461096" y2="82.99038105676655" stroke="rgb(64,0,0)" stroke-width="2.0" />
  <line x1="91.65063509461096" y1="82.99038105676655" x2="89.15063509461096" y2="78.66025403784437" stroke="rgb(64,48,0)" stroke-width="1.75" />
  <line x1="91.65063509461096" y1="82.99038105676655" x2="91.65063509461096" y2="77.99038105676655" stroke="rgb(64,0,0)" stroke-width="2.0" />
  <line x1="91.65063509461096" y1="77.99038105676655" x2="89.15063509461096" y2="73.66025403784437" stroke="rgb(64,48,0)" stroke-width="1.75" />
  <line x1="89.15063509461096" y1="73.66025403784437" x2="89.15063509461096" y2="68.66025403784437" stroke="rgb(64,192,0)" stroke-width="1.5" />
  <line x1="89.15063509461096" y1="73.66025403784437" x2="86.65063509461096" y2="69.33012701892218" stroke="rgb(64,48,0)" stroke-width="1.75" />
  <line x1="86.65063509461096" y1="69.33012701892218" x2="86.65063509461096" y2="64.33012701892218" stroke="rgb(64,96,0)" stroke-width="1.5" />
  <line x1="86.65063509461096" y1="64.33012701892218" x2="84.15063509461096" y2="60.0" stroke="rgb(64,255,0)" stroke-width="1.25" />
  <line x1="86.65063509461096" y1="64.33012701892218" x2="86.65063509461096" y2="59.330127018922184" stroke="rgb(64,96,0)" stroke-width="1.5" />
  <line x1="86.65063509461096" y1="69.33012701892218" x2="84.15063509461096" y2="65.0" stroke="rgb(64,48,0)" stroke-width="1.75" />
  <line x1="84.15063509461096" y1="65.0" x2="79.82050807568876" y2="62.5" stroke="rgb(64,96,0)" stroke-width="1.5" />
  <line x1="84.15063509461096" y1="65.0" x2="81.65063509461096" y2="60.669872981077816" stroke="rgb(64,48,0)" stroke-width="1.75" />
  <line x1="91.65063509461096" y1="77.99038105676655" x2="91.65063509461096" y2="72.99038105676655" stroke="rgb(64,0,0)" stroke-width="2.0" />
  <line x1="91.65063509461096" y1="72.99038105676655" x2="89.15063509461096" y2="68.66025403784437" stroke="rgb(64,48,0)" stroke-width="1.75" />
  <line x1="91.65063509461096" y1="72.99038105676655" x2="91.65063509461096" y2="67.99038105676655" stroke="rgb(64,0,0)" stroke-width="2.0" />
  <line x1="91.65063509461096" y1="67.99038105676655" x2="94.15063509461096" y2="63.66025403784437" stroke="rgb(64,48,0)" stroke-width="1.75" />
  <line x1="94.15063509461096" y1="63.66025403784437" x2="94.15063509461096" y2="58.66025403784437" stroke="rgb(64,96,0)" stroke-width="1.5" />
  <line x1="94.15063509461096" y1="63.66025403784437" x2="96.65063509461096" y2="59.330127018922184" stroke="rgb(64,48,0)" stroke-width="1.75" />
  <line x1="91.65063509461096" y1="67.99038105676655" x2="91.65063509461096" y2="62.99038105676655" stroke="rgb(64,0,0)" stroke-width="2.0" />
  <line x1="91.65063509461096" y1="62.99038105676655" x2="94.15063509461096" y2="58.66025403784437" stroke="rgb(64,48,0)" stroke-width="1.75" />
  <line x1="91.65063509461096" y1="62.99038105676655" x2="91.65063509461096" y2="57.99038105676655" stroke="rgb(64,0,0)" stroke-width="2.0" />
  <line x1="91.65063509461096" y1="57.99038105676655" x2="89.15063509461096" y2="53.66025403784437" stroke="rgb(64,48,0)" stroke-width="1.75" />
  <line x1="91.65063509461096" y1="57.99038105676655" x2="91.65063509461096" y2="52.99038105676655" stroke="rgb(64,0,0)" stroke-width="2.0" />
  <line x1="91.65063509461096" y1="52.99038105676655" x2="94.15063509461096" y2="48.66025403784437" stroke="rgb(64,48,0)" stroke-width="1.75" />
  <line x1="94.15063509461096" y1="48.66025403784437" x2="94.15063509461096" y2="43.66025403784437" stroke="rgb(64,128,0)" stroke-width="1.5" />
  <line x1="94.15063509461096" y1="48.66025403784437" x2="96.65063509461096" y2="44.330127018922184" stroke="rgb(64,48,0)" stroke-width="1.75" />
  <line x1="96.65063509461096" y1="44.330127018922184" x2="100.98076211353316" y2="41.830127018922184" stroke="rgb(64,96,0)" stroke-width="1.5" />
  <line x1="100.98076211353316" y1="41.830127018922184" x2="105.98076211353316" y2="41.830127018922184" stroke="rgb(64,144,0)" stroke-width="1.25" />
  <line x1="100.98076211353316" y1="41.830127018922184" x2="105.31088913245534" y2="39.330127018922184" stroke="rgb(64,96,0)" stroke-width="1.5" />
  <line x1="96.65063509461096" y1="44.330127018922184" x2="99.15063509461096" y2="40.0" stroke="rgb(64,48,0)" stroke-width="1.75" />
  <line x1="99.15063509461096" y1="40.0" x2="103.48076211353316" y2="37.5" stroke="rgb(64,255,0)" stroke-width="1.5" />
  <line x1="99.15063509461096" y1="40.0" x2="101.65063509461096" y2="35.669872981077816" stroke="rgb(64,48,0)" stroke-width="1.75" />
  <line x1="101.65063509461096" y1="35.669872981077816" x2="101.65063509461096" y2="30.669872981077816" stroke="rgb(64,96,0)" stroke-width="1.5" />
  <line x1="101.65063509461096" y1="30.669872981077816" x2="104.15063509461096" y2="26.339745962155632" stroke="rgb(64,144,0)" stroke-width="1.25" />
  <line x1="101.65063509461096" y1="30.669872981077816" x2="101.65063509461096" y2="25.669872981077816" stroke="rgb(64,128,0)" stroke-width="1.5" />
  <line x1="101.65063509461096" y1="25.669872981077816" x2="99.15063509461096" y2="21.339745962155632" stroke="rgb(64,255,0)" stroke-width="1.25" />
  <line x1="101.65063509461096" y1="25.669872981077816" x2="101.65063509461096" y2="20.669872981077816" stroke="rgb(64,96,0)" stroke-width="1.5" />
  <line x1="101.65063509461096" y1="35.669872981077816" x2="104.15063509461096" y2="31.339745962155632" stroke="rgb(64,48,0)" stroke-width="1.75" />
  <line x1="104.15063509461096" y1="31.339745962155632" x2="108.48076211353316" y2="28.839745962155632" stroke="rgb(64,96,0)" stroke-width="1.5" />
  <line x1="104.15063509461096" y1="31.339745962155632" x2="106.65063509461096" y2="27.00961894323345" stroke="rgb(64,48,0)" stroke-width="1.75" />
  <line x1="106.65063509461096" y1="27.00961894323345" x2="110.98076211353316" y2="24.50961894323345" stroke="rgb(64,96,0)" stroke-width="1.5" />
  <line x1="110.98076211353316" y1="24.50961894323345" x2="115.98076211353316" y2="24.50961894323345" stroke="rgb(64,144,0)" stroke-width="1.25" />
  <line x1="110.98076211353316" y1="24.50961894323345" x2="115.31088913245534" y2="22.00961894323345" stroke="rgb(64,192,0)" stroke-width="1.5" />
  <line x1="115.31088913245534" y1="22.00961894323345" x2="120.31088913245534" y2="22.00961894323345" stroke="rgb(64,255,0)" stroke-width="1.25" />
  <line x1="120.31088913245534" y1="22.00961894323345" x2="124.64101615137754" y2="19.50961894323345" stroke="rgb(64,255,0)" stroke-width="1.0" />
  <line x1="120.31088913245534" y1="22.00961894323345" x2="125.31088913245534" y2="22.00961894323345" stroke="rgb(64,128,0)" stroke-width="1.25" />
  <line x1="115.31088913245534" y1="22.00961894323345" x2="119.64101615137754" y2="19.50961894323345" stroke="rgb(64,128,0)" stroke-width="1.5" />
  <line x1="119.64101615137754" y1="19.50961894323345" x2="122.14101615137754" y2="15.179491924311264" stroke="rgb(64,128,0)" stroke-width="1.25" />
  <line x1="119.64101615137754" y1="19.50961894323345" x2="123.97114317029974" y2="17.00961894323345" stroke="rgb(64,255,0)" stroke-width="1.5" />
  <line x1="106.65063509461096" y1="27.00961894323345" x2="109.15063509461096" y2="22.679491924311264" stroke="rgb(64,48,0)" stroke-width="1.75" />
  <line x1="109.15063509461096" y1="22.679491924311264" x2="113.48076211353316" y2="20.179491924311264" stroke="rgb(64,96,0)" stroke-width="1.5" />
  <line x1="109.15063509461096" y1="22.679491924311264" x2="111.65063509461096" y2="18.34936490538908" stroke="rgb(64,48,0)" stroke-width="1.75" />
  <line x1="111.65063509461096" y1="18.34936490538908" x2="111.65063509461096" y2="13.34936490538908" stroke="rgb(64,96,0)" stroke-width="1.5" />
  <line x1="111.65063509461096" y1="18.34936490538908" x2="114.15063509461096" y2="14.019237886466897" stroke="rgb(64,48,0)" stroke-width="1.75" />
  <line x1="114.15063509461096" y1="14.019237886466897" x2="114.15063509461096" y2="9.019237886466897" stroke="rgb(64,96,0)" stroke-width="1.5" />
  <line x1="114.15063509461096" y1="9.019237886466897" x2="116.65063509461096" y2="4.689110867544713" stroke="rgb(64,144,0)" stroke-width="1.25" />
  <line x1="114.15063509461096" y1="9.019237886466897" x2="114.15063509461096" y2="4.019237886466897" stroke="rgb(64,96,0)" stroke-width="1.5" />
  <line x1="114.15063509461096" y1="14.019237886466897" x2="116.65063509461096" y2="9.689110867544713" stroke="rgb(64,48,0)" stroke-width="1.75" />
  <line x1="116.65063509461096" y1="9.689110867544713" x2="120.98076211353316" y2="7.189110867544713" stroke="rgb(64,96,0)" stroke-width="1.5" />
  <line x1="116.65063509461096" y1="9.689110867544713" x2="119.15063509461096" y2="5.358983848622529" stroke="rgb(64,48,0)" stroke-width="1.75" />
  <line x1="119.15063509461096" y1="5.358983848622529" x2="119.15063509461096" y2="0.35898384862252897" stroke="rgb(64,96,0)" stroke-width="1.5" />
  <line x1="119.15063509461096" y1="5.358983848622529" x2="121.65063509461096" y2="1.028856829700345" stroke="rgb(64,48,0)" stroke-width="1.75" />
  <line x1="91.65063509461096" y1="52.99038105676655" x2="91.65063509461096" y2="47.99038105676655" stroke="rgb(64,0,0)" stroke-width="2.0" />
  <line x1="91.65063509461096" y1="47.99038105676655" x2="94.15063509461096" y2="43.66025403784437" stroke="rgb(64,48,0)" stroke-width="1.75" />
  <line x1="91.65063509461096" y1="47.99038105676655" x2="91.65063509461096" y2="42.99038105676655" stroke="rgb(64,0,0)" stroke-width="2.0" />
  <line x1="91.65063509461096" y1="42.99038105676655" x2="94.15063509461096" y2="38.66025403784437" stroke="rgb(64,48,0)" stroke-width="1.75" />
  <line x1="94.15063509461096" y1="38.66025403784437" x2="98.48076211353316" y2="36.16025403784437" stroke="rgb(64,96,0)" stroke-width="1.5" />
  <line x1="94.15063509461096" y1="38.66025403784437" x2="96.65063509461096" y2="34.330127018922184" stroke="rgb(64,48,0)" stroke-width="1.75" />
  <line x1="91.65063509461096" y1="42.99038105676655" x2="91.65063509461096" y2="37.99038105676655" stroke="rgb(64,0,0)" stroke-width="2.0" />
  <line x1="91.65063509461096" y1="37.99038105676655" x2="94.15063509461096" y2="33.66025403784437" stroke="rgb(64,48,0)" stroke-width="1.75" />
  <line x1="91.65063509461096" y1="37.99038105676655" x2="91.65063509461096" y2="32.99038105676655" stroke="rgb(64,0,0)" stroke-width="2.0" />
  <line x1="91.65063509461096" y1="32.99038105676655" x2="89.15063509461096" y2="28.660254037844368" stroke="rgb(64,48,0)" stroke-width="1.75" />
  <line x1="89.15063509461096" y1="28.660254037844368" x2="84.82050807568876" y2="26.160254037844368" stroke="rgb(64,96,0)" stroke-width="1.5" />
  <line x1="89.15063509461096" y1="28.660254037844368" x2="86.65063509461096" y2="24.330127018922184" stroke="rgb(64,48,0)" stroke-width="1.75" />
  <line x1="86.65063509461096" y1="24.330127018922184" x2="86.65063509461096" y2="19.330127018922184" stroke="rgb(64,96,0)" stroke-width="1.5" />
  <line x1="86.65063509461096" y1="19.330127018922184" x2="89.15063509461096" y2="15.0" stroke="rgb(64,255,0)" stroke-width="1.25" />
  <line x1="86.65063509461096" y1="19.330127018922184" x2="86.65063509461096" y2="14.330127018922184" stroke="rgb(64,192,0)" stroke-width="1.5" />
  <line x1="86.65063509461096" y1="24.330127018922184" x2="84.15063509461096" y2="20.0" stroke="rgb(64,48,0)" stroke-width="1.75" />
  <line x1="84.15063509461096" y1="20.0" x2="79.82050807568876" y2="17.5" stroke="rgb(64,128,0)" stroke-width="1.5" />
  <line x1="84.15063509461096" y1="20.0" x2="81.65063509461096" y2="15.669872981077816" stroke="rgb(64,48,0)" stroke-width="1.75" />
  <line x1="81.65063509461096" y1="15.669872981077816" x2="77.32050807568876" y2="13.169872981077816" stroke="rgb(64,128,0)" stroke-width="1.5" />
  <line x1="77.32050807568876" y1="13.169872981077816" x2="72.32050807568876" y2="13.169872981077816" stroke="rgb(64,144,0)" stroke-width="1.25" />
  <line x1="77.32050807568876" y1="13.169872981077816" x2="72.99038105676658" y2="10.669872981077816" stroke="rgb(64,192,0)" stroke-width="1.5" />
  <line x1="81.65063509461096" y1="15.669872981077816" x2="79.15063509461096" y2="11.339745962155632" stroke="rgb(64,48,0)" stroke-width="1.75" />
  <line x1="79.15063509461096" y1="11.339745962155632" x2="79.15063509461096" y2="6.339745962155632" stroke="rgb(64,128,0)" stroke-width="1.5" />
  <line x1="79.15063509461096" y1="11.339745962155632" x2="76.65063509461096" y2="7.009618943233448" stroke="rgb(64,48,0)" stroke-width="1.75" />
  <line x1="91.65063509461096" y1="32.99038105676655" x2="91.65063509461096" y2="27.99038105676655" stroke="rgb(64,0,0)" stroke-width="2.0" />
  <line x1="91.65063509461096" y1="27.99038105676655" x2="89.15063509461096" y2="23.660254037844368" stroke="rgb(64,48,0)" stroke-width="1.75" />
  <line x1="91.65063509461096" y1="27.99038105676655" x2="91.65063509461096" y2="22.99038105676655" stroke="rgb(64,0,0)" stroke-width="2.0" />
  <line x1="91.65063509461096" y1="22.99038105676655" x2="94.15063509461096" y2="18.660254037844368" stroke="rgb(64,48,0)" stroke-width="1.75" />
  <line x1="94.15063509461096" y1="18.660254037844368" x2="98.48076211353316" y2="16.160254037844368" stroke="rgb(64,96,0)" stroke-width="1.5" />
  <line x1="94.15063509461096" y1="18.660254037844368" x2="96.65063509461096" y2="14.330127018922184" stroke="rgb(64,48,0)" stroke-width="1.75" />
  <line x1="91.65063509461096" y1="22.99038105676655" x2="91.65063509461096" y2="17.99038105676655" stroke="rgb(64,0,0)" stroke-width="2.0" />
  <line x1="91.65063509461096" y1="17.99038105676655" x2="94.15063509461096" y2="13.660254037844368" stroke="rgb(64,48,0)" stroke-width="1.75" />
  <line x1="91.65063509461096" y1="17.99038105676655" x2="91.65063509461096" y2="12.990381056766552" stroke="rgb(64,0,0)" stroke-width="2.0" />
  <line x1="91.65063509461096" y1="12.990381056766552" x2="89.15063509461096" y2="8.660254037844368" stroke="rgb(64,48,0)" stroke-width="1.75" />
  <line x1="89.15063509461096" y1="8.660254037844368" x2="89.15063509461096" y2="3.6602540378443678" stroke="rgb(64,128,0)" stroke-width="1.5" />
  <line x1="89.15063509461096" y1="8.660254037844368" x2="86.65063509461096" y2="4.330127018922184" stroke="rgb(64,48,0)" stroke-width="1.75" />
  <line x1="86.65063509461096" y1="4.330127018922184" x2="82.32050807568876" y2="1.8301270189221839" stroke="rgb(64,96,0)" stroke-width="1.5" />
  <line x1="86.65063509461096" y1="4.330127018922184" x2="84.15063509461096" y2="0.0" stroke="rgb(64,48,0)" stroke-width="1.75" />
  <line x1="91.65063509461096" y1="12.990381056766552" x2="91.65063509461096" y2="7.990381056766552" stroke="rgb(64,0,0)" stroke-width="2.0" />
  <line x1="91.65063509461096" y1="7.990381056766552" x2="94.15063509461096" y2="3.6602540378443678" stroke="rgb(64,48,0)" stroke-width="1.75" />
  <line x1="91.65063509461096" y1="7.990381056766552" x2="91.65063509461096" y2="2.9903810567665516" stroke="rgb(64,0,0)" stroke-width="2.0" />
</svg>
