<?xml version="1.0" encoding="UTF-8" ?>
<svg xmlns="http://www.w3.org/2000/svg" version="1.1" width="120.71067811865476" height="140.35533905932738">
  <line x1="60.35533905932737" y1="140.35533905932738" x2="60.35533905932737" y2="135.35533905932738" stroke="black" stroke-width="1" />
  <line x1="60.35533905932737" y1="135.35533905932738" x2="60.35533905932737" y2="130.35533905932738" stroke="black" stroke-width="1" />
  <line x1="60.35533905932737" y1="130.35533905932738" x2="60.35533905932737" y2="125.35533905932738" stroke="black" stroke-width="1" />
  <line x1="60.35533905932737" y1="125.35533905932738" x2="60.35533905932737" y2="120.35533905932738" stroke="black" stroke-width="1" />
  <line x1="60.35533905932737" y1="120.35533905932738" x2="60.35533905932737" y2="115.35533905932738" stroke="black" stroke-width="1" />
  <line x1="60.35533905932737" y1="115.35533905932738" x2="60.35533905932737" y2="110.35533905932738" stroke="black" stroke-width="1" />
  <line x1="60.35533905932737" y1="110.35533905932738" x2="60.35533905932737" y2="105.35533905932738" stroke="black" stroke-width="1" />
  <line x1="60.35533905932737" y1="105.35533905932738" x2="60.35533905932737" y2="100.35533905932738" stroke="black" stroke-width="1" />
  <line x1="60.35533905932737" y1="100.35533905932738" x2="60.35533905932737" y2="95.35533905932738" stroke="black" stroke-width="1" />
  <line x1="60.35533905932737" y1="95.35533905932738" x2="60.35533905932737" y2="90.35533905932738" stroke="black" stroke-width="1" />
  <line x1="60.35533905932737" y1="90.35533905932738" x2="60.35533905932737" y2="85.35533905932738" stroke="black" stroke-width="1" />
  <line x1="60.35533905932737" y1="85.35533905932738" x2="60.35533905932738" y2="80.35533905932738" stroke="black" stroke-width="1" />
  <line x1="60.35533905932738" y1="80.35533905932738" x2="60.35533905932738" y2="75.35533905932738" stroke="black" stroke-width="1" />
  <line x1="60.35533905932738" y1="75.35533905932738" x2="60.35533905932738" y2="70.35533905932738" stroke="black" stroke-width="1" />
  <line x1="60.35533905932738" y1="70.35533905932738" x2="60.35533905932738" y2="65.35533905932738" stroke="black" stroke-width="1" />
  <line x1="60.35533905932738" y1="65.35533905932738" x2="60.35533905932738" y2="60.35533905932738" stroke="black" stroke-width="1" />
  <line x1="60.35533905932738" y1="60.35533905932738" x2="63.890872965260115" y2="56.81980515339464" stroke="black" stroke-width="1" />
  <line x1="63.890872965260115" y1="56.81980515339464" x2="67.42640687119285" y2="53.2842712474619" stroke="black" stroke-width="1" />
  <line x1="67.42640687119285" y1="53.2842712474619" x2="70.96194077712559" y2="49.748737341529164" stroke="black" stroke-width="1" />
  <line x1="70.96194077712559" y1="49.748737341529164" x2="74.49747468305833" y2="46.21320343559643" stroke="black" stroke-width="1" />
  <line x1="74.49747468305833" y1="46.21320343559643" x2="78.03300858899107" y2="42.67766952966369" stroke="black" stroke-width="1" />
  <line x1="78.03300858899107" y1="42.67766952966369" x2="81.5685424949238" y2="39.14213562373095" stroke="black" stroke-width="1" />
  <line x1="81.5685424949238" y1="39.14213562373095" x2="85.10407640085654" y2="35.60660171779821" stroke="black" stroke-width="1" />
  <line x1="85.10407640085654" y1="35.60660171779821" x2="88.63961030678928" y2="32.071067811865476" stroke="black" stroke-width="1" />
  <line x1="88.63961030678928" y1="32.071067811865476" x2="93.63961030678928" y2="32.071067811865476" stroke="black" stroke-width="1" />
  <line x1="93.63961030678928" y1="32.071067811865476" x2="98.63961030678928" y2="32.071067811865476" stroke="black" stroke-width="1" />
  <line x1="98.63961030678928" y1="32.071067811865476" x2="103.63961030678928" y2="32.071067811865476" stroke="black" stroke-width="1" />
  <line x1="103.63961030678928" y1="32.071067811865476" x2="108.63961030678928" y2="32.071067811865476" stroke="black" stroke-width="1" />
  <line x1="108.63961030678928" y1="32.071067811865476" x2="112.17514421272202" y2="35.60660171779821" stroke="black" stroke-width="1" />
  <line x1="112.17514421272202" y1="35.60660171779821" x2="115.71067811865476" y2="39.14213562373095" stroke="black" stroke-width="1" />
  <line x1="115.71067811865476" y1="39.14213562373095" x2="115.71067811865476" y2="44.14213562373095" stroke="black" stroke-width="1" />
  <line x1="115.71067811865476" y1="39.14213562373095" x2="120.71067811865476" y2="39.14213562373095" stroke="black" stroke-width="1" />
  <line x1="108.63961030678928" y1="32.071067811865476" x2="112.17514421272202" y2="28.535533905932738" stroke="black" stroke-width="1" />
  <line x1="112.17514421272202" y1="28.535533905932738" x2="115.71067811865476" y2="25.0" stroke="black" stroke-width="1" />
  <line x1="115.71067811865476" y1="25.0" x2="120.71067811865476" y2="25.0" stroke="black" stroke-width="1" />
  <line x1="115.71067811865476" y1="25.0" x2="115.71067811865476" y2="20.0" stroke="black" stroke-width="1" />
  <line x1="88.63961030678928" y1="32.071067811865476" x2="88.63961030678928" y2="27.071067811865476" stroke="black" stroke-width="1" />
  <line x1="88.63961030678928" y1="27.071067811865476" x2="88.63961030678928" y2="22.071067811865476" stroke="black" stroke-width="1" />
  <line x1="88.63961030678928" y1="22.071067811865476" x2="88.63961030678928" y2="17.071067811865476" stroke="black" stroke-width="1" />
  <line x1="88.63961030678928" y1="17.071067811865476" x2="88.63961030678928" y2="12.071067811865476" stroke="black" stroke-width="1" />
  <line x1="88.63961030678928" y1="12.071067811865476" x2="92.17514421272202" y2="8.535533905932738" stroke="black" stroke-width="1" />
  <line x1="92.17514421272202" y1="8.535533905932738" x2="95.71067811865476" y2="5.0" stroke="black" stroke-width="1" />
  <line x1="95.71067811865476" y1="5.0" x2="100.71067811865476" y2="5.0" stroke="black" stroke-width="1" />
  <line x1="95.71067811865476" y1="5.0" x2="95.71067811865476" y2="0.0" stroke="black" stroke-width="1" />
  <line x1="88.63961030678928" y1="12.071067811865476" x2="85.10407640085654" y2="8.535533905932738" stroke="black" stroke-width="1" />
  <line x1="85.10407640085654" y1="8.535533905932738" x2="81.5685424949238" y2="5.0" stroke="black" stroke-width="1" />
  <line x1="81.5685424949238" y1="5.0" x2="81.5685424949238" y2="0.0" stroke="black" stroke-width="1" />
  <line x1="81.5685424949238" y1="5.0" x2="76.5685424949238" y2="5.0" stroke="black" stroke-width="1" />
  <line x1="60.35533905932738" y1="60.35533905932738" x2="56.81980515339464" y2="56.81980515339464" stroke="black" stroke-width="1" />
  <line x1="56.81980515339464" y1="56.81980515339464" x2="53.2842712474619" y2="53.2842712474619" stroke="black" stroke-width="1" />
  <line x1="53.2842712474619" y1="53.2842712474619" x2="49.748737341529164" y2="49.748737341529164" stroke="black" stroke-width="1" />
  <line x1="49.748737341529164" y1="49.748737341529164" x2="46.21320343559643" y2="46.21320343559643" stroke="black" stroke-width="1" />
  <line x1="46.21320343559643" y1="46.21320343559643" x2="42.67766952966369" y2="42.67766952966369" stroke="black" stroke-width="1" />
  <line x1="42.67766952966369" y1="42.67766952966369" x2="39.14213562373095" y2="39.14213562373095" stroke="black" stroke-width="1" />
  <line x1="39.14213562373095" y1="39.14213562373095" x2="35.60660171779821" y2="35.60660171779821" stroke="black" stroke-width="1" />
  <line x1="35.60660171779821" y1="35.60660171779821" x2="32.071067811865476" y2="32.071067811865476" stroke="black" stroke-width="1" />
  <line x1="32.071067811865476" y1="32.071067811865476" x2="32.071067811865476" y2="27.071067811865476" stroke="black" stroke-width="1" />
  <line x1="32.071067811865476" y1="27.071067811865476" x2="32.071067811865476" y2="22.071067811865476" stroke="black" stroke-width="1" />
  <line x1="32.071067811865476" y1="22.071067811865476" x2="32.071067811865476" y2="17.071067811865476" stroke="black" stroke-width="1" />
  <line x1="32.071067811865476" y1="17.071067811865476" x2="32.071067811865476" y2="12.071067811865476" stroke="black" stroke-width="1" />
  <line x1="32.071067811865476" y1="12.071067811865476" x2="35.60660171779821" y2="8.535533905932738" stroke="black" stroke-width="1" />
  <line x1="35.60660171779821" y1="8.535533905932738" x2="39.14213562373095" y2="5.0" stroke="black" stroke-width="1" />
  <line x1="39.14213562373095" y1="5.0" x2="44.14213562373095" y2="5.0" stroke="black" stroke-width="1" />
  <line x1="39.14213562373095" y1="5.0" x2="39.14213562373095" y2="0.0" stroke="black" stroke-width="1" />
  <line x1="32.071067811865476" y1="12.071067811865476" x2="28.535533905932738" y2="8.535533905932738" stroke="black" stroke-width="1" />
  <line x1="28.535533905932738" y1="8.535533905932738" x2="25.0" y2="5.0" stroke="black" stroke-width="1" />
  <line x1="25.0" y1="5.0" x2="25.0" y2="0.0" stroke="black" stroke-width="1" />
  <line x1="25.0" y1="5.0" x2="20.0" y2="5.0" stroke="black" stroke-width="1" />
  <line x1="32.071067811865476" y1="32.071067811865476" x2="27.071067811865476" y2="32.071067811865476" stroke="black" stroke-width="1" />
  <line x1="27.071067811865476" y1="32.071067811865476" x2="22.071067811865476" y2="32.071067811865476" stroke="black" stroke-width="1" />
  <line x1="22.071067811865476" y1="32.071067811865476" x2="17.071067811865476" y2="32.071067811865476" stroke="black" stroke-width="1" />
  <line x1="17.071067811865476" y1="32.071067811865476" x2="12.071067811865476" y2="32.071067811865476" stroke="black" stroke-width="1" />
  <line x1="12.071067811865476" y1="32.071067811865476" x2="8.535533905932738" y2="28.535533905932738" stroke="black" stroke-width="1" />
  <line x1="8.535533905932738" y1="28.535533905932738" x2="5.0" y2="25.0" stroke="black" stroke-width="1" />
  <line x1="5.0" y1="25.0" x2="5.0" y2="20.0" stroke="black" stroke-width="1" />
  <line x1="5.0" y1="25.0" x2="0.0" y2="25.0" stroke="black" stroke-width="1" />
  <line x1="12.071067811865476" y1="32.071067811865476" x2="8.535533905932738" y2="35.60660171779821" stroke="black" stroke-width="1" />
  <line x1="8.535533905932738" y1="35.60660171779821" x2="5.0" y2="39.14213562373095" stroke="black" stroke-width="1" />
  <line x1="5.0" y1="39.14213562373095" x2="0.0" y2="39.14213562373095" stroke="black" stroke-width="1" />
  <line x1="5.0" y1="39.14213562373095" x2="5.0" y2="44.14213562373095" stroke="black" stroke-width="1" />
</svg>
