<?xml version="1.0" encoding="UTF-8" ?>
<svg xmlns="http://www.w3.org/2000/svg" version="1.1" width="510.3556572604803" height="496.1248180613824">
  <line x1="182.44415400953955" y1="90.38626643638844" x2="185.44415400953955" y2="87.38626643638844" stroke="red" stroke-width="4" />
  <line x1="447.52869785306484" y1="312.0996110204273" x2="450.52869785306484" y2="309.0996110204273" stroke="red" stroke-width="4" />
  <line x1="286.3768735575592" y1="88.77150850467018" x2="289.3768735575592" y2="85.77150850467018" stroke="red" stroke-width="4" />
  <line x1="341.42977224190207" y1="27.380023643469656" x2="344.42977224190207" y2="24.380023643469656" stroke="red" stroke-width="4" />
  <line x1="8.206884527102886" y1="495.4964724570775" x2="11.206884527102886" y2="492.4964724570775" stroke="red" stroke-width="4" />
  <line x1="287.3116363603878" y1="374.3505253947393" x2="290.3116363603878" y2="371.3505253947393" stroke="red" stroke-width="4" />
  <line x1="93.09854950829146" y1="361.1291803131851" x2="96.09854950829146" y2="358.1291803131851" stroke="red" stroke-width="4" />
  <line x1="254.97914275238435" y1="13.858441908110024" x2="257.97914275238435" y2="10.858441908110024" stroke="red" stroke-width="4" />
  <line x1="310.1952980929273" y1="293.4052396983315" x2="313.1952980929273" y2="290.4052396983315" stroke="red" stroke-width="4" />
  <line x1="453.1650478904612" y1="51.439268925956924" x2="456.1650478904612" y2="48.439268925956924" stroke="red" stroke-width="4" />
  <line x1="138.91997664408996" y1="122.16473411990722" x2="141.91997664408996" y2="119.16473411990722" stroke="red" stroke-width="4" />
  <line x1="105.99362223950766" y1="240.06921163141538" x2="108.99362223950766" y2="237.06921163141538" stroke="red" stroke-width="4" />
  <line x1="115.91463306855741" y1="392.83145552161676" x2="118.91463306855741" y2="389.83145552161676" stroke="red" stroke-width="4" />
  <line x1="379.7652143524872" y1="183.7591923823357" x2="382.7652143524872" y2="180.7591923823357" stroke="red" stroke-width="4" />
  <line x1="353.7163260342284" y1="144.64134964988244" x2="356.7163260342284" y2="141.64134964988244" stroke="red" stroke-width="4" />
  <line x1="255.3971232614149" y1="380.72247841008243" x2="258.3971232614149" y2="377.72247841008243" stroke="red" stroke-width="4" />
  <line x1="446.4195204140814" y1="7.547942526694442" x2="449.4195204140814" y2="4.547942526694442" stroke="red" stroke-width="4" />
  <line x1="0.0" y1="98.03530658298587" x2="3.0" y2="95.03530658298587" stroke="red" stroke-width="4" />
  <line x1="109.2604924188222" y1="210.96312678832885" x2="112.2604924188222" y2="207.96312678832885" stroke="red" stroke-width="4" />
  <line x1="80.40183058524701" y1="286.88442574351814" x2="83.40183058524701" y2="283.88442574351814" stroke="red" stroke-width="4" />
  <line x1="421.6718429836496" y1="270.49399236916906" x2="424.6718429836496" y2="267.49399236916906" stroke="red" stroke-width="4" />
  <line x1="397.26363983201117" y1="394.0014615359199" x2="400.26363983201117" y2="391.0014615359199" stroke="red" stroke-width="4" />
  <line x1="506.6484327327806" y1="76.85251676896752" x2="509.6484327327806" y2="73.85251676896752" stroke="red" stroke-width="4" />
  <line x1="246.36308890821135" y1="283.1378338936314" x2="249.36308890821135" y2="280.1378338936314" stroke="red" stroke-width="4" />
  <line x1="403.6508286779659" y1="36.260780386812655" x2="406.6508286779659" y2="33.260780386812655" stroke="red" stroke-width="4" />
  <line x1="445.27832233678583" y1="358.0252733356127" x2="448.27832233678583" y2="355.0252733356127" stroke="red" stroke-width="4" />
  <line x1="376.9350061381851" y1="41.09379493678347" x2="379.9350061381851" y2="38.09379493678347" stroke="red" stroke-width="4" />
  <line x1="225.2157028633664" y1="318.22049322635553" x2="228.2157028633664" y2="315.22049322635553" stroke="red" stroke-width="4" />
  <line x1="137.41272040637847" y1="406.23108076108264" x2="140.41272040637847" y2="403.23108076108264" stroke="red" stroke-width="4" />
  <line x1="15.467222251352439" y1="285.4195690055429" x2="18.46722225135244" y2="282.4195690055429" stroke="red" stroke-width="4" />
  <line x1="159.53196031515802" y1="163.46035906891024" x2="162.53196031515802" y2="160.46035906891024" stroke="red" stroke-width="4" />
  <line x1="134.64852008696232" y1="172.623339015262" x2="137.64852008696232" y2="169.623339015262" stroke="red" stroke-width="4" />
  <line x1="494.29357986428204" y1="136.51757175509437" x2="497.29357986428204" y2="133.51757175509437" stroke="red" stroke-width="4" />
  <line x1="507.3556572604803" y1="392.95775250200967" x2="510.3556572604803" y2="389.95775250200967" stroke="red" stroke-width="4" />
  <line x1="0.46068643599318193" y1="463.54727933417297" x2="3.460686435993182" y2="460.54727933417297" stroke="red" stroke-width="4" />
  <line x1="18.91214998011486" y1="494.68201781535436" x2="21.91214998011486" y2="491.68201781535436" stroke="red" stroke-width="4" />
  <line x1="247.30594382481797" y1="157.26698414446508" x2="250.30594382481797" y2="154.26698414446508" stroke="red" stroke-width="4" />
  <line x1="136.24565334582587" y1="363.9611942160183" x2="139.24565334582587" y2="360.9611942160183" stroke="red" stroke-width="4" />
  <line x1="135.53429629911346" y1="29.158259466262905" x2="138.53429629911346" y2="26.158259466262905" stroke="red" stroke-width="4" />
  <line x1="14.888919247731735" y1="411.91261833693807" x2="17.888919247731735" y2="408.91261833693807" stroke="red" stroke-width="4" />
  <line x1="434.76145443261896" y1="27.332299955557062" x2="437.76145443261896" y2="24.332299955557062" stroke="red" stroke-width="4" />
  <line x1="224.65692560159664" y1="442.61653471598805" x2="227.65692560159664" y2="439.61653471598805" stroke="red" stroke-width="4" />
  <line x1="120.98233991350321" y1="317.94363482721536" x2="123.98233991350321" y2="314.94363482721536" stroke="red" stroke-width="4" />
  <line x1="140.0302783224388" y1="61.14344162815212" x2="143.0302783224388" y2="58.14344162815212" stroke="red" stroke-width="4" />
  <line x1="481.1502769653981" y1="357.43100175546886" x2="484.1502769653981" y2="354.43100175546886" stroke="red" stroke-width="4" />
  <line x1="478.87563098142635" y1="48.8369191094759" x2="481.87563098142635" y2="45.8369191094759" stroke="red" stroke-width="4" />
  <line x1="384.9098739971738" y1="193.76159945077706" x2="387.9098739971738" y2="190.76159945077706" stroke="red" stroke-width="4" />
  <line x1="445.9243444743375" y1="199.5236487119514" x2="448.9243444743375" y2="196.5236487119514" stroke="red" stroke-width="4" />
  <line x1="115.50116000336584" y1="373.71866822338404" x2="118.50116000336584" y2="370.71866822338404" stroke="red" stroke-width="4" />
  <line x1="240.02952309803123" y1="297.1706113715181" x2="243.02952309803123" y2="294.1706113715181" stroke="red" stroke-width="4" />
  <line x1="170.2229373207271" y1="126.12304399429041" x2="173.2229373207271" y2="123.12304399429041" stroke="red" stroke-width="4" />
  <line x1="160.14658154365765" y1="44.6500952689089" x2="163.14658154365765" y2="41.6500952689089" stroke="red" stroke-width="4" />
  <line x1="135.83171871331604" y1="298.38116001163826" x2="138.83171871331604" y2="295.38116001163826" stroke="red" stroke-width="4" />
  <line x1="92.69231592682331" y1="324.86722517283977" x2="95.69231592682331" y2="321.86722517283977" stroke="red" stroke-width="4" />
  <line x1="175.16812924683865" y1="489.3970442764346" x2="178.16812924683865" y2="486.3970442764346" stroke="red" stroke-width="4" />
  <line x1="380.02286234193934" y1="60.881378983392835" x2="383.02286234193934" y2="57.881378983392835" stroke="red" stroke-width="4" />
  <line x1="178.7991986057965" y1="413.99784033264837" x2="181.7991986057965" y2="410.99784033264837" stroke="red" stroke-width="4" />
  <line x1="14.275509302374473" y1="474.4318618427013" x2="17.275509302374473" y2="471.4318618427013" stroke="red" stroke-width="4" />
  <line x1="96.64640497818931" y1="234.768332096452" x2="99.64640497818931" y2="231.768332096452" stroke="red" stroke-width="4" />
  <line x1="55.19897329587212" y1="232.28585727142251" x2="58.19897329587212" y2="229.28585727142251" stroke="red" stroke-width="4" />
  <line x1="439.82413930614064" y1="3.0" x2="442.82413930614064" y2="0.0" stroke="red" stroke-width="4" />
  <line x1="437.93549529539104" y1="9.483406320349104" x2="440.93549529539104" y2="6.483406320349104" stroke="red" stroke-width="4" />
  <line x1="230.29774621432574" y1="479.00923166241876" x2="233.29774621432574" y2="476.00923166241876" stroke="red" stroke-width="4" />
  <line x1="169.28124081456156" y1="60.387354147890335" x2="172.28124081456156" y2="57.387354147890335" stroke="red" stroke-width="4" />
  <line x1="442.2960374415234" y1="269.8893814960711" x2="445.2960374415234" y2="266.8893814960711" stroke="red" stroke-width="4" />
  <line x1="304.3175993053663" y1="270.65974806686427" x2="307.3175993053663" y2="267.65974806686427" stroke="red" stroke-width="4" />
  <line x1="297.9684150030184" y1="91.73743252238006" x2="300.9684150030184" y2="88.73743252238006" stroke="red" stroke-width="4" />
  <line x1="11.634357145624278" y1="435.8382000604027" x2="14.634357145624278" y2="432.8382000604027" stroke="red" stroke-width="4" />
  <line x1="4.000519302258851" y1="8.161704262137903" x2="7.000519302258851" y2="5.161704262137903" stroke="red" stroke-width="4" />
  <line x1="316.27483994318715" y1="58.93617700668716" x2="319.27483994318715" y2="55.93617700668716" stroke="red" stroke-width="4" />
  <line x1="464.4931912244061" y1="127.46649053034082" x2="467.4931912244061" y2="124.46649053034082" stroke="red" stroke-width="4" />
  <line x1="429.6278774719489" y1="443.01997248100326" x2="432.6278774719489" y2="440.01997248100326" stroke="red" stroke-width="4" />
  <line x1="215.39608656047903" y1="449.5778162817381" x2="218.39608656047903" y2="446.5778162817381" stroke="red" stroke-width="4" />
  <line x1="213.93472056754797" y1="236.79436092218134" x2="216.93472056754797" y2="233.79436092218134" stroke="red" stroke-width="4" />
  <line x1="277.30924015725566" y1="201.066202895603" x2="280.30924015725566" y2="198.066202895603" stroke="red" stroke-width="4" />
  <line x1="65.57118565167701" y1="142.96316634128357" x2="68.57118565167701" y2="139.96316634128357" stroke="red" stroke-width="4" />
  <line x1="355.0169600424262" y1="196.70708295975862" x2="358.0169600424262" y2="193.70708295975862" stroke="red" stroke-width="4" />
  <line x1="17.43903120308022" y1="44.383686563022195" x2="20.43903120308022" y2="41.383686563022195" stroke="red" stroke-width="4" />
  <line x1="439.67656223218086" y1="26.244344012787792" x2="442.67656223218086" y2="23.244344012787792" stroke="red" stroke-width="4" />
  <line x1="139.71274645204613" y1="182.69931338655914" x2="142.71274645204613" y2="179.69931338655914" stroke="red" stroke-width="4" />
  <line x1="16.085096358983265" y1="366.0737094420944" x2="19.085096358983265" y2="363.0737094420944" stroke="red" stroke-width="4" />
  <line x1="226.63623809296115" y1="268.3946422262872" x2="229.63623809296115" y2="265.3946422262872" stroke="red" stroke-width="4" />
  <line x1="58.452518508058574" y1="434.1695836611256" x2="61.452518508058574" y2="431.1695836611256" stroke="red" stroke-width="4" />
  <line x1="283.6745399442965" y1="418.4498003241373" x2="286.6745399442965" y2="415.4498003241373" stroke="red" stroke-width="4" />
  <line x1="116.034543319107" y1="249.2039404674756" x2="119.034543319107" y2="246.2039404674756" stroke="red" stroke-width="4" />
  <line x1="266.1175591692616" y1="317.15018725610366" x2="269.1175591692616" y2="314.15018725610366" stroke="red" stroke-width="4" />
  <line x1="394.4056147905307" y1="490.5170349713284" x2="397.4056147905307" y2="487.5170349713284" stroke="red" stroke-width="4" />
  <line x1="284.7542785156463" y1="300.51957592301045" x2="287.7542785156463" y2="297.51957592301045" stroke="red" stroke-width="4" />
  <line x1="154.71631808372706" y1="464.37068862547517" x2="157.71631808372706" y2="461.37068862547517" stroke="red" stroke-width="4" />
  <line x1="39.972628855660275" y1="21.38505611244642" x2="42.972628855660275" y2="18.38505611244642" stroke="red" stroke-width="4" />
  <line x1="180.65445062216344" y1="107.78118591932326" x2="183.65445062216344" y2="104.78118591932326" stroke="red" stroke-width="4" />
  <line x1="2.0846429017828996" y1="339.0871187754069" x2="5.0846429017829" y2="336.0871187754069" stroke="red" stroke-width="4" />
  <line x1="414.95586662143785" y1="469.68979012025375" x2="417.95586662143785" y2="466.68979012025375" stroke="red" stroke-width="4" />
  <line x1="63.61890910676141" y1="450.51020705064195" x2="66.61890910676141" y2="447.51020705064195" stroke="red" stroke-width="4" />
  <line x1="376.2644464590306" y1="387.8732887541004" x2="379.2644464590306" y2="384.8732887541004" stroke="red" stroke-width="4" />
  <line x1="328.60215541108244" y1="408.55893398293244" x2="331.60215541108244" y2="405.55893398293244" stroke="red" stroke-width="4" />
  <line x1="129.43883335473072" y1="222.71465773674947" x2="132.43883335473072" y2="219.71465773674947" stroke="red" stroke-width="4" />
  <line x1="378.62119251907603" y1="210.028938302749" x2="381.62119251907603" y2="207.028938302749" stroke="red" stroke-width="4" />
  <line x1="116.62850534638108" y1="122.71845430853011" x2="119.62850534638108" y2="119.71845430853011" stroke="red" stroke-width="4" />
  <line x1="210.97118866154295" y1="469.0134247735288" x2="213.97118866154295" y2="466.0134247735288" stroke="red" stroke-width="4" />
  <line x1="9.880273282626831" y1="496.1248180613824" x2="12.880273282626831" y2="493.1248180613824" stroke="red" stroke-width="4" />
  <line x1="175.1879149905755" y1="463.5426958165826" x2="178.1879149905755" y2="460.5426958165826" stroke="red" stroke-width="4" />
  <line x1="145.9800671152804" y1="143.59993300854774" x2="148.9800671152804" y2="140.59993300854774" stroke="red" stroke-width="4" />
  <line x1="358.5322908216649" y1="130.31454055472403" x2="361.5322908216649" y2="127.31454055472403" stroke="red" stroke-width="4" />
  <line x1="389.62771240161896" y1="326.72142560584314" x2="392.62771240161896" y2="323.72142560584314" stroke="red" stroke-width="4" />
  <line x1="454.42796066761974" y1="472.0287761605148" x2="457.42796066761974" y2="469.0287761605148" stroke="red" stroke-width="4" />
  <line x1="197.97751873297688" y1="445.5796698190178" x2="200.97751873297688" y2="442.5796698190178" stroke="red" stroke-width="4" />
  <line x1="156.0984948987819" y1="312.96031941482465" x2="159.0984948987819" y2="309.96031941482465" stroke="red" stroke-width="4" />
  <line x1="247.99313729621622" y1="379.2786499557075" x2="250.99313729621622" y2="376.2786499557075" stroke="red" stroke-width="4" />
  <line x1="282.06340565175935" y1="463.8786549791306" x2="285.06340565175935" y2="460.8786549791306" stroke="red" stroke-width="4" />
  <line x1="258.74836048674257" y1="92.3764466005635" x2="261.74836048674257" y2="89.3764466005635" stroke="red" stroke-width="4" />
  <line x1="85.60980536055916" y1="335.0407330739387" x2="88.60980536055916" y2="332.0407330739387" stroke="red" stroke-width="4" />
  <line x1="200.97753579461153" y1="231.2703421867322" x2="203.97753579461153" y2="228.2703421867322" stroke="red" stroke-width="4" />
  <line x1="296.39117778468705" y1="385.65155677774925" x2="299.39117778468705" y2="382.65155677774925" stroke="red" stroke-width="4" />
  <line x1="485.1166955667564" y1="96.41752909367585" x2="488.1166955667564" y2="93.41752909367585" stroke="red" stroke-width="4" />
  <line x1="165.4134876360357" y1="451.76198622132597" x2="168.4134876360357" y2="448.76198622132597" stroke="red" stroke-width="4" />
  <line x1="251.70468596816858" y1="406.5408538850454" x2="254.70468596816858" y2="403.5408538850454" stroke="red" stroke-width="4" />
  <line x1="415.97984711821255" y1="326.3673763151261" x2="418.97984711821255" y2="323.3673763151261" stroke="red" stroke-width="4" />
  <line x1="318.9806223119609" y1="446.6007883281074" x2="321.9806223119609" y2="443.6007883281074" stroke="red" stroke-width="4" />
  <line x1="273.9894747434681" y1="352.21379532057773" x2="276.9894747434681" y2="349.21379532057773" stroke="red" stroke-width="4" />
  <line x1="149.57484672327342" y1="367.5400179078723" x2="152.57484672327342" y2="364.5400179078723" stroke="red" stroke-width="4" />
  <line x1="433.73247306718054" y1="202.91388634285858" x2="436.73247306718054" y2="199.91388634285858" stroke="red" stroke-width="4" />
  <line x1="86.81839002854935" y1="175.41008920554896" x2="89.81839002854935" y2="172.41008920554896" stroke="red" stroke-width="4" />
  <line x1="152.8527209494643" y1="293.017546325116" x2="155.8527209494643" y2="290.017546325116" stroke="red" stroke-width="4" />
  <line x1="445.8887080015539" y1="445.2958152006092" x2="448.8887080015539" y2="442.2958152006092" stroke="red" stroke-width="4" />
  <line x1="260.4668187653298" y1="439.14953729484074" x2="263.4668187653298" y2="436.14953729484074" stroke="red" stroke-width="4" />
  <line x1="484.81374827291614" y1="253.80386112129355" x2="487.81374827291614" y2="250.80386112129355" stroke="red" stroke-width="4" />
  <line x1="217.1822793056811" y1="56.31819026415502" x2="220.1822793056811" y2="53.31819026415502" stroke="red" stroke-width="4" />
  <line x1="11.380273282626831" y1="494.6248180613824" x2="395.9056147905307" y2="489.0170349713284" stroke="black" stroke-width="1" />
  <line x1="395.9056147905307" y1="489.0170349713284" x2="455.92796066761974" y2="470.5287761605148" stroke="black" stroke-width="1" />
  <line x1="455.92796066761974" y1="470.5287761605148" x2="508.8556572604803" y2="391.45775250200967" stroke="black" stroke-width="1" />
  <line x1="508.8556572604803" y1="391.45775250200967" x2="508.1484327327806" y2="75.35251676896752" stroke="black" stroke-width="1" />
  <line x1="508.1484327327806" y1="75.35251676896752" x2="447.9195204140814" y2="6.047942526694442" stroke="black" stroke-width="1" />
  <line x1="447.9195204140814" y1="6.047942526694442" x2="441.32413930614064" y2="1.5" stroke="black" stroke-width="1" />
  <line x1="441.32413930614064" y1="1.5" x2="5.500519302258851" y2="6.661704262137903" stroke="black" stroke-width="1" />
  <line x1="5.500519302258851" y1="6.661704262137903" x2="1.5" y2="96.53530658298587" stroke="black" stroke-width="1" />
  <line x1="1.5" y1="96.53530658298587" x2="1.960686435993182" y2="462.04727933417297" stroke="black" stroke-width="1" />
  <line x1="1.960686435993182" y1="462.04727933417297" x2="9.706884527102886" y2="493.9964724570775" stroke="black" stroke-width="1" />
  <line x1="9.706884527102886" y1="493.9964724570775" x2="11.380273282626831" y2="494.6248180613824" stroke="black" stroke-width="1" />
</svg>
