<?xml version="1.0" encoding="UTF-8" ?>
<svg xmlns="http://www.w3.org/2000/svg" version="1.1" width="242.58180322224385" height="222.4641348858384">
  <line x1="36.936519287876635" y1="36.412849020957566" x2="64.06264382176357" y2="7.0160232097912" stroke="black" stroke-width="1" />
  <line x1="177.4456980517154" y1="20.939606124651277" x2="137.44670540765014" y2="20.65572681928859" stroke="black" stroke-width="1" />
  <line x1="146.99875549685535" y1="136.23187635883852" x2="134.74560453957778" y2="98.15484533463487" stroke="black" stroke-width="1" />
  <line x1="14.69280623934094" y1="74.23740083448078" x2="54.63249834493129" y2="72.04172451255991" stroke="black" stroke-width="1" />
  <line x1="150.3833234807621" y1="69.09832475752887" x2="169.37022724949716" y2="33.891826986850305" stroke="black" stroke-width="1" />
  <line x1="110.75295246507793" y1="97.1381783489628" x2="149.12047340419429" y2="85.82741635047358" stroke="black" stroke-width="1" />
  <line x1="164.03557994281852" y1="111.4972903102743" x2="138.07810316177026" y2="81.06360175365435" stroke="black" stroke-width="1" />
  <line x1="61.217497013277914" y1="148.30069308280457" x2="94.55676379760408" y2="126.19880876758103" stroke="black" stroke-width="1" />
  <line x1="193.23119077185868" y1="192.75585237195224" x2="216.32036338023158" y2="160.09256857713513" stroke="black" stroke-width="1" />
  <line x1="40.45752516585032" y1="64.17973419212768" x2="31.73300460003153" y2="103.21667491366227" stroke="black" stroke-width="1" />
  <line x1="156.86649518002216" y1="81.35102000055804" x2="137.88202934738095" y2="116.55883244395304" stroke="black" stroke-width="1" />
  <line x1="28.525688522948492" y1="167.3477609248692" x2="35.832374860111244" y2="206.67475336988485" stroke="black" stroke-width="1" />
  <line x1="94.55838715249465" y1="126.67374923922013" x2="60.52844975511395" y2="105.65082459181792" stroke="black" stroke-width="1" />
  <line x1="73.55759270443059" y1="128.88574650733267" x2="111.76298961103174" y2="140.7325877407194" stroke="black" stroke-width="1" />
  <line x1="196.3642157054975" y1="23.664297642566424" x2="233.6458754601228" y2="9.17023520512845" stroke="black" stroke-width="1" />
  <line x1="166.14032410337347" y1="108.18135086602017" x2="205.38922545385537" y2="115.89651403863941" stroke="black" stroke-width="1" />
  <line x1="56.749202597031235" y1="113.59345446912089" x2="96.67296562647306" y2="111.12502469110949" stroke="black" stroke-width="1" />
  <line x1="65.06235007225638" y1="163.09534364243015" x2="30.567404315043987" y2="183.34623787470974" stroke="black" stroke-width="1" />
  <line x1="162.55902947604943" y1="80.24676962687096" x2="156.35322250916104" y2="40.73110235565156" stroke="black" stroke-width="1" />
  <line x1="166.17254426475412" y1="40.715357850988056" x2="141.31747819053285" y2="9.374877790113203" stroke="black" stroke-width="1" />
  <line x1="74.75869659297791" y1="166.60477095028375" x2="95.29932622139611" y2="200.92797788769195" stroke="black" stroke-width="1" />
  <line x1="100.63518449990084" y1="67.05221687567075" x2="127.50244930691034" y2="37.41861969628616" stroke="black" stroke-width="1" />
  <line x1="18.544633522425137" y1="39.08089434811441" x2="7.956394240244547" y2="77.65406104341295" stroke="black" stroke-width="1" />
  <line x1="56.87345025602121" y1="64.94948441230369" x2="89.05485129619456" y2="88.70569259230433" stroke="black" stroke-width="1" />
  <line x1="100.59476468018735" y1="65.10601606661695" x2="63.78809246860881" y2="49.44495350019406" stroke="black" stroke-width="1" />
  <line x1="107.2074717456087" y1="29.716886248243952" x2="68.38284239431047" y2="20.091495049216718" stroke="black" stroke-width="1" />
  <line x1="180.56538197910763" y1="37.966371012495614" x2="196.82372697679148" y2="1.4196034682067307" stroke="black" stroke-width="1" />
  <line x1="50.705168931723826" y1="166.00560901176527" x2="15.075973969348468" y2="184.18693092006023" stroke="black" stroke-width="1" />
  <line x1="145.24991068687342" y1="145.54911916322882" x2="151.41484176248676" y2="106.02705412567117" stroke="black" stroke-width="1" />
  <line x1="76.90900304892605" y1="87.30005288313366" x2="86.46913506716521" y2="48.45930268705945" stroke="black" stroke-width="1" />
  <line x1="68.56308338884946" y1="28.204555661932176" x2="87.56245539514663" y2="63.40432644763945" stroke="black" stroke-width="1" />
  <line x1="105.7623103863315" y1="127.98691957749172" x2="123.38558987699713" y2="92.07842448240477" stroke="black" stroke-width="1" />
  <line x1="156.9276625708351" y1="128.51232430106182" x2="190.11813224692102" y2="150.83703533347662" stroke="black" stroke-width="1" />
  <line x1="14.614955552406075" y1="98.76346576218718" x2="54.565516167348875" y2="100.75160724401923" stroke="black" stroke-width="1" />
  <line x1="120.06280266940209" y1="62.421687213781155" x2="85.31591952326266" y2="82.23718901485933" stroke="black" stroke-width="1" />
  <line x1="69.27941413912723" y1="54.12771196858492" x2="90.51101772534037" y2="20.227579090410217" stroke="black" stroke-width="1" />
  <line x1="42.14661273321775" y1="87.13570590288552" x2="82.13971846843336" y2="86.39307971706583" stroke="black" stroke-width="1" />
  <line x1="157.71073805690094" y1="187.01525914514718" x2="176.24117811430463" y2="222.4641348858384" stroke="black" stroke-width="1" />
  <line x1="86.01021935352944" y1="73.64122117054299" x2="56.693241579876535" y2="100.85362301637686" stroke="black" stroke-width="1" />
  <line x1="53.284133452520024" y1="41.90109898620801" x2="83.83978953827898" y2="67.71489144622484" stroke="black" stroke-width="1" />
  <line x1="22.026188193196564" y1="145.69914305469035" x2="8.284350982103431" y2="108.13370801043968" stroke="black" stroke-width="1" />
  <line x1="85.73252169250833" y1="137.46611817984152" x2="55.1868088447022" y2="163.29167580439963" stroke="black" stroke-width="1" />
  <line x1="30.53776200305759" y1="16.873682626495025" x2="52.890451868148126" y2="50.04531592657656" stroke="black" stroke-width="1" />
  <line x1="147.59320499249603" y1="22.4739351875983" x2="187.52073717509083" y2="24.880628730170116" stroke="black" stroke-width="1" />
  <line x1="10.81705215770851" y1="71.54592562668907" x2="2.574067234591504" y2="32.40447445842926" stroke="black" stroke-width="1" />
  <line x1="54.41605790144156" y1="39.99999973671919" x2="54.41146851519669" y2="0.0" stroke="black" stroke-width="1" />
  <line x1="160.05768950343648" y1="55.117391086937914" x2="197.45215592776603" y2="40.91690233338824" stroke="black" stroke-width="1" />
  <line x1="48.06372425891453" y1="191.67373814856933" x2="8.137838991336523" y2="194.10760042901936" stroke="black" stroke-width="1" />
  <line x1="33.79524169117906" y1="94.04377568298597" x2="0.0" y2="72.64560662498494" stroke="black" stroke-width="1" />
  <line x1="203.4576045513709" y1="60.82333287230949" x2="242.58180322224385" y2="69.14781954489558" stroke="black" stroke-width="1" />
  <line x1="39.347904533996946" y1="33.67404555248103" x2="42.347904533996946" y2="30.674045552481033" stroke="red" stroke-width="4" />
  <line x1="52.913473264261036" y1="18.972916369991225" x2="55.913473264261036" y2="15.972916369991225" stroke="red" stroke-width="4" />
  <line x1="148.836485236765" y1="22.247207666737097" x2="151.836485236765" y2="19.247207666737097" stroke="red" stroke-width="4" />
  <line x1="138.12674898978395" y1="114.82314688516234" x2="141.12674898978395" y2="111.82314688516234" stroke="red" stroke-width="4" />
  <line x1="145.2997465662312" y1="137.1134501881424" x2="148.2997465662312" y2="134.1134501881424" stroke="red" stroke-width="4" />
  <line x1="37.00223273242056" y1="74.42848253207723" x2="40.00223273242056" y2="71.42848253207723" stroke="red" stroke-width="4" />
  <line x1="156.957088335903" y1="55.62753289827049" x2="159.957088335903" y2="52.62753289827049" stroke="red" stroke-width="4" />
  <line x1="164.38549130835426" y1="41.85340437922497" x2="167.38549130835426" y2="38.85340437922497" stroke="red" stroke-width="4" />
  <line x1="142.04352517285366" y1="88.9715031347797" x2="145.04352517285366" y2="85.9715031347797" stroke="red" stroke-width="4" />
  <line x1="121.11919237862062" y1="95.14000561864654" x2="124.11919237862062" y2="92.14000561864654" stroke="red" stroke-width="4" />
  <line x1="148.18417016881082" y1="96.1710656700786" x2="151.18417016881082" y2="93.1710656700786" stroke="red" stroke-width="4" />
  <line x1="92.68670701276295" y1="127.94413366634174" x2="95.68670701276295" y2="124.94413366634174" stroke="red" stroke-width="4" />
  <line x1="83.60330093021051" y1="133.9658734881412" x2="86.60330093021051" y2="130.9658734881412" stroke="red" stroke-width="4" />
  <line x1="31.02902630893536" y1="101.15496031523756" x2="34.02902630893536" y2="98.15496031523756" stroke="red" stroke-width="4" />
  <line x1="32.284598336838144" y1="95.53703661901915" x2="35.284598336838144" y2="92.53703661901915" stroke="red" stroke-width="4" />
  <line x1="29.906566026206953" y1="184.35359251222252" x2="32.90656602620695" y2="181.35359251222252" stroke="red" stroke-width="4" />
  <line x1="28.718632191910327" y1="177.95974135031497" x2="31.718632191910327" y2="174.95974135031497" stroke="red" stroke-width="4" />
  <line x1="31.713480562233105" y1="194.07900168240496" x2="34.7134805622331" y2="191.07900168240496" stroke="red" stroke-width="4" />
  <line x1="70.37173553526546" y1="114.15844965516669" x2="73.37173553526546" y2="111.15844965516669" stroke="red" stroke-width="4" />
  <line x1="150.41236387098482" y1="24.23427914611446" x2="153.41236387098482" y2="21.23427914611446" stroke="red" stroke-width="4" />
  <line x1="8.803042653171575" y1="70.6051741137959" x2="11.803042653171575" y2="67.6051741137959" stroke="red" stroke-width="4" />
  <line x1="76.98376191874013" y1="82.40214794156935" x2="79.98376191874013" y2="79.40214794156935" stroke="red" stroke-width="4" />
  <line x1="76.81887413521085" y1="82.28042830273296" x2="79.81887413521085" y2="79.28042830273296" stroke="red" stroke-width="4" />
  <line x1="82.59933463543942" y1="59.58728966544061" x2="85.59933463543942" y2="56.58728966544061" stroke="red" stroke-width="4" />
  <line x1="83.36939595630321" y1="59.914947065618094" x2="86.36939595630321" y2="56.914947065618094" stroke="red" stroke-width="4" />
  <line x1="68.93966195236933" y1="53.775164426388926" x2="71.93966195236933" y2="50.775164426388926" stroke="red" stroke-width="4" />
  <line x1="86.11070322611681" y1="26.358460903596523" x2="89.11070322611681" y2="23.358460903596523" stroke="red" stroke-width="4" />
  <line x1="184.9163723922809" y1="26.314061440729887" x2="187.9163723922809" y2="23.314061440729887" stroke="red" stroke-width="4" />
  <line x1="82.78512230477955" y1="58.83247451847578" x2="85.78512230477955" y2="55.83247451847578" stroke="red" stroke-width="4" />
  <line x1="75.60925075226416" y1="87.98648974322587" x2="78.60925075226416" y2="84.98648974322587" stroke="red" stroke-width="4" />
  <line x1="77.07142005471769" y1="82.04601188030341" x2="80.07142005471769" y2="79.04601188030341" stroke="red" stroke-width="4" />
  <line x1="80.59288006667191" y1="67.73908093114582" x2="83.59288006667191" y2="64.73908093114582" stroke="red" stroke-width="4" />
  <line x1="74.91001226018912" y1="44.24240973160133" x2="77.91001226018912" y2="41.24240973160133" stroke="red" stroke-width="4" />
  <line x1="70.57071683732815" y1="88.08004954946209" x2="73.57071683732815" y2="85.08004954946209" stroke="red" stroke-width="4" />
</svg>
