<?xml version="1.0" encoding="UTF-8" ?>
<svg xmlns="http://www.w3.org/2000/svg" version="1.1" width="487.64297403887844" height="389.8669117762828">
  <line x1="237.68011576528656" y1="259.86181232968875" x2="274.9917587735169" y2="238.33250775983515" stroke="black" stroke-width="1" />
  <line x1="487.50728357771715" y1="86.62833661582414" x2="450.17311427203407" y2="65.08847439619382" stroke="black" stroke-width="1" />
  <line x1="312.5576183786206" y1="389.700479978692" x2="312.5379504214361" y2="346.5968153669801" stroke="black" stroke-width="1" />
  <line x1="275.07633044588505" y1="368.05249678567674" x2="275.12314605701266" y2="324.9386897670584" stroke="black" stroke-width="1" />
  <line x1="225.16466459592272" y1="194.85674832400537" x2="225.09534986245322" y2="151.74043404776677" stroke="black" stroke-width="1" />
  <line x1="450.16069828716894" y1="194.84459888747787" x2="449.9947265016649" y2="151.72559981674482" stroke="black" stroke-width="1" />
  <line x1="0.13196142201089772" y1="151.57834147189783" x2="37.51568948608901" y2="130.08485997510786" stroke="black" stroke-width="1" />
  <line x1="375.1460391833835" y1="194.90739721441346" x2="412.4972526368463" y2="173.35214721408795" stroke="black" stroke-width="1" />
  <line x1="375.0378496950002" y1="281.5263410199876" x2="337.68144191506707" y2="259.9729459107841" stroke="black" stroke-width="1" />
  <line x1="237.62148022973014" y1="86.60761100333536" x2="275.0029805630861" y2="65.08159430815687" stroke="black" stroke-width="1" />
  <line x1="450.15740672871254" y1="21.66129123785032" x2="487.5548829443084" y2="0.16295084860951192" stroke="black" stroke-width="1" />
  <line x1="50.152646151361076" y1="64.95563305661574" x2="50.18075080911669" y2="21.818937743749416" stroke="black" stroke-width="1" />
  <line x1="125.02604641259377" y1="64.97218038245211" x2="87.61880940014602" y2="43.486025464700845" stroke="black" stroke-width="1" />
  <line x1="87.68312362378774" y1="173.23029723513906" x2="125.07431398267322" y2="151.7150085422556" stroke="black" stroke-width="1" />
  <line x1="412.67339120404046" y1="259.8400320702293" x2="450.04814667268664" y2="238.29505777509576" stroke="black" stroke-width="1" />
  <line x1="262.5541246952468" y1="43.349788193026484" x2="225.15999037387854" y2="21.837428375796264" stroke="black" stroke-width="1" />
  <line x1="74.99174802186967" y1="238.15783004553865" x2="37.6151520137035" y2="216.614759709608" stroke="black" stroke-width="1" />
  <line x1="262.5884368993761" y1="129.89269261989625" x2="262.658825112187" y2="86.75116174550459" stroke="black" stroke-width="1" />
  <line x1="425.1839867780054" y1="324.83242910515156" x2="462.55593580099605" y2="303.2757647423656" stroke="black" stroke-width="1" />
  <line x1="312.5990860355746" y1="259.8339174352991" x2="312.5964796111454" y2="216.6899671704219" stroke="black" stroke-width="1" />
  <line x1="125.02604641259377" y1="64.97218038245211" x2="125.11110361807948" y2="21.82714231845165" stroke="black" stroke-width="1" />
  <line x1="300.0466622905361" y1="238.15576442593584" x2="262.6274484484282" y2="216.6757977477303" stroke="black" stroke-width="1" />
  <line x1="462.5151138803171" y1="346.47174865010106" x2="425.1839867780054" y2="324.83242910515156" stroke="black" stroke-width="1" />
  <line x1="300.0719547137788" y1="194.8475914463479" x2="262.66326735703683" y2="173.34028511406328" stroke="black" stroke-width="1" />
  <line x1="487.50684907855486" y1="43.31431568947505" x2="487.5548829443084" y2="0.16295084860951192" stroke="black" stroke-width="1" />
  <line x1="337.57166884102196" y1="303.12422397138033" x2="337.68144191506707" y2="259.9729459107841" stroke="black" stroke-width="1" />
  <line x1="487.59600284381395" y1="259.83022970418847" x2="487.60392059123257" y2="216.67839623404817" stroke="black" stroke-width="1" />
  <line x1="449.9947265016649" y1="151.72559981674482" x2="412.6817970762052" y2="130.0468161541749" stroke="black" stroke-width="1" />
  <line x1="375.1588947569695" y1="108.26163721903578" x2="375.0833559145955" y2="65.10654656041407" stroke="black" stroke-width="1" />
  <line x1="225.08711899192747" y1="238.15528609789908" x2="187.66100757111138" y2="216.66767165950193" stroke="black" stroke-width="1" />
  <line x1="162.51905601789707" y1="346.4477352377761" x2="162.67351662234842" y2="303.291903874875" stroke="black" stroke-width="1" />
  <line x1="462.5564585863743" y1="129.93485990413677" x2="462.5301725129177" y2="86.77863522007084" stroke="black" stroke-width="1" />
  <line x1="462.4958464994046" y1="389.83117348801585" x2="425.1652970646964" y2="368.17583928723917" stroke="black" stroke-width="1" />
  <line x1="350.01252460686607" y1="151.6154941065442" x2="312.6067342007974" y2="130.09038279908748" stroke="black" stroke-width="1" />
  <line x1="150.17894003955954" y1="108.32251570798996" x2="187.57793390719" y2="86.78347599512847" stroke="black" stroke-width="1" />
  <line x1="150.02966690545193" y1="368.09963068306195" x2="150.13004294190944" y2="324.93710217987257" stroke="black" stroke-width="1" />
  <line x1="87.65602838692952" y1="389.74479892038283" x2="125.06049664903277" y2="368.20220104076435" stroke="black" stroke-width="1" />
  <line x1="312.5990860355746" y1="259.8339174352991" x2="350.00007406578527" y2="238.28230541360202" stroke="black" stroke-width="1" />
  <line x1="187.63893202405586" y1="259.83402002787426" x2="187.66100757111138" y2="216.66767165950193" stroke="black" stroke-width="1" />
  <line x1="487.64297403887844" y1="389.71236573736405" x2="487.5720639988786" y2="346.54578573523264" stroke="black" stroke-width="1" />
  <line x1="349.9968930051873" y1="65.07228785302283" x2="312.6272739862495" y2="43.460409097574086" stroke="black" stroke-width="1" />
  <line x1="262.6288239475279" y1="303.15270669951576" x2="300.03248715120714" y2="281.5980494861261" stroke="black" stroke-width="1" />
  <line x1="412.53795845066855" y1="216.5221255794925" x2="412.4972526368463" y2="173.35214721408795" stroke="black" stroke-width="1" />
  <line x1="275.07633044588505" y1="368.05249678567674" x2="312.5379504214361" y2="346.5968153669801" stroke="black" stroke-width="1" />
  <line x1="487.50684907855486" y1="43.31431568947505" x2="450.15740672871254" y2="21.66129123785032" stroke="black" stroke-width="1" />
  <line x1="237.62913892230944" y1="216.6222196809235" x2="275.0101596746178" y2="195.02337907996431" stroke="black" stroke-width="1" />
  <line x1="262.66784501719314" y1="389.8669117762828" x2="300.0228356930867" y2="368.22279004185424" stroke="black" stroke-width="1" />
  <line x1="12.615589799298922" y1="173.2483571222973" x2="50.038020979027856" y2="151.71627192413666" stroke="black" stroke-width="1" />
  <line x1="124.99321596149758" y1="108.25318423228862" x2="87.57824054440374" y2="86.7077225988138" stroke="black" stroke-width="1" />
  <line x1="450.08984123560913" y1="108.35241246515966" x2="412.68701145423967" y2="86.78576758664929" stroke="black" stroke-width="1" />
  <line x1="425.1644777687484" y1="281.58956252192667" x2="462.4924225651884" y2="259.89194706858734" stroke="black" stroke-width="1" />
  <line x1="87.68312362378774" y1="173.23029723513906" x2="87.50428451246026" y2="130.05467507165207" stroke="black" stroke-width="1" />
  <line x1="337.5738104778217" y1="173.21182270709014" x2="300.18556747737983" y2="151.61790035487303" stroke="black" stroke-width="1" />
  <line x1="375.1460391833835" y1="194.90739721441346" x2="375.0553693660062" y2="151.7312144174182" stroke="black" stroke-width="1" />
  <line x1="37.58512401377275" y1="86.61776491831733" x2="75.01515326799631" y2="65.09540768462864" stroke="black" stroke-width="1" />
  <line x1="275.07633044588505" y1="368.05249678567674" x2="237.6858231635843" y2="346.46038951057903" stroke="black" stroke-width="1" />
  <line x1="200.06570866504612" y1="324.8865379368245" x2="162.67351662234842" y2="303.291903874875" stroke="black" stroke-width="1" />
  <line x1="74.99174802186967" y1="238.15783004553865" x2="75.17666390276182" y2="194.97805794193252" stroke="black" stroke-width="1" />
  <line x1="50.152646151361076" y1="64.95563305661574" x2="87.61880940014602" y2="43.486025464700845" stroke="black" stroke-width="1" />
  <line x1="337.53469652604184" y1="43.304080312387555" x2="300.10891925849216" y2="21.763684440232396" stroke="black" stroke-width="1" />
  <line x1="237.6858231635843" y1="346.46038951057903" x2="275.12314605701266" y2="324.9386897670584" stroke="black" stroke-width="1" />
  <line x1="150.05903384072582" y1="194.84690897267387" x2="112.64828459977177" y2="173.27749172550844" stroke="black" stroke-width="1" />
  <line x1="350.0210777475322" y1="21.726824710903884" x2="312.66017750899937" y2="0.07117524646099582" stroke="black" stroke-width="1" />
  <line x1="150.11516873695263" y1="21.65223365677491" x2="187.51893191582332" y2="0.06477956174114752" stroke="black" stroke-width="1" />
  <line x1="487.568863594275" y1="173.20221190727358" x2="487.5249295874443" y2="130.01560818535245" stroke="black" stroke-width="1" />
  <line x1="12.564264431237875" y1="303.1564188484303" x2="12.52781172952358" y2="259.968742556217" stroke="black" stroke-width="1" />
  <line x1="75.00733117059548" y1="368.13222102005227" x2="37.64129551825924" y2="346.4767875409591" stroke="black" stroke-width="1" />
  <line x1="87.65602838692952" y1="389.74479892038283" x2="87.60619049983497" y2="346.55678329120553" stroke="black" stroke-width="1" />
  <line x1="350.00007406578527" y1="238.28230541360202" x2="312.5964796111454" y2="216.6899671704219" stroke="black" stroke-width="1" />
  <line x1="387.6853438268893" y1="86.68539833969106" x2="425.095360380883" y2="65.10349938340323" stroke="black" stroke-width="1" />
  <line x1="412.53795845066855" y1="216.5221255794925" x2="375.1460391833835" y2="194.90739721441346" stroke="black" stroke-width="1" />
  <line x1="200.0173670405034" y1="281.4977907722284" x2="162.5856878711144" y2="259.948309229385" stroke="black" stroke-width="1" />
  <line x1="425.0681113635885" y1="108.32066652952938" x2="387.6853438268893" y2="86.68539833969106" stroke="black" stroke-width="1" />
  <line x1="125.14378316974594" y1="324.8178242799776" x2="125.15070236280398" y2="281.6250448461796" stroke="black" stroke-width="1" />
  <line x1="375.1588947569695" y1="108.26163721903578" x2="337.6813381902333" y2="86.78857510802317" stroke="black" stroke-width="1" />
  <line x1="425.1294480179622" y1="238.2791616047841" x2="462.4993584737125" y2="216.6157209789116" stroke="black" stroke-width="1" />
  <line x1="462.5151138803171" y1="346.47174865010106" x2="462.55593580099605" y2="303.2757647423656" stroke="black" stroke-width="1" />
  <line x1="37.61922636035941" y1="303.1215599139904" x2="75.01685692192945" y2="281.50120531369265" stroke="black" stroke-width="1" />
  <line x1="337.50764945096057" y1="346.421978937564" x2="300.1076964403616" y2="324.8053575267098" stroke="black" stroke-width="1" />
  <line x1="275.04936737251853" y1="281.5317179418389" x2="237.68011576528656" y2="259.86181232968875" stroke="black" stroke-width="1" />
  <line x1="425.1652970646964" y1="368.17583928723917" x2="462.5151138803171" y2="346.47174865010106" stroke="black" stroke-width="1" />
  <line x1="37.583607459152084" y1="173.28197924043334" x2="74.9954559166397" y2="151.68451320756293" stroke="black" stroke-width="1" />
  <line x1="75.0771454625346" y1="108.29453247996054" x2="75.01515326799631" y2="65.09540768462864" stroke="black" stroke-width="1" />
  <line x1="275.04936737251853" y1="281.5317179418389" x2="274.9917587735169" y2="238.33250775983515" stroke="black" stroke-width="1" />
  <line x1="0.13196142201089772" y1="151.57834147189783" x2="0.057423421516927475" y2="108.37889543893829" stroke="black" stroke-width="1" />
  <line x1="337.5738104778217" y1="173.21182270709014" x2="375.0553693660062" y2="151.7312144174182" stroke="black" stroke-width="1" />
  <line x1="237.55209471537006" y1="129.96474568979949" x2="200.18747980177235" y2="108.28045905325155" stroke="black" stroke-width="1" />
  <line x1="337.68144191506707" y1="259.9729459107841" x2="375.0616118956024" y2="238.31528042014423" stroke="black" stroke-width="1" />
  <line x1="87.50428451246026" y1="130.05467507165207" x2="50.15656931495129" y2="108.34096777883565" stroke="black" stroke-width="1" />
  <line x1="300.1076964403616" y1="324.8053575267098" x2="300.03248715120714" y2="281.5980494861261" stroke="black" stroke-width="1" />
  <line x1="225.12744264313088" y1="65.04525815722394" x2="225.15999037387854" y2="21.837428375796264" stroke="black" stroke-width="1" />
  <line x1="125.16029164415882" y1="238.23648831741724" x2="125.03034911386189" y2="195.02591997452484" stroke="black" stroke-width="1" />
  <line x1="375.0378496950002" y1="281.5263410199876" x2="375.0616118956024" y2="238.31528042014423" stroke="black" stroke-width="1" />
  <line x1="337.5626768696422" y1="129.9996926828536" x2="337.6813381902333" y2="86.78857510802317" stroke="black" stroke-width="1" />
  <line x1="274.9917587735169" y1="238.33250775983515" x2="237.62913892230944" y2="216.6222196809235" stroke="black" stroke-width="1" />
  <line x1="262.658825112187" y1="86.75116174550459" x2="299.98931078174746" y2="64.98537795370038" stroke="black" stroke-width="1" />
  <line x1="162.54505537118484" y1="173.24023172167034" x2="125.07431398267322" y2="151.7150085422556" stroke="black" stroke-width="1" />
  <line x1="487.64297403887844" y1="389.71236573736405" x2="450.15815062790915" y2="368.20753203537106" stroke="black" stroke-width="1" />
  <line x1="237.66806322645124" y1="303.21662887324584" x2="275.04936737251853" y2="281.5317179418389" stroke="black" stroke-width="1" />
  <line x1="300.08009865268355" y1="108.36847310523524" x2="262.658825112187" y2="86.75116174550459" stroke="black" stroke-width="1" />
  <line x1="450.16069828716894" y1="194.84459888747787" x2="487.568863594275" y2="173.20221190727358" stroke="black" stroke-width="1" />
  <line x1="0.09594177604029451" y1="368.13559814813857" x2="0.08002325377673881" y2="324.9172240493126" stroke="black" stroke-width="1" />
  <line x1="450.17311427203407" y1="65.08847439619382" x2="487.50684907855486" y2="43.31431568947505" stroke="black" stroke-width="1" />
  <line x1="200.06947711838438" y1="21.711362005034175" x2="237.5221670904987" y2="0.14147545948941342" stroke="black" stroke-width="1" />
  <line x1="162.54098397304114" y1="216.49716356700688" x2="125.03034911386189" y2="195.02591997452484" stroke="black" stroke-width="1" />
  <line x1="87.57824054440374" y1="86.7077225988138" x2="87.61880940014602" y2="43.486025464700845" stroke="black" stroke-width="1" />
  <line x1="299.98931078174746" y1="64.98537795370038" x2="300.10891925849216" y2="21.763684440232396" stroke="black" stroke-width="1" />
  <line x1="225.16466459592272" y1="194.85674832400537" x2="187.66302599474645" y2="173.363598495379" stroke="black" stroke-width="1" />
  <line x1="237.5384976848547" y1="389.84151155303925" x2="200.12339365758913" y2="368.1975957063439" stroke="black" stroke-width="1" />
  <line x1="37.50791482180635" y1="389.7850246797628" x2="0.09594177604029451" y2="368.13559814813857" stroke="black" stroke-width="1" />
  <line x1="462.55593580099605" y1="303.2757647423656" x2="425.1644777687484" y2="281.58956252192667" stroke="black" stroke-width="1" />
  <line x1="262.5884368993761" y1="129.89269261989625" x2="225.14746173714738" y2="108.29103208158506" stroke="black" stroke-width="1" />
  <line x1="150.15435281604795" y1="151.54949845729686" x2="150.17894003955954" y2="108.32251570798996" stroke="black" stroke-width="1" />
  <line x1="412.53666055337953" y1="346.574223132076" x2="375.108617790391" y2="324.9465133516748" stroke="black" stroke-width="1" />
  <line x1="187.66302599474645" y1="173.363598495379" x2="225.09534986245322" y2="151.74043404776677" stroke="black" stroke-width="1" />
  <line x1="387.6085504158936" y1="43.38287976291508" x2="425.00217930800267" y2="21.692202877329294" stroke="black" stroke-width="1" />
  <line x1="12.564264431237875" y1="303.1564188484303" x2="50.01811342449167" y2="281.5697222471308" stroke="black" stroke-width="1" />
  <line x1="300.0719547137788" y1="194.8475914463479" x2="300.18556747737983" y2="151.61790035487303" stroke="black" stroke-width="1" />
  <line x1="200.1326164714069" y1="64.94151391663365" x2="200.06947711838438" y2="21.711362005034175" stroke="black" stroke-width="1" />
  <line x1="375.0276449503394" y1="368.17685401843045" x2="375.108617790391" y2="324.9465133516748" stroke="black" stroke-width="1" />
  <line x1="262.5884368993761" y1="129.89269261989625" x2="300.08009865268355" y2="108.36847310523524" stroke="black" stroke-width="1" />
  <line x1="162.62551096007593" y1="389.7111684442713" x2="200.12339365758913" y2="368.1975957063439" stroke="black" stroke-width="1" />
  <line x1="312.5379504214361" y1="346.5968153669801" x2="275.12314605701266" y2="324.9386897670584" stroke="black" stroke-width="1" />
  <line x1="150.15435281604795" y1="151.54949845729686" x2="187.65442858785156" y2="130.0377208412537" stroke="black" stroke-width="1" />
  <line x1="350.12952119431674" y1="368.09863331472144" x2="350.0461676673281" y2="324.8666169000665" stroke="black" stroke-width="1" />
  <line x1="337.6813381902333" y1="86.78857510802317" x2="375.0833559145955" y2="65.10654656041407" stroke="black" stroke-width="1" />
  <line x1="450.15815062790915" y1="368.20753203537106" x2="487.5720639988786" y2="346.54578573523264" stroke="black" stroke-width="1" />
  <line x1="112.60249530111783" y1="259.8124450007142" x2="112.64806418050644" y2="216.57962377801292" stroke="black" stroke-width="1" />
  <line x1="225.16466459592272" y1="194.85674832400537" x2="262.66326735703683" y2="173.34028511406328" stroke="black" stroke-width="1" />
  <line x1="187.51680520760775" y1="43.34141679581478" x2="150.11516873695263" y2="21.65223365677491" stroke="black" stroke-width="1" />
  <line x1="412.4972526368463" y1="173.35214721408795" x2="375.0553693660062" y2="151.7312144174182" stroke="black" stroke-width="1" />
  <line x1="162.61207398836964" y1="43.34649500970272" x2="125.11110361807948" y2="21.82714231845165" stroke="black" stroke-width="1" />
  <line x1="37.64129551825924" y1="346.4767875409591" x2="75.06819143058034" y2="324.8286607648414" stroke="black" stroke-width="1" />
  <line x1="87.49666062740211" y1="259.9423664971008" x2="50.1177406814024" y2="238.21013179068663" stroke="black" stroke-width="1" />
  <line x1="350.01252460686607" y1="151.6154941065442" x2="350.087903110376" y2="108.37814807637403" stroke="black" stroke-width="1" />
  <line x1="299.98931078174746" y1="64.98537795370038" x2="262.5541246952468" y2="43.349788193026484" stroke="black" stroke-width="1" />
  <line x1="150.12341701916438" y1="65.04931644225019" x2="187.51680520760775" y2="43.34141679581478" stroke="black" stroke-width="1" />
  <line x1="12.60505314127296" y1="216.50978119788806" x2="50.06462576157867" y2="194.91541710663864" stroke="black" stroke-width="1" />
  <line x1="162.67351662234842" y1="303.291903874875" x2="200.0173670405034" y2="281.4977907722284" stroke="black" stroke-width="1" />
  <line x1="237.68011576528656" y1="259.86181232968875" x2="237.62913892230944" y2="216.6222196809235" stroke="black" stroke-width="1" />
  <line x1="0.1276513329123261" y1="194.889799537097" x2="37.583607459152084" y2="173.28197924043334" stroke="black" stroke-width="1" />
  <line x1="125.03034911386189" y1="195.02591997452484" x2="87.68312362378774" y2="173.23029723513906" stroke="black" stroke-width="1" />
  <line x1="225.0376154111827" y1="368.15239939801955" x2="225.1366413400177" y2="324.91015428197727" stroke="black" stroke-width="1" />
  <line x1="125.16029164415882" y1="238.23648831741724" x2="162.54098397304114" y2="216.49716356700688" stroke="black" stroke-width="1" />
  <line x1="425.1839867780054" y1="324.83242910515156" x2="425.1644777687484" y2="281.58956252192667" stroke="black" stroke-width="1" />
  <line x1="412.6817970762052" y1="130.0468161541749" x2="450.08984123560913" y2="108.35241246515966" stroke="black" stroke-width="1" />
  <line x1="237.6858231635843" y1="346.46038951057903" x2="237.66806322645124" y2="303.21662887324584" stroke="black" stroke-width="1" />
  <line x1="462.4993584737125" y1="216.6157209789116" x2="425.1021668845351" y2="194.9013509324584" stroke="black" stroke-width="1" />
  <line x1="75.06819143058034" y1="324.8286607648414" x2="112.54185056941286" y2="303.2444954996973" stroke="black" stroke-width="1" />
  <line x1="337.57166884102196" y1="303.12422397138033" x2="375.0378496950002" y2="281.5263410199876" stroke="black" stroke-width="1" />
  <line x1="225.14746173714738" y1="108.29103208158506" x2="225.12744264313088" y2="65.04525815722394" stroke="black" stroke-width="1" />
  <line x1="387.51099797043554" y1="389.84420002877266" x2="350.12952119431674" y2="368.09863331472144" stroke="black" stroke-width="1" />
  <line x1="75.01685692192945" y1="281.50120531369265" x2="37.56332950163382" y2="259.87902719761814" stroke="black" stroke-width="1" />
  <line x1="387.5916112091271" y1="259.8566885095458" x2="387.5719676257392" y2="216.6088118322963" stroke="black" stroke-width="1" />
  <line x1="12.512940533991344" y1="346.40452169958667" x2="12.564264431237875" y2="303.1564188484303" stroke="black" stroke-width="1" />
  <line x1="200.13916545663736" y1="151.66126732203475" x2="237.55209471537006" y2="129.96474568979949" stroke="black" stroke-width="1" />
  <line x1="300.18556747737983" y1="151.61790035487303" x2="300.08009865268355" y2="108.36847310523524" stroke="black" stroke-width="1" />
  <line x1="350.0461676673281" y1="324.8666169000665" x2="312.5966866396121" y2="303.23172884255945" stroke="black" stroke-width="1" />
  <line x1="412.6881425777032" y1="389.8247548640915" x2="412.53666055337953" y2="346.574223132076" stroke="black" stroke-width="1" />
  <line x1="112.64806418050644" y1="216.57962377801292" x2="75.17666390276182" y2="194.97805794193252" stroke="black" stroke-width="1" />
  <line x1="0.11735853212231633" y1="64.96283289430971" x2="0.12115666368393622" y2="21.710330864314585" stroke="black" stroke-width="1" />
  <line x1="350.01252460686607" y1="151.6154941065442" x2="387.512833637811" y2="130.06307379491238" stroke="black" stroke-width="1" />
  <line x1="387.512833637811" y1="130.06307379491238" x2="350.087903110376" y2="108.37814807637403" stroke="black" stroke-width="1" />
  <line x1="187.65442858785156" y1="130.0377208412537" x2="187.57793390719" y2="86.78347599512847" stroke="black" stroke-width="1" />
  <line x1="225.14746173714738" y1="108.29103208158506" x2="262.658825112187" y2="86.75116174550459" stroke="black" stroke-width="1" />
  <line x1="87.61880940014602" y1="43.486025464700845" x2="50.18075080911669" y2="21.818937743749416" stroke="black" stroke-width="1" />
  <line x1="162.54098397304114" y1="216.49716356700688" x2="162.54505537118484" y2="173.24023172167034" stroke="black" stroke-width="1" />
  <line x1="462.5301725129177" y1="86.77863522007084" x2="425.095360380883" y2="65.10349938340323" stroke="black" stroke-width="1" />
  <line x1="125.11110361807948" y1="21.82714231845165" x2="87.67800320256464" y2="0.14818747248170894" stroke="black" stroke-width="1" />
  <line x1="125.15070236280398" y1="281.6250448461796" x2="162.5856878711144" y2="259.948309229385" stroke="black" stroke-width="1" />
  <line x1="74.9954559166397" y1="151.68451320756293" x2="37.51568948608901" y2="130.08485997510786" stroke="black" stroke-width="1" />
  <line x1="125.06049664903277" y1="368.20220104076435" x2="87.60619049983497" y2="346.55678329120553" stroke="black" stroke-width="1" />
  <line x1="12.507619199113936" y1="86.69539081696178" x2="12.58692548603457" y2="43.4358218070343" stroke="black" stroke-width="1" />
  <line x1="225.12744264313088" y1="65.04525815722394" x2="262.5541246952468" y2="43.349788193026484" stroke="black" stroke-width="1" />
  <line x1="112.63512997491735" y1="86.64124991130882" x2="150.12341701916438" y2="65.04931644225019" stroke="black" stroke-width="1" />
  <line x1="37.58728240535417" y1="43.34178973844513" x2="0.12115666368393622" y2="21.710330864314585" stroke="black" stroke-width="1" />
  <line x1="162.62551096007593" y1="389.7111684442713" x2="162.51905601789707" y2="346.4477352377761" stroke="black" stroke-width="1" />
  <line x1="37.56332950163382" y1="259.87902719761814" x2="37.6151520137035" y2="216.614759709608" stroke="black" stroke-width="1" />
  <line x1="12.512940533991344" y1="346.40452169958667" x2="50.042451913418155" y2="324.8782565040306" stroke="black" stroke-width="1" />
  <line x1="125.14378316974594" y1="324.8178242799776" x2="162.67351662234842" y2="303.291903874875" stroke="black" stroke-width="1" />
  <line x1="112.50792287208" y1="346.51223072677556" x2="75.06819143058034" y2="324.8286607648414" stroke="black" stroke-width="1" />
  <line x1="312.5512712721061" y1="86.74696151194746" x2="349.9968930051873" y2="65.07228785302283" stroke="black" stroke-width="1" />
  <line x1="262.5541246952468" y1="43.349788193026484" x2="262.5782310345837" y2="0.0831660355928534" stroke="black" stroke-width="1" />
  <line x1="162.5856878711144" y1="259.948309229385" x2="125.16029164415882" y2="238.23648831741724" stroke="black" stroke-width="1" />
  <line x1="112.50792287208" y1="346.51223072677556" x2="112.54185056941286" y2="303.2444954996973" stroke="black" stroke-width="1" />
  <line x1="50.01811342449167" y1="281.5697222471308" x2="12.52781172952358" y2="259.968742556217" stroke="black" stroke-width="1" />
  <line x1="225.0376154111827" y1="368.15239939801955" x2="187.60158552640561" y2="346.45610364176474" stroke="black" stroke-width="1" />
  <line x1="187.63893202405586" y1="259.83402002787426" x2="225.08711899192747" y2="238.15528609789908" stroke="black" stroke-width="1" />
  <line x1="87.52081041733297" y1="303.21381198516843" x2="87.49666062740211" y2="259.9423664971008" stroke="black" stroke-width="1" />
  <line x1="337.57166884102196" y1="303.12422397138033" x2="300.03248715120714" y2="281.5980494861261" stroke="black" stroke-width="1" />
  <line x1="150.17894003955954" y1="108.32251570798996" x2="150.12341701916438" y2="65.04931644225019" stroke="black" stroke-width="1" />
  <line x1="425.00217930800267" y1="21.692202877329294" x2="462.50153333307003" y2="0.09620921883282563" stroke="black" stroke-width="1" />
  <line x1="237.55376592421703" y1="173.37392695315862" x2="275.02320210600055" y2="151.7241244939936" stroke="black" stroke-width="1" />
  <line x1="387.5719676257392" y1="216.6088118322963" x2="350.1486019615374" y2="194.8788736600605" stroke="black" stroke-width="1" />
  <line x1="37.58512401377275" y1="86.61776491831733" x2="37.58728240535417" y2="43.34178973844513" stroke="black" stroke-width="1" />
  <line x1="337.53469652604184" y1="43.304080312387555" x2="375.1021941627809" y2="21.821378279898624" stroke="black" stroke-width="1" />
  <line x1="462.4924225651884" y1="259.89194706858734" x2="462.4993584737125" y2="216.6157209789116" stroke="black" stroke-width="1" />
  <line x1="337.5626768696422" y1="129.9996926828536" x2="300.08009865268355" y2="108.36847310523524" stroke="black" stroke-width="1" />
  <line x1="187.51680520760775" y1="43.34141679581478" x2="187.51893191582332" y2="0.06477956174114752" stroke="black" stroke-width="1" />
  <line x1="337.50643667172994" y1="216.56508543366763" x2="300.0719547137788" y2="194.8475914463479" stroke="black" stroke-width="1" />
  <line x1="487.568863594275" y1="173.20221190727358" x2="449.9947265016649" y2="151.72559981674482" stroke="black" stroke-width="1" />
  <line x1="375.1021941627809" y1="21.821378279898624" x2="412.50798437431064" y2="0.05249464156463546" stroke="black" stroke-width="1" />
  <line x1="187.60158552640561" y1="346.45610364176474" x2="225.1366413400177" y2="324.91015428197727" stroke="black" stroke-width="1" />
  <line x1="187.63893202405586" y1="259.83402002787426" x2="150.127654514655" y2="238.24129210973365" stroke="black" stroke-width="1" />
  <line x1="225.15999037387854" y1="21.837428375796264" x2="262.5782310345837" y2="0.0831660355928534" stroke="black" stroke-width="1" />
  <line x1="387.5998455947581" y1="303.1399552832342" x2="387.5916112091271" y2="259.8566885095458" stroke="black" stroke-width="1" />
  <line x1="300.1076964403616" y1="324.8053575267098" x2="262.6288239475279" y2="303.15270669951576" stroke="black" stroke-width="1" />
  <line x1="225.11953014585157" y1="281.4846249602356" x2="187.63893202405586" y2="259.83402002787426" stroke="black" stroke-width="1" />
  <line x1="375.0276449503394" y1="368.17685401843045" x2="412.53666055337953" y2="346.574223132076" stroke="black" stroke-width="1" />
  <line x1="375.0833559145955" y1="65.10654656041407" x2="375.1021941627809" y2="21.821378279898624" stroke="black" stroke-width="1" />
  <line x1="75.06819143058034" y1="324.8286607648414" x2="37.61922636035941" y2="303.1215599139904" stroke="black" stroke-width="1" />
  <line x1="350.0210777475322" y1="21.726824710903884" x2="387.4924988548556" y2="0.056712326533727264" stroke="black" stroke-width="1" />
  <line x1="312.5512712721061" y1="86.74696151194746" x2="312.6272739862495" y2="43.460409097574086" stroke="black" stroke-width="1" />
  <line x1="162.62551096007593" y1="389.7111684442713" x2="125.06049664903277" y2="368.20220104076435" stroke="black" stroke-width="1" />
  <line x1="412.4972526368463" y1="173.35214721408795" x2="449.9947265016649" y2="151.72559981674482" stroke="black" stroke-width="1" />
  <line x1="150.02966690545193" y1="368.09963068306195" x2="112.50792287208" y2="346.51223072677556" stroke="black" stroke-width="1" />
  <line x1="75.03372549692867" y1="21.79878506960938" x2="37.62943322934013" y2="0.007644448864994047" stroke="black" stroke-width="1" />
  <line x1="225.14746173714738" y1="108.29103208158506" x2="187.57793390719" y2="86.78347599512847" stroke="black" stroke-width="1" />
  <line x1="487.5720639988786" y1="346.54578573523264" x2="487.6052910337113" y2="303.2552613648153" stroke="black" stroke-width="1" />
  <line x1="150.127654514655" y1="238.24129210973365" x2="187.66100757111138" y2="216.66767165950193" stroke="black" stroke-width="1" />
  <line x1="37.51568948608901" y1="130.08485997510786" x2="0.057423421516927475" y2="108.37889543893829" stroke="black" stroke-width="1" />
  <line x1="112.59204735560053" y1="129.9032139443417" x2="75.0771454625346" y2="108.29453247996054" stroke="black" stroke-width="1" />
  <line x1="75.17666390276182" y1="194.97805794193252" x2="74.9954559166397" y2="151.68451320756293" stroke="black" stroke-width="1" />
  <line x1="300.0719547137788" y1="194.8475914463479" x2="337.5738104778217" y2="173.21182270709014" stroke="black" stroke-width="1" />
  <line x1="0.0" y1="238.18633852454403" x2="0.1276513329123261" y2="194.889799537097" stroke="black" stroke-width="1" />
  <line x1="162.51905601789707" y1="346.4477352377761" x2="200.06570866504612" y2="324.8865379368245" stroke="black" stroke-width="1" />
  <line x1="387.5916112091271" y1="259.8566885095458" x2="425.1294480179622" y2="238.2791616047841" stroke="black" stroke-width="1" />
  <line x1="275.12314605701266" y1="324.9386897670584" x2="237.66806322645124" y2="303.21662887324584" stroke="black" stroke-width="1" />
  <line x1="225.08711899192747" y1="238.15528609789908" x2="225.16466459592272" y2="194.85674832400537" stroke="black" stroke-width="1" />
  <line x1="87.57824054440374" y1="86.7077225988138" x2="125.02604641259377" y2="64.97218038245211" stroke="black" stroke-width="1" />
  <line x1="87.61880940014602" y1="43.486025464700845" x2="125.11110361807948" y2="21.82714231845165" stroke="black" stroke-width="1" />
  <line x1="37.50791482180635" y1="389.7850246797628" x2="75.00733117059548" y2="368.13222102005227" stroke="black" stroke-width="1" />
  <line x1="387.6853438268893" y1="86.68539833969106" x2="387.6085504158936" y2="43.38287976291508" stroke="black" stroke-width="1" />
  <line x1="75.00733117059548" y1="368.13222102005227" x2="75.06819143058034" y2="324.8286607648414" stroke="black" stroke-width="1" />
  <line x1="187.57793390719" y1="86.78347599512847" x2="150.12341701916438" y2="65.04931644225019" stroke="black" stroke-width="1" />
  <line x1="187.66100757111138" y1="216.66767165950193" x2="187.66302599474645" y2="173.363598495379" stroke="black" stroke-width="1" />
  <line x1="412.4972526368463" y1="173.35214721408795" x2="412.6817970762052" y2="130.0468161541749" stroke="black" stroke-width="1" />
  <line x1="350.12952119431674" y1="368.09863331472144" x2="312.5379504214361" y2="346.5968153669801" stroke="black" stroke-width="1" />
  <line x1="387.5998455947581" y1="303.1399552832342" x2="425.1644777687484" y2="281.58956252192667" stroke="black" stroke-width="1" />
  <line x1="75.0771454625346" y1="108.29453247996054" x2="37.58512401377275" y2="86.61776491831733" stroke="black" stroke-width="1" />
  <line x1="300.0466622905361" y1="238.15576442593584" x2="300.0719547137788" y2="194.8475914463479" stroke="black" stroke-width="1" />
  <line x1="37.50791482180635" y1="389.7850246797628" x2="37.64129551825924" y2="346.4767875409591" stroke="black" stroke-width="1" />
  <line x1="0.1276513329123261" y1="194.889799537097" x2="0.13196142201089772" y2="151.57834147189783" stroke="black" stroke-width="1" />
  <line x1="187.65442858785156" y1="130.0377208412537" x2="150.17894003955954" y2="108.32251570798996" stroke="black" stroke-width="1" />
  <line x1="487.50728357771715" y1="86.62833661582414" x2="487.50684907855486" y2="43.31431568947505" stroke="black" stroke-width="1" />
  <line x1="262.5541246952468" y1="43.349788193026484" x2="300.10891925849216" y2="21.763684440232396" stroke="black" stroke-width="1" />
  <line x1="50.042451913418155" y1="324.8782565040306" x2="12.564264431237875" y2="303.1564188484303" stroke="black" stroke-width="1" />
  <line x1="312.5990860355746" y1="259.8339174352991" x2="274.9917587735169" y2="238.33250775983515" stroke="black" stroke-width="1" />
  <line x1="450.0698397612704" y1="281.4825600316567" x2="487.59600284381395" y2="259.83022970418847" stroke="black" stroke-width="1" />
  <line x1="425.095360380883" y1="65.10349938340323" x2="387.6085504158936" y2="43.38287976291508" stroke="black" stroke-width="1" />
  <line x1="187.66302599474645" y1="173.363598495379" x2="187.65442858785156" y2="130.0377208412537" stroke="black" stroke-width="1" />
  <line x1="75.06819143058034" y1="324.8286607648414" x2="75.01685692192945" y2="281.50120531369265" stroke="black" stroke-width="1" />
  <line x1="375.108617790391" y1="324.9465133516748" x2="412.56038569613594" y2="303.1586128712235" stroke="black" stroke-width="1" />
  <line x1="162.67351662234842" y1="303.291903874875" x2="125.15070236280398" y2="281.6250448461796" stroke="black" stroke-width="1" />
  <line x1="225.11953014585157" y1="281.4846249602356" x2="225.08711899192747" y2="238.15528609789908" stroke="black" stroke-width="1" />
  <line x1="275.02320210600055" y1="151.7241244939936" x2="237.55209471537006" y2="129.96474568979949" stroke="black" stroke-width="1" />
  <line x1="150.11516873695263" y1="21.65223365677491" x2="112.56560476166061" y2="0.0266815023250615" stroke="black" stroke-width="1" />
  <line x1="37.58728240535417" y1="43.34178973844513" x2="37.62943322934013" y2="0.007644448864994047" stroke="black" stroke-width="1" />
  <line x1="0.12115666368393622" y1="21.710330864314585" x2="37.62943322934013" y2="0.007644448864994047" stroke="black" stroke-width="1" />
  <line x1="87.61880940014602" y1="43.486025464700845" x2="87.67800320256464" y2="0.14818747248170894" stroke="black" stroke-width="1" />
  <line x1="312.5576183786206" y1="389.700479978692" x2="350.12952119431674" y2="368.09863331472144" stroke="black" stroke-width="1" />
  <line x1="0.08002325377673881" y1="324.9172240493126" x2="0.17435360064528777" y2="281.5760725659136" stroke="black" stroke-width="1" />
  <line x1="112.59204735560053" y1="129.9032139443417" x2="150.17894003955954" y2="108.32251570798996" stroke="black" stroke-width="1" />
  <line x1="262.6274484484282" y1="216.6757977477303" x2="300.0719547137788" y2="194.8475914463479" stroke="black" stroke-width="1" />
  <line x1="300.10891925849216" y1="21.763684440232396" x2="262.5782310345837" y2="0.0831660355928534" stroke="black" stroke-width="1" />
  <line x1="425.1652970646964" y1="368.17583928723917" x2="425.1839867780054" y2="324.83242910515156" stroke="black" stroke-width="1" />
  <line x1="162.67351662234842" y1="303.291903874875" x2="162.5856878711144" y2="259.948309229385" stroke="black" stroke-width="1" />
  <line x1="487.60392059123257" y1="216.67839623404817" x2="450.16069828716894" y2="194.84459888747787" stroke="black" stroke-width="1" />
  <line x1="0.09594177604029451" y1="368.13559814813857" x2="37.64129551825924" y2="346.4767875409591" stroke="black" stroke-width="1" />
  <line x1="412.62693449801714" y1="43.346900409043144" x2="450.15740672871254" y2="21.66129123785032" stroke="black" stroke-width="1" />
  <line x1="37.6151520137035" y1="216.614759709608" x2="75.17666390276182" y2="194.97805794193252" stroke="black" stroke-width="1" />
  <line x1="87.49666062740211" y1="259.9423664971008" x2="87.50381441691339" y2="216.59314072257212" stroke="black" stroke-width="1" />
  <line x1="150.15435281604795" y1="151.54949845729686" x2="112.59204735560053" y2="129.9032139443417" stroke="black" stroke-width="1" />
  <line x1="337.50643667172994" y1="216.56508543366763" x2="337.5738104778217" y2="173.21182270709014" stroke="black" stroke-width="1" />
  <line x1="300.08009865268355" y1="108.36847310523524" x2="337.6813381902333" y2="86.78857510802317" stroke="black" stroke-width="1" />
  <line x1="150.17894003955954" y1="108.32251570798996" x2="112.63512997491735" y2="86.64124991130882" stroke="black" stroke-width="1" />
  <line x1="237.66806322645124" y1="303.21662887324584" x2="237.68011576528656" y2="259.86181232968875" stroke="black" stroke-width="1" />
  <line x1="425.095360380883" y1="65.10349938340323" x2="462.5815050220302" y2="43.31912224513002" stroke="black" stroke-width="1" />
  <line x1="262.66326735703683" y1="173.34028511406328" x2="300.18556747737983" y2="151.61790035487303" stroke="black" stroke-width="1" />
  <line x1="449.9947265016649" y1="151.72559981674482" x2="487.5249295874443" y2="130.01560818535245" stroke="black" stroke-width="1" />
  <line x1="425.1294480179622" y1="238.2791616047841" x2="387.5719676257392" y2="216.6088118322963" stroke="black" stroke-width="1" />
  <line x1="0.0" y1="238.18633852454403" x2="37.6151520137035" y2="216.614759709608" stroke="black" stroke-width="1" />
  <line x1="125.02604641259377" y1="64.97218038245211" x2="162.61207398836964" y2="43.34649500970272" stroke="black" stroke-width="1" />
  <line x1="450.16069828716894" y1="194.84459888747787" x2="412.4972526368463" y2="173.35214721408795" stroke="black" stroke-width="1" />
  <line x1="125.07431398267322" y1="151.7150085422556" x2="87.50428451246026" y2="130.05467507165207" stroke="black" stroke-width="1" />
  <line x1="275.04936737251853" y1="281.5317179418389" x2="312.5990860355746" y2="259.8339174352991" stroke="black" stroke-width="1" />
  <line x1="112.50792287208" y1="346.51223072677556" x2="150.13004294190944" y2="324.93710217987257" stroke="black" stroke-width="1" />
  <line x1="449.9947265016649" y1="151.72559981674482" x2="450.08984123560913" y2="108.35241246515966" stroke="black" stroke-width="1" />
  <line x1="350.00007406578527" y1="238.28230541360202" x2="387.5719676257392" y2="216.6088118322963" stroke="black" stroke-width="1" />
  <line x1="37.56332950163382" y1="259.87902719761814" x2="0.0" y2="238.18633852454403" stroke="black" stroke-width="1" />
  <line x1="425.1294480179622" y1="238.2791616047841" x2="425.1021668845351" y2="194.9013509324584" stroke="black" stroke-width="1" />
  <line x1="387.512833637811" y1="130.06307379491238" x2="387.6853438268893" y2="86.68539833969106" stroke="black" stroke-width="1" />
  <line x1="0.057423421516927475" y1="108.37889543893829" x2="37.58512401377275" y2="86.61776491831733" stroke="black" stroke-width="1" />
  <line x1="200.13916545663736" y1="151.66126732203475" x2="200.18747980177235" y2="108.28045905325155" stroke="black" stroke-width="1" />
  <line x1="237.5384976848547" y1="389.84151155303925" x2="237.6858231635843" y2="346.46038951057903" stroke="black" stroke-width="1" />
  <line x1="87.52081041733297" y1="303.21381198516843" x2="125.15070236280398" y2="281.6250448461796" stroke="black" stroke-width="1" />
  <line x1="300.08009865268355" y1="108.36847310523524" x2="299.98931078174746" y2="64.98537795370038" stroke="black" stroke-width="1" />
  <line x1="187.66100757111138" y1="216.66767165950193" x2="225.16466459592272" y2="194.85674832400537" stroke="black" stroke-width="1" />
  <line x1="350.0461676673281" y1="324.8666169000665" x2="387.5998455947581" y2="303.1399552832342" stroke="black" stroke-width="1" />
  <line x1="375.1460391833835" y1="194.90739721441346" x2="337.5738104778217" y2="173.21182270709014" stroke="black" stroke-width="1" />
  <line x1="487.5249295874443" y1="130.01560818535245" x2="487.50728357771715" y2="86.62833661582414" stroke="black" stroke-width="1" />
  <line x1="187.57793390719" y1="86.78347599512847" x2="225.12744264313088" y2="65.04525815722394" stroke="black" stroke-width="1" />
  <line x1="125.15070236280398" y1="281.6250448461796" x2="125.16029164415882" y2="238.23648831741724" stroke="black" stroke-width="1" />
  <line x1="200.06570866504612" y1="324.8865379368245" x2="200.0173670405034" y2="281.4977907722284" stroke="black" stroke-width="1" />
  <line x1="0.17435360064528777" y1="281.5760725659136" x2="0.0" y2="238.18633852454403" stroke="black" stroke-width="1" />
  <line x1="187.66302599474645" y1="173.363598495379" x2="150.15435281604795" y2="151.54949845729686" stroke="black" stroke-width="1" />
  <line x1="487.6052910337113" y1="303.2552613648153" x2="450.0698397612704" y2="281.4825600316567" stroke="black" stroke-width="1" />
  <line x1="387.512833637811" y1="130.06307379491238" x2="425.0681113635885" y2="108.32066652952938" stroke="black" stroke-width="1" />
  <line x1="200.06570866504612" y1="324.8865379368245" x2="237.66806322645124" y2="303.21662887324584" stroke="black" stroke-width="1" />
  <line x1="237.5384976848547" y1="389.84151155303925" x2="275.07633044588505" y2="368.05249678567674" stroke="black" stroke-width="1" />
  <line x1="350.00007406578527" y1="238.28230541360202" x2="350.1486019615374" y2="194.8788736600605" stroke="black" stroke-width="1" />
  <line x1="75.17666390276182" y1="194.97805794193252" x2="37.583607459152084" y2="173.28197924043334" stroke="black" stroke-width="1" />
  <line x1="425.1644777687484" y1="281.58956252192667" x2="387.5916112091271" y2="259.8566885095458" stroke="black" stroke-width="1" />
  <line x1="237.55376592421703" y1="173.37392695315862" x2="237.55209471537006" y2="129.96474568979949" stroke="black" stroke-width="1" />
  <line x1="412.53666055337953" y1="346.574223132076" x2="412.56038569613594" y2="303.1586128712235" stroke="black" stroke-width="1" />
  <line x1="0.057423421516927475" y1="108.37889543893829" x2="0.11735853212231633" y2="64.96283289430971" stroke="black" stroke-width="1" />
  <line x1="300.03248715120714" y1="281.5980494861261" x2="337.68144191506707" y2="259.9729459107841" stroke="black" stroke-width="1" />
  <line x1="375.0833559145955" y1="65.10654656041407" x2="337.53469652604184" y2="43.304080312387555" stroke="black" stroke-width="1" />
  <line x1="300.18556747737983" y1="151.61790035487303" x2="262.5884368993761" y2="129.89269261989625" stroke="black" stroke-width="1" />
  <line x1="487.6052910337113" y1="303.2552613648153" x2="487.59600284381395" y2="259.83022970418847" stroke="black" stroke-width="1" />
  <line x1="375.0553693660062" y1="151.7312144174182" x2="412.6817970762052" y2="130.0468161541749" stroke="black" stroke-width="1" />
  <line x1="412.6881425777032" y1="389.8247548640915" x2="375.0276449503394" y2="368.17685401843045" stroke="black" stroke-width="1" />
  <line x1="200.12339365758913" y1="368.1975957063439" x2="162.51905601789707" y2="346.4477352377761" stroke="black" stroke-width="1" />
  <line x1="187.57793390719" y1="86.78347599512847" x2="187.51680520760775" y2="43.34141679581478" stroke="black" stroke-width="1" />
  <line x1="125.15070236280398" y1="281.6250448461796" x2="87.49666062740211" y2="259.9423664971008" stroke="black" stroke-width="1" />
  <line x1="237.66806322645124" y1="303.21662887324584" x2="200.0173670405034" y2="281.4977907722284" stroke="black" stroke-width="1" />
  <line x1="37.51568948608901" y1="130.08485997510786" x2="37.58512401377275" y2="86.61776491831733" stroke="black" stroke-width="1" />
  <line x1="487.60392059123257" y1="216.67839623404817" x2="487.568863594275" y2="173.20221190727358" stroke="black" stroke-width="1" />
  <line x1="412.6881425777032" y1="389.8247548640915" x2="462.4958464994046" y2="389.83117348801585" stroke="black" stroke-width="1" />
  <line x1="412.67339120404046" y1="259.8400320702293" x2="462.4924225651884" y2="259.89194706858734" stroke="black" stroke-width="1" />
  <line x1="300.18556747737983" y1="151.61790035487303" x2="350.01252460686607" y2="151.6154941065442" stroke="black" stroke-width="1" />
  <line x1="12.615589799298922" y1="173.2483571222973" x2="37.51568948608901" y2="130.08485997510786" stroke="black" stroke-width="1" />
  <line x1="200.1326164714069" y1="64.94151391663365" x2="225.15999037387854" y2="21.837428375796264" stroke="black" stroke-width="1" />
  <line x1="412.68701145423967" y1="86.78576758664929" x2="462.5301725129177" y2="86.77863522007084" stroke="black" stroke-width="1" />
  <line x1="150.05903384072582" y1="194.84690897267387" x2="125.07431398267322" y2="151.7150085422556" stroke="black" stroke-width="1" />
  <line x1="225.16466459592272" y1="194.85674832400537" x2="275.0101596746178" y2="195.02337907996431" stroke="black" stroke-width="1" />
  <line x1="75.17666390276182" y1="194.97805794193252" x2="125.03034911386189" y2="195.02591997452484" stroke="black" stroke-width="1" />
  <line x1="337.50764945096057" y1="346.421978937564" x2="312.5966866396121" y2="303.23172884255945" stroke="black" stroke-width="1" />
  <line x1="350.12952119431674" y1="368.09863331472144" x2="375.108617790391" y2="324.9465133516748" stroke="black" stroke-width="1" />
  <line x1="225.12744264313088" y1="65.04525815722394" x2="275.0029805630861" y2="65.08159430815687" stroke="black" stroke-width="1" />
  <line x1="337.53469652604184" y1="43.304080312387555" x2="312.66017750899937" y2="0.07117524646099582" stroke="black" stroke-width="1" />
  <line x1="262.66784501719314" y1="389.8669117762828" x2="312.5576183786206" y2="389.700479978692" stroke="black" stroke-width="1" />
  <line x1="37.58512401377275" y1="86.61776491831733" x2="12.58692548603457" y2="43.4358218070343" stroke="black" stroke-width="1" />
  <line x1="375.1021941627809" y1="21.821378279898624" x2="425.00217930800267" y2="21.692202877329294" stroke="black" stroke-width="1" />
  <line x1="112.59204735560053" y1="129.9032139443417" x2="87.57824054440374" y2="86.7077225988138" stroke="black" stroke-width="1" />
  <line x1="162.54098397304114" y1="216.49716356700688" x2="187.66302599474645" y2="173.363598495379" stroke="black" stroke-width="1" />
  <line x1="12.60505314127296" y1="216.50978119788806" x2="37.583607459152084" y2="173.28197924043334" stroke="black" stroke-width="1" />
  <line x1="337.5613899586483" y1="0.0230490334694764" x2="387.4924988548556" y2="0.056712326533727264" stroke="black" stroke-width="1" />
  <line x1="37.56332950163382" y1="259.87902719761814" x2="87.49666062740211" y2="259.9423664971008" stroke="black" stroke-width="1" />
  <line x1="487.5249295874443" y1="130.01560818535245" x2="462.5301725129177" y2="86.77863522007084" stroke="black" stroke-width="1" />
  <line x1="412.62693449801714" y1="43.346900409043144" x2="462.5815050220302" y2="43.31912224513002" stroke="black" stroke-width="1" />
  <line x1="74.9954559166397" y1="151.68451320756293" x2="50.15656931495129" y2="108.34096777883565" stroke="black" stroke-width="1" />
  <line x1="462.5151138803171" y1="346.47174865010106" x2="487.6052910337113" y2="303.2552613648153" stroke="black" stroke-width="1" />
  <line x1="487.59600284381395" y1="259.83022970418847" x2="462.4993584737125" y2="216.6157209789116" stroke="black" stroke-width="1" />
  <line x1="112.60249530111783" y1="259.8124450007142" x2="87.50381441691339" y2="216.59314072257212" stroke="black" stroke-width="1" />
  <line x1="412.50798437431064" y1="0.05249464156463546" x2="462.50153333307003" y2="0.09620921883282563" stroke="black" stroke-width="1" />
  <line x1="187.51893191582332" y1="0.06477956174114752" x2="237.5221670904987" y2="0.14147545948941342" stroke="black" stroke-width="1" />
  <line x1="337.5017824194327" y1="389.8604053718197" x2="387.51099797043554" y2="389.84420002877266" stroke="black" stroke-width="1" />
  <line x1="112.56560476166061" y1="0.0266815023250615" x2="162.58672851077026" y2="0.0" stroke="black" stroke-width="1" />
  <line x1="337.57166884102196" y1="303.12422397138033" x2="387.5998455947581" y2="303.1399552832342" stroke="black" stroke-width="1" />
  <line x1="187.5085613046213" y1="389.76731744942686" x2="237.5384976848547" y2="389.84151155303925" stroke="black" stroke-width="1" />
  <line x1="37.62943322934013" y1="0.007644448864994047" x2="87.67800320256464" y2="0.14818747248170894" stroke="black" stroke-width="1" />
  <line x1="262.5782310345837" y1="0.0831660355928534" x2="312.66017750899937" y2="0.07117524646099582" stroke="black" stroke-width="1" />
  <line x1="112.51809480547553" y1="389.83447660561023" x2="162.62551096007593" y2="389.7111684442713" stroke="black" stroke-width="1" />
  <line x1="37.50791482180635" y1="389.7850246797628" x2="87.65602838692952" y2="389.74479892038283" stroke="black" stroke-width="1" />
  <line x1="262.66784501719314" y1="389.8669117762828" x2="337.5017824194327" y2="389.8604053718197" stroke="black" stroke-width="1" />
  <line x1="162.58672851077026" y1="0.0" x2="237.5221670904987" y2="0.14147545948941342" stroke="black" stroke-width="1" />
  <line x1="37.62943322934013" y1="0.007644448864994047" x2="112.56560476166061" y2="0.0266815023250615" stroke="black" stroke-width="1" />
  <line x1="337.5613899586483" y1="0.0230490334694764" x2="412.50798437431064" y2="0.05249464156463546" stroke="black" stroke-width="1" />
  <line x1="262.5782310345837" y1="0.0831660355928534" x2="337.5613899586483" y2="0.0230490334694764" stroke="black" stroke-width="1" />
  <line x1="387.51099797043554" y1="389.84420002877266" x2="462.4958464994046" y2="389.83117348801585" stroke="black" stroke-width="1" />
  <line x1="12.665852833894267" y1="389.84241115464886" x2="87.65602838692952" y2="389.74479892038283" stroke="black" stroke-width="1" />
  <line x1="112.51809480547553" y1="389.83447660561023" x2="187.5085613046213" y2="389.76731744942686" stroke="black" stroke-width="1" />
  <line x1="487.64297403887844" y1="389.71236573736405" x2="487.6052910337113" y2="303.2552613648153" stroke="black" stroke-width="1" />
  <line x1="487.50728357771715" y1="86.62833661582414" x2="487.5548829443084" y2="0.16295084860951192" stroke="black" stroke-width="1" />
  <line x1="0.1276513329123261" y1="194.889799537097" x2="0.057423421516927475" y2="108.37889543893829" stroke="black" stroke-width="1" />
  <line x1="487.568863594275" y1="173.20221190727358" x2="487.50728357771715" y2="86.62833661582414" stroke="black" stroke-width="1" />
  <line x1="487.6052910337113" y1="303.2552613648153" x2="487.60392059123257" y2="216.67839623404817" stroke="black" stroke-width="1" />
  <line x1="0.057423421516927475" y1="108.37889543893829" x2="0.12115666368393622" y2="21.710330864314585" stroke="black" stroke-width="1" />
  <line x1="0.08002325377673881" y1="324.9172240493126" x2="0.0" y2="238.18633852454403" stroke="black" stroke-width="1" />
  <line x1="12.665852833894267" y1="389.84241115464886" x2="112.51809480547553" y2="389.83447660561023" stroke="black" stroke-width="1" />
  <line x1="162.58672851077026" y1="0.0" x2="262.5782310345837" y2="0.0831660355928534" stroke="black" stroke-width="1" />
  <line x1="37.62943322934013" y1="0.007644448864994047" x2="162.58672851077026" y2="0.0" stroke="black" stroke-width="1" />
  <line x1="337.5017824194327" y1="389.8604053718197" x2="462.4958464994046" y2="389.83117348801585" stroke="black" stroke-width="1" />
  <line x1="112.51809480547553" y1="389.83447660561023" x2="237.5384976848547" y2="389.84151155303925" stroke="black" stroke-width="1" />
  <line x1="0.0" y1="238.18633852454403" x2="0.057423421516927475" y2="108.37889543893829" stroke="black" stroke-width="1" />
  <line x1="0.09594177604029451" y1="368.13559814813857" x2="0.0" y2="238.18633852454403" stroke="black" stroke-width="1" />
  <line x1="487.60392059123257" y1="216.67839623404817" x2="487.50728357771715" y2="86.62833661582414" stroke="black" stroke-width="1" />
  <line x1="112.51809480547553" y1="389.83447660561023" x2="262.66784501719314" y2="389.8669117762828" stroke="black" stroke-width="1" />
  <line x1="487.64297403887844" y1="389.71236573736405" x2="487.60392059123257" y2="216.67839623404817" stroke="black" stroke-width="1" />
  <line x1="162.58672851077026" y1="0.0" x2="337.5613899586483" y2="0.0230490334694764" stroke="black" stroke-width="1" />
  <line x1="487.60392059123257" y1="216.67839623404817" x2="487.5548829443084" y2="0.16295084860951192" stroke="black" stroke-width="1" />
  <line x1="12.665852833894267" y1="389.84241115464886" x2="262.66784501719314" y2="389.8669117762828" stroke="black" stroke-width="1" />
</svg>
