<?xml version="1.0" encoding="UTF-8" ?>
<svg xmlns="http://www.w3.org/2000/svg" version="1.1" width="185.34196930609903" height="177.4192627941589">
  <line x1="147.39924836655635" y1="94.97975284251743" x2="183.47965486368676" y2="161.31811808374272" stroke="black" stroke-width="1" />
  <line x1="185.34196930609903" y1="96.89851382573156" x2="66.90522208549626" y2="89.14234114964175" stroke="black" stroke-width="1" />
  <line x1="91.7131385667169" y1="163.9402972477649" x2="156.83447829931194" y2="171.1575838314804" stroke="black" stroke-width="1" />
  <line x1="143.25827161794015" y1="56.518544278012286" x2="22.33254208287232" y2="29.087502880459567" stroke="black" stroke-width="1" />
  <line x1="173.37796107860967" y1="66.53034817718071" x2="185.34196930609903" y2="96.89851382573156" stroke="black" stroke-width="1" />
  <line x1="162.39128594246168" y1="155.4256568142846" x2="104.14626697584066" y2="150.0533186289353" stroke="black" stroke-width="1" />
  <line x1="146.56372003691834" y1="142.84890732286152" x2="134.03482663206438" y2="141.70424505257347" stroke="black" stroke-width="1" />
  <line x1="8.885350791927493" y1="106.01289914855144" x2="66.90522208549626" y2="89.14234114964175" stroke="black" stroke-width="1" />
  <line x1="87.86297112442683" y1="13.63720009677067" x2="22.33254208287232" y2="29.087502880459567" stroke="black" stroke-width="1" />
  <line x1="19.680080181331938" y1="148.0349430099779" x2="134.03482663206438" y2="141.70424505257347" stroke="black" stroke-width="1" />
  <line x1="63.473041110169234" y1="19.788178533844928" x2="136.31867992666824" y2="24.2306231675569" stroke="black" stroke-width="1" />
  <line x1="104.14626697584066" y1="150.0533186289353" x2="17.55739743191145" y2="148.2096675342163" stroke="black" stroke-width="1" />
  <line x1="143.25827161794015" y1="56.518544278012286" x2="7.878303091612484" y2="62.892572969722124" stroke="black" stroke-width="1" />
  <line x1="173.37796107860967" y1="66.53034817718071" x2="165.8483496936409" y2="3.6938543266050203" stroke="black" stroke-width="1" />
  <line x1="104.14626697584066" y1="150.0533186289353" x2="146.56372003691834" y2="142.84890732286152" stroke="black" stroke-width="1" />
  <line x1="173.37796107860967" y1="66.53034817718071" x2="146.5316571438674" y2="1.4421437537460804" stroke="black" stroke-width="1" />
  <line x1="185.34196930609903" y1="96.89851382573156" x2="92.65672534690566" y2="75.10135568686636" stroke="black" stroke-width="1" />
  <line x1="121.40667236703126" y1="83.22405974938947" x2="66.90522208549626" y2="89.14234114964175" stroke="black" stroke-width="1" />
  <line x1="156.83447829931194" y1="171.1575838314804" x2="94.707896812796" y2="170.86346477240812" stroke="black" stroke-width="1" />
  <line x1="173.37796107860967" y1="66.53034817718071" x2="109.80324766291426" y2="39.392615331756986" stroke="black" stroke-width="1" />
  <line x1="162.39128594246168" y1="155.4256568142846" x2="146.56372003691834" y2="142.84890732286152" stroke="black" stroke-width="1" />
  <line x1="7.377303734066665" y1="83.33541215663185" x2="92.65672534690566" y2="75.10135568686636" stroke="black" stroke-width="1" />
  <line x1="146.56372003691834" y1="142.84890732286152" x2="56.870125335842346" y2="123.93922562408807" stroke="black" stroke-width="1" />
  <line x1="165.8483496936409" y1="3.6938543266050203" x2="166.4506022328938" y2="0.0" stroke="black" stroke-width="1" />
  <line x1="147.39924836655635" y1="94.97975284251743" x2="85.97901482714154" y2="97.1676170179694" stroke="black" stroke-width="1" />
  <line x1="93.81869192552526" y1="87.83983910493029" x2="66.90522208549626" y2="89.14234114964175" stroke="black" stroke-width="1" />
  <line x1="126.28391391908846" y1="3.199745452173744" x2="7.302936137672212" y2="9.773960163201338" stroke="black" stroke-width="1" />
  <line x1="176.10054857895395" y1="166.0002799083166" x2="93.79063652819741" y2="161.27926228733403" stroke="black" stroke-width="1" />
  <line x1="104.14626697584066" y1="150.0533186289353" x2="183.47965486368676" y2="161.31811808374272" stroke="black" stroke-width="1" />
  <line x1="59.42545885486963" y1="3.571991176753272" x2="7.302936137672212" y2="9.773960163201338" stroke="black" stroke-width="1" />
  <line x1="7.878303091612484" y1="62.892572969722124" x2="92.65672534690566" y2="75.10135568686636" stroke="black" stroke-width="1" />
  <line x1="178.53935618562275" y1="81.56426287628436" x2="185.34196930609903" y2="96.89851382573156" stroke="black" stroke-width="1" />
  <line x1="183.47965486368676" y1="161.31811808374272" x2="17.55739743191145" y2="148.2096675342163" stroke="black" stroke-width="1" />
  <line x1="123.43726725285086" y1="69.466534404121" x2="92.65672534690566" y2="75.10135568686636" stroke="black" stroke-width="1" />
  <line x1="69.19526691612468" y1="21.984582975868676" x2="63.473041110169234" y2="19.788178533844928" stroke="black" stroke-width="1" />
  <line x1="136.31867992666824" y1="24.2306231675569" x2="109.80324766291426" y2="39.392615331756986" stroke="black" stroke-width="1" />
  <line x1="94.707896812796" y1="170.86346477240812" x2="52.09233515200857" y2="177.4192627941589" stroke="black" stroke-width="1" />
  <line x1="7.302936137672212" y1="9.773960163201338" x2="22.33254208287232" y2="29.087502880459567" stroke="black" stroke-width="1" />
  <line x1="69.19526691612468" y1="21.984582975868676" x2="109.80324766291426" y2="39.392615331756986" stroke="black" stroke-width="1" />
  <line x1="56.870125335842346" y1="123.93922562408807" x2="66.90522208549626" y2="89.14234114964175" stroke="black" stroke-width="1" />
  <line x1="65.9918835490126" y1="33.8705444016305" x2="63.473041110169234" y2="19.788178533844928" stroke="black" stroke-width="1" />
  <line x1="65.9918835490126" y1="33.8705444016305" x2="109.80324766291426" y2="39.392615331756986" stroke="black" stroke-width="1" />
  <line x1="93.81869192552526" y1="87.83983910493029" x2="121.40667236703126" y2="83.22405974938947" stroke="black" stroke-width="1" />
  <line x1="59.42545885486963" y1="3.571991176753272" x2="166.4506022328938" y2="0.0" stroke="black" stroke-width="1" />
  <line x1="165.8483496936409" y1="3.6938543266050203" x2="185.34196930609903" y2="96.89851382573156" stroke="black" stroke-width="1" />
  <line x1="185.34196930609903" y1="96.89851382573156" x2="166.4506022328938" y2="0.0" stroke="black" stroke-width="1" />
  <line x1="183.47965486368676" y1="161.31811808374272" x2="168.75090299126566" y2="105.86580573814504" stroke="black" stroke-width="1" />
  <line x1="56.870125335842346" y1="123.93922562408807" x2="85.97901482714154" y2="97.1676170179694" stroke="black" stroke-width="1" />
  <line x1="17.55739743191145" y1="148.2096675342163" x2="56.870125335842346" y2="123.93922562408807" stroke="black" stroke-width="1" />
  <line x1="156.83447829931194" y1="171.1575838314804" x2="52.09233515200857" y2="177.4192627941589" stroke="black" stroke-width="1" />
  <line x1="185.34196930609903" y1="96.89851382573156" x2="168.75090299126566" y2="105.86580573814504" stroke="black" stroke-width="1" />
  <line x1="143.25827161794015" y1="56.518544278012286" x2="109.80324766291426" y2="39.392615331756986" stroke="black" stroke-width="1" />
  <line x1="65.9918835490126" y1="33.8705444016305" x2="22.33254208287232" y2="29.087502880459567" stroke="black" stroke-width="1" />
  <line x1="180.20864150956305" y1="109.19569197682915" x2="168.75090299126566" y2="105.86580573814504" stroke="black" stroke-width="1" />
  <line x1="183.47965486368676" y1="161.31811808374272" x2="181.30609293166648" y2="160.35170198649584" stroke="black" stroke-width="1" />
  <line x1="7.878303091612484" y1="62.892572969722124" x2="0.0" y2="145.06627741658326" stroke="black" stroke-width="1" />
  <line x1="165.8483496936409" y1="3.6938543266050203" x2="157.7211960597586" y2="14.022034697519558" stroke="black" stroke-width="1" />
  <line x1="126.28391391908846" y1="3.199745452173744" x2="22.33254208287232" y2="29.087502880459567" stroke="black" stroke-width="1" />
  <line x1="91.7131385667169" y1="163.9402972477649" x2="52.09233515200857" y2="177.4192627941589" stroke="black" stroke-width="1" />
  <line x1="19.680080181331938" y1="148.0349430099779" x2="126.42065637873404" y2="146.22854477289252" stroke="black" stroke-width="1" />
  <line x1="7.302936137672212" y1="9.773960163201338" x2="7.878303091612484" y2="62.892572969722124" stroke="black" stroke-width="1" />
  <line x1="126.28391391908846" y1="3.199745452173744" x2="59.42545885486963" y2="3.571991176753272" stroke="black" stroke-width="1" />
  <line x1="173.37796107860967" y1="66.53034817718071" x2="123.43726725285086" y2="69.466534404121" stroke="black" stroke-width="1" />
  <line x1="7.377303734066665" y1="83.33541215663185" x2="7.878303091612484" y2="62.892572969722124" stroke="black" stroke-width="1" />
  <line x1="166.4506022328938" y1="0.0" x2="157.7211960597586" y2="14.022034697519558" stroke="black" stroke-width="1" />
  <line x1="7.377303734066665" y1="83.33541215663185" x2="121.40667236703126" y2="83.22405974938947" stroke="black" stroke-width="1" />
  <line x1="166.79014955535854" y1="101.17076633794662" x2="168.75090299126566" y2="105.86580573814504" stroke="black" stroke-width="1" />
  <line x1="143.25827161794015" y1="56.518544278012286" x2="123.43726725285086" y2="69.466534404121" stroke="black" stroke-width="1" />
  <line x1="95.5605242021551" y1="84.89341440727223" x2="121.40667236703126" y2="83.22405974938947" stroke="black" stroke-width="1" />
  <line x1="162.39128594246168" y1="155.4256568142846" x2="181.30609293166648" y2="160.35170198649584" stroke="black" stroke-width="1" />
  <line x1="87.86297112442683" y1="13.63720009677067" x2="63.473041110169234" y2="19.788178533844928" stroke="black" stroke-width="1" />
  <line x1="146.56372003691834" y1="142.84890732286152" x2="181.30609293166648" y2="160.35170198649584" stroke="black" stroke-width="1" />
  <line x1="126.42065637873404" y1="146.22854477289252" x2="134.03482663206438" y2="141.70424505257347" stroke="black" stroke-width="1" />
  <line x1="104.14626697584066" y1="150.0533186289353" x2="126.42065637873404" y2="146.22854477289252" stroke="black" stroke-width="1" />
  <line x1="19.680080181331938" y1="148.0349430099779" x2="104.14626697584066" y2="150.0533186289353" stroke="black" stroke-width="1" />
  <line x1="91.7131385667169" y1="163.9402972477649" x2="17.55739743191145" y2="148.2096675342163" stroke="black" stroke-width="1" />
  <line x1="56.870125335842346" y1="123.93922562408807" x2="134.03482663206438" y2="141.70424505257347" stroke="black" stroke-width="1" />
  <line x1="19.680080181331938" y1="148.0349430099779" x2="56.870125335842346" y2="123.93922562408807" stroke="black" stroke-width="1" />
  <line x1="0.0" y1="145.06627741658326" x2="52.09233515200857" y2="177.4192627941589" stroke="black" stroke-width="1" />
  <line x1="59.42545885486963" y1="3.571991176753272" x2="146.5316571438674" y2="1.4421437537460804" stroke="black" stroke-width="1" />
  <line x1="176.10054857895395" y1="166.0002799083166" x2="17.55739743191145" y2="148.2096675342163" stroke="black" stroke-width="1" />
  <line x1="69.19526691612468" y1="21.984582975868676" x2="136.31867992666824" y2="24.2306231675569" stroke="black" stroke-width="1" />
  <line x1="147.39924836655635" y1="94.97975284251743" x2="66.90522208549626" y2="89.14234114964175" stroke="black" stroke-width="1" />
  <line x1="95.5605242021551" y1="84.89341440727223" x2="66.90522208549626" y2="89.14234114964175" stroke="black" stroke-width="1" />
  <line x1="93.79063652819741" y1="161.27926228733403" x2="17.55739743191145" y2="148.2096675342163" stroke="black" stroke-width="1" />
  <line x1="147.39924836655635" y1="94.97975284251743" x2="56.870125335842346" y2="123.93922562408807" stroke="black" stroke-width="1" />
  <line x1="126.28391391908846" y1="3.199745452173744" x2="136.31867992666824" y2="24.2306231675569" stroke="black" stroke-width="1" />
  <line x1="91.7131385667169" y1="163.9402972477649" x2="0.0" y2="145.06627741658326" stroke="black" stroke-width="1" />
  <line x1="147.39924836655635" y1="94.97975284251743" x2="146.56372003691834" y2="142.84890732286152" stroke="black" stroke-width="1" />
  <line x1="152.73680043052136" y1="13.75127065777815" x2="166.4506022328938" y2="0.0" stroke="black" stroke-width="1" />
  <line x1="93.81869192552526" y1="87.83983910493029" x2="185.34196930609903" y2="96.89851382573156" stroke="black" stroke-width="1" />
  <line x1="126.28391391908846" y1="3.199745452173744" x2="87.86297112442683" y2="13.63720009677067" stroke="black" stroke-width="1" />
  <line x1="17.55739743191145" y1="148.2096675342163" x2="0.0" y2="145.06627741658326" stroke="black" stroke-width="1" />
  <line x1="65.9918835490126" y1="33.8705444016305" x2="143.25827161794015" y2="56.518544278012286" stroke="black" stroke-width="1" />
  <line x1="7.878303091612484" y1="62.892572969722124" x2="123.43726725285086" y2="69.466534404121" stroke="black" stroke-width="1" />
  <line x1="147.39924836655635" y1="94.97975284251743" x2="166.79014955535854" y2="101.17076633794662" stroke="black" stroke-width="1" />
  <line x1="176.10054857895395" y1="166.0002799083166" x2="183.47965486368676" y2="161.31811808374272" stroke="black" stroke-width="1" />
  <line x1="8.885350791927493" y1="106.01289914855144" x2="0.0" y2="145.06627741658326" stroke="black" stroke-width="1" />
  <line x1="56.870125335842346" y1="123.93922562408807" x2="0.0" y2="145.06627741658326" stroke="black" stroke-width="1" />
  <line x1="66.90522208549626" y1="89.14234114964175" x2="0.0" y2="145.06627741658326" stroke="black" stroke-width="1" />
  <line x1="147.39924836655635" y1="94.97975284251743" x2="168.75090299126566" y2="105.86580573814504" stroke="black" stroke-width="1" />
  <line x1="152.73680043052136" y1="13.75127065777815" x2="157.7211960597586" y2="14.022034697519558" stroke="black" stroke-width="1" />
  <line x1="93.79063652819741" y1="161.27926228733403" x2="156.83447829931194" y2="171.1575838314804" stroke="black" stroke-width="1" />
  <line x1="147.39924836655635" y1="94.97975284251743" x2="185.34196930609903" y2="96.89851382573156" stroke="black" stroke-width="1" />
  <line x1="166.79014955535854" y1="101.17076633794662" x2="185.34196930609903" y2="96.89851382573156" stroke="black" stroke-width="1" />
  <line x1="178.53935618562275" y1="81.56426287628436" x2="92.65672534690566" y2="75.10135568686636" stroke="black" stroke-width="1" />
  <line x1="19.680080181331938" y1="148.0349430099779" x2="17.55739743191145" y2="148.2096675342163" stroke="black" stroke-width="1" />
  <line x1="180.20864150956305" y1="109.19569197682915" x2="185.34196930609903" y2="96.89851382573156" stroke="black" stroke-width="1" />
  <line x1="7.377303734066665" y1="83.33541215663185" x2="8.885350791927493" y2="106.01289914855144" stroke="black" stroke-width="1" />
  <line x1="91.7131385667169" y1="163.9402972477649" x2="93.79063652819741" y2="161.27926228733403" stroke="black" stroke-width="1" />
  <line x1="87.86297112442683" y1="13.63720009677067" x2="136.31867992666824" y2="24.2306231675569" stroke="black" stroke-width="1" />
  <line x1="162.39128594246168" y1="155.4256568142846" x2="183.47965486368676" y2="161.31811808374272" stroke="black" stroke-width="1" />
  <line x1="183.47965486368676" y1="161.31811808374272" x2="185.34196930609903" y2="96.89851382573156" stroke="black" stroke-width="1" />
  <line x1="7.377303734066665" y1="83.33541215663185" x2="0.0" y2="145.06627741658326" stroke="black" stroke-width="1" />
  <line x1="173.37796107860967" y1="66.53034817718071" x2="157.7211960597586" y2="14.022034697519558" stroke="black" stroke-width="1" />
  <line x1="176.10054857895395" y1="166.0002799083166" x2="156.83447829931194" y2="171.1575838314804" stroke="black" stroke-width="1" />
  <line x1="146.5316571438674" y1="1.4421437537460804" x2="166.4506022328938" y2="0.0" stroke="black" stroke-width="1" />
  <line x1="146.5316571438674" y1="1.4421437537460804" x2="136.31867992666824" y2="24.2306231675569" stroke="black" stroke-width="1" />
  <line x1="121.40667236703126" y1="83.22405974938947" x2="92.65672534690566" y2="75.10135568686636" stroke="black" stroke-width="1" />
  <line x1="152.73680043052136" y1="13.75127065777815" x2="146.5316571438674" y2="1.4421437537460804" stroke="black" stroke-width="1" />
  <line x1="183.47965486368676" y1="161.31811808374272" x2="146.56372003691834" y2="142.84890732286152" stroke="black" stroke-width="1" />
  <line x1="173.37796107860967" y1="66.53034817718071" x2="92.65672534690566" y2="75.10135568686636" stroke="black" stroke-width="1" />
  <line x1="121.40667236703126" y1="83.22405974938947" x2="185.34196930609903" y2="96.89851382573156" stroke="black" stroke-width="1" />
  <line x1="22.33254208287232" y1="29.087502880459567" x2="7.878303091612484" y2="62.892572969722124" stroke="black" stroke-width="1" />
  <line x1="91.7131385667169" y1="163.9402972477649" x2="94.707896812796" y2="170.86346477240812" stroke="black" stroke-width="1" />
  <line x1="183.47965486368676" y1="161.31811808374272" x2="180.20864150956305" y2="109.19569197682915" stroke="black" stroke-width="1" />
  <line x1="63.473041110169234" y1="19.788178533844928" x2="22.33254208287232" y2="29.087502880459567" stroke="black" stroke-width="1" />
  <line x1="173.37796107860967" y1="66.53034817718071" x2="143.25827161794015" y2="56.518544278012286" stroke="black" stroke-width="1" />
  <line x1="7.302936137672212" y1="9.773960163201338" x2="0.0" y2="145.06627741658326" stroke="black" stroke-width="1" />
  <line x1="126.42065637873404" y1="146.22854477289252" x2="146.56372003691834" y2="142.84890732286152" stroke="black" stroke-width="1" />
  <line x1="65.9918835490126" y1="33.8705444016305" x2="69.19526691612468" y2="21.984582975868676" stroke="black" stroke-width="1" />
  <line x1="173.37796107860967" y1="66.53034817718071" x2="136.31867992666824" y2="24.2306231675569" stroke="black" stroke-width="1" />
  <line x1="126.28391391908846" y1="3.199745452173744" x2="146.5316571438674" y2="1.4421437537460804" stroke="black" stroke-width="1" />
  <line x1="7.377303734066665" y1="83.33541215663185" x2="95.5605242021551" y2="84.89341440727223" stroke="black" stroke-width="1" />
  <line x1="178.53935618562275" y1="81.56426287628436" x2="173.37796107860967" y2="66.53034817718071" stroke="black" stroke-width="1" />
  <line x1="66.90522208549626" y1="89.14234114964175" x2="85.97901482714154" y2="97.1676170179694" stroke="black" stroke-width="1" />
  <line x1="152.73680043052136" y1="13.75127065777815" x2="173.37796107860967" y2="66.53034817718071" stroke="black" stroke-width="1" />
  <line x1="7.377303734066665" y1="83.33541215663185" x2="66.90522208549626" y2="89.14234114964175" stroke="black" stroke-width="1" />
</svg>
