<?xml version="1.0" encoding="UTF-8" ?>
<svg xmlns="http://www.w3.org/2000/svg" version="1.1" width="194.09744537500876" height="190.54000232157685">
  <line x1="26.474312169067947" y1="16.155232955105532" x2="22.370390455247936" y2="19.30070485784654" stroke="black" stroke-width="1" />
  <line x1="20.530354472100274" y1="14.191272610708836" x2="22.370390455247936" y2="19.30070485784654" stroke="black" stroke-width="1" />
  <line x1="143.3187115798402" y1="35.589641956341865" x2="140.12720408118722" y2="40.057015984959804" stroke="black" stroke-width="1" />
  <line x1="141.42158164781492" y1="40.866696908507976" x2="143.3187115798402" y2="35.589641956341865" stroke="black" stroke-width="1" />
  <line x1="190.6653624992111" y1="55.9838766844575" x2="184.79861257418682" y2="53.974584948166154" stroke="black" stroke-width="1" />
  <line x1="121.60525500283327" y1="79.72059243651685" x2="115.9466339789199" y2="77.07143494450517" stroke="black" stroke-width="1" />
  <line x1="26.474312169067947" y1="16.155232955105532" x2="20.530354472100274" y2="14.191272610708836" stroke="black" stroke-width="1" />
  <line x1="76.71316209431333" y1="3.0196269160756515" x2="70.66664812365492" y2="0.9505658422108638" stroke="black" stroke-width="1" />
  <line x1="118.16840539226435" y1="169.4122947316876" x2="122.39963890943616" y2="175.09253665388516" stroke="black" stroke-width="1" />
  <line x1="108.74134510276518" y1="79.06070767152686" x2="115.9466339789199" y2="77.07143494450517" stroke="black" stroke-width="1" />
  <line x1="120.2596217634716" y1="104.02576913591186" x2="125.54594630262268" y2="98.70229118982908" stroke="black" stroke-width="1" />
  <line x1="90.74690880798772" y1="16.224400016470753" x2="83.08166082665409" y2="16.10652403198688" stroke="black" stroke-width="1" />
  <line x1="19.95384588395452" y1="178.91956238601273" x2="16.218602986422567" y2="172.18602908176513" stroke="black" stroke-width="1" />
  <line x1="167.5640296264786" y1="76.26576898985242" x2="174.67603846374263" y2="79.7197213650455" stroke="black" stroke-width="1" />
  <line x1="103.80921354547334" y1="85.26447621770505" x2="108.74134510276518" y2="79.06070767152686" stroke="black" stroke-width="1" />
  <line x1="140.12720408118722" y1="40.057015984959804" x2="135.2439159277384" y2="46.855176098369895" stroke="black" stroke-width="1" />
  <line x1="149.6836303105483" y1="30.089647907438547" x2="143.3187115798402" y2="35.589641956341865" stroke="black" stroke-width="1" />
  <line x1="141.42158164781492" y1="40.866696908507976" x2="135.2439159277384" y2="46.855176098369895" stroke="black" stroke-width="1" />
  <line x1="16.218602986422567" y1="172.18602908176513" x2="24.32778985487316" y2="168.97569810688526" stroke="black" stroke-width="1" />
  <line x1="152.25370922170265" y1="179.2302931303072" x2="155.29638775585653" y2="187.63162292944781" stroke="black" stroke-width="1" />
  <line x1="48.45266676416846" y1="123.53687235342272" x2="56.41823617791635" y2="127.91708337808905" stroke="black" stroke-width="1" />
  <line x1="153.11912717444775" y1="176.46614399770965" x2="154.0578246083731" y2="167.30280552235118" stroke="black" stroke-width="1" />
  <line x1="22.04637147058661" y1="179.43929041414285" x2="16.218602986422567" y2="172.18602908176513" stroke="black" stroke-width="1" />
  <line x1="48.45266676416846" y1="123.53687235342272" x2="39.11117485332203" y2="124.79064869691723" stroke="black" stroke-width="1" />
  <line x1="125.18526740956159" y1="38.15902035015708" x2="119.69905492628605" y2="46.424030599187546" stroke="black" stroke-width="1" />
  <line x1="35.45436470981691" y1="115.56386940963812" x2="39.11117485332203" y2="124.79064869691723" stroke="black" stroke-width="1" />
  <line x1="86.1204165746048" y1="26.319066158142363" x2="83.08166082665409" y2="16.10652403198688" stroke="black" stroke-width="1" />
  <line x1="22.04637147058661" y1="179.43929041414285" x2="24.32778985487316" y2="168.97569810688526" stroke="black" stroke-width="1" />
  <line x1="30.015363451329932" y1="186.78075867689068" x2="22.04637147058661" y2="179.43929041414285" stroke="black" stroke-width="1" />
  <line x1="143.3187115798402" y1="35.589641956341865" x2="152.05264080539837" y2="29.11578020312652" stroke="black" stroke-width="1" />
  <line x1="86.1204165746048" y1="26.319066158142363" x2="90.74690880798772" y2="16.224400016470753" stroke="black" stroke-width="1" />
  <line x1="90.74690880798772" y1="16.224400016470753" x2="101.2834032435867" y2="19.765012672847007" stroke="black" stroke-width="1" />
  <line x1="12.349589713450815" y1="103.84414562292719" x2="1.7012955852740097" y2="100.38595418577891" stroke="black" stroke-width="1" />
  <line x1="150.3442171715052" y1="1.6194991021660599" x2="161.59547087533275" y2="0.0" stroke="black" stroke-width="1" />
  <line x1="153.11912717444775" y1="176.46614399770965" x2="155.29638775585653" y2="187.63162292944781" stroke="black" stroke-width="1" />
  <line x1="12.446356518411637" y1="6.068815302718349" x2="20.530354472100274" y2="14.191272610708836" stroke="black" stroke-width="1" />
  <line x1="143.81610303342228" y1="187.96584025164094" x2="155.29638775585653" y2="187.63162292944781" stroke="black" stroke-width="1" />
  <line x1="151.3222665800694" y1="5.425764925800991" x2="161.59547087533275" y2="0.0" stroke="black" stroke-width="1" />
  <line x1="107.9342393015008" y1="48.24440910001931" x2="119.69905492628605" y2="46.424030599187546" stroke="black" stroke-width="1" />
  <line x1="152.25370922170265" y1="179.2302931303072" x2="154.0578246083731" y2="167.30280552235118" stroke="black" stroke-width="1" />
  <line x1="119.83397599534304" y1="58.49020194883573" x2="119.69905492628605" y2="46.424030599187546" stroke="black" stroke-width="1" />
  <line x1="143.81610303342228" y1="187.96584025164094" x2="152.25370922170265" y2="179.2302931303072" stroke="black" stroke-width="1" />
  <line x1="19.710856867774805" y1="157.390608543508" x2="24.32778985487316" y2="168.97569810688526" stroke="black" stroke-width="1" />
  <line x1="30.015363451329932" y1="186.78075867689068" x2="19.95384588395452" y2="178.91956238601273" stroke="black" stroke-width="1" />
  <line x1="139.40403367031192" y1="173.2857485353421" x2="142.17703546517697" y2="160.8219002659235" stroke="black" stroke-width="1" />
  <line x1="108.74134510276518" y1="79.06070767152686" x2="121.60525500283327" y2="79.72059243651685" stroke="black" stroke-width="1" />
  <line x1="107.49369414846919" y1="106.17151842205443" x2="120.2596217634716" y2="104.02576913591186" stroke="black" stroke-width="1" />
  <line x1="48.45266676416846" y1="123.53687235342272" x2="53.347994602552575" y2="111.5258872615543" stroke="black" stroke-width="1" />
  <line x1="125.18526740956159" y1="38.15902035015708" x2="135.2439159277384" y2="46.855176098369895" stroke="black" stroke-width="1" />
  <line x1="38.71826061092642" y1="152.38592554142525" x2="34.547825052052204" y2="139.5836186673065" stroke="black" stroke-width="1" />
  <line x1="142.17703546517697" y1="160.8219002659235" x2="154.0578246083731" y2="167.30280552235118" stroke="black" stroke-width="1" />
  <line x1="137.97739953786177" y1="7.682219367376462" x2="151.3222665800694" y2="5.425764925800991" stroke="black" stroke-width="1" />
  <line x1="118.16840539226435" y1="169.4122947316876" x2="106.20559716401281" y2="162.78805762183123" stroke="black" stroke-width="1" />
  <line x1="150.3442171715052" y1="1.6194991021660599" x2="137.97739953786177" y2="7.682219367376462" stroke="black" stroke-width="1" />
  <line x1="143.3187115798402" y1="35.589641956341865" x2="135.2439159277384" y2="46.855176098369895" stroke="black" stroke-width="1" />
  <line x1="152.25370922170265" y1="179.2302931303072" x2="139.40403367031192" y2="173.2857485353421" stroke="black" stroke-width="1" />
  <line x1="35.70861108450662" y1="101.29273656797383" x2="35.45436470981691" y2="115.56386940963812" stroke="black" stroke-width="1" />
  <line x1="119.69905492628605" y1="46.424030599187546" x2="123.81829535246216" y2="60.336561715336984" stroke="black" stroke-width="1" />
  <line x1="76.71316209431333" y1="3.0196269160756515" x2="83.08166082665409" y2="16.10652403198688" stroke="black" stroke-width="1" />
  <line x1="83.3256053683759" y1="77.8579512636613" x2="90.4693135151348" y2="65.08569475932575" stroke="black" stroke-width="1" />
  <line x1="19.710856867774805" y1="157.390608543508" x2="16.218602986422567" y2="172.18602908176513" stroke="black" stroke-width="1" />
  <line x1="48.45266676416846" y1="123.53687235342272" x2="35.45436470981691" y2="115.56386940963812" stroke="black" stroke-width="1" />
  <line x1="48.45266676416846" y1="123.53687235342272" x2="57.27945100057592" y2="111.01863662982191" stroke="black" stroke-width="1" />
  <line x1="143.81610303342228" y1="187.96584025164094" x2="139.40403367031192" y2="173.2857485353421" stroke="black" stroke-width="1" />
  <line x1="141.1868703019674" y1="123.3019188950098" x2="141.34778989200257" y2="138.73252617722497" stroke="black" stroke-width="1" />
  <line x1="34.547825052052204" y1="139.5836186673065" x2="39.11117485332203" y2="124.79064869691723" stroke="black" stroke-width="1" />
  <line x1="119.69905492628605" y1="46.424030599187546" x2="135.2439159277384" y2="46.855176098369895" stroke="black" stroke-width="1" />
  <line x1="119.83397599534304" y1="58.49020194883573" x2="107.9342393015008" y2="48.24440910001931" stroke="black" stroke-width="1" />
  <line x1="139.40403367031192" y1="173.2857485353421" x2="154.0578246083731" y2="167.30280552235118" stroke="black" stroke-width="1" />
  <line x1="141.42158164781492" y1="40.866696908507976" x2="152.05264080539837" y2="29.11578020312652" stroke="black" stroke-width="1" />
  <line x1="154.4168976974259" y1="90.49220905291179" x2="143.50213230532572" y2="102.40795261377271" stroke="black" stroke-width="1" />
  <line x1="182.3886058602824" y1="140.50520588253596" x2="190.3792417741674" y2="154.5769594651395" stroke="black" stroke-width="1" />
  <line x1="120.2596217634716" y1="104.02576913591186" x2="103.96735676324285" y2="104.82906309432443" stroke="black" stroke-width="1" />
  <line x1="16.525504144880454" y1="138.63152613953756" x2="1.2861001049780274" y2="132.58724604594272" stroke="black" stroke-width="1" />
  <line x1="51.152892084404385" y1="59.94250473560132" x2="34.786409524036465" y2="62.035380988425345" stroke="black" stroke-width="1" />
  <line x1="86.1204165746048" y1="26.319066158142363" x2="101.2834032435867" y2="19.765012672847007" stroke="black" stroke-width="1" />
  <line x1="12.446356518411637" y1="6.068815302718349" x2="22.370390455247936" y2="19.30070485784654" stroke="black" stroke-width="1" />
  <line x1="171.77853477715095" y1="182.0715495470629" x2="181.5403022965883" y2="168.7015865779334" stroke="black" stroke-width="1" />
  <line x1="181.5403022965883" y1="168.7015865779334" x2="190.3792417741674" y2="154.5769594651395" stroke="black" stroke-width="1" />
  <line x1="141.1868703019674" y1="123.3019188950098" x2="158.00335499120666" y2="122.8939416655835" stroke="black" stroke-width="1" />
  <line x1="170.12141538559987" y1="14.507812952686777" x2="161.59547087533275" y2="0.0" stroke="black" stroke-width="1" />
  <line x1="57.27945100057592" y1="111.01863662982191" x2="56.41823617791635" y2="127.91708337808905" stroke="black" stroke-width="1" />
  <line x1="100.70301736024831" y1="121.70954611172439" x2="107.49369414846919" y2="106.17151842205443" stroke="black" stroke-width="1" />
  <line x1="139.40403367031192" y1="173.2857485353421" x2="122.39963890943616" y2="175.09253665388516" stroke="black" stroke-width="1" />
  <line x1="100.70301736024831" y1="121.70954611172439" x2="103.96735676324285" y2="104.82906309432443" stroke="black" stroke-width="1" />
  <line x1="12.446356518411637" y1="6.068815302718349" x2="26.474312169067947" y2="16.155232955105532" stroke="black" stroke-width="1" />
  <line x1="188.5919055103461" y1="6.002307451115456" x2="189.27254712528836" y2="23.34124164452618" stroke="black" stroke-width="1" />
  <line x1="171.77853477715095" y1="182.0715495470629" x2="155.29638775585653" y2="187.63162292944781" stroke="black" stroke-width="1" />
  <line x1="56.41823617791635" y1="127.91708337808905" x2="39.11117485332203" y2="124.79064869691723" stroke="black" stroke-width="1" />
  <line x1="123.81829535246216" y1="60.336561715336984" x2="135.2439159277384" y2="46.855176098369895" stroke="black" stroke-width="1" />
  <line x1="16.525504144880454" y1="138.63152613953756" x2="34.547825052052204" y2="139.5836186673065" stroke="black" stroke-width="1" />
  <line x1="0.0" y1="163.83720109762953" x2="16.218602986422567" y2="172.18602908176513" stroke="black" stroke-width="1" />
  <line x1="117.26297055529673" y1="10.883290375552207" x2="101.2834032435867" y2="19.765012672847007" stroke="black" stroke-width="1" />
  <line x1="125.18526740956159" y1="38.15902035015708" x2="143.3187115798402" y2="35.589641956341865" stroke="black" stroke-width="1" />
  <line x1="143.50213230532572" y1="102.40795261377271" x2="125.54594630262268" y2="98.70229118982908" stroke="black" stroke-width="1" />
  <line x1="53.347994602552575" y1="111.5258872615543" x2="35.45436470981691" y2="115.56386940963812" stroke="black" stroke-width="1" />
  <line x1="123.81829535246216" y1="60.336561715336984" x2="115.9466339789199" y2="77.07143494450517" stroke="black" stroke-width="1" />
  <line x1="74.92977343849785" y1="125.97767855500909" x2="56.41823617791635" y2="127.91708337808905" stroke="black" stroke-width="1" />
  <line x1="103.80921354547334" y1="85.26447621770505" x2="121.60525500283327" y2="79.72059243651685" stroke="black" stroke-width="1" />
  <line x1="30.015363451329932" y1="186.78075867689068" x2="24.32778985487316" y2="168.97569810688526" stroke="black" stroke-width="1" />
  <line x1="122.39963890943616" y1="175.09253665388516" x2="109.54789716539514" y2="188.84626728388932" stroke="black" stroke-width="1" />
  <line x1="183.64132242042808" y1="121.14717934041217" x2="194.09744537500876" y2="105.4764626896455" stroke="black" stroke-width="1" />
  <line x1="119.83397599534304" y1="58.49020194883573" x2="115.9466339789199" y2="77.07143494450517" stroke="black" stroke-width="1" />
  <line x1="16.525504144880454" y1="138.63152613953756" x2="19.710856867774805" y2="157.390608543508" stroke="black" stroke-width="1" />
  <line x1="68.01450331355967" y1="143.81230806492286" x2="74.92977343849785" y2="125.97767855500909" stroke="black" stroke-width="1" />
  <line x1="76.71316209431333" y1="3.0196269160756515" x2="90.74690880798772" y2="16.224400016470753" stroke="black" stroke-width="1" />
  <line x1="154.4168976974259" y1="90.49220905291179" x2="167.5640296264786" y2="76.26576898985242" stroke="black" stroke-width="1" />
  <line x1="121.60525500283327" y1="79.72059243651685" x2="125.54594630262268" y2="98.70229118982908" stroke="black" stroke-width="1" />
  <line x1="182.3886058602824" y1="140.50520588253596" x2="183.64132242042808" y2="121.14717934041217" stroke="black" stroke-width="1" />
  <line x1="171.77853477715095" y1="182.0715495470629" x2="153.11912717444775" y2="176.46614399770965" stroke="black" stroke-width="1" />
  <line x1="123.81829535246216" y1="60.336561715336984" x2="121.60525500283327" y2="79.72059243651685" stroke="black" stroke-width="1" />
  <line x1="103.80921354547334" y1="85.26447621770505" x2="103.96735676324285" y2="104.82906309432443" stroke="black" stroke-width="1" />
  <line x1="70.66664812365492" y1="0.9505658422108638" x2="83.08166082665409" y2="16.10652403198688" stroke="black" stroke-width="1" />
  <line x1="38.71826061092642" y1="152.38592554142525" x2="19.710856867774805" y2="157.390608543508" stroke="black" stroke-width="1" />
  <line x1="68.01450331355967" y1="143.81230806492286" x2="56.41823617791635" y2="127.91708337808905" stroke="black" stroke-width="1" />
  <line x1="141.42158164781492" y1="40.866696908507976" x2="159.866360318843" y2="48.15547274958652" stroke="black" stroke-width="1" />
  <line x1="125.18526740956159" y1="38.15902035015708" x2="107.9342393015008" y2="48.24440910001931" stroke="black" stroke-width="1" />
  <line x1="4.077749877723114" y1="78.75483571807666" x2="24.157643108291516" y2="81.75880692659595" stroke="black" stroke-width="1" />
  <line x1="170.12141538559987" y1="14.507812952686777" x2="188.5919055103461" y2="6.002307451115456" stroke="black" stroke-width="1" />
  <line x1="106.20559716401281" y1="162.78805762183123" x2="122.39963890943616" y2="175.09253665388516" stroke="black" stroke-width="1" />
  <line x1="35.70861108450662" y1="101.29273656797383" x2="53.347994602552575" y2="111.5258872615543" stroke="black" stroke-width="1" />
  <line x1="152.05264080539837" y1="29.11578020312652" x2="159.866360318843" y2="48.15547274958652" stroke="black" stroke-width="1" />
  <line x1="0.0" y1="163.83720109762953" x2="19.710856867774805" y2="157.390608543508" stroke="black" stroke-width="1" />
  <line x1="170.12141538559987" y1="14.507812952686777" x2="151.3222665800694" y2="5.425764925800991" stroke="black" stroke-width="1" />
  <line x1="117.26297055529673" y1="10.883290375552207" x2="137.97739953786177" y2="7.682219367376462" stroke="black" stroke-width="1" />
  <line x1="141.1868703019674" y1="123.3019188950098" x2="143.50213230532572" y2="102.40795261377271" stroke="black" stroke-width="1" />
  <line x1="170.12141538559987" y1="14.507812952686777" x2="189.27254712528836" y2="23.34124164452618" stroke="black" stroke-width="1" />
  <line x1="118.16840539226435" y1="169.4122947316876" x2="139.40403367031192" y2="173.2857485353421" stroke="black" stroke-width="1" />
  <line x1="120.90900235148472" y1="146.79615621530627" x2="106.20559716401281" y2="162.78805762183123" stroke="black" stroke-width="1" />
  <line x1="1.7012955852740097" y1="100.38595418577891" x2="4.077749877723114" y2="78.75483571807666" stroke="black" stroke-width="1" />
  <line x1="83.3256053683759" y1="77.8579512636613" x2="103.80921354547334" y2="85.26447621770505" stroke="black" stroke-width="1" />
  <line x1="38.71826061092642" y1="152.38592554142525" x2="24.32778985487316" y2="168.97569810688526" stroke="black" stroke-width="1" />
  <line x1="141.34778989200257" y1="138.73252617722497" x2="120.90900235148472" y2="146.79615621530627" stroke="black" stroke-width="1" />
  <line x1="171.77853477715095" y1="182.0715495470629" x2="192.4243597965241" y2="189.91417414855775" stroke="black" stroke-width="1" />
  <line x1="141.34778989200257" y1="138.73252617722497" x2="142.17703546517697" y2="160.8219002659235" stroke="black" stroke-width="1" />
  <line x1="24.157643108291516" y1="81.75880692659595" x2="34.786409524036465" y2="62.035380988425345" stroke="black" stroke-width="1" />
  <line x1="103.96735676324285" y1="104.82906309432443" x2="125.54594630262268" y2="98.70229118982908" stroke="black" stroke-width="1" />
  <line x1="35.70861108450662" y1="101.29273656797383" x2="51.20877830984756" y2="84.75125417556038" stroke="black" stroke-width="1" />
  <line x1="35.70861108450662" y1="101.29273656797383" x2="24.157643108291516" y2="81.75880692659595" stroke="black" stroke-width="1" />
  <line x1="118.16840539226435" y1="169.4122947316876" x2="120.90900235148472" y2="146.79615621530627" stroke="black" stroke-width="1" />
  <line x1="154.4168976974259" y1="90.49220905291179" x2="174.67603846374263" y2="79.7197213650455" stroke="black" stroke-width="1" />
  <line x1="141.34778989200257" y1="138.73252617722497" x2="158.00335499120666" y2="122.8939416655835" stroke="black" stroke-width="1" />
  <line x1="90.4693135151348" y1="65.08569475932575" x2="108.74134510276518" y2="79.06070767152686" stroke="black" stroke-width="1" />
  <line x1="171.77853477715095" y1="182.0715495470629" x2="154.0578246083731" y2="167.30280552235118" stroke="black" stroke-width="1" />
  <line x1="57.27945100057592" y1="111.01863662982191" x2="74.92977343849785" y2="125.97767855500909" stroke="black" stroke-width="1" />
  <line x1="34.547825052052204" y1="139.5836186673065" x2="19.710856867774805" y2="157.390608543508" stroke="black" stroke-width="1" />
  <line x1="170.12141538559987" y1="14.507812952686777" x2="152.05264080539837" y2="29.11578020312652" stroke="black" stroke-width="1" />
  <line x1="120.2596217634716" y1="104.02576913591186" x2="143.50213230532572" y2="102.40795261377271" stroke="black" stroke-width="1" />
  <line x1="119.83397599534304" y1="58.49020194883573" x2="108.74134510276518" y2="79.06070767152686" stroke="black" stroke-width="1" />
  <line x1="35.70861108450662" y1="101.29273656797383" x2="12.349589713450815" y2="103.84414562292719" stroke="black" stroke-width="1" />
  <line x1="35.70861108450662" y1="101.29273656797383" x2="57.27945100057592" y2="111.01863662982191" stroke="black" stroke-width="1" />
  <line x1="151.3222665800694" y1="5.425764925800991" x2="152.05264080539837" y2="29.11578020312652" stroke="black" stroke-width="1" />
  <line x1="192.4243597965241" y1="189.91417414855775" x2="181.5403022965883" y2="168.7015865779334" stroke="black" stroke-width="1" />
  <line x1="34.547825052052204" y1="139.5836186673065" x2="35.45436470981691" y2="115.56386940963812" stroke="black" stroke-width="1" />
  <line x1="90.4693135151348" y1="65.08569475932575" x2="103.80921354547334" y2="85.26447621770505" stroke="black" stroke-width="1" />
  <line x1="107.9342393015008" y1="48.24440910001931" x2="90.4693135151348" y2="65.08569475932575" stroke="black" stroke-width="1" />
  <line x1="26.474312169067947" y1="16.155232955105532" x2="49.36480917260857" y2="24.252904504565038" stroke="black" stroke-width="1" />
  <line x1="159.866360318843" y1="48.15547274958652" x2="135.2439159277384" y2="46.855176098369895" stroke="black" stroke-width="1" />
  <line x1="149.6836303105483" y1="30.089647907438547" x2="151.3222665800694" y2="5.425764925800991" stroke="black" stroke-width="1" />
  <line x1="34.547825052052204" y1="139.5836186673065" x2="56.41823617791635" y2="127.91708337808905" stroke="black" stroke-width="1" />
  <line x1="51.152892084404385" y1="59.94250473560132" x2="51.20877830984756" y2="84.75125417556038" stroke="black" stroke-width="1" />
  <line x1="143.81610303342228" y1="187.96584025164094" x2="122.39963890943616" y2="175.09253665388516" stroke="black" stroke-width="1" />
  <line x1="0.0" y1="163.83720109762953" x2="19.95384588395452" y2="178.91956238601273" stroke="black" stroke-width="1" />
  <line x1="12.349589713450815" y1="103.84414562292719" x2="24.157643108291516" y2="81.75880692659595" stroke="black" stroke-width="1" />
  <line x1="158.00335499120666" y1="122.8939416655835" x2="143.50213230532572" y2="102.40795261377271" stroke="black" stroke-width="1" />
  <line x1="149.6836303105483" y1="30.089647907438547" x2="137.97739953786177" y2="7.682219367376462" stroke="black" stroke-width="1" />
  <line x1="142.17703546517697" y1="160.8219002659235" x2="120.90900235148472" y2="146.79615621530627" stroke="black" stroke-width="1" />
  <line x1="118.16840539226435" y1="169.4122947316876" x2="142.17703546517697" y2="160.8219002659235" stroke="black" stroke-width="1" />
  <line x1="103.80921354547334" y1="85.26447621770505" x2="125.54594630262268" y2="98.70229118982908" stroke="black" stroke-width="1" />
  <line x1="184.79861257418682" y1="53.974584948166154" x2="159.866360318843" y2="48.15547274958652" stroke="black" stroke-width="1" />
  <line x1="183.64132242042808" y1="121.14717934041217" x2="158.00335499120666" y2="122.8939416655835" stroke="black" stroke-width="1" />
  <line x1="125.18526740956159" y1="38.15902035015708" x2="149.6836303105483" y2="30.089647907438547" stroke="black" stroke-width="1" />
  <line x1="12.349589713450815" y1="103.84414562292719" x2="35.45436470981691" y2="115.56386940963812" stroke="black" stroke-width="1" />
  <line x1="100.70301736024831" y1="121.70954611172439" x2="74.92977343849785" y2="125.97767855500909" stroke="black" stroke-width="1" />
  <line x1="106.20559716401281" y1="162.78805762183123" x2="109.54789716539514" y2="188.84626728388932" stroke="black" stroke-width="1" />
  <line x1="100.70301736024831" y1="121.70954611172439" x2="120.2596217634716" y2="104.02576913591186" stroke="black" stroke-width="1" />
  <line x1="12.349589713450815" y1="103.84414562292719" x2="4.077749877723114" y2="78.75483571807666" stroke="black" stroke-width="1" />
  <line x1="57.27945100057592" y1="111.01863662982191" x2="51.20877830984756" y2="84.75125417556038" stroke="black" stroke-width="1" />
  <line x1="117.26297055529673" y1="10.883290375552207" x2="90.74690880798772" y2="16.224400016470753" stroke="black" stroke-width="1" />
  <line x1="24.157643108291516" y1="81.75880692659595" x2="51.20877830984756" y2="84.75125417556038" stroke="black" stroke-width="1" />
  <line x1="22.370390455247936" y1="19.30070485784654" x2="49.36480917260857" y2="24.252904504565038" stroke="black" stroke-width="1" />
  <line x1="181.5403022965883" y1="168.7015865779334" x2="154.0578246083731" y2="167.30280552235118" stroke="black" stroke-width="1" />
  <line x1="188.5919055103461" y1="6.002307451115456" x2="161.59547087533275" y2="0.0" stroke="black" stroke-width="1" />
  <line x1="184.79861257418682" y1="53.974584948166154" x2="174.67603846374263" y2="79.7197213650455" stroke="black" stroke-width="1" />
  <line x1="34.786409524036465" y1="62.035380988425345" x2="51.20877830984756" y2="84.75125417556038" stroke="black" stroke-width="1" />
  <line x1="167.5640296264786" y1="76.26576898985242" x2="184.79861257418682" y2="53.974584948166154" stroke="black" stroke-width="1" />
  <line x1="3.4564281742309744" y1="40.22751315571563" x2="22.370390455247936" y2="19.30070485784654" stroke="black" stroke-width="1" />
  <line x1="182.3886058602824" y1="140.50520588253596" x2="181.5403022965883" y2="168.7015865779334" stroke="black" stroke-width="1" />
  <line x1="125.18526740956159" y1="38.15902035015708" x2="117.26297055529673" y2="10.883290375552207" stroke="black" stroke-width="1" />
  <line x1="141.1868703019674" y1="123.3019188950098" x2="120.2596217634716" y2="104.02576913591186" stroke="black" stroke-width="1" />
  <line x1="190.6653624992111" y1="55.9838766844575" x2="174.67603846374263" y2="79.7197213650455" stroke="black" stroke-width="1" />
  <line x1="167.5640296264786" y1="76.26576898985242" x2="159.866360318843" y2="48.15547274958652" stroke="black" stroke-width="1" />
  <line x1="107.9342393015008" y1="48.24440910001931" x2="101.2834032435867" y2="19.765012672847007" stroke="black" stroke-width="1" />
  <line x1="86.1204165746048" y1="26.319066158142363" x2="70.66664812365492" y2="0.9505658422108638" stroke="black" stroke-width="1" />
  <line x1="16.525504144880454" y1="138.63152613953756" x2="35.45436470981691" y2="115.56386940963812" stroke="black" stroke-width="1" />
  <line x1="154.4168976974259" y1="90.49220905291179" x2="125.54594630262268" y2="98.70229118982908" stroke="black" stroke-width="1" />
  <line x1="182.3886058602824" y1="140.50520588253596" x2="158.00335499120666" y2="122.8939416655835" stroke="black" stroke-width="1" />
  <line x1="119.83397599534304" y1="58.49020194883573" x2="90.4693135151348" y2="65.08569475932575" stroke="black" stroke-width="1" />
  <line x1="16.525504144880454" y1="138.63152613953756" x2="0.0" y2="163.83720109762953" stroke="black" stroke-width="1" />
  <line x1="125.18526740956159" y1="38.15902035015708" x2="101.2834032435867" y2="19.765012672847007" stroke="black" stroke-width="1" />
  <line x1="38.71826061092642" y1="152.38592554142525" x2="56.41823617791635" y2="127.91708337808905" stroke="black" stroke-width="1" />
  <line x1="38.71826061092642" y1="152.38592554142525" x2="68.01450331355967" y2="143.81230806492286" stroke="black" stroke-width="1" />
  <line x1="12.349589713450815" y1="103.84414562292719" x2="1.2861001049780274" y2="132.58724604594272" stroke="black" stroke-width="1" />
  <line x1="107.9342393015008" y1="48.24440910001931" x2="86.1204165746048" y2="26.319066158142363" stroke="black" stroke-width="1" />
  <line x1="184.79861257418682" y1="53.974584948166154" x2="189.27254712528836" y2="23.34124164452618" stroke="black" stroke-width="1" />
  <line x1="141.1868703019674" y1="123.3019188950098" x2="120.90900235148472" y2="146.79615621530627" stroke="black" stroke-width="1" />
  <line x1="141.34778989200257" y1="138.73252617722497" x2="154.0578246083731" y2="167.30280552235118" stroke="black" stroke-width="1" />
  <line x1="1.2861001049780274" y1="132.58724604594272" x2="0.0" y2="163.83720109762953" stroke="black" stroke-width="1" />
  <line x1="70.66664812365492" y1="0.9505658422108638" x2="49.36480917260857" y2="24.252904504565038" stroke="black" stroke-width="1" />
  <line x1="1.7012955852740097" y1="100.38595418577891" x2="1.2861001049780274" y2="132.58724604594272" stroke="black" stroke-width="1" />
  <line x1="100.70301736024831" y1="121.70954611172439" x2="120.90900235148472" y2="146.79615621530627" stroke="black" stroke-width="1" />
  <line x1="194.09744537500876" y1="105.4764626896455" x2="174.67603846374263" y2="79.7197213650455" stroke="black" stroke-width="1" />
  <line x1="2.7010767625002208" y1="45.15748355831269" x2="22.370390455247936" y2="19.30070485784654" stroke="black" stroke-width="1" />
  <line x1="154.4168976974259" y1="90.49220905291179" x2="158.00335499120666" y2="122.8939416655835" stroke="black" stroke-width="1" />
  <line x1="190.6653624992111" y1="55.9838766844575" x2="189.27254712528836" y2="23.34124164452618" stroke="black" stroke-width="1" />
  <line x1="83.3256053683759" y1="77.8579512636613" x2="51.20877830984756" y2="84.75125417556038" stroke="black" stroke-width="1" />
  <line x1="125.18526740956159" y1="38.15902035015708" x2="137.97739953786177" y2="7.682219367376462" stroke="black" stroke-width="1" />
  <line x1="2.7010767625002208" y1="45.15748355831269" x2="4.077749877723114" y2="78.75483571807666" stroke="black" stroke-width="1" />
  <line x1="83.3256053683759" y1="77.8579512636613" x2="103.96735676324285" y2="104.82906309432443" stroke="black" stroke-width="1" />
  <line x1="183.64132242042808" y1="121.14717934041217" x2="190.3792417741674" y2="154.5769594651395" stroke="black" stroke-width="1" />
  <line x1="143.81610303342228" y1="187.96584025164094" x2="109.54789716539514" y2="188.84626728388932" stroke="black" stroke-width="1" />
  <line x1="150.3442171715052" y1="1.6194991021660599" x2="117.26297055529673" y2="10.883290375552207" stroke="black" stroke-width="1" />
  <line x1="154.4168976974259" y1="90.49220905291179" x2="121.60525500283327" y2="79.72059243651685" stroke="black" stroke-width="1" />
  <line x1="4.077749877723114" y1="78.75483571807666" x2="34.786409524036465" y2="62.035380988425345" stroke="black" stroke-width="1" />
  <line x1="12.349589713450815" y1="103.84414562292719" x2="16.525504144880454" y2="138.63152613953756" stroke="black" stroke-width="1" />
  <line x1="170.12141538559987" y1="14.507812952686777" x2="159.866360318843" y2="48.15547274958652" stroke="black" stroke-width="1" />
  <line x1="12.446356518411637" y1="6.068815302718349" x2="3.4564281742309744" y2="40.22751315571563" stroke="black" stroke-width="1" />
  <line x1="192.4243597965241" y1="189.91417414855775" x2="190.3792417741674" y2="154.5769594651395" stroke="black" stroke-width="1" />
  <line x1="38.71826061092642" y1="152.38592554142525" x2="30.015363451329932" y2="186.78075867689068" stroke="black" stroke-width="1" />
  <line x1="121.60525500283327" y1="79.72059243651685" x2="135.2439159277384" y2="46.855176098369895" stroke="black" stroke-width="1" />
  <line x1="51.152892084404385" y1="59.94250473560132" x2="49.36480917260857" y2="24.252904504565038" stroke="black" stroke-width="1" />
  <line x1="74.92977343849785" y1="125.97767855500909" x2="103.96735676324285" y2="104.82906309432443" stroke="black" stroke-width="1" />
  <line x1="2.7010767625002208" y1="45.15748355831269" x2="34.786409524036465" y2="62.035380988425345" stroke="black" stroke-width="1" />
  <line x1="86.1204165746048" y1="26.319066158142363" x2="49.36480917260857" y2="24.252904504565038" stroke="black" stroke-width="1" />
  <line x1="83.3256053683759" y1="77.8579512636613" x2="51.152892084404385" y2="59.94250473560132" stroke="black" stroke-width="1" />
  <line x1="72.5948467701854" y1="190.54000232157685" x2="109.54789716539514" y2="188.84626728388932" stroke="black" stroke-width="1" />
  <line x1="192.4243597965241" y1="189.91417414855775" x2="155.29638775585653" y2="187.63162292944781" stroke="black" stroke-width="1" />
  <line x1="30.015363451329932" y1="186.78075867689068" x2="0.0" y2="163.83720109762953" stroke="black" stroke-width="1" />
  <line x1="159.866360318843" y1="48.15547274958652" x2="189.27254712528836" y2="23.34124164452618" stroke="black" stroke-width="1" />
  <line x1="182.3886058602824" y1="140.50520588253596" x2="154.0578246083731" y2="167.30280552235118" stroke="black" stroke-width="1" />
  <line x1="90.4693135151348" y1="65.08569475932575" x2="86.1204165746048" y2="26.319066158142363" stroke="black" stroke-width="1" />
  <line x1="100.70301736024831" y1="121.70954611172439" x2="68.01450331355967" y2="143.81230806492286" stroke="black" stroke-width="1" />
  <line x1="90.4693135151348" y1="65.08569475932575" x2="51.152892084404385" y2="59.94250473560132" stroke="black" stroke-width="1" />
  <line x1="158.00335499120666" y1="122.8939416655835" x2="194.09744537500876" y2="105.4764626896455" stroke="black" stroke-width="1" />
  <line x1="34.786409524036465" y1="62.035380988425345" x2="49.36480917260857" y2="24.252904504565038" stroke="black" stroke-width="1" />
  <line x1="100.70301736024831" y1="121.70954611172439" x2="141.1868703019674" y2="123.3019188950098" stroke="black" stroke-width="1" />
  <line x1="182.3886058602824" y1="140.50520588253596" x2="141.34778989200257" y2="138.73252617722497" stroke="black" stroke-width="1" />
  <line x1="12.446356518411637" y1="6.068815302718349" x2="49.36480917260857" y2="24.252904504565038" stroke="black" stroke-width="1" />
  <line x1="76.71316209431333" y1="3.0196269160756515" x2="117.26297055529673" y2="10.883290375552207" stroke="black" stroke-width="1" />
  <line x1="100.70301736024831" y1="121.70954611172439" x2="106.20559716401281" y2="162.78805762183123" stroke="black" stroke-width="1" />
  <line x1="83.3256053683759" y1="77.8579512636613" x2="57.27945100057592" y2="111.01863662982191" stroke="black" stroke-width="1" />
  <line x1="154.4168976974259" y1="90.49220905291179" x2="194.09744537500876" y2="105.4764626896455" stroke="black" stroke-width="1" />
  <line x1="68.01450331355967" y1="143.81230806492286" x2="106.20559716401281" y2="162.78805762183123" stroke="black" stroke-width="1" />
  <line x1="154.4168976974259" y1="90.49220905291179" x2="159.866360318843" y2="48.15547274958652" stroke="black" stroke-width="1" />
  <line x1="30.015363451329932" y1="186.78075867689068" x2="72.5948467701854" y2="190.54000232157685" stroke="black" stroke-width="1" />
  <line x1="72.5948467701854" y1="190.54000232157685" x2="106.20559716401281" y2="162.78805762183123" stroke="black" stroke-width="1" />
  <line x1="34.786409524036465" y1="62.035380988425345" x2="22.370390455247936" y2="19.30070485784654" stroke="black" stroke-width="1" />
  <line x1="72.5948467701854" y1="190.54000232157685" x2="68.01450331355967" y2="143.81230806492286" stroke="black" stroke-width="1" />
  <line x1="57.27945100057592" y1="111.01863662982191" x2="103.96735676324285" y2="104.82906309432443" stroke="black" stroke-width="1" />
  <line x1="117.26297055529673" y1="10.883290375552207" x2="70.66664812365492" y2="0.9505658422108638" stroke="black" stroke-width="1" />
  <line x1="154.4168976974259" y1="90.49220905291179" x2="135.2439159277384" y2="46.855176098369895" stroke="black" stroke-width="1" />
  <line x1="51.152892084404385" y1="59.94250473560132" x2="86.1204165746048" y2="26.319066158142363" stroke="black" stroke-width="1" />
  <line x1="143.81610303342228" y1="187.96584025164094" x2="192.4243597965241" y2="189.91417414855775" stroke="black" stroke-width="1" />
  <line x1="190.3792417741674" y1="154.5769594651395" x2="194.09744537500876" y2="105.4764626896455" stroke="black" stroke-width="1" />
  <line x1="190.6653624992111" y1="55.9838766844575" x2="194.09744537500876" y2="105.4764626896455" stroke="black" stroke-width="1" />
  <line x1="190.6653624992111" y1="55.9838766844575" x2="188.5919055103461" y2="6.002307451115456" stroke="black" stroke-width="1" />
  <line x1="38.71826061092642" y1="152.38592554142525" x2="72.5948467701854" y2="190.54000232157685" stroke="black" stroke-width="1" />
  <line x1="2.7010767625002208" y1="45.15748355831269" x2="1.7012955852740097" y2="100.38595418577891" stroke="black" stroke-width="1" />
  <line x1="12.446356518411637" y1="6.068815302718349" x2="70.66664812365492" y2="0.9505658422108638" stroke="black" stroke-width="1" />
  <line x1="1.7012955852740097" y1="100.38595418577891" x2="0.0" y2="163.83720109762953" stroke="black" stroke-width="1" />
  <line x1="143.81610303342228" y1="187.96584025164094" x2="72.5948467701854" y2="190.54000232157685" stroke="black" stroke-width="1" />
  <line x1="150.3442171715052" y1="1.6194991021660599" x2="70.66664812365492" y2="0.9505658422108638" stroke="black" stroke-width="1" />
  <line x1="192.4243597965241" y1="189.91417414855775" x2="194.09744537500876" y2="105.4764626896455" stroke="black" stroke-width="1" />
  <line x1="161.59547087533275" y1="0.0" x2="70.66664812365492" y2="0.9505658422108638" stroke="black" stroke-width="1" />
  <line x1="188.5919055103461" y1="6.002307451115456" x2="194.09744537500876" y2="105.4764626896455" stroke="black" stroke-width="1" />
  <line x1="2.7010767625002208" y1="45.15748355831269" x2="0.0" y2="163.83720109762953" stroke="black" stroke-width="1" />
  <line x1="192.4243597965241" y1="189.91417414855775" x2="72.5948467701854" y2="190.54000232157685" stroke="black" stroke-width="1" />
</svg>
