<?xml version="1.0" encoding="UTF-8" ?>
<svg xmlns="http://www.w3.org/2000/svg" version="1.1" width="196.57134198126923" height="196.9395146432633">
  <line x1="109.59154326082512" y1="132.22051298974338" x2="109.08700982912895" y2="131.06376385452035" stroke="black" stroke-width="1" />
  <line x1="185.99269528135534" y1="92.90988465288302" x2="186.59811012949714" y2="94.3666050445549" stroke="black" stroke-width="1" />
  <line x1="50.2590941869165" y1="135.29019989446726" x2="50.017881924816486" y2="132.45449082072082" stroke="black" stroke-width="1" />
  <line x1="157.9469977704897" y1="52.03689884526031" x2="160.1727637934149" y2="53.87102876362002" stroke="black" stroke-width="1" />
  <line x1="20.948100155683825" y1="85.38841507994434" x2="20.927765641050655" y2="82.39385430403422" stroke="black" stroke-width="1" />
  <line x1="140.40732434397066" y1="4.801616858712151" x2="142.77844635331215" y2="6.966066634026106" stroke="black" stroke-width="1" />
  <line x1="157.01699573336512" y1="113.81358404481058" x2="159.72447046233145" y2="110.70490768663606" stroke="black" stroke-width="1" />
  <line x1="172.47585484442234" y1="147.32710882895057" x2="173.68390727149267" y2="151.3239659895449" stroke="black" stroke-width="1" />
  <line x1="185.74980271403018" y1="18.811724185610842" x2="188.99307571793284" y2="22.112993446158725" stroke="black" stroke-width="1" />
  <line x1="172.47585484442234" y1="147.32710882895057" x2="167.43950880012267" y2="148.77278398421004" stroke="black" stroke-width="1" />
  <line x1="140.40732434397066" y1="4.801616858712151" x2="144.08260428773167" y2="1.0456222202882657" stroke="black" stroke-width="1" />
  <line x1="120.69187185231137" y1="84.12840402885334" x2="117.04184118357125" y2="88.16881770738908" stroke="black" stroke-width="1" />
  <line x1="117.07304237788681" y1="94.07196806441179" x2="117.04184118357125" y2="88.16881770738908" stroke="black" stroke-width="1" />
  <line x1="80.46349632542297" y1="56.4705669355115" x2="86.39783187186457" y2="55.282827593369944" stroke="black" stroke-width="1" />
  <line x1="142.77844635331215" y1="6.966066634026106" x2="144.08260428773167" y2="1.0456222202882657" stroke="black" stroke-width="1" />
  <line x1="173.11556940495947" y1="58.73548258498937" x2="178.7171121440116" y2="55.63929286581288" stroke="black" stroke-width="1" />
  <line x1="173.68390727149267" y1="151.3239659895449" x2="167.43950880012267" y2="148.77278398421004" stroke="black" stroke-width="1" />
  <line x1="72.72079492220305" y1="196.57064729209384" x2="78.3980217782149" y2="192.7726551436334" stroke="black" stroke-width="1" />
  <line x1="59.59293729909631" y1="179.65213952388365" x2="64.17925532861875" y2="174.50124870810146" stroke="black" stroke-width="1" />
  <line x1="193.57716242282743" y1="95.96939498553866" x2="186.59811012949714" y2="94.3666050445549" stroke="black" stroke-width="1" />
  <line x1="34.28021518821072" y1="61.33782066494538" x2="37.05309734277944" y2="54.307920470843385" stroke="black" stroke-width="1" />
  <line x1="42.51212349821169" y1="134.10332563712547" x2="50.017881924816486" y2="132.45449082072082" stroke="black" stroke-width="1" />
  <line x1="37.05309734277944" y1="54.307920470843385" x2="43.85449424203849" y2="58.051847315243094" stroke="black" stroke-width="1" />
  <line x1="50.2590941869165" y1="135.29019989446726" x2="42.51212349821169" y2="134.10332563712547" stroke="black" stroke-width="1" />
  <line x1="193.57716242282743" y1="95.96939498553866" x2="185.99269528135534" y2="92.90988465288302" stroke="black" stroke-width="1" />
  <line x1="55.58247370463418" y1="188.26629120747032" x2="59.98305519443565" y2="196.03630026944126" stroke="black" stroke-width="1" />
  <line x1="151.17275984754852" y1="193.62417471725814" x2="142.22920209338466" y2="192.08661916939633" stroke="black" stroke-width="1" />
  <line x1="109.96510409454959" y1="75.2869415651915" x2="103.50339302077315" y2="68.82655078205693" stroke="black" stroke-width="1" />
  <line x1="96.54976916680734" y1="84.10417918049112" x2="93.37247333951855" y2="75.35561846573698" stroke="black" stroke-width="1" />
  <line x1="85.02254880956713" y1="157.35875618502726" x2="93.89420399349561" y2="160.63851163144682" stroke="black" stroke-width="1" />
  <line x1="59.59293729909631" y1="179.65213952388365" x2="55.58247370463418" y2="188.26629120747032" stroke="black" stroke-width="1" />
  <line x1="109.59154326082512" y1="132.22051298974338" x2="100.59668514370703" y2="135.59004344756818" stroke="black" stroke-width="1" />
  <line x1="109.08700982912895" y1="131.06376385452035" x2="100.59668514370703" y2="135.59004344756818" stroke="black" stroke-width="1" />
  <line x1="194.33312374077138" y1="116.46611925536833" x2="193.66207612258523" y2="126.1214991944133" stroke="black" stroke-width="1" />
  <line x1="1.6690116990572434" y1="7.000411699310092" x2="5.307641381654937" y2="16.381980688981628" stroke="black" stroke-width="1" />
  <line x1="34.28021518821072" y1="61.33782066494538" x2="43.85449424203849" y2="58.051847315243094" stroke="black" stroke-width="1" />
  <line x1="177.10159202167037" y1="126.59536438480757" x2="184.58835223960128" y2="133.619788009383" stroke="black" stroke-width="1" />
  <line x1="96.54976916680734" y1="84.10417918049112" x2="96.52473631188627" y2="94.49750680210548" stroke="black" stroke-width="1" />
  <line x1="94.19877375839977" y1="15.888193614109753" x2="83.82276774968304" y2="16.77919063724633" stroke="black" stroke-width="1" />
  <line x1="117.07304237788681" y1="94.07196806441179" x2="120.69187185231137" y2="84.12840402885334" stroke="black" stroke-width="1" />
  <line x1="72.72079492220305" y1="196.57064729209384" x2="67.12426410984409" y2="187.49663135283498" stroke="black" stroke-width="1" />
  <line x1="147.734319838074" y1="48.59236274224088" x2="157.9469977704897" y2="52.03689884526031" stroke="black" stroke-width="1" />
  <line x1="59.59293729909631" y1="179.65213952388365" x2="67.12426410984409" y2="187.49663135283498" stroke="black" stroke-width="1" />
  <line x1="20.948100155683825" y1="85.38841507994434" x2="16.344673749371275" y2="95.4839928229279" stroke="black" stroke-width="1" />
  <line x1="59.98305519443565" y1="196.03630026944126" x2="67.12426410984409" y2="187.49663135283498" stroke="black" stroke-width="1" />
  <line x1="93.37247333951855" y1="75.35561846573698" x2="84.97180842930726" y2="82.83440068931412" stroke="black" stroke-width="1" />
  <line x1="55.58247370463418" y1="188.26629120747032" x2="67.12426410984409" y2="187.49663135283498" stroke="black" stroke-width="1" />
  <line x1="96.54976916680734" y1="84.10417918049112" x2="84.97180842930726" y2="82.83440068931412" stroke="black" stroke-width="1" />
  <line x1="193.66207612258523" y1="126.1214991944133" x2="184.58835223960128" y2="133.619788009383" stroke="black" stroke-width="1" />
  <line x1="187.03982052120568" y1="181.7038256265252" x2="189.02337937052386" y2="193.47153732835582" stroke="black" stroke-width="1" />
  <line x1="61.1650849832585" y1="127.91827355795898" x2="50.017881924816486" y2="132.45449082072082" stroke="black" stroke-width="1" />
  <line x1="93.37247333951855" y1="75.35561846573698" x2="103.50339302077315" y2="68.82655078205693" stroke="black" stroke-width="1" />
  <line x1="32.158558512747156" y1="188.21340251265102" x2="41.90568392084473" y2="181.09311622966365" stroke="black" stroke-width="1" />
  <line x1="45.20124744260154" y1="169.47755416984026" x2="41.90568392084473" y2="181.09311622966365" stroke="black" stroke-width="1" />
  <line x1="61.1650849832585" y1="127.91827355795898" x2="60.608178504949485" y2="115.69601438020112" stroke="black" stroke-width="1" />
  <line x1="173.11556940495947" y1="58.73548258498937" x2="163.9834670422047" y2="67.16225776142517" stroke="black" stroke-width="1" />
  <line x1="67.12426410984409" y1="187.49663135283498" x2="78.3980217782149" y2="192.7726551436334" stroke="black" stroke-width="1" />
  <line x1="72.72079492220305" y1="196.57064729209384" x2="59.98305519443565" y2="196.03630026944126" stroke="black" stroke-width="1" />
  <line x1="50.2590941869165" y1="135.29019989446726" x2="60.76436881874066" y2="142.6218213359851" stroke="black" stroke-width="1" />
  <line x1="183.74512816980055" y1="167.81699907948183" x2="170.96222938297842" y2="170.38006624020866" stroke="black" stroke-width="1" />
  <line x1="174.2734574074843" y1="75.17423848570571" x2="163.9834670422047" y2="67.16225776142517" stroke="black" stroke-width="1" />
  <line x1="50.2590941869165" y1="135.29019989446726" x2="61.1650849832585" y2="127.91827355795898" stroke="black" stroke-width="1" />
  <line x1="134.03480353194337" y1="141.3694707579299" x2="141.10308580227863" y2="152.5083223475985" stroke="black" stroke-width="1" />
  <line x1="185.74980271403018" y1="18.811724185610842" x2="177.32196830680414" y2="28.99509338921615" stroke="black" stroke-width="1" />
  <line x1="67.12426410984409" y1="187.49663135283498" x2="64.17925532861875" y2="174.50124870810146" stroke="black" stroke-width="1" />
  <line x1="193.79635064926464" y1="159.00487910062535" x2="183.74512816980055" y2="167.81699907948183" stroke="black" stroke-width="1" />
  <line x1="177.10159202167037" y1="126.59536438480757" x2="166.0286538628418" y2="134.09649437676393" stroke="black" stroke-width="1" />
  <line x1="147.734319838074" y1="48.59236274224088" x2="160.1727637934149" y2="53.87102876362002" stroke="black" stroke-width="1" />
  <line x1="78.3980217782149" y1="192.7726551436334" x2="91.27345051779548" y2="196.9395146432633" stroke="black" stroke-width="1" />
  <line x1="188.99307571793284" y1="22.112993446158725" x2="177.32196830680414" y2="28.99509338921615" stroke="black" stroke-width="1" />
  <line x1="196.57134198126923" y1="77.08498603984451" x2="187.9731257067541" y2="66.53787963835651" stroke="black" stroke-width="1" />
  <line x1="187.35621492143963" y1="45.09304403092642" x2="178.7171121440116" y2="55.63929286581288" stroke="black" stroke-width="1" />
  <line x1="163.9834670422047" y1="67.16225776142517" x2="160.1727637934149" y2="53.87102876362002" stroke="black" stroke-width="1" />
  <line x1="173.11556940495947" y1="58.73548258498937" x2="160.1727637934149" y2="53.87102876362002" stroke="black" stroke-width="1" />
  <line x1="16.344673749371275" y1="95.4839928229279" x2="20.927765641050655" y2="82.39385430403422" stroke="black" stroke-width="1" />
  <line x1="109.96510409454959" y1="75.2869415651915" x2="120.69187185231137" y2="84.12840402885334" stroke="black" stroke-width="1" />
  <line x1="83.8851123257276" y1="41.3071679741779" x2="86.39783187186457" y2="55.282827593369944" stroke="black" stroke-width="1" />
  <line x1="187.03982052120568" y1="181.7038256265252" x2="183.74512816980055" y2="167.81699907948183" stroke="black" stroke-width="1" />
  <line x1="178.7171121440116" y1="55.63929286581288" x2="187.9731257067541" y2="66.53787963835651" stroke="black" stroke-width="1" />
  <line x1="109.96510409454959" y1="75.2869415651915" x2="117.04184118357125" y2="88.16881770738908" stroke="black" stroke-width="1" />
  <line x1="60.76436881874066" y1="142.6218213359851" x2="61.1650849832585" y2="127.91827355795898" stroke="black" stroke-width="1" />
  <line x1="172.47585484442234" y1="147.32710882895057" x2="166.0286538628418" y2="134.09649437676393" stroke="black" stroke-width="1" />
  <line x1="166.0286538628418" y1="134.09649437676393" x2="167.43950880012267" y2="148.77278398421004" stroke="black" stroke-width="1" />
  <line x1="60.608178504949485" y1="115.69601438020112" x2="50.01068365297392" y2="105.39331847893301" stroke="black" stroke-width="1" />
  <line x1="19.25449244450683" y1="67.19749151159269" x2="20.927765641050655" y2="82.39385430403422" stroke="black" stroke-width="1" />
  <line x1="55.58247370463418" y1="188.26629120747032" x2="41.90568392084473" y2="181.09311622966365" stroke="black" stroke-width="1" />
  <line x1="83.8851123257276" y1="41.3071679741779" x2="80.46349632542297" y2="56.4705669355115" stroke="black" stroke-width="1" />
  <line x1="96.54976916680734" y1="84.10417918049112" x2="109.96510409454959" y2="75.2869415651915" stroke="black" stroke-width="1" />
  <line x1="147.734319838074" y1="48.59236274224088" x2="140.1723737618216" y2="34.371618886569735" stroke="black" stroke-width="1" />
  <line x1="19.25449244450683" y1="67.19749151159269" x2="34.28021518821072" y2="61.33782066494538" stroke="black" stroke-width="1" />
  <line x1="174.2734574074843" y1="75.17423848570571" x2="187.9731257067541" y2="66.53787963835651" stroke="black" stroke-width="1" />
  <line x1="96.52473631188627" y1="94.49750680210548" x2="84.97180842930726" y2="82.83440068931412" stroke="black" stroke-width="1" />
  <line x1="45.20124744260154" y1="169.47755416984026" x2="28.811357215661726" y2="170.52265193328094" stroke="black" stroke-width="1" />
  <line x1="174.2734574074843" y1="75.17423848570571" x2="173.11556940495947" y2="58.73548258498937" stroke="black" stroke-width="1" />
  <line x1="177.10159202167037" y1="126.59536438480757" x2="193.66207612258523" y2="126.1214991944133" stroke="black" stroke-width="1" />
  <line x1="157.9469977704897" y1="52.03689884526031" x2="173.11556940495947" y2="58.73548258498937" stroke="black" stroke-width="1" />
  <line x1="109.96510409454959" y1="75.2869415651915" x2="93.37247333951855" y2="75.35561846573698" stroke="black" stroke-width="1" />
  <line x1="173.11556940495947" y1="58.73548258498937" x2="187.9731257067541" y2="66.53787963835651" stroke="black" stroke-width="1" />
  <line x1="28.811357215661726" y1="170.52265193328094" x2="41.90568392084473" y2="181.09311622966365" stroke="black" stroke-width="1" />
  <line x1="159.72447046233145" y1="110.70490768663606" x2="163.33902498598889" y2="93.64087244932989" stroke="black" stroke-width="1" />
  <line x1="59.59293729909631" y1="179.65213952388365" x2="45.20124744260154" y2="169.47755416984026" stroke="black" stroke-width="1" />
  <line x1="11.173508473014081" y1="112.43178504631163" x2="16.344673749371275" y2="95.4839928229279" stroke="black" stroke-width="1" />
  <line x1="59.59293729909631" y1="179.65213952388365" x2="41.90568392084473" y2="181.09311622966365" stroke="black" stroke-width="1" />
  <line x1="12.040476479141525" y1="164.40723237496746" x2="28.811357215661726" y2="170.52265193328094" stroke="black" stroke-width="1" />
  <line x1="28.811357215661726" y1="170.52265193328094" x2="32.158558512747156" y2="188.21340251265102" stroke="black" stroke-width="1" />
  <line x1="0.0" y1="87.55335417651925" x2="16.344673749371275" y2="95.4839928229279" stroke="black" stroke-width="1" />
  <line x1="172.47585484442234" y1="147.32710882895057" x2="184.58835223960128" y2="133.619788009383" stroke="black" stroke-width="1" />
  <line x1="2.881184919144042" y1="128.89951463938903" x2="11.173508473014081" y2="112.43178504631163" stroke="black" stroke-width="1" />
  <line x1="80.46349632542297" y1="56.4705669355115" x2="63.1243217630469" y2="62.92560193051065" stroke="black" stroke-width="1" />
  <line x1="72.72079492220305" y1="196.57064729209384" x2="91.27345051779548" y2="196.9395146432633" stroke="black" stroke-width="1" />
  <line x1="166.0286538628418" y1="134.09649437676393" x2="184.58835223960128" y2="133.619788009383" stroke="black" stroke-width="1" />
  <line x1="157.01699573336512" y1="113.81358404481058" x2="139.8009984081171" y2="106.520523032589" stroke="black" stroke-width="1" />
  <line x1="187.35621492143963" y1="45.09304403092642" x2="177.32196830680414" y2="28.99509338921615" stroke="black" stroke-width="1" />
  <line x1="196.57134198126923" y1="77.08498603984451" x2="185.99269528135534" y2="92.90988465288302" stroke="black" stroke-width="1" />
  <line x1="189.1222877855681" y1="0.0" x2="185.74980271403018" y2="18.811724185610842" stroke="black" stroke-width="1" />
  <line x1="99.60249244986126" y1="113.36284606690973" x2="96.52473631188627" y2="94.49750680210548" stroke="black" stroke-width="1" />
  <line x1="196.57134198126923" y1="77.08498603984451" x2="193.57716242282743" y2="95.96939498553866" stroke="black" stroke-width="1" />
  <line x1="173.68390727149267" y1="151.3239659895449" x2="170.96222938297842" y2="170.38006624020866" stroke="black" stroke-width="1" />
  <line x1="183.74512816980055" y1="167.81699907948183" x2="173.68390727149267" y2="151.3239659895449" stroke="black" stroke-width="1" />
  <line x1="2.881184919144042" y1="128.89951463938903" x2="15.09883763808233" y2="144.24698908606518" stroke="black" stroke-width="1" />
  <line x1="64.17925532861875" y1="174.50124870810146" x2="45.20124744260154" y2="169.47755416984026" stroke="black" stroke-width="1" />
  <line x1="61.1650849832585" y1="127.91827355795898" x2="42.51212349821169" y2="134.10332563712547" stroke="black" stroke-width="1" />
  <line x1="187.03982052120568" y1="181.7038256265252" x2="170.96222938297842" y2="170.38006624020866" stroke="black" stroke-width="1" />
  <line x1="28.366344739936356" y1="25.925829435151883" x2="27.307278303042224" y2="6.241800551855931" stroke="black" stroke-width="1" />
  <line x1="173.11556940495947" y1="58.73548258498937" x2="187.35621492143963" y2="45.09304403092642" stroke="black" stroke-width="1" />
  <line x1="63.1243217630469" y1="62.92560193051065" x2="43.85449424203849" y2="58.051847315243094" stroke="black" stroke-width="1" />
  <line x1="194.33312374077138" y1="116.46611925536833" x2="177.10159202167037" y2="126.59536438480757" stroke="black" stroke-width="1" />
  <line x1="99.60249244986126" y1="113.36284606690973" x2="109.08700982912895" y2="131.06376385452035" stroke="black" stroke-width="1" />
  <line x1="117.07304237788681" y1="94.07196806441179" x2="109.96510409454959" y2="75.2869415651915" stroke="black" stroke-width="1" />
  <line x1="60.76436881874066" y1="142.6218213359851" x2="42.51212349821169" y2="134.10332563712547" stroke="black" stroke-width="1" />
  <line x1="139.8009984081171" y1="106.520523032589" x2="159.72447046233145" y2="110.70490768663606" stroke="black" stroke-width="1" />
  <line x1="12.040476479141525" y1="164.40723237496746" x2="15.09883763808233" y2="144.24698908606518" stroke="black" stroke-width="1" />
  <line x1="194.33312374077138" y1="116.46611925536833" x2="193.57716242282743" y2="95.96939498553866" stroke="black" stroke-width="1" />
  <line x1="117.07304237788681" y1="94.07196806441179" x2="96.52473631188627" y2="94.49750680210548" stroke="black" stroke-width="1" />
  <line x1="173.68390727149267" y1="151.3239659895449" x2="184.58835223960128" y2="133.619788009383" stroke="black" stroke-width="1" />
  <line x1="114.7112724677641" y1="156.44425909804056" x2="93.89420399349561" y2="160.63851163144682" stroke="black" stroke-width="1" />
  <line x1="93.37247333951855" y1="75.35561846573698" x2="86.39783187186457" y2="55.282827593369944" stroke="black" stroke-width="1" />
  <line x1="174.2734574074843" y1="75.17423848570571" x2="185.99269528135534" y2="92.90988465288302" stroke="black" stroke-width="1" />
  <line x1="187.35621492143963" y1="45.09304403092642" x2="187.9731257067541" y2="66.53787963835651" stroke="black" stroke-width="1" />
  <line x1="174.2734574074843" y1="75.17423848570571" x2="163.33902498598889" y2="93.64087244932989" stroke="black" stroke-width="1" />
  <line x1="193.79635064926464" y1="159.00487910062535" x2="173.68390727149267" y2="151.3239659895449" stroke="black" stroke-width="1" />
  <line x1="0.0" y1="87.55335417651925" x2="20.927765641050655" y2="82.39385430403422" stroke="black" stroke-width="1" />
  <line x1="103.50339302077315" y1="68.82655078205693" x2="86.39783187186457" y2="55.282827593369944" stroke="black" stroke-width="1" />
  <line x1="167.43950880012267" y1="148.77278398421004" x2="170.96222938297842" y2="170.38006624020866" stroke="black" stroke-width="1" />
  <line x1="19.25449244450683" y1="67.19749151159269" x2="37.05309734277944" y2="54.307920470843385" stroke="black" stroke-width="1" />
  <line x1="189.1222877855681" y1="0.0" x2="188.99307571793284" y2="22.112993446158725" stroke="black" stroke-width="1" />
  <line x1="157.01699573336512" y1="113.81358404481058" x2="166.0286538628418" y2="134.09649437676393" stroke="black" stroke-width="1" />
  <line x1="99.60249244986126" y1="113.36284606690973" x2="100.59668514370703" y2="135.59004344756818" stroke="black" stroke-width="1" />
  <line x1="196.57134198126923" y1="77.08498603984451" x2="174.2734574074843" y2="75.17423848570571" stroke="black" stroke-width="1" />
  <line x1="120.69187185231137" y1="84.12840402885334" x2="130.27751038500764" y2="63.690558326206684" stroke="black" stroke-width="1" />
  <line x1="185.99269528135534" y1="92.90988465288302" x2="163.33902498598889" y2="93.64087244932989" stroke="black" stroke-width="1" />
  <line x1="96.54976916680734" y1="84.10417918049112" x2="117.07304237788681" y2="94.07196806441179" stroke="black" stroke-width="1" />
  <line x1="80.46349632542297" y1="56.4705669355115" x2="93.37247333951855" y2="75.35561846573698" stroke="black" stroke-width="1" />
  <line x1="120.69187185231137" y1="84.12840402885334" x2="103.50339302077315" y2="68.82655078205693" stroke="black" stroke-width="1" />
  <line x1="187.35621492143963" y1="45.09304403092642" x2="188.99307571793284" y2="22.112993446158725" stroke="black" stroke-width="1" />
  <line x1="147.734319838074" y1="48.59236274224088" x2="130.27751038500764" y2="63.690558326206684" stroke="black" stroke-width="1" />
  <line x1="78.3980217782149" y1="192.7726551436334" x2="64.17925532861875" y2="174.50124870810146" stroke="black" stroke-width="1" />
  <line x1="186.59811012949714" y1="94.3666050445549" x2="163.33902498598889" y2="93.64087244932989" stroke="black" stroke-width="1" />
  <line x1="194.33312374077138" y1="116.46611925536833" x2="186.59811012949714" y2="94.3666050445549" stroke="black" stroke-width="1" />
  <line x1="55.58247370463418" y1="188.26629120747032" x2="32.158558512747156" y2="188.21340251265102" stroke="black" stroke-width="1" />
  <line x1="177.10159202167037" y1="126.59536438480757" x2="159.72447046233145" y2="110.70490768663606" stroke="black" stroke-width="1" />
  <line x1="193.79635064926464" y1="159.00487910062535" x2="187.03982052120568" y2="181.7038256265252" stroke="black" stroke-width="1" />
  <line x1="157.01699573336512" y1="113.81358404481058" x2="177.10159202167037" y2="126.59536438480757" stroke="black" stroke-width="1" />
  <line x1="27.307278303042224" y1="6.241800551855931" x2="5.307641381654937" y2="16.381980688981628" stroke="black" stroke-width="1" />
  <line x1="114.7112724677641" y1="156.44425909804056" x2="134.03480353194337" y2="141.3694707579299" stroke="black" stroke-width="1" />
  <line x1="83.8851123257276" y1="41.3071679741779" x2="83.82276774968304" y2="16.77919063724633" stroke="black" stroke-width="1" />
  <line x1="147.734319838074" y1="48.59236274224088" x2="163.9834670422047" y2="67.16225776142517" stroke="black" stroke-width="1" />
  <line x1="114.7112724677641" y1="156.44425909804056" x2="109.59154326082512" y2="132.22051298974338" stroke="black" stroke-width="1" />
  <line x1="34.28021518821072" y1="61.33782066494538" x2="20.927765641050655" y2="82.39385430403422" stroke="black" stroke-width="1" />
  <line x1="28.366344739936356" y1="25.925829435151883" x2="5.307641381654937" y2="16.381980688981628" stroke="black" stroke-width="1" />
  <line x1="157.9469977704897" y1="52.03689884526031" x2="140.1723737618216" y2="34.371618886569735" stroke="black" stroke-width="1" />
  <line x1="61.1650849832585" y1="127.91827355795898" x2="50.01068365297392" y2="105.39331847893301" stroke="black" stroke-width="1" />
  <line x1="114.7112724677641" y1="156.44425909804056" x2="100.59668514370703" y2="135.59004344756818" stroke="black" stroke-width="1" />
  <line x1="1.6690116990572434" y1="7.000411699310092" x2="27.307278303042224" y2="6.241800551855931" stroke="black" stroke-width="1" />
  <line x1="117.07304237788681" y1="94.07196806441179" x2="139.8009984081171" y2="106.520523032589" stroke="black" stroke-width="1" />
  <line x1="100.59668514370703" y1="135.59004344756818" x2="93.89420399349561" y2="160.63851163144682" stroke="black" stroke-width="1" />
  <line x1="99.60249244986126" y1="113.36284606690973" x2="117.07304237788681" y2="94.07196806441179" stroke="black" stroke-width="1" />
  <line x1="109.59154326082512" y1="132.22051298974338" x2="134.03480353194337" y2="141.3694707579299" stroke="black" stroke-width="1" />
  <line x1="163.9834670422047" y1="67.16225776142517" x2="163.33902498598889" y2="93.64087244932989" stroke="black" stroke-width="1" />
  <line x1="141.10308580227863" y1="152.5083223475985" x2="167.43950880012267" y2="148.77278398421004" stroke="black" stroke-width="1" />
  <line x1="114.7112724677641" y1="156.44425909804056" x2="141.10308580227863" y2="152.5083223475985" stroke="black" stroke-width="1" />
  <line x1="80.46349632542297" y1="56.4705669355115" x2="84.97180842930726" y2="82.83440068931412" stroke="black" stroke-width="1" />
  <line x1="100.59668514370703" y1="135.59004344756818" x2="85.02254880956713" y2="157.35875618502726" stroke="black" stroke-width="1" />
  <line x1="139.8009984081171" y1="106.520523032589" x2="163.33902498598889" y2="93.64087244932989" stroke="black" stroke-width="1" />
  <line x1="85.02254880956713" y1="157.35875618502726" x2="64.17925532861875" y2="174.50124870810146" stroke="black" stroke-width="1" />
  <line x1="109.08700982912895" y1="131.06376385452035" x2="134.03480353194337" y2="141.3694707579299" stroke="black" stroke-width="1" />
  <line x1="193.79635064926464" y1="159.00487910062535" x2="184.58835223960128" y2="133.619788009383" stroke="black" stroke-width="1" />
  <line x1="103.50339302077315" y1="68.82655078205693" x2="130.27751038500764" y2="63.690558326206684" stroke="black" stroke-width="1" />
  <line x1="0.0" y1="87.55335417651925" x2="11.173508473014081" y2="112.43178504631163" stroke="black" stroke-width="1" />
  <line x1="94.19877375839977" y1="15.888193614109753" x2="83.8851123257276" y2="41.3071679741779" stroke="black" stroke-width="1" />
  <line x1="63.1243217630469" y1="62.92560193051065" x2="37.05309734277944" y2="54.307920470843385" stroke="black" stroke-width="1" />
  <line x1="34.28021518821072" y1="61.33782066494538" x2="20.948100155683825" y2="85.38841507994434" stroke="black" stroke-width="1" />
  <line x1="140.1723737618216" y1="34.371618886569735" x2="142.77844635331215" y2="6.966066634026106" stroke="black" stroke-width="1" />
  <line x1="19.25449244450683" y1="67.19749151159269" x2="0.0" y2="87.55335417651925" stroke="black" stroke-width="1" />
  <line x1="60.76436881874066" y1="142.6218213359851" x2="85.02254880956713" y2="157.35875618502726" stroke="black" stroke-width="1" />
  <line x1="20.948100155683825" y1="85.38841507994434" x2="11.173508473014081" y2="112.43178504631163" stroke="black" stroke-width="1" />
  <line x1="63.1243217630469" y1="62.92560193051065" x2="34.28021518821072" y2="61.33782066494538" stroke="black" stroke-width="1" />
  <line x1="59.98305519443565" y1="196.03630026944126" x2="32.158558512747156" y2="188.21340251265102" stroke="black" stroke-width="1" />
  <line x1="42.51212349821169" y1="134.10332563712547" x2="15.09883763808233" y2="144.24698908606518" stroke="black" stroke-width="1" />
  <line x1="189.02337937052386" y1="193.47153732835582" x2="170.96222938297842" y2="170.38006624020866" stroke="black" stroke-width="1" />
  <line x1="120.69187185231137" y1="84.12840402885334" x2="139.8009984081171" y2="106.520523032589" stroke="black" stroke-width="1" />
  <line x1="63.1243217630469" y1="62.92560193051065" x2="84.97180842930726" y2="82.83440068931412" stroke="black" stroke-width="1" />
  <line x1="140.1723737618216" y1="34.371618886569735" x2="140.40732434397066" y2="4.801616858712151" stroke="black" stroke-width="1" />
  <line x1="15.09883763808233" y1="144.24698908606518" x2="28.811357215661726" y2="170.52265193328094" stroke="black" stroke-width="1" />
  <line x1="42.51212349821169" y1="134.10332563712547" x2="50.01068365297392" y2="105.39331847893301" stroke="black" stroke-width="1" />
  <line x1="28.366344739936356" y1="25.925829435151883" x2="37.05309734277944" y2="54.307920470843385" stroke="black" stroke-width="1" />
  <line x1="83.8851123257276" y1="41.3071679741779" x2="63.1243217630469" y2="62.92560193051065" stroke="black" stroke-width="1" />
  <line x1="173.11556940495947" y1="58.73548258498937" x2="177.32196830680414" y2="28.99509338921615" stroke="black" stroke-width="1" />
  <line x1="157.9469977704897" y1="52.03689884526031" x2="177.32196830680414" y2="28.99509338921615" stroke="black" stroke-width="1" />
  <line x1="151.17275984754852" y1="193.62417471725814" x2="170.96222938297842" y2="170.38006624020866" stroke="black" stroke-width="1" />
  <line x1="140.1723737618216" y1="34.371618886569735" x2="130.27751038500764" y2="63.690558326206684" stroke="black" stroke-width="1" />
  <line x1="141.10308580227863" y1="152.5083223475985" x2="166.0286538628418" y2="134.09649437676393" stroke="black" stroke-width="1" />
  <line x1="60.76436881874066" y1="142.6218213359851" x2="45.20124744260154" y2="169.47755416984026" stroke="black" stroke-width="1" />
  <line x1="12.040476479141525" y1="164.40723237496746" x2="32.158558512747156" y2="188.21340251265102" stroke="black" stroke-width="1" />
  <line x1="189.1222877855681" y1="0.0" x2="177.32196830680414" y2="28.99509338921615" stroke="black" stroke-width="1" />
  <line x1="186.59811012949714" y1="94.3666050445549" x2="159.72447046233145" y2="110.70490768663606" stroke="black" stroke-width="1" />
  <line x1="15.09883763808233" y1="144.24698908606518" x2="11.173508473014081" y2="112.43178504631163" stroke="black" stroke-width="1" />
  <line x1="60.76436881874066" y1="142.6218213359851" x2="64.17925532861875" y2="174.50124870810146" stroke="black" stroke-width="1" />
  <line x1="64.17925532861875" y1="174.50124870810146" x2="93.89420399349561" y2="160.63851163144682" stroke="black" stroke-width="1" />
  <line x1="134.03480353194337" y1="141.3694707579299" x2="166.0286538628418" y2="134.09649437676393" stroke="black" stroke-width="1" />
  <line x1="193.79635064926464" y1="159.00487910062535" x2="193.66207612258523" y2="126.1214991944133" stroke="black" stroke-width="1" />
  <line x1="196.57134198126923" y1="77.08498603984451" x2="187.35621492143963" y2="45.09304403092642" stroke="black" stroke-width="1" />
  <line x1="140.1723737618216" y1="34.371618886569735" x2="144.08260428773167" y2="1.0456222202882657" stroke="black" stroke-width="1" />
  <line x1="177.10159202167037" y1="126.59536438480757" x2="186.59811012949714" y2="94.3666050445549" stroke="black" stroke-width="1" />
  <line x1="83.8851123257276" y1="41.3071679741779" x2="103.50339302077315" y2="68.82655078205693" stroke="black" stroke-width="1" />
  <line x1="99.60249244986126" y1="113.36284606690973" x2="84.97180842930726" y2="82.83440068931412" stroke="black" stroke-width="1" />
  <line x1="163.9834670422047" y1="67.16225776142517" x2="130.27751038500764" y2="63.690558326206684" stroke="black" stroke-width="1" />
  <line x1="193.79635064926464" y1="159.00487910062535" x2="189.02337937052386" y2="193.47153732835582" stroke="black" stroke-width="1" />
  <line x1="141.10308580227863" y1="152.5083223475985" x2="170.96222938297842" y2="170.38006624020866" stroke="black" stroke-width="1" />
  <line x1="64.17925532861875" y1="174.50124870810146" x2="91.27345051779548" y2="196.9395146432633" stroke="black" stroke-width="1" />
  <line x1="20.948100155683825" y1="85.38841507994434" x2="50.01068365297392" y2="105.39331847893301" stroke="black" stroke-width="1" />
  <line x1="134.03480353194337" y1="141.3694707579299" x2="139.8009984081171" y2="106.520523032589" stroke="black" stroke-width="1" />
  <line x1="42.51212349821169" y1="134.10332563712547" x2="45.20124744260154" y2="169.47755416984026" stroke="black" stroke-width="1" />
  <line x1="157.01699573336512" y1="113.81358404481058" x2="134.03480353194337" y2="141.3694707579299" stroke="black" stroke-width="1" />
  <line x1="142.22920209338466" y1="192.08661916939633" x2="170.96222938297842" y2="170.38006624020866" stroke="black" stroke-width="1" />
  <line x1="93.89420399349561" y1="160.63851163144682" x2="91.27345051779548" y2="196.9395146432633" stroke="black" stroke-width="1" />
  <line x1="12.040476479141525" y1="164.40723237496746" x2="2.881184919144042" y2="128.89951463938903" stroke="black" stroke-width="1" />
  <line x1="140.1723737618216" y1="34.371618886569735" x2="177.32196830680414" y2="28.99509338921615" stroke="black" stroke-width="1" />
  <line x1="109.08700982912895" y1="131.06376385452035" x2="117.07304237788681" y2="94.07196806441179" stroke="black" stroke-width="1" />
  <line x1="151.17275984754852" y1="193.62417471725814" x2="189.02337937052386" y2="193.47153732835582" stroke="black" stroke-width="1" />
  <line x1="61.1650849832585" y1="127.91827355795898" x2="85.02254880956713" y2="157.35875618502726" stroke="black" stroke-width="1" />
  <line x1="42.51212349821169" y1="134.10332563712547" x2="11.173508473014081" y2="112.43178504631163" stroke="black" stroke-width="1" />
  <line x1="42.51212349821169" y1="134.10332563712547" x2="28.811357215661726" y2="170.52265193328094" stroke="black" stroke-width="1" />
  <line x1="99.60249244986126" y1="113.36284606690973" x2="60.608178504949485" y2="115.69601438020112" stroke="black" stroke-width="1" />
  <line x1="109.08700982912895" y1="131.06376385452035" x2="139.8009984081171" y2="106.520523032589" stroke="black" stroke-width="1" />
  <line x1="196.57134198126923" y1="77.08498603984451" x2="194.33312374077138" y2="116.46611925536833" stroke="black" stroke-width="1" />
  <line x1="11.173508473014081" y1="112.43178504631163" x2="50.01068365297392" y2="105.39331847893301" stroke="black" stroke-width="1" />
  <line x1="141.10308580227863" y1="152.5083223475985" x2="142.22920209338466" y2="192.08661916939633" stroke="black" stroke-width="1" />
  <line x1="61.1650849832585" y1="127.91827355795898" x2="100.59668514370703" y2="135.59004344756818" stroke="black" stroke-width="1" />
  <line x1="60.608178504949485" y1="115.69601438020112" x2="84.97180842930726" y2="82.83440068931412" stroke="black" stroke-width="1" />
  <line x1="99.60249244986126" y1="113.36284606690973" x2="61.1650849832585" y2="127.91827355795898" stroke="black" stroke-width="1" />
  <line x1="0.0" y1="87.55335417651925" x2="2.881184919144042" y2="128.89951463938903" stroke="black" stroke-width="1" />
  <line x1="84.97180842930726" y1="82.83440068931412" x2="50.01068365297392" y2="105.39331847893301" stroke="black" stroke-width="1" />
  <line x1="19.25449244450683" y1="67.19749151159269" x2="28.366344739936356" y2="25.925829435151883" stroke="black" stroke-width="1" />
  <line x1="194.33312374077138" y1="116.46611925536833" x2="193.79635064926464" y2="159.00487910062535" stroke="black" stroke-width="1" />
  <line x1="177.32196830680414" y1="28.99509338921615" x2="144.08260428773167" y2="1.0456222202882657" stroke="black" stroke-width="1" />
  <line x1="120.69187185231137" y1="84.12840402885334" x2="163.33902498598889" y2="93.64087244932989" stroke="black" stroke-width="1" />
  <line x1="63.1243217630469" y1="62.92560193051065" x2="50.01068365297392" y2="105.39331847893301" stroke="black" stroke-width="1" />
  <line x1="130.27751038500764" y1="63.690558326206684" x2="163.33902498598889" y2="93.64087244932989" stroke="black" stroke-width="1" />
  <line x1="114.7112724677641" y1="156.44425909804056" x2="142.22920209338466" y2="192.08661916939633" stroke="black" stroke-width="1" />
  <line x1="189.1222877855681" y1="0.0" x2="144.08260428773167" y2="1.0456222202882657" stroke="black" stroke-width="1" />
  <line x1="34.28021518821072" y1="61.33782066494538" x2="50.01068365297392" y2="105.39331847893301" stroke="black" stroke-width="1" />
  <line x1="114.7112724677641" y1="156.44425909804056" x2="91.27345051779548" y2="196.9395146432633" stroke="black" stroke-width="1" />
  <line x1="94.19877375839977" y1="15.888193614109753" x2="140.40732434397066" y2="4.801616858712151" stroke="black" stroke-width="1" />
  <line x1="83.8851123257276" y1="41.3071679741779" x2="37.05309734277944" y2="54.307920470843385" stroke="black" stroke-width="1" />
  <line x1="37.05309734277944" y1="54.307920470843385" x2="27.307278303042224" y2="6.241800551855931" stroke="black" stroke-width="1" />
  <line x1="94.19877375839977" y1="15.888193614109753" x2="140.1723737618216" y2="34.371618886569735" stroke="black" stroke-width="1" />
  <line x1="140.1723737618216" y1="34.371618886569735" x2="103.50339302077315" y2="68.82655078205693" stroke="black" stroke-width="1" />
  <line x1="142.22920209338466" y1="192.08661916939633" x2="91.27345051779548" y2="196.9395146432633" stroke="black" stroke-width="1" />
  <line x1="94.19877375839977" y1="15.888193614109753" x2="144.08260428773167" y2="1.0456222202882657" stroke="black" stroke-width="1" />
  <line x1="19.25449244450683" y1="67.19749151159269" x2="5.307641381654937" y2="16.381980688981628" stroke="black" stroke-width="1" />
  <line x1="94.19877375839977" y1="15.888193614109753" x2="103.50339302077315" y2="68.82655078205693" stroke="black" stroke-width="1" />
  <line x1="196.57134198126923" y1="77.08498603984451" x2="188.99307571793284" y2="22.112993446158725" stroke="black" stroke-width="1" />
  <line x1="83.82276774968304" y1="16.77919063724633" x2="27.307278303042224" y2="6.241800551855931" stroke="black" stroke-width="1" />
  <line x1="83.82276774968304" y1="16.77919063724633" x2="37.05309734277944" y2="54.307920470843385" stroke="black" stroke-width="1" />
  <line x1="151.17275984754852" y1="193.62417471725814" x2="91.27345051779548" y2="196.9395146432633" stroke="black" stroke-width="1" />
  <line x1="83.82276774968304" y1="16.77919063724633" x2="144.08260428773167" y2="1.0456222202882657" stroke="black" stroke-width="1" />
  <line x1="19.25449244450683" y1="67.19749151159269" x2="1.6690116990572434" y2="7.000411699310092" stroke="black" stroke-width="1" />
  <line x1="196.57134198126923" y1="77.08498603984451" x2="189.1222877855681" y2="0.0" stroke="black" stroke-width="1" />
  <line x1="0.0" y1="87.55335417651925" x2="1.6690116990572434" y2="7.000411699310092" stroke="black" stroke-width="1" />
  <line x1="196.57134198126923" y1="77.08498603984451" x2="193.79635064926464" y2="159.00487910062535" stroke="black" stroke-width="1" />
  <line x1="189.02337937052386" y1="193.47153732835582" x2="91.27345051779548" y2="196.9395146432633" stroke="black" stroke-width="1" />
  <line x1="27.307278303042224" y1="6.241800551855931" x2="144.08260428773167" y2="1.0456222202882657" stroke="black" stroke-width="1" />
  <line x1="1.6690116990572434" y1="7.000411699310092" x2="144.08260428773167" y2="1.0456222202882657" stroke="black" stroke-width="1" />
</svg>
