<?xml version="1.0" encoding="UTF-8" ?>
<svg xmlns="http://www.w3.org/2000/svg" version="1.1" width="450.1737374444476" height="450.1925660711383">
  <line x1="200.17806023976902" y1="149.99812638295566" x2="250.00122619833036" y2="100.11909540015893" stroke="black" stroke-width="1" />
  <line x1="50.01908129812531" y1="250.0002103995571" x2="0.17100447505327157" y2="200.14484300669534" stroke="black" stroke-width="1" />
  <line x1="300.0052785007085" y1="350.00890209567336" x2="250.12127617698155" y2="300.1764100717493" stroke="black" stroke-width="1" />
  <line x1="100.16507963786188" y1="250.0445391456181" x2="150.0664462998404" y2="200.1911710918783" stroke="black" stroke-width="1" />
  <line x1="450.0105562675074" y1="200.0058779072453" x2="400.16556567332793" y2="150.07848450777516" stroke="black" stroke-width="1" />
  <line x1="250.15845530650833" y1="200.0035057306691" x2="300.05789651884777" y2="150.12417385543233" stroke="black" stroke-width="1" />
  <line x1="200.08596722878224" y1="200.02326748783486" x2="250.0340551013911" y2="150.17755973267725" stroke="black" stroke-width="1" />
  <line x1="100.1026968140116" y1="50.03037564675412" x2="50.178917464140554" y2="0.1465597120923121" stroke="black" stroke-width="1" />
  <line x1="350.0555412475726" y1="50.03290103165597" x2="300.1668089477907" y2="0.1137434453415267" stroke="black" stroke-width="1" />
  <line x1="150.01123420302335" y1="400.0211954017816" x2="100.09595345311371" y2="350.1259174137745" stroke="black" stroke-width="1" />
  <line x1="350.03968377032214" y1="150.02035464034378" x2="300.0624449455771" y2="100.18194114096912" stroke="black" stroke-width="1" />
  <line x1="400.08240570249626" y1="450.030354112894" x2="350.1395552926741" y2="400.1549212130153" stroke="black" stroke-width="1" />
  <line x1="350.0555412475726" y1="50.03290103165597" x2="400.0250870728029" y2="0.18231603499356197" stroke="black" stroke-width="1" />
  <line x1="150.1149056323729" y1="150.0620909921538" x2="100.17342125776274" y2="100.17361657571644" stroke="black" stroke-width="1" />
  <line x1="50.02066083932064" y1="100.12800520818212" x2="0.17348250868510934" y2="50.13911768860561" stroke="black" stroke-width="1" />
  <line x1="150.178791547801" y1="50.06583599421293" x2="200.1396141063467" y2="0.1899002666714864" stroke="black" stroke-width="1" />
  <line x1="50.00127920940016" y1="200.02062606592102" x2="0.07799779200870206" y2="150.09361339147773" stroke="black" stroke-width="1" />
  <line x1="399.9958571080497" y1="350.0297303204783" x2="350.09815690557963" y2="300.0762272068302" stroke="black" stroke-width="1" />
  <line x1="150.18622967176566" y1="300.03395010922105" x2="200.09707589538948" y2="250.0901484054" stroke="black" stroke-width="1" />
  <line x1="0.1908387457892389" y1="450.10877947734247" x2="50.11034410852055" y2="400.1694490247577" stroke="black" stroke-width="1" />
  <line x1="200.0749617292561" y1="100.03108448409222" x2="150.178791547801" y2="50.06583599421293" stroke="black" stroke-width="1" />
  <line x1="150.01123420302335" y1="400.0211954017816" x2="200.04397504220978" y2="350.19069166928716" stroke="black" stroke-width="1" />
  <line x1="350.09815690557963" y1="300.0762272068302" x2="300.1249539852316" y2="250.1826010716867" stroke="black" stroke-width="1" />
  <line x1="400.16556567332793" y1="150.07848450777516" x2="450.11959630454584" y2="100.16508330208296" stroke="black" stroke-width="1" />
  <line x1="450.14294660078946" y1="350.03724028485226" x2="400.1493268761291" y2="300.15370328915276" stroke="black" stroke-width="1" />
  <line x1="300.04802583694305" y1="399.997837036704" x2="249.9997010524909" y2="350.1676613408181" stroke="black" stroke-width="1" />
  <line x1="200.11507598417523" y1="400.1629650435709" x2="249.9997010524909" y2="350.1676613408181" stroke="black" stroke-width="1" />
  <line x1="400.1493268761291" y1="300.15370328915276" x2="450.0680999484716" y2="250.1833184904147" stroke="black" stroke-width="1" />
  <line x1="400.0302500566728" y1="250.07684242111023" x2="350.16484167197086" y2="200.05054793815418" stroke="black" stroke-width="1" />
  <line x1="300.11247685458443" y1="450.0261030608183" x2="250.15591478472982" y2="400.0866852869169" stroke="black" stroke-width="1" />
  <line x1="300.11247685458443" y1="450.0261030608183" x2="350.1395552926741" y2="400.1549212130153" stroke="black" stroke-width="1" />
  <line x1="100.00373224551309" y1="300.0463754782078" x2="150.0027678552162" y2="250.14674541802137" stroke="black" stroke-width="1" />
  <line x1="50.07666625453299" y1="350.0930474711024" x2="0.1290581283914499" y2="300.14083157416616" stroke="black" stroke-width="1" />
  <line x1="0.07799779200870206" y1="150.09361339147773" x2="50.02066083932064" y2="100.12800520818212" stroke="black" stroke-width="1" />
  <line x1="300.01241177621176" y1="50.05332646175685" x2="250.11724424668273" y2="0.034533959997133934" stroke="black" stroke-width="1" />
  <line x1="150.1743770060427" y1="450.1391754869389" x2="200.11507598417523" y2="400.1629650435709" stroke="black" stroke-width="1" />
  <line x1="250.03034184605184" y1="450.1697630179701" x2="200.11507598417523" y2="400.1629650435709" stroke="black" stroke-width="1" />
  <line x1="299.99643824287483" y1="300.13367668183275" x2="250.0642989484779" y2="250.14186865403366" stroke="black" stroke-width="1" />
  <line x1="350.03968377032214" y1="150.02035464034378" x2="400.0307177626919" y2="100.08382690253495" stroke="black" stroke-width="1" />
  <line x1="200.09707589538948" y1="250.0901484054" x2="150.0664462998404" y2="200.1911710918783" stroke="black" stroke-width="1" />
  <line x1="350.09815690557963" y1="300.0762272068302" x2="400.0302500566728" y2="250.07684242111023" stroke="black" stroke-width="1" />
  <line x1="200.08596722878224" y1="200.02326748783486" x2="150.1149056323729" y2="150.0620909921538" stroke="black" stroke-width="1" />
  <line x1="200.05469215343788" y1="300.06495726178514" x2="250.0642989484779" y2="250.14186865403366" stroke="black" stroke-width="1" />
  <line x1="50.074612970077276" y1="50.11339275132718" x2="0.12567598655425843" y2="0.1253682334510131" stroke="black" stroke-width="1" />
  <line x1="300.04802583694305" y1="399.997837036704" x2="350.0634617875678" y2="350.0758817425774" stroke="black" stroke-width="1" />
  <line x1="450.0770518479184" y1="50.07472090109019" x2="400.0250870728029" y2="0.18231603499356197" stroke="black" stroke-width="1" />
  <line x1="400.08240570249626" y1="450.030354112894" x2="450.0478589955556" y2="400.04868368173493" stroke="black" stroke-width="1" />
  <line x1="150.01480700383993" y1="100.06635350560941" x2="100.1026968140116" y2="50.03037564675412" stroke="black" stroke-width="1" />
  <line x1="50.01908129812531" y1="250.0002103995571" x2="100.14850952991719" y2="200.1779998583072" stroke="black" stroke-width="1" />
  <line x1="250.1641854137789" y1="50.122135259097604" x2="200.1396141063467" y2="0.1899002666714864" stroke="black" stroke-width="1" />
  <line x1="300.0624449455771" y1="100.18194114096912" x2="250.1641854137789" y2="50.122135259097604" stroke="black" stroke-width="1" />
  <line x1="400.03761859605237" y1="400.07000084742157" x2="350.0634617875678" y2="350.0758817425774" stroke="black" stroke-width="1" />
  <line x1="100.0571854856063" y1="450.1925660711383" x2="50.11034410852055" y2="400.1694490247577" stroke="black" stroke-width="1" />
  <line x1="100.1026968140116" y1="50.03037564675412" x2="150.0756971836546" y2="0.03163981333926813" stroke="black" stroke-width="1" />
  <line x1="350.16484167197086" y1="200.05054793815418" x2="400.16556567332793" y2="150.07848450777516" stroke="black" stroke-width="1" />
  <line x1="50.07666625453299" y1="350.0930474711024" x2="100.00373224551309" y2="300.0463754782078" stroke="black" stroke-width="1" />
  <line x1="350.0738177313816" y1="100.08098715844449" x2="400.0411352270856" y2="50.067530300310466" stroke="black" stroke-width="1" />
  <line x1="150.09590962749485" y1="350.09223197915105" x2="200.05469215343788" y2="300.06495726178514" stroke="black" stroke-width="1" />
  <line x1="150.1149056323729" y1="150.0620909921538" x2="200.0749617292561" y2="100.03108448409222" stroke="black" stroke-width="1" />
  <line x1="200.0749617292561" y1="100.03108448409222" x2="250.1641854137789" y2="50.122135259097604" stroke="black" stroke-width="1" />
  <line x1="0.0" y1="400.02517404147375" x2="50.07666625453299" y2="350.0930474711024" stroke="black" stroke-width="1" />
  <line x1="350.0634617875678" y1="350.0758817425774" x2="299.99643824287483" y2="300.13367668183275" stroke="black" stroke-width="1" />
  <line x1="100.15111289090268" y1="400.0342618229632" x2="50.07666625453299" y2="350.0930474711024" stroke="black" stroke-width="1" />
  <line x1="250.0340551013911" y1="150.17755973267725" x2="300.0624449455771" y2="100.18194114096912" stroke="black" stroke-width="1" />
  <line x1="50.163495493120436" y1="300.0676607127015" x2="100.16507963786188" y2="250.0445391456181" stroke="black" stroke-width="1" />
  <line x1="300.0459632266926" y1="200.0515683063336" x2="350.03968377032214" y2="150.02035464034378" stroke="black" stroke-width="1" />
  <line x1="100.12797843064106" y1="150.04624639736022" x2="50.02066083932064" y2="100.12800520818212" stroke="black" stroke-width="1" />
  <line x1="100.14850952991719" y1="200.1779998583072" x2="50.10497308384234" y2="150.19416825245855" stroke="black" stroke-width="1" />
  <line x1="0.1290581283914499" y1="300.14083157416616" x2="50.01908129812531" y2="250.0002103995571" stroke="black" stroke-width="1" />
  <line x1="249.9997010524909" y1="350.1676613408181" x2="200.05469215343788" y2="300.06495726178514" stroke="black" stroke-width="1" />
  <line x1="400.0302500566728" y1="250.07684242111023" x2="450.0105562675074" y2="200.0058779072453" stroke="black" stroke-width="1" />
  <line x1="400.0307177626919" y1="100.08382690253495" x2="450.0770518479184" y2="50.07472090109019" stroke="black" stroke-width="1" />
  <line x1="450.0478589955556" y1="400.04868368173493" x2="399.9958571080497" y2="350.0297303204783" stroke="black" stroke-width="1" />
  <line x1="250.0642989484779" y1="250.14186865403366" x2="300.0459632266926" y2="200.0515683063336" stroke="black" stroke-width="1" />
  <line x1="100.14850952991719" y1="200.1779998583072" x2="150.1149056323729" y2="150.0620909921538" stroke="black" stroke-width="1" />
  <line x1="350.0738177313816" y1="100.08098715844449" x2="300.01241177621176" y2="50.05332646175685" stroke="black" stroke-width="1" />
  <line x1="250.0642989484779" y1="250.14186865403366" x2="200.08596722878224" y2="200.02326748783486" stroke="black" stroke-width="1" />
  <line x1="350.0057954296044" y1="250.19329761230284" x2="300.0459632266926" y2="200.0515683063336" stroke="black" stroke-width="1" />
  <line x1="100.0571854856063" y1="450.1925660711383" x2="150.01123420302335" y2="400.0211954017816" stroke="black" stroke-width="1" />
  <line x1="150.09590962749485" y1="350.09223197915105" x2="100.00373224551309" y2="300.0463754782078" stroke="black" stroke-width="1" />
  <line x1="100.17342125776274" y1="100.17361657571644" x2="50.074612970077276" y2="50.11339275132718" stroke="black" stroke-width="1" />
  <line x1="350.16484167197086" y1="200.05054793815418" x2="450.0105562675074" y2="200.0058779072453" stroke="black" stroke-width="1" />
  <line x1="150.1743770060427" y1="450.1391754869389" x2="250.03034184605184" y2="450.1697630179701" stroke="black" stroke-width="1" />
  <line x1="0.1908387457892389" y1="450.10877947734247" x2="100.0571854856063" y2="450.1925660711383" stroke="black" stroke-width="1" />
  <line x1="50.178917464140554" y1="0.1465597120923121" x2="150.0756971836546" y2="0.03163981333926813" stroke="black" stroke-width="1" />
  <line x1="0.024369661200164483" y1="250.01193352383868" x2="0.07799779200870206" y2="150.09361339147773" stroke="black" stroke-width="1" />
  <line x1="0.12567598655425843" y1="0.1253682334510131" x2="100.11116861842471" y2="0.08115310388558328" stroke="black" stroke-width="1" />
  <line x1="250.11724424668273" y1="0.034533959997133934" x2="350.1098799592859" y2="0.1197096536020581" stroke="black" stroke-width="1" />
  <line x1="250.0340551013911" y1="150.17755973267725" x2="350.03968377032214" y2="150.02035464034378" stroke="black" stroke-width="1" />
  <line x1="250.03034184605184" y1="450.1697630179701" x2="350.04145145024796" y2="450.1744447022152" stroke="black" stroke-width="1" />
  <line x1="350.0555412475726" y1="50.03290103165597" x2="450.0770518479184" y2="50.07472090109019" stroke="black" stroke-width="1" />
  <line x1="350.1098799592859" y1="0.1197096536020581" x2="450.13299473274657" y2="0.0" stroke="black" stroke-width="1" />
  <line x1="150.0756971836546" y1="0.03163981333926813" x2="250.11724424668273" y2="0.034533959997133934" stroke="black" stroke-width="1" />
  <line x1="0.014188152437859633" y1="100.18052336230465" x2="0.12567598655425843" y2="0.1253682334510131" stroke="black" stroke-width="1" />
  <line x1="0.037124607208671" y1="350.07754922172785" x2="0.024369661200164483" y2="250.01193352383868" stroke="black" stroke-width="1" />
  <line x1="450.1737374444476" y1="450.12424067238686" x2="450.14294660078946" y2="350.03724028485226" stroke="black" stroke-width="1" />
  <line x1="350.04145145024796" y1="450.1744447022152" x2="450.1737374444476" y2="450.12424067238686" stroke="black" stroke-width="1" />
  <line x1="450.0680999484716" y1="250.1833184904147" x2="450.1458846528307" y2="150.0390384445193" stroke="black" stroke-width="1" />
  <line x1="450.11959630454584" y1="100.16508330208296" x2="450.13299473274657" y2="0.0" stroke="black" stroke-width="1" />
  <line x1="0.024369661200164483" y1="250.01193352383868" x2="0.014188152437859633" y2="100.18052336230465" stroke="black" stroke-width="1" />
  <line x1="0.12567598655425843" y1="0.1253682334510131" x2="150.0756971836546" y2="0.03163981333926813" stroke="black" stroke-width="1" />
  <line x1="450.1149064342869" y1="300.0043968424368" x2="450.1458846528307" y2="150.0390384445193" stroke="black" stroke-width="1" />
  <line x1="100.0571854856063" y1="450.1925660711383" x2="250.03034184605184" y2="450.1697630179701" stroke="black" stroke-width="1" />
  <line x1="0.0" y1="400.02517404147375" x2="0.024369661200164483" y2="250.01193352383868" stroke="black" stroke-width="1" />
  <line x1="450.1458846528307" y1="150.0390384445193" x2="450.13299473274657" y2="0.0" stroke="black" stroke-width="1" />
  <line x1="450.14294660078946" y1="350.03724028485226" x2="450.1458846528307" y2="150.0390384445193" stroke="black" stroke-width="1" />
  <line x1="250.11724424668273" y1="0.034533959997133934" x2="450.13299473274657" y2="0.0" stroke="black" stroke-width="1" />
  <line x1="100.0571854856063" y1="450.1925660711383" x2="350.04145145024796" y2="450.1744447022152" stroke="black" stroke-width="1" />
  <line x1="0.0" y1="400.02517404147375" x2="0.014188152437859633" y2="100.18052336230465" stroke="black" stroke-width="1" />
  <line x1="150.0756971836546" y1="0.03163981333926813" x2="450.13299473274657" y2="0.0" stroke="black" stroke-width="1" />
  <line x1="450.1737374444476" y1="450.12424067238686" x2="450.1458846528307" y2="150.0390384445193" stroke="black" stroke-width="1" />
  <line x1="450.1737374444476" y1="450.12424067238686" x2="450.13299473274657" y2="0.0" stroke="black" stroke-width="1" />
</svg>
