<?xml version="1.0" encoding="UTF-8" ?>
<svg xmlns="http://www.w3.org/2000/svg" version="1.1" width="120" height="120">
  <rect x="0" y="80" width="40" height="40" stroke="black" stroke-width="1" fill="blue" />
  <rect x="0" y="40" width="40" height="40" stroke="black" stroke-width="1" fill="gray" />
  <rect x="0" y="0" width="40" height="40" stroke="black" stroke-width="1" fill="blue" />
  <rect x="40" y="80" width="40" height="40" stroke="black" stroke-width="1" fill="white" />
  <rect x="40" y="40" width="40" height="40" stroke="black" stroke-width="1" fill="gray" />
  <rect x="40" y="0" width="40" height="40" stroke="black" stroke-width="1" fill="white" />
  <rect x="80" y="80" width="40" height="40" stroke="black" stroke-width="1" fill="white" />
  <rect x="80" y="40" width="40" height="40" stroke="black" stroke-width="1" fill="white" />
  <rect x="80" y="0" width="40" height="40" stroke="black" stroke-width="1" fill="white" />
  <line x1="20" y1="100" x2="60" y2="100" stroke="red" stroke-width="1" />
  <line x1="60" y1="100" x2="100" y2="100" stroke="red" stroke-width="1" />
  <line x1="100" y1="100" x2="100" y2="60" stroke="red" stroke-width="1" />
  <line x1="100" y1="60" x2="100" y2="20" stroke="red" stroke-width="1" />
  <line x1="100" y1="20" x2="60" y2="20" stroke="red" stroke-width="1" />
  <line x1="60" y1="20" x2="20" y2="20" stroke="red" stroke-width="1" />
</svg>
